<?xml version="1.0" encoding="UTF-8"?><svg xmlns="http://www.w3.org/2000/svg" viewBox="0 0 67.25 402.32"><defs><style>.cls-1{isolation:isolate;}.cls-2{fill:#ffb14d;}.cls-2,.cls-3{stroke-width:0px;}.cls-3{fill:#fff;}.cls-4{mix-blend-mode:multiply;}</style></defs><g class="cls-1"><g id="_レイヤー_2"><g id="_レイヤー_1-2"><rect class="cls-3" x="0" width="67.25" height="380.09" rx="14" ry="14"/><path class="cls-2" d="M33.37,45.38c-.06-.03-.12-.06-.16-.07-.05-.02-.1-.03-.17-.05s-.12-.04-.16-.07c-.05-.03-.1-.06-.17-.09-.03-.06-.07-.13-.12-.19-.05-.06-.08-.13-.09-.21-.02-.08-.02-.16-.02-.24v-.26c.5-1,1-2.02,1.48-3.04.49-1.02,1-2.02,1.55-2.99.55-.97,1.13-1.94,1.74-2.89s1.22-1.91,1.81-2.85c-.56-.22-1.11-.46-1.65-.73-.53-.27-1.07-.52-1.62-.75s-1.1-.49-1.65-.75c-.55-.27-1.09-.54-1.62-.82-.31.47-.63.93-.94,1.37-.31.44-.61.89-.89,1.37-.28.47-.55.95-.8,1.44-.25.49-.52.96-.8,1.44-.06.03-.13.07-.19.12-.06.05-.13.08-.21.09-.08.02-.15.02-.21.02h-.24l-.47-.24c-.03-.06-.07-.12-.12-.19-.05-.06-.08-.13-.09-.21-.02-.08-.02-.16-.02-.24v-.26c.28-.6.58-1.19.89-1.79s.67-1.17,1.06-1.72c.39-.55.78-1.11,1.15-1.67.38-.56.71-1.15.99-1.74.06-.03.13-.07.19-.12.06-.05.13-.08.21-.09s.15-.02.21-.02h.24l.47.24v.09l.38.19c.13.25.3.43.52.54.22.11.45.22.68.33.24.11.46.22.68.33.22.11.44.23.66.35.44.16.87.34,1.29.54s.85.4,1.27.59c.42.19.85.37,1.29.54.44.17.85.42,1.22.73.03.09.08.17.14.24s.12.14.17.24c.05.09.07.19.07.28v.28l-.24.47c-.47.69-.96,1.39-1.46,2.1-.5.71-.97,1.43-1.39,2.17-.42.74-.85,1.48-1.27,2.24-.42.75-.82,1.51-1.2,2.26-.13.28-.25.57-.38.87-.13.3-.27.58-.42.85-.16.27-.3.55-.42.85s-.28.59-.47.87c-.06.03-.12.06-.16.09-.05.03-.1.06-.17.09s-.13.05-.19.05-.13.01-.19.05Z"/><path class="cls-2" d="M30.03,60.16l-.47-.24c-.22-.44-.35-.89-.4-1.37-.05-.47-.08-.94-.09-1.41-.02-.47-.05-.94-.09-1.41-.05-.47-.07-.96-.07-1.46.03-.22.05-.46.05-.71v-.75c0-.25,0-.49.02-.73.02-.24.1-.45.26-.64.06-.03.13-.07.19-.12.06-.05.13-.08.21-.09.08-.01.15-.02.21-.02h.24l.47.24c.16.19.24.4.24.64v2.14l-.05.89c0,.38.03.74.09,1.08.06.35.09.7.09,1.06s.03.71.09,1.06c.06.35.09.71.09,1.08l-.24.52c-.06.03-.13.07-.19.12-.06.05-.13.08-.21.09-.08.02-.15.02-.21.02h-.24ZM37.8,69.06l-.47-.24c-.13-.16-.2-.34-.24-.54-.03-.2-.05-.42-.05-.64v-1.27c.19-1.22.3-2.46.33-3.72.03-1.25.1-2.51.21-3.77.11-1.26.18-2.51.21-3.77.03-1.25.22-2.48.56-3.67.06-.03.12-.07.19-.12.06-.05.13-.08.21-.09.08-.01.15-.02.21-.02h.24l.47.24c.03.06.07.13.12.19.05.06.08.13.09.21.02.08.02.16.02.24v.26c-.16,1.38-.27,2.75-.35,4.12s-.16,2.75-.24,4.14c-.08,1.4-.16,2.78-.26,4.14s-.24,2.72-.42,4.07c-.06.03-.13.07-.19.12-.06.05-.13.08-.21.09-.08.02-.15.02-.21.02h-.24Z"/><path class="cls-2" d="M32.52,83.13l-.47-.24c-.19-.31-.31-.65-.38-1.01s-.12-.73-.16-1.11-.1-.75-.16-1.11c-.06-.36-.13-.73-.19-1.11.03-.06.05-.12.07-.16.02-.05.03-.1.05-.17s.04-.12.07-.17c.03-.05.06-.1.09-.16.06-.03.13-.07.19-.12.06-.05.13-.08.21-.09.08-.02.15-.02.21-.02h.24l.47.24c.19.34.31.71.35,1.08.05.38.1.75.16,1.13.06.38.13.76.19,1.15.06.39.11.78.14,1.15l-.24.47c-.06.03-.13.07-.19.12-.06.05-.13.08-.21.09-.08.02-.15.02-.21.02h-.24ZM36.76,82.76l-.47-.24c-.19-.28-.31-.6-.35-.94-.05-.35-.08-.7-.09-1.06-.02-.36-.02-.72-.02-1.08s-.03-.71-.09-1.06c.03-.06.05-.12.07-.17s.03-.1.05-.17c.02-.06.04-.12.07-.17.03-.05.06-.1.09-.16.06-.03.13-.07.19-.12.06-.05.13-.08.21-.09.08-.02.15-.02.21-.02h.24l.47.24c.16.31.25.65.28,1.01.03.36.05.73.05,1.11s.02.75.07,1.11c.05.36.09.73.12,1.11l-.24.47c-.06.03-.13.07-.19.12s-.13.08-.21.09c-.08.02-.15.02-.21.02h-.24ZM38.74,90.85l-.47-.24c-.03-.06-.07-.12-.12-.17-.05-.05-.07-.11-.07-.19s-.02-.15-.05-.21c-.03-.06-.05-.12-.05-.19.41-.97.82-1.95,1.25-2.94.42-.99.87-1.97,1.34-2.94s.96-1.94,1.46-2.9c.5-.96.96-1.92,1.36-2.89.06-.03.13-.07.19-.12.06-.05.13-.08.21-.09.08-.02.15-.02.21-.02h.24l.47.24c.03.06.07.13.12.21.05.08.08.16.09.24.02.08.02.16.02.24v.26c-.35.97-.77,1.92-1.27,2.85-.5.93-.98,1.87-1.44,2.83s-.89,1.92-1.32,2.89c-.42.97-.86,1.93-1.29,2.87-.06.03-.13.07-.19.12-.06.05-.13.09-.21.12s-.16.05-.24.05h-.26Z"/><path class="cls-2" d="M33.37,117.69c-.06-.03-.12-.06-.16-.07-.05-.02-.1-.03-.17-.05s-.12-.04-.16-.07c-.05-.03-.1-.06-.17-.09-.03-.06-.07-.13-.12-.19-.05-.06-.08-.13-.09-.21-.02-.08-.02-.16-.02-.24v-.26c.5-1,1-2.02,1.48-3.04.49-1.02,1-2.02,1.55-2.99.55-.97,1.13-1.94,1.74-2.89s1.22-1.91,1.81-2.85c-.56-.22-1.11-.46-1.65-.73-.53-.27-1.07-.52-1.62-.75s-1.1-.49-1.65-.75c-.55-.27-1.09-.54-1.62-.82-.31.47-.63.93-.94,1.37-.31.44-.61.89-.89,1.37-.28.47-.55.95-.8,1.44-.25.49-.52.96-.8,1.44-.06.03-.13.07-.19.12-.06.05-.13.08-.21.09-.08.02-.15.02-.21.02h-.24l-.47-.24c-.03-.06-.07-.12-.12-.19-.05-.06-.08-.13-.09-.21-.02-.08-.02-.16-.02-.24v-.26c.28-.6.58-1.19.89-1.79s.67-1.17,1.06-1.72c.39-.55.78-1.11,1.15-1.67.38-.56.71-1.15.99-1.74.06-.03.13-.07.19-.12.06-.05.13-.08.21-.09s.15-.02.21-.02h.24l.47.24v.09l.38.19c.13.25.3.43.52.54.22.11.45.22.68.33.24.11.46.22.68.33.22.11.44.23.66.35.44.16.87.34,1.29.54s.85.4,1.27.59c.42.19.85.37,1.29.54.44.17.85.42,1.22.73.03.09.08.17.14.24s.12.14.17.24c.05.09.07.19.07.28v.28l-.24.47c-.47.69-.96,1.39-1.46,2.1-.5.71-.97,1.43-1.39,2.17-.42.74-.85,1.48-1.27,2.24-.42.75-.82,1.51-1.2,2.26-.13.28-.25.57-.38.87-.13.3-.27.58-.42.85-.16.27-.3.55-.42.85s-.28.59-.47.87c-.06.03-.12.06-.16.09-.05.03-.1.06-.17.09s-.13.05-.19.05-.13.01-.19.05Z"/><path class="cls-2" d="M36.81,140.33c-.31-.06-.62-.13-.92-.21-.3-.08-.59-.18-.87-.31-.28-.12-.57-.26-.87-.4-.3-.14-.57-.31-.82-.49-.28-.34-.52-.71-.71-1.11-.19-.39-.35-.79-.47-1.2-.13-.41-.19-.84-.19-1.29v-1.39c.13-.53.27-1.06.45-1.58.17-.52.39-1.01.66-1.48.27-.47.56-.93.89-1.39s.7-.89,1.11-1.29l.38-.38.33-.33-1.69-.14h-5.37l-.24.05-1.22-.05-.47.05-.47-.24c-.03-.06-.07-.12-.12-.19-.05-.06-.08-.13-.09-.21-.02-.08-.02-.15-.02-.21v-.24l.24-.47c.16-.12.32-.21.49-.26.17-.05.35-.07.54-.07h1.18l.14.05.05-.05h5.37c.47.06.94.1,1.41.12.47.02.93.05,1.39.09.45.05.92.06,1.39.05s.91.09,1.32.31c.03.06.07.13.12.19.05.06.08.13.09.21.02.08.02.15.02.21v.24l-.24.47c-.22.13-.43.25-.64.38-.2.12-.42.24-.64.33-.22.09-.44.2-.66.33-.22.12-.42.28-.61.47l-.05.09c-.28.19-.55.4-.8.64-.25.24-.46.49-.64.78-.17.28-.35.57-.54.85-.19.28-.35.58-.47.89-.09.28-.2.56-.33.85-.13.28-.24.57-.33.85-.09.28-.13.6-.09.94.03.35.03.67,0,.99.06.16.13.31.19.47.06.16.13.31.21.45.08.14.15.29.21.45.06.16.14.3.24.42.22.13.46.24.71.35s.5.21.75.31c.25.09.51.17.78.24.27.06.54.08.82.05l.89-.05.47.24c.03.06.07.13.12.19.05.06.08.13.09.21.02.08.02.15.02.21v.24l-.24.47c-.16.13-.33.2-.52.24-.19.03-.38.06-.56.07-.19.02-.38.02-.59.02h-.59ZM40.9,126.4l-.47-.24c-.19-.25-.3-.54-.33-.87-.03-.33-.06-.65-.09-.96-.03-.31-.06-.64-.07-.96-.02-.33-.02-.67-.02-1.01l.24-.47c.06-.03.13-.07.19-.12.06-.05.13-.08.21-.09.08-.02.15-.02.21-.02h.24l.47.24c.19.25.28.55.28.89s.02.67.05.99c.03.31.06.64.09.96.03.33.06.65.09.97l-.24.47c-.06.03-.13.07-.19.12-.06.05-.13.08-.21.09-.08.02-.15.02-.21.02h-.24ZM44.01,126.3l-.47-.24c-.16-.28-.27-.58-.33-.89-.06-.31-.1-.63-.12-.96-.02-.33-.03-.67-.05-1.01s-.02-.69-.02-1.04l.24-.47c.06-.03.13-.07.19-.12.06-.05.13-.08.21-.09.08-.01.15-.02.21-.02h.24l.47.24c.19.25.28.55.28.89s0,.69.02,1.04c.02.34.06.67.12.99.06.31.09.64.09.99l-.24.47c-.06.03-.13.07-.19.12-.06.05-.13.08-.21.09-.08.02-.15.02-.21.02h-.24Z"/><path class="cls-2" d="M27.68,166.41l-.47-.24c-.22-.5-.35-1.03-.38-1.58-.03-.55-.06-1.11-.09-1.67-.03-.57-.05-1.13-.05-1.7v-1.69l.05-.56h-.09c-.22.12-.46.23-.71.31-.25.08-.5.17-.75.26-.25.09-.49.2-.71.33-.22.12-.47.19-.75.19l-.47-.24c-.03-.06-.07-.12-.12-.19-.05-.06-.08-.13-.09-.21-.02-.08-.02-.15-.02-.21v-.24l.28-.52c.25-.22.53-.38.82-.49.3-.11.6-.22.92-.33.31-.11.61-.23.89-.35.28-.12.58-.24.89-.33l.05-.19v-4.99h-.28l-.38.05-.61-.05-1.41.24c-.06-.03-.12-.05-.16-.07-.05-.02-.1-.03-.17-.05s-.12-.04-.16-.07c-.05-.03-.1-.06-.17-.09-.03-.06-.07-.12-.12-.19-.05-.06-.08-.13-.09-.21-.02-.08-.02-.15-.02-.21v-.24l.24-.47c.19-.12.4-.21.64-.26s.46-.08.68-.09.45-.05.68-.09c.24-.05.48-.05.73-.02l.24.05.33-.05v-1.55l-.05-2.35c.03-.06.05-.12.07-.16.02-.05.03-.1.05-.17.02-.06.04-.12.07-.17s.06-.1.09-.17c.06-.03.13-.07.19-.12.06-.05.13-.08.21-.09.08-.01.15-.02.21-.02h.24l.47.24c.19.31.27.67.26,1.06-.02.39-.02.78-.02,1.15s0,.75.02,1.13.02.75.02,1.13c.22,0,.44,0,.66.02.22.02.45.02.68.02h.68c.22,0,.41.08.56.24.03.06.07.13.12.19.05.06.08.13.09.21.02.08.02.15.02.21v.24l-.24.47c-.13.09-.27.17-.42.21-.16.05-.32.07-.49.07h-1.01l-.61-.05v4.61h.09c.16-.03.31-.1.45-.21.14-.11.3-.19.47-.24s.34-.09.49-.12c.16-.03.33-.05.52-.05l.47.24c.03.09.07.17.12.24.05.06.08.13.09.21.02.08.02.15.02.21v.24l-.24.47c-.19.16-.4.27-.64.33s-.46.14-.68.24c-.22.09-.44.19-.66.28s-.44.17-.66.24l-.05,3.58c.03.31.05.63.05.94s.02.63.05.94c.03.31.06.63.09.94.03.31.05.63.05.94l-.24.47c-.06.03-.13.07-.19.12-.06.05-.13.08-.21.09s-.15.02-.21.02h-.24ZM31.96,166.6l-.47-.24c-.06-.09-.12-.2-.17-.33-.05-.12-.08-.25-.09-.38-.02-.13-.02-.26-.02-.4v-.4c.19-1.32.32-2.64.4-3.95.08-1.32.16-2.65.26-4s.2-2.68.31-4c.11-1.32.32-2.6.64-3.86.19-.16.41-.24.66-.26s.5-.05.75-.09c.25-.05.51-.07.78-.07h.78l1.41.05v-1.65l-.05-2.12.24-.47c.06-.03.13-.07.19-.12.06-.05.13-.08.21-.09.08-.01.15-.02.21-.02h.24l.47.24c.19.28.28.6.28.97v1.06c0,.35,0,.69.02,1.04.02.34.02.71.02,1.08h.71c.19-.06.4-.1.64-.12s.47-.02.71-.02h1.39c.06.03.13.05.21.07s.15.03.21.05c.06.02.13.05.19.09.06.05.12.09.19.12.03.06.07.13.12.19.05.06.09.13.12.21s.05.16.05.24v.26l-.24.47c-.06.03-.13.07-.19.12-.06.05-.13.08-.21.09s-.15.02-.21.02h-.24c-.16-.06-.32-.09-.49-.09h-1.62c-.35.09-.71.14-1.08.14s-.75.02-1.13.07c-.38.05-.76.06-1.15.05-.39-.02-.78-.02-1.15-.02l-1.18-.05-.33.09c-.19,1.32-.33,2.64-.42,3.98-.09,1.33-.19,2.66-.28,3.98-.09,1.32-.19,2.64-.28,3.95s-.27,2.62-.52,3.91c-.06.03-.13.07-.19.12-.06.05-.13.08-.21.09-.08.02-.15.02-.21.02h-.24ZM43.73,166.17l-.47-.24c-.13-.16-.21-.33-.26-.52s-.09-.37-.14-.54c-.05-.17-.11-.34-.19-.52s-.15-.35-.21-.54h-.19c-.56.19-1.15.31-1.77.35-.61.05-1.22.13-1.81.24-.6.11-1.18.24-1.74.4s-1.16.25-1.79.28l-.47-.24c-.03-.06-.07-.13-.12-.19-.05-.06-.08-.13-.09-.21-.02-.08-.03-.16-.05-.24-.02-.08-.02-.17-.02-.26.16-1.04.39-2.05.71-3.04s.65-1.97,1.01-2.94c.36-.97.68-1.97.97-2.99.28-1.02.66-2,1.13-2.94.06-.03.13-.07.19-.12.06-.05.13-.08.21-.09.08-.02.15-.02.21-.02h.24l.47.24c.03.06.07.12.12.19.05.06.08.13.09.21.02.08.02.16.02.24v.26c-.31.82-.6,1.66-.87,2.52-.27.86-.54,1.71-.82,2.54-.28.83-.58,1.66-.89,2.5-.31.83-.55,1.67-.71,2.52h.14c.41-.09.82-.2,1.22-.31.41-.11.83-.18,1.27-.21s.87-.08,1.29-.14c.42-.06.84-.16,1.25-.28l.05-.14c-.13-.25-.23-.5-.31-.75-.08-.25-.16-.5-.26-.75s-.19-.51-.28-.78c-.09-.27-.14-.54-.14-.82l.24-.47c.06-.03.13-.07.19-.12.06-.05.13-.08.21-.09.08-.02.15-.02.21-.02h.24l.47.24c.28.53.53,1.11.73,1.72.2.61.42,1.22.66,1.81.24.6.47,1.19.71,1.77.24.58.38,1.18.45,1.81l-.24.47c-.06.03-.13.07-.19.12-.06.05-.13.08-.21.09s-.15.02-.21.02h-.24Z"/><path class="cls-2" d="M28.24,189.38l-.47-.24c-.03-.06-.07-.13-.12-.19-.05-.06-.08-.13-.09-.21-.02-.08-.02-.16-.02-.24v-.26c.38-.97.78-1.95,1.2-2.92.42-.97.88-1.93,1.37-2.87.49-.94.95-1.9,1.39-2.87.44-.97.83-1.96,1.18-2.96-.31,0-.62-.02-.92-.07-.3-.05-.6-.09-.92-.12s-.64-.05-.96-.05h-.97l-.71.05-.89-.05-.71.14c-.06-.03-.13-.05-.21-.07s-.16-.04-.24-.07-.15-.07-.21-.12-.13-.09-.19-.12c-.03-.06-.07-.13-.12-.19-.05-.06-.08-.13-.09-.21s-.02-.15-.02-.21v-.24l.24-.47c.16-.13.34-.2.54-.21s.41-.02.61-.02.41,0,.61-.02c.2-.02.42-.02.64-.02l.71.05,1.65-.05,2.92.33c.16-.41.31-.82.47-1.25.16-.42.33-.85.52-1.27.19-.42.36-.85.52-1.27.16-.42.34-.82.56-1.2.06-.03.12-.07.19-.12.06-.05.13-.08.21-.09.08-.01.15-.02.21-.02h.24l.47.24c.03.06.07.13.12.19.05.06.08.13.09.21.02.08.02.16.02.24v.26l-1.65,4.24c.6.06,1.21.1,1.84.12.63.02,1.25.04,1.86.07.61.03,1.23.06,1.86.07.63.02,1.22.13,1.79.35.03.06.07.13.12.19.05.06.09.13.12.21.03.08.05.16.05.24v.26l-.24.47c-.09.06-.19.12-.28.17s-.19.07-.28.07h-.66c-.44-.09-.91-.14-1.41-.14s-.99-.02-1.46-.07c-.47-.05-.95-.06-1.44-.05s-.96,0-1.44-.07v.09c.47.79.94,1.57,1.41,2.35.47.79.94,1.58,1.41,2.38.47.8.95,1.58,1.44,2.33.49.75,1.01,1.49,1.58,2.21l.42.66h.09c.06.09.13.18.19.26.06.08.12.16.17.26.05.09.07.19.07.28v.33l-.24.47c-.06.03-.13.07-.19.12-.06.05-.13.08-.21.09-.08.02-.15.02-.21.02h-.24l-.47-.24-.28-.33c-.6-.82-1.19-1.64-1.77-2.47-.58-.83-1.12-1.68-1.62-2.54-.5-.86-1.02-1.73-1.55-2.61-.53-.88-1.1-1.73-1.69-2.54-.35.97-.74,1.92-1.18,2.85s-.89,1.84-1.36,2.75c-.47.91-.9,1.83-1.29,2.75s-.79,1.84-1.2,2.75c-.06.03-.13.07-.19.12-.06.05-.13.08-.21.09s-.15.02-.21.02h-.24Z"/><path class="cls-2" d="M30.12,213.82l-.47-.24c-.16-.22-.24-.46-.26-.73-.02-.27-.02-.54-.02-.82v-1.65c.06-.16.09-.31.09-.47v-1.46h-.09l-.66.71h-.09l-.94,1.04-.38.24-.24.38c-.06.03-.13.07-.19.12-.06.05-.13.09-.21.12-.08.03-.16.05-.24.05h-.26l-.47-.24c-.03-.06-.07-.13-.12-.19-.05-.06-.08-.13-.09-.21s-.02-.16-.02-.24v-.26l.24-.47.33-.33,1.32-1.27c.28-.28.57-.57.87-.87.3-.3.6-.58.89-.85.3-.27.6-.53.92-.78s.6-.53.85-.85l-2.02-.05-3.77.14-.47-.24c-.03-.06-.07-.13-.12-.21-.05-.08-.08-.16-.09-.24-.02-.08-.02-.15-.02-.21v-.24l.24-.47c.38-.25.81-.37,1.29-.35s.97.02,1.44,0,.95-.03,1.44-.05.97-.02,1.44-.02c.28.03.56.06.85.09.28.03.58.04.89.02.31-.02.61,0,.89.05.28.05.58.07.89.07l.05-.94-.09-1.04h-2.82c-.47,0-.93,0-1.39-.02s-.89-.13-1.29-.35c-.03-.06-.07-.13-.12-.19s-.08-.13-.09-.21-.02-.15-.02-.21v-.24l.24-.47c.09-.06.18-.12.26-.17s.17-.07.26-.07h.61c.34.06.7.09,1.06.09h3.32v-1.41c-.53,0-1.08,0-1.65.02s-1.11,0-1.65-.07c-.53-.06-1.08-.08-1.65-.05s-1.08-.08-1.55-.33c-.03-.06-.07-.12-.12-.19-.05-.06-.08-.13-.09-.21-.02-.08-.02-.15-.02-.21v-.24l.24-.47c.06-.03.13-.07.19-.12.06-.05.13-.08.21-.09.08-.02.16-.02.24-.02h.26c.47,0,.94.02,1.41.05.47.03.94.05,1.41.07s.95.02,1.44.02h1.44v-.75l-.09-.99c.03-.06.05-.12.07-.16.02-.05.03-.1.05-.17s.04-.12.07-.17c.03-.05.06-.1.09-.16.06-.03.13-.07.21-.12s.16-.08.24-.09.15-.02.21-.02h.24l.47.24c.13.16.2.34.21.56s.03.43.05.64c.02.2.03.42.05.64s.02.44.02.66c.6.03,1.21.05,1.84.05s1.25,0,1.86.02c.61.02,1.22.02,1.84,0,.61-.02,1.19.1,1.72.35.03.06.07.13.12.19.05.06.08.13.09.21.02.08.02.15.02.21v.24l-.24.47c-.06.03-.13.07-.19.12-.06.05-.13.08-.21.09-.08.02-.15.03-.21.05-.06.02-.14.02-.24.02-.5-.09-1.04-.13-1.6-.12s-1.11.02-1.65,0c-.53-.02-1.08-.02-1.62-.02s-1.09-.02-1.62-.05v1.32c.44.03.89.06,1.37.09s.93.06,1.37.09l1.32.09c.44.03.86.14,1.27.33.03.06.07.13.12.19.05.06.08.13.09.21.02.08.02.15.02.21v.24l-.24.47c-.06.03-.13.07-.21.12-.08.05-.17.08-.26.09l-.28.05c-.09.02-.19.02-.28.02-.35-.06-.7-.11-1.06-.14-.36-.03-.72-.06-1.08-.09-.36-.03-.72-.05-1.08-.07-.36-.01-.71-.04-1.06-.07v.19l.09,1.88,4.8.09,2.87-.05.52.28c.03.06.07.12.12.19.05.06.08.13.09.21.02.08.02.15.02.21v.24l-.24.52c-.09.06-.2.12-.33.16-.13.05-.25.07-.38.07h-.8v.09l.24.14c.03.06.07.12.12.19.05.06.08.13.09.21.02.08.02.15.02.21v.24l-.24.47c-.28.19-.56.38-.85.57-.28.19-.55.39-.8.61-.25.22-.52.42-.8.59-.28.17-.53.38-.75.64l.47.56,1.55,1.27c.06.09.13.19.19.28.06.09.13.18.21.26.08.08.16.14.26.19s.19.1.28.17l.56.71.05.56-.24.47c-.06.03-.13.07-.19.12-.06.05-.13.08-.21.09s-.16.02-.24.02h-.26l-.47-.24v-.09h-.09l-.19-.19-.8-.71c-.09-.16-.2-.31-.33-.47-.13-.16-.27-.29-.45-.4-.17-.11-.33-.24-.47-.38-.14-.14-.29-.27-.45-.4-.38-.47-.77-.93-1.18-1.39s-.82-.92-1.22-1.39c-.41-.47-.79-.95-1.15-1.44-.36-.49-.78-.95-1.25-1.39l-.05-.33h-.33l-2.12,1.98c0,.56,0,1.15.02,1.74.02.6,0,1.18-.07,1.74-.06.56-.08,1.14-.05,1.72.03.58-.05,1.14-.24,1.67-.06.03-.13.07-.19.12-.06.05-.13.08-.21.09-.08.02-.15.02-.21.02h-.24ZM38.22,207.32l3.3-2.35v-.09h-.99l-1.08.05-3.3-.09v.09c.16.22.31.43.47.64s.32.41.49.61c.17.2.35.41.54.61.19.2.36.4.52.59l.05-.05Z"/><path class="cls-2" d="M34.46,237.87l-.52-.24c-.22-.75-.32-1.55-.31-2.4s0-1.68-.02-2.5c-.03-.82-.06-1.64-.07-2.47-.02-.83-.04-1.67-.07-2.52l.05-.28h-.19l-2.78.05-2.68-.14-1.37.09c-.06-.03-.12-.05-.16-.07-.05-.02-.1-.03-.17-.05s-.12-.04-.16-.07c-.05-.03-.1-.06-.16-.09-.03-.06-.07-.13-.12-.19-.05-.06-.08-.13-.09-.21-.02-.08-.02-.15-.02-.21v-.24l.24-.47c.22-.16.46-.24.73-.24s.54-.02.82-.05c.28-.03.56-.05.82-.05h.82c.35,0,.69.02,1.04.07s.7.07,1.06.07h2.14l1.65-.09,1.04.09,2.82-.05c.31.03.63.05.94.05s.63,0,.94.02c.31.02.62.04.92.07.3.03.57.12.82.28.03.06.07.13.12.19s.08.13.09.21c.02.08.02.15.02.21v.24l-.24.47c-.06.03-.13.07-.19.12-.06.05-.13.08-.21.09s-.15.03-.21.05c-.06.02-.14.02-.24.02-.44-.06-.89-.1-1.37-.12-.47-.01-.93-.03-1.39-.05-.46-.02-.92-.02-1.39-.02h-1.41l-.61.05-.05.99.19,8.66-.24.47c-.06.03-.13.07-.19.12s-.13.08-.21.09-.15.02-.21.02h-.24ZM26.97,234.86l-.47-.24c-.03-.06-.07-.12-.12-.19-.05-.06-.08-.13-.09-.21-.02-.08-.02-.16-.02-.24v-.26c.16-.34.34-.68.54-1.01.2-.33.39-.66.56-.99.17-.33.36-.66.56-.99.2-.33.42-.65.64-.96.09-.06.19-.12.28-.19.09-.06.18-.12.26-.16.08-.05.17-.08.28-.09.11-.02.23-.02.35-.02l.47.24c.03.06.07.13.12.19.05.06.08.13.09.21.02.08.02.15.02.21v.24l-.24.47c-.28.25-.52.54-.71.87-.19.33-.38.65-.56.96-.19.31-.37.64-.54.96-.17.33-.37.65-.59.96-.06.03-.13.07-.19.12-.06.05-.13.08-.21.09s-.15.02-.21.02h-.24ZM37.89,222.24c-.72-.06-1.45-.11-2.19-.14-.74-.03-1.48-.06-2.24-.09-.75-.03-1.51-.05-2.26-.07-.75-.02-1.48-.13-2.17-.35-.03-.06-.07-.12-.12-.19-.05-.06-.08-.13-.09-.21-.02-.08-.02-.15-.02-.21v-.24l.24-.47c.13-.09.26-.16.4-.19s.3-.05.47-.05h.96c.66.06,1.33.11,2.02.14.69.03,1.39.06,2.09.09s1.4.05,2.1.07c.69.02,1.35.12,1.98.31.03.06.07.13.12.19.05.06.08.13.09.21.02.08.02.15.02.21v.24l-.24.47c-.09.06-.18.12-.26.17-.08.05-.17.08-.28.09s-.21.02-.31.02h-.33ZM42.03,234.81l-.47-.24c-.22-.34-.43-.7-.64-1.06-.2-.36-.42-.71-.66-1.06s-.5-.68-.8-1.01c-.3-.33-.45-.71-.45-1.15l.24-.47c.06-.03.13-.07.19-.12.06-.05.13-.08.21-.09.08-.01.15-.02.21-.02h.24l.47.24c.25.35.51.68.78,1.01.27.33.51.67.73,1.04.22.36.44.71.66,1.06.22.34.34.74.38,1.18l-.24.47c-.06.03-.13.07-.19.12-.06.05-.13.08-.21.09-.08.02-.15.02-.21.02h-.24Z"/><path class="cls-2" d="M36.81,260.84c-.31-.06-.62-.13-.92-.21-.3-.08-.59-.18-.87-.31-.28-.12-.57-.26-.87-.4-.3-.14-.57-.31-.82-.49-.28-.34-.52-.71-.71-1.11-.19-.39-.35-.79-.47-1.2-.13-.41-.19-.84-.19-1.29v-1.39c.13-.53.27-1.06.45-1.58.17-.52.39-1.01.66-1.48.27-.47.56-.93.89-1.39s.7-.89,1.11-1.29l.38-.38.33-.33-1.69-.14h-5.37l-.24.05-1.22-.05-.47.05-.47-.24c-.03-.06-.07-.12-.12-.19-.05-.06-.08-.13-.09-.21-.02-.08-.02-.15-.02-.21v-.24l.24-.47c.16-.12.32-.21.49-.26.17-.05.35-.07.54-.07h1.18l.14.05.05-.05h5.37c.47.06.94.1,1.41.12.47.02.93.05,1.39.09.45.05.92.06,1.39.05s.91.09,1.32.31c.03.06.07.13.12.19.05.06.08.13.09.21.02.08.02.15.02.21v.24l-.24.47c-.22.13-.43.25-.64.38-.2.12-.42.24-.64.33-.22.09-.44.2-.66.33-.22.12-.42.28-.61.47l-.05.09c-.28.19-.55.4-.8.64-.25.24-.46.49-.64.78-.17.28-.35.57-.54.85-.19.28-.35.58-.47.89-.09.28-.2.56-.33.85-.13.28-.24.57-.33.85-.09.28-.13.6-.09.94.03.35.03.67,0,.99.06.16.13.31.19.47.06.16.13.31.21.45.08.14.15.29.21.45.06.16.14.3.24.42.22.13.46.24.71.35s.5.21.75.31c.25.09.51.17.78.24.27.06.54.08.82.05l.89-.05.47.24c.03.06.07.13.12.19.05.06.08.13.09.21.02.08.02.15.02.21v.24l-.24.47c-.16.13-.33.2-.52.24-.19.03-.38.06-.56.07-.19.02-.38.02-.59.02h-.59ZM40.9,246.91l-.47-.24c-.19-.25-.3-.54-.33-.87-.03-.33-.06-.65-.09-.96-.03-.31-.06-.64-.07-.96-.02-.33-.02-.67-.02-1.01l.24-.47c.06-.03.13-.07.19-.12.06-.05.13-.08.21-.09.08-.02.15-.02.21-.02h.24l.47.24c.19.25.28.55.28.89s.02.67.05.99c.03.31.06.64.09.96.03.33.06.65.09.97l-.24.47c-.06.03-.13.07-.19.12-.06.05-.13.08-.21.09-.08.02-.15.02-.21.02h-.24ZM44.01,246.81l-.47-.24c-.16-.28-.27-.58-.33-.89-.06-.31-.1-.63-.12-.96-.02-.33-.03-.67-.05-1.01s-.02-.69-.02-1.04l.24-.47c.06-.03.13-.07.19-.12.06-.05.13-.08.21-.09.08-.01.15-.02.21-.02h.24l.47.24c.19.25.28.55.28.89s0,.69.02,1.04c.02.34.06.67.12.99.06.31.09.64.09.99l-.24.47c-.06.03-.13.07-.19.12-.06.05-.13.08-.21.09-.08.02-.15.02-.21.02h-.24Z"/><path class="cls-2" d="M37.51,279.06l-.47-.24-1.65-3.25h-.19c-.56.16-1.15.27-1.77.33-.61.06-1.21.14-1.79.24-.58.09-1.16.24-1.74.42s-1.15.35-1.72.47l-.47-.24c-.03-.06-.07-.12-.12-.19-.05-.06-.08-.14-.09-.24-.02-.09-.02-.17-.02-.24v-.24l.28-.52c.5-.28,1.04-.49,1.6-.61.56-.12,1.12-.24,1.67-.35.55-.11,1.11-.2,1.69-.26.58-.06,1.17-.16,1.77-.28v-.14l-1.22-2.68h-.24c-.47.09-.96.18-1.46.26-.5.08-1,.17-1.48.26-.49.09-.97.2-1.46.33-.49.12-.98.22-1.48.28l-.47-.24c-.03-.06-.07-.13-.12-.19s-.08-.13-.09-.21c-.02-.08-.02-.15-.02-.21v-.24l.24-.47c.41-.25.85-.42,1.34-.52.49-.09.98-.19,1.48-.28.5-.09.99-.18,1.46-.26.47-.08.96-.15,1.46-.21l.05-.19c-.06-.13-.12-.26-.16-.4s-.1-.28-.16-.42c-.06-.14-.1-.29-.12-.45-.02-.16-.02-.31-.02-.47l.24-.47c.06-.03.13-.07.19-.12.06-.05.13-.08.21-.09.08-.02.15-.02.21-.02h.24l.47.24c.13.16.2.32.24.49.03.17.09.34.16.49.08.16.16.31.24.47.08.16.17.31.26.47l.14.05c.25-.06.51-.13.78-.19.27-.06.54-.11.82-.14.28-.03.56-.07.82-.12.27-.05.54-.07.82-.07l.47.24c.03.06.07.13.12.19.05.06.08.13.09.21.02.08.02.15.02.21v.24l-.24.47c-.22.16-.46.26-.73.31-.27.05-.54.08-.82.09-.28.02-.56.05-.82.09-.27.05-.53.1-.78.17v.09l1.22,2.73h.19c.22-.06.46-.12.71-.19s.49-.13.73-.21c.24-.08.48-.13.73-.14.25-.02.5-.02.75-.02l.47.24c.03.06.07.13.12.19.05.06.08.13.09.21s.02.15.02.21v.24l-.24.47c-.19.16-.4.24-.64.26s-.47.05-.71.09-.46.1-.68.17-.44.13-.66.19v.14c.13.25.25.5.38.73s.25.49.38.75c.13.27.26.52.4.75s.2.51.17.82l-.24.47c-.06.03-.13.07-.19.12-.06.05-.13.08-.21.09s-.15.02-.21.02h-.24ZM36.06,285.42c-.69-.03-1.37-.12-2.02-.28-.66-.16-1.29-.35-1.91-.59-.61-.24-1.22-.5-1.81-.8-.6-.3-1.15-.67-1.65-1.11-.13-.16-.26-.31-.4-.45-.14-.14-.27-.29-.4-.45-.13-.16-.23-.32-.31-.49-.08-.17-.1-.37-.07-.59l.24-.47c.06-.03.13-.07.19-.12.06-.05.13-.08.21-.09s.15-.02.21-.02h.24l.47.24c.06.09.13.2.19.31.06.11.13.21.21.31.08.09.17.18.28.26.11.08.18.18.21.31.47.38.99.68,1.55.92l1.69.71c.56.24,1.17.38,1.81.45s1.25.19,1.81.38c.03.06.07.12.12.19.05.06.08.13.09.21.02.08.02.15.02.21v.24l-.24.47c-.06.03-.12.07-.16.12-.05.05-.11.08-.19.09-.08.02-.15.02-.21.02s-.13.02-.19.05Z"/><path class="cls-2" d="M33.73,309.85c-.31-.06-.62-.18-.92-.35-.3-.17-.57-.37-.82-.59-.28-.31-.48-.67-.59-1.06-.11-.39-.16-.82-.16-1.27s.1-.89.31-1.27c.2-.38.46-.74.78-1.08.56-.47,1.2-.78,1.91-.92.71-.14,1.45-.18,2.24-.12.35.03.68.09,1.01.19.33.09.67.17,1.01.24v-.14c-.09-.31-.22-.62-.38-.92-.16-.3-.35-.59-.56-.87-.41-.28-.85-.47-1.34-.56-.49-.09-.98-.16-1.48-.19-.72.22-1.44.41-2.17.57-.72.16-1.41.41-2.07.75l-.19.28-.14.14c-.13.09-.26.17-.4.24-.14.06-.31.08-.49.05l-.47-.24c-.09-.13-.16-.26-.21-.4-.05-.14-.06-.29-.02-.45.22-.53.51-1.04.87-1.51.36-.47.75-.93,1.15-1.37.78-.75,1.52-1.55,2.21-2.38.69-.83,1.46-1.6,2.31-2.31v-.09l-1.6-.14h-4.1l-.75.09c-.13-.03-.25-.07-.36-.12s-.22-.1-.32-.17c-.09-.12-.16-.26-.21-.4-.05-.14-.06-.29-.02-.45l.24-.47c.2-.16.42-.24.66-.26s.48-.04.73-.07h4.14c.72.09,1.44.16,2.17.19s1.41.17,2.07.42c.09.13.17.26.21.4.05.14.05.31.02.49l-.33.66c-.78.74-1.58,1.49-2.4,2.26-.82.77-1.52,1.59-2.12,2.47l-.42.38h.24c.38-.16.76-.27,1.15-.33.39-.06.81-.09,1.25-.09.69.09,1.36.23,2,.4.64.17,1.22.54,1.72,1.11.53.66.91,1.38,1.14,2.17.23.79.29,1.63.2,2.54-.11.57-.31,1.09-.61,1.57-.3.48-.65.94-1.06,1.38-.69.6-1.47,1-2.33,1.2s-1.75.34-2.66.4ZM37.02,307.21c.28-.16.53-.37.73-.65s.38-.55.54-.84v-.14c-.53-.25-1.1-.42-1.69-.49-.6-.08-1.22-.1-1.88-.07l-1.18.56c-.19.19-.31.4-.38.64s-.09.49-.09.75l.28.75.8.28c.5-.06,1-.15,1.48-.26.49-.11.95-.29,1.39-.54Z"/><path class="cls-2" d="M31.11,334.04c-.16-.06-.31-.1-.47-.12s-.31-.06-.47-.12-.3-.14-.42-.24c-.13-.09-.25-.19-.38-.28-.19-.25-.39-.49-.61-.73s-.38-.49-.49-.78c-.11-.28-.19-.57-.24-.87-.05-.3-.07-.62-.07-.97.03-.25.09-.49.16-.71.08-.22.16-.44.24-.66.08-.22.2-.42.38-.59.17-.17.35-.35.54-.54.25-.22.54-.37.87-.45.33-.08.65-.15.96-.21s.64-.1.99-.12.69-.02,1.04-.02l.52.09v-.57c0-.78-.04-1.58-.12-2.38-.08-.8-.13-1.58-.17-2.35-.03-.77-.07-1.54-.12-2.33-.05-.78-.09-1.57-.12-2.35.03-.06.05-.12.07-.17.02-.05.03-.1.05-.16s.04-.12.07-.17c.03-.05.06-.1.09-.17.06-.03.12-.07.19-.12.06-.05.13-.08.21-.09.08-.02.15-.02.21-.02h.28l.47.24c.16.28.24.58.26.89.02.31.03.64.05.96.02.33.02.66.02.99s.03.65.09.96c.28-.03.56-.03.82,0s.54.05.82.05.56,0,.85.02c.28.02.55.04.8.07l1.93-.05c.09.03.2.06.31.07s.21.03.31.05.19.05.28.09c.09.05.19.1.28.17.03.06.07.13.12.19s.08.13.09.21c.02.08.02.15.02.21v.24l-.24.47c-.06.03-.13.07-.19.12-.06.05-.13.08-.19.09-.06.02-.13.02-.21.02s-.15.02-.21.05c-.16-.06-.33-.1-.52-.12-.19-.01-.38-.02-.59-.02h-1.15l-.38.05c-.22-.06-.46-.09-.71-.09h-.73c-.24,0-.47,0-.71-.02s-.48-.02-.73-.02v.66c.03.38.07.75.12,1.13.05.38.07.78.07,1.2s0,.83.02,1.22c.02.39.02.79.02,1.2.38.06.74.13,1.08.21.35.08.69.17,1.04.26.35.09.68.2,1.01.31s.65.26.97.45c.03.06.07.13.12.19.05.06.08.13.09.21.02.08.02.15.02.21v.24l-.24.47c-.06.03-.13.07-.19.12-.06.05-.13.08-.21.09-.08.02-.16.02-.24.02h-.26c-.28-.06-.55-.15-.8-.26-.25-.11-.51-.2-.78-.26-.27-.06-.53-.13-.8-.21-.27-.08-.54-.15-.82-.21,0,.38,0,.75-.02,1.11-.02.36-.06.71-.12,1.06-.06.34-.17.67-.33.99s-.33.61-.52.89l-.42.38c-.22.09-.44.21-.66.35-.22.14-.46.22-.73.24-.27.02-.53.02-.8.02h-.82ZM32.57,332.16l.52-.33c.13-.25.24-.49.35-.73.11-.24.17-.5.19-.78s.02-.56.02-.85v-.85l-1.27-.14c-.19.03-.38.06-.59.07-.2.02-.41.05-.61.09-.2.05-.4.1-.59.17s-.35.19-.47.38c-.06.09-.11.2-.14.31-.03.11-.07.22-.12.33-.05.11-.07.23-.07.35v.38c.06.13.11.26.14.4.03.14.09.27.19.38.09.11.2.22.31.33.11.11.18.23.21.35.13.06.27.11.42.14.16.03.31.05.47.05h.99l.05-.05Z"/><path class="cls-2" d="M34.08,358.15c-.06-.03-.13-.05-.19-.07-.06-.02-.13-.03-.19-.05-.06-.02-.12-.05-.16-.09-.05-.05-.1-.09-.17-.12-.06-.09-.13-.18-.19-.26-.06-.08-.1-.17-.12-.28-.02-.11-.03-.21-.05-.31-.02-.09-.02-.2-.02-.33.03-.06.05-.12.07-.17.02-.05.03-.1.05-.17.02-.06.04-.12.07-.16.03-.05.06-.1.09-.17.09-.06.19-.13.28-.19s.2-.1.31-.12.23-.02.35-.02h.38l.61.28v.09h.09c.06.09.12.18.16.26.05.08.09.17.12.26.03.09.05.2.05.33v.33l-.24.47h-.09v.09c-.09.06-.18.12-.26.16-.08.05-.17.09-.28.12s-.21.05-.31.07c-.09.02-.22.02-.38.02ZM33.98,353.39l-.47-.24c-.03-.06-.07-.12-.12-.17-.05-.05-.07-.11-.07-.19s-.02-.15-.05-.21c-.03-.06-.05-.12-.05-.19l.05-1.69-.05-.42c.03-.12.05-.27.07-.45.02-.17.02-.34.02-.49v-.47c0-.16.02-.3.05-.42v-7.11l-.05-.19c.03-.06.05-.12.07-.16.02-.05.03-.1.05-.17.02-.06.04-.12.07-.17s.06-.1.09-.17c.06-.03.13-.07.19-.12.06-.05.13-.08.21-.09.08-.02.16-.02.24-.02h.26l.47.24c.03.06.06.12.09.17.03.05.05.1.07.17.02.06.03.12.05.17.02.05.04.1.07.16v7.44l-.14,1.93.05,2.02-.28.61c-.06.03-.13.07-.19.12-.06.05-.13.08-.21.09-.08.02-.16.02-.24.02h-.26Z"/><g class="cls-4"><path class="cls-2" d="M33.37,45.38c-.06-.03-.12-.06-.16-.07-.05-.02-.1-.03-.17-.05s-.12-.04-.16-.07c-.05-.03-.1-.06-.17-.09-.03-.06-.07-.13-.12-.19-.05-.06-.08-.13-.09-.21-.02-.08-.02-.16-.02-.24v-.26c.5-1,1-2.02,1.48-3.04.49-1.02,1-2.02,1.55-2.99.55-.97,1.13-1.94,1.74-2.89s1.22-1.91,1.81-2.85c-.56-.22-1.11-.46-1.65-.73-.53-.27-1.07-.52-1.62-.75s-1.1-.49-1.65-.75c-.55-.27-1.09-.54-1.62-.82-.31.47-.63.93-.94,1.37-.31.44-.61.89-.89,1.37-.28.47-.55.95-.8,1.44-.25.49-.52.96-.8,1.44-.06.03-.13.07-.19.12-.06.05-.13.08-.21.09-.08.02-.15.02-.21.02h-.24l-.47-.24c-.03-.06-.07-.12-.12-.19-.05-.06-.08-.13-.09-.21-.02-.08-.02-.16-.02-.24v-.26c.28-.6.58-1.19.89-1.79s.67-1.17,1.06-1.72c.39-.55.78-1.11,1.15-1.67.38-.56.71-1.15.99-1.74.06-.03.13-.07.19-.12.06-.05.13-.08.21-.09s.15-.02.21-.02h.24l.47.24v.09l.38.19c.13.25.3.43.52.54.22.11.45.22.68.33.24.11.46.22.68.33.22.11.44.23.66.35.44.16.87.34,1.29.54s.85.4,1.27.59c.42.19.85.37,1.29.54.44.17.85.42,1.22.73.03.09.08.17.14.24s.12.14.17.24c.05.09.07.19.07.28v.28l-.24.47c-.47.69-.96,1.39-1.46,2.1-.5.71-.97,1.43-1.39,2.17-.42.74-.85,1.48-1.27,2.24-.42.75-.82,1.51-1.2,2.26-.13.28-.25.57-.38.87-.13.3-.27.58-.42.85-.16.27-.3.55-.42.85s-.28.59-.47.87c-.06.03-.12.06-.16.09-.05.03-.1.06-.17.09s-.13.05-.19.05-.13.01-.19.05Z"/><path class="cls-2" d="M30.03,60.16l-.47-.24c-.22-.44-.35-.89-.4-1.37-.05-.47-.08-.94-.09-1.41-.02-.47-.05-.94-.09-1.41-.05-.47-.07-.96-.07-1.46.03-.22.05-.46.05-.71v-.75c0-.25,0-.49.02-.73.02-.24.1-.45.26-.64.06-.03.13-.07.19-.12.06-.05.13-.08.21-.09.08-.01.15-.02.21-.02h.24l.47.24c.16.19.24.4.24.64v2.14l-.05.89c0,.38.03.74.09,1.08.06.35.09.7.09,1.06s.03.71.09,1.06c.06.35.09.71.09,1.08l-.24.52c-.06.03-.13.07-.19.12-.06.05-.13.08-.21.09-.08.02-.15.02-.21.02h-.24ZM37.8,69.06l-.47-.24c-.13-.16-.2-.34-.24-.54-.03-.2-.05-.42-.05-.64v-1.27c.19-1.22.3-2.46.33-3.72.03-1.25.1-2.51.21-3.77.11-1.26.18-2.51.21-3.77.03-1.25.22-2.48.56-3.67.06-.03.12-.07.19-.12.06-.05.13-.08.21-.09.08-.01.15-.02.21-.02h.24l.47.24c.03.06.07.13.12.19.05.06.08.13.09.21.02.08.02.16.02.24v.26c-.16,1.38-.27,2.75-.35,4.12s-.16,2.75-.24,4.14c-.08,1.4-.16,2.78-.26,4.14s-.24,2.72-.42,4.07c-.06.03-.13.07-.19.12-.06.05-.13.08-.21.09-.08.02-.15.02-.21.02h-.24Z"/><path class="cls-2" d="M32.52,83.13l-.47-.24c-.19-.31-.31-.65-.38-1.01s-.12-.73-.16-1.11-.1-.75-.16-1.11c-.06-.36-.13-.73-.19-1.11.03-.06.05-.12.07-.16.02-.05.03-.1.05-.17s.04-.12.07-.17c.03-.05.06-.1.09-.16.06-.03.13-.07.19-.12.06-.05.13-.08.21-.09.08-.02.15-.02.21-.02h.24l.47.24c.19.34.31.71.35,1.08.05.38.1.75.16,1.13.06.38.13.76.19,1.15.06.39.11.78.14,1.15l-.24.47c-.06.03-.13.07-.19.12-.06.05-.13.08-.21.09-.08.02-.15.02-.21.02h-.24ZM36.76,82.76l-.47-.24c-.19-.28-.31-.6-.35-.94-.05-.35-.08-.7-.09-1.06-.02-.36-.02-.72-.02-1.08s-.03-.71-.09-1.06c.03-.06.05-.12.07-.17s.03-.1.05-.17c.02-.06.04-.12.07-.17.03-.05.06-.1.09-.16.06-.03.13-.07.19-.12.06-.05.13-.08.21-.09.08-.02.15-.02.21-.02h.24l.47.24c.16.31.25.65.28,1.01.03.36.05.73.05,1.11s.02.75.07,1.11c.05.36.09.73.12,1.11l-.24.47c-.06.03-.13.07-.19.12s-.13.08-.21.09c-.08.02-.15.02-.21.02h-.24ZM38.74,90.85l-.47-.24c-.03-.06-.07-.12-.12-.17-.05-.05-.07-.11-.07-.19s-.02-.15-.05-.21c-.03-.06-.05-.12-.05-.19.41-.97.82-1.95,1.25-2.94.42-.99.87-1.97,1.34-2.94s.96-1.94,1.46-2.9c.5-.96.96-1.92,1.36-2.89.06-.03.13-.07.19-.12.06-.05.13-.08.21-.09.08-.02.15-.02.21-.02h.24l.47.24c.03.06.07.13.12.21.05.08.08.16.09.24.02.08.02.16.02.24v.26c-.35.97-.77,1.92-1.27,2.85-.5.93-.98,1.87-1.44,2.83s-.89,1.92-1.32,2.89c-.42.97-.86,1.93-1.29,2.87-.06.03-.13.07-.19.12-.06.05-.13.09-.21.12s-.16.05-.24.05h-.26Z"/><path class="cls-2" d="M33.37,117.69c-.06-.03-.12-.06-.16-.07-.05-.02-.1-.03-.17-.05s-.12-.04-.16-.07c-.05-.03-.1-.06-.17-.09-.03-.06-.07-.13-.12-.19-.05-.06-.08-.13-.09-.21-.02-.08-.02-.16-.02-.24v-.26c.5-1,1-2.02,1.48-3.04.49-1.02,1-2.02,1.55-2.99.55-.97,1.13-1.94,1.74-2.89s1.22-1.91,1.81-2.85c-.56-.22-1.11-.46-1.65-.73-.53-.27-1.07-.52-1.62-.75s-1.1-.49-1.65-.75c-.55-.27-1.09-.54-1.62-.82-.31.47-.63.93-.94,1.37-.31.44-.61.89-.89,1.37-.28.47-.55.95-.8,1.44-.25.49-.52.96-.8,1.44-.06.03-.13.07-.19.12-.06.05-.13.08-.21.09-.08.02-.15.02-.21.02h-.24l-.47-.24c-.03-.06-.07-.12-.12-.19-.05-.06-.08-.13-.09-.21-.02-.08-.02-.16-.02-.24v-.26c.28-.6.58-1.19.89-1.79s.67-1.17,1.06-1.72c.39-.55.78-1.11,1.15-1.67.38-.56.71-1.15.99-1.74.06-.03.13-.07.19-.12.06-.05.13-.08.21-.09s.15-.02.21-.02h.24l.47.24v.09l.38.19c.13.25.3.43.52.54.22.11.45.22.68.33.24.11.46.22.68.33.22.11.44.23.66.35.44.16.87.34,1.29.54s.85.4,1.27.59c.42.19.85.37,1.29.54.44.17.85.42,1.22.73.03.09.08.17.14.24s.12.14.17.24c.05.09.07.19.07.28v.28l-.24.47c-.47.69-.96,1.39-1.46,2.1-.5.71-.97,1.43-1.39,2.17-.42.74-.85,1.48-1.27,2.24-.42.75-.82,1.51-1.2,2.26-.13.28-.25.57-.38.87-.13.3-.27.58-.42.85-.16.27-.3.55-.42.85s-.28.59-.47.87c-.06.03-.12.06-.16.09-.05.03-.1.06-.17.09s-.13.05-.19.05-.13.01-.19.05Z"/><path class="cls-2" d="M36.81,140.33c-.31-.06-.62-.13-.92-.21-.3-.08-.59-.18-.87-.31-.28-.12-.57-.26-.87-.4-.3-.14-.57-.31-.82-.49-.28-.34-.52-.71-.71-1.11-.19-.39-.35-.79-.47-1.2-.13-.41-.19-.84-.19-1.29v-1.39c.13-.53.27-1.06.45-1.58.17-.52.39-1.01.66-1.48.27-.47.56-.93.89-1.39s.7-.89,1.11-1.29l.38-.38.33-.33-1.69-.14h-5.37l-.24.05-1.22-.05-.47.05-.47-.24c-.03-.06-.07-.12-.12-.19-.05-.06-.08-.13-.09-.21-.02-.08-.02-.15-.02-.21v-.24l.24-.47c.16-.12.32-.21.49-.26.17-.05.35-.07.54-.07h1.18l.14.05.05-.05h5.37c.47.06.94.1,1.41.12.47.02.93.05,1.39.09.45.05.92.06,1.39.05s.91.09,1.32.31c.03.06.07.13.12.19.05.06.08.13.09.21.02.08.02.15.02.21v.24l-.24.47c-.22.13-.43.25-.64.38-.2.12-.42.24-.64.33-.22.09-.44.2-.66.33-.22.12-.42.28-.61.47l-.05.09c-.28.19-.55.4-.8.64-.25.24-.46.49-.64.78-.17.28-.35.57-.54.85-.19.28-.35.58-.47.89-.09.28-.2.56-.33.85-.13.28-.24.57-.33.85-.09.28-.13.6-.09.94.03.35.03.67,0,.99.06.16.13.31.19.47.06.16.13.31.21.45.08.14.15.29.21.45.06.16.14.3.24.42.22.13.46.24.71.35s.5.21.75.31c.25.09.51.17.78.24.27.06.54.08.82.05l.89-.05.47.24c.03.06.07.13.12.19.05.06.08.13.09.21.02.08.02.15.02.21v.24l-.24.47c-.16.13-.33.2-.52.24-.19.03-.38.06-.56.07-.19.02-.38.02-.59.02h-.59ZM40.9,126.4l-.47-.24c-.19-.25-.3-.54-.33-.87-.03-.33-.06-.65-.09-.96-.03-.31-.06-.64-.07-.96-.02-.33-.02-.67-.02-1.01l.24-.47c.06-.03.13-.07.19-.12.06-.05.13-.08.21-.09.08-.02.15-.02.21-.02h.24l.47.24c.19.25.28.55.28.89s.02.67.05.99c.03.31.06.64.09.96.03.33.06.65.09.97l-.24.47c-.06.03-.13.07-.19.12-.06.05-.13.08-.21.09-.08.02-.15.02-.21.02h-.24ZM44.01,126.3l-.47-.24c-.16-.28-.27-.58-.33-.89-.06-.31-.1-.63-.12-.96-.02-.33-.03-.67-.05-1.01s-.02-.69-.02-1.04l.24-.47c.06-.03.13-.07.19-.12.06-.05.13-.08.21-.09.08-.01.15-.02.21-.02h.24l.47.24c.19.25.28.55.28.89s0,.69.02,1.04c.02.34.06.67.12.99.06.31.09.64.09.99l-.24.47c-.06.03-.13.07-.19.12-.06.05-.13.08-.21.09-.08.02-.15.02-.21.02h-.24Z"/><path class="cls-2" d="M27.68,166.41l-.47-.24c-.22-.5-.35-1.03-.38-1.58-.03-.55-.06-1.11-.09-1.67-.03-.57-.05-1.13-.05-1.7v-1.69l.05-.56h-.09c-.22.12-.46.23-.71.31-.25.08-.5.17-.75.26-.25.09-.49.2-.71.33-.22.12-.47.19-.75.19l-.47-.24c-.03-.06-.07-.12-.12-.19-.05-.06-.08-.13-.09-.21-.02-.08-.02-.15-.02-.21v-.24l.28-.52c.25-.22.53-.38.82-.49.3-.11.6-.22.92-.33.31-.11.61-.23.89-.35.28-.12.58-.24.89-.33l.05-.19v-4.99h-.28l-.38.05-.61-.05-1.41.24c-.06-.03-.12-.05-.16-.07-.05-.02-.1-.03-.17-.05s-.12-.04-.16-.07c-.05-.03-.1-.06-.17-.09-.03-.06-.07-.12-.12-.19-.05-.06-.08-.13-.09-.21-.02-.08-.02-.15-.02-.21v-.24l.24-.47c.19-.12.4-.21.64-.26s.46-.08.68-.09.45-.05.68-.09c.24-.05.48-.05.73-.02l.24.05.33-.05v-1.55l-.05-2.35c.03-.06.05-.12.07-.16.02-.05.03-.1.05-.17.02-.06.04-.12.07-.17s.06-.1.09-.17c.06-.03.13-.07.19-.12.06-.05.13-.08.21-.09.08-.01.15-.02.21-.02h.24l.47.24c.19.31.27.67.26,1.06-.02.39-.02.78-.02,1.15s0,.75.02,1.13.02.75.02,1.13c.22,0,.44,0,.66.02.22.02.45.02.68.02h.68c.22,0,.41.08.56.24.03.06.07.13.12.19.05.06.08.13.09.21.02.08.02.15.02.21v.24l-.24.47c-.13.09-.27.17-.42.21-.16.05-.32.07-.49.07h-1.01l-.61-.05v4.61h.09c.16-.03.31-.1.45-.21.14-.11.3-.19.47-.24s.34-.09.49-.12c.16-.03.33-.05.52-.05l.47.24c.03.09.07.17.12.24.05.06.08.13.09.21.02.08.02.15.02.21v.24l-.24.47c-.19.16-.4.27-.64.33s-.46.14-.68.24c-.22.09-.44.19-.66.28s-.44.17-.66.24l-.05,3.58c.03.31.05.63.05.94s.02.63.05.94c.03.31.06.63.09.94.03.31.05.63.05.94l-.24.47c-.06.03-.13.07-.19.12-.06.05-.13.08-.21.09s-.15.02-.21.02h-.24ZM31.96,166.6l-.47-.24c-.06-.09-.12-.2-.17-.33-.05-.12-.08-.25-.09-.38-.02-.13-.02-.26-.02-.4v-.4c.19-1.32.32-2.64.4-3.95.08-1.32.16-2.65.26-4s.2-2.68.31-4c.11-1.32.32-2.6.64-3.86.19-.16.41-.24.66-.26s.5-.05.75-.09c.25-.05.51-.07.78-.07h.78l1.41.05v-1.65l-.05-2.12.24-.47c.06-.03.13-.07.19-.12.06-.05.13-.08.21-.09.08-.01.15-.02.21-.02h.24l.47.24c.19.28.28.6.28.97v1.06c0,.35,0,.69.02,1.04.02.34.02.71.02,1.08h.71c.19-.06.4-.1.64-.12s.47-.02.71-.02h1.39c.06.03.13.05.21.07s.15.03.21.05c.06.02.13.05.19.09.06.05.12.09.19.12.03.06.07.13.12.19.05.06.09.13.12.21s.05.16.05.24v.26l-.24.47c-.06.03-.13.07-.19.12-.06.05-.13.08-.21.09s-.15.02-.21.02h-.24c-.16-.06-.32-.09-.49-.09h-1.62c-.35.09-.71.14-1.08.14s-.75.02-1.13.07c-.38.05-.76.06-1.15.05-.39-.02-.78-.02-1.15-.02l-1.18-.05-.33.09c-.19,1.32-.33,2.64-.42,3.98-.09,1.33-.19,2.66-.28,3.98-.09,1.32-.19,2.64-.28,3.95s-.27,2.62-.52,3.91c-.06.03-.13.07-.19.12-.06.05-.13.08-.21.09-.08.02-.15.02-.21.02h-.24ZM43.73,166.17l-.47-.24c-.13-.16-.21-.33-.26-.52s-.09-.37-.14-.54c-.05-.17-.11-.34-.19-.52s-.15-.35-.21-.54h-.19c-.56.19-1.15.31-1.77.35-.61.05-1.22.13-1.81.24-.6.11-1.18.24-1.74.4s-1.16.25-1.79.28l-.47-.24c-.03-.06-.07-.13-.12-.19-.05-.06-.08-.13-.09-.21-.02-.08-.03-.16-.05-.24-.02-.08-.02-.17-.02-.26.16-1.04.39-2.05.71-3.04s.65-1.97,1.01-2.94c.36-.97.68-1.97.97-2.99.28-1.02.66-2,1.13-2.94.06-.03.13-.07.19-.12.06-.05.13-.08.21-.09.08-.02.15-.02.21-.02h.24l.47.24c.03.06.07.12.12.19.05.06.08.13.09.21.02.08.02.16.02.24v.26c-.31.82-.6,1.66-.87,2.52-.27.86-.54,1.71-.82,2.54-.28.83-.58,1.66-.89,2.5-.31.83-.55,1.67-.71,2.52h.14c.41-.09.82-.2,1.22-.31.41-.11.83-.18,1.27-.21s.87-.08,1.29-.14c.42-.06.84-.16,1.25-.28l.05-.14c-.13-.25-.23-.5-.31-.75-.08-.25-.16-.5-.26-.75s-.19-.51-.28-.78c-.09-.27-.14-.54-.14-.82l.24-.47c.06-.03.13-.07.19-.12.06-.05.13-.08.21-.09.08-.02.15-.02.21-.02h.24l.47.24c.28.53.53,1.11.73,1.72.2.61.42,1.22.66,1.81.24.6.47,1.19.71,1.77.24.58.38,1.18.45,1.81l-.24.47c-.06.03-.13.07-.19.12-.06.05-.13.08-.21.09s-.15.02-.21.02h-.24Z"/><path class="cls-2" d="M28.24,189.38l-.47-.24c-.03-.06-.07-.13-.12-.19-.05-.06-.08-.13-.09-.21-.02-.08-.02-.16-.02-.24v-.26c.38-.97.78-1.95,1.2-2.92.42-.97.88-1.93,1.37-2.87.49-.94.95-1.9,1.39-2.87.44-.97.83-1.96,1.18-2.96-.31,0-.62-.02-.92-.07-.3-.05-.6-.09-.92-.12s-.64-.05-.96-.05h-.97l-.71.05-.89-.05-.71.14c-.06-.03-.13-.05-.21-.07s-.16-.04-.24-.07-.15-.07-.21-.12-.13-.09-.19-.12c-.03-.06-.07-.13-.12-.19-.05-.06-.08-.13-.09-.21s-.02-.15-.02-.21v-.24l.24-.47c.16-.13.34-.2.54-.21s.41-.02.61-.02.41,0,.61-.02c.2-.02.42-.02.64-.02l.71.05,1.65-.05,2.92.33c.16-.41.31-.82.47-1.25.16-.42.33-.85.52-1.27.19-.42.36-.85.52-1.27.16-.42.34-.82.56-1.2.06-.03.12-.07.19-.12.06-.05.13-.08.21-.09.08-.01.15-.02.21-.02h.24l.47.24c.03.06.07.13.12.19.05.06.08.13.09.21.02.08.02.16.02.24v.26l-1.65,4.24c.6.06,1.21.1,1.84.12.63.02,1.25.04,1.86.07.61.03,1.23.06,1.86.07.63.02,1.22.13,1.79.35.03.06.07.13.12.19.05.06.09.13.12.21.03.08.05.16.05.24v.26l-.24.47c-.09.06-.19.12-.28.17s-.19.07-.28.07h-.66c-.44-.09-.91-.14-1.41-.14s-.99-.02-1.46-.07c-.47-.05-.95-.06-1.44-.05s-.96,0-1.44-.07v.09c.47.79.94,1.57,1.41,2.35.47.79.94,1.58,1.41,2.38.47.8.95,1.58,1.44,2.33.49.75,1.01,1.49,1.58,2.21l.42.66h.09c.06.09.13.18.19.26.06.08.12.16.17.26.05.09.07.19.07.28v.33l-.24.47c-.06.03-.13.07-.19.12-.06.05-.13.08-.21.09-.08.02-.15.02-.21.02h-.24l-.47-.24-.28-.33c-.6-.82-1.19-1.64-1.77-2.47-.58-.83-1.12-1.68-1.62-2.54-.5-.86-1.02-1.73-1.55-2.61-.53-.88-1.1-1.73-1.69-2.54-.35.97-.74,1.92-1.18,2.85s-.89,1.84-1.36,2.75c-.47.91-.9,1.83-1.29,2.75s-.79,1.84-1.2,2.75c-.06.03-.13.07-.19.12-.06.05-.13.08-.21.09s-.15.02-.21.02h-.24Z"/><path class="cls-2" d="M30.12,213.82l-.47-.24c-.16-.22-.24-.46-.26-.73-.02-.27-.02-.54-.02-.82v-1.65c.06-.16.09-.31.09-.47v-1.46h-.09l-.66.71h-.09l-.94,1.04-.38.24-.24.38c-.06.03-.13.07-.19.12-.06.05-.13.09-.21.12-.08.03-.16.05-.24.05h-.26l-.47-.24c-.03-.06-.07-.13-.12-.19-.05-.06-.08-.13-.09-.21s-.02-.16-.02-.24v-.26l.24-.47.33-.33,1.32-1.27c.28-.28.57-.57.87-.87.3-.3.6-.58.89-.85.3-.27.6-.53.92-.78s.6-.53.85-.85l-2.02-.05-3.77.14-.47-.24c-.03-.06-.07-.13-.12-.21-.05-.08-.08-.16-.09-.24-.02-.08-.02-.15-.02-.21v-.24l.24-.47c.38-.25.81-.37,1.29-.35s.97.02,1.44,0,.95-.03,1.44-.05.97-.02,1.44-.02c.28.03.56.06.85.09.28.03.58.04.89.02.31-.02.61,0,.89.05.28.05.58.07.89.07l.05-.94-.09-1.04h-2.82c-.47,0-.93,0-1.39-.02s-.89-.13-1.29-.35c-.03-.06-.07-.13-.12-.19s-.08-.13-.09-.21-.02-.15-.02-.21v-.24l.24-.47c.09-.06.18-.12.26-.17s.17-.07.26-.07h.61c.34.06.7.09,1.06.09h3.32v-1.41c-.53,0-1.08,0-1.65.02s-1.11,0-1.65-.07c-.53-.06-1.08-.08-1.65-.05s-1.08-.08-1.55-.33c-.03-.06-.07-.12-.12-.19-.05-.06-.08-.13-.09-.21-.02-.08-.02-.15-.02-.21v-.24l.24-.47c.06-.03.13-.07.19-.12.06-.05.13-.08.21-.09.08-.02.16-.02.24-.02h.26c.47,0,.94.02,1.41.05.47.03.94.05,1.41.07s.95.02,1.44.02h1.44v-.75l-.09-.99c.03-.06.05-.12.07-.16.02-.05.03-.1.05-.17s.04-.12.07-.17c.03-.05.06-.1.09-.16.06-.03.13-.07.21-.12s.16-.08.24-.09.15-.02.21-.02h.24l.47.24c.13.16.2.34.21.56s.03.43.05.64c.02.2.03.42.05.64s.02.44.02.66c.6.03,1.21.05,1.84.05s1.25,0,1.86.02c.61.02,1.22.02,1.84,0,.61-.02,1.19.1,1.72.35.03.06.07.13.12.19.05.06.08.13.09.21.02.08.02.15.02.21v.24l-.24.47c-.06.03-.13.07-.19.12-.06.05-.13.08-.21.09-.08.02-.15.03-.21.05-.06.02-.14.02-.24.02-.5-.09-1.04-.13-1.6-.12s-1.11.02-1.65,0c-.53-.02-1.08-.02-1.62-.02s-1.09-.02-1.62-.05v1.32c.44.03.89.06,1.37.09s.93.06,1.37.09l1.32.09c.44.03.86.14,1.27.33.03.06.07.13.12.19.05.06.08.13.09.21.02.08.02.15.02.21v.24l-.24.47c-.06.03-.13.07-.21.12-.08.05-.17.08-.26.09l-.28.05c-.09.02-.19.02-.28.02-.35-.06-.7-.11-1.06-.14-.36-.03-.72-.06-1.08-.09-.36-.03-.72-.05-1.08-.07-.36-.01-.71-.04-1.06-.07v.19l.09,1.88,4.8.09,2.87-.05.52.28c.03.06.07.12.12.19.05.06.08.13.09.21.02.08.02.15.02.21v.24l-.24.52c-.09.06-.2.12-.33.16-.13.05-.25.07-.38.07h-.8v.09l.24.14c.03.06.07.12.12.19.05.06.08.13.09.21.02.08.02.15.02.21v.24l-.24.47c-.28.19-.56.38-.85.57-.28.19-.55.39-.8.61-.25.22-.52.42-.8.59-.28.17-.53.38-.75.64l.47.56,1.55,1.27c.06.09.13.19.19.28.06.09.13.18.21.26.08.08.16.14.26.19s.19.1.28.17l.56.71.05.56-.24.47c-.06.03-.13.07-.19.12-.06.05-.13.08-.21.09s-.16.02-.24.02h-.26l-.47-.24v-.09h-.09l-.19-.19-.8-.71c-.09-.16-.2-.31-.33-.47-.13-.16-.27-.29-.45-.4-.17-.11-.33-.24-.47-.38-.14-.14-.29-.27-.45-.4-.38-.47-.77-.93-1.18-1.39s-.82-.92-1.22-1.39c-.41-.47-.79-.95-1.15-1.44-.36-.49-.78-.95-1.25-1.39l-.05-.33h-.33l-2.12,1.98c0,.56,0,1.15.02,1.74.02.6,0,1.18-.07,1.74-.06.56-.08,1.14-.05,1.72.03.58-.05,1.14-.24,1.67-.06.03-.13.07-.19.12-.06.05-.13.08-.21.09-.08.02-.15.02-.21.02h-.24ZM38.22,207.32l3.3-2.35v-.09h-.99l-1.08.05-3.3-.09v.09c.16.22.31.43.47.64s.32.41.49.61c.17.2.35.41.54.61.19.2.36.4.52.59l.05-.05Z"/><path class="cls-2" d="M34.46,237.87l-.52-.24c-.22-.75-.32-1.55-.31-2.4s0-1.68-.02-2.5c-.03-.82-.06-1.64-.07-2.47-.02-.83-.04-1.67-.07-2.52l.05-.28h-.19l-2.78.05-2.68-.14-1.37.09c-.06-.03-.12-.05-.16-.07-.05-.02-.1-.03-.17-.05s-.12-.04-.16-.07c-.05-.03-.1-.06-.16-.09-.03-.06-.07-.13-.12-.19-.05-.06-.08-.13-.09-.21-.02-.08-.02-.15-.02-.21v-.24l.24-.47c.22-.16.46-.24.73-.24s.54-.02.82-.05c.28-.03.56-.05.82-.05h.82c.35,0,.69.02,1.04.07s.7.07,1.06.07h2.14l1.65-.09,1.04.09,2.82-.05c.31.03.63.05.94.05s.63,0,.94.02c.31.02.62.04.92.07.3.03.57.12.82.28.03.06.07.13.12.19s.08.13.09.21c.02.08.02.15.02.21v.24l-.24.47c-.06.03-.13.07-.19.12-.06.05-.13.08-.21.09s-.15.03-.21.05c-.06.02-.14.02-.24.02-.44-.06-.89-.1-1.37-.12-.47-.01-.93-.03-1.39-.05-.46-.02-.92-.02-1.39-.02h-1.41l-.61.05-.05.99.19,8.66-.24.47c-.06.03-.13.07-.19.12s-.13.08-.21.09-.15.02-.21.02h-.24ZM26.97,234.86l-.47-.24c-.03-.06-.07-.12-.12-.19-.05-.06-.08-.13-.09-.21-.02-.08-.02-.16-.02-.24v-.26c.16-.34.34-.68.54-1.01.2-.33.39-.66.56-.99.17-.33.36-.66.56-.99.2-.33.42-.65.64-.96.09-.06.19-.12.28-.19.09-.06.18-.12.26-.16.08-.05.17-.08.28-.09.11-.02.23-.02.35-.02l.47.24c.03.06.07.13.12.19.05.06.08.13.09.21.02.08.02.15.02.21v.24l-.24.47c-.28.25-.52.54-.71.87-.19.33-.38.65-.56.96-.19.31-.37.64-.54.96-.17.33-.37.65-.59.96-.06.03-.13.07-.19.12-.06.05-.13.08-.21.09s-.15.02-.21.02h-.24ZM37.89,222.24c-.72-.06-1.45-.11-2.19-.14-.74-.03-1.48-.06-2.24-.09-.75-.03-1.51-.05-2.26-.07-.75-.02-1.48-.13-2.17-.35-.03-.06-.07-.12-.12-.19-.05-.06-.08-.13-.09-.21-.02-.08-.02-.15-.02-.21v-.24l.24-.47c.13-.09.26-.16.4-.19s.3-.05.47-.05h.96c.66.06,1.33.11,2.02.14.69.03,1.39.06,2.09.09s1.4.05,2.1.07c.69.02,1.35.12,1.98.31.03.06.07.13.12.19.05.06.08.13.09.21.02.08.02.15.02.21v.24l-.24.47c-.09.06-.18.12-.26.17-.08.05-.17.08-.28.09s-.21.02-.31.02h-.33ZM42.03,234.81l-.47-.24c-.22-.34-.43-.7-.64-1.06-.2-.36-.42-.71-.66-1.06s-.5-.68-.8-1.01c-.3-.33-.45-.71-.45-1.15l.24-.47c.06-.03.13-.07.19-.12.06-.05.13-.08.21-.09.08-.01.15-.02.21-.02h.24l.47.24c.25.35.51.68.78,1.01.27.33.51.67.73,1.04.22.36.44.71.66,1.06.22.34.34.74.38,1.18l-.24.47c-.06.03-.13.07-.19.12-.06.05-.13.08-.21.09-.08.02-.15.02-.21.02h-.24Z"/><path class="cls-2" d="M36.81,260.84c-.31-.06-.62-.13-.92-.21-.3-.08-.59-.18-.87-.31-.28-.12-.57-.26-.87-.4-.3-.14-.57-.31-.82-.49-.28-.34-.52-.71-.71-1.11-.19-.39-.35-.79-.47-1.2-.13-.41-.19-.84-.19-1.29v-1.39c.13-.53.27-1.06.45-1.58.17-.52.39-1.01.66-1.48.27-.47.56-.93.89-1.39s.7-.89,1.11-1.29l.38-.38.33-.33-1.69-.14h-5.37l-.24.05-1.22-.05-.47.05-.47-.24c-.03-.06-.07-.12-.12-.19-.05-.06-.08-.13-.09-.21-.02-.08-.02-.15-.02-.21v-.24l.24-.47c.16-.12.32-.21.49-.26.17-.05.35-.07.54-.07h1.18l.14.05.05-.05h5.37c.47.06.94.1,1.41.12.47.02.93.05,1.39.09.45.05.92.06,1.39.05s.91.09,1.32.31c.03.06.07.13.12.19.05.06.08.13.09.21.02.08.02.15.02.21v.24l-.24.47c-.22.13-.43.25-.64.38-.2.12-.42.24-.64.33-.22.09-.44.2-.66.33-.22.12-.42.28-.61.47l-.05.09c-.28.19-.55.4-.8.64-.25.24-.46.49-.64.78-.17.28-.35.57-.54.85-.19.28-.35.58-.47.89-.09.28-.2.56-.33.85-.13.28-.24.57-.33.85-.09.28-.13.6-.09.94.03.35.03.67,0,.99.06.16.13.31.19.47.06.16.13.31.21.45.08.14.15.29.21.45.06.16.14.3.24.42.22.13.46.24.71.35s.5.21.75.31c.25.09.51.17.78.24.27.06.54.08.82.05l.89-.05.47.24c.03.06.07.13.12.19.05.06.08.13.09.21.02.08.02.15.02.21v.24l-.24.47c-.16.13-.33.2-.52.24-.19.03-.38.06-.56.07-.19.02-.38.02-.59.02h-.59ZM40.9,246.91l-.47-.24c-.19-.25-.3-.54-.33-.87-.03-.33-.06-.65-.09-.96-.03-.31-.06-.64-.07-.96-.02-.33-.02-.67-.02-1.01l.24-.47c.06-.03.13-.07.19-.12.06-.05.13-.08.21-.09.08-.02.15-.02.21-.02h.24l.47.24c.19.25.28.55.28.89s.02.67.05.99c.03.31.06.64.09.96.03.33.06.65.09.97l-.24.47c-.06.03-.13.07-.19.12-.06.05-.13.08-.21.09-.08.02-.15.02-.21.02h-.24ZM44.01,246.81l-.47-.24c-.16-.28-.27-.58-.33-.89-.06-.31-.1-.63-.12-.96-.02-.33-.03-.67-.05-1.01s-.02-.69-.02-1.04l.24-.47c.06-.03.13-.07.19-.12.06-.05.13-.08.21-.09.08-.01.15-.02.21-.02h.24l.47.24c.19.25.28.55.28.89s0,.69.02,1.04c.02.34.06.67.12.99.06.31.09.64.09.99l-.24.47c-.06.03-.13.07-.19.12-.06.05-.13.08-.21.09-.08.02-.15.02-.21.02h-.24Z"/><path class="cls-2" d="M37.51,279.06l-.47-.24-1.65-3.25h-.19c-.56.16-1.15.27-1.77.33-.61.06-1.21.14-1.79.24-.58.09-1.16.24-1.74.42s-1.15.35-1.72.47l-.47-.24c-.03-.06-.07-.12-.12-.19-.05-.06-.08-.14-.09-.24-.02-.09-.02-.17-.02-.24v-.24l.28-.52c.5-.28,1.04-.49,1.6-.61.56-.12,1.12-.24,1.67-.35.55-.11,1.11-.2,1.69-.26.58-.06,1.17-.16,1.77-.28v-.14l-1.22-2.68h-.24c-.47.09-.96.18-1.46.26-.5.08-1,.17-1.48.26-.49.09-.97.2-1.46.33-.49.12-.98.22-1.48.28l-.47-.24c-.03-.06-.07-.13-.12-.19s-.08-.13-.09-.21c-.02-.08-.02-.15-.02-.21v-.24l.24-.47c.41-.25.85-.42,1.34-.52.49-.09.98-.19,1.48-.28.5-.09.99-.18,1.46-.26.47-.08.96-.15,1.46-.21l.05-.19c-.06-.13-.12-.26-.16-.4s-.1-.28-.16-.42c-.06-.14-.1-.29-.12-.45-.02-.16-.02-.31-.02-.47l.24-.47c.06-.03.13-.07.19-.12.06-.05.13-.08.21-.09.08-.02.15-.02.21-.02h.24l.47.24c.13.16.2.32.24.49.03.17.09.34.16.49.08.16.16.31.24.47.08.16.17.31.26.47l.14.05c.25-.06.51-.13.78-.19.27-.06.54-.11.82-.14.28-.03.56-.07.82-.12.27-.05.54-.07.82-.07l.47.24c.03.06.07.13.12.19.05.06.08.13.09.21.02.08.02.15.02.21v.24l-.24.47c-.22.16-.46.26-.73.31-.27.05-.54.08-.82.09-.28.02-.56.05-.82.09-.27.05-.53.1-.78.17v.09l1.22,2.73h.19c.22-.06.46-.12.71-.19s.49-.13.73-.21c.24-.08.48-.13.73-.14.25-.02.5-.02.75-.02l.47.24c.03.06.07.13.12.19.05.06.08.13.09.21s.02.15.02.21v.24l-.24.47c-.19.16-.4.24-.64.26s-.47.05-.71.09-.46.1-.68.17-.44.13-.66.19v.14c.13.25.25.5.38.73s.25.49.38.75c.13.27.26.52.4.75s.2.51.17.82l-.24.47c-.06.03-.13.07-.19.12-.06.05-.13.08-.21.09s-.15.02-.21.02h-.24ZM36.06,285.42c-.69-.03-1.37-.12-2.02-.28-.66-.16-1.29-.35-1.91-.59-.61-.24-1.22-.5-1.81-.8-.6-.3-1.15-.67-1.65-1.11-.13-.16-.26-.31-.4-.45-.14-.14-.27-.29-.4-.45-.13-.16-.23-.32-.31-.49-.08-.17-.1-.37-.07-.59l.24-.47c.06-.03.13-.07.19-.12.06-.05.13-.08.21-.09s.15-.02.21-.02h.24l.47.24c.06.09.13.2.19.31.06.11.13.21.21.31.08.09.17.18.28.26.11.08.18.18.21.31.47.38.99.68,1.55.92l1.69.71c.56.24,1.17.38,1.81.45s1.25.19,1.81.38c.03.06.07.12.12.19.05.06.08.13.09.21.02.08.02.15.02.21v.24l-.24.47c-.06.03-.12.07-.16.12-.05.05-.11.08-.19.09-.08.02-.15.02-.21.02s-.13.02-.19.05Z"/><path class="cls-2" d="M33.73,309.85c-.31-.06-.62-.18-.92-.35-.3-.17-.57-.37-.82-.59-.28-.31-.48-.67-.59-1.06-.11-.39-.16-.82-.16-1.27s.1-.89.31-1.27c.2-.38.46-.74.78-1.08.56-.47,1.2-.78,1.91-.92.71-.14,1.45-.18,2.24-.12.35.03.68.09,1.01.19.33.09.67.17,1.01.24v-.14c-.09-.31-.22-.62-.38-.92-.16-.3-.35-.59-.56-.87-.41-.28-.85-.47-1.34-.56-.49-.09-.98-.16-1.48-.19-.72.22-1.44.41-2.17.57-.72.16-1.41.41-2.07.75l-.19.28-.14.14c-.13.09-.26.17-.4.24-.14.06-.31.08-.49.05l-.47-.24c-.09-.13-.16-.26-.21-.4-.05-.14-.06-.29-.02-.45.22-.53.51-1.04.87-1.51.36-.47.75-.93,1.15-1.37.78-.75,1.52-1.55,2.21-2.38.69-.83,1.46-1.6,2.31-2.31v-.09l-1.6-.14h-4.1l-.75.09c-.13-.03-.25-.07-.36-.12s-.22-.1-.32-.17c-.09-.12-.16-.26-.21-.4-.05-.14-.06-.29-.02-.45l.24-.47c.2-.16.42-.24.66-.26s.48-.04.73-.07h4.14c.72.09,1.44.16,2.17.19s1.41.17,2.07.42c.09.13.17.26.21.4.05.14.05.31.02.49l-.33.66c-.78.74-1.58,1.49-2.4,2.26-.82.77-1.52,1.59-2.12,2.47l-.42.38h.24c.38-.16.76-.27,1.15-.33.39-.06.81-.09,1.25-.09.69.09,1.36.23,2,.4.64.17,1.22.54,1.72,1.11.53.66.91,1.38,1.14,2.17.23.79.29,1.63.2,2.54-.11.57-.31,1.09-.61,1.57-.3.48-.65.94-1.06,1.38-.69.6-1.47,1-2.33,1.2s-1.75.34-2.66.4ZM37.02,307.21c.28-.16.53-.37.73-.65s.38-.55.54-.84v-.14c-.53-.25-1.1-.42-1.69-.49-.6-.08-1.22-.1-1.88-.07l-1.18.56c-.19.19-.31.4-.38.64s-.09.49-.09.75l.28.75.8.28c.5-.06,1-.15,1.48-.26.49-.11.95-.29,1.39-.54Z"/><path class="cls-2" d="M31.11,334.04c-.16-.06-.31-.1-.47-.12s-.31-.06-.47-.12-.3-.14-.42-.24c-.13-.09-.25-.19-.38-.28-.19-.25-.39-.49-.61-.73s-.38-.49-.49-.78c-.11-.28-.19-.57-.24-.87-.05-.3-.07-.62-.07-.97.03-.25.09-.49.16-.71.08-.22.16-.44.24-.66.08-.22.2-.42.38-.59.17-.17.35-.35.54-.54.25-.22.54-.37.87-.45.33-.08.65-.15.96-.21s.64-.1.99-.12.69-.02,1.04-.02l.52.09v-.57c0-.78-.04-1.58-.12-2.38-.08-.8-.13-1.58-.17-2.35-.03-.77-.07-1.54-.12-2.33-.05-.78-.09-1.57-.12-2.35.03-.06.05-.12.07-.17.02-.05.03-.1.05-.16s.04-.12.07-.17c.03-.05.06-.1.09-.17.06-.03.12-.07.19-.12.06-.05.13-.08.21-.09.08-.02.15-.02.21-.02h.28l.47.24c.16.28.24.58.26.89.02.31.03.64.05.96.02.33.02.66.02.99s.03.65.09.96c.28-.03.56-.03.82,0s.54.05.82.05.56,0,.85.02c.28.02.55.04.8.07l1.93-.05c.09.03.2.06.31.07s.21.03.31.05.19.05.28.09c.09.05.19.1.28.17.03.06.07.13.12.19s.08.13.09.21c.02.08.02.15.02.21v.24l-.24.47c-.06.03-.13.07-.19.12-.06.05-.13.08-.19.09-.06.02-.13.02-.21.02s-.15.02-.21.05c-.16-.06-.33-.1-.52-.12-.19-.01-.38-.02-.59-.02h-1.15l-.38.05c-.22-.06-.46-.09-.71-.09h-.73c-.24,0-.47,0-.71-.02s-.48-.02-.73-.02v.66c.03.38.07.75.12,1.13.05.38.07.78.07,1.2s0,.83.02,1.22c.02.39.02.79.02,1.2.38.06.74.13,1.08.21.35.08.69.17,1.04.26.35.09.68.2,1.01.31s.65.26.97.45c.03.06.07.13.12.19.05.06.08.13.09.21.02.08.02.15.02.21v.24l-.24.47c-.06.03-.13.07-.19.12-.06.05-.13.08-.21.09-.08.02-.16.02-.24.02h-.26c-.28-.06-.55-.15-.8-.26-.25-.11-.51-.2-.78-.26-.27-.06-.53-.13-.8-.21-.27-.08-.54-.15-.82-.21,0,.38,0,.75-.02,1.11-.02.36-.06.71-.12,1.06-.06.34-.17.67-.33.99s-.33.61-.52.89l-.42.38c-.22.09-.44.21-.66.35-.22.14-.46.22-.73.24-.27.02-.53.02-.8.02h-.82ZM32.57,332.16l.52-.33c.13-.25.24-.49.35-.73.11-.24.17-.5.19-.78s.02-.56.02-.85v-.85l-1.27-.14c-.19.03-.38.06-.59.07-.2.02-.41.05-.61.09-.2.05-.4.1-.59.17s-.35.19-.47.38c-.06.09-.11.2-.14.31-.03.11-.07.22-.12.33-.05.11-.07.23-.07.35v.38c.06.13.11.26.14.4.03.14.09.27.19.38.09.11.2.22.31.33.11.11.18.23.21.35.13.06.27.11.42.14.16.03.31.05.47.05h.99l.05-.05Z"/><path class="cls-2" d="M34.08,358.15c-.06-.03-.13-.05-.19-.07-.06-.02-.13-.03-.19-.05-.06-.02-.12-.05-.16-.09-.05-.05-.1-.09-.17-.12-.06-.09-.13-.18-.19-.26-.06-.08-.1-.17-.12-.28-.02-.11-.03-.21-.05-.31-.02-.09-.02-.2-.02-.33.03-.06.05-.12.07-.17.02-.05.03-.1.05-.17.02-.06.04-.12.07-.16.03-.05.06-.1.09-.17.09-.06.19-.13.28-.19s.2-.1.31-.12.23-.02.35-.02h.38l.61.28v.09h.09c.06.09.12.18.16.26.05.08.09.17.12.26.03.09.05.2.05.33v.33l-.24.47h-.09v.09c-.09.06-.18.12-.26.16-.08.05-.17.09-.28.12s-.21.05-.31.07c-.09.02-.22.02-.38.02ZM33.98,353.39l-.47-.24c-.03-.06-.07-.12-.12-.17-.05-.05-.07-.11-.07-.19s-.02-.15-.05-.21c-.03-.06-.05-.12-.05-.19l.05-1.69-.05-.42c.03-.12.05-.27.07-.45.02-.17.02-.34.02-.49v-.47c0-.16.02-.3.05-.42v-7.11l-.05-.19c.03-.06.05-.12.07-.16.02-.05.03-.1.05-.17.02-.06.04-.12.07-.17s.06-.1.09-.17c.06-.03.13-.07.19-.12.06-.05.13-.08.21-.09.08-.02.16-.02.24-.02h.26l.47.24c.03.06.06.12.09.17.03.05.05.1.07.17.02.06.03.12.05.17.02.05.04.1.07.16v7.44l-.14,1.93.05,2.02-.28.61c-.06.03-.13.07-.19.12-.06.05-.13.08-.21.09-.08.02-.16.02-.24.02h-.26Z"/></g><path class="cls-3" d="M33.63,357.86l-8.72,23.62,7.23,19.59c.61,1.66,2.36,1.66,2.98,0l7.23-19.59-8.72-23.62Z"/></g></g></g></svg>