<?xml version="1.0" encoding="UTF-8"?><svg id="_レイヤー_2" xmlns="http://www.w3.org/2000/svg" viewBox="0 0 34.8 282.32"><defs><style>.cls-1{fill:none;stroke:#cb6850;stroke-linecap:round;stroke-linejoin:round;stroke-width:1.5px;}</style></defs><g id="_レイヤー_2-2"><path class="cls-1" d="M21.14,141.16c-3.24-7.62-20.39-8.53-20.39,0"/><path class="cls-1" d="M21.14,141.16C32.4,111.03-5.08,37.53,8.44,11.03,11.56,4.91,16.99-.89,26.55,1.17c7.75,1.67,9.6,10.92,5.07,14.79"/><path class="cls-1" d="M19.72,16.81c3.8.15,4.99-4.72,3.71-7.33-1.63-3.32-6.2-3.5-9.57-2.95C-5.92,9.76,1.12,34.34,7.08,46.99c6.82,14.46,14.66,35.39,18.94,58.28,1.5,8.02.64,16.15-2.67,18.39-2.38,1.61-7.53,1.82-9.22-4.18"/><path class="cls-1" d="M19.72,265.52c3.8-.15,4.99,4.72,3.71,7.33-1.63,3.32-6.2,3.5-9.57,2.95-19.78-3.24-12.74-27.81-6.78-40.47,6.82-14.46,14.66-35.39,18.94-58.28,1.5-8.02.64-16.15-2.67-18.39-2.38-1.61-7.53-1.82-9.22,4.18"/><path class="cls-1" d="M21.14,141.16c-3.24,7.62-20.39,8.54-20.39,0"/><path class="cls-1" d="M21.14,141.16c11.25,30.13-26.23,103.63-12.7,130.13,3.12,6.12,8.54,11.91,18.11,9.85,7.75-1.67,9.6-10.92,5.07-14.79"/></g></svg>