<?xml version="1.0" encoding="UTF-8"?><svg id="_レイヤー_2" xmlns="http://www.w3.org/2000/svg" viewBox="0 0 34.8 282.32"><defs><style>.cls-1{fill:none;stroke:#cb6850;stroke-linecap:round;stroke-linejoin:round;stroke-width:1.5px;}</style></defs><g id="_レイヤー_2-2"><path class="cls-1" d="M13.66,141.16c3.24-7.62,20.39-8.53,20.39,0"/><path class="cls-1" d="M13.66,141.16C2.4,111.03,39.88,37.53,26.36,11.03,23.24,4.91,17.81-.89,8.25,1.17.5,2.84-1.34,12.09,3.18,15.96"/><path class="cls-1" d="M15.08,16.81c-3.8.15-4.99-4.72-3.71-7.33,1.63-3.32,6.2-3.5,9.57-2.95,19.78,3.23,12.74,27.81,6.78,40.46-6.82,14.46-14.66,35.39-18.94,58.28-1.5,8.02-.64,16.15,2.67,18.39,2.38,1.61,7.53,1.82,9.22-4.18"/><path class="cls-1" d="M15.08,265.52c-3.8-.15-4.99,4.72-3.71,7.33,1.63,3.32,6.2,3.5,9.57,2.95,19.78-3.24,12.74-27.81,6.78-40.47-6.82-14.46-14.66-35.39-18.94-58.28-1.5-8.02-.64-16.15,2.67-18.39,2.38-1.61,7.53-1.82,9.22,4.18"/><path class="cls-1" d="M13.66,141.16c3.24,7.62,20.39,8.54,20.39,0"/><path class="cls-1" d="M13.66,141.16c-11.25,30.13,26.23,103.63,12.7,130.13-3.12,6.12-8.54,11.91-18.11,9.85-7.75-1.67-9.6-10.92-5.07-14.79"/></g></svg>