<?xml version="1.0" encoding="UTF-8"?><svg id="_レイヤー_2" xmlns="http://www.w3.org/2000/svg" viewBox="0 0 618.38 68.55"><defs><style>.cls-1{fill:#41352c;stroke-width:0px;}</style></defs><g id="_レイヤー_1-2"><path class="cls-1" d="M13.92,24.05c1.03.56,1.64,1.43,1.83,2.6.09.28.14.56.14.84,0,.8-.26,1.55-.77,2.25l-1.2,1.83c-.61.94-1.48,1.48-2.6,1.62-.24.05-.49.07-.77.07-.8,0-1.55-.23-2.25-.7-1.88-1.17-3.96-2.32-6.26-3.45-.94-.47-1.57-1.22-1.9-2.25-.1-.33-.14-.66-.14-.98,0-.66.21-1.29.63-1.9l.7-1.05c.7-1.03,1.64-1.73,2.81-2.11.47-.14.96-.21,1.48-.21.66,0,1.29.12,1.9.35,2.34,1.03,4.47,2.06,6.4,3.09ZM10.76,41.98c.47-.94,1.22-1.52,2.25-1.76.28-.05.54-.07.77-.07.7,0,1.36.26,1.97.77l1.62,1.34c.94.8,1.55,1.8,1.83,3.02.04.38.07.77.07,1.2,0,.75-.17,1.5-.49,2.25-2.44,5.11-4.99,10.12-7.66,15.05-.52.98-1.31,1.59-2.39,1.83-.28.05-.56.07-.84.07-.75,0-1.45-.24-2.11-.7l-2.39-1.76c-.94-.7-1.52-1.62-1.76-2.74-.05-.33-.07-.63-.07-.91,0-.8.23-1.57.7-2.32,3.05-4.97,5.88-10.05,8.51-15.26ZM18.49,5.13c.98.61,1.57,1.5,1.76,2.67.04.24.07.47.07.7,0,.84-.28,1.64-.84,2.39l-1.27,1.76c-.66.89-1.55,1.41-2.67,1.55-.19.05-.38.07-.56.07-.89,0-1.71-.28-2.46-.84-1.88-1.27-3.96-2.51-6.26-3.73-.94-.52-1.55-1.29-1.83-2.32-.05-.28-.07-.56-.07-.84,0-.7.21-1.36.63-1.97l.84-1.05c.7-.98,1.64-1.64,2.81-1.97.47-.14.94-.21,1.41-.21.7,0,1.38.17,2.04.49,2.34,1.08,4.47,2.18,6.4,3.3ZM66.38,59.13c.28.61.42,1.22.42,1.83,0,.47-.1.96-.28,1.48-.38,1.08-1.1,1.92-2.18,2.53l-2.74,1.48c-.52.28-1.08.42-1.69.42-.42,0-.84-.07-1.27-.21-.98-.38-1.71-1.08-2.18-2.11-.14-.38-.31-.77-.49-1.2-.14-.33-.4-.47-.77-.42-5.95.56-16.2,1.43-30.73,2.6h-.42c-.98,0-1.88-.33-2.67-.98-.89-.75-1.43-1.69-1.62-2.81l-.28-2.39c-.05-.19-.07-.35-.07-.49,0-.89.3-1.69.91-2.39.75-.89,1.66-1.36,2.74-1.41h.56c.33,0,.56-.16.7-.49,2.29-5.39,4.12-10.73,5.48-16.03.04-.09.02-.2-.07-.32-.1-.12-.19-.18-.28-.18h-6.4c-1.12,0-2.1-.4-2.92-1.2-.82-.8-1.23-1.78-1.23-2.95v-1.62c0-1.17.41-2.16,1.23-2.95.82-.8,1.79-1.2,2.92-1.2h13.15c.33,0,.49-.19.49-.56v-7.52c0-.33-.17-.49-.49-.49h-9.49c-1.17,0-2.16-.41-2.95-1.23-.8-.82-1.2-1.79-1.2-2.92v-1.62c0-1.17.4-2.16,1.2-2.95.8-.8,1.78-1.2,2.95-1.2h9.49c.33,0,.49-.19.49-.56v-4.92c0-1.12.41-2.1,1.23-2.92.82-.82,1.79-1.23,2.92-1.23h2.6c1.12,0,2.1.41,2.92,1.23.82.82,1.23,1.79,1.23,2.92v4.92c0,.38.16.56.49.56h10.2c1.12,0,2.1.4,2.92,1.2.82.8,1.23,1.78,1.23,2.95v1.62c0,1.12-.41,2.1-1.23,2.92-.82.82-1.79,1.23-2.92,1.23h-10.2c-.33,0-.49.17-.49.49v7.52c0,.38.16.56.49.56h13.71c1.17,0,2.15.4,2.95,1.2.8.8,1.2,1.78,1.2,2.95v1.62c0,1.17-.4,2.16-1.2,2.95-.8.8-1.78,1.2-2.95,1.2h-20.18c.51.14.68.47.49.98-2.16,5.53-4.31,10.55-6.47,15.05-.05.09-.04.19.04.28.07.09.15.14.25.14,3.09-.19,7.83-.45,14.2-.77.09,0,.16-.06.21-.18.04-.12.04-.22,0-.32-.8-1.17-1.52-2.25-2.18-3.23-.47-.66-.7-1.36-.7-2.11,0-.28.04-.56.14-.84.23-1.08.82-1.87,1.76-2.39l1.76-.91c.75-.38,1.52-.56,2.32-.56.37,0,.73.02,1.05.07,1.17.24,2.13.84,2.88,1.83,3.94,5.16,6.94,9.84,9,14.06Z"/><path class="cls-1" d="M124.97,10.55c-.05.14-.04.26.04.35.07.09.18.14.32.14h14.98c1.12,0,2.11.4,2.95,1.2.75.8,1.12,1.73,1.12,2.81v.56c-.33,11.53-.64,20.23-.95,26.09-.3,5.86-.74,10.59-1.3,14.2-.56,3.61-1.36,6.07-2.39,7.38-1.03,1.45-2.12,2.5-3.27,3.13s-2.59,1.11-4.32,1.44c-1.5.28-3.66.42-6.47.42h-1.05c-1.17-.05-2.2-.46-3.09-1.23s-1.5-1.77-1.83-2.99c-.23-.8-.52-1.59-.84-2.39-.14-.33-.21-.66-.21-.98,0-.47.14-.91.42-1.34.47-.7,1.12-1.05,1.97-1.05h.14c1.92.09,4.15.14,6.68.14,1.31,0,2.37-.42,3.16-1.27,1.03-1.12,1.8-4.43,2.32-9.91s.91-14.2,1.2-26.16c.05-.38-.12-.56-.49-.56h-12.59c-.38,0-.63.17-.77.49-1.17,2.44-2.39,4.69-3.66,6.75-.56.94-1.41,1.5-2.53,1.69-.19.05-.4.07-.63.07-.84,0-1.62-.28-2.32-.84-.75-.56-1.5-1.08-2.25-1.55-.09-.09-.19-.11-.28-.04s-.14.15-.14.25v29.6c0,1.12-.41,2.1-1.23,2.92-.82.82-1.79,1.23-2.92,1.23h-14.2c-.33,0-.49.17-.49.49v.49c0,1.12-.41,2.1-1.23,2.92-.82.82-1.79,1.23-2.92,1.23h-1.12c-1.17,0-2.16-.41-2.95-1.23-.8-.82-1.2-1.79-1.2-2.92V15.89c0-1.12.4-2.1,1.2-2.92.8-.82,1.78-1.23,2.95-1.23h3.52c.33,0,.54-.16.63-.49.42-2.34.77-4.71,1.05-7.1.14-1.12.66-2.04,1.55-2.74.7-.56,1.5-.84,2.39-.84.19,0,.38.02.56.07l3.23.42c1.08.14,1.9.68,2.46,1.62.33.56.49,1.12.49,1.69,0,.38-.07.77-.21,1.2-.8,2.39-1.48,4.29-2.04,5.7-.05.14-.04.26.04.35.07.09.18.14.32.14h5.98c1.12,0,2.1.41,2.92,1.23.82.82,1.23,1.79,1.23,2.92v4.92c0,.09.04.15.11.18.07.02.13-.01.18-.11,2.86-4.73,5.25-10.29,7.17-16.66.33-1.08.98-1.92,1.97-2.53.7-.42,1.43-.63,2.18-.63.33,0,.66.05.98.14l2.04.49c1.08.24,1.9.84,2.46,1.83.38.61.56,1.24.56,1.9,0,.38-.07.77-.21,1.2-.42,1.22-.87,2.53-1.34,3.94ZM98.89,30.59c.38,0,.56-.19.56-.56v-8.65c0-.38-.19-.56-.56-.56h-8.37c-.33,0-.49.19-.49.56v8.65c0,.38.16.56.49.56h8.37ZM90.03,51.4c0,.38.16.56.49.56h8.37c.38,0,.56-.19.56-.56v-11.32c0-.33-.19-.49-.56-.49h-8.37c-.33,0-.49.17-.49.49v11.32ZM130.04,40.78c.38.66.56,1.34.56,2.04,0,.38-.05.75-.14,1.12-.28,1.12-.94,1.99-1.97,2.6l-1.76,1.05c-.61.38-1.24.56-1.9.56-.33,0-.68-.05-1.05-.14-1.08-.33-1.88-.98-2.39-1.97-1.22-2.34-3.05-5.51-5.48-9.49-.38-.66-.56-1.34-.56-2.04,0-.33.05-.68.14-1.05.28-1.12.91-1.94,1.9-2.46l.98-.56c.7-.38,1.43-.56,2.18-.56.33,0,.68.02,1.05.07,1.12.28,2.02.91,2.67,1.9,2.58,3.89,4.5,6.87,5.77,8.93Z"/><path class="cls-1" d="M192.22,11.39c.28-.05.56-.07.84-.07.7,0,1.36.21,1.97.63.84.66,1.27,1.5,1.27,2.53l.07,1.62c.05,1.22-.29,2.32-1.02,3.3-.73.98-1.7,1.59-2.92,1.83-2.44.52-4.95.98-7.52,1.41-.33.05-.56.24-.7.56-1.45,4.31-3.3,8.86-5.55,13.64s-4.62,9.14-7.1,13.08c-.61.98-1.5,1.64-2.67,1.97-.42.09-.82.14-1.2.14-.75,0-1.45-.16-2.11-.49l-3.02-1.55c-.94-.47-1.52-1.24-1.76-2.32-.09-.28-.14-.56-.14-.84,0-.7.23-1.38.7-2.04,4.5-6.33,8.32-13.19,11.46-20.6.05-.09.04-.19-.04-.28-.07-.09-.15-.14-.25-.14h-1.83c-1.78,0-3.47-.02-5.06-.07-1.17-.05-2.19-.48-3.06-1.3-.87-.82-1.35-1.84-1.44-3.06l-.07-1.62c-.09-1.08.23-1.99.98-2.74.7-.7,1.55-1.05,2.53-1.05h.28c2.11.09,4.03.14,5.77.14s3.38-.05,5.06-.14c.33-.05.54-.23.63-.56.56-2.34,1.01-4.69,1.34-7.03.14-1.12.63-2.06,1.48-2.81.75-.61,1.59-.91,2.53-.91h.42l3.59.35c1.08.09,1.94.59,2.6,1.48.47.66.7,1.34.7,2.04,0,.28-.05.59-.14.91-.38,1.55-.77,3.05-1.2,4.5-.05.14-.02.26.07.35.09.09.19.12.28.07,1.5-.28,2.91-.59,4.22-.91ZM195.88,29.6c0-1.03.35-1.94,1.05-2.74.75-.8,1.71-1.2,2.88-1.2h2.53c1.12,0,2.07.41,2.85,1.23.77.82,1.18,1.79,1.23,2.92,0,.28.02,2.23.07,5.84.05.42.16,2.72.35,6.89,0,.38.16.63.49.77,3.94,1.55,7.64,3.68,11.11,6.4.94.7,1.5,1.66,1.69,2.88.05.24.07.49.07.77,0,.89-.26,1.73-.77,2.53l-1.34,2.25c-.56.89-1.36,1.41-2.39,1.55-.19.05-.38.07-.56.07-.84,0-1.59-.3-2.25-.91-1.83-1.59-3.54-2.98-5.13-4.15-.09-.05-.2-.05-.32,0-.12.05-.18.12-.18.21-.47,7.64-5.27,11.46-14.41,11.46-4.92,0-8.95-1.11-12.09-3.34-3.14-2.23-4.71-5.35-4.71-9.39,0-3.75,1.45-6.89,4.36-9.42,2.91-2.53,7.01-3.8,12.3-3.8,1.08,0,2.13.05,3.16.14.37.05.54-.09.49-.42-.33-6.61-.49-10.12-.49-10.55ZM196.79,50.13c0-.33-.17-.52-.49-.56-1.59-.28-3.05-.42-4.36-.42-1.74,0-3.12.32-4.15.95-1.03.63-1.55,1.47-1.55,2.5,0,1.17.46,2.11,1.37,2.81s2.12,1.05,3.62,1.05c2.01,0,3.45-.54,4.29-1.62.84-1.08,1.27-2.65,1.27-4.71ZM220.2,19.2c.98.56,1.59,1.41,1.83,2.53.05.33.07.63.07.91,0,.8-.24,1.55-.7,2.25l-1.48,2.18c-.66.94-1.52,1.5-2.6,1.69-.28.05-.54.07-.77.07-.84,0-1.62-.26-2.32-.77-3.28-2.16-6.77-4.17-10.48-6.05-.98-.52-1.62-1.29-1.9-2.32-.09-.38-.14-.73-.14-1.05,0-.66.19-1.29.56-1.9l1.05-1.62c.66-1.03,1.55-1.71,2.67-2.04.47-.09.91-.14,1.34-.14.66,0,1.31.14,1.97.42,3.94,1.92,7.57,3.87,10.9,5.84Z"/><path class="cls-1" d="M285.34,22.01c0,.38.19.56.56.56h14.7c1.03,0,1.9.36,2.6,1.09.7.73,1.05,1.59,1.05,2.6s-.35,1.86-1.05,2.57-1.57,1.05-2.6,1.05h-40.29c-1.03,0-1.91-.35-2.64-1.05-.73-.7-1.09-1.56-1.09-2.57s.36-1.87,1.09-2.6,1.61-1.09,2.64-1.09h14.13c.38,0,.56-.19.56-.56v-.84c0-.38-.19-.56-.56-.56h-13.29c-.14,0-.21-.05-.21-.14v-.07l-1.76.84c-.47.24-.96.35-1.48.35-.47,0-.96-.12-1.48-.35-.98-.42-1.66-1.15-2.04-2.18-.09-.28-.19-.56-.28-.84,0-.05-.02-.06-.07-.04-.05.02-.07.06-.07.11v45.98c0,1.17-.41,2.16-1.23,2.95-.82.8-1.79,1.2-2.92,1.2h-1.2c-1.12,0-2.1-.4-2.92-1.2-.82-.8-1.23-1.78-1.23-2.95V26.02h-.07c-.24,2.16-.54,4.24-.91,6.26-.19,1.03-.73,1.8-1.62,2.32-.56.33-1.15.49-1.76.49-.38,0-.75-.07-1.12-.21-1.08-.38-1.88-1.05-2.39-2.04-.38-.66-.56-1.38-.56-2.18,0-.28.02-.59.07-.91.66-3.23,1.2-6.94,1.62-11.11.09-1.12.56-2.04,1.41-2.74.75-.61,1.57-.91,2.46-.91h.56l1.83.28c.33.05.49-.12.49-.49V4.15c0-1.12.41-2.1,1.23-2.92s1.79-1.23,2.92-1.23h1.2c1.12,0,2.1.41,2.92,1.23.82.82,1.23,1.79,1.23,2.92v6.54c0,.14.05.24.14.28.09.05.19.05.28,0l1.62-.63c.56-.23,1.12-.25,1.69-.04s.98.6,1.27,1.16c.05,0,.07-.02.07-.07v-2.67c0-1.12.41-2.1,1.23-2.92s1.79-1.23,2.92-1.23h11.46c.38,0,.56-.16.56-.49,0-1.12.39-2.08,1.16-2.88.77-.8,1.72-1.2,2.85-1.2h2.32c1.12,0,2.07.4,2.85,1.2.77.8,1.16,1.76,1.16,2.88,0,.33.16.49.49.49h12.52c.98,0,1.84.35,2.57,1.05.73.7,1.09,1.56,1.09,2.57s-.36,1.86-1.09,2.57c-.73.7-1.58,1.05-2.57,1.05h-12.45c-.38,0-.56.19-.56.56v.91c0,.33.19.49.56.49h10.55c.94,0,1.75.34,2.43,1.02.68.68,1.02,1.49,1.02,2.43s-.34,1.73-1.02,2.39c-.68.66-1.49.98-2.43.98h-10.55c-.38,0-.56.19-.56.56v.84ZM260.94,16.24c0-.66.25-1.23.74-1.72s1.07-.74,1.72-.74h11.04c.38,0,.56-.16.56-.49v-.91c0-.38-.19-.56-.56-.56h-14.98c-.14,0-.25.06-.32.18-.07.12-.08.22-.04.32.23.52.55,1.27.95,2.25.4.98.64,1.57.74,1.76.09,0,.14-.02.14-.07ZM295.68,31.92c1.12,0,2.1.41,2.92,1.23.82.82,1.23,1.79,1.23,2.92v22.85c0,2.25-.27,4.01-.81,5.27-.54,1.27-1.51,2.23-2.92,2.88-1.73.84-4.22,1.34-7.45,1.48h-.21c-1.08,0-2.06-.38-2.95-1.12-.94-.75-1.59-1.71-1.97-2.88-.1-.33-.19-.66-.28-.98-.1-.33-.14-.63-.14-.91,0-.56.19-1.1.56-1.62.52-.75,1.24-1.12,2.18-1.12h1.2c.33,0,.66-.01.98-.04.33-.02.54-.04.63-.04.47,0,.81-.08,1.02-.25.21-.16.32-.46.32-.88v-.28c0-.33-.19-.49-.56-.49h-18c-.38,0-.56.17-.56.49v5.98c0,1.17-.4,2.16-1.2,2.95-.8.8-1.78,1.2-2.95,1.2h-1.34c-1.12,0-2.1-.4-2.92-1.2-.82-.8-1.23-1.78-1.23-2.95v-28.34c0-1.12.41-2.1,1.23-2.92s1.79-1.23,2.92-1.23h30.3ZM289.98,39.94c0-.33-.19-.49-.56-.49h-18c-.38,0-.56.17-.56.49v1.2c0,.33.19.49.56.49h18c.38,0,.56-.16.56-.49v-1.2ZM270.86,50.34c0,.33.19.49.56.49h18c.38,0,.56-.16.56-.49v-.98c0-.33-.19-.49-.56-.49h-18c-.38,0-.56.17-.56.49v.98Z"/><path class="cls-1" d="M337.68,14.41c-.33,0-.49.19-.49.56v2.6c0,.38.16.56.49.56h6.75c1.12,0,2.1.4,2.92,1.2.82.8,1.23,1.78,1.23,2.95v.35c0,1.17-.41,2.16-1.23,2.95-.82.8-1.79,1.2-2.92,1.2h-.63s-.05.07,0,.07c.56.14.96.47,1.2.98.23.52.23,1.03,0,1.55-.23.52-.55,1.25-.95,2.21-.4.96-.69,1.65-.88,2.07-.05.14-.05.26,0,.35.05.09.14.14.28.14,1.08,0,2,.39,2.78,1.16s1.16,1.7,1.16,2.78v.63c0,1.12-.4,2.1-1.2,2.92-.8.82-1.78,1.23-2.95,1.23h-5.55c-.33,0-.49.17-.49.49v3.3c0,.33.16.49.49.49h4.85c1.17,0,2.16.41,2.95,1.23.8.82,1.2,1.79,1.2,2.92v.42c0,1.17-.4,2.16-1.2,2.95-.8.8-1.78,1.2-2.95,1.2h-4.85c-.33,0-.49.19-.49.56v7.59c0,1.17-.41,2.16-1.23,2.95-.82.8-1.79,1.2-2.92,1.2h-1.34c-1.17,0-2.16-.4-2.95-1.2-.8-.8-1.2-1.78-1.2-2.95v-7.59c0-.38-.19-.56-.56-.56h-5.41c-1.12,0-2.1-.4-2.92-1.2-.82-.8-1.23-1.78-1.23-2.95v-.42c0-1.12.41-2.1,1.23-2.92.82-.82,1.79-1.23,2.92-1.23h5.41c.38,0,.56-.16.56-.49v-3.3c0-.33-.19-.49-.56-.49h-5.98c-1.12,0-2.1-.41-2.92-1.23-.82-.82-1.23-1.79-1.23-2.92v-.49c0-1.12.4-2.08,1.2-2.88.8-.8,1.76-1.2,2.88-1.2.38,0,.52-.16.42-.49-.33-1.5-.73-2.93-1.2-4.29-.14-.56-.08-1.09.18-1.58s.64-.81,1.16-.95v-.07h-2.18c-1.17,0-2.16-.4-2.95-1.2-.8-.8-1.2-1.78-1.2-2.95v-.35c0-1.17.4-2.16,1.2-2.95.8-.8,1.78-1.2,2.95-1.2h7.66c.38,0,.56-.19.56-.56v-2.6c0-.38-.19-.56-.56-.56h-5.13c-1.12,0-2.1-.4-2.92-1.2-.82-.8-1.23-1.78-1.23-2.95v-.28c0-1.12.41-2.1,1.23-2.92.82-.82,1.79-1.23,2.92-1.23h5.13c.38,0,.56-.16.56-.49v-.84c0-1.17.4-2.16,1.2-2.95.8-.8,1.78-1.2,2.95-1.2h1.34c1.12,0,2.1.4,2.92,1.2.82.8,1.23,1.78,1.23,2.95v.84c0,.33.16.49.49.49h4.15c1.12,0,2.1.41,2.92,1.23.82.82,1.23,1.79,1.23,2.92v.28c0,1.17-.41,2.16-1.23,2.95-.82.8-1.79,1.2-2.92,1.2h-4.15ZM336.77,34.17s.07-.02.07-.07c-.52-.14-.89-.45-1.12-.91-.23-.47-.28-.94-.14-1.41.47-1.45.91-2.93,1.34-4.43.05-.14.02-.27-.07-.39-.09-.12-.21-.18-.35-.18h-8.16c-.09,0-.18.06-.25.18-.07.12-.08.22-.04.32.61,1.64,1.08,3.12,1.41,4.43.14.52.07,1.01-.21,1.48-.28.47-.7.77-1.27.91v.07h8.79ZM374.67,27.84c.38-.09.75-.14,1.12-.14.61,0,1.2.12,1.76.35l1.69.63c.89.28,1.59.84,2.11,1.69.33.61.49,1.24.49,1.9,0,.24-.02.49-.07.77-1.36,7.45-3.42,13.99-6.19,19.62-.14.33-.09.63.14.91,1.69,1.78,3.49,3.33,5.41,4.64.84.61,1.34,1.41,1.48,2.39v.49c0,.84-.28,1.59-.84,2.25-.52.56-1.01,1.17-1.48,1.83-.7.94-1.62,1.5-2.74,1.69-.23.05-.49.07-.77.07-.8,0-1.52-.26-2.18-.77-1.5-1.22-2.93-2.56-4.29-4.01-.23-.28-.47-.28-.7,0-1.12,1.36-2.25,2.6-3.38,3.73-.7.66-1.52.98-2.46.98-.14,0-.28-.02-.42-.07-1.08-.09-2.02-.59-2.81-1.48-.42-.42-.87-.87-1.34-1.34-.09-.09-.19-.12-.28-.07-.09.05-.14.12-.14.21v.07c0,1.17-.4,2.16-1.2,2.95-.8.8-1.78,1.2-2.95,1.2h-1.12c-1.12,0-2.1-.4-2.92-1.2-.82-.8-1.23-1.78-1.23-2.95V7.03c0-1.12.41-2.1,1.23-2.92.82-.82,1.79-1.23,2.92-1.23h22.92c1.17,0,2.16.41,2.95,1.23.8.82,1.2,1.79,1.2,2.92v9.35c0,2.25-.28,4.01-.84,5.27s-1.62,2.23-3.16,2.88c-1.88.8-4.59,1.24-8.16,1.34-.05.05-.09.07-.14.07-1.12,0-2.13-.38-3.02-1.12-.94-.75-1.57-1.71-1.9-2.88-.14-.38-.26-.73-.35-1.05-.14-.33-.21-.66-.21-.98,0-.56.19-1.1.56-1.62.52-.75,1.24-1.12,2.18-1.12h4.01c.56-.05.94-.13,1.12-.25.19-.12.28-.36.28-.74v-3.66c0-.38-.16-.56-.49-.56h-11.11c-.38,0-.56.19-.56.56v14.84c0,.38.19.56.56.56h14.98c.09,0,.21-.02.35-.07ZM358.99,42.33s-.09-.07-.14-.07-.07.02-.07.07v16.59c0,.09.05.17.14.21.09.05.19.02.28-.07,1.64-1.55,3.14-3.26,4.5-5.13.23-.28.26-.56.07-.84-1.88-3.47-3.47-7.05-4.78-10.76ZM371.5,36.63c.05-.33-.09-.49-.42-.49h-5.13c-.14,0-.25.05-.32.14-.07.09-.08.21-.04.35.8,2.44,1.85,4.85,3.16,7.24.05.09.13.13.25.11.12-.02.18-.08.18-.18.94-2.3,1.71-4.69,2.32-7.17Z"/><path class="cls-1" d="M442.41,12.59c.66-.42,1.38-.63,2.18-.63.28,0,.56.02.84.07,1.08.24,1.9.82,2.46,1.76l1.69,2.88c.42.66.63,1.34.63,2.04,0,.33-.05.68-.14,1.05-.28,1.12-.94,1.95-1.97,2.46-1.27.7-2.72,1.48-4.36,2.32-.14.05-1.36.63-3.66,1.76-2.3,1.12-4.03,1.98-5.2,2.57-1.17.59-2.77,1.43-4.78,2.53-2.02,1.1-3.75,2.12-5.2,3.06-3.05,1.97-5.39,3.93-7.03,5.87-1.64,1.95-2.46,4.02-2.46,6.22,0,4.59,4.54,6.89,13.64,6.89,5.81,0,12.3-.63,19.48-1.9.23-.05.47-.07.7-.07.75,0,1.45.26,2.11.77.84.7,1.24,1.57,1.2,2.6v4.22c-.05,1.17-.46,2.21-1.23,3.13s-1.75,1.44-2.92,1.58c-5.86.8-12.21,1.2-19.05,1.2-17.3,0-25.95-5.72-25.95-17.16,0-3.7.97-7.04,2.92-10.02,1.94-2.98,4.68-5.82,8.19-8.54.28-.23.35-.52.21-.84-2.44-4.5-5.09-10.03-7.95-16.59-.24-.52-.35-1.03-.35-1.55s.12-1.03.35-1.55c.42-1.08,1.17-1.83,2.25-2.25l3.16-1.27c.52-.23,1.03-.35,1.55-.35s1.05.14,1.62.42c1.03.42,1.76,1.17,2.18,2.25,1.78,4.5,4.05,9.38,6.82,14.62.19.33.42.4.7.21,1.78-1.03,4.21-2.38,7.28-4.04,3.07-1.66,5.07-2.78,6.01-3.34,1.78-.98,3.14-1.78,4.08-2.39Z"/><path class="cls-1" d="M497.98,31.64c.7,1.03,1.05,2.16,1.05,3.38s-.35,2.44-1.05,3.52l-.42.56c-.47.66-1.1.98-1.9.98h-.28c-.89-.09-1.52-.54-1.9-1.34-.33-.66-.68-1.38-1.05-2.18-.05-.05-.09-.06-.14-.04-.05.02-.07.06-.07.11v27.63c0,1.17-.41,2.16-1.23,2.95-.82.8-1.79,1.2-2.92,1.2h-1.12c-1.17,0-2.16-.4-2.95-1.2-.8-.8-1.2-1.78-1.2-2.95v-18.84s-.04-.08-.11-.11c-.07-.02-.11-.01-.11.04-.98,2.72-1.99,5.06-3.02,7.03-.38.7-.91,1.05-1.62,1.05h-.28c-.8-.09-1.38-.52-1.76-1.27-.28-.61-.59-1.22-.91-1.83-.56-1.12-.84-2.25-.84-3.38,0-1.27.35-2.53,1.05-3.8,2.91-5.25,5.16-11.39,6.75-18.42.05-.33-.09-.49-.42-.49h-2.6c-1.12,0-2.1-.41-2.92-1.23-.82-.82-1.23-1.79-1.23-2.92v-1.41c0-1.12.41-2.1,1.23-2.92.82-.82,1.79-1.23,2.92-1.23h3.3c.38,0,.56-.16.56-.49V4.15c0-1.12.4-2.1,1.2-2.92.8-.82,1.78-1.23,2.95-1.23h1.12c1.12,0,2.1.41,2.92,1.23.82.82,1.23,1.79,1.23,2.92v9.91c0,.33.16.49.49.49h1.97c1.12,0,2.1.41,2.92,1.23.82.82,1.23,1.79,1.23,2.92v1.41c0,1.12-.41,2.1-1.23,2.92-.82.82-1.79,1.23-2.92,1.23h-1.62c-.09,0-.16.05-.21.14-.05.09-.05.19,0,.28,1.64,2.11,3.35,4.43,5.13,6.96ZM538.27,58.85c1.03,0,1.91.38,2.64,1.12.73.75,1.09,1.64,1.09,2.67s-.36,1.92-1.09,2.67c-.73.75-1.61,1.12-2.64,1.12h-22.15c-.14,0-.21.07-.21.21,0,.47-.18.87-.53,1.2-.35.33-.76.49-1.23.49h-3.73c-1.12,0-2.1-.4-2.92-1.2-.82-.8-1.23-1.78-1.23-2.95v-17.09c0-.09-.04-.15-.11-.18-.07-.02-.13-.01-.18.04-.61.52-1.29.77-2.04.77h-.28c-.89-.09-1.64-.47-2.25-1.12-.66-.8-1.32-1.56-2-2.29-.68-.73-1.02-1.58-1.02-2.57,0-1.17.42-2.16,1.27-2.95,3.19-2.86,6.07-6.37,8.65-10.55.09-.09.11-.19.04-.28-.07-.09-.15-.14-.25-.14h-3.87c-1.12,0-2.1-.41-2.92-1.23-.82-.82-1.23-1.79-1.23-2.92v-.49c0-1.17.41-2.16,1.23-2.95.82-.8,1.79-1.2,2.92-1.2h.21s.08-.04.11-.11.01-.13-.04-.18c-.66-.47-1.31-.91-1.97-1.34-.89-.56-1.41-1.38-1.55-2.46-.05-.19-.07-.4-.07-.63,0-.8.26-1.52.77-2.18,1.88-2.48,3.45-5.37,4.71-8.65.42-1.08,1.15-1.9,2.18-2.46.7-.42,1.43-.63,2.18-.63.33,0,.66.05.98.14l1.48.35c1.08.24,1.9.84,2.46,1.83.28.56.42,1.12.42,1.69,0,.42-.09.87-.28,1.34-.05.09-.09.2-.14.32-.05.12-.04.24.04.35.07.12.18.18.32.18h20.32c1.12,0,2.1.4,2.92,1.2.82.8,1.23,1.78,1.23,2.95v.42c0,1.12-.41,2.1-1.23,2.92-.82.82-1.79,1.23-2.92,1.23h-11.11c-.33,0-.54.17-.63.49-.28.89-.61,1.8-.98,2.74-.05.09-.04.2.04.32.07.12.18.18.32.18h13.78c1.17,0,2.16.4,2.95,1.2.8.8,1.2,1.78,1.2,2.95v.49c0,1.12-.4,2.1-1.2,2.92-.8.82-1.78,1.23-2.95,1.23h-6.26s-.07.01-.07.04.02.04.07.04c.75.14,1.3.56,1.65,1.27s.32,1.41-.11,2.11c0,.05-.05.17-.14.35-.09.09-.11.19-.04.28.07.09.15.14.25.14h4.22c.98,0,1.82.35,2.5,1.05s1.02,1.54,1.02,2.5-.34,1.79-1.02,2.5-1.51,1.05-2.5,1.05h-6.19c-.33,0-.49.17-.49.49v1.12c0,.33.16.49.49.49h4.85c.89,0,1.65.33,2.29.98.63.66.95,1.43.95,2.32s-.32,1.65-.95,2.29-1.39.95-2.29.95h-4.85c-.33,0-.49.19-.49.56v1.12c0,.33.16.49.49.49h5.06c.89,0,1.65.32,2.29.95s.95,1.4.95,2.29-.32,1.64-.95,2.25c-.63.61-1.39.91-2.29.91h-5.06c-.33,0-.49.19-.49.56v1.41c0,.33.16.49.49.49h7.1ZM508.81,18.63c-.09.09-.12.19-.07.28.05.09.14.14.28.14h3.45c.38,0,.61-.16.7-.49.09-.19.26-.61.49-1.27.23-.66.42-1.15.56-1.48.05-.14.02-.26-.07-.35-.09-.09-.19-.14-.28-.14h-2.18c-.38,0-.66.14-.84.42-.66,1.03-1.34,1.99-2.04,2.88ZM520.9,41.27c.38,0,.56-.16.56-.49v-1.12c0-.33-.19-.49-.56-.49h-4.5c-.33,0-.49.17-.49.49v1.12c0,.33.16.49.49.49h4.5ZM520.9,49.99c.38,0,.56-.16.56-.49v-1.12c0-.38-.19-.56-.56-.56h-4.5c-.33,0-.49.19-.49.56v1.12c0,.33.16.49.49.49h4.5ZM516.4,56.39c-.33,0-.49.19-.49.56v1.41c0,.33.16.49.49.49h4.5c.38,0,.56-.16.56-.49v-1.41c0-.38-.19-.56-.56-.56h-4.5ZM524.07,28.34c.05-.14.04-.26-.04-.35-.07-.09-.18-.14-.32-.14h-3.52c-.33,0-.57.15-.74.46-.16.31-.74,1.42-1.72,3.34-.05.09-.05.19,0,.28.05.09.14.14.28.14h3.87c.38,0,.63-.16.77-.49.47-.94.94-2.01,1.41-3.23Z"/><path class="cls-1" d="M577.67,30.94c-.33,0-.49.17-.49.49v2.18c0,.38.14.66.42.84,1.92,1.45,4.69,3.66,8.3,6.61.94.75,1.48,1.71,1.62,2.88.04.28.07.54.07.77,0,.89-.24,1.71-.7,2.46l-1.41,2.18c-.56.84-1.36,1.29-2.39,1.34h-.14c-.94,0-1.73-.38-2.39-1.12-1.03-1.22-2.04-2.39-3.02-3.52-.1-.05-.18-.06-.25-.04-.07.02-.11.08-.11.18v18c0,1.17-.41,2.16-1.23,2.95-.82.8-1.79,1.2-2.92,1.2h-1.97c-1.12,0-2.1-.4-2.92-1.2-.82-.8-1.23-1.78-1.23-2.95v-18.07s-.03-.08-.07-.11c-.05-.02-.1-.01-.14.04-2.21,4.27-4.38,7.83-6.54,10.69-.47.61-1.08.91-1.83.91h-.42c-.94-.14-1.62-.66-2.04-1.55-.42-.89-.94-1.87-1.55-2.95-.47-.84-.7-1.73-.7-2.67v-.7c.19-1.22.68-2.3,1.48-3.23,3.61-4.36,6.77-9.4,9.49-15.12.09-.14.11-.26.04-.35-.07-.09-.18-.14-.32-.14h-6.26c-1.12,0-2.1-.41-2.92-1.23-.82-.82-1.23-1.79-1.23-2.92v-1.34c0-1.17.41-2.16,1.23-2.95.82-.8,1.79-1.2,2.92-1.2h8.37c.33,0,.49-.19.49-.56v-5.91c0-.38-.17-.52-.49-.42-1.97.33-4.1.68-6.4,1.05-.24.05-.47.07-.7.07-.89,0-1.71-.26-2.46-.77-.98-.66-1.69-1.55-2.11-2.67-.05-.09-.1-.21-.14-.35-.19-.42-.28-.84-.28-1.27,0-.52.14-1.03.42-1.55.47-.94,1.22-1.5,2.25-1.69,8.02-1.5,14.88-3.3,20.6-5.41.75-.28,1.5-.42,2.25-.42.42,0,.87.05,1.34.14,1.22.28,2.25.87,3.09,1.76l1.76,1.9c.47.52.7,1.12.7,1.83,0,.24-.03.47-.07.7-.24.98-.82,1.64-1.76,1.97-2.21.7-4.62,1.43-7.24,2.18-.33.05-.49.26-.49.63v8.23c0,.38.16.56.49.56h6.82c1.12,0,2.1.4,2.92,1.2.82.8,1.23,1.78,1.23,2.95v1.34c0,1.12-.41,2.1-1.23,2.92-.82.82-1.79,1.23-2.92,1.23h-6.82ZM597.36,8.86c1.12,0,2.1.41,2.92,1.23.82.82,1.23,1.79,1.23,2.92v32.55c0,1.12-.41,2.1-1.23,2.92-.82.82-1.79,1.23-2.92,1.23h-1.9c-1.12,0-2.1-.41-2.92-1.23-.82-.82-1.23-1.79-1.23-2.92V13.01c0-1.12.41-2.1,1.23-2.92.82-.82,1.79-1.23,2.92-1.23h1.9ZM608.05,5.55c0-1.17.41-2.16,1.23-2.95.82-.8,1.79-1.2,2.92-1.2h2.04c1.17,0,2.15.4,2.95,1.2.8.8,1.2,1.78,1.2,2.95v50.41c0,2.95-.32,5.2-.95,6.75s-1.77,2.77-3.41,3.66c-2.3,1.12-5.98,1.76-11.04,1.9h-.14c-1.12,0-2.13-.35-3.02-1.05-.94-.75-1.57-1.71-1.9-2.88-.33-1.03-.68-2.04-1.05-3.02-.14-.38-.21-.73-.21-1.05,0-.52.16-1.01.49-1.48.52-.75,1.24-1.12,2.18-1.12h.07c2.01.05,4.24.07,6.68.07.7,0,1.21-.14,1.51-.42.3-.28.46-.75.46-1.41V5.55Z"/></g></svg>