<?xml version="1.0" encoding="UTF-8"?><svg id="_レイヤー_2" xmlns="http://www.w3.org/2000/svg" xmlns:xlink="http://www.w3.org/1999/xlink" viewBox="0 0 196.75 35.26"><defs><style>.cls-1{fill:url(#_名称未設定グラデーション_4-2);}.cls-1,.cls-2,.cls-3{stroke-width:0px;}.cls-2{fill:url(#_名称未設定グラデーション_4);}.cls-3{fill:#ffb14d;}</style><linearGradient id="_名称未設定グラデーション_4" x1="-6.44" y1="28.82" x2="15.94" y2="6.44" gradientUnits="userSpaceOnUse"><stop offset="0" stop-color="#ffdc52"/><stop offset=".35" stop-color="#ffcd50"/><stop offset="1" stop-color="#ffb14d"/></linearGradient><linearGradient id="_名称未設定グラデーション_4-2" x1="14.37" y1="30.47" x2="40.05" y2="4.79" xlink:href="#_名称未設定グラデーション_4"/></defs><g id="_レイヤー_2-2"><path class="cls-2" d="M17.45,17.63c0-4.39-3.56-7.94-7.94-7.94V0H0v35.26h9.51v-9.69c4.39,0,7.94-3.56,7.94-7.94Z"/><path class="cls-1" d="M19.16,6.42c3.15,2.72,5.15,6.73,5.15,11.21s-2,8.49-5.15,11.21v6.42h16.1V0h-16.1v6.42Z"/><path class="cls-3" d="M49.48,13.03c-.64,0-1.18-.22-1.64-.67-.46-.44-.68-.98-.68-1.62s.23-1.18.68-1.62c.46-.44,1-.67,1.64-.67h13.08c.08,0,.17-.04.25-.11.08-.07.13-.16.13-.27v-1.78c0-.72.24-1.32.73-1.81.49-.49,1.09-.73,1.81-.73s1.33.24,1.83.73c.5.49.75,1.09.75,1.81v1.78c0,.25.12.38.35.38h3.59c.64,0,1.18.22,1.62.67.44.44.67.98.67,1.62s-.23,1.18-.68,1.62c-.46.45-.99.67-1.6.67h-3.59c-.23,0-.35.13-.35.38v11.75c0,.97-.02,1.75-.05,2.32-.03.57-.14,1.11-.32,1.6-.18.5-.38.85-.59,1.06-.21.21-.57.4-1.06.57-.5.17-1.03.27-1.6.3-.57.03-1.34.05-2.32.05-.64,0-1.65-.05-3.05-.16-.66-.04-1.2-.3-1.62-.78s-.61-1.04-.57-1.7c.04-.64.31-1.16.79-1.57.49-.41,1.03-.6,1.62-.56.93.08,1.7.13,2.32.14.61.01.99-.06,1.13-.21.14-.15.21-.52.21-1.11v-6.95c0-.06-.03-.11-.1-.14-.06-.03-.12-.03-.16.02-3.6,3.2-7.35,5.98-11.24,8.35-.57.34-1.17.42-1.79.24-.62-.18-1.1-.55-1.41-1.11s-.39-1.16-.21-1.79c.18-.64.56-1.13,1.13-1.49,4.11-2.48,8.07-5.46,11.88-8.95.04-.04.05-.1.03-.16-.02-.06-.06-.1-.13-.1h-11.46Z"/><path class="cls-3" d="M82.95,10.97c-.66-.3-1.11-.8-1.35-1.51-.24-.71-.19-1.38.17-2.02.34-.68.87-1.13,1.59-1.35.72-.22,1.41-.16,2.06.17,2.41,1.16,4.19,2.04,5.33,2.64.68.34,1.13.87,1.35,1.59.22.72.14,1.4-.24,2.03-.34.66-.87,1.08-1.59,1.29s-1.41.13-2.06-.21c-1.76-.91-3.51-1.79-5.27-2.64ZM104.57,8.87c.72.15,1.27.52,1.65,1.11.38.59.49,1.24.32,1.94-1.33,5.36-3.8,9.55-7.38,12.58-3.59,3.03-8.43,4.98-14.53,5.84-.72.08-1.37-.1-1.95-.54-.58-.44-.93-1.02-1.03-1.71-.11-.7.05-1.33.46-1.89.41-.56.98-.89,1.7-1,4.91-.76,8.78-2.3,11.59-4.6,2.82-2.31,4.84-5.59,6.07-9.84.19-.68.59-1.2,1.19-1.56.6-.36,1.24-.47,1.92-.32Z"/><path class="cls-3" d="M131.76,4.12c.95-.96,2.1-1.44,3.45-1.44s2.49.48,3.45,1.43c.95.95,1.43,2.11,1.43,3.46,0,1-.27,1.89-.81,2.68s-1.25,1.39-2.14,1.79c-.19.08-.28.24-.25.48.11.64,0,1.22-.32,1.76-.32.54-.78.91-1.4,1.09-5.36,1.65-10.71,2.91-16.07,3.78-.25.04-.38.18-.38.41v3.78c0,1.23.2,2.04.59,2.43.39.39,1.2.59,2.43.59,4.28,0,8.43-.11,12.45-.32.66-.04,1.23.16,1.72.6.49.45.74,1.01.76,1.68.02.68-.2,1.27-.65,1.78-.46.51-1.01.77-1.67.79-4.19.21-8.52.32-12.99.32-2.99,0-5.07-.58-6.26-1.73-1.19-1.15-1.78-3.24-1.78-6.27v-14.99c0-.74.26-1.38.79-1.91.53-.53,1.16-.79,1.91-.79s1.38.26,1.91.79c.53.53.79,1.16.79,1.91v5.62c0,.11.04.19.11.25.07.06.15.09.24.06,4.02-.7,8.21-1.65,12.58-2.86.08-.02.14-.07.16-.14.02-.07,0-.14-.06-.21-.93-.97-1.4-2.11-1.4-3.4s.48-2.48,1.43-3.45ZM133.71,9.04c.41.41.91.62,1.49.62s1.08-.21,1.49-.62c.41-.41.62-.91.62-1.49s-.21-1.08-.62-1.49c-.41-.41-.91-.62-1.49-.62s-1.08.21-1.49.62c-.41.41-.62.91-.62,1.49s.21,1.08.62,1.49Z"/><path class="cls-3" d="M145.97,20.8c-.59,0-1.09-.26-1.5-.78-.41-.52-.61-1.15-.61-1.89s.2-1.38.61-1.91c.41-.53.91-.79,1.5-.79h17.48c.59,0,1.09.26,1.5.79.41.53.61,1.17.61,1.91s-.2,1.38-.61,1.89-.91.78-1.5.78h-17.48Z"/><path class="cls-3" d="M174.41,30.68c-.67.33-1.35.39-2.03.18-.69-.21-1.2-.65-1.53-1.32-.33-.62-.4-1.27-.18-1.93.21-.67.63-1.17,1.25-1.5,7.38-4,12.89-9.2,16.54-15.61.04-.07.04-.13,0-.2s-.11-.1-.2-.1h-13.04c-.71,0-1.32-.25-1.82-.75-.5-.5-.75-1.11-.75-1.82s.25-1.32.75-1.82c.5-.5,1.11-.75,1.82-.75h17.07c.71,0,1.32.25,1.82.75.5.5.75,1.11.75,1.82,0,1.85-.39,3.46-1.17,4.84-1.31,2.4-2.9,4.68-4.77,6.84-.18.22-.18.42,0,.6,2.98,2.65,5.32,4.78,7.04,6.4.53.51.8,1.13.8,1.87s-.26,1.36-.77,1.87c-.53.53-1.17.8-1.92.8s-1.37-.25-1.88-.73c-2.25-2.16-4.57-4.31-6.97-6.47-.2-.16-.39-.16-.57,0-3.11,2.78-6.52,5.12-10.24,7.04Z"/></g></svg>