<?xml version="1.0" encoding="UTF-8"?><svg id="_レイヤー_2" xmlns="http://www.w3.org/2000/svg" viewBox="0 0 548.06 551.04"><defs><style>.cls-1{fill:#fdbd69;}.cls-1,.cls-2,.cls-3,.cls-4,.cls-5,.cls-6{stroke-width:0px;}.cls-2{fill:#41352c;}.cls-3{fill:#cb6850;}.cls-4{fill:#fff;}.cls-5{fill:#84807f;}.cls-6{fill:#ffca8c;}</style></defs><g id="_レイヤー_1-2"><path class="cls-6" d="M517.04,187.92c29.59,101.73-21.46,219.73-111.72,286.32-90.63,66.59-220.84,81.75-305.19,23.31C16.17,438.73-22.3,305.93,13.21,196.43,48.35,86.93,157.48.37,266.98,0c109.87-.37,220.1,85.82,250.07,187.92Z"/><circle class="cls-6" cx="441.27" cy="444.24" r="106.79"/><path class="cls-3" d="M398.14,458.12c9.57,9.58,18.94,19.34,28.5,28.93,5.21,5.05,13.5,5.05,18.71,0,19.72-19.36,39.26-38.9,58.61-58.63,5.17-5.17,5.17-13.55,0-18.71-5.17-5.17-13.55-5.17-18.71,0-19.31,19.77-38.85,39.31-58.62,58.63h18.71c-9.56-9.58-18.93-19.35-28.5-28.93-5.17-5.17-13.55-5.17-18.71,0-5.17,5.17-5.17,13.55,0,18.71h0Z"/><path class="cls-4" d="M440.25,275.5c1.96-1.33,7.9-5.37,12.47-8.47,22.88,5,39.75,18.42,43,39.43,2.24,30.42-4.78,60.8-20.16,87.14-3.35,6.18-8.05,11.54-13.74,15.66-6.02,4.23-14.43,7.26-21.89,6.34-6.84-1.05-13.08-4.51-17.6-9.75-4.5-5.06-8.13-10.83-10.75-17.08-.38-.89-.76-1.78-1.12-2.68h-69.74c-4.1-9.29-9.54-17.94-16.14-25.66-5.39-6.38-15.69-12.11-26.62-16.36l-4.82-.85c-.47-.21-6.46-3.05-6.76-3.15-4.59-2.54-5.56-6.44-6.15-9.89-.11-.66-.21-1.24-.27-1.74,11.21-5.24,20.13-19.56,21.73-23.59.56-1.48,1.05-2.99,1.45-4.53,2.06,1.01,4.53.63,6.18-.97,1.95-1.66,3.52-3.72,4.6-6.04,1.92-3.85,2.93-8.1,2.94-12.41,3.72-2.98,7.61-5.74,11.66-8.26,3.62-2.08,7.44-3.79,11.4-5.1,25.28,13.39,38.12,17.43,61.49,16.92,22.71-.5,30.38-4.19,38.18-8.48l.66-.45Z"/><path class="cls-4" d="M191.26,151.62c1.74-1.51,4.02-2.26,6.32-2.08,2.96,0,5.68,1.62,7.07,4.23,2.31,4.32,1.96,12.14.16,16.92-1.27,3.39-3.35,8.57-8.06,12.18-2.1,1.63-4.79,2.32-7.41,1.88l-.7-.14c-.77,2.32-1.68,4.58-2.75,6.78-2.02,4.97-12.77,22.21-25.92,28.82-.41,2.84-.6,5.7-.56,8.57.01,3.53.61,6.95,4.1,9.22.16.09,3.05,1.93,7.32,4.2-26.34,18.74-65.08,13.24-85.79-5.69,5.3-2.02,12.38-4.75,12.6-4.81,3.9-1.45,5.24-4.66,6.02-8.1.54-2.26.93-4.56,1.19-6.87-4.58-3.25-8.62-7.17-12-11.65-5.5-7.09-9.48-15.23-11.71-23.93-2.83.51-5.74-.32-7.88-2.24-4.47-3.91-6.21-9.21-7.26-12.67-1.49-4.89-1.34-12.71,1.24-16.88,1.56-2.51,4.38-3.96,7.33-3.76,2.31-.03,4.53.87,6.17,2.49,0,0-8.79-44.75,61.32-44.75,63.23,0,49.19,48.29,49.19,48.29Z"/><path class="cls-2" d="M174.64,240.68c-2.36-1.21-4.69-2.48-6.98-3.82-.65-.38-1.3-.77-1.95-1.16-.16-.1-.32-.19-.48-.29-.11-.07-.58-.38-.33-.19-.25-.2-.48-.41-.7-.64-.05-.05-.56-.62-.35-.36.16.2-.28-.43-.34-.52-.12-.2-.23-.41-.34-.62-.33-.62.06.31-.11-.3-.08-.27-.17-.54-.24-.81s-.12-.55-.17-.83c-.13-.67,0,.44-.04-.31-.17-2.8-.1-5.61.18-8.39-.01-1.71-1.39-3.09-3.1-3.1-1.7.04-3.07,1.4-3.1,3.1-.55,5.57-1.02,12.56,3.45,16.76,1.25,1.08,2.61,2.01,4.07,2.79,2.43,1.43,4.9,2.79,7.41,4.07,1.49.82,3.36.33,4.25-1.11.85-1.48.35-3.37-1.11-4.25h0Z"/><path class="cls-4" d="M62.12,390.4c-2.5,1.94-5.18,3.63-8.02,5.03-8.23,4.03-18.47,5.2-26.71,1.19-9.5-4.63-14.37-14.87-16.97-24.7-4.99-18.82-4.26-38.61-1.81-57.88,2.14-16.85,5.95-34.35,17.29-47.45,10.2-11.78,38.82-24.47,58.96-30.28,21.01,19.42,60.89,24.88,87.33,4.89,16.92,3.99,29.55,8,42,17.86,3.89,3.29,7.07,7.35,9.33,11.91,2.15,4.11,3.88,10.81,5,15.08,4.35,16.42,7.39,33.16,9.09,50.06-1.02,1.66-2.46,3.02-4.18,3.94-.34.1-6.3,2.94-6.79,3.15-11.18,4.25-26.27,10.83-31.78,17.21-7.51,8.7-10.4,15.34-14.26,26.51h-114.35c-1.33,1.22-2.7,2.38-4.12,3.47Z"/><path class="cls-4" d="M328.57,183.96c.18-1.98.75-3.9,1.68-5.65,1.42-2.46,4.09-3.93,6.93-3.81,2.21-.09,4.37.71,5.99,2.22,0,0-7.09-48.55,51.11-48.55,61.84,0,54.96,48.96,54.96,48.96,1.63-1.5,3.79-2.28,6-2.17,2.84-.08,5.49,1.4,6.9,3.87,2.33,4.08,2.2,11.59.61,16.23-1.13,3.28-2.97,8.31-7.4,11.9-1.97,1.62-4.53,2.35-7.06,2.01l-.68-.12c-.67,2.24-1.49,4.44-2.45,6.57-1.76,4.73-11.25,20.97-23.33,27.92,1.84,4.88,4.5,11.92,4.5,11.92,3.6,5.83,15.53,10.45,24.69,14.21l-11.43,6.48c-7.79,4.29-15.47,7.98-38.18,8.48-23.34.52-36.18-3.52-61.4-16.87,11.49-4.19,23.19-7.09,28.72-10.79.66-.31,1.25-.76,1.72-1.32.23-.43.37-.9.43-1.38.58-3.24,1.15-6.47,1.73-9.7-5.95-2.74-11.25-7.23-16.3-13.31-5.46-6.65-9.5-14.35-11.88-22.62-2.7.56-5.51-.16-7.62-1.94-4.4-3.62-6.21-8.66-7.31-11.95-1.04-3.42-1.36-7.02-.94-10.58Z"/><path class="cls-2" d="M312.11,289.7c5.47-5.93,11.83-10.96,18.85-14.93,6.47-3.75,14.04-5.82,21.13-8.03,3.8-1.19,2.18-7.18-1.65-5.99-7.59,2.37-15.69,4.64-22.61,8.65-7.48,4.23-14.26,9.59-20.1,15.9-2.66,2.97,1.72,7.37,4.39,4.4h0Z"/><path class="cls-2" d="M165.72,242.89c16.39,3.72,34.21,7.73,47.22,19.15,3.32,3.02,6.03,6.65,8,10.69,1.79,3.94,3.16,8.05,4.09,12.28,2.55,9.58,4.75,19.25,6.44,29.02,1.98,11.45,3.24,23,4.19,34.58.04,1.7,1.41,3.06,3.1,3.1,1.71-.01,3.09-1.39,3.1-3.1-1.59-21.39-5.05-42.6-10.36-63.39-1.03-4.36-2.36-8.65-3.96-12.83-1.91-4.62-4.61-8.86-7.99-12.54-3.12-3.18-6.64-5.94-10.48-8.2-3.63-2.26-7.44-4.23-11.39-5.88-9.73-4.11-20.05-6.53-30.32-8.86-3.89-.88-5.55,5.1-1.65,5.99h0Z"/><path class="cls-1" d="M188.87,368.35c-3.48,5.48-5.66,10.98-8.28,18.58h160.48c-4.12-9.62-9.68-18.56-16.49-26.51-5.79-6.85-17.26-12.96-29.08-17.29-4.29,6.88-16.95,13-29.81,13.78-7.25.47-14.53-.03-21.65-1.47-7.66-1.59-15.16-5.05-20.13-11.16-10.79,4.24-23.99,10.28-29.06,16.16-2.18,2.49-4.18,5.15-5.98,7.94Z"/><path class="cls-4" d="M305.45,273.15c1.54-1.34,3.59-1.93,5.6-1.64,1.98.28,3.73,1.44,4.75,3.16.59,1.17.92,2.45.98,3.76.43,5.12-.56,10.25-2.86,14.85-1.08,2.32-2.65,4.38-4.6,6.04-1.65,1.59-4.12,1.98-6.18.97-.5,1.97-1.16,3.69-1.46,4.53-1.59,4.03-10.51,18.35-21.73,23.59.06.51.16,1.09.27,1.74.59,3.45,1.55,7.35,6.15,9.89.31.1,6.3,2.94,6.76,3.15l1.78.8-.4.51c-5.03,6.29-16.84,11.66-28.83,12.39-7.25.47-14.53-.03-21.65-1.47-7.1-1.48-14.06-4.55-18.99-9.85l-1.14-1.22,2.72-1.14c.5-.21,6.46-3.05,6.79-3.15,4.56-2.54,5.54-6.44,6.13-9.89.05-.21.08-.4.11-.61-6.04-2.67-11.4-6.66-15.71-11.67-4.43-4.97-7.84-10.76-10.01-17.06-1.91.67-4.04.2-5.5-1.21-1.95-1.66-3.52-3.72-4.6-6.04-2.3-4.59-3.28-9.73-2.86-14.85.06-1.31.39-2.59.98-3.76,1.02-1.72,2.77-2.88,4.75-3.16,2.02-.3,4.06.3,5.6,1.64,0,0-8.58-37.55,44.02-37.55s49.12,37.26,49.12,37.26Z"/><path class="cls-5" d="M329.63,242.3c-3.85-3.96-5.14-7.56-6.39-13.21-.86-4.23-2.11-8.37-3.72-12.37-1.19-2.79-2.97-5.29-5.22-7.33-6.21-5.53-11.68-7.57-19.43-6.48-6.03.85-11.58,3.34-14.07,8.68h0c-1.29-.57-2.61-1.1-3.95-1.57-5.97-2.06-12.24-3.09-18.56-3.04-11.24-.19-22.25,3.2-31.44,9.67-9.81,7.04-20.92,19.57-21.8,39.85-.06,5.16.38,10.31,1.32,15.38.11-.04.23-.06.35-.08,2.02-.3,4.06.3,5.6,1.64l1.58,1.42c1.53-6.24,5.78-11.46,11.59-14.21.17-.08.33-.15.5-.22h30.35c2.74-.49,5.42-1.27,7.99-2.33,4.3-2.39,8.01-5.7,10.86-9.7,7.47.89,14.25,4.81,18.75,10.84,3.18,4.16,5.5,8.91,6.84,13.97,2.51-.02,4.66-.06,4.66-.06,1.41-1.23,3.26-1.84,5.13-1.69.87-4.94,1.19-9.96.97-14.97-.22-5.08-1.14-10.11-2.76-14.93l2.34.95c5.65,2.36,11.63,1.94,18.51-.22Z"/><path class="cls-2" d="M236.57,329.55s.16-.91.06-.52c-.03.13-.05.26-.08.39-.03.16-.06.32-.09.47-.07.38-.14.75-.23,1.12-.16.74-.37,1.47-.63,2.18-.04.12-.31.79-.1.27.2-.49-.04.07-.1.18-.18.37-.38.74-.61,1.09-.11.18-.24.35-.36.53-.31.46.4-.46.03-.04-.3.35-.61.67-.95.99-.18.16-.36.31-.55.47-.26.22.2-.16.21-.16-.06,0-.22.16-.27.19-.22.15-.46.27-.66.43-.43.33.26-.06.28-.06-.53.14-1.04.36-1.51.65-1.08.5-2.15,1-3.23,1.51-.91.43-1.81.88-2.74,1.28-.7.41-1.21,1.08-1.42,1.86-.21.81-.1,1.67.31,2.39.41.7,1.08,1.21,1.85,1.42.81.17,1.65.06,2.39-.31,1.99-.85,3.91-1.84,5.88-2.75l.55-.25c.58-.26-.76.37-.39.16.62-.29,1.23-.62,1.82-.98.6-.41,1.17-.85,1.71-1.33,1.6-1.48,2.83-3.3,3.61-5.33.34-.84.61-1.7.81-2.59.31-1.07.51-2.16.59-3.27,0-1.71-1.39-3.1-3.1-3.1s-3.1,1.39-3.1,3.1h0Z"/><path class="cls-2" d="M276.86,328.41c.55,4.16,1.4,8.27,4.31,11.48.81.86,1.72,1.63,2.72,2.27.53.37,1.1.67,1.7.89.21.07-.94-.42-.58-.24.08.04.17.08.25.11,1.11.5,2.21,1.02,3.31,1.54,1.01.47,2.01.96,3.02,1.42,1.49.82,3.35.33,4.25-1.11.84-1.48.35-3.37-1.11-4.25-1.93-.87-3.83-1.81-5.75-2.69-.31-.14-.61-.28-.92-.42-.26-.14-.54-.25-.82-.34.06.02.67.36.4.12-.1-.07-.21-.13-.31-.19-.2-.13-.4-.26-.59-.39-.06-.04-.38-.28-.05-.03s-.06-.05-.12-.11c-.35-.3-.68-.62-.99-.96-.12-.16-.25-.32-.39-.46,0,0,.36.52.18.23-.07-.11-.15-.21-.22-.32-.23-.34-.44-.7-.63-1.07-.09-.17-.16-.33-.24-.5-.23-.46.23.62,0-.02-.29-.81-.54-1.65-.72-2.49-.09-.4-.16-.79-.23-1.19-.05-.29-.1-.59-.15-.88-.03-.21-.18-1.24-.07-.38-.03-.82-.35-1.6-.91-2.2-.59-.58-1.38-.9-2.2-.91-1.5.07-3.33,1.38-3.1,3.1h0Z"/><path class="cls-2" d="M283.48,213.15c1.86-3.82,5.39-5.76,9.4-6.73,4.13-1.15,8.53-.93,12.52.63,4.15,1.81,7.67,4.81,10.11,8.61,2.67,4.36,3.73,9.84,4.85,14.77,1,5.25,3.45,10.12,7.07,14.06l1.37-5.19c-5.63,1.73-11.26,2.48-16.85.23-1.65-.44-3.35.52-3.82,2.17-.41,1.65.54,3.33,2.17,3.82,6.52,2.63,13.58,1.79,20.15-.23,1.66-.49,2.61-2.24,2.12-3.9-.14-.48-.4-.93-.75-1.29-3.56-3.72-4.73-8.09-5.85-12.99-1.25-5.47-2.78-11.53-6.14-16.12-3.27-4.43-7.71-7.87-12.82-9.94-4.92-1.77-10.26-2.02-15.33-.71-5.62,1.25-10.97,4.36-13.57,9.68-.82,1.49-.33,3.35,1.11,4.25,1.48.85,3.37.35,4.25-1.11h0Z"/><path class="cls-2" d="M307.64,275.35c1.62-1.29,3.98-1.02,5.27.6.07.09.15.19.21.29.52,1.26.74,2.61.65,3.97.05,1.59-.07,3.18-.34,4.74-.54,3.13-1.68,6.13-3.34,8.83-1.16,1.84-3.07,4.41-5.33,3.81-3.86-1.03-5.51,4.96-1.65,5.99,5.07,1.35,9.04-1.92,11.81-5.86,2.68-4.02,4.34-8.64,4.84-13.45.54-4.46.55-10.12-3.07-13.37-3.86-3.36-9.62-3.34-13.45.06-1.2,1.22-1.2,3.17,0,4.39,1.23,1.18,3.16,1.18,4.39,0h0Z"/><path class="cls-2" d="M214.52,271.25c-3.83-3.39-9.59-3.42-13.45-.06-3.61,3.24-3.61,8.91-3.07,13.37.5,4.81,2.16,9.43,4.84,13.45,2.77,3.95,6.73,7.22,11.81,5.86,3.86-1.03,2.22-7.02-1.65-5.99-2.26.6-4.16-1.96-5.33-3.81-1.67-2.7-2.8-5.7-3.34-8.83-.26-1.48-.37-2.98-.34-4.49-.12-1.44.11-2.89.65-4.22,1.13-1.74,3.45-2.23,5.19-1.1.1.07.2.14.29.21,1.23,1.17,3.16,1.17,4.39,0,1.2-1.22,1.2-3.17,0-4.39h0Z"/><path class="cls-2" d="M300.64,296.95c-.43,2.41-1.08,4.77-1.95,7.05-.17.49.37-.69.06-.16-.13.22-.22.47-.33.69-.24.49-.5.97-.77,1.44-1.5,2.66-3.2,5.2-5.1,7.59-4.61,5.82-10.58,11.8-18.09,13.44-3.9.85-2.25,6.84,1.65,5.99,8.53-1.86,15.55-8.41,20.82-15.03,4.56-5.74,8.58-11.97,9.68-19.36.4-1.65-.55-3.32-2.17-3.82-1.65-.44-3.35.52-3.82,2.17h0Z"/><path class="cls-2" d="M209.73,297.58c2.31,8.89,6.83,17.05,13.16,23.72,6.31,6.65,14.47,12.07,23.7,13.37,1.65.4,3.32-.55,3.82-2.17.44-1.65-.52-3.35-2.17-3.82-16.29-2.3-28.59-17.55-32.52-32.75-1-3.86-6.98-2.23-5.99,1.65h0Z"/><path class="cls-2" d="M313.63,271.94c2.36-14.47.92-29.82-7.11-42.41-7.68-11.84-19.54-20.35-33.21-23.84-14.02-3.6-28.87-2.01-41.82,4.48-9.6,5-17.55,12.68-22.87,22.11-3.41,6.22-5.55,13.05-6.32,20.1-.6,6.53-.29,13.12.91,19.57.47,1.64,2.17,2.61,3.82,2.17,1.63-.49,2.58-2.17,2.17-3.82-1.66-10.2-1.47-21.57,3.07-31.49,3.95-8.44,10.17-15.61,17.96-20.71,10.63-6.71,23.32-9.39,35.76-7.54,12.63,1.77,24.15,8.21,32.26,18.06,9.51,11.58,11.77,27.23,9.41,41.68-.4,1.65.55,3.32,2.17,3.82,1.65.44,3.36-.53,3.82-2.18Z"/><path class="cls-2" d="M343.4,384.51c-4.22-9.86-10.02-18.96-17.19-26.94-7.13-7.91-17.69-12.7-27.42-16.52-1.65-.44-3.35.52-3.82,2.17-.41,1.65.54,3.33,2.17,3.82,8.87,3.48,18.57,7.94,24.97,15.24,6.61,7.56,11.99,16.12,15.93,25.36.87,1.47,2.76,1.97,4.25,1.11,1.44-.89,1.93-2.76,1.11-4.25h0Z"/><path class="cls-2" d="M183.58,387.75c2.73-7.89,5.84-15.5,10.99-22.16,2.12-2.86,4.71-5.34,7.65-7.35,3.66-2.37,7.48-4.46,11.45-6.26,4.51-2.12,9.13-4.01,13.78-5.79,1.62-.49,2.57-2.17,2.17-3.82-.47-1.64-2.17-2.61-3.82-2.17-8.82,3.36-17.78,6.98-25.77,12.07-7.24,4.61-12.58,11.51-16.47,19.1-2.33,4.76-4.33,9.69-5.97,14.73-1.31,3.78,4.68,5.41,5.99,1.65h0Z"/><path class="cls-2" d="M280.01,252.62c4.62,1.73,8.65,4.74,11.63,8.66,2.26,2.98,4.03,6.3,5.25,9.83.24.68.46,1.37.67,2.07.08.28.16.56.24.84.06.21.11.42.17.63.15.68.22.27.22-1.23l1.11-1.11-.16.1,1.57-.42-.2-.02c-1.71.01-3.09,1.39-3.1,3.1.03,1.7,1.4,3.07,3.1,3.1,2.59.23,3.93-2.52,3.53-4.71-.35-1.64-.83-3.25-1.46-4.81-1.19-3.32-2.8-6.47-4.79-9.39-3.92-5.8-9.56-10.22-16.14-12.62-1.65-.44-3.35.52-3.82,2.17-.42,1.65.54,3.33,2.17,3.82Z"/><path class="cls-2" d="M276.24,237.69c-.84,5.1-3.4,9.76-7.26,13.2-1.89,1.74-3.98,3.27-6.21,4.55-.18.11-.65.24.11-.02-.24.08-.47.18-.7.26-.62.22-1.25.42-1.87.6-1.58.47-3.17.85-4.79,1.18-1.64.47-2.61,2.17-2.17,3.82.48,1.63,2.17,2.59,3.82,2.17,3.02-.47,5.96-1.36,8.73-2.64,2.73-1.49,5.24-3.35,7.46-5.52,4.62-4.2,7.74-9.8,8.86-15.94.4-1.65-.55-3.32-2.17-3.82-1.65-.44-3.35.52-3.82,2.17h0Z"/><path class="cls-2" d="M251.76,237.76c-2.2,4.68-5.2,8.94-8.88,12.58-3.66,3.45-8.47,4.27-13.15,5.56-4.76,1.14-9.12,3.56-12.61,6.99-3.28,3.38-5.52,7.63-6.44,12.25-.41,1.65.54,3.33,2.17,3.82,1.65.44,3.35-.52,3.82-2.17.78-4.21,2.98-8.04,6.23-10.83,3.46-2.97,7.84-3.9,12.13-5.03,4.9-1.07,9.4-3.48,13.01-6.97,3.69-3.86,6.75-8.27,9.08-13.08.82-1.49.33-3.35-1.11-4.25-1.48-.85-3.37-.35-4.25,1.11h0Z"/><path class="cls-2" d="M222.85,347.76c7.46,7.86,18.09,10.79,28.55,11.92,11.18,1.21,22.5.32,32.88-4.21,4.77-1.91,9.03-4.92,12.43-8.77,1.16-1.23,1.16-3.16,0-4.39-1.22-1.2-3.17-1.2-4.39,0-5.31,6.5-14.33,9.66-22.35,11.01-5.12.75-10.32.89-15.47.43-5.06-.28-10.07-1.2-14.9-2.74-4.68-1.49-8.93-4.12-12.36-7.64-2.76-2.9-7.14,1.49-4.39,4.39h0Z"/><path class="cls-2" d="M445.65,204.12c-.88,3.73-2.1,7.38-3.64,10.9.39-.96-.19.39-.32.67-.26.55-.54,1.09-.83,1.62-.66,1.24-1.36,2.45-2.09,3.64-3.76,6.35-8.57,12.02-14.21,16.77-3.03,2.58-6.62,4.42-10.48,5.38-3.89.89-2.25,6.88,1.65,5.99,8.12-1.85,14.9-7.73,20.23-13.87,4.56-5.09,8.39-10.81,11.35-16.97.16-.35.31-.7.46-1.06.02-.03.48-1.13.27-.65-.19.44.02-.02.05-.09.15-.32.28-.66.42-.99.26-.62.52-1.24.75-1.86.99-2.55,1.78-5.17,2.37-7.84.82-3.9-5.16-5.56-5.99-1.65h0Z"/><path class="cls-1" d="M433.39,101.46c-3.65-2.53-7.56-4.67-11.65-6.4-8.06-3.44-16.79-5.03-25.54-4.62-29.24-1.72-57.24,20.18-62.99,47.88-1.56,7.48-.96,19.04-.12,25.11.5,3.6,1.6,8.5,3.29,11.13.26-.03.52-.05.8-.06,2.21-.09,4.37.71,5.99,2.22l6.08-9c3.88-2.62,8.49-4.61,14.55-7.11,1.52-.55,2.97-1.25,4.35-2.1-.03.5-.04.83-.04.83-.26,1.13.21,2.31,1.19,2.94,1.31.46,2.7.64,4.08.55,5.02.21,9.99-.98,14.36-3.46.57-.34,1.1-.68,1.6-1.03h22.91c3.34-2.62,6.15-5.86,8.25-9.54,2.25-3.92,3.79-8.21,4.57-12.66h4.93c.92,7.48,3.94,14.54,7.17,21.35,1.94,4.1,4.33,8.49,8.55,10.14l3.53,9.5c1.63-1.5,3.79-2.28,6-2.17,1.11.03,2.21.25,3.25.66,4.24-10.67,2.07-28.05.3-36.82-.9-4.47-2.36-8.81-4.35-12.91-3.1-6.77-7.56-12.82-13.11-17.78l-7.95-6.65Z"/><path class="cls-2" d="M340.41,205.18c2.38,10.67,7.33,20.6,14.43,28.92,6.86,8.03,15.72,14.42,26.36,16.04,1.65.4,3.32-.55,3.82-2.17.44-1.65-.52-3.35-2.17-3.82-9.7-1.48-17.35-7.11-23.62-14.44-6.35-7.55-10.76-16.54-12.84-26.18-.87-3.9-6.85-2.25-5.99,1.65h0Z"/><path class="cls-2" d="M434.95,98.78c-10.83-7.56-23.74-11.58-36.95-11.51-5.37-.11-10.75.23-16.07,1.01-5.1.97-10.07,2.55-14.8,4.71-18.32,8.25-33.9,25.79-37.2,45.97-.88,6.04-1.07,12.15-.57,18.24.4,6.01,1.12,12.18,3.65,17.7.87,1.47,2.76,1.96,4.25,1.11,1.45-.89,1.94-2.76,1.11-4.25-.99-2.39-1.68-4.9-2.04-7.46-.33-1.87-.52-3.78-.69-5.98-.43-5.03-.44-10.08-.04-15.11.81-9.14,4.8-17.92,10.18-25.27,10.98-15.02,29.37-24.79,48.06-24.49,3.18.05,6.36-.06,9.53.19,3.38.28,6.72.88,9.98,1.79,6.59,1.85,12.83,4.79,18.46,8.7,3.3,2.26,6.41-3.11,3.13-5.36h0Z"/><path class="cls-2" d="M461.24,177.04c3.63-8.65,3.2-18.99,2.21-28.13-.42-4.26-1.1-8.5-2.04-12.67-1.41-5.75-3.63-11.26-6.61-16.38-3.02-5.2-6.81-9.9-11.26-13.95-2.94-2.7-7.34,1.68-4.39,4.39,7.54,6.88,13,15.74,15.76,25.57,2.2,8.27,3.18,16.81,2.92,25.35.04,4.84-.83,9.64-2.57,14.16-.45,1.65.52,3.36,2.17,3.82,1.65.41,3.33-.54,3.82-2.17h0Z"/><path class="cls-2" d="M426.89,136.13c1.13,7.24,3.36,14.26,6.61,20.82,2.59,5.61,5.39,11.16,11.39,13.67,1.65.45,3.35-.52,3.82-2.17.41-1.65-.54-3.33-2.17-3.82-4.19-1.75-6.2-7.57-7.92-11.35-2.68-5.42-4.54-11.2-5.52-17.16-.05-1.69-1.41-3.05-3.1-3.1-1.71,0-3.09,1.39-3.1,3.1h0Z"/><path class="cls-2" d="M345.36,174.52c-3.61-3.25-8.81-4.03-13.21-1.98-3.14,1.61-5.38,4.55-6.09,8-1.83,8.07-.24,16.54,4.4,23.4,2.99,4.45,7.69,8.44,13.41,7.71,1.69-.05,3.05-1.41,3.1-3.1,0-1.71-1.39-3.09-3.1-3.1-4.4.57-7.35-3.1-9.25-6.63-1.63-2.93-2.65-6.16-3.01-9.5-.27-3.27-.24-7.21,1.69-10.02-.39.57.19-.21.31-.32.09-.09.73-.61.51-.45.56-.38,1.2-.65,1.86-.78,1.75-.44,3.61,0,4.99,1.16,2.96,2.67,7.36-1.7,4.39-4.39h0Z"/><path class="cls-2" d="M423.66,256.82c2.66,4.18,7.22,6.88,11.54,9.08,5.08,2.59,10.4,4.66,15.67,6.83,1.65.45,3.35-.52,3.82-2.17.41-1.65-.54-3.33-2.17-3.82-4.66-1.92-9.33-3.76-13.84-6.03-2.13-1.05-4.19-2.25-6.14-3.6-.74-.51-1.44-1.08-2.07-1.72-.31-.3-.6-.62-.89-.94-.16-.18-.37-.48-.11-.12-.15-.21-.3-.43-.44-.65-.87-1.48-2.77-1.98-4.25-1.11-1.48.87-1.98,2.77-1.11,4.25h0Z"/><path class="cls-2" d="M352.08,266.74c5.41-1.57,10.7-3.55,15.82-5.92,2.33-1.17,5.04-2.56,5.83-5.22.34-1.41.6-2.85.79-4.29l.85-4.77c.41-1.65-.55-3.32-2.17-3.82-1.65-.44-3.35.52-3.82,2.17-.5,2.78-.96,5.56-1.49,8.34-.04.24-.09.48-.15.71,0,0,.22-.42.24-.36,0,.01-1.1.68-1.23.76-.81.5-1.65.96-2.51,1.37-1.92.9-3.9,1.7-5.91,2.38-2.62.93-5.26,1.79-7.9,2.65-1.63.49-2.58,2.17-2.17,3.82.47,1.64,2.17,2.61,3.82,2.17h0Z"/><path class="cls-2" d="M350.86,276.5c6.59,3.22,13.44,5.86,20.48,7.89,6.58,1.75,13.34,2.77,20.14,3.04,7.52.35,15.06.14,22.54-.63,5.3-.45,10.53-1.46,15.62-3,3.99-1.35,7.85-3.09,11.52-5.17,3.5-1.93.37-7.29-3.13-5.36-1.45.8-2.92,1.59-4.41,2.31-.7.34-1.41.66-2.13.97.62-.27-.58.23-.77.3-.48.19-.97.37-1.46.54-4.34,1.49-8.83,2.49-13.39,3-13.24,1.58-27.28,1.78-40.31-1.33-7.44-1.89-14.67-4.54-21.56-7.92-1.49-.82-3.35-.33-4.25,1.11-.85,1.48-.35,3.37,1.11,4.25h0Z"/><path class="cls-2" d="M413.81,161.02c4.92-3.73,8.78-8.69,11.2-14.38,2.5-5.84,3.82-12.12,3.9-18.47.16-3.99-6.05-3.99-6.21,0-.06,3-.38,5.98-.96,8.92-.48,2.2-1.18,4.35-2.09,6.41-2.07,4.55-4.83,9.17-8.97,12.16-1.44.9-1.93,2.76-1.11,4.25.87,1.47,2.76,1.96,4.25,1.11h0Z"/><path class="cls-2" d="M364.99,159.34c-.31,2.54,1.12,4.97,3.48,5.94,2.12.63,4.34.85,6.54.65,4.39-.12,8.71-1.16,12.67-3.07,4.06-2.03,7.57-5,10.25-8.66,2.82-3.52,5.05-7.47,6.61-11.7,1.51-4.73,2.47-9.62,2.87-14.58,0-1.71-1.39-3.09-3.1-3.1-1.7.04-3.06,1.41-3.1,3.1-.39,4.47-1.31,8.88-2.72,13.13-1.56,4.04-3.85,7.77-6.76,10.98-4.23,4.82-10.3,7.62-16.72,7.7-.99.02-2.01.04-3-.03-.39,0-.78-.02-1.16-.1.36.15.28.51.34-.26-.01-1.71-1.4-3.09-3.1-3.1-1.7.03-3.07,1.4-3.1,3.1h0Z"/><path class="cls-2" d="M350.81,170.4c6.89-4.6,15.3-6.28,21.89-11.28,6.66-5.06,9.93-12.77,11.87-20.68.95-3.88-5.03-5.53-5.99-1.65-1.69,6.91-4.33,13.71-10.36,17.95-3.21,2.26-6.84,3.5-10.42,5.04-3.53,1.44-6.92,3.2-10.13,5.26-3.31,2.21-.2,7.59,3.13,5.36h0Z"/><path class="cls-2" d="M83.39,239.18c17.78,15.69,44.05,21.16,66.91,15.63,6.83-1.65,13.35-4.37,19.31-8.07,3.38-2.11.27-7.48-3.13-5.36-18.93,11.78-43.98,12.08-64.02,2.81-5.33-2.41-10.27-5.58-14.69-9.41-2.98-2.63-7.39,1.74-4.39,4.39h0Z"/><path class="cls-5" d="M72.95,107.65c4.54-14.09,13.66-26.27,25.91-34.58,11.68-8.02,25.66-11.99,39.81-11.31,13.1.24,25.83,4.43,36.51,12.01l8.38,6.88c10.38,10.01,19.56,25.38,19.79,47.63.03,7.36-1.1,14.68-3.34,21.69-.79-.24-1.61-.39-2.44-.44-2.3-.18-4.57.57-6.32,2.08l-8.54-7.23c-2.6-7.21-8.74-15.29-15.22-21.23-2.9-2.77-6.25-5.03-9.91-6.68l-10.94-1.7c-7.5,2.88-18.16,9.1-24.12,12.17-1.01.46-2.2.02-2.66-.99-.18-.39-.23-.83-.14-1.26.19-1.28.15-2.59-.13-3.86-.34-1.62-1.55-2.34-2.53-1.87-8.35,4.04-20.4,14.8-27.27,21.97l-9.07,7.13c-1.64-1.62-3.87-2.51-6.17-2.48-.91,0-1.82.11-2.71.34-1.77-7.17-2.45-14.57-2-21.94.39-5.55,1.43-11.03,3.09-16.34Z"/><path class="cls-2" d="M82.94,145.87c-3.72-3.5-9.19-4.38-13.81-2.22-3.15,1.64-5.43,4.59-6.22,8.05-2.28,7.94-.49,17.13,3.79,24.11,2.96,4.82,7.81,9.16,13.85,8.55,1.69-.05,3.06-1.41,3.1-3.1-.01-1.71-1.39-3.09-3.1-3.1-4.71.47-7.75-3.73-9.61-7.52-1.57-3.13-2.5-6.53-2.74-10.02-.17-3.36,0-7.45,2.11-10.25-.44.59.32-.31.42-.4.41-.39-.16.04.39-.32.67-.45,1.44-.75,2.24-.87,1.87-.35,3.8.2,5.19,1.5,2.89,2.76,7.28-1.62,4.39-4.39h0Z"/><path class="cls-2" d="M193.46,153.82c1.52-1.15,3.49-1.51,5.32-.97,1.08.21,2.05.81,2.72,1.69,1.97,2.88,1.91,7.1,1.51,10.44-.49,3.52-1.68,6.9-3.49,9.96-1.81,3.15-5.17,7.52-9.34,6.83-1.65-.4-3.32.55-3.82,2.17-.44,1.65.52,3.35,2.17,3.82,10.19,1.68,16.39-8.1,19.36-16.42,2.47-6.93,2.85-17.98-3.8-22.78-4.63-3.11-10.77-2.75-15,.88-1.2,1.22-1.2,3.18,0,4.4,1.23,1.18,3.16,1.18,4.39,0h0Z"/><path class="cls-2" d="M186.82,179.76c-.57,2.29-1.29,4.55-2.15,6.74-.31.8-.63,1.59-.98,2.36-.15.32-.32.63-.46.95-.96,2.11.22-.38-.26.59-1.14,2.31-2.41,4.55-3.83,6.7-4.04,6.44-9.14,12.14-15.09,16.88-3.33,2.68-7.24,4.57-11.41,5.5-1.65.46-2.62,2.16-2.17,3.82.46,1.65,2.16,2.62,3.82,2.17,8.5-1.68,15.74-7.68,21.45-13.91,4.89-5.17,9.02-11.01,12.27-17.34.12-.25.24-.5.36-.76.15-.3.29-.61.41-.93-.23.46.08-.13.13-.23.13-.26.25-.53.36-.8.27-.62.54-1.24.79-1.86,1.13-2.67,2.05-5.42,2.76-8.23.93-3.88-5.05-5.54-5.99-1.65h0Z"/><path class="cls-2" d="M77.19,177.69c1.6,8.35,4.73,16.34,9.22,23.56,4.79,7.65,11.17,14.84,18.99,19.48,3.99,2.37,8.38,4.02,12.95,4.85,1.65.41,3.32-.55,3.82-2.17.44-1.65-.52-3.35-2.17-3.82-10.01-1.81-17.78-7.89-24.08-15.65-6.47-8.12-10.85-17.7-12.74-27.91-.47-1.64-2.17-2.61-3.82-2.17-1.63.48-2.59,2.17-2.17,3.82Z"/><path class="cls-2" d="M176.75,71.1c-19.71-13.5-44.86-16.28-67.04-7.41-18.02,7.53-32.09,22.2-38.86,40.52-4.68,13.35-5.45,27.77-2.22,41.55.87,3.9,6.85,2.25,5.99-1.65-4.54-20.45.02-42.34,14.19-58.08,21.84-24.06,58.16-28.16,84.81-9.56,1.48.85,3.37.35,4.25-1.11.83-1.48.34-3.36-1.11-4.25h0Z"/><path class="cls-2" d="M203.28,149.88c1.64-5.56,2.67-11.29,3.08-17.07.3-5.74-.04-11.5-.99-17.17-1.46-9.31-4.93-18.19-10.17-26.03-2.6-3.82-5.58-7.37-8.9-10.59-2.87-2.78-7.27,1.6-4.39,4.39,5.55,5.33,10.01,11.69,13.13,18.72,3.74,8.9,5.52,18.51,5.2,28.16-.22,6.08-1.21,12.1-2.96,17.93-1.07,3.85,4.91,5.5,5.99,1.65h0Z"/><path class="cls-2" d="M156.03,119.15c5.3,2.65,10.01,6.33,13.86,10.83,4.21,4.42,7.54,9.58,9.84,15.23.49,1.62,2.17,2.58,3.82,2.17,1.64-.47,2.61-2.17,2.17-3.82-2.57-6.51-6.34-12.48-11.11-17.61-4.28-5.05-9.53-9.19-15.45-12.17-1.49-.82-3.35-.33-4.25,1.11-.85,1.48-.35,3.37,1.11,4.25h0Z"/><path class="cls-2" d="M92.01,143.13c6.73-7.28,14.31-13.72,22.57-19.19.88-.56,1.78-1.1,2.7-1.59.24-.11.47-.23.69-.36.43-.31.31.06.03-.12-.13-.08-2.08.72-1.35-.33-.11.16.06.52.08.69.1,1.12-.15,2.22-.05,3.33.13,1.49.9,2.85,2.11,3.72,2.52,1.8,4.91.57,7.3-.7,2.07-1.1,4.12-2.22,6.17-3.33,4.91-2.8,9.99-5.3,15.22-7.48,1.62-.5,2.57-2.17,2.17-3.82-.47-1.64-2.17-2.61-3.82-2.17-4.89,1.98-9.66,4.26-14.28,6.8-2.25,1.2-4.49,2.42-6.74,3.64-.9.49-1.81.97-2.72,1.45-.72.38-1.12.27-.16.58s.91.82,1-.41c.19-2.77-.44-6.13-3.07-7.57-2.49-1.36-4.99.26-7.14,1.52-4.45,2.74-8.67,5.85-12.62,9.28-4.37,3.66-8.54,7.56-12.49,11.67-2.77,2.88,1.62,7.28,4.39,4.39h0Z"/><path class="cls-2" d="M86.94,239.09c2.78-1.06,5.55-2.12,8.32-3.19,1.74-.58,3.45-1.27,5.11-2.06,5.84-3.13,6.79-10.6,7.52-16.51,0-1.71-1.39-3.1-3.1-3.1h0c-1.69.05-3.05,1.41-3.1,3.1-.05.39-.06.47-.03.22-.03.23-.07.46-.1.69-.05.34-.11.69-.17,1.03-.14.81-.31,1.62-.48,2.42-.23,1.17-.54,2.33-.92,3.47-.06.15-.11.31-.17.46.16-.37.17-.39.02-.07-.11.22-.21.43-.33.65-.14.25-.29.48-.44.72-.4.66.24-.18-.17.24-.17.17-.33.36-.51.53-.12.12-.24.23-.37.33.3-.22.31-.23.02-.02-.23.14-.44.29-.68.42-.22.1-.44.2-.65.32.26-.1-.12.03-.18.06-.27.1-.54.2-.81.31-.9.34-1.8.69-2.7,1.03-2.58.99-5.15,1.98-7.73,2.96-1.63.49-2.58,2.17-2.17,3.82.47,1.64,2.17,2.6,3.82,2.17h0Z"/><path class="cls-2" d="M81.76,233.99c-10,3.07-19.75,6.87-29.2,11.35-8.77,4.14-17.53,8.87-24.92,15.21-7.73,6.63-12.8,16.05-16.14,25.53-3.79,10.75-5.41,22.16-6.63,33.45-1.55,12.6-1.65,25.34-.29,37.96,1.33,10.85,3.65,22.54,9.99,31.69,2.83,4.29,6.71,7.77,11.27,10.13,5.14,2.44,10.87,3.38,16.52,2.7,11.68-1.32,21.43-7.91,29.46-16.17,7.37-7.61,13.96-15.94,19.66-24.87,4.91-7.95,9.16-16.29,12.71-24.93,1.13-2.64,2.25-5.28,3.34-7.93.45-1.65-.52-3.36-2.17-3.82-1.65-.41-3.33.54-3.82,2.17-3.43,8.64-7.36,17.07-11.77,25.25-4.55,7.95-9.84,15.44-15.79,22.4-6.65,7.9-14.19,16.13-24.12,19.8-9.28,3.43-19.93,2.88-27.14-4.49-6.85-7.01-9.48-17.35-11.14-26.71-1.9-11.85-2.3-23.89-1.18-35.83.67-10.91,2.34-21.73,4.99-32.33,2.55-9.55,6.59-19.17,13.39-26.51,5.7-6.15,13.42-10.46,20.77-14.29,8.82-4.56,17.98-8.46,27.38-11.67,2.16-.74,4.32-1.44,6.49-2.11,3.81-1.16,2.19-7.16-1.65-5.99h0Z"/><path class="cls-2" d="M257.96,288.22c.42,1.52.76,3.05,1.01,4.6l-.11-.83c.03.21.04.42.02.63l.11-.83c-.01.1-.04.19-.07.29l.31-.74c-.03.06-.06.13-.1.18l.49-.63c-.04.05-.1.1-.15.15l.63-.49c-.12.07-.24.14-.36.19l.74-.31c-.2.08-.4.14-.61.18l.83-.11c-.19.02-.39.02-.58,0l.83.11c-.22-.03-.43-.08-.65-.11-.4-.13-.83-.15-1.24-.06-.41.02-.81.14-1.15.37-1.48.86-1.98,2.77-1.11,4.25,0,0,0,0,0,0,.4.71,1.07,1.22,1.86,1.42.56.08,1.1.22,1.68.24.89,0,1.77-.21,2.56-.62,1.03-.49,1.8-1.41,2.08-2.52.19-.87.18-1.77-.02-2.63-.25-1.48-.59-2.95-.97-4.41-.22-.78-.73-1.44-1.42-1.85-1.48-.87-3.38-.37-4.25,1.11,0,0,0,0,0,0-.41.73-.52,1.58-.31,2.39h-.01Z"/><path class="cls-2" d="M234.61,275.92c-.75,2.44-.26,8.06,4.37,8.54,6.12-.04,6.44-6.83,4.38-10.02-1.69-2.61-6.64-3.7-8.75,1.49Z"/><path class="cls-2" d="M283.38,275.92c.75,2.44.26,8.06-4.36,8.54-6.12-.04-6.44-6.83-4.38-10.02,1.69-2.61,6.64-3.7,8.75,1.49Z"/><path class="cls-2" d="M393.02,194.18c.47,1.73.85,3.49,1.13,5.26l-.11-.83c.03.24.04.48.02.73l.11-.83c-.02.11-.04.22-.08.33l.31-.74c-.03.07-.07.14-.12.21l.48-.63c-.05.06-.11.12-.17.17l.63-.49c-.13.08-.27.16-.42.22l.74-.31c-.23.09-.46.16-.7.2l.83-.11c-.22.03-.44.03-.66,0l.83.11c-.25-.04-.49-.1-.74-.13-.4-.13-.83-.15-1.24-.06-.41.02-.81.15-1.15.37-1.48.86-1.98,2.77-1.11,4.25,0,0,0,0,0,0,.4.71,1.07,1.22,1.85,1.42.6.08,1.18.23,1.8.26.94,0,1.86-.22,2.7-.65,1.08-.5,1.88-1.46,2.18-2.61.19-.91.19-1.86-.02-2.77-.28-1.7-.66-3.38-1.09-5.04-.22-.78-.73-1.44-1.42-1.85-1.48-.87-3.38-.37-4.25,1.11-.42.72-.54,1.59-.31,2.39h0Z"/><path class="cls-2" d="M365.66,179.05c-.89,2.85-.34,9.42,5.06,10,7.15-.01,7.56-7.95,5.17-11.69-1.96-3.06-7.75-4.36-10.23,1.69Z"/><path class="cls-2" d="M422.89,179.28c.87,2.86.27,9.42-5.14,9.96-7.15-.07-7.5-8.01-5.08-11.73,1.98-3.05,7.78-4.3,10.22,1.78Z"/><path class="cls-2" d="M135.85,168.14c.37,1.62.72,3.27.94,4.91l-.11-.83c.06.41.11.83.17,1.24l-.11-.83c.05.31.05.63.02.95l.11-.83c-.02.11-.05.23-.09.34l.31-.74c-.04.08-.08.15-.13.21l.48-.63s-.07.08-.12.12l.63-.48c-.16.11-.33.2-.51.27l.74-.31c-.21.08-.43.14-.65.18l.83-.11c-.23.03-.47.03-.7,0l.83.11c-.28-.04-.56-.12-.85-.17-.81-.19-1.66-.08-2.39.31-1.48.86-1.98,2.77-1.11,4.25,0,0,0,0,0,0,.4.7,1.07,1.22,1.85,1.42.62.1,1.2.25,1.83.3,1,.03,1.99-.2,2.87-.66,1.07-.52,1.86-1.49,2.14-2.66.19-.95.18-1.92-.03-2.87l.11.83c-.26-2.01-.62-4-1.08-5.97-.47-1.64-2.17-2.61-3.82-2.17-1.63.49-2.59,2.17-2.17,3.82h0Z"/><path class="cls-2" d="M107.63,151.53c-1.01,2.94-.63,9.8,4.98,10.57,7.45.19,8.11-8.06,5.73-12.03-1.95-3.26-7.94-4.77-10.71,1.46Z"/><path class="cls-2" d="M167.26,153.44c.82,3,0,9.83-5.65,10.22-7.44-.28-7.57-8.57-4.94-12.38,2.15-3.12,8.23-4.25,10.59,2.15Z"/><path class="cls-2" d="M451.44,179.33c1.26-1.06,2.92-1.5,4.54-1.2.84.11,1.64.42,2.33.91-.18-.13,1.06,1.12.65.59,2.07,2.69,2.04,6.8,1.77,10-.36,3.34-1.38,6.57-3.01,9.51-1.58,2.95-4.67,7.37-8.59,6.84-1.64-.4-3.31.55-3.82,2.17-.44,1.65.52,3.35,2.17,3.82,9.89,1.35,15.69-8.06,18.34-16.26,1.27-4.16,1.56-8.56.85-12.85-.36-3.6-2.2-6.89-5.09-9.07-4.56-2.92-10.5-2.44-14.53,1.17-2.99,2.66,1.41,7.04,4.39,4.39h0Z"/><path class="cls-2" d="M387.22,220.78c.39-.21.78-.4,1.18-.59.67-.32-.65.23.13-.05.29-.1.58-.21.87-.3.79-.24,1.6-.42,2.41-.55.6-.1-.3.01.1-.01.24-.02.48-.05.71-.07.58-.05,1.15-.07,1.73-.07.54,0,1.08,0,1.61.03.25.01.5.03.74.05.08,0,1.02.13.27.02.81.11,1.61.29,2.39.53.32.13.65.25.99.35-.09-.02-.65-.3-.28-.11.13.07.28.13.42.2.2.11.4.22.59.34.26.16.97.7,0-.05,1.23,1.17,3.16,1.17,4.39,0,1.02-1.11,1.37-3.33,0-4.39-3.14-2.23-6.94-3.35-10.79-3.18-3.69-.07-7.33.79-10.6,2.5-1.47.88-1.96,2.76-1.11,4.25.89,1.45,2.76,1.94,4.25,1.11h0Z"/><path class="cls-4" d="M87.55,250.43c.79-2.7,1.65-5.41,2.64-8.14,2.36-6.53,4.82-11.7,8.44-15.59,3.07-3.3,10.47-6.79,14.75-8.03,5.41-1.56,10.06-2.83,15.44-1.43,4.7,1.22,5.81,6.34,7.73,12.06l.91,3.37c2.42,1.08,3.76,3.7,3.22,6.29-.38,3.18-2.4,5.44-7.2,5.52,1.29.56,2.31,1.01,2.31,1.01,2.8.98,4.34,3.99,3.5,6.84-.72,2.94-3.95,4.02-6.04,3.93l-.8-.03,1.13,1.08c.94,1.21,1.44,2.72,1.39,4.26.04,2.28-2.62,4.87-4.53,5.32-2.33.55-5.09,1.03-8.83,1.78-.64,2.96-1.59,5.84-2.85,8.6-1.82,4.09-5.26,7.25-9.49,8.73,0,0-2.79,4.57-5.47,8.97-7.61-3.97-18.7-10.29-25.04-14.61l.84-2.02c3.25-9.05,5.14-18.36,7.95-27.91Z"/><path class="cls-2" d="M82.6,279.17c4.84-13.64,6.74-28.32,12.77-41.55,1.12-2.61,2.55-5.07,4.25-7.34,1.65-2,3.69-3.66,5.99-4.87,5.17-3.06,10.93-4.97,16.9-5.61,2.59-.19,6.04-.15,7.61,1.81,1.88,2.34,2.52,5.74,3.44,8.52,1.25,3.77,7.25,2.16,5.99-1.65-1.99-5.97-3.71-12.96-10.78-14.44-7.26-1.52-15.06.81-21.7,3.72-2.92,1.23-5.69,2.81-8.25,4.69-2.5,1.98-4.61,4.4-6.22,7.14-4.02,6.49-6.36,14.12-8.44,21.41-2.53,8.84-4.46,17.85-7.53,26.52-.44,1.65.53,3.35,2.17,3.82,1.65.42,3.33-.54,3.82-2.17h0Z"/><path class="cls-2" d="M114.9,233.07c3.72.31,7.45.6,11.17.95,1.93.18,3.86.37,5.78.6,1.1.07,2.2.24,3.27.5.26.07.51.17.76.24.48.13-.5-.29.16.08.23.13.46.28.7.41.06.04.36.28.07.04-.35-.29.16.19.23.24.39.27-.14-.28.22.27s.08-.1.2.38c.05.2.11.39.15.58-.01-.06-.04-.42,0-.03.05.55.04,1.1-.04,1.65.08-.62-.03,0-.1.27s-.32.83-.05.27c-.12.25-.26.47-.39.71-.17.29.12-.14.14-.16-.13.15-.27.28-.4.43-.07.08-.47.39-.15.14s-.04.02-.09.04c-.1.05-.84.42-.57.32-.25.05-.49.12-.73.2-.2.05-.41.09-.62.13.42-.07-.22.02-.36.03-2.37.05-4.73-.08-7.08-.4-2.56-.21-5.13-.43-7.69-.65-1.71.01-3.09,1.4-3.1,3.1.03,1.7,1.4,3.07,3.1,3.1,2.56.22,5.13.44,7.69.65,2.46.35,4.95.47,7.43.37,4.05-.4,7.63-2.41,8.81-6.52,1.3-4-.24-8.37-3.76-10.66-2.88-1.78-6.6-1.82-9.85-2.17-4.97-.53-9.95-.91-14.93-1.32-1.71.01-3.09,1.4-3.1,3.1.03,1.7,1.4,3.07,3.1,3.1h0Z"/><path class="cls-2" d="M134.23,248.18c.29.13.56.27.83.42.17.1.9.72.32.18.23.21.44.43.66.65-.54-.54.06.14.18.32.32.49-.08-.5.06.13.04.21.12,1.15.12.42,0,.12-.05,1.24.04.59-.05.38-.15.75-.28,1.11.24-.7-.14.1-.2.24-.13.19-.09.13.12-.16-.1.12-.22.23-.33.33-.26.22-.23.21.08-.04-.13.09-.26.17-.39.25-.18.11-1.07.42-.3.18-.29.09-.57.19-.86.26-.74.18-.02,0-.02.04-.44.05-.88.05-1.32.02-4.37-.22-8.77-.6-13.11-1.14-1.71,0-3.1,1.39-3.1,3.1.05,1.69,1.41,3.05,3.1,3.1,4.08.51,8.2.82,12.31,1.09,2.15.22,4.32-.2,6.24-1.18,2.76-1.54,4.41-4.51,4.25-7.67-.16-3.33-2.19-6.29-5.25-7.63-1.49-.82-3.35-.33-4.25,1.11-.84,1.48-.35,3.37,1.11,4.25h0Z"/><path class="cls-2" d="M118.62,267.84c-.52,1.96-1.02,3.93-1.68,5.85-.12.35-.26.69-.39,1.03-.26.7.29-.62-.02.04-.07.16-.14.32-.22.47-.41.86-.87,1.69-1.39,2.49-.25.39-.52.78-.79,1.15-.34.48.21-.23-.04.05-.13.15-.25.31-.39.45-.56.63-1.17,1.21-1.81,1.75-.44.38.32-.2,0,0-.16.1-.31.22-.46.32-.38.26-.76.49-1.16.71-.34.19-.68.36-1.03.52-.12.05-.85.34-.13.07-.23.09-.46.18-.68.26-1.63.49-2.58,2.17-2.17,3.82.47,1.64,2.17,2.6,3.82,2.17,4.05-1.43,7.52-4.14,9.9-7.71,2.4-3.58,3.51-7.68,4.59-11.8.46-1.65-.52-3.36-2.17-3.82s-3.36.52-3.82,2.17h.02Z"/><path class="cls-2" d="M131.38,259.5c.08.08.16.16.23.25-.31-.41-.37-.48-.19-.21.06.16.14.32.24.46-.18-.45-.23-.56-.15-.33.03.08.06.17.08.25.06.19.11.39.16.59s.05.39.11.57c-.07-.23-.09-.78-.04-.23.03.3.02.59.04.89.03.54.2-.72.02-.17-.07.16-.12.33-.15.5.21-.47.24-.55.1-.25-.04.08-.08.16-.13.24-.11.19-.23.37-.35.55-.31.49.46-.48.02-.03-.13.14-.26.28-.39.42-.1.1-.53.39-.56.51l.34-.26c-.1.07-.19.14-.29.21-.14.1-.29.19-.44.28-.1.06-.77.39-.21.13.53-.24-.06,0-.19.03-.16.04-.33.08-.5.11-.78.17-1.54.33-2.31.49-2,.4-4.01.78-6.02,1.18-1.65.46-2.61,2.17-2.17,3.82.49,1.63,2.17,2.58,3.82,2.17,2.25-.45,4.51-.87,6.76-1.33.84-.14,1.67-.33,2.48-.58,1.21-.44,2.31-1.11,3.26-1.98,1.89-1.56,3.03-3.85,3.12-6.3.06-2.33-.76-4.6-2.29-6.35-1.22-1.2-3.19-1.19-4.39.04-1.19,1.21-1.19,3.15,0,4.35h0Z"/><path class="cls-4" d="M406.34,324.75c1.39,5.46,2.65,10.26,4.13,15.32,8.68-3.66,19.17-8.17,27.68-11.85-3.57-6.87-7-13.8-10.45-20.79-1.78-5.47-5.83-17.65-7.17-22.99-2.31-9.22-4.36-16.17-4.79-18.53-1.58-7.26-3.97-21.86-4.95-28.39-.68-4.5-2.88-7.06-6.9-6.57-3.81.48-5.61,5.52-5.44,8.59.23,7.55.91,15.08,2.03,22.55,0,0,.2,1.54.43,3.34-2.96-1.06-8.94-3.25-11.54-3.94-2.48-.51-4.99.75-6.06,3.05-1.1,2.77.25,5.9,3.02,7,.03.01.06.02.08.03l.81.36-.52-.12c-3.55-.81-6.66-.65-7.74,3.04-1,3.4.49,5.57,3.86,7.21l1.79.87h-.93c-2.79-.1-5.29,1.67-6.13,4.32-.41,2.15.3,4.37,1.89,5.88,2.08,2.07,5.42,5.03,7.58,6.75l1.92,2.58c1.68,7.41,4.98,13.92,11.1,18.44,1.56,1.15,4.36,2.66,6.32,3.82Z"/><path class="cls-2" d="M406.24,263.84c-5.09-1.81-10.22-3.64-15.41-5.15-3.64-1.1-7.57.28-9.72,3.42-2.39,3.92-1.23,9.03,2.62,11.53,2.05,1.19,4.2,2.2,6.43,3.01,2.07.92,4.15,1.84,6.25,2.7,1.65.45,3.35-.52,3.82-2.17.41-1.65-.54-3.33-2.17-3.82-.12-.05-1.05-.44-.48-.2-.33-.14-.65-.28-.98-.42-.83-.36-1.66-.72-2.49-1.09-1.73-.77-3.45-1.54-5.17-2.32-.73-.28-1.42-.64-2.08-1.06.37.27-.02-.03-.07-.09-.13-.14-.27-.27-.4-.42.34.41-.2-.38-.28-.54.26.55-.07-.37-.11-.54.13.6.04-.15.03-.39,0-.46-.13.47,0,.02.03-.13.07-.27.1-.4.09-.49.07-.22-.01-.06,0,.01.4-.7.2-.41s.14-.15.2-.21c.09-.1.19-.19.29-.28-.43.39.29-.14.48-.25.15-.09.52-.15-.03,0,.12-.04.24-.09.36-.11.16-.03.33-.07.48-.12.33-.13-.56-.01,0,0,.18,0,.92.1.46-.01-.52-.13.18.07.28.1.42.11.83.24,1.24.37,2.43.75,4.83,1.56,7.24,2.37,2.43.82,4.86,1.65,7.27,2.51,1.65.46,3.36-.52,3.82-2.17.46-1.65-.52-3.36-2.17-3.82h-.01Z"/><path class="cls-2" d="M387.52,268.85c-2.38-.71-4.92-.65-7.27.15-2.44,1.11-4.15,3.39-4.51,6.05-.53,2.63.24,5.35,2.08,7.3,1.75,1.85,4.24,2.82,6.49,3.89s4.5,2.07,6.78,3.05c1.49.82,3.35.33,4.25-1.11.7-1.33.48-3.56-1.11-4.25-1.74-.75-3.48-1.5-5.2-2.3-1.87-.87-3.83-1.69-5.61-2.74-.21-.12-.41-.25-.61-.39-.08-.06-.16-.12-.24-.17,0,0,.47.42.25.19-.15-.15-.32-.28-.48-.43-.1-.1-.53-.63-.22-.21.32.44-.08-.13-.14-.24-.07-.15-.14-.3-.23-.44.04.05.24.74.13.28-.02-.08-.05-.16-.07-.24s-.03-.16-.06-.24c-.12-.41.06.23.03.32.01-.21,0-.41-.02-.62,0-.13.08-.75,0-.24-.09.55.06-.24.09-.37.06-.24.13-.48.21-.72.25-.72-.23.34.04-.09.05-.08.29-.39.28-.47,0,.06-.52.57-.17.22.06-.06.11-.12.17-.18s.12-.11.18-.17c.3-.3-.16.18-.25.19.2-.08.38-.18.55-.31-.02.02-.63.19-.37.16.13-.03.26-.07.39-.12.14-.04.8-.14.25-.07s.2,0,.37,0c.46.07.93.1,1.4.08,0,0-.68-.11-.34-.05.13.02.26.04.4.07.31.05.61.12.91.18,1.65.46,3.36-.51,3.82-2.17.46-1.65-.51-3.36-2.17-3.82h0Z"/><path class="cls-2" d="M383.68,279.85c-2.81-.01-5.49,1.18-7.35,3.28-1.94,2.29-2.53,5.43-1.54,8.27,1.06,2.43,2.71,4.56,4.8,6.19,1.7,1.56,3.43,3.08,5.24,4.53,1.23,1.17,3.16,1.17,4.39,0,1.19-1.22,1.19-3.17,0-4.39-1.45-1.15-2.85-2.37-4.23-3.61-.73-.65-1.45-1.31-2.16-1.99-.35-.33-.69-.66-1.03-1-.15-.15-.28-.32-.44-.46-.14-.17-.12-.13.06.1-.08-.11-.16-.22-.23-.33-.13-.19-.23-.39-.34-.58-.39-.67.11.5-.11-.24-.06-.21-.1-.44-.18-.65-.04-.23-.04-.17,0,.17-.02-.13-.02-.26-.03-.4,0-.22.01-.44,0-.67.01.61,0,.02.06-.19l.06-.21c.12-.32.1-.28-.06.13-.04-.09.25-.39.28-.48.11-.3-.39.4,0,0,.16-.17.32-.33.49-.5.44-.43-.47.24.12-.09.18-.1.34-.21.52-.31.3-.16.43-.18.04-.05.24-.08.47-.17.71-.23.14-.04.92-.14.17-.08.26-.02.52-.03.78-.04,1.71,0,3.1-1.39,3.1-3.1s-1.39-3.1-3.1-3.1h0Z"/><path class="cls-2" d="M403.47,261.28c-.73-4.89-1.25-9.8-1.53-14.73-.15-2.52-.46-5.12-.39-7.64.06-1.51.6-2.95,1.53-4.14.31-.4.76-.67,1.26-.76.86-.22,1.77.1,2.31.8-.08-.1.35.58.43.75.39.94.64,1.92.76,2.93.64,3.97,1.24,7.94,1.91,11.91,1.29,7.67,2.63,15.3,4.64,22.82,2.39,8.91,4.72,17.77,7.56,26.55.72,2.22,1.44,4.44,2.17,6.66.95,2.62,2.09,5.16,3.41,7.61,2.49,4.98,5.07,9.9,7.67,14.81,1.87,3.53,7.23.4,5.36-3.13-2.49-4.69-4.96-9.4-7.34-14.15-1.18-2.13-2.21-4.34-3.07-6.62-.67-2.06-1.35-4.12-2.02-6.18-3.04-9.39-5.54-18.87-8.09-28.4-2.19-8.21-3.51-16.64-4.88-25.01-.35-2.14-.69-4.28-1.03-6.43-.21-2.18-.75-4.31-1.61-6.32-2.11-4.27-7.29-6.02-11.56-3.91-.23.11-.45.24-.67.37-2.22,1.58-3.79,3.9-4.44,6.54-.79,2.85-.4,5.8-.24,8.71.34,6.25.95,12.43,1.88,18.62.47,1.65,2.17,2.61,3.82,2.17,1.63-.49,2.58-2.17,2.17-3.82h0Z"/><path class="cls-2" d="M385.94,303.31c1.09,5.19,3.29,10.08,6.43,14.36,3.38,4.4,7.72,6.98,12.41,9.77l-1.42-1.85c1.2,4.66,2.79,9.17,4.16,13.78,1.14,3.82,7.13,2.19,5.99-1.65-1.03-3.49-2.25-6.93-3.26-10.43-.29-1.01-.52-2.04-.83-3.04-.36-1.17-1.21-2.13-2.33-2.64-1.61-.94-3.26-1.82-4.81-2.86-5.8-3.88-8.83-10.49-10.36-17.07-.91-3.89-6.89-2.24-5.99,1.65h0Z"/><path class="cls-2" d="M268.99,306.42c-2.46-2.4-6.26-3.17-9.57-3.16s-7.11.76-9.57,3.16c-1.2,1.22-1.19,3.19.04,4.39,1.21,1.19,3.15,1.19,4.35,0,.12-.12.59-.49.08-.1s.09-.05.24-.14c.19-.12.39-.23.59-.33.13-.06.28-.12.41-.19-.17.1-.69.27-.21.1.64-.23,1.3-.41,1.96-.54.16-.03.87-.23.07-.03.2-.04.4-.06.6-.06.48-.04.96-.06,1.44-.06.44,0,.88.01,1.32.05.24.04.48.07.73.07-.11.1-.66-.1-.04,0,.68.12,1.34.29,1.99.53.26.09.65.36-.13-.07.11.06.23.1.34.16.22.11.44.23.65.36.16.1.31.22.47.32-.89-.53-.41-.33-.15-.08,1.22,1.2,3.19,1.19,4.39-.04,1.19-1.21,1.19-3.15,0-4.35h0Z"/><path class="cls-2" d="M128.93,195.95c.4-.23.8-.45,1.21-.65.12-.06.24-.11.35-.17.45-.22-.04-.03-.2.08.31-.16.65-.29.99-.37.79-.26,1.59-.46,2.4-.61.27-.05.55-.1.82-.14-.47.07,0,0,.22-.02.6-.06,1.21-.1,1.82-.12,1.11-.04,2.19.05,3.29.11.4.02-.49-.09.1.01.24.04.49.08.73.13.36.08.73.16,1.09.27s.68.22,1.02.34c.62.22-.19-.07-.18-.08s.4.19.43.2c.41.2.8.44,1.16.7,1.48.86,3.38.36,4.25-1.11.82-1.49.33-3.35-1.11-4.25-2.99-2.18-7.19-2.65-10.77-2.53-3.76.05-7.45,1.02-10.75,2.85-1.48.87-1.98,2.77-1.11,4.25.87,1.48,2.77,1.98,4.25,1.11h0Z"/><path class="cls-2" d="M458.99,347.28c-2.55-6.1-5.11-12.2-7.6-18.33-1.27-3.12-2.63-8.17-7.15-6.73-2.42.78-4.79,2.07-7.12,3.08-10.31,4.45-20.62,8.9-30.97,13.23-2.11.88-4.23,1.76-6.35,2.63-1.43.37-2.69,1.2-3.61,2.36-.95,1.51-.61,3.1-.24,4.73,1.39,6.08,2.87,12.13,4.58,18.13,3.82,13.44,8.31,27.43,17.02,38.56,3.95,5.29,9.24,9.44,15.32,12,6.22,2.35,13.06,2.48,19.37.39,6.37-2,12.18-5.49,16.93-10.18,4.44-4.61,8.17-9.85,11.07-15.55,13.4-24.57,19.91-52.31,18.85-80.28-.14-5.84-1.39-11.59-3.69-16.96-2.07-4.7-4.93-9.01-8.45-12.75-7.37-7.89-17.31-13.05-27.57-16.09-2.75-.82-5.55-1.47-8.36-2.01-1.65-.41-3.33.55-3.82,2.17-.44,1.65.52,3.35,2.17,3.82,17.22,3.28,35.1,12.23,41.35,29.75.73,2.06,1.31,4.17,1.72,6.32.41,2.76.59,5.55.53,8.34.14,6.05-.08,12.1-.65,18.12-1.74,17.77-6.7,35.08-14.64,51.07-2.45,5.25-5.38,10.27-8.75,14.98-6.31,8.39-16.63,15.1-27.46,14.55-11.31-.58-19.42-10.49-24.42-19.68-5.71-10.51-9.1-22.47-12.11-33.99-.68-2.61-1.34-5.24-1.96-7.87-.27-1.13-.53-2.26-.79-3.39-.06-.59-.19-1.16-.39-1.72-.65-1.02-.71,2.05-1.22,1.54.3-.1.59-.22.88-.36,3.97-1.62,7.93-3.29,11.88-4.96,9.19-3.88,18.36-7.81,27.52-11.79l3.02-1.31,1.42-.61c.17-.07.35-.14.52-.22.95-.46.21.26-.32.04l-1.37-.8c-.04-.24,0-.2.1.14l.34.84.54,1.34c.38.93.76,1.86,1.14,2.79.71,1.72,1.42,3.45,2.13,5.17,1.54,3.72,3.1,7.44,4.66,11.15.5,1.62,2.17,2.57,3.82,2.17,1.65-.47,2.61-2.17,2.17-3.82h0Z"/><path class="cls-2" d="M73.51,280.33c5.18,3.89,10.64,7.4,16.34,10.49,5.67,3.27,11.4,6.5,17.32,9.29,1.49.82,3.35.33,4.25-1.11.85-1.48.35-3.37-1.11-4.25-5.79-2.73-11.39-5.88-16.94-9.07-3.04-1.75-6.07-3.54-9.04-5.41-1.31-.83-2.62-1.66-3.9-2.54-.51-.34-1.01-.69-1.5-1.05-.22-.16-.44-.32-.67-.49-.69-.5,0,.01-.35-.26-1.23-1.16-3.16-1.16-4.39,0-1.2,1.22-1.2,3.17,0,4.39h0Z"/></g></svg>