<?xml version="1.0" encoding="UTF-8"?><svg id="_レイヤー_2" xmlns="http://www.w3.org/2000/svg" viewBox="0 0 548.06 535.77"><defs><style>.cls-1{fill:#41352c;}.cls-1,.cls-2,.cls-3,.cls-4,.cls-5{stroke-width:0px;}.cls-2{fill:#cb6850;}.cls-3{fill:#645d5c;}.cls-4{fill:#fff;}.cls-5{fill:#ffca8c;}</style></defs><g id="_レイヤー_1-2"><path class="cls-5" d="M503.99,170.26c34.44,101.72-8.71,233.53-98.16,297.65-89.06,63.73-224.82,59.77-309.13-3.96C12.39,399.83-20.46,276.34,12.79,176.99,45.64,77.24,144.99,2.04,251.07.06c105.68-2.37,218.1,68.87,252.93,170.2Z"/><circle class="cls-5" cx="443.23" cy="430.94" r="104.83"/><path class="cls-2" d="M397.77,444.56c9.39,9.4,18.59,18.99,27.98,28.4,5.12,4.96,13.25,4.96,18.37,0,19.36-19,38.54-38.19,57.54-57.56,5.07-5.07,5.07-13.3,0-18.37-5.07-5.07-13.3-5.07-18.37,0-18.96,19.4-38.14,38.59-57.54,57.56h18.37c-9.39-9.4-18.59-18.99-27.98-28.4-5.07-5.07-13.3-5.07-18.37,0-5.07,5.07-5.07,13.3,0,18.37h0Z"/><g id="c"><path class="cls-4" d="M340.39,151.24c2.44-2.2,6.05-3.26,9.43-2.76,3.38.5,6.46,2.54,8,5.32,1.09,1.95,1.45,4.17,1.65,6.33.74,8.53-.94,17.22-4.81,24.99-1.88,3.79-4.34,7.41-7.75,10.17-2.62,2.09-5.25,3.28-9.06,2.12,0,0-.5-.15-1.36-.41-.84,3.29-1.94,6.15-2.43,7.55-2.84,7.19-19.48,33.75-39.89,41.09.16,1.23.38,2.63.69,4.34.99,5.81,2.63,12.39,10.36,16.66.46.15,8.38,3.9,10.77,5.01-12.99,9.02-33.81,15.93-55.43,16-21.61-.06-42.42-6.97-55.4-15.99,2.4-1.1,10.3-4.85,10.78-5,7.7-4.28,9.35-10.85,10.36-16.66.36-2.06.61-3.64.73-4.99-8.69-4.14-16.72-10.56-23.8-18.47-8.54-9.54-13.72-19.75-16.8-28.55-1.27.34-2.01.54-2.01.54-4.3,1.16-7.59-1.14-10.21-3.23-3.41-2.76-5.87-6.38-7.75-10.17-3.87-7.77-5.55-16.46-4.81-24.99.2-2.16.55-4.38,1.65-6.33,1.55-2.78,4.62-4.81,8-5.32,3.38-.5,6.99.56,9.43,2.76,0,0-16.51-75.75,79.83-75.75s79.83,75.75,79.83,75.75h0Z"/><path class="cls-4" d="M403.52,326.96c9.44,21.41,11.97,46.39,14.05,70.19H103.54c2.77-31.75,6.33-65.6,26-90.27,6.78-8.51,15.29-15.56,24.81-20.58,7.31-3.85,15.18-7.37,22.99-9.99,8.61-2.89,17.29-4.69,26.26-5.79,12.82,9.57,34.46,17.06,56.96,17.12,22.58-.07,44.28-7.6,57.09-17.21,9.03,1.05,17.59,3.25,26.13,6.11,7.83,2.62,15.49,5.91,22.83,9.76,9.56,5.02,18.09,12.07,24.89,20.58,4.94,6.18,8.87,12.93,12.02,20.09h0Z"/><path class="cls-1" d="M364.24,397.16c.22-18.41.44-36.83.82-55.23.09-4.41-6.75-4.41-6.84,0-.38,18.41-.6,36.82-.82,55.23-.05,4.41,6.79,4.41,6.84,0h0Z"/><path class="cls-1" d="M156.06,341.92c.38,18.41.59,36.82.8,55.23.05,4.4,6.89,4.41,6.84,0-.22-18.41-.42-36.83-.8-55.23-.09-4.4-6.93-4.41-6.84,0h0Z"/><path class="cls-1" d="M210.06,266.43c-13.69,1.21-27.14,3.85-39.96,8.89-12.2,4.8-24.06,10.7-33.88,19.5-17.92,16.04-26.75,39.04-31.13,62.17-2.51,13.26-3.8,26.72-4.97,40.16-.16,1.84,1.69,3.42,3.42,3.42,1.98,0,3.26-1.57,3.42-3.42,1.95-22.38,4.13-45.29,12.64-66.31,4.13-10.2,10.03-19.78,17.76-27.65,8.62-8.78,19.14-14.66,30.34-19.54,13.48-5.87,27.74-9.1,42.36-10.39,1.84-.16,3.42-1.46,3.42-3.42,0-1.73-1.57-3.58-3.42-3.42h0Z"/><path class="cls-1" d="M310.75,273.27c12.76.66,25.25,3.89,37.19,8.36,11.48,4.3,22.82,9.81,32.02,18.03,17.14,15.3,25.27,37.08,29.46,59.15,2.41,12.66,3.61,25.51,4.74,38.34.16,1.84,1.46,3.42,3.42,3.42,1.73,0,3.58-1.57,3.42-3.42-2.07-23.7-4.38-47.99-13.75-70.11-4.68-11.05-11.21-21.33-19.81-29.75-9.36-9.16-20.68-15.3-32.69-20.28-13.98-5.8-28.85-9.79-44-10.58-4.4-.23-4.39,6.61,0,6.84h0Z"/><path class="cls-1" d="M200.2,272.2c12.75,9.88,28.8,15.38,44.64,17.65,17.92,2.57,36.36.74,53.39-5.49,8.12-2.97,15.84-6.86,22.68-12.17,1.46-1.13,1.19-3.65,0-4.84-1.44-1.44-3.37-1.14-4.84,0-11.65,9.03-26.9,13.77-41.31,15.85-16.61,2.4-33.75.43-49.52-5.24-7.12-2.56-14.21-5.95-20.21-10.61-1.46-1.13-3.42-1.42-4.84,0-1.18,1.18-1.47,3.7,0,4.84h0Z"/><path class="cls-1" d="M205.42,275.24c3.72-1.53,7.3-3.39,10.96-5.07.29-.13.58-.26.87-.39.51-.24-.84.35-.47.2s.73-.3,1.08-.48c1.71-.9,3.32-2.17,4.71-3.5,2.48-2.38,4.21-5.35,5.39-8.55,1.2-3.24,1.75-6.75,2.21-10.17.25-1.83-.44-3.67-2.39-4.21-1.59-.44-3.96.55-4.21,2.39-.39,2.86-.85,5.75-1.67,8.52-.18.61-.38,1.2-.6,1.79-.06.15-.11.3-.17.45.02-.06.2-.44.03-.08-.16.35-.32.69-.49,1.02-.33.64-.7,1.26-1.1,1.86-.49.73-.42.63-1.08,1.35-1.12,1.22-2.01,1.94-3.35,2.77-.14.08-.81.62-.35.27.09-.06.28-.1.16-.04-.3.16-.63.26-.94.4-.24.1-.47.21-.71.32-1.82.82-3.63,1.68-5.43,2.53-1.04.49-2.08.98-3.13,1.47-.41.19-.81.38-1.22.57-.35.16-1.39.59.08-.01-1.71.7-2.92,2.27-2.39,4.21.44,1.62,2.49,3.1,4.21,2.39h0Z"/><path class="cls-1" d="M290.87,246.56c.88,6.48,2.1,12.95,6.44,18.09,1.2,1.42,2.63,2.61,4.14,3.67.9.63,1.83,1.22,2.86,1.62.36.14-.7-.31-.61-.26.12.07.27.12.4.18,1.84.84,3.67,1.7,5.49,2.56,1.76.83,3.51,1.71,5.3,2.47,1.7.72,3.67.51,4.68-1.23.84-1.44.48-3.96-1.23-4.68-3.34-1.42-6.59-3.09-9.88-4.61-.69-.32-1.59-.58-2.23-.98.03.02.49.25-.07-.15-.35-.25-.73-.46-1.09-.7-.63-.44-1.03-.78-1.64-1.36-1.22-1.16-1.69-1.77-2.48-3.11-.34-.58-.64-1.19-.93-1.8-.26-.56.04.17-.16-.41-.13-.36-.26-.72-.38-1.08-1.06-3.23-1.55-6.67-2.01-10.02-.25-1.83-2.6-2.83-4.21-2.39-1.98.54-2.64,2.37-2.39,4.21h0Z"/><path class="cls-3" d="M172.29,113.75c4.17-28.65,20.89-46.92,35.82-57.63,14.22-10.2,31.99-16.28,52.92-16.28,10.6,0,21.2,1.58,31.24,5.12,4.54,1.6,8.95,3.59,13.18,5.91,5.8,3.18,12.21,7.5,15.09,10.01,1.8,1.57,4.46,4.15,6.2,5.91,4.33,4.38,8.2,9.24,11.47,14.5,7.79,12.56,11.81,27.12,12.46,41.92.41,9.33-.31,17.32-1.53,24.61l-.1.59c-3.14-.26-6.39.8-8.64,2.83-3.67,1.96-7.54,2.49-10.28,1.05-1.03-.54-3.52-1.98-3.59-6.07-1.8-12.67-7.36-24.98-16.09-35.71-3.06-3.54-8.38-8.56-12.69-9.89,0,0-.9-.28-2.37-.7-5.17,2.47-10.54,4.66-16.09,6.57-4.15,1.42-9.64,2.48-12.67-.16-2.87-2.5-1.7-7.04-5.12-9.07-2.31-1.38-5.59-.88-8.36-.19-29.23,7.31-46.84,25.07-57.69,47.62-2.29,5.03-6.03,7.42-10,7.57-1.22.05-3.85-.35-4.72-1-1.9-1.71-4.5-2.74-7.16-2.85.54,5.25-2.66-13.9-2.16-25.19.14-3.27.44-6.42.89-9.45h0Z"/><path class="cls-1" d="M342.81,153.66c3.43-2.93,9.24-2.39,11.8,1.44,1.43,2.13,1.51,5.06,1.58,7.53.09,2.82-.05,5.66-.53,8.45-.96,5.59-2.9,11.05-5.94,15.86-2.31,3.66-6.12,8.52-10.96,7.17-4.25-1.18-6.06,5.42-1.82,6.6,12.18,3.37,20.2-10.98,23.45-20.51,1.91-5.61,2.83-11.65,2.64-17.57-.19-6.02-1.51-11.77-6.8-15.29-5.69-3.78-13.2-2.84-18.26,1.48-1.41,1.2-1.23,3.6,0,4.84,1.39,1.39,3.43,1.2,4.84,0h0Z"/><path class="cls-1" d="M334.13,190.06c-.12,3.28-.96,6.47-1.97,9.57-.36,1.12-.76,2.22-1.15,3.33-.12.33-.25.65-.36.98.3-.85.08-.19-.12.22-1.49,3.18-3.35,6.19-5.29,9.11-5.59,8.44-12.41,16.56-20.59,22.65-4.79,3.56-10.04,6.45-15.91,7.71-4.3.92-2.48,7.52,1.82,6.6,11.51-2.47,21.32-10.41,29.14-18.87,6.38-6.9,12.37-14.78,16.5-23.26,2.68-5.51,4.55-11.92,4.77-18.03.16-4.4-6.69-4.4-6.84,0h0Z"/><path class="cls-1" d="M183.15,148.82c-4.66-3.98-11.06-5.01-16.65-2.38-5.66,2.66-7.81,8.1-8.3,14-.97,11.79,2.55,24.82,10.22,33.95,4.16,4.95,10.21,8.99,16.9,7.43,4.29-1,2.47-7.6-1.82-6.6-4.63,1.08-9.15-3.91-11.47-7.31-3.31-4.84-5.4-10.48-6.47-16.22-.52-2.78-.71-5.61-.66-8.44.05-2.64.07-5.88,1.6-8.16,2.56-3.82,8.37-4.37,11.8-1.44,1.4,1.2,3.46,1.38,4.84,0,1.23-1.23,1.41-3.63,0-4.84h0Z"/><path class="cls-1" d="M180.13,188c4.89,23.98,20.58,46.65,42.21,58.44,6.05,3.29,12.62,5.65,19.45,6.59,1.83.25,3.67-.44,4.21-2.39.44-1.6-.55-3.95-2.39-4.21-11.61-1.6-22.04-7.32-30.71-15.07-9.25-8.26-16.7-18.43-21.49-29.89-2.06-4.92-3.61-10.07-4.68-15.29-.37-1.81-2.51-2.86-4.21-2.39-1.88.52-2.76,2.39-2.39,4.21h0Z"/><path class="cls-1" d="M352.43,148.72c3.91-23.76,1.46-49-11.62-69.71-12.46-19.73-32.96-34.14-55.58-39.73-22.62-5.6-47.91-3.22-68.73,7.66-15.52,8.11-29,21.05-37.53,36.36-5.01,8.99-8.37,18.9-9.9,29.08-1.57,10.41-1.14,20.67.2,31.08.23,1.76.46,3.52.75,5.27.3,1.82,2.56,2.84,4.21,2.39,1.94-.53,2.69-2.38,2.39-4.21-1.3-7.95-2.21-16.86-1.7-25.26.59-9.91,2.83-19.85,6.95-28.91,6.62-14.58,17.76-27.04,30.86-35.64,17.94-11.78,40.11-15.87,61.27-13.03,11.8,1.58,23,5.64,33.2,11.74,4.03,2.41,8.13,4.96,11.64,8.11,3.94,3.54,7.69,7.34,11.02,11.45,14.61,18.01,19.18,41.53,16.96,64.2-.24,2.45-.57,4.9-.98,7.33-.3,1.82.48,3.68,2.39,4.21,1.64.45,3.91-.56,4.21-2.39h0Z"/><path class="cls-1" d="M301.16,93.09c-4.84,2.66-9.82,5.08-14.93,7.16-4.4,1.78-9.37,4.21-14.22,4.27-1.53.02-3.09-.2-3.79-1.72-.75-1.64-.97-3.53-1.84-5.17-2.7-5.07-8.67-5.15-13.6-4.01-17.2,3.96-33.3,13.11-45.08,26.29-6.16,6.9-11.19,14.72-15.21,23.04-.8,1.66-.45,3.7,1.23,4.68,1.5.88,3.87.44,4.68-1.23,6.89-14.24,16.81-26.88,30.29-35.41,7.48-4.73,15.68-8.11,24.23-10.35,1.87-.49,4.51-1.41,6.42-.63,1.33.54,1.47,2.09,1.85,3.36,1.44,4.78,4.73,7.63,9.78,7.97,5.62.37,11.35-2.2,16.44-4.24,5.89-2.36,11.63-5.04,17.19-8.09,3.86-2.12.41-8.03-3.45-5.91h0Z"/><path class="cls-1" d="M179,154.19c1.56,1.06,3.86,1.33,5.68,1.45,1.67.11,3.46-.19,5.02-.8,3.96-1.54,6.93-4.61,8.7-8.45.75-1.62.51-3.76-1.23-4.68-1.51-.8-3.88-.51-4.68,1.23-.37.79-.78,1.57-1.26,2.3-.12.19-.25.37-.38.55-.35.51.34-.4.07-.09-.25.29-.5.59-.77.86-.26.27-.53.52-.81.76-.42.36-.07,0,.16-.11-.16.07-.33.24-.47.34-.29.19-.58.37-.89.53-.14.07-.27.14-.41.21-.33.16-.65.12.15-.05-.64.14-1.26.4-1.91.54-.57.12.71-.06.29-.03-.15.01-.3.03-.45.04-.32.02-.64.03-.96.01-.3-.01-.61-.07-.91-.08.98.02.41.06.12,0-.16-.03-.33-.06-.49-.1-.34-.07-.67-.16-1-.26-.58-.19,0-.18.22.11-.06-.08-.25-.14-.34-.2-1.48-1.01-3.86-.33-4.68,1.23-.92,1.73-.35,3.6,1.23,4.68h0Z"/><path class="cls-1" d="M323.09,146.22c.11,3.72,1.8,7.12,5.13,8.94,4.43,2.42,9.65,1.27,13.89-.96,1.59-.83,2.2-3.18,1.23-4.68-1.04-1.62-2.98-2.12-4.68-1.23-.23.12-.47.24-.7.36-.13.06-.92.47-.13.08-.4.2-.87.34-1.3.47-.42.13-.85.25-1.28.34-.21.04-.49.06-.69.13.49-.06.61-.08.34-.05-.11.01-.23.02-.34.03-.4.03-.81.04-1.21.03-.18,0-.35-.02-.53-.03-.72-.04.73.15.08,0-.2-.05-.4-.09-.59-.14-.15-.04-.43-.21-.57-.19.18-.02.74.34.18.06-.08-.04-.16-.09-.25-.13-.3-.17-.58-.37-.87-.55s.78.66.33.25c-.08-.07-.15-.13-.23-.2-.15-.14-.47-.38-.54-.58.07.18.54.75.19.23-.07-.11-.14-.22-.2-.33-.08-.14-.14-.29-.22-.43-.2-.33.28.81.12.27-.11-.36-.22-.72-.3-1.09-.14-.64.04.81,0,.08,0-.23-.03-.45-.04-.68-.05-1.79-1.54-3.51-3.42-3.42-1.81.08-3.48,1.51-3.42,3.42h0Z"/><path class="cls-1" d="M296.83,103.91c3.56,1.18,6.62,4.19,9.18,6.82,3.04,3.12,5.54,6.73,7.8,10.44,4.71,7.75,7.89,16.25,9.32,25.21.29,1.83,2.57,2.84,4.21,2.39,1.94-.53,2.68-2.38,2.39-4.21-1.58-9.9-5.33-19.42-10.66-27.9-2.59-4.12-5.5-8.11-8.97-11.54-3.27-3.23-7.02-6.35-11.44-7.82-4.19-1.39-5.98,5.21-1.82,6.6h0Z"/><path class="cls-1" d="M260.84,179c.67,2.55,1.31,5.14,1.69,7.75l-.12-.91c.05.36.07.71.03,1.07l.12-.91c-.03.17-.06.32-.12.48l.34-.82c-.05.11-.1.21-.17.31l.53-.69c-.08.1-.16.17-.25.25l.69-.53c-.2.13-.4.23-.61.33l.82-.34c-.34.14-.67.24-1.03.3l.91-.12c-.33.04-.64.04-.97,0l.91.12c-.37-.05-.73-.14-1.09-.19-.96-.13-1.77-.16-2.64.34-.71.41-1.39,1.23-1.57,2.04-.2.88-.16,1.86.34,2.64.44.69,1.19,1.46,2.04,1.57.78.11,1.55.31,2.34.34,1.2.05,2.32-.31,3.39-.8,1.31-.6,2.33-1.75,2.68-3.16.3-1.19.17-2.27-.04-3.47-.42-2.5-1-4.97-1.64-7.42-.45-1.73-2.46-2.95-4.21-2.39-1.78.58-2.88,2.35-2.39,4.21h0Z"/><path class="cls-1" d="M219.8,158.78c-1.27,4.11-.44,13.57,7.35,14.37,10.29-.06,10.84-11.5,7.38-16.87-2.84-4.4-11.18-6.23-14.73,2.5h0Z"/><path class="cls-1" d="M301.9,158.78c1.27,4.11.44,13.57-7.35,14.37-10.29-.06-10.84-11.5-7.38-16.87,2.84-4.4,11.18-6.23,14.73,2.5h0Z"/><path class="cls-1" d="M262.78,207.08c.28,0,.56.03.84.03.89,0-.69-.18.15,0,.41.09.83.18,1.23.31.05.02.81.29.28.08-.52-.2.18.1.24.13.21.11.41.23.61.35l.19.13c.3.22.25.17-.14-.12.22,0,.67.61.83.78l.15.17c.24.28.2.23-.11-.16.11.04.32.46.38.57.12.2.59.8.54,1.02.07-.29-.2-.6-.04-.06.08.27.18.53.25.8.09.33.28.84.25,1.19.09-.85-.04-.19-.02.08,0,.17.02.34.02.51,0,.37,0,.75-.03,1.12,0,.12-.03.24-.03.36-.02.59.19-.91,0,0-.13.63-.27,1.26-.49,1.87-.11.32-.41.64.06-.08-.07.1-.11.25-.17.36-.19.4-.42.76-.65,1.14-.19.33-.42.28.12-.12-.15.11-.28.33-.4.47-.12.13-.75.6-.75.72,0-.22.62-.43,0-.03-.12.08-.25.16-.37.23-.05.03-.56.34-.59.31.47-.19.53-.22.18-.08l-.22.08c-.43.14-.89.19-1.32.32-.47.14.83-.02-.02,0-.28,0-.56.03-.85.03-.2,0-.39,0-.59-.02-.18,0-1.06-.18-.2,0-.52-.11-1-.24-1.51-.4-.78-.25.59.37-.08-.05-.14-.08-.28-.15-.42-.23-.13-.08-.52-.26-.59-.39l.32.25c-.12-.1-.24-.2-.35-.31-.19-.17-.76-.59-.79-.84.02.2.36.52.12.14-.16-.26-.33-.51-.48-.78-.09-.16-.15-.36-.26-.51-.27-.38.27.78.03.07-.13-.37-.26-.73-.35-1.1-.06-.23-.11-.45-.16-.68-.16-.81-.1-.03-.02,0-.11-.04-.08-1.24-.08-1.38,0-.18,0-.36.01-.54,0-.18.02-.36.04-.53-.07.47-.07.51,0,.12.11-.52.23-1.03.41-1.54.01-.04.36-.81.12-.33-.23.45.25-.45.29-.53.13-.23.27-.45.41-.67.11-.17.63-.74.09-.14.35-.39.71-.74,1.08-1.1.6-.57-.59.33.12-.09.22-.13.43-.28.66-.4.16-.09.93-.38.11-.09.24-.09.49-.18.74-.25.25-.07.51-.12.77-.17-.9.19.21.01.43,0,1.79-.03,3.51-1.55,3.42-3.42-.08-1.83-1.5-3.45-3.42-3.42-5.83.1-10.77,4.63-11.83,10.32-.97,5.25.79,10.89,5.3,13.97,4.48,3.06,11.29,2.38,15.14-1.38,3.27-3.19,4.29-8.04,3.67-12.43-.38-2.7-1.67-5.41-3.7-7.27-2.37-2.17-5.4-3.18-8.59-3.22-1.79-.02-3.5,1.59-3.42,3.42.08,1.87,1.5,3.4,3.42,3.42h0Z"/><path class="cls-4" d="M102.11,248.51c-5.01-8.86-2.34-18.02,3.84-23.89,6.97-6.63,17.65-8.5,26.93-8.38,3.67.05,7.34.47,10.94,1.2.86.17,1.2.24,2.05.45,1.39.34,2.24,1.08,1.64,2.33-.88,1.83-1.63,3.38-2.53,5.19-3.85,7.79-8.07,16.31-13.92,22.95-6.79,7.72-22.39,11.76-28.95.16h0Z"/><path class="cls-1" d="M105.06,246.79c-4.13-7.55-1.72-16.24,5.11-21.28,6.6-4.87,15.4-6.03,23.39-5.83,2.68.07,5.35.33,7.99.8.94.17,1.9.48,2.85.57l.56.13c.83-.06.59-.76-.7-2.1-.38.19-.9,1.87-1.1,2.28-2.06,4.24-4.14,8.48-6.43,12.6-3.66,6.59-7.81,13.68-14.79,16.79-6.02,2.68-13.2,2.3-16.87-3.98-2.22-3.8-8.14-.36-5.91,3.45,4.65,7.94,13.73,10.48,22.3,7.94,3.95-1.17,7.66-3.24,10.69-6.04,3.92-3.63,6.93-8.51,9.58-13.1,2.87-4.98,5.39-10.17,7.89-15.34.63-1.3,1.47-2.64,1.49-4.13.03-1.66-.82-3.19-2.22-4.08-2.28-1.46-5.61-1.68-8.23-2.04-10.64-1.48-22.72-.73-32.12,4.95-5.11,3.09-9.14,7.67-11.2,13.3-2.26,6.16-1.27,12.87,1.83,18.54,2.11,3.86,8.03.41,5.91-3.45h0Z"/><path class="cls-4" d="M98.25,183.62c.26-6.9,5.07-11.24,10.73-12.43,6.39-1.34,13.22,1.38,18.54,4.76,2.1,1.34,4.07,2.89,5.89,4.59.44.41.61.57,1.03.99.68.69.91,1.42.12,1.93-1.16.74-2.15,1.37-3.31,2.1-5,3.12-10.47,6.54-16.21,8.29-6.67,2.03-17.12-1.19-16.77-10.23h0Z"/><path class="cls-1" d="M101.67,183.62c.34-6.12,5.62-9.55,11.41-9.35,3.58.12,7.08,1.47,10.19,3.15,1.76.95,3.48,2.03,5.07,3.26,1.15.89,3.03,2.12,3.69,3.41l-.47-1.73.03-.14.88-1.51c-1.54,1.42-3.82,2.43-5.6,3.52-1.89,1.16-3.8,2.29-5.76,3.33-1.88.99-3.8,1.91-5.82,2.6-1.56.54-2.63.8-3.92.84-2.49.08-4.7-.39-6.81-1.73-1.97-1.25-2.94-3.12-2.89-5.66.08-4.41-6.76-4.41-6.84,0-.12,6.64,4.43,11.67,10.62,13.48,7.08,2.06,13.77-.7,19.96-4.08,3.68-2.01,7.44-4.17,10.86-6.61,2.04-1.45,2.87-3.95,1.46-6.19-1.02-1.62-2.79-2.96-4.26-4.15-6.4-5.17-14.87-9.51-23.33-8.51-8.56,1.02-14.83,7.39-15.32,16.05-.25,4.4,6.6,4.39,6.84,0Z"/></g></g></svg>