<?xml version="1.0" encoding="UTF-8"?><svg id="_レイヤー_2" xmlns="http://www.w3.org/2000/svg" viewBox="0 0 425.6 70.52"><defs><style>.cls-1{fill:#41352c;stroke-width:0px;}</style></defs><g id="_レイヤー_1-2"><path class="cls-1" d="M67.08,41.41c0,1.12-.4,2.1-1.2,2.92-.8.82-1.78,1.23-2.95,1.23h-8.3c-.09,0-.17.05-.21.14-.05.09-.05.19,0,.28,3.28,4.45,7.1,8.27,11.46,11.46.94.7,1.41,1.64,1.41,2.81,0,.89-.33,1.66-.98,2.32-.66.7-1.29,1.43-1.9,2.18-.75.89-1.66,1.41-2.74,1.55-.19.05-.38.07-.56.07-.89,0-1.69-.33-2.39-.98-3.23-3-6.28-6.61-9.14-10.83-.05-.05-.11-.06-.18-.04-.07.02-.11.06-.11.11v11.67c0,1.17-.4,2.16-1.2,2.95-.8.8-1.78,1.2-2.95,1.2h-2.18c-1.17,0-2.16-.4-2.95-1.2-.8-.8-1.2-1.78-1.2-2.95v-11.25s-.05-.08-.14-.11c-.09-.02-.17-.01-.21.04-2.95,4.08-6.21,7.55-9.77,10.41-.7.56-1.48.84-2.32.84-.24,0-.47-.02-.7-.07-1.12-.19-2.06-.73-2.81-1.62-1.45-1.83-2.86-3.35-4.22-4.57-.09-.09-.19-.12-.28-.07-.09.05-.14.12-.14.21v5.98c0,1.17-.41,2.16-1.23,2.95-.82.8-1.79,1.2-2.92,1.2h-1.62c-1.17,0-2.16-.4-2.95-1.2-.8-.8-1.2-1.78-1.2-2.95v-31.15c0-.09-.05-.15-.14-.18-.09-.02-.17-.01-.21.04-.38.47-.75.91-1.12,1.34-.52.61-1.12.91-1.83.91-.19,0-.38-.02-.56-.07-.94-.14-1.62-.66-2.04-1.55-.52-1.22-1.08-2.39-1.69-3.52-.47-.84-.7-1.73-.7-2.67,0-.23.02-.47.07-.7.14-1.22.61-2.3,1.41-3.23,4.78-5.48,8.74-11.91,11.88-19.27.47-1.03,1.22-1.8,2.25-2.32.61-.28,1.24-.42,1.9-.42.42,0,.87.07,1.34.21l1.83.56c1.08.38,1.85,1.05,2.32,2.04.23.56.35,1.1.35,1.62,0,.47-.12.96-.35,1.48-1.41,3.23-2.93,6.4-4.57,9.49-.14.28-.21.61-.21.98v39.23c0,.14.05.24.14.28.09.05.21.05.35,0,5.67-3.05,10.66-7.45,14.98-13.22.05-.09.05-.19,0-.28-.05-.09-.12-.14-.21-.14h-8.3c-1.17,0-2.16-.41-2.95-1.23-.8-.82-1.2-1.79-1.2-2.92v-1.12c0-1.17.4-2.16,1.2-2.95.8-.8,1.78-1.2,2.95-1.2h13.08c.37,0,.56-.19.56-.56v-4.01c0-.38-.19-.56-.56-.56h-8.65c-1.12,0-2.1-.4-2.92-1.2-.82-.8-1.23-1.78-1.23-2.95V9.21c0-1.12.41-2.1,1.23-2.92.82-.82,1.79-1.23,2.92-1.23h30.09c1.17,0,2.16.41,2.95,1.23.8.82,1.2,1.79,1.2,2.92v17.65c0,1.17-.4,2.16-1.2,2.95-.8.8-1.78,1.2-2.95,1.2h-9.84c-.38,0-.56.19-.56.56v4.01c0,.38.19.56.56.56h13.08c1.17,0,2.16.4,2.95,1.2.8.8,1.2,1.78,1.2,2.95v1.12ZM35.86,14.27c-.33,0-.49.17-.49.49v6.61c0,.33.16.49.49.49h16.95c.37,0,.56-.16.56-.49v-6.61c0-.33-.19-.49-.56-.49h-16.95Z"/><path class="cls-1" d="M91.55,13.99c1.12,0,2.08.4,2.88,1.2.8.8,1.2,1.76,1.2,2.88s-.4,2.09-1.2,2.88c-.8.8-1.76,1.2-2.88,1.2h-16.24c-1.12,0-2.07-.4-2.85-1.2-.77-.8-1.16-1.76-1.16-2.88s.39-2.08,1.16-2.88c.77-.8,1.72-1.2,2.85-1.2h16.24ZM89.51,44.44c1.17,0,2.16.4,2.95,1.2.8.8,1.2,1.78,1.2,2.95v13.92c0,1.12-.4,2.1-1.2,2.92-.8.82-1.78,1.23-2.95,1.23h-7.1c-.24,0-.35.09-.35.28,0,.7-.24,1.29-.7,1.76-.47.47-1.03.7-1.69.7h-1.62c-1.12,0-2.07-.4-2.85-1.2-.77-.8-1.16-1.73-1.16-2.81v-16.8c0-1.17.4-2.16,1.2-2.95.8-.8,1.78-1.2,2.95-1.2h11.32ZM104.34,14.27c.19.05.28-.02.28-.21v-1.05c0-.33-.19-.49-.56-.49h-4.01c-1.03,0-1.9-.35-2.6-1.05s-1.05-1.56-1.05-2.57.35-1.86,1.05-2.57,1.57-1.05,2.6-1.05h4.22c.23,0,.35-.14.35-.42,0-.8.28-1.48.84-2.04s1.24-.84,2.04-.84h3.45c.8,0,1.48.28,2.04.84s.84,1.24.84,2.04c0,.28.12.42.35.42h6.33c.23,0,.35-.14.35-.42,0-.8.28-1.48.84-2.04s1.24-.84,2.04-.84h3.52c.8,0,1.48.28,2.04.84s.84,1.24.84,2.04c0,.28.12.42.35.42h4.43c1.03,0,1.9.35,2.6,1.05s1.05,1.56,1.05,2.57-.35,1.86-1.05,2.57-1.57,1.05-2.6,1.05h-4.43c-.24,0-.35.12-.35.35,0,.75-.27,1.4-.81,1.93-.54.54-1.18.81-1.93.81h-.07c-.24,0-.4.09-.49.28-.19.33-.42.75-.7,1.27-.28.52-.47.84-.56.98-.05.14-.04.26.04.35.07.09.15.14.25.14h7.59c.84,0,1.57.31,2.18.91.61.61.91,1.35.91,2.21s-.31,1.61-.91,2.21c-.61.61-1.34.91-2.18.91h-8.37c-.38,0-.56.19-.56.56v.28c0,.38.19.56.56.56h7.59c.66,0,1.23.24,1.72.7.49.47.74,1.04.74,1.72s-.25,1.25-.74,1.72c-.49.47-1.07.7-1.72.7h-7.59c-.38,0-.56.19-.56.56v.35c0,.38.19.56.56.56h7.59c.66,0,1.23.24,1.72.7.49.47.74,1.04.74,1.72s-.25,1.25-.74,1.72c-.49.47-1.07.7-1.72.7h-7.59c-.38,0-.56.19-.56.56v.42c0,.38.19.56.56.56h10.12c.89,0,1.64.31,2.25.91.61.61.91,1.35.91,2.21s-.31,1.61-.91,2.21c-.61.61-1.36.91-2.25.91h-30.45c-1.12,0-2.1-.41-2.92-1.23-.82-.82-1.23-1.79-1.23-2.92v-9.56h-.07c-.24.24-.52.35-.84.35s-.61-.12-.84-.35c-1.31-1.22-2.86-2.51-4.64-3.87-.09-.05-.19-.05-.28,0-.09.05-.14.12-.14.21,0,1.17-.4,2.16-1.2,2.95-.8.8-1.78,1.2-2.95,1.2h-11.46c-1.08,0-1.99-.38-2.74-1.12-.75-.75-1.12-1.66-1.12-2.74s.37-1.99,1.12-2.74c.75-.75,1.66-1.12,2.74-1.12h13.64c.56,0,1.03.19,1.41.56.37.38.56.84.56,1.41,0,.05.02.08.07.11.05.02.09.01.14-.04,3.14-2.81,5.67-6.4,7.59-10.76.23-.52.61-.9,1.12-1.16.52-.26,1.05-.32,1.62-.18ZM78.19,42.05c-1.08,0-1.99-.39-2.74-1.16-.75-.77-1.12-1.69-1.12-2.74s.37-1.97,1.12-2.74c.75-.77,1.66-1.16,2.74-1.16h11.74c1.08,0,1.99.39,2.74,1.16.75.77,1.12,1.69,1.12,2.74s-.38,1.97-1.12,2.74c-.75.77-1.66,1.16-2.74,1.16h-11.74ZM89.72,4.15c1.08,0,1.99.39,2.74,1.16.75.77,1.12,1.69,1.12,2.74s-.38,1.97-1.12,2.74c-.75.77-1.66,1.16-2.74,1.16h-11.11c-1.08,0-1.99-.39-2.74-1.16-.75-.77-1.12-1.69-1.12-2.74s.37-1.97,1.12-2.74c.75-.77,1.66-1.16,2.74-1.16h11.11ZM85.36,53.02c0-.38-.17-.56-.49-.56h-2.25c-.38,0-.56.19-.56.56v5.06c0,.33.19.49.56.49h2.25c.33,0,.49-.16.49-.49v-5.06ZM130.01,46.9c.28-.09.59-.14.91-.14.66,0,1.29.17,1.9.49l1.62.77c.8.42,1.34,1.05,1.62,1.9.05.28.07.56.07.84,0,.56-.17,1.08-.49,1.55-2.02,3-4.57,5.62-7.66,7.88-.05.05-.06.12-.04.21.02.09.08.14.18.14,2.44.52,5.02.94,7.73,1.27.84.09,1.43.54,1.76,1.34.09.28.14.56.14.84,0,.47-.17.94-.49,1.41-.33.47-.66.96-.98,1.48-.75,1.03-1.66,1.83-2.74,2.39-.84.42-1.69.63-2.53.63-.33,0-.66-.02-.98-.07-4.59-.84-8.86-1.99-12.8-3.45-.33-.14-.66-.17-.98-.07-4.27,1.55-9,2.77-14.2,3.66-.28.05-.59.07-.91.07-.84,0-1.66-.21-2.46-.63-1.03-.61-1.83-1.48-2.39-2.6-.09-.14-.19-.28-.28-.42-.19-.47-.28-.94-.28-1.41,0-.7.23-1.31.7-1.83.42-.42.94-.68,1.55-.77,3-.38,5.77-.84,8.3-1.41.09-.05.15-.12.18-.21.02-.09-.01-.16-.11-.21-.52-.38-1.03-.77-1.55-1.2-.61-.52-.91-1.12-.91-1.83,0-.19.02-.38.07-.56.19-.94.75-1.57,1.69-1.9l1.69-.63s.06-.09.04-.14c-.02-.05-.06-.07-.11-.07h-6.33c-.98,0-1.84-.35-2.57-1.05-.73-.7-1.09-1.56-1.09-2.57s.36-1.87,1.09-2.6c.73-.73,1.58-1.09,2.57-1.09h29.11ZM120.87,13.01c0-.33-.17-.49-.49-.49h-6.19c-.24,0-.35.12-.35.35,0,.75-.27,1.4-.81,1.93-.54.54-1.18.81-1.93.81h-1.41c.19.05.33.17.42.35.09.19.09.4,0,.63-.19.42-.45,1.01-.77,1.76-.09.19-.02.28.21.28h5.98c.37,0,.61-.16.7-.49.19-.42.35-.84.49-1.27.28-.8.77-1.41,1.48-1.83.56-.38,1.15-.56,1.76-.56.19,0,.37.02.56.07.23.05.35-.07.35-.35v-1.2ZM115.03,26.3c.33,0,.49-.19.49-.56v-.28c0-.38-.17-.56-.49-.56h-4.78c-.38,0-.56.19-.56.56v.28c0,.38.19.56.56.56h4.78ZM115.03,32.62c.33,0,.49-.19.49-.56v-.35c0-.38-.17-.56-.49-.56h-4.78c-.38,0-.56.19-.56.56v.35c0,.38.19.56.56.56h4.78ZM115.03,39.02c.33,0,.49-.19.49-.56v-.42c0-.38-.17-.56-.49-.56h-4.78c-.38,0-.56.19-.56.56v.42c0,.38.19.56.56.56h4.78ZM122.06,54.49s.06-.11.04-.18c-.02-.07-.08-.11-.18-.11h-10.05s-.08.04-.11.11c-.02.07-.01.13.04.18,1.45,1.03,3.05,1.92,4.78,2.67.33.14.66.14.98,0,1.55-.8,3.05-1.69,4.5-2.67Z"/><path class="cls-1" d="M210.02,28.2c0,1.12-.41,2.1-1.23,2.92s-1.79,1.23-2.92,1.23h-20.67c-.38,0-.7.09-.98.28-1.64,1.27-3.61,2.65-5.91,4.15-.05.05-.06.11-.04.18.02.07.08.11.18.11h19.48c1.17,0,2.16.41,2.95,1.23.8.82,1.2,1.79,1.2,2.92v24.89c0,1.17-.4,2.16-1.2,2.95-.8.8-1.78,1.2-2.95,1.2h-5.27c-.42,0-.77-.15-1.05-.46-.28-.31-.42-.67-.42-1.09,0-.09-.07-.14-.21-.14h-21.94c-.14,0-.21.07-.21.21,0,.47-.18.88-.53,1.23s-.76.53-1.23.53h-4.5c-1.17,0-2.16-.4-2.95-1.2-.8-.8-1.2-1.78-1.2-2.95v-18.21c0-.09-.06-.18-.18-.25-.12-.07-.22-.08-.32-.04-1.64.7-3.49,1.45-5.55,2.25-.61.24-1.22.35-1.83.35-.52,0-1.05-.09-1.62-.28-1.12-.38-2.02-1.08-2.67-2.11-.47-.61-.94-1.24-1.41-1.9-.38-.52-.56-1.08-.56-1.69,0-.28.05-.59.14-.91.28-.94.87-1.57,1.76-1.9,7.27-2.44,14.11-5.48,20.53-9.14.05,0,.07-.04.07-.11s-.05-.11-.14-.11h-17.65c-1.12,0-2.1-.41-2.92-1.23-.82-.82-1.23-1.79-1.23-2.92v-.84c0-1.17.41-2.16,1.23-2.95.82-.8,1.79-1.2,2.92-1.2h17.65c.37,0,.56-.19.56-.56v-4.01c0-.33-.19-.49-.56-.49h-11.46c-1.12,0-2.1-.41-2.92-1.23-.82-.82-1.23-1.79-1.23-2.92v-.7c0-1.17.41-2.16,1.23-2.95.82-.8,1.79-1.2,2.92-1.2h11.46c.37,0,.56-.19.56-.56v-2.39c0-1.12.4-2.1,1.2-2.92.8-.82,1.78-1.23,2.95-1.23h2.04c1.12,0,2.1.41,2.92,1.23.82.82,1.23,1.79,1.23,2.92v2.39c0,.38.19.56.56.56h10.55c.89,0,1.66.33,2.32.98.66.66.98,1.43.98,2.32,0,.05.04.08.11.11.07.02.13.04.18.04,1.45-1.64,2.88-3.4,4.29-5.27.7-.94,1.64-1.55,2.81-1.83.38-.09.77-.14,1.2-.14.7,0,1.41.17,2.11.49l1.62.84c.98.47,1.59,1.24,1.83,2.32.05.28.07.56.07.84,0,.75-.24,1.43-.7,2.04-2.95,3.89-6.19,7.52-9.7,10.9-.05.09-.06.19-.04.28.02.09.08.14.18.14h9.98c1.12,0,2.1.4,2.92,1.2.82.8,1.23,1.78,1.23,2.95v.84ZM190.62,48.8c.38,0,.56-.16.56-.49v-2.25c0-.33-.19-.49-.56-.49h-21.23c-.38,0-.56.17-.56.49v2.25c0,.33.19.49.56.49h21.23ZM168.82,59.27c0,.38.19.56.56.56h21.23c.38,0,.56-.19.56-.56v-2.18c0-.33-.19-.49-.56-.49h-21.23c-.38,0-.56.17-.56.49v2.18ZM178.1,18.14c-.38,0-.56.17-.56.49v4.01c0,.38.19.56.56.56h2.25c.33,0,.63-.12.91-.35,1.45-1.12,3.16-2.58,5.13-4.36.05-.05.06-.12.04-.21-.02-.09-.08-.14-.18-.14h-8.16Z"/><path class="cls-1" d="M257.34,66.38c-.47.14-.91.21-1.34.21-.75,0-1.48-.17-2.18-.49-1.17-.52-2.11-1.29-2.81-2.32l-2.04-3.3c-.28-.42-.42-.87-.42-1.34,0-.38.07-.77.21-1.2.42-.84,1.1-1.36,2.04-1.55.84-.19,1.8-.42,2.88-.7,4.69-1.12,8.38-3.25,11.07-6.36,2.7-3.12,4.04-6.97,4.04-11.57s-1.04-8.36-3.13-11.43c-2.09-3.07-5.07-5.12-8.96-6.15-.38-.09-.59.05-.63.42-1.08,6.42-2.44,12.45-4.08,18.07-2.25,7.45-4.98,13.29-8.19,17.51-3.21,4.22-6.86,6.33-10.93,6.33-4.36,0-8.04-2.11-11.04-6.33-3-4.22-4.5-9.38-4.5-15.47,0-4.17.87-8.17,2.6-11.99,1.73-3.82,4.09-7.15,7.07-9.98,2.98-2.84,6.56-5.1,10.76-6.79,4.19-1.69,8.64-2.53,13.32-2.53,4.41,0,8.48.74,12.23,2.21,3.75,1.48,6.88,3.5,9.39,6.08,2.51,2.58,4.46,5.61,5.87,9.11,1.41,3.49,2.11,7.28,2.11,11.36,0,7.08-1.96,13.07-5.87,17.96-3.91,4.9-9.74,8.31-17.47,10.23ZM240.75,36.42c1.45-4.41,2.65-9.61,3.59-15.61.05-.14.02-.25-.07-.32-.09-.07-.21-.08-.35-.04-3.23.94-6.06,2.53-8.47,4.78-2.42,2.25-4.16,4.62-5.24,7.1-1.08,2.49-1.62,4.9-1.62,7.24,0,2.95.45,5.26,1.34,6.93.89,1.66,1.99,2.5,3.3,2.5s2.62-1.02,3.8-3.06c1.17-2.04,2.41-5.21,3.73-9.53Z"/><path class="cls-1" d="M354.38,17.3c0,1.12-.41,2.1-1.23,2.92s-1.79,1.23-2.92,1.23h-29.6c-.33,0-.49.17-.49.49-.14,2.11-.38,4.45-.7,7.03-.05.33.12.49.49.49h22.64c1.17,0,2.16.42,2.95,1.27.66.66.98,1.45.98,2.39v.49c-.05.09-.07.19-.07.28-.61,9.56-1.34,16.65-2.18,21.27-.84,4.62-2.02,7.75-3.52,9.39-1.97,2.16-4.83,3.45-8.58,3.87-1.64.19-3.82.28-6.54.28-.61,0-1.27-.02-1.97-.07-1.12,0-2.13-.4-3.02-1.2-.89-.8-1.5-1.78-1.83-2.95-.24-.89-.56-1.76-.98-2.6-.14-.33-.21-.68-.21-1.05,0-.42.12-.82.35-1.2.42-.7,1.03-1.05,1.83-1.05h.14c2.39.09,5.06.14,8.02.14,1.59,0,2.79-.3,3.59-.91,1.73-1.41,3-7.41,3.8-18,.05-.33-.12-.49-.49-.49h-16.59c-.33,0-.54.17-.63.49-1.55,6.33-4.1,11.95-7.66,16.88-2.95,4.12-6.94,7.71-11.95,10.76-.66.38-1.34.56-2.04.56-.38,0-.75-.05-1.12-.14-1.08-.28-1.99-.89-2.74-1.83-.28-.42-.61-.84-.98-1.27-.38-.42-.75-.84-1.12-1.27-.56-.61-.84-1.31-.84-2.11,0-.14.02-.3.07-.49.14-.98.63-1.73,1.48-2.25,1.27-.7,2.44-1.48,3.52-2.32,2.11-1.59,3.88-3.19,5.31-4.78,1.43-1.59,2.68-3.43,3.76-5.52,1.08-2.08,1.91-4.01,2.5-5.77.59-1.76,1.08-3.83,1.48-6.22.4-2.39.67-4.45.81-6.19.14-1.59.28-3.54.42-5.84,0-.38-.17-.56-.49-.56h-15.26c-1.12,0-2.1-.41-2.92-1.23-.82-.82-1.23-1.79-1.23-2.92v-1.69c0-1.12.41-2.1,1.23-2.92s1.79-1.23,2.92-1.23h22.29c.38,0,.56-.19.56-.56v-6.75c0-1.12.41-2.1,1.23-2.92s1.79-1.23,2.92-1.23h2.6c1.12,0,2.1.41,2.92,1.23.82.82,1.23,1.79,1.23,2.92v6.75c0,.38.16.56.49.56h23.27c1.12,0,2.1.41,2.92,1.23.82.82,1.23,1.79,1.23,2.92v1.69Z"/><path class="cls-1" d="M372.52,48.45c-.56.89-1.38,1.41-2.46,1.55h-.35c-.89,0-1.66-.33-2.32-.98l-4.71-4.92c-.75-.75-1.12-1.64-1.12-2.67,0-1.22.45-2.23,1.34-3.02,1.08-.98,2.2-2.11,3.38-3.38,1.08-1.12,3.14-3.56,6.19-7.31,3.05-3.75,5.25-6.4,6.61-7.95,2.86-3.23,5.74-4.85,8.65-4.85,2.44,0,4.92,1.2,7.45,3.59,2.01,1.92,4.86,5.05,8.54,9.39,3.68,4.34,5.82,6.83,6.43,7.49,4.78,5.2,9.49,9.98,14.13,14.34.89.89,1.34,1.97,1.34,3.23,0,1.03-.33,1.95-.98,2.74l-3.52,4.08c-.75.84-1.69,1.29-2.81,1.34h-.21c-1.03,0-1.92-.38-2.67-1.12-3.84-3.89-7.9-8.44-12.16-13.64-.94-1.17-3.01-3.73-6.22-7.66-3.21-3.94-5.45-6.63-6.71-8.09-1.08-1.12-1.97-1.69-2.67-1.69h-.14c-.75.05-1.62.68-2.6,1.9-1.31,1.69-4.59,6.28-9.84,13.78-.66.94-1.5,2.23-2.53,3.87Z"/></g></svg>