<?xml version="1.0" encoding="UTF-8"?><svg id="_レイヤー_2" xmlns="http://www.w3.org/2000/svg" viewBox="0 0 531.45 25.83"><defs><style>.cls-1{fill:#fff;stroke-width:0px;}.cls-2{fill:none;stroke:#fff;stroke-linecap:round;stroke-miterlimit:10;stroke-width:2px;}</style></defs><g id="_レイヤー_1-2"><path class="cls-1" d="M64.43,23.8l-.47-.23c-.03-.06-.07-.12-.12-.19s-.08-.13-.09-.21-.02-.16-.02-.23v-.26c.38-.97.77-1.94,1.2-2.91s.88-1.92,1.36-2.86.95-1.89,1.38-2.86.83-1.95,1.17-2.95c-.31,0-.62-.02-.91-.07s-.6-.09-.91-.12-.63-.05-.96-.05h-.96l-.7.05-.89-.05-.7.14c-.06-.03-.13-.05-.21-.07s-.16-.04-.23-.07-.15-.07-.21-.12-.12-.09-.19-.12c-.03-.06-.07-.12-.12-.19s-.08-.13-.09-.21-.02-.15-.02-.21v-.23l.23-.47c.16-.12.34-.2.54-.21s.41-.02.61-.02.41,0,.61-.02.41-.02.63-.02l.7.05,1.64-.05,2.91.33c.16-.41.31-.82.47-1.24s.33-.84.52-1.27.36-.84.52-1.27.34-.82.56-1.2c.06-.03.12-.07.19-.12s.13-.08.21-.09.15-.02.21-.02h.23l.47.23c.03.06.07.12.12.19s.08.13.09.21.02.16.02.23v.26l-1.64,4.22c.59.06,1.2.1,1.83.12s1.24.04,1.85.07,1.23.05,1.85.07,1.22.13,1.78.35c.03.06.07.12.12.19s.09.13.12.21.05.16.05.23v.26l-.23.47c-.09.06-.19.12-.28.16s-.19.07-.28.07h-.66c-.44-.09-.91-.14-1.41-.14s-.98-.02-1.45-.07-.95-.06-1.43-.05-.96,0-1.43-.07v.09l1.41,2.34c.47.78.94,1.57,1.41,2.37s.95,1.57,1.43,2.32,1.01,1.48,1.57,2.2l.42.66h.09c.06.09.12.18.19.26s.12.16.16.26.07.19.07.28v.33l-.23.47c-.06.03-.12.07-.19.12s-.13.08-.21.09-.15.02-.21.02h-.23l-.47-.23-.28-.33c-.59-.81-1.18-1.63-1.76-2.46s-1.12-1.67-1.62-2.53-1.02-1.73-1.55-2.6-1.09-1.72-1.69-2.53c-.34.97-.73,1.91-1.17,2.84s-.89,1.84-1.36,2.74-.9,1.82-1.29,2.74-.79,1.84-1.2,2.74c-.06.03-.12.07-.19.12s-.13.08-.21.09-.15.02-.21.02h-.23Z"/><path class="cls-1" d="M90.96,19.54c-.31-.03-.62-.07-.94-.12s-.63-.09-.96-.12-.64-.09-.94-.19-.55-.27-.77-.52c-.28-.34-.48-.73-.59-1.17s-.17-.88-.19-1.34-.02-.92-.02-1.41v-1.43l.05-.61h-.38c-.16.03-.3.05-.45.07s-.27.05-.4.09-.27.07-.42.07h-.47l-.47-.23c-.03-.06-.07-.12-.12-.19s-.08-.13-.09-.21-.02-.15-.02-.21v-.23l.23-.47c.16-.16.35-.24.59-.26s.45-.05.66-.09.41-.08.63-.09.44-.05.66-.12c.03-.31.06-.63.09-.96s.05-.66.05-1.01.02-.67.05-.98.12-.61.28-.89c.06-.03.12-.07.19-.12s.13-.08.21-.09.15-.02.21-.02h.23l.47.23c.06.06.11.13.14.21l.09.23c.03.08.05.16.05.26v.28c-.06.19-.09.4-.09.63v.7c0,.23-.02.46-.05.68s-.05.44-.05.66h.66l3.19-.19.47.23c.03.06.07.12.12.19s.08.13.09.21.02.15.02.21v.23l-.23.47c-.31.19-.65.29-1.01.3s-.72.04-1.08.07-.73.05-1.1.07-.75.02-1.12.02l-.05,3.75c.03.09.05.2.05.3s.02.21.05.3l.09.28c.03.09.08.19.14.28.19.09.4.15.63.16s.46.05.68.09.45.07.7.07.48.02.7.05l.42-.05.47.23c.03.06.07.12.12.19s.08.13.09.21.02.16.02.23v.26l-.23.47c-.09.06-.2.12-.3.16s-.22.08-.33.09-.23.02-.35.02h-.38ZM100.95,22.96l-.47-.23c-.06-.09-.12-.19-.16-.28s-.08-.19-.09-.28-.02-.2-.02-.3v-.35c.16-.97.31-1.93.47-2.88s.26-1.93.3-2.93.17-1.98.38-2.93.34-1.91.4-2.88c-.19-.09-.4-.16-.63-.21s-.46-.1-.68-.16-.45-.11-.68-.14-.46-.06-.68-.09l-1.12,3.19c-.38,1.06-.75,2.13-1.12,3.21s-.73,2.15-1.08,3.21-.7,2.11-1.08,3.14c-.06.03-.13.07-.21.12s-.16.08-.23.09-.15.02-.21.02h-.23l-.47-.23c-.03-.06-.07-.12-.12-.16s-.07-.11-.07-.19-.02-.15-.05-.21-.05-.12-.05-.19c.31-1.03.65-2.07,1.01-3.12s.71-2.09,1.05-3.14.71-2.08,1.1-3.09.73-2.05,1.01-3.12c-.25-.06-.51-.11-.77-.14s-.55-.05-.84-.05h-.89c-.3,0-.55-.08-.77-.23-.03-.06-.07-.12-.12-.19s-.08-.13-.09-.21-.02-.15-.02-.21v-.23l.23-.47c.16-.12.35-.2.59-.23s.46-.05.68-.05h1.36c.56.12,1.13.25,1.71.38s1.15.26,1.71.4,1.13.27,1.71.38,1.13.29,1.66.54c.06.09.12.2.16.33s.07.25.07.38v.8c-.09,1.06-.24,2.13-.45,3.21s-.34,2.15-.42,3.21-.2,2.12-.38,3.19-.35,2.11-.54,3.14c-.06.03-.12.07-.19.12s-.13.08-.21.09-.15.02-.21.02h-.23Z"/><path class="cls-1" d="M111.63,16.84l-.47-.23c-.09-.09-.16-.21-.19-.35s-.06-.27-.09-.4c.25-.91.52-1.8.82-2.67s.64-1.72,1.03-2.53l-1.43-.05-1.12.05-.47-.23c-.09-.12-.16-.26-.21-.4s-.05-.29-.02-.45l.23-.47c.34-.22.73-.32,1.15-.3s.84,0,1.24-.02l1.38.05c.16-.52.32-1.03.49-1.55s.41-1.01.73-1.48c.12-.09.26-.16.4-.21s.29-.05.45-.02l.47.23c.09.12.16.26.21.4s.05.3.02.49c-.16.34-.3.69-.45,1.03s-.26.71-.35,1.1h.8l.98-.05c.25.03.52.04.8.02s.53.07.75.26c.09.12.16.26.21.4s.05.29.02.45l-.23.47c-.22.16-.47.24-.75.26s-.56.02-.84.02l-.84-.05-1.59.05c-.44.97-.84,1.95-1.22,2.93s-.7,1.98-.98,2.98c-.14.09-.28.17-.42.23s-.3.08-.49.05ZM118.22,24.41c-.56-.06-1.09-.19-1.59-.38s-.94-.53-1.31-1.03c-.28-.25-.46-.55-.54-.89s-.13-.7-.16-1.08c.06-.42.16-.83.28-1.22s.34-.74.66-1.05c.5-.41,1.04-.71,1.62-.91s1.21-.29,1.9-.26l1.41.14v-1.64l-.33-2.53c.03-.12.07-.24.12-.35s.1-.21.16-.3c.12-.09.26-.16.4-.21s.29-.05.45-.02l.47.23c.22.81.38,1.64.47,2.48s.14,1.72.14,2.62c.34.06.69.13,1.03.21s.67.2.98.35c.11.12.2.26.26.4s.08.3.05.49l-.26.47c-.12.09-.27.16-.42.21s-.33.05-.52.02l-1.08-.28c-.03.67-.19,1.27-.47,1.8s-.62,1.05-1.03,1.55c-.34.41-.75.7-1.22.87s-.95.27-1.45.3ZM119.25,22.25c.25-.19.45-.4.59-.63s.29-.48.45-.73c.06-.22.13-.43.21-.64s.1-.44.07-.69l-2.3-.14c-.25.06-.5.15-.75.26s-.48.24-.7.4c-.09.19-.18.38-.26.57s-.12.4-.12.62c.03.19.11.36.23.52s.27.3.42.42c.22.09.44.18.66.26s.45.12.7.12l.8-.33ZM126.4,14.26c-.12-.03-.24-.07-.35-.12s-.21-.1-.3-.16c-.59-.66-1.18-1.3-1.77-1.92s-1.24-1.17-1.96-1.64l-.19-.19c-.09-.12-.16-.26-.21-.4s-.05-.29-.02-.45l.23-.47c.12-.09.26-.16.4-.21s.3-.05.49-.02l.56.33v.09l.38.19.66.52,2.7,2.67c.12.16.22.31.28.47s.08.34.05.56l-.23.47c-.09.09-.2.16-.33.19l-.38.09Z"/><path class="cls-1" d="M148.9,23.8c-.06-.03-.12-.05-.16-.07s-.1-.03-.16-.05-.12-.04-.16-.07-.1-.06-.16-.09c-.03-.06-.07-.12-.12-.19s-.08-.13-.09-.21-.02-.15-.02-.21v-.23c.06-.16.09-.34.09-.54v-1.71c-.03-.22-.09-.43-.19-.63s-.18-.41-.26-.61-.17-.41-.28-.61-.26-.38-.45-.54c-.25-.16-.51-.27-.77-.35s-.54-.16-.82-.23-.57-.12-.87-.14-.6-.02-.91-.02c.03.53.02,1.04-.02,1.52s-.15.95-.3,1.38-.34.88-.56,1.31-.5.84-.84,1.22c-.16.12-.3.24-.45.35s-.3.2-.47.26l-.52.19c-.17.06-.35.09-.54.09-.25-.03-.5-.07-.75-.12s-.48-.12-.7-.23-.44-.23-.66-.35-.42-.28-.61-.47c-.16-.22-.3-.44-.42-.66s-.23-.44-.33-.66-.16-.46-.19-.73-.06-.52-.09-.77c.06-.25.12-.49.16-.73s.12-.46.23-.68.23-.43.38-.63.29-.4.45-.59c.28-.28.59-.54.91-.77s.68-.4,1.05-.49.75-.17,1.12-.23.78-.08,1.22-.05v-1.12l-.14-3.14h-1.97l-.28.05c-.19-.03-.38-.05-.59-.05s-.4,0-.59-.02-.38-.04-.56-.07-.36-.11-.52-.23c-.03-.06-.07-.12-.12-.19s-.08-.13-.09-.21-.02-.15-.02-.21v-.23l.23-.47c.09-.06.18-.12.26-.16s.16-.07.26-.07h.61l1.36.09,1.92-.05v-.56c-.06-.16-.09-.31-.09-.47v-.49c0-.17-.02-.34-.05-.49s-.03-.33,0-.52c.03-.06.05-.12.07-.16s.03-.1.05-.16.04-.12.07-.16.06-.1.09-.16c.06-.03.12-.07.19-.12s.13-.08.21-.09.15-.02.21-.02h.23l.52.23c.16.22.23.46.23.73s0,.54.02.82.04.55.07.8.05.52.05.8c.38.03.74.06,1.1.09s.72.05,1.08.07.73.03,1.1.05.72.1,1.03.26c.03.06.07.12.12.19s.08.13.09.21.02.15.02.21v.23l-.23.47c-.09.06-.19.12-.28.16s-.19.08-.28.09-.2.02-.3.02h-.35l-3-.23v.42l.19,3.84c.41.03.82.06,1.24.09s.83.1,1.22.21.77.23,1.15.38.72.34,1.03.59l.47.52c.25.38.47.78.66,1.22s.34.88.45,1.34.16.92.16,1.41v1.48c-.03.06-.05.13-.07.21l-.05.23c-.02.08-.05.16-.09.23s-.09.15-.12.21c-.06.03-.12.06-.16.09s-.1.06-.16.09-.12.05-.19.05-.12.02-.19.05ZM140.51,21.46c.25-.28.45-.59.59-.91s.27-.66.4-1.01.19-.71.19-1.1v-1.15h-1.08c-.19.03-.38.08-.56.14s-.37.12-.54.19-.33.16-.47.3-.29.27-.45.4c-.06.16-.14.3-.23.42s-.17.27-.23.42-.11.31-.14.47-.03.33,0,.52l.52,1.12c.12.03.24.08.35.14l.33.19c.11.06.23.1.35.12s.27.02.42.02l.56-.28ZM151.06,17.52l-.47-.23c-.19-.38-.34-.77-.45-1.2s-.19-.87-.23-1.34-.11-.92-.19-1.36-.15-.88-.21-1.31l.23-.47c.06-.03.12-.07.19-.12s.13-.08.21-.09.15-.02.21-.02h.23l.47.23c.19.38.33.78.42,1.22s.16.89.19,1.36.11.91.23,1.31.2.84.23,1.31l-.23.47c-.06.03-.12.07-.19.12s-.13.08-.21.09-.15.02-.21.02h-.23Z"/><path class="cls-1" d="M166.67,24.22l-.52-.23c-.03-.06-.07-.13-.12-.21s-.08-.16-.09-.26-.02-.19-.02-.28v-.28c.06-.38.12-.76.19-1.15s.12-.77.19-1.15.12-.76.19-1.15.09-.79.09-1.2l-.23-3.28c-.41-.03-.82-.05-1.24-.07s-.84-.05-1.24-.09-.83-.06-1.27-.05-.86.02-1.27.02l-2.11.09-.23-.05-.56.05-.47-.23c-.03-.06-.07-.13-.12-.21s-.08-.16-.09-.23-.02-.15-.02-.21v-.23l.23-.47c.09-.06.2-.12.3-.16s.22-.09.33-.12.23-.05.35-.05h.38l.75.05,3.7-.09c.19.03.38.05.59.07s.4.03.59.05.39.02.61.02h.61v-.19l-.33-.98c.12-.44.34-.84.66-1.2s.64-.71.98-1.05.65-.7.91-1.08.52-.75.77-1.12l-2.16-.19-2.16-.19c-.72-.06-1.45-.07-2.18-.02s-1.43-.05-2.09-.3c-.03-.06-.07-.12-.12-.19s-.08-.13-.09-.21-.02-.15-.02-.21v-.23l.23-.47c.28-.19.61-.27.98-.26s.73.02,1.08.02h2.16c.56.09,1.13.16,1.71.21s1.15.09,1.71.14,1.13.09,1.71.12,1.13.16,1.66.38c.03.06.07.12.12.19s.08.13.09.21.02.15.02.21v.23c-.12.31-.3.59-.52.84s-.43.52-.63.8-.4.55-.59.82-.38.54-.56.82l-1.5,1.64-.19.14v.14l.23,1.12c.62,0,1.24.02,1.85.07s1.21.1,1.8.16,1.2.09,1.83.09,1.2.14,1.73.42c.03.06.07.12.12.19s.08.14.09.23.02.17.02.23v.23l-.23.47c-.06.03-.13.07-.21.12s-.16.08-.23.09-.16.02-.23.02h-.26c-.5-.06-1.01-.11-1.52-.14s-1.02-.08-1.52-.14-1-.11-1.5-.14-1.02-.05-1.55-.05v.98c.03.22.05.45.07.7s.02.5.02.75,0,.49.02.73.02.48.02.73c-.06.41-.12.82-.16,1.24s-.11.84-.19,1.27-.14.84-.19,1.27-.16.82-.35,1.2c-.06.03-.12.07-.19.12s-.13.08-.21.09-.15.02-.21.02h-.23ZM166.2,13.11l-.05-.05-.05.05.05.05.05-.05Z"/><path class="cls-1" d="M192.73,16.58l-.47-.23c-.19-.44-.37-.9-.54-1.38s-.34-.96-.52-1.43-.32-.95-.45-1.43-.22-.98-.28-1.48h-.66c-.47.06-.94.1-1.41.12s-.93.05-1.38.09-.91.11-1.36.19-.91.12-1.38.12l-.47-.23c-.03-.06-.07-.12-.12-.19s-.08-.13-.09-.21-.02-.15-.02-.21v-.23l.23-.47c.47-.19.96-.3,1.48-.35s1.03-.12,1.55-.21,1.04-.14,1.57-.14,1.06-.03,1.59-.09v-.23c-.03-.22-.09-.43-.19-.63s-.16-.41-.21-.63-.07-.45-.07-.68-.02-.46-.05-.68l.23-.47c.06-.03.12-.07.19-.12s.13-.08.21-.09.16-.02.23-.02h.26l.47.23c.16.22.24.47.26.75s.07.55.16.82.17.53.23.8.11.54.14.82h.09c.31-.09.64-.15.98-.16s.69-.04,1.03-.07.67-.08.98-.14.64-.11.98-.14l.47.23c.03.06.07.12.12.19s.08.13.09.21.02.16.02.23v.26l-.23.47c-.28.19-.6.3-.96.33s-.71.08-1.05.14-.7.1-1.05.12-.73.04-1.1.07v.19c.09.44.21.88.35,1.31s.29.87.45,1.29.31.86.47,1.31.25.91.28,1.38l-.23.47c-.06.03-.12.07-.19.12s-.13.08-.21.09-.15.02-.21.02h-.23ZM192.73,23.66c-.69-.16-1.38-.37-2.06-.63s-1.35-.58-1.99-.94-1.24-.76-1.8-1.2-1.11-.92-1.64-1.45c-.09-.12-.2-.26-.33-.4s-.25-.27-.38-.4-.22-.27-.28-.42-.08-.33-.05-.52l.23-.47c.06-.03.12-.07.19-.12s.13-.08.21-.09.15-.02.21-.02h.23l.47.23c.28.38.59.74.94,1.1s.7.68,1.08.96.76.55,1.15.8.79.48,1.2.7c.31.09.6.2.87.33s.55.24.84.35.59.2.89.26.57.17.82.33c.03.06.07.12.12.19s.08.13.09.21.02.15.02.21v.23l-.23.47c-.06.03-.12.07-.19.12s-.12.08-.19.09-.13.02-.21.02-.15.02-.21.05Z"/><path class="cls-1" d="M219.31,23.38c-.22-.06-.43-.12-.63-.16s-.39-.12-.56-.23-.34-.24-.52-.4-.34-.31-.49-.47c-.28-.38-.51-.77-.68-1.17s-.29-.84-.35-1.31-.16-.92-.3-1.36-.37-.83-.68-1.17c-.16-.12-.32-.24-.49-.35s-.34-.2-.52-.26-.35-.11-.54-.14-.39-.03-.61,0c-.19.06-.38.09-.56.09s-.36.05-.52.14-.31.2-.47.3-.31.23-.47.35c-.16.47-.31.95-.47,1.43s-.33.95-.52,1.41-.34.93-.47,1.43-.3.97-.52,1.41c-.06.03-.12.07-.19.12s-.13.08-.21.09-.16.02-.23.02h-.26l-.47-.23c-.03-.06-.07-.12-.12-.19s-.08-.13-.09-.21-.02-.15-.02-.21v-.23c.41-1.25.82-2.49,1.24-3.73s.83-2.48,1.22-3.75.83-2.51,1.31-3.73.95-2.44,1.38-3.66c.06-.03.12-.07.19-.12s.13-.08.21-.09.15-.02.21-.02h.23l.47.23c.03.06.07.13.12.21s.08.16.09.26.02.19.02.28v.28c-.12.56-.3,1.1-.52,1.62l-.66,1.55c-.22.52-.41,1.03-.59,1.55s-.34,1.07-.49,1.66h.7c.09-.03.2-.06.3-.09s.22-.05.33-.05h.63c.19.09.39.16.61.19s.41.09.59.19.34.2.52.3.34.21.49.3v.09l.42.23v.09h.09c.31.41.58.82.8,1.24s.36.88.42,1.38.16.98.3,1.45.4.89.77,1.27c.09.06.19.12.28.16s.19.09.28.12.19.05.28.05h.33c.06-.06.14-.09.23-.09s.18-.02.26-.07l.23-.14c.08-.05.15-.1.21-.16l.56-.98c.06-.03.12-.07.19-.12s.13-.09.21-.12.16-.05.23-.05h.26l.47.23c.03.06.07.12.12.19s.08.13.09.21.02.16.02.23v.26c-.06.12-.12.26-.19.4s-.13.27-.21.4-.16.25-.26.38-.17.25-.23.38h-.09v.09c-.22.12-.43.24-.63.35s-.42.2-.66.28-.47.13-.7.16-.49.03-.77,0Z"/><path class="cls-1" d="M237.14,24.18c-.53-.06-1.04-.18-1.52-.35s-.91-.46-1.29-.87c-.28-.34-.46-.73-.54-1.15s-.12-.88-.12-1.36c.03-.59.18-1.14.45-1.64s.6-.97,1.01-1.41c.25-.16.47-.35.66-.59s.36-.45.52-.63c-.38-.22-.79-.34-1.24-.38s-.87-.14-1.24-.33c-.09-.12-.16-.26-.21-.4s-.05-.3-.02-.49c.19-.69.4-1.37.63-2.04s.46-1.35.68-2.04l-1.64-.05-.47.09-.77-.09-.7.05-.47-.23c-.09-.12-.16-.26-.21-.4s-.05-.29-.02-.45l.23-.47c.22-.19.48-.29.8-.3s.63-.02.96-.02l.52.05,1.27-.05.98.05.23-.05c.19-.48.34-.98.47-1.48s.3-.98.52-1.45c.12-.09.26-.16.4-.21s.29-.05.45-.02l.47.23c.09.12.16.26.21.4s.05.3.02.49l-.61,2.13c.91.03,1.82.05,2.74.05s1.8.12,2.65.38c.09.12.16.26.21.4s.05.29.02.45l-.23.47c-.12.09-.27.16-.45.21s-.35.07-.54.07c-.5-.06-1.01-.1-1.52-.12s-1.02-.04-1.52-.07h-2.11c-.12.59-.3,1.17-.52,1.73s-.41,1.14-.56,1.73c.44.16.88.3,1.31.42l1.31.38c.5-.28,1-.55,1.5-.82s1.03-.45,1.59-.54l.47.23c.09.12.16.26.21.4s.05.29.02.45l-.23.47-1.97.98v.14l.28.23.56.89h.09c.16.19.29.38.4.59s.15.43.12.68l-.23.47c-.12.09-.26.16-.4.21s-.29.05-.45.02l-.52-.28-1.08-1.41-.42-.42h-.14c-.47.44-.95.88-1.43,1.34s-.85.96-1.1,1.52l-.09,1.01.23.84c.25.12.5.23.75.33s.52.16.8.19h2.62l1.97-.14.47.23c.09.12.16.26.21.4s.05.3.02.49l-.23.47c-.12.09-.27.16-.45.21s-.34.09-.49.12l-.47-.05-.98.09h-2.81Z"/><path class="cls-1" d="M254.88,25.11l-.47-.23c-.09-.12-.16-.27-.21-.42s-.07-.32-.07-.49v-1.01c.06-1,.12-2,.16-3s.09-2.01.14-3.02.12-2.03.21-3.05.17-2.02.23-3.02h-.09l-2.02,3.33h-.09v.09c-.06.03-.12.07-.19.12s-.13.09-.21.12-.15.05-.21.05h-.23l-.47-.28c-.03-.06-.07-.12-.12-.19s-.08-.13-.09-.21-.02-.16-.02-.23v-.26c.5-.84,1.02-1.69,1.55-2.53s1.1-1.66,1.71-2.44,1.19-1.59,1.73-2.41,1.12-1.63,1.71-2.41c.06-.03.12-.07.19-.12s.13-.09.21-.12.16-.05.23-.05h.26l.47.23c.03.06.07.12.12.19s.08.13.09.21.02.15.02.21v.23c-.16.34-.38.67-.66.98s-.52.65-.7,1.01-.41.7-.68,1.01-.46.66-.59,1.03l.05.75c-.09,1.31-.2,2.62-.33,3.94s-.21,2.62-.26,3.94l-.14,3.94c-.05,1.31-.18,2.61-.4,3.89-.06.03-.12.07-.19.12s-.13.08-.21.09-.15.02-.21.02h-.23ZM269.42,25.44l-.47-.23c-.03-.06-.07-.12-.12-.19s-.08-.13-.09-.21-.03-.15-.05-.21-.02-.14-.02-.23c.06-.28.12-.57.19-.87s.1-.6.12-.91.05-.62.09-.94.05-.62.02-.94l-.42-.33-.8-.09c-.16.31-.29.63-.4.96s-.21.66-.3.98-.2.66-.3.98-.24.65-.4.96c-.06.03-.12.07-.19.12s-.13.08-.21.09-.15.02-.21.02h-.23l-.47-.23c-.03-.06-.07-.13-.12-.21s-.08-.16-.09-.23-.02-.16-.02-.23v-.26l1.03-3.28-1.27-.19-.05.09c-.09.03-.16.08-.19.14s-.08.12-.14.19-.11.12-.14.19l-.09.19c-.09.25-.2.5-.33.75s-.25.49-.38.73l-.38.7c-.12.23-.25.48-.38.73-.06.03-.13.07-.21.12s-.16.08-.23.09-.15.02-.21.02h-.23l-.47-.23c-.03-.06-.07-.13-.12-.21s-.08-.16-.09-.23-.02-.16-.02-.23v-.26l1.55-3.19-1.03-.14c-.22.25-.42.51-.61.77s-.39.52-.61.77-.41.51-.56.77-.33.54-.52.82c-.06.03-.12.07-.19.12s-.13.08-.21.09-.15.02-.21.02h-.23l-.47-.23c-.03-.06-.07-.12-.12-.19s-.08-.13-.09-.21-.02-.16-.02-.23v-.26c.19-.34.38-.68.59-1.01s.44-.65.7-.96.52-.63.77-.96.48-.65.7-.96c-.22.03-.42.02-.61-.02s-.39-.07-.61-.07-.43-.02-.63-.05-.38-.11-.54-.23c-.03-.06-.07-.12-.12-.19s-.08-.13-.09-.21-.02-.15-.02-.21v-.23l.23-.47c.09-.09.2-.16.33-.19s.26-.05.4-.05h.82l.94.09c.19-.03.37-.05.54-.07s.36-.02.56-.02h1.2c.72.09,1.45.14,2.18.14s1.47.02,2.2.07,1.47.06,2.2.05,1.45.09,2.13.3c.03.06.07.12.12.19s.08.13.09.21.02.15.02.21v.23l-.23.47c-.09.06-.19.12-.28.16s-.19.08-.28.09-.2.02-.3.02h-.35c-.53-.09-1.07-.12-1.62-.09s-1.09.02-1.62-.02-1.07-.07-1.62-.07h-1.62v.09c.56.12,1.12.25,1.66.38s1.1.23,1.66.3,1.12.15,1.69.21,1.06.31,1.5.75c.12.16.23.32.3.49s.13.36.16.56.05.41.05.61v.63c-.06.28-.09.59-.09.91s-.04.63-.12.91-.13.58-.16.89-.12.59-.28.84c-.06.03-.12.07-.19.12s-.13.08-.21.09-.15.02-.21.02h-.23ZM258.87,10.77l-.47-.23c-.03-.06-.07-.12-.12-.16s-.07-.11-.07-.19-.02-.15-.05-.21-.05-.12-.05-.19c.03-.06.05-.12.07-.16s.03-.1.05-.16.04-.12.07-.16.06-.1.09-.16l.14-.09c.25-.5.49-1,.73-1.5s.48-1,.73-1.5.52-.99.82-1.48.59-.98.87-1.48c.06-.03.12-.07.19-.12s.13-.08.21-.09.15-.02.21-.02h.28l.47.23c.03.06.07.12.12.19s.08.13.09.21.02.16.02.23v.26l-.66,1.31c.75.06,1.51.12,2.27.19s1.52.12,2.27.19,1.51.12,2.27.19,1.51.2,2.23.42c.03.06.07.12.12.19s.08.13.09.21.02.15.02.21v.23l-.23.47c-.06.03-.12.07-.19.12s-.13.08-.21.09l-.23.05c-.08.02-.16.02-.26.02-.69-.09-1.38-.18-2.09-.26s-1.41-.14-2.11-.19-1.41-.1-2.11-.16-1.43-.11-2.18-.14l-.84.09c-.12.28-.25.55-.38.82s-.25.54-.38.82-.27.55-.42.82-.31.52-.47.77h-.09v.09c-.06.03-.12.07-.19.12s-.13.08-.21.09-.15.02-.21.02h-.23ZM266.32,15.46c-.38-.06-.75-.11-1.12-.14s-.77-.05-1.17-.05-.8,0-1.2-.02-.79-.02-1.2-.02l-.89.05c-.06-.03-.12-.05-.16-.07s-.1-.03-.16-.05-.12-.04-.16-.07-.1-.06-.16-.09c-.03-.06-.07-.12-.12-.19s-.08-.14-.09-.23-.02-.17-.02-.23v-.23l.23-.47h.09c.06-.47.16-.93.3-1.38s.24-.91.3-1.38.17-.92.33-1.36.34-.86.56-1.27c.16-.06.3-.14.42-.23s.27-.16.42-.21.33-.07.52-.07h.52c.56,0,1.1.05,1.62.16s1.05.19,1.59.23,1.09.14,1.62.28,1.02.35,1.45.63c.09.12.16.25.21.38s.07.27.07.42v.94l-.05.47.14,3.05-.23.52-.61.52c-.25.06-.5.1-.75.12s-.5.02-.75.02h-1.55ZM268.34,13.58v-.66c-.5-.06-.98-.16-1.43-.28s-.94-.2-1.45-.21-1.02-.04-1.52-.07-1.02-.08-1.55-.14l-.28,1.12c.53.06,1.06.08,1.59.05s1.05-.02,1.55.05,1.01.11,1.52.14,1.04.03,1.57,0ZM268.24,11.05v-.23l.05-.52c-.41-.16-.83-.26-1.27-.3s-.88-.1-1.31-.16-.87-.12-1.29-.19-.87-.09-1.34-.09c0,.09,0,.17-.02.23s-.04.12-.07.19-.07.13-.12.21-.07.15-.07.21c.44.09.89.15,1.36.16s.93.04,1.38.07.91.09,1.36.16.9.16,1.34.26Z"/><path class="cls-1" d="M288.59,21.93c-.06-.03-.12-.05-.16-.07s-.1-.03-.16-.05-.12-.04-.16-.07-.1-.06-.16-.09c-.03-.06-.07-.12-.12-.19s-.08-.13-.09-.21-.02-.15-.02-.21v-.23l.23-.47c.25-.16.51-.28.77-.38l.8-.28c.27-.09.52-.22.75-.38s.46-.34.68-.56c.12-.19.26-.38.4-.59s.26-.41.35-.61.15-.43.16-.68.02-.5.02-.75c-.03-.28-.07-.55-.12-.82s-.12-.52-.21-.77-.22-.48-.38-.7-.33-.44-.52-.66c-.38-.31-.77-.55-1.2-.73s-.87-.3-1.34-.4-.95-.15-1.45-.16-1-.02-1.5-.02c-.56.06-1.12.14-1.66.23s-1.09.18-1.64.26-1.09.2-1.62.35-1.06.3-1.59.42l-.47-.23c-.03-.06-.07-.12-.12-.19s-.08-.13-.09-.21-.02-.15-.02-.21v-.23l.23-.47c.66-.41,1.36-.68,2.11-.82s1.51-.27,2.27-.38,1.53-.21,2.3-.3,1.55-.11,2.37-.05c.41.09.82.18,1.24.26s.83.16,1.22.26.77.27,1.12.52.71.48,1.05.7c.31.38.61.76.89,1.15s.48.83.61,1.31.21.97.26,1.45.07.98.07,1.48c-.06.28-.13.56-.21.84s-.2.55-.35.8-.32.49-.49.73-.37.46-.59.68c-.28.19-.55.39-.8.61s-.53.38-.84.47-.62.21-.91.35-.6.24-.91.3Z"/><path class="cls-1" d="M304.06,22.3c-.06-.03-.13-.05-.21-.07s-.14-.04-.19-.07-.1-.06-.16-.09-.12-.08-.19-.14c-.16-.19-.26-.4-.3-.63s-.08-.47-.09-.7-.03-.48-.05-.73-.04-.48-.07-.7v-4.92c.06-.47.09-.95.09-1.45s0-1,.02-1.5.04-.99.07-1.48.14-.95.33-1.38c.06-.03.12-.07.19-.12s.13-.08.21-.09.15-.02.21-.02h.23l.47.23c.06.09.12.19.16.28s.07.2.07.3v.68c-.06.38-.1.75-.12,1.12s-.02.76-.02,1.15,0,.77-.02,1.15-.04.75-.07,1.12v4.92l.09.66h.09l.61-.7c.06-.03.12-.07.19-.12s.13-.08.21-.09.15-.02.21-.02h.23l.47.23c.03.06.07.13.12.21s.08.16.09.23.02.16.02.23v.26l-.23.47-.47.47c-.16.16-.32.3-.49.45s-.35.27-.54.4-.38.23-.56.33l-.61.14ZM314.84,23.19l-.47-.23c-.09-.12-.16-.25-.21-.38s-.07-.26-.07-.4v-.45c0-.16-.02-.3-.05-.42l.05-.05v-5.95l.19-4.03c-.47-.03-.95-.08-1.43-.14s-.97-.1-1.45-.12-.97-.07-1.45-.16-.95-.22-1.38-.38c-.03-.06-.07-.12-.12-.19s-.08-.13-.09-.21-.02-.15-.02-.21v-.23l.23-.47c.09-.06.19-.12.28-.16s.19-.07.28-.07h.66c.34.12.71.2,1.1.23s.78.05,1.17.07.77.05,1.15.12.75.09,1.12.09v-.82c0-.27,0-.53.02-.8l.05-.8c.02-.27.1-.51.26-.73.06-.03.12-.07.19-.12s.13-.08.21-.09.15-.02.21-.02h.23l.47.23c.06.09.12.2.16.3s.07.22.07.33v.73l-.05,1.92c.31.03.63.07.96.12s.65.1.96.16.64.09.98.09.64.11.89.33c.03.06.07.12.12.19s.08.13.09.21.02.15.02.21v.23l-.23.47c-.06.03-.12.07-.19.12s-.13.08-.21.09-.16.02-.23.02h-.26l-2.95-.42c-.03.31-.05.62-.07.94s-.03.63-.05.96-.02.66-.02,1.01-.02.67-.05.98v5.95l-.05.19.09.98-.28.52c-.06.03-.12.07-.19.12s-.13.08-.21.09-.15.02-.21.02h-.23Z"/><path class="cls-1" d="M336.96,22.96c-.31-.06-.62-.13-.91-.21s-.59-.18-.87-.3-.57-.26-.87-.4-.57-.3-.82-.49c-.28-.34-.52-.71-.7-1.1s-.34-.79-.47-1.2-.19-.84-.19-1.29v-1.38c.12-.53.27-1.05.45-1.57s.39-1.01.66-1.48.56-.93.89-1.38.7-.88,1.1-1.29l.38-.38.33-.33-1.69-.14h-5.34l-.23.05-1.22-.05-.47.05-.47-.23c-.03-.06-.07-.12-.12-.19s-.08-.13-.09-.21-.02-.15-.02-.21v-.23l.23-.47c.16-.12.32-.21.49-.26s.35-.07.54-.07h1.17l.14.05.05-.05h5.34c.47.06.94.1,1.41.12s.93.05,1.38.09.91.06,1.38.05.91.09,1.31.3c.03.06.07.12.12.19s.08.13.09.21.02.15.02.21v.23l-.23.47c-.22.12-.43.25-.63.38s-.41.23-.63.33-.44.2-.66.33-.42.28-.61.47l-.05.09c-.28.19-.55.4-.8.63s-.46.49-.63.77-.35.56-.54.84-.34.58-.47.89c-.09.28-.2.56-.33.84s-.23.56-.33.84-.12.59-.09.94.03.67,0,.98l.19.47c.06.16.13.3.21.45s.15.29.21.45.14.3.23.42c.22.12.45.24.7.35s.5.21.75.3.51.17.77.23.54.08.82.05l.89-.05.47.23c.03.06.07.12.12.19s.08.13.09.21.02.15.02.21v.23l-.23.47c-.16.12-.33.2-.52.23s-.38.05-.56.07-.38.02-.59.02h-.59Z"/><path class="cls-1" d="M358.9,22.91c-.41-.09-.8-.18-1.2-.26s-.76-.2-1.1-.38-.66-.41-.96-.7l-.91-.91c-.72-.75-1.23-1.59-1.55-2.53s-.52-1.91-.63-2.91-.17-2-.19-3-.02-2-.02-3c.06-.25.11-.5.14-.75s.07-.5.12-.75.08-.51.09-.77.1-.49.26-.68c.06-.03.12-.07.19-.12s.13-.08.21-.09.15-.02.21-.02h.23l.47.23c.06.09.12.19.16.28s.07.2.07.3v.68c-.09.41-.17.82-.23,1.24s-.09.86-.09,1.31v2.7c.06.72.12,1.43.19,2.13s.19,1.39.38,2.06.48,1.3.89,1.88.89,1.1,1.45,1.57c.16.12.32.22.49.28s.35.12.54.19.38.11.59.14.41.05.63.05.43-.03.63-.09l.61-.19c.2-.06.39-.17.56-.33s.34-.31.49-.47l1.36-1.92c.06-.03.12-.07.19-.12s.13-.08.21-.09.15-.02.21-.02h.23l.47.23c.03.06.07.13.12.21s.08.16.09.23.02.16.02.23v.26l-.23.47h-.09c-.12.19-.25.38-.38.59s-.27.4-.42.59-.3.38-.45.56-.3.36-.49.52c-.25.22-.51.41-.77.56s-.55.27-.87.35-.62.14-.94.19-.64.07-.98.07Z"/><path class="cls-1" d="M379.71,24.18c-.22-.06-.44-.12-.66-.16s-.42-.12-.61-.23-.37-.24-.54-.4-.35-.31-.54-.47l-.38-.47c-.12-.16-.22-.32-.28-.49s-.12-.35-.16-.54-.05-.39-.02-.61c.06-.22.11-.44.14-.66s.1-.42.21-.61.25-.37.42-.54.34-.35.49-.54c.22-.16.45-.3.68-.45s.48-.24.75-.3.55-.09.84-.07.59.02.87.02l1.69.19v-.23l-.09-2.39c-.41,0-.77-.02-1.1-.05s-.67-.05-1.03-.05-.71-.02-1.05-.07-.69-.07-1.03-.07l-.8.05c-.06-.03-.12-.05-.16-.07s-.1-.03-.16-.05-.12-.04-.16-.07-.1-.06-.16-.09c-.03-.06-.07-.13-.12-.21s-.08-.16-.09-.23-.02-.15-.02-.21v-.23l.23-.47c.12-.12.28-.2.47-.21s.38-.02.59-.02.4,0,.59-.02.38-.02.56-.02c.25.06.52.1.82.12s.59.03.87.05l.84.05c.28.02.59.02.94.02v-.19l-.14-3.56-3.94-.05-.42.05c-.06-.03-.13-.05-.21-.07l-.23-.05c-.08-.02-.15-.05-.21-.09s-.12-.09-.19-.12c-.03-.06-.07-.12-.12-.19s-.08-.13-.09-.21-.02-.15-.02-.21v-.23l.23-.47c.06-.03.13-.07.21-.12s.16-.08.23-.09.16-.02.26-.02h.28l.19.05,2.72-.05,1.31.05v-1.73l-.09-.38c.03-.06.05-.12.07-.16s.04-.1.07-.16.06-.12.09-.16.06-.1.09-.16c.06-.03.12-.07.19-.12s.13-.08.21-.09.15-.02.21-.02h.23l.47.23c.12.19.21.4.26.63s.07.48.07.75v1.52l1.83.05.94-.05c.06.03.14.05.23.07l.28.05c.09.02.18.05.26.09s.15.09.21.12c.03.06.07.12.12.19s.08.13.09.21.02.16.02.23v.26l-.23.47c-.06.03-.12.07-.19.12s-.13.08-.21.09-.16.02-.23.02h-.26l-.94-.09-.28.05-1.64-.05v.66l.09,2.91h1.36l1.03-.05c.06.03.15.05.26.05s.21,0,.3.02.18.05.26.09.15.09.21.12c.03.06.07.12.12.19s.08.13.09.21.02.15.02.21v.23l-.23.52c-.09.06-.18.11-.26.14s-.16.05-.26.07l-.28.05c-.09.02-.19.02-.28.02l-.94-.05-1.41.05v.7l.09,2.25c.31.03.62.09.91.19s.6.19.91.28.62.17.94.23.59.19.84.38c.03.06.07.12.12.19s.09.13.12.21.05.16.05.23v.26l-.23.47c-.06.03-.12.07-.19.12s-.13.08-.21.09-.16.02-.23.02h-.26c-.22-.12-.46-.2-.73-.23s-.51-.09-.73-.19-.45-.17-.7-.23l-.75-.19c-.03.25-.06.51-.09.77s-.1.52-.21.77-.23.48-.35.7-.27.44-.42.66l-.14.14-.23.23c-.22.16-.46.29-.73.4s-.52.22-.77.33-.51.18-.77.21-.55.03-.87,0ZM381.45,21.93l.14-.05v-.09c.09-.06.17-.13.23-.21s.12-.16.16-.26l.14-.28c.05-.09.1-.19.16-.28l.19-1.08c-.28,0-.53-.02-.75-.05l-.66-.09c-.22-.03-.45-.05-.68-.05h-.73c-.06.03-.14.06-.23.09s-.18.07-.26.12-.15.1-.21.16l-.19.19c-.06.09-.12.17-.19.23s-.11.14-.14.23-.05.19-.07.28-.02.19-.02.28l.28.56c.16.06.3.16.42.3s.26.23.4.28.3.08.47.09.35.02.54.02l.98-.42Z"/><path class="cls-1" d="M405.87,23.75c-.06-.03-.12-.05-.16-.07s-.1-.03-.16-.05-.12-.04-.16-.07-.1-.06-.16-.09c-.03-.06-.07-.12-.12-.19s-.08-.13-.09-.21-.02-.15-.02-.21v-.23l.28-.52c.22-.16.45-.3.68-.42s.47-.28.7-.47.46-.37.68-.54.42-.35.61-.54c.12-.06.25-.14.38-.23s.23-.2.33-.3.18-.23.26-.35.15-.25.21-.38c.03-.22.09-.43.19-.63s.17-.41.23-.63.09-.45.07-.7-.02-.5-.02-.75c-.06-.22-.12-.43-.16-.63s-.11-.4-.19-.59-.16-.38-.26-.59-.22-.38-.38-.54l-.47-.33c-.03-.09-.09-.16-.16-.19s-.16-.08-.23-.14-.16-.11-.26-.14-.17-.08-.23-.14c-.19-.03-.38-.07-.56-.12s-.37-.09-.54-.14-.36-.07-.56-.07h-.59c-.31.06-.62.11-.94.14s-.62.09-.91.16-.6.13-.91.16l-.94.09-.47-.23c-.03-.06-.07-.12-.12-.19s-.08-.13-.09-.21-.02-.15-.02-.21v-.23l.23-.47c.38-.25.79-.39,1.24-.42s.9-.09,1.34-.19.88-.16,1.34-.19.91-.05,1.38-.05c.31.06.61.13.89.21s.55.16.82.23.52.19.77.33.5.3.75.49c.16.16.33.32.52.49s.34.36.47.56.23.41.33.61.2.41.33.63c.06.25.12.51.19.77s.12.52.19.77.09.52.07.82-.02.59-.02.87c-.03.31-.1.6-.21.87s-.2.55-.28.84-.2.57-.35.82-.33.5-.52.75l-.33.33-.28.14v.09l-.28.14v.09c-.12.09-.25.18-.38.26s-.25.17-.38.28-.24.22-.35.33l-.3.3c-.16.09-.3.19-.45.28s-.29.19-.45.28-.31.18-.47.26-.33.13-.52.16ZM405.92,10.07l-.47-.23c-.22-.38-.4-.76-.54-1.15s-.27-.79-.4-1.2-.28-.8-.47-1.17-.31-.78-.38-1.22l.23-.47c.06-.03.12-.07.19-.12s.13-.08.21-.09.15-.02.21-.02h.23l.47.23c.25.34.46.71.63,1.1s.32.79.45,1.2.27.8.45,1.2.27.8.3,1.24l-.23.47c-.06.03-.12.07-.19.12s-.13.08-.21.09-.15.02-.21.02h-.28Z"/><path class="cls-1" d="M438.26,9.88c-.41-.09-.82-.15-1.24-.16s-.85-.02-1.29-.02-.87,0-1.29-.02-.85-.04-1.29-.07h-7.12c-.34-.03-.7-.05-1.05-.05s-.71-.02-1.05-.05-.69-.05-1.03-.05-.66-.11-.94-.33c-.03-.06-.07-.12-.12-.19s-.08-.13-.09-.21-.02-.15-.02-.21v-.23l.23-.47c.06-.03.12-.07.19-.12s.13-.08.21-.09.16-.02.23-.02h.26c.28,0,.56.02.84.07s.56.07.84.07h.87c.3,0,.59.02.87.05v-.23c-.12-.25-.23-.51-.3-.77l-.23-.8c-.08-.27-.19-.52-.33-.75s-.21-.51-.21-.82c.03-.06.05-.12.07-.16s.03-.1.05-.16.04-.12.07-.16.06-.1.09-.16c.06-.03.12-.07.19-.12s.13-.08.21-.09.15-.02.21-.02h.23l.47.23c.16.31.3.63.42.96s.24.66.35,1.01.23.69.35,1.03.22.69.28,1.03h4.22c.09-.34.2-.68.3-1.01s.2-.66.26-1.01.14-.68.23-1.01.23-.63.42-.91c.06-.03.12-.07.19-.12s.13-.08.21-.09.15-.02.21-.02h.23l.47.23c.03.06.07.12.12.19s.08.13.09.21.02.16.02.23v.26c-.09.25-.18.5-.26.75s-.15.51-.21.77-.12.53-.16.8-.12.52-.21.77c.44.03.88.04,1.34.02s.9,0,1.34.05.88.09,1.31.12.86.12,1.27.28c.03.06.07.12.12.19s.09.13.12.21.05.16.05.23v.26l-.23.47c-.09.06-.2.12-.3.16s-.22.07-.33.07h-.73ZM422.88,24.93l-.47-.23c-.03-.06-.07-.13-.12-.21s-.08-.16-.09-.23l-.05-.23c-.02-.08-.02-.16-.02-.26.12-1.03.23-2.07.33-3.12l.28-3.14c.09-1.05.21-2.09.35-3.14s.3-2.09.49-3.12c.22-.16.47-.23.75-.23h2.58c.22.03.45.05.7.05s.49,0,.73.02.45.07.66.16.4.19.59.28c.22.22.32.49.3.82s-.02.66-.02.98,0,.66.02.98.02.65.02.96l-.05,3.05c.06.47.1.95.12,1.43s.02.97.02,1.45.02.97.05,1.45.06.96.09,1.43l-.23.47c-.06.03-.12.07-.19.12s-.13.08-.21.09-.15.02-.21.02h-.23l-.47-.23c-.19-.31-.3-.65-.33-1.01s-.05-.73-.05-1.1,0-.75-.02-1.12-.02-.75-.02-1.12h-.38c-.22.06-.45.09-.7.09h-2.2l-.56-.05c-.03.38-.07.75-.12,1.12l-.14,1.12c-.05.38-.07.76-.07,1.15s-.09.74-.28,1.05c-.06.03-.12.07-.19.12s-.13.08-.21.09-.15.02-.21.02h-.23ZM428.04,18.36v-1.36c-.28-.06-.56-.1-.84-.12s-.55-.05-.82-.12-.54-.12-.82-.16-.58-.05-.89-.02l-.19,1.83,2.86.05.7-.09ZM428.09,15.13v-1.27l-.05-.98-2.95-.05c0,.16,0,.31-.02.47l-.05.47c-.02.16-.04.31-.07.47s-.05.33-.05.52c.28,0,.55.02.82.05s.52.08.77.14.51.1.77.12.54.04.82.07ZM433.01,18.65c-.06-.03-.12-.05-.16-.07s-.1-.03-.16-.05-.12-.04-.16-.07-.1-.06-.16-.09c-.06-.09-.12-.2-.16-.3s-.08-.22-.09-.33-.02-.23-.02-.35v-.38l.19-4.17-.09-.66c.03-.06.05-.13.07-.21l.05-.23c.02-.08.05-.15.09-.21s.09-.12.12-.19c.06-.03.12-.07.19-.12s.13-.08.21-.09.15-.02.21-.02h.23l.47.23c.16.19.23.4.23.63s0,.47.02.7.02.47.02.7v.73l-.19,3.33.05.47-.23.47c-.06.03-.12.06-.16.09s-.1.06-.16.09-.12.05-.19.05-.12.02-.19.05ZM437.88,24.41l-.47-.23c-.25-.72-.4-1.46-.45-2.23s-.09-1.54-.14-2.32-.09-1.56-.12-2.34-.03-1.56,0-2.34l.05-.84c-.03-.19-.05-.38-.05-.59s0-.41-.02-.61-.04-.4-.07-.59-.05-.38-.05-.56c.03-.06.05-.13.07-.21s.03-.15.05-.21.05-.12.09-.19.09-.12.12-.19c.06-.03.12-.07.19-.12s.13-.08.21-.09.15-.02.21-.02h.23l.47.23c.16.28.23.59.23.91s.02.66.05.98.05.66.05.98.02.68.05,1.05l-.05,2.62c.06.5.09,1.02.09,1.55s.02,1.05.07,1.55.09,1.01.14,1.52.09,1.04.12,1.57l-.23.47c-.06.03-.12.07-.19.12s-.13.08-.21.09-.15.02-.21.02h-.23Z"/><path class="cls-1" d="M447.87,22.58l-.47-.23c-.28-.47-.43-1-.45-1.58s-.02-1.16-.02-1.72l.05-.05v-4.17c.09-1.22.17-2.45.23-3.7s.23-2.48.52-3.68c.12-.09.26-.16.4-.21s.3-.05.47-.02l.47.23c.09.12.16.26.21.4s.05.3.02.49c-.09,1.08-.18,2.16-.26,3.23s-.15,2.16-.21,3.26v4.17l-.05,1.17h.14c.31-.09.6-.23.87-.42s.57-.27.91-.23l.47.23c.09.12.16.26.21.4s.05.3.02.47l-.23.47c-.53.31-1.06.6-1.59.87s-1.1.48-1.71.63ZM454.92,21.41c-.12-.03-.24-.07-.35-.12s-.21-.1-.3-.16c-.09-.12-.16-.26-.21-.41s-.05-.3-.02-.46l.23-.47.47-.23h4.27c.41-.03.82-.05,1.23-.07s.81-.05,1.18-.12l.47.23c.09.12.16.26.21.4s.05.29.02.45l-.23.49h-.09v.09c-.41.22-.86.33-1.35.33s-.97.02-1.44.05h-4.08ZM460.52,11.08c-.55-.12-1.08-.27-1.59-.42s-1.04-.28-1.57-.38h-2.58l-.47-.23c-.09-.12-.16-.26-.21-.4s-.05-.29-.02-.45l.23-.47c.09-.06.2-.12.3-.18s.23-.1.35-.13h2.39c.69.11,1.37.25,2.04.42s1.33.38,1.97.63c.09.12.16.26.21.4s.05.3.02.49l-.23.47c-.12.09-.26.16-.4.21s-.29.05-.45.02Z"/><line class="cls-2" x1="12.23" y1="1" x2="23.47" y2="24.83"/><line class="cls-2" x1="1" y1="12.91" x2="10.32" y2="24.83"/><line class="cls-2" x1="519.22" y1="1" x2="507.98" y2="24.83"/><line class="cls-2" x1="530.45" y1="12.91" x2="521.13" y2="24.83"/></g></svg>