<?xml version="1.0" encoding="UTF-8"?><svg id="_レイヤー_2" xmlns="http://www.w3.org/2000/svg" viewBox="0 0 548.06 529.58"><defs><style>.cls-1{fill:#947f6e;}.cls-1,.cls-2,.cls-3,.cls-4,.cls-5,.cls-6,.cls-7,.cls-8,.cls-9,.cls-10{stroke-width:0px;}.cls-2{fill:#a08c7d;}.cls-3{fill:#41352c;}.cls-4{fill:#cb6850;}.cls-5{fill:#cecece;}.cls-6{fill:#ffdd51;}.cls-7{fill:#fff;}.cls-8{fill:#211715;}.cls-9{fill:#ffca8c;}.cls-10{fill:#ffc183;}</style></defs><g id="_レイヤー_1-2"><path class="cls-9" d="M502.98,178c31.56,99.07-6.97,219.06-90.27,279.61-82.93,60.54-210.25,61.65-297.95,0C26.7,395.59-22.11,270.83,9.82,171.76,41.74,72.32,154.76-1.8,261.9.03c107.51,1.83,209.52,79.26,241.08,177.96Z"/><circle class="cls-9" cx="443.61" cy="425.13" r="104.45"/><path class="cls-7" d="M260.11,360.45c0-26.25-.18-231.88-.18-234.04h124.53c0,2.16.18,207.28.18,233.52"/><path class="cls-6" d="M316.25,182.04c-1.38,0-29.8.03-32.1.03v12.69h32.04c0-2.46.06-12.02.06-12.72Z"/><path class="cls-6" d="M362.69,182.04c-1.38,0-29.8.03-32.1.03v12.69h32.04c0-2.46.06-12.02.06-12.72Z"/><path class="cls-3" d="M375.67,192.76h-106.06c-2.57,0-2.57,3.99,0,3.99h106.06c2.57,0,2.57-3.99,0-3.99Z"/><path class="cls-6" d="M316.25,204.06c-1.38,0-29.8.03-32.1.03v12.69h32.04c0-2.46.06-12.02.06-12.72Z"/><path class="cls-6" d="M362.69,204.06c-1.38,0-29.8.03-32.1.03v12.69h32.04c0-2.46.06-12.02.06-12.72Z"/><path class="cls-8" d="M375.67,224.08h-106.06c-2.57,0-2.57,3.99,0,3.99h106.06c2.57,0,2.57-3.99,0-3.99Z"/><path class="cls-3" d="M375.67,214.78h-106.06c-2.57,0-2.57,3.99,0,3.99h106.06c2.57,0,2.57-3.99,0-3.99Z"/><path class="cls-3" d="M266.43,126.41c0,4.91,0,9.81.02,14.72l.04,34.26.05,43.04c.02,13.73.03,27.46.04,41.19,0,9.43.02,18.86.02,28.29v2.07c0,2.57,3.99,2.57,3.99,0,0-8.7,0-17.39-.02-26.09-.01-13.36-.03-26.73-.04-40.09-.02-14.46-.03-28.92-.05-43.38-.01-12-.03-24.01-.04-36.01,0-5.87.12-11.76-.02-17.63v-.38c0-2.57-3.99-2.57-3.99,0h0Z"/><path class="cls-3" d="M257.94,126.41c0,4.91,0,9.81.02,14.72l.04,34.26.05,43.04c.01,13.73.03,27.46.04,41.19,0,9.43.02,18.86.02,28.29v2.07c0,2.57,3.99,2.57,3.99,0,0-8.7,0-17.39-.02-26.09-.01-13.36-.03-26.73-.04-40.09-.02-14.46-.03-28.92-.05-43.38-.02-12-.03-24-.04-36,0-5.87.12-11.76-.02-17.63v-.38c0-2.57-3.99-2.57-3.99,0h0Z"/><path class="cls-3" d="M384.7,124.41h-124.76c-2.57,0-2.57,3.99,0,3.99h124.76c2.57,0,2.57-3.99,0-3.99Z"/><path class="cls-3" d="M378.62,252.38c-.09-19.75-.16-39.5-.22-59.25-.06-17.45-.11-34.89-.16-52.34-.01-4.8-.02-9.59-.03-14.39,0-2.57-3.99-2.57-3.99,0,0,11.53.05,23.06.09,34.59.06,19.75.13,39.5.2,59.25.04,10.71.08,21.42.13,32.14.01,2.57,4,2.57,3.99,0h0Z"/><path class="cls-3" d="M382.47,126.41c0,3.64,0,7.28.02,10.92l.04,25.27c.02,10.73.03,21.47.05,32.2.02,10.57.03,21.14.04,31.71,0,7.96.02,15.91.02,23.87v2c0,2.57,3.99,2.57,3.99,0,0-7.42,0-14.84-.02-22.26-.01-10.37-.03-20.75-.04-31.12-.02-10.85-.03-21.7-.05-32.55l-.04-26.56c0-4.38.11-8.79-.02-13.16v-.32c0-2.57-3.99-2.57-3.99,0h0Z"/><path class="cls-3" d="M375.67,202.06h-106.06c-2.57,0-2.57,3.99,0,3.99h106.06c2.57,0,2.57-3.99,0-3.99Z"/><path class="cls-6" d="M316.25,160.01c-1.38,0-29.8.03-32.1.03v12.69h32.04c0-2.46.06-12.02.06-12.72Z"/><path class="cls-6" d="M362.69,160.01c-1.38,0-29.8.03-32.1.03v12.69h32.04c0-2.46.06-12.02.06-12.72Z"/><path class="cls-3" d="M375.67,170.73h-106.06c-2.57,0-2.57,3.99,0,3.99h106.06c2.57,0,2.57-3.99,0-3.99Z"/><path class="cls-8" d="M375.67,158.02h-106.06c-2.57,0-2.57,3.99,0,3.99h106.06c2.57,0,2.57-3.99,0-3.99Z"/><path class="cls-3" d="M375.67,157.4h-106.06c-2.57,0-2.57,3.99,0,3.99h106.06c2.57,0,2.57-3.99,0-3.99Z"/><path class="cls-6" d="M316.25,137.37c-1.38,0-29.8.03-32.1.03v12.69h32.04c0-2.46.06-12.02.06-12.72Z"/><path class="cls-6" d="M362.69,137.37c-1.38,0-29.8.03-32.1.03v12.69h32.04c0-2.46.06-12.02.06-12.72Z"/><path class="cls-3" d="M362.69,135.38c-9.09,0-18.19,0-27.28.02h-4.82c-1.1.02-1.98.9-2,2v12.69c.02,1.1.9,1.98,2,2h32.04c1.1-.02,1.98-.9,2-2,0-4.24.06-8.48.06-12.72,0-2.57-3.99-2.57-3.99,0,0,4.24-.06,8.48-.06,12.72l2-2h-32.04l2,2v-12.69l-2,2c9.25,0,18.51,0,27.76-.02h4.34c2.57,0,2.57-4,0-4Z"/><path class="cls-3" d="M375.67,148.09h-106.06c-2.57,0-2.57,3.99,0,3.99h106.06c2.57,0,2.57-3.99,0-3.99Z"/><path class="cls-3" d="M375.67,135.38h-106.06c-2.57,0-2.57,3.99,0,3.99h106.06c2.57,0,2.57-3.99,0-3.99Z"/><path class="cls-6" d="M316.25,226.7c-1.38,0-29.8.03-32.1.03v12.69h32.04c0-2.46.06-12.02.06-12.72Z"/><path class="cls-6" d="M362.69,226.7c-1.38,0-29.8.03-32.1.03v12.69h32.04c0-2.46.06-12.02.06-12.72Z"/><path class="cls-3" d="M316.25,180.04c-9.09,0-18.19,0-27.28.02h-4.82c-1.1.02-1.98.9-2,2v12.69c.02,1.1.9,1.98,2,2h32.04c1.1-.02,1.98-.9,2-2,0-4.24.06-8.48.06-12.72,0-2.57-3.99-2.57-3.99,0,0,4.24-.06,8.48-.06,12.72l2-2h-32.04l2,2v-12.69l-2,2c9.25,0,18.51,0,27.76-.02h4.34c2.57,0,2.57-4,0-4Z"/><path class="cls-3" d="M362.69,180.04c-9.09,0-18.19,0-27.28.02h-4.82c-1.1.02-1.98.9-2,2v12.69c.02,1.1.9,1.98,2,2h32.04c1.1-.02,1.98-.9,2-2,0-4.24.06-8.48.06-12.72,0-2.57-3.99-2.57-3.99,0,0,4.24-.06,8.48-.06,12.72l2-2h-32.04l2,2v-12.69l-2,2c9.25,0,18.51,0,27.76-.02h4.34c2.57,0,2.57-4,0-4Z"/><path class="cls-3" d="M316.25,202.06c-9.09,0-18.19,0-27.28.02-1.61,0-3.21,0-4.82,0-1.1.02-1.98.9-2,2v12.69c.02,1.1.9,1.98,2,2h32.04c1.1-.02,1.98-.9,2-2,0-4.24.06-8.48.06-12.72,0-2.57-3.99-2.57-3.99,0,0,4.24-.06,8.48-.06,12.72l2-2h-32.04l2,2v-12.69l-2,2c9.25,0,18.51,0,27.76-.02h4.34c2.57,0,2.57-3.99,0-3.99Z"/><path class="cls-3" d="M362.69,202.06c-9.09,0-18.19,0-27.28.02-1.61,0-3.22,0-4.82,0-1.1.02-1.98.9-2,2v12.69c.02,1.1.9,1.98,2,2h32.04c1.1-.02,1.98-.9,2-2,0-4.24.06-8.48.06-12.72,0-2.57-3.99-2.57-3.99,0,0,4.24-.06,8.48-.06,12.72l2-2h-32.04l2,2v-12.69l-2,2c9.25,0,18.51,0,27.76-.02h4.34c2.57,0,2.57-3.99,0-3.99Z"/><path class="cls-3" d="M316.25,158.02c-9.09,0-18.19,0-27.28.02h-4.82c-1.1.02-1.98.9-2,2v12.69c.02,1.1.9,1.98,2,2h32.04c1.1-.02,1.98-.9,2-2,0-4.24.06-8.48.06-12.72,0-2.57-3.99-2.57-3.99,0,0,4.24-.06,8.48-.06,12.72l2-2h-32.04l2,2v-12.69l-2,2c9.25,0,18.51,0,27.76-.02h4.34c2.57,0,2.57-4,0-4Z"/><path class="cls-3" d="M362.69,158.02c-9.09,0-18.19,0-27.28.02h-4.82c-1.1.02-1.98.9-2,2v12.69c.02,1.1.9,1.98,2,2h32.04c1.1-.02,1.98-.9,2-2,0-4.24.06-8.48.06-12.72,0-2.57-3.99-2.57-3.99,0,0,4.24-.06,8.48-.06,12.72l2-2h-32.04l2,2v-12.69l-2,2c9.25,0,18.51,0,27.76-.02h4.34c2.57,0,2.57-4,0-4Z"/><path class="cls-3" d="M316.25,135.38c-9.09,0-18.19,0-27.28.02h-4.82c-1.1.02-1.98.9-2,2v12.69c.02,1.1.9,1.98,2,2h32.04c1.1-.02,1.98-.9,2-2,0-4.24.06-8.48.06-12.72,0-2.57-3.99-2.57-3.99,0,0,4.24-.06,8.48-.06,12.72l2-2h-32.04l2,2v-12.69l-2,2c9.25,0,18.51,0,27.76-.02h4.34c2.57,0,2.57-4,0-4Z"/><path class="cls-3" d="M316.25,224.7c-9.09,0-18.19,0-27.28.02h-4.82c-1.1.02-1.98.9-2,2v12.69c.02,1.1.9,1.98,2,2h32.04c1.1-.02,1.98-.9,2-2,0-4.24.06-8.48.06-12.72,0-2.57-3.99-2.57-3.99,0,0,4.24-.06,8.48-.06,12.72l2-2h-32.04l2,2v-12.69l-2,2c9.25,0,18.51,0,27.76-.02h4.34c2.57,0,2.57-4,0-4Z"/><path class="cls-3" d="M362.69,224.7c-9.09,0-18.19,0-27.28.02h-4.82c-1.1.02-1.98.9-2,2v12.69c.02,1.1.9,1.98,2,2h32.04c1.1-.02,1.98-.9,2-2,0-4.24.06-8.48.06-12.72,0-2.57-3.99-2.57-3.99,0,0,4.24-.06,8.48-.06,12.72l2-2h-32.04l2,2v-12.69l-2,2c9.25,0,18.51,0,27.76-.02h4.34c2.57,0,2.57-4,0-4Z"/><path class="cls-3" d="M375.67,237.42h-106.06c-2.57,0-2.57,3.99,0,3.99h106.06c2.57,0,2.57-3.99,0-3.99Z"/><path class="cls-3" d="M375.67,224.7h-106.06c-2.57,0-2.57,3.99,0,3.99h106.06c2.57,0,2.57-3.99,0-3.99Z"/><path class="cls-3" d="M375.67,180.04h-106.06c-2.57,0-2.57,3.99,0,3.99h106.06c2.57,0,2.57-3.99,0-3.99Z"/><path class="cls-7" d="M237.97,360.12c0-11.51-.24-107.69-.24-120.37h-92.86s.27,120.11,0,120.37"/><path class="cls-3" d="M239.97,289.69c0-13.33-.15-26.67-.21-40-.02-3.31-.03-6.63-.03-9.94-.02-1.1-.9-1.98-2-2h-81.54c-2.57,0-2.57,3.99,0,3.99h81.54l-2-2c0,13.53.14,27.06.21,40.6.02,3.11.03,6.23.03,9.34,0,2.57,3.99,2.57,3.99,0Z"/><path class="cls-3" d="M200.17,253.21c8.74,0,17.47-.11,26.21-.11,2.57,0,2.57-3.99,0-3.99-8.74,0-17.47.11-26.21.11-2.57,0-2.57,3.99,0,3.99Z"/><path class="cls-3" d="M211.5,261.54c4.96,0,9.93-.11,14.89-.11,2.57,0,2.57-3.99,0-3.99-4.96,0-9.93.11-14.89.11-2.57,0-2.57,3.99,0,3.99h0Z"/><path class="cls-7" d="M290.69,360.12c-.02-17.88-.04-93.76-.04-97.7h136.84v1.15c0,5.89.08,83.15.08,95.92"/><path class="cls-3" d="M292.68,360.12c-.02-13.3-.02-26.6-.02-39.9,0-15.42-.01-30.83-.01-46.25v-11.56l-2,2h136.84l-2-2c0,17.38.01,34.76.04,52.14,0,6.58.01,13.16.02,19.74,0,2.57,3.99,2.57,3.99,0-.02-21.42-.03-42.84-.05-64.26v-7.63c-.02-1.1-.9-1.98-2-2h-136.85c-1.1.02-1.98.9-2,2,0,9.98,0,19.96,0,29.94,0,16.35.01,32.71.02,49.06,0,6.23,0,12.47.01,18.71,0,2.57,3.99,2.57,3.99,0h0Z"/><path class="cls-6" d="M374.91,314.02c-1.37,0-29.64.04-31.94.04v38.93h31.87c0-3.44.06-37.99.06-38.97Z"/><path class="cls-3" d="M374.91,312.02c-9.06,0-18.13.01-27.19.03-1.58,0-3.16,0-4.74,0-1.1.02-1.98.9-2,2v38.93c.02,1.1.9,1.98,2,2h31.87c1.1-.02,1.98-.9,2-2,0-11.37.02-22.73.05-34.1,0-1.62,0-3.25,0-4.87,0-2.57-3.99-2.57-3.99,0,0,10.94-.02,21.88-.05,32.82,0,2.05,0,4.1,0,6.15l2-2h-31.87l2,2v-38.93l-2,2c9.22,0,18.45-.01,27.67-.03,1.42,0,2.85,0,4.27,0,2.57,0,2.57-3.99,0-3.99Z"/><path class="cls-3" d="M350.12,312.28v40.71c0,2.57,3.99,2.57,3.99,0v-40.71c0-2.57-3.99-2.57-3.99,0Z"/><path class="cls-6" d="M414.37,284.88c-1.38,0-29.8.03-32.1.03v15.52h32.04c0-2.46.06-14.85.06-15.55Z"/><path class="cls-3" d="M414.37,282.89c-9.09,0-18.19,0-27.28.02h-4.82c-1.1.02-1.98.9-2,2v15.52c.02,1.1.9,1.98,2,2h32.04c1.1-.02,1.98-.9,2-2,0-5.18.06-10.36.06-15.55,0-2.57-3.99-2.57-3.99,0,0,5.18-.06,10.36-.06,15.55l2-2h-32.04l2,2v-15.52l-2,2c9.25,0,18.51,0,27.76-.02h4.34c2.57,0,2.57-4,0-4Z"/><path class="cls-3" d="M396.2,284.91v20.55c0,2.57,3.99,2.57,3.99,0v-5.03c0-2.57-3.99-2.57-3.99,0v5.03c0,2.57,3.99,2.57,3.99,0v-20.55c0-2.57-3.99-2.57-3.99,0Z"/><path class="cls-3" d="M300.34,273.06c4.5,0,8.99,0,13.49-.01l27.87-.03,33.16-.03,28.93-.03c5.2,0,10.4,0,15.6-.01h.55c2.57,0,2.57-3.99,0-3.99-4.46,0-8.91,0-13.37.01l-27.81.03-33.16.03-28.99.03c-5.24,0-10.47,0-15.71.01h-.57c-2.57,0-2.57,3.99,0,3.99h0Z"/><path class="cls-7" d="M365.94,322.97c.4.65,1.33,1.77,1.73,2.41"/><path class="cls-3" d="M364.21,323.97c.52.84,1.2,1.58,1.73,2.41.27.44.7.77,1.19.92.26.08.53.1.8.04.26-.01.52-.09.74-.24.45-.26.78-.69.92-1.19.14-.52.07-1.07-.2-1.54-.53-.84-1.21-1.57-1.73-2.41-.27-.44-.7-.77-1.19-.92-.26-.08-.53-.1-.8-.04-.26.01-.52.09-.74.24-.45.26-.78.69-.92,1.19-.14.52-.07,1.07.2,1.54h0Z"/><path class="cls-7" d="M359.26,323.91c2.54,3.64,5.2,7.19,8,10.64"/><path class="cls-3" d="M357.54,324.92c2.64,3.78,5.41,7.46,8.31,11.05.78.78,2.04.78,2.82,0,.75-.79.75-2.03,0-2.82-2.7-3.33-5.14-6.58-7.69-10.24-.56-.95-1.78-1.27-2.73-.72-.95.56-1.27,1.78-.72,2.73h0Z"/><path class="cls-2" d="M342.87,359.97v-48.22h-57.41c.08,17.39-.01,35.16-.01,48.51"/><path class="cls-3" d="M344.87,359.97v-45.92c0-2.57-3.99-2.57-3.99,0v45.92c0,2.57,3.99,2.57,3.99,0Z"/><path class="cls-3" d="M297.82,314.58v45.54c0,2.57,3.99,2.57,3.99,0v-45.54c0-2.57-3.99-2.57-3.99,0Z"/><path class="cls-3" d="M312.17,314.58v45.67c0,2.57,3.99,2.57,3.99,0v-45.67c0-2.57-3.99-2.57-3.99,0h0Z"/><path class="cls-3" d="M326.53,314.58v44.91c0,2.57,3.99,2.57,3.99,0v-44.91c0-2.57-3.99-2.57-3.99,0Z"/><path class="cls-3" d="M283.47,314.58c.07,15.22,0,30.45-.01,45.68,0,2.57,3.99,2.57,3.99,0,0-15.23.08-30.45.01-45.68-.01-2.57-4.01-2.57-3.99,0Z"/><path class="cls-5" d="M285.46,300.43h147.76v14.15h-147.76v-14.15Z"/><path class="cls-3" d="M285.46,302.43h147.76l-2-2v14.15l2-2h-147.76l2,2v-14.15c0-2.57-3.99-2.57-3.99,0v14.15c.02,1.1.9,1.98,2,2h147.76c1.1-.02,1.98-.9,2-2v-14.15c-.02-1.1-.9-1.98-2-2h-147.76c-2.57,0-2.57,3.99,0,3.99Z"/><path class="cls-3" d="M343.12,355.11h84.09c2.57,0,2.57-3.99,0-3.99h-84.09c-2.57,0-2.57,3.99,0,3.99Z"/><path class="cls-10" d="M407.87,348.61h-7.7c-1.8,0-3.99-6.41-1.26-10.62,2.97-4.56,9.72-3.74,14.38-3.79,6.23-.08,11.76-.02,18.23.25,5.89,0,8.39,1.34,9.92,4.89.89,2.05.97,9.28-3.69,9.28h-29.88Z"/><path class="cls-3" d="M407.87,346.61h-6.36c-.31,0-.61,0-.92,0-.39,0-.55.02-.04.07.37.04.19.21,0-.12.06.11-.31-.59-.39-.78-1.14-2.81-.65-6.69,2.13-8.32,2.91-1.71,6.74-1.29,9.97-1.27,4.82.03,9.63-.05,14.44.08,2.43.07,4.9.05,7.32.27,1.39.05,2.75.47,3.92,1.23.34.29.65.61.92.97.19.28.36.57.51.87.09.16.17.33.24.51.07.21.12.42.17.64.05.14.08.3.08.45.07.65.08,1.31.03,1.96-.03.55-.13,1.1-.3,1.63-.13.44-.33.86-.6,1.24-.4.51-.74.56-1.44.58-1.8.05-3.62,0-5.42,0h-24.28c-2.57,0-2.57,3.99,0,3.99h24.54c1.78,0,3.57.05,5.34,0,3.95-.12,5.79-3.53,6.12-7.07.4-3.09-.65-6.18-2.86-8.38-3.31-3.05-8.23-2.68-12.4-2.82-5.5-.19-10.99-.1-16.49-.14-4.05-.03-8.7-.31-12.22,2.06-4.19,2.82-5.25,8.54-3.38,13.06.73,1.76,1.87,3.22,3.9,3.29,2.48.09,4.98,0,7.46,0s2.58-3.99,0-3.99Z"/><path class="cls-7" d="M397.37,359.97v-13.57h45.21v13.57"/><path class="cls-3" d="M399.36,359.97v-13.57l-2,2h45.21l-2-2v13.57c0,2.57,3.99,2.57,3.99,0v-13.57c-.02-1.1-.9-1.98-2-2h-45.21c-1.1.02-1.98.9-2,2v13.57c0,2.57,3.99,2.57,3.99,0Z"/><path class="cls-7" d="M167.48,360.17c0-9.53.07-56.09.07-60.48h101.57c0,4.39-.07,50.9-.07,60.43"/><path class="cls-3" d="M169.48,360.17c0-7.76,0-15.53.02-23.29l.04-29.03c0-2.72,0-5.44,0-8.16l-2,2h101.57l-2-2c0,6.54,0,13.07-.02,19.61-.01,10.01-.03,20.02-.04,30.03,0,3.6,0,7.2,0,10.79,0,2.57,3.99,2.57,3.99,0,0-7.76,0-15.52.02-23.27l.04-29c0-2.72,0-5.44,0-8.15-.02-1.1-.9-1.98-2-2h-101.57c-1.1.02-1.98.9-2,2,0,6.54,0,13.08-.02,19.63-.01,10.02-.03,20.04-.04,30.05,0,3.6,0,7.2,0,10.8,0,2.57,3.99,2.57,3.99,0h0Z"/><path class="cls-2" d="M258,360.12v-41.33h-25.03c.04,10.21,0,33.5,0,41.33"/><path class="cls-6" d="M190.52,319.32h9.05c-.01,9.58,0,19.36,0,26.7h-9.05v-26.7Z"/><path class="cls-6" d="M207.48,319.32h9.05c-.01,9.58,0,19.36,0,26.7h-9.05v-26.7Z"/><path class="cls-3" d="M260,360.12v-41.33c-.02-1.1-.9-1.98-2-2h-25.03c-1.1.02-1.98.9-2,2,.04,11.39.01,22.78,0,34.16,0,2.39,0,4.78,0,7.17,0,2.57,3.99,2.57,3.99,0,0-10.98,0-21.96.01-32.94,0-2.8,0-5.59-.01-8.39l-2,2h25.03l-2-2v41.33c0,2.57,3.99,2.57,3.99,0Z"/><path class="cls-3" d="M190.52,321.32h9.05l-2-2c-.01,8.9-.01,17.8,0,26.7l2-2h-9.05l2,2v-26.7c0-2.57-3.99-2.57-3.99,0v26.7c.02,1.1.9,1.98,2,2h9.05c1.1-.02,1.98-.9,2-2v-26.7c-.02-1.1-.9-1.98-2-2h-9.05c-2.57,0-2.57,3.99,0,3.99Z"/><path class="cls-3" d="M207.48,321.32h9.05l-2-2c-.01,8.9-.01,17.8,0,26.7l2-2h-9.05l2,2v-26.7c0-2.57-3.99-2.57-3.99,0v26.7c.02,1.1.9,1.98,2,2h9.05c1.1-.02,1.98-.9,2-2v-26.7c-.02-1.1-.9-1.98-2-2h-9.05c-2.57,0-2.57,3.99,0,3.99Z"/><path class="cls-3" d="M238.64,339.16c.03,1.9,0,3.8,0,5.7,0,1.1.89,2,2,2s2-.89,2-2c0-1.9.03-3.8,0-5.7,0-1.1-.89-2-2-2s-2,.89-2,2Z"/><path class="cls-7" d="M146.94,360.11c0-14.32-.65-151.16-.65-166.93H38.51c0,2.16.18,140.91.18,167.16"/><path class="cls-3" d="M148.94,360.11c0-6.88-.04-13.76-.06-20.65-.05-12.57-.1-25.14-.16-37.7-.06-14.65-.12-29.3-.19-43.95-.06-13.15-.11-26.3-.16-39.46-.03-7.94-.06-15.87-.08-23.81v-1.36c-.02-1.1-.9-1.98-2-2H38.51c-1.1.02-1.98.9-2,2,0,5.02,0,10.04.02,15.06.01,11.74.03,23.47.04,35.21.02,14.69.03,29.37.05,44.06.02,13.98.03,27.96.04,41.93,0,9.61.02,19.21.02,28.82v2.08c0,2.57,3.99,2.57,3.99,0,0-8.81,0-17.61-.02-26.42-.01-13.68-.03-27.37-.04-41.05-.02-14.8-.03-29.59-.05-44.39-.01-12.26-.03-24.52-.04-36.78,0-4.05,0-8.11-.01-12.17,0-1.97.13-3.99,0-5.96,0-.13,0-.26,0-.39l-2,2h107.78l-2-2c0,7.11.04,14.22.06,21.33.05,12.68.1,25.37.16,38.06.06,14.66.12,29.31.19,43.97.06,13.05.11,26.09.16,39.14.03,7.72.06,15.44.08,23.17v1.26c0,2.57,3.99,2.57,3.99,0h0Z"/><path class="cls-3" d="M145.76,331.33H39.7c-2.57,0-2.57,3.99,0,3.99h106.06c2.57,0,2.57-3.99,0-3.99Z"/><path class="cls-3" d="M145.76,319.2H39.7c-2.57,0-2.57,3.99,0,3.99h106.06c2.57,0,2.57-3.99,0-3.99Z"/><path class="cls-3" d="M145.76,288.76H39.7c-2.57,0-2.57,3.99,0,3.99h106.06c2.57,0,2.57-3.99,0-3.99Z"/><path class="cls-3" d="M145.76,276.63H39.7c-2.57,0-2.57,3.99,0,3.99h106.06c2.57,0,2.57-3.99,0-3.99Z"/><path class="cls-6" d="M132.51,220.51c-3.37,0-72.65.03-78.28.03v15.52h78.12c0-2.46.16-14.85.16-15.55Z"/><path class="cls-3" d="M104.42,220.8v14.23c0,1.1.89,2,2,2s2-.89,2-2v-14.23c0-1.1-.89-2-2-2s-2,.89-2,2Z"/><path class="cls-3" d="M78.33,220.8v15.24c0,2.57,3.99,2.57,3.99,0v-15.24c0-2.57-3.99-2.57-3.99,0Z"/><path class="cls-6" d="M132.51,262.89c-3.37,0-72.65.03-78.28.03v15.52h78.12c0-2.46.16-14.85.16-15.55Z"/><path class="cls-3" d="M104.42,263.17v14.23c0,1.1.89,2,2,2s2-.89,2-2v-14.23c0-1.1-.89-2-2-2s-2,.89-2,2Z"/><path class="cls-3" d="M78.33,262.89v15.52c0,2.57,3.99,2.57,3.99,0v-15.52c0-2.57-3.99-2.57-3.99,0Z"/><path class="cls-6" d="M132.51,305.04c-3.37,0-72.65.03-78.28.03v15.52h78.12c0-2.46.16-14.85.16-15.55Z"/><path class="cls-3" d="M132.51,218.52c-8.81,0-17.62,0-26.42,0-13.44,0-26.88,0-40.32.01h-11.53c-1.1.02-1.98.9-2,2v15.52c.02,1.1.9,1.98,2,2h78.12c1.1-.02,1.98-.9,2-2,0-5.18.14-10.37.16-15.55,0-2.57-3.99-2.57-3.99,0-.01,5.18-.15,10.36-.16,15.55l2-2H54.23l2,2v-15.52l-2,2c9.35,0,18.69,0,28.04,0h39.87c3.46-.01,6.91-.01,10.37-.01,2.57,0,2.57-4,0-4Z"/><path class="cls-3" d="M132.51,260.89c-8.81,0-17.62,0-26.42,0h-40.32c-3.84.01-7.69.01-11.53.01-1.1.02-1.98.9-2,2v15.52c.02,1.1.9,1.98,2,2h78.12c1.1-.02,1.98-.9,2-2,0-5.18.14-10.37.16-15.55,0-2.57-3.99-2.57-3.99,0-.01,5.18-.15,10.37-.16,15.55l2-2H54.23l2,2v-15.52l-2,2c9.35,0,18.69,0,28.04,0h39.87c3.46-.01,6.91-.01,10.37-.01,2.57,0,2.57-4,0-4Z"/><path class="cls-3" d="M132.51,303.05c-8.81,0-17.62,0-26.42,0h-40.32c-3.84.01-7.69.01-11.53.01-1.1.02-1.98.9-2,2v15.52c.02,1.1.9,1.98,2,2h78.12c1.1-.02,1.98-.9,2-2,0-5.18.14-10.36.16-15.55,0-2.57-3.99-2.57-3.99,0-.01,5.18-.15,10.36-.16,15.55l2-2H54.23l2,2v-15.52l-2,2c9.35,0,18.69,0,28.04,0h39.87c3.46-.01,6.91-.01,10.37-.01,2.57,0,2.57-4,0-4Z"/><path class="cls-3" d="M104.42,305.33v14.23c0,1.1.89,2,2,2s2-.89,2-2v-14.23c0-1.1-.89-2-2-2s-2,.89-2,2Z"/><path class="cls-3" d="M78.33,305.04v15.52c0,2.57,3.99,2.57,3.99,0v-15.52c0-2.57-3.99-2.57-3.99,0Z"/><path class="cls-3" d="M145.76,246.2H39.7c-2.57,0-2.57,3.99,0,3.99h106.06c2.57,0,2.57-3.99,0-3.99Z"/><path class="cls-3" d="M145.76,234.06H39.7c-2.57,0-2.57,3.99,0,3.99h106.06c2.57,0,2.57-3.99,0-3.99Z"/><path class="cls-3" d="M145.76,203.11H39.7c-2.57,0-2.57,3.99,0,3.99h106.06c2.57,0,2.57-3.99,0-3.99Z"/><path class="cls-3" d="M451.24,268.71c.06,2.15-.06,4.31,0,6.46,0,1.1.89,2,2,2s2-.89,2-2c-.06-2.15.06-4.31,0-6.46,0-1.1-.89-2-2-2s-2,.89-2,2Z"/><path class="cls-3" d="M458.02,268.71c.06,2.15-.06,4.31,0,6.46,0,1.1.89,2,2,2s2-.89,2-2c-.06-2.15.06-4.31,0-6.46,0-1.1-.89-2-2-2s-2,.89-2,2Z"/><path class="cls-3" d="M451.24,302.67c.06,2.15-.06,4.31,0,6.46,0,1.1.89,2,2,2s2-.89,2-2c-.06-2.15.06-4.31,0-6.46,0-1.1-.89-2-2-2s-2,.89-2,2Z"/><path class="cls-3" d="M458.02,302.67c.06,2.15-.06,4.31,0,6.46,0,1.1.89,2,2,2s2-.89,2-2c-.06-2.15.06-4.31,0-6.46,0-1.1-.89-2-2-2s-2,.89-2,2Z"/><path class="cls-3" d="M433.87,280.71c4.54,1.68,9.54,1.62,14.03-.17,1.04-.32,1.66-1.4,1.4-2.46-.3-1.06-1.39-1.68-2.46-1.4-3.8,1.6-8.07,1.66-11.91.17-1.06-.29-2.16.34-2.46,1.4-.26,1.06.35,2.14,1.4,2.46h0Z"/><path class="cls-3" d="M439.23,312.32c2.44.9,5.13.87,7.55-.08.49-.15.92-.48,1.19-.92.27-.47.34-1.02.2-1.54-.14-.5-.47-.93-.92-1.2-.46-.28-1.02-.35-1.54-.2-.67.27-1.37.46-2.09.56l.53-.07c-.84.11-1.69.12-2.52,0l.53.07c-.64-.09-1.27-.25-1.87-.48-.52-.14-1.07-.07-1.54.2-.95.56-1.27,1.78-.72,2.73,0,0,0,0,0,0,.28.43.71.76,1.2.92h0Z"/><path class="cls-5" d="M477.06,359.88c0-8.69-.34-76.73-.43-97.15,0-2.2-1.8-3.97-3.99-3.97h-2.47c-2.2,0-3.99,1.79-3.99,3.99.01,15.79.04,69.61.06,97.04"/><path class="cls-3" d="M479.05,359.88c0-9.78-.07-19.57-.11-29.35-.07-15.19-.14-30.38-.22-45.58-.03-6.06-.06-12.11-.08-18.17-.01-3.22.42-6.78-2.55-8.92-1.91-1.38-4.91-1.41-7.15-.98-2.33.49-4.16,2.31-4.64,4.65-.46,2.44-.13,5.21-.12,7.69v9.53c0,8.11,0,16.22.01,24.33,0,17.21.02,34.41.03,51.62v5.08c0,2.57,3.99,2.57,3.99,0-.01-16.16-.02-32.33-.03-48.49,0-14.75-.02-29.49-.02-44.24v-3.31c0-1.27.1-2.7,1.65-2.98,1.09-.19,2.21-.17,3.29.03.76.19,1.35.8,1.51,1.57.1,1.07.11,2.15.03,3.22.02,5.64.05,11.28.08,16.92.07,14.68.14,29.35.21,44.03.05,10.6.09,21.2.13,31.8v1.53c0,2.57,3.99,2.57,3.99,0h0Z"/><path class="cls-3" d="M453.22,277.16c8.96,0,17.93-.06,26.89-.1,1.84,0,3.67-.01,5.51-.01,2.57,0,2.57-3.99,0-3.99-8.92,0-17.84.07-26.76.1-1.88,0-3.76.01-5.64.01-2.57,0-2.57,3.99,0,3.99h0Z"/><path class="cls-3" d="M453.22,311.13c8.96,0,17.93-.06,26.89-.1,1.84,0,3.67-.01,5.51-.01,2.57,0,2.57-3.99,0-3.99-8.92,0-17.84.07-26.76.1-1.88,0-3.76.01-5.64.01-2.57,0-2.57,3.99,0,3.99h0Z"/><path class="cls-7" d="M469.73,130.48c.2.04.3-.1.22-.32-.68-1.73-4.14-5.77-9.93-5.77-8.02,0-10.18,4.56-9.95,5.97-.9-.54-6.44-2.1-9.97.62-1.69,1.3-2.88,4.44-1.93,6.35-3.13-1.46-6.89,3.89-4.87,7.4,3.27,5.67,9.88,5.2,12.48,4.06,2.62,2.01,5.74,3.26,9.03,3.59,2.79.34,5.61.38,8.42.11,2.4-.24,4.72-.97,6.83-2.15,1.91-1.17,3.14-3.19,3.32-5.43,1.82.53,3.77.45,5.54-.23,2.67-1.02,4.02-4.09,3.92-7.28-.11-2.89-1.72-5.52-4.26-6.91-2.69-1.29-5.82-1.25-8.48.12"/><path class="cls-3" d="M451.99,129.82c.11.75.05.38.06.18.01-.3-.19.44-.02.2.1-.15.37-.84.06-.31.15-.26.28-.52.44-.78s-.24.23.13-.17c.11-.12.21-.23.32-.35.16-.16.33-.31.5-.45-.31.26.1-.08.18-.13.39-.26.8-.49,1.23-.7.97-.41,1.99-.68,3.04-.82,2.51-.41,5.09.08,7.28,1.39.77.49,1.47,1.08,2.06,1.77.06.07.45.57.19.21.11.15.21.3.31.45.09.14.16.28.25.42.31.49-.05-.37.02.13l.2-1.54-.08.11,1.72-.99-.17.02c-1.09.03-1.97.91-2,2,0,1.1.9,1.99,2,2,2.02-.2,2.65-1.95,1.8-3.63-.42-.78-.95-1.5-1.56-2.15-1.68-1.8-3.81-3.11-6.18-3.78-4.49-1.28-10.79-.47-14,3.27-1.22,1.25-1.82,2.97-1.65,4.71.3,1.06,1.39,1.68,2.46,1.4,1.05-.31,1.66-1.4,1.4-2.46h0Z"/><path class="cls-3" d="M471.1,132.32c1.91-.96,4.15-1.06,6.14-.28-.14-.06-.1-.04.12.06.13.07.26.13.38.2.25.14.49.29.71.46-.17-.13.35.31.41.37.2.2.4.4.58.62.15.19.18.22.08.09.08.11.16.23.24.35.15.24.3.48.43.73.06.13.13.25.18.38-.06-.15-.05-.12.04.11.09.27.18.54.25.81.47,1.91.08,3.93-1.06,5.54.2-.26-.27.28-.33.33-.09.09-.19.18-.29.26.15-.11.13-.1-.06.04-.39.29-.83.49-1.3.59-1.03.28-2.1.32-3.14.1-1.06-.26-2.14.35-2.46,1.4-.28,1.06.34,2.16,1.4,2.46,2.61.46,5.43.4,7.68-1.2,1.93-1.44,3.2-3.58,3.53-5.96.46-2.51.02-5.11-1.25-7.33-1.28-2.15-3.32-3.75-5.71-4.48-2.87-.79-5.94-.47-8.59.9-.95.56-1.27,1.78-.72,2.73.56.95,1.78,1.27,2.73.72h0Z"/><path class="cls-3" d="M471.37,144.3c.12,5.17-6.6,6.24-10.52,6.36-4.52.14-10.04-.21-13.66-3.29-1.95-1.66-4.79,1.16-2.82,2.82,4.82,4.09,11.81,4.85,17.89,4.38,5.91-.45,13.26-3.19,13.11-10.28-.06-2.57-4.05-2.57-3.99,0h0Z"/><path class="cls-3" d="M451.07,128.63c-.8-.42-1.66-.71-2.55-.86-1.36-.3-2.76-.4-4.16-.31-1.63.09-3.23.56-4.65,1.36-1.44.88-2.56,2.21-3.19,3.78-.85,1.81-.88,3.89-.08,5.73.56.95,1.78,1.27,2.73.72.93-.57,1.25-1.77.72-2.73.23.5,0-.08-.04-.2-.13-.41,0,.35-.01-.06v-.62c0-.45-.08.31,0-.1.08-.38.19-.74.31-1.11.08-.21.08-.21-.01.01.05-.1.09-.2.14-.3.07-.15.15-.29.24-.43.11-.18.23-.36.36-.54-.28.37.01,0,.09-.07.14-.14.28-.28.43-.41-.35.31.03,0,.12-.07.19-.12.38-.23.58-.34.14-.07.45-.21.12-.08.38-.15.77-.28,1.17-.37.18-.04.37-.07.56-.12.41-.09-.35.03.18-.03.37-.04.73-.06,1.1-.06s.71.01,1.06.04c.17.01.34.03.51.05.43.04-.43-.08.09.01.55.09,1.09.21,1.62.36.2.06.39.13.58.2l.1.04c-.37-.16-.47-.2-.3-.13.03,0,.15.07.17.09.95.56,2.18.24,2.73-.72.56-.95.24-2.18-.72-2.73h0Z"/><path class="cls-3" d="M439.17,135.6c-1.14-.56-2.45-.65-3.66-.26-1.12.4-2.11,1.11-2.86,2.04-1.71,1.96-2.31,4.66-1.61,7.16,1.57,4.52,6.51,7.05,11.08,6.95,1.82.04,3.63-.41,5.22-1.29.95-.56,1.26-1.79.7-2.74-.56-.94-1.77-1.26-2.72-.71-.17.1-.34.18-.52.28-.2.11.51-.18.08-.04-.15.05-.3.1-.45.15-.27.08-.54.15-.82.2-.15.03-.3.05-.45.08-.3.06.19-.05.18-.02-.1.02-.2.03-.3.03-.73.07-1.47.08-2.21.01-.09,0-.18-.02-.27-.03-.28-.02.39.07.12.02-.18-.04-.37-.06-.55-.1-.4-.08-.79-.19-1.18-.31-.19-.06-.37-.14-.55-.2.47.16-.08-.04-.2-.1-.41-.2-.81-.44-1.19-.71-.09-.06-.17-.12-.25-.19.06.05.3.26.03.01-.16-.15-.33-.29-.48-.44s-.32-.32-.46-.49c-.08-.09-.15-.18-.22-.26-.24-.28.07.1-.06-.09s-.28-.4-.4-.61c-.05-.08-.35-.64-.25-.43s-.1-.34-.12-.42c-.02-.1-.03-.2-.06-.3-.07-.22,0,.37,0,0,0-.21-.01-.41,0-.62,0-.1.02-.2.03-.31-.05.46-.02.17,0,.07.06-.23.11-.45.18-.68.03-.1.08-.19.1-.29.06-.22-.16.31.01-.02.12-.23.24-.45.38-.67.05-.08.11-.17.17-.25.2-.31-.16.14.01,0s.3-.33.45-.48c.07-.06.15-.12.21-.19-.33.33-.07.06.05-.02.08-.05.15-.09.23-.14.06-.03.42-.19.12-.07-.34.13.34-.13.38-.09.09.09-.5-.01-.15.02.06,0,.33-.04.38,0,.01,0-.52-.14-.15,0,.12.04.51.19.02-.03.96.52,2.15.2,2.73-.72.55-.95.23-2.17-.72-2.73h0Z"/><path class="cls-3" d="M448.59,143.96c1.73,3.13,5.68,4.26,8.81,2.52.06-.04.13-.07.19-.11.95-.56,1.28-1.78.72-2.73-.56-.95-1.78-1.27-2.73-.72-.2.13-.4.24-.62.34l.48-.2c-.34.14-.69.24-1.05.29l.53-.07c-.42.05-.84.05-1.25,0l.53.07c-.42-.06-.82-.18-1.21-.34l.48.2c-.36-.16-.7-.36-1.01-.6l.4.31c-.26-.21-.5-.45-.71-.71l.31.4c-.16-.21-.3-.43-.41-.67-.56-.95-1.78-1.27-2.73-.72-.93.57-1.24,1.78-.72,2.73h0Z"/><path class="cls-7" d="M171.3,105.73c.3.06.44-.14.32-.47-.99-2.52-6.03-8.41-14.48-8.41-11.68,0-14.85,6.65-14.5,8.7-1.31-.79-9.4-3.05-14.54.9-2.46,1.9-4.19,6.47-2.81,9.25-4.57-2.13-10.04,5.67-7.09,10.79,4.76,8.26,14.41,7.58,18.19,5.91,3.22,2.85,8.89,4.81,13.16,5.23,4.07.5,8.19.56,12.27.17,3.5-.35,6.89-1.42,9.95-3.14,2.79-1.71,4.58-4.65,4.84-7.91,3.26.66,5.19.76,8.08-.34,3.89-1.48,5.85-5.97,5.72-10.61-.15-4.22-2.51-8.04-6.21-10.08-3.92-1.88-8.49-1.82-12.35.17"/><path class="cls-3" d="M144.56,105.02c.09.62,0,.2.06-.1-.13.68.08-.16.14-.38.05-.21.13-.34,0-.04.06-.14.12-.27.19-.41.17-.32.36-.62.56-.92.24-.34-.02,0,.19-.25.13-.15.26-.29.4-.44.29-.3.59-.58.91-.84.81-.61,1.69-1.12,2.62-1.51,5.24-2.18,11.79-1.76,16.41,1.61.96.71,1.83,1.54,2.6,2.46.26.32.5.66.71,1.01.1.17.2.35.3.52.28.48,0-.2.08.33l.2-1.54-.11.17,1.72-.99-.24.02c-1.09.03-1.97.91-2,2,0,1.1.9,1.99,2,2,2.39-.23,2.71-2.32,1.72-4.14-.6-1.06-1.34-2.04-2.2-2.91-2.4-2.51-5.45-4.31-8.81-5.19-6.19-1.61-14.85-.49-19.19,4.7-1.52,1.57-2.29,3.72-2.11,5.9.3,1.06,1.39,1.68,2.46,1.4,1.05-.31,1.66-1.4,1.4-2.46h-.02Z"/><path class="cls-3" d="M172.84,107.63c3-1.52,6.51-1.71,9.66-.5,2.83,1.25,4.91,3.75,5.64,6.76.75,3.02.16,6.23-1.64,8.77-2,2.58-5.5,2.87-8.49,2.35-1.06-.26-2.14.35-2.46,1.4-.28,1.06.34,2.16,1.4,2.46,3.56.62,7.43.53,10.49-1.66,2.6-1.98,4.3-4.91,4.72-8.14.62-3.43,0-6.96-1.74-9.98-1.74-2.94-4.52-5.12-7.79-6.11-3.95-1.1-8.17-.67-11.82,1.21-2.29,1.17-.27,4.62,2.02,3.45h0Z"/><path class="cls-3" d="M174.61,125.88c.26,8.1-9.96,9.97-16.15,10.18-6.86.23-15.2-.35-20.67-5.06-1.94-1.67-4.78,1.14-2.82,2.82,6.65,5.73,16.49,6.71,24.91,6.16,4.4-.29,9.1-1.2,12.9-3.58,3.66-2.24,5.87-6.23,5.83-10.52-.08-2.56-4.08-2.57-3.99,0h0Z"/><path class="cls-3" d="M143.65,103.83c-1.1-.57-2.28-.96-3.51-1.16-1.91-.41-3.87-.55-5.81-.42-2.22.13-4.38.76-6.32,1.86-1.94,1.19-3.44,2.97-4.28,5.07-1.13,2.37-1.19,5.11-.16,7.53.56.94,1.78,1.26,2.73.72.93-.57,1.25-1.78.72-2.73.11.24-.13-.43-.15-.51-.1-.39-.02.05-.05-.33-.04-.43-.02-.87.04-1.3.17-1.02.53-2.01,1.08-2.89,1.07-1.66,2.78-2.8,4.73-3.15.96-.23,1.94-.34,2.93-.33.52,0,1.03.02,1.55.06.56.04.83.08,1.11.12.8.13,1.59.3,2.36.53.29.08.57.19.85.28.42.13-.28-.23-.07-.03.08.05.17.1.25.13,2.23,1.28,4.24-2.16,2.01-3.45h0Z"/><path class="cls-3" d="M126.29,113.99c-6.76-2.96-12.58,6.03-10.5,12.01,1.27,3.21,3.65,5.86,6.7,7.47,2.64,1.39,5.59,2.07,8.56,2,2.5.06,4.97-.55,7.15-1.75,2.16-1.37.16-4.83-2.02-3.45-.24.15-.5.27-.75.4-.28.16.1-.04.14-.06-.08.03-.16.06-.24.09-.22.07-.43.15-.66.22-.39.12-.79.21-1.19.3-.22.04-.43.08-.65.12-.08.01-.39.05.02,0-.15.02-.29.03-.44.05-2.09.27-4.22.06-6.21-.63-.46-.14-.9-.32-1.32-.54-.6-.3-1.18-.64-1.73-1.03-.94-.68-1.77-1.51-2.46-2.45-.38-.51-.72-1.05-1.01-1.62-.09-.24-.17-.48-.23-.72-.07-.22-.11-.45-.11-.69-.07-1.08.14-2.16.61-3.15.47-1.07,1.23-2,2.18-2.68.17-.11.64-.36.63-.35-.21.08.16-.05.21-.06.15-.04.3-.08.45-.11-.36.07.4,0,.57,0-.49-.05.62.23.27.07.96.52,2.15.21,2.73-.72.55-.95.23-2.17-.72-2.73h0Z"/><path class="cls-3" d="M141.28,124.93c2.27,4.13,7.46,5.63,11.58,3.36.09-.05.19-.11.28-.16.95-.56,1.27-1.78.72-2.73-.56-.95-1.78-1.27-2.73-.72h0c-.17.12-.36.23-.54.32-.09.03-.18.07-.26.12.27-.23.31-.12.06-.03-.2.07-.4.13-.6.18-.09.02-.18.04-.28.06-.2.04-.42-.02.08,0-.4-.01-.8.05-1.2.03-.1,0-.19-.02-.29-.02-.42-.03.49.1.08,0-.21-.04-.41-.08-.62-.14s-.4-.12-.6-.19c-.07-.03-.4-.15-.08-.03s0,0-.07-.04c-.37-.18-.7-.48-1.07-.65.13.06.33.28.09.06-.07-.06-.14-.12-.21-.19-.17-.16-.31-.33-.47-.5-.23-.25.2.29.07.09-.05-.08-.11-.16-.16-.23-.12-.19-.24-.39-.34-.6-.56-.95-1.78-1.27-2.73-.72-.93.57-1.24,1.78-.72,2.73h0Z"/><path class="cls-1" d="M164.42,359.58v-10.56h9.34v10.56"/><path class="cls-10" d="M172,316.28c-1.58-1.22-3.78-1.22-5.36,0-3.71,2.9-6.58,6.74-8.31,11.12-.54,1.32-.95,2.69-1.22,4.09-.22,1.34-.36,2.69-.42,4.05-.15,2.39-.29,4.86.57,7.09.77,1.95,2.22,3.55,4.08,4.51,1.85.94,5.91,1.45,7.98,1.45,1.56,0,6.13-.5,7.98-1.45,1.86-.96,3.31-2.56,4.08-4.51.86-2.23.72-4.71.57-7.09-.06-1.36-.2-2.71-.42-4.05-.27-1.4-.68-2.77-1.22-4.09-1.74-4.38-4.61-8.22-8.32-11.12Z"/><path class="cls-3" d="M173,314.55c-1.43-1-3.21-1.38-4.92-1.06-1.68.46-3.21,1.38-4.39,2.66-2.65,2.43-4.81,5.34-6.36,8.59-1.61,3.46-2.51,7.21-2.66,11.02-.24,3.83,0,7.57,2.56,10.63,3.73,4.43,10.72,4.58,16.01,3.82,2.94-.42,5.68-1.19,7.79-3.41,2.7-2.85,3.17-6.59,2.97-10.37-.1-4.25-1.11-8.42-2.96-12.24-1.84-3.63-4.44-6.81-7.63-9.33-.79-.75-2.03-.75-2.82,0-.77.78-.77,2.04,0,2.82,4.7,3.58,7.92,8.76,9.06,14.55.22,1.54.35,3.09.39,4.64.16,1.61.01,3.24-.43,4.79-.77,2.16-2.62,3.76-4.87,4.21-3.8.91-8.49,1.16-12.17-.37-2.39-1.12-3.94-3.51-3.97-6.15-.23-3.17.09-6.36.94-9.42.94-3.05,2.46-5.89,4.49-8.36,1.59-1.92,4.25-5.5,6.96-3.58,2.1,1.49,4.1-1.98,2.01-3.45Z"/><path class="cls-3" d="M171.77,349.01v10.56c0,1.1.89,2,2,2s2-.89,2-2v-10.56c0-1.1-.89-2-2-2s-2,.89-2,2Z"/><path class="cls-3" d="M162.42,349.01v10.56c0,1.1.89,2,2,2s2-.89,2-2v-10.56c0-1.1-.89-2-2-2s-2,.89-2,2Z"/><path class="cls-1" d="M34.23,360.14v-10.56h9.34v10.56"/><path class="cls-10" d="M41.81,316.84c-1.58-1.22-3.78-1.22-5.36,0-3.71,2.9-6.58,6.74-8.31,11.12-.54,1.32-.95,2.69-1.22,4.09-.22,1.34-.36,2.69-.42,4.05-.15,2.39-.29,4.86.57,7.09.77,1.95,2.22,3.55,4.08,4.51,1.85.94,5.91,1.45,7.98,1.45,1.56,0,6.13-.5,7.98-1.45,1.86-.96,3.31-2.56,4.08-4.51.86-2.23.72-4.71.57-7.09-.06-1.36-.2-2.71-.42-4.05-.27-1.4-.68-2.77-1.22-4.09-1.74-4.38-4.61-8.22-8.32-11.12Z"/><path class="cls-3" d="M42.82,315.12c-1.43-1-3.21-1.38-4.92-1.06-1.68.46-3.21,1.38-4.39,2.66-2.65,2.43-4.81,5.34-6.36,8.59-1.61,3.46-2.51,7.21-2.66,11.02-.23,3.83,0,7.57,2.56,10.63,3.73,4.43,10.72,4.58,16.01,3.82,2.93-.42,5.68-1.19,7.79-3.41,2.7-2.85,3.17-6.59,2.97-10.37-.1-4.25-1.11-8.42-2.96-12.24-1.83-3.63-4.44-6.81-7.63-9.33-.79-.75-2.03-.75-2.82,0-.77.78-.77,2.04,0,2.82,4.7,3.58,7.92,8.76,9.06,14.55.22,1.54.35,3.09.39,4.64.16,1.61.01,3.24-.43,4.79-.77,2.16-2.62,3.76-4.87,4.21-3.8.91-8.49,1.16-12.17-.37-2.39-1.12-3.94-3.51-3.97-6.16-.23-3.17.09-6.36.94-9.42.93-3.05,2.46-5.89,4.49-8.36,1.59-1.92,4.25-5.5,6.96-3.58,2.11,1.48,4.1-1.98,2.02-3.45Z"/><path class="cls-3" d="M41.58,349.58v10.56c0,1.1.89,2,2,2s2-.89,2-2v-10.56c0-1.1-.89-2-2-2s-2,.89-2,2Z"/><path class="cls-3" d="M32.24,349.58v10.56c0,1.1.89,2,2,2s2-.89,2-2v-10.56c0-1.1-.89-2-2-2s-2,.89-2,2Z"/><path class="cls-7" d="M15.5,360.34c15.36,0,463.11-.17,477.63-.17"/><path class="cls-3" d="M15.5,362.34h52.1s50.89-.03,50.89-.03l61.3-.02,66.71-.02,67.02-.02,63-.02,53.88-.02h39.8s21.18-.02,21.18-.02h1.76c2.57,0,2.57-3.99,0-3.99h-51.7s-50.76.03-50.76.03l-61.22.02-66.68.02-67.04.02-63.06.02-53.99.02h-39.96s-21.39.02-21.39.02h-1.82c-2.57,0-2.57,3.99,0,3.99h0Z"/><path class="cls-4" d="M397.23,438.7c9.36,9.37,18.52,18.92,27.87,28.29,5.1,4.94,13.2,4.94,18.3,0,19.29-18.93,38.4-38.05,57.33-57.35,5.05-5.05,5.05-13.25,0-18.3-5.05-5.05-13.25-5.05-18.3,0-18.89,19.33-38,38.45-57.33,57.35h18.3c-9.35-9.37-18.52-18.93-27.87-28.29-5.05-5.05-13.25-5.05-18.3,0-5.05,5.05-5.05,13.25,0,18.3h0Z"/></g></svg>