<?xml version="1.0" encoding="UTF-8"?><svg id="_レイヤー_2" xmlns="http://www.w3.org/2000/svg" viewBox="0 0 548.06 551.04"><defs><style>.cls-1{fill:#a88975;}.cls-1,.cls-2,.cls-3,.cls-4,.cls-5,.cls-6,.cls-7,.cls-8,.cls-9,.cls-10,.cls-11,.cls-12{stroke-width:0px;}.cls-2{fill:#947f6e;}.cls-3{fill:#a08c7d;}.cls-4{fill:#41352c;}.cls-5{fill:#cb6850;}.cls-6{fill:#cecece;}.cls-7{fill:#ffdd51;}.cls-8{fill:#fff;}.cls-9{fill:#ff9c31;}.cls-10{fill:#211715;}.cls-11{fill:#ffca8c;}.cls-12{fill:#ffc183;}</style></defs><g id="_レイヤー_1-2"><path class="cls-11" d="M517.04,187.92c29.59,101.73-21.46,219.73-111.72,286.32-90.63,66.59-220.84,81.75-305.19,23.31C16.17,438.73-22.3,305.93,13.21,196.43,48.35,86.93,157.48.37,266.98,0c109.87-.37,220.1,85.82,250.07,187.92Z"/><circle class="cls-11" cx="441.27" cy="444.24" r="106.79"/><path class="cls-4" d="M113.79,324.94c-.08,4.06,1.79,8.07,5.45,11.7,3.45,3.31,8.57,6.11,14.85,8.12,3.61,1.15,7.54,2.03,11.65,2.62l-1.19-.78c.03,4.25,2.23,8.55,7.15,12.06,4.66,3.3,11.32,5.75,18.99,7.01,4.67.76,9.57,1.12,14.48,1.05l-1.4-.4c3.45,3.02,8.32,5.57,14.18,7.44,6.14,1.9,13.07,3.08,20.26,3.42,4.88.25,9.8.18,14.64-.21.86-.12,1.36-.57,1.13-1-.26-.42-1.13-.67-1.99-.57-13.85,1.09-28.79-.63-38.92-5.65-2.54-1.27-4.72-2.7-6.5-4.25-.29-.25-.82-.4-1.4-.4-7.85.14-15.59-.94-22.17-3.09-6.08-2.08-10.65-5.09-13.01-8.58-1.48-2.2-2.22-4.5-2.21-6.82-.01-.36-.49-.68-1.19-.78-6.71-.96-12.81-2.77-17.72-5.25-4.89-2.55-8.4-5.68-10.19-9.09-1.12-2.13-1.68-4.33-1.66-6.54,0-1.04-3.25-1.04-3.24,0Z"/><path class="cls-4" d="M321.71,377.17c12.97-.02,25.93-2.41,34.18-7.58,2.18-1.36,4-2.85,5.42-4.44l-1.4.4c12.94-.02,26.02-1.66,36.68-5.43,9.93-3.56,17.3-8.63,21-14.46,2.27-3.58,3.41-7.33,3.36-11.09,0-1.04-3.24-1.04-3.24,0-.02,6.15-2.97,12.32-9.82,17.47-6.44,4.78-15.85,8.36-26.77,10.19-6.84,1.13-14.01,1.7-21.21,1.69-.58,0-1.11.15-1.4.4-2.32,2.65-5.84,4.99-10.28,6.84-4.55,1.84-9.88,3.13-15.59,3.77-3.59.41-7.26.62-10.94.61-2.09,0-2.09,1.62,0,1.62Z"/><path class="cls-1" d="M252.15,454.38c-8.45,1.77-14.17-4.76-14.33-9.63-.03-4.1.38-8.2,1.23-12.21,1.15-4.88,1.76-13.39,1.27-25.14-1.3-17.32,2.74-30.08,9.64-37.27,4.16-4.33,13.69-10.39,24.67-10.85,5.46-.31,10.93.5,16.06,2.39l2.48.89,2.51,1.33c2.17,1.15,2.97,2.18,5.23,4.18,5.69,5.01,9.88,14.28,10.84,22.7.28,2.43.86,8.23.91,13.15.36,8.44,1.89,16.79,4.54,24.81,1.6,4.68,3.74,10.7,2.42,15.46-1.61,5.82-8.09,9.63-13.93,7.81l-53.52,2.38Z"/><path class="cls-8" d="M289.82,388.92c-1-2.43-2.03-5.52-2.84-8.17-4.34,6.53-10.62,11.52-17.96,14.26-.49.2-1.03.24-1.55.14-.59-.25-.77-.51-.75-1.28.04-1.91.68-5.09.82-6.95-6.08,6.49-12.86,13.43-18.81,18.26-.82-.52-1.78-.77-2.75-.69-1.49,0-2.85.84-3.55,2.15-1.15,2.18-.95,6.12-.03,8.53.65,1.7,1.71,4.31,4.1,6.11,1.14.89,2.63,1.2,4.04.85,1.43,4.29,3.72,8.24,6.74,11.61,2.22,2.59,4.94,4.72,7.99,6.25.08,1.62.07,3.24-.04,4.85-.31,1.34-1.09,2.53-2.21,3.34-1.74,1.05-4.28,1.67-6.38,2.3,4.12,4.39,13.65,6.86,22.64,6.54,8.81-.37,17.31-3.08,21.83-7.98,0,0,.02-.03.07-.07-2.44-.42-5.47-1.18-6.97-2.19-1.02-.6-1.76-1.57-2.05-2.72-.38-1.66-.59-3.36-.65-5.07,6.4-3.78,11.21-12.85,12.05-15.43.46-1.14.84-2.31,1.14-3.5l.36.05c1.33.13,2.66-.31,3.66-1.21,2.24-1.98,3.1-4.66,3.62-6.41.73-2.47.63-6.41-.68-8.5-.79-1.26-2.22-1.98-3.71-1.88-1.17,0-2.3.46-3.12,1.29-4.76-1.17-10.3-5.92-13.68-11.69-.5-.9-.95-1.83-1.33-2.78Z"/><path class="cls-4" d="M311.03,403.91c.38,8.58,1.93,17.07,4.6,25.24,1.22,3.57,2.6,7.25,2.76,11.05.23,3.08-.98,6.09-3.28,8.15-2.44,2.19-5.84,2.98-8.99,2.08-2-.6-2.86,2.53-.86,3.13,6.89,2.05,14.71-2.62,16.11-9.71.8-4.08-.23-8.29-1.47-12.18-1.32-4.16-2.74-8.25-3.66-12.53-1.05-5.02-1.7-10.11-1.96-15.22-.12-2.07-3.36-2.09-3.24,0h0Z"/><path class="cls-4" d="M294.86,365.28c1.1.61,2.11,1.35,3.02,2.21,1.06.97,2.17,1.91,3.17,2.95,1.94,2.07,3.58,4.4,4.86,6.93,2.53,4.99,4.05,10.43,4.49,16.01.34,3.5.59,7.02.63,10.54.02,2.08,3.26,2.09,3.24,0-.04-3.28-.26-6.56-.56-9.83-.2-2.77-.6-5.51-1.19-8.22-1.4-6.23-4.29-12.03-8.43-16.89-1.18-1.26-2.43-2.46-3.74-3.59-1.16-1.12-2.46-2.09-3.86-2.88-1.84-.99-3.47,1.81-1.64,2.8h0Z"/><path class="cls-4" d="M291.12,360.1c-5.75-2.06-11.87-2.86-17.95-2.35-6.16.59-12.11,2.58-17.39,5.82-3.96,2.31-7.38,5.45-10.03,9.2-2.73,4.14-4.67,8.75-5.72,13.6-1.5,6.9-1.95,13.99-1.34,21.02.02.89.73,1.6,1.62,1.62.89,0,1.61-.73,1.62-1.62-.77-10.54.02-22.06,5.56-31.34,4.88-8.18,14.44-13.37,23.8-14.84,6.39-.91,12.9-.22,18.95,2.01.86.24,1.76-.27,1.99-1.13.24-.86-.27-1.76-1.13-1.99h0Z"/><path class="cls-4" d="M238.7,407.39c.2,4.84.26,9.7.01,14.54-.1,3.22-.47,6.43-1.09,9.6-.9,4.03-1.38,8.13-1.43,12.26-.01,3.31,1.36,6.48,3.79,8.74,3.38,3.15,8.1,4.42,12.61,3.41.86-.25,1.36-1.13,1.13-1.99-.25-.85-1.13-1.35-1.99-1.13-3.35.73-6.84-.2-9.38-2.51-1.02-.93-1.83-2.07-2.38-3.34-.21-.56-.37-1.13-.48-1.71-.09-.51.01.31-.02-.2,0-.1-.01-.21-.02-.31-.02-.51-.02-1.01,0-1.52.1-3.69.55-7.37,1.34-10.98.62-3.16,1-6.36,1.14-9.58.29-5.08.23-10.18.03-15.27-.09-2.08-3.33-2.09-3.24,0h0Z"/><path class="cls-9" d="M224.86,484.07c1.54-7.28,4.17-15.28,7.39-20.12,5.52-8.33,14.82-10.45,24.25-13.65,4.03,4.49,13.68,7.03,22.78,6.71,9.09-.38,17.86-3.26,22.26-8.46,9.95,2.83,17.04,5.46,22.64,10.96,3.98,4.37,8.5,13.2,10.42,24.56h-109.74Z"/><path class="cls-4" d="M226.42,484.5c.76-3.63,1.75-7.2,2.97-10.7,1.01-3.06,2.38-6,4.07-8.74,3.34-5.19,8.77-8.09,14.41-10.15,3.42-1.25,6.92-2.29,10.36-3.49.85-.26,1.35-1.13,1.13-1.99-.24-.86-1.13-1.36-1.99-1.13-6.26,2.19-12.9,3.79-18.6,7.29-2.82,1.71-5.28,3.95-7.25,6.59-1.94,2.78-3.49,5.81-4.62,9.01-1.53,4.05-2.74,8.22-3.61,12.46-.43,2.03,2.69,2.9,3.13.86h0Z"/><path class="cls-4" d="M300.71,450c6.57,1.86,13.34,3.85,18.98,7.84,2.18,1.53,4.06,3.45,5.54,5.66,1.68,2.55,3.1,5.27,4.22,8.11,1.65,4.16,2.85,8.47,3.58,12.88.24.86,1.13,1.36,1.99,1.13.85-.25,1.35-1.13,1.13-1.99-1.26-7.35-3.67-14.75-7.69-21.08-1.52-2.47-3.46-4.65-5.73-6.45-2.67-2.05-5.59-3.74-8.7-5.03-4.06-1.66-8.23-3.06-12.47-4.2-2.01-.57-2.87,2.56-.86,3.13h0Z"/><path class="cls-4" d="M250.31,404.37c-1.94-1.64-4.68-1.97-6.96-.83-1.66.91-2.79,2.54-3.08,4.41-.76,4.28.28,8.68,2.87,12.17,1.83,2.45,4.35,4.19,7.52,3.65.86-.24,1.36-1.13,1.13-1.99-.25-.85-1.13-1.35-1.99-1.13-2.03.35-3.7-1.74-4.61-3.27-.96-1.56-1.59-3.31-1.85-5.13-.2-1.64-.24-3.71.7-5.15.21-.31-.06.05.16-.19.03-.03.34-.32.19-.2.32-.24.69-.41,1.08-.5.88-.25,1.82-.08,2.55.47.64.61,1.65.61,2.29,0,.63-.64.63-1.66,0-2.29h0Z"/><path class="cls-4" d="M305.99,404.53c.68-.65,1.63-.93,2.55-.77.67.06,1.28.42,1.67.97-.16-.2-.04-.05.03.07.1.18.21.35.3.54.18.43.31.88.4,1.34.2,1,.27,2.03.2,3.05-.12,1.76-.59,3.48-1.38,5.05-.92,1.86-2.4,3.92-4.71,3.7-.89,0-1.61.73-1.62,1.62.02.89.73,1.6,1.62,1.62,4.97.46,7.81-4.95,8.9-9.01.57-2.22.62-4.53.15-6.77-.28-1.87-1.32-3.54-2.88-4.61-2.43-1.4-5.49-1.03-7.52.9-1.5,1.45.79,3.75,2.29,2.29h0Z"/><path class="cls-4" d="M303.58,417.56c-.21,1.22-.51,2.42-.89,3.6-.29.94-.54,1.57-.79,2.24-.04.1-.08.2-.12.31-.11.31,0,.02-.02.06-.13.29-.26.58-.39.86-.31.65-.65,1.3-1,1.93-1.83,3.42-4.23,6.51-7.08,9.14-1.53,1.42-3.36,2.48-5.35,3.08-2.01.55-1.16,3.68.86,3.13,4.24-1.16,7.66-4.35,10.33-7.71,2.34-2.86,4.26-6.04,5.71-9.44.09-.23.18-.46.26-.69-.16.47.17-.44.23-.59.1-.26.19-.51.27-.77.48-1.39.85-2.82,1.11-4.27.21-.86-.29-1.73-1.13-1.99-.86-.23-1.75.27-2,1.13Z"/><path class="cls-4" d="M248.34,420.44c2.84,10.62,11.21,21.52,22.78,22.79.89,0,1.62-.73,1.62-1.62-.02-.89-.73-1.6-1.62-1.62-5.02-.55-9.17-3.55-12.5-7.18-3.41-3.77-5.86-8.31-7.15-13.22-.54-2.01-3.67-1.16-3.13.86h0Z"/><path class="cls-4" d="M275.46,428.03c.2-.12.4-.23.61-.33.13-.05.25-.1.37-.17-.26.2-.24.1-.04.02.08-.03.16-.06.24-.09.39-.13.8-.24,1.21-.32.14-.03.27-.05.41-.07-.24.04-.04,0,.09,0,.3-.03.61-.05.92-.07.55-.02,1.11,0,1.66.05.18.02.27.04.04,0,.12.02.25.04.37.07.18.04.37.08.55.13s.34.11.52.17c.3.11-.09,0-.1-.05.07.04.14.07.21.1.2.1.4.22.59.35.77.45,1.76.19,2.22-.58.43-.78.17-1.75-.58-2.22-1.52-1.1-3.65-1.32-5.46-1.26-1.91.03-3.77.54-5.44,1.47-.77.45-1.03,1.44-.58,2.22.45.77,1.44,1.03,2.22.58h0Z"/><path class="cls-4" d="M277.97,413.9c.14.46.27.92.39,1.38.14.48.26.97.34,1.47l-.06-.43c.01.1.01.2,0,.3l.06-.43c0,.06-.02.12-.04.18l.16-.39s-.04.08-.07.11l.25-.33s-.04.04-.06.06l.33-.25c-.09.06-.18.11-.27.15l.39-.16c-.11.05-.23.08-.36.1l.43-.06c-.12.01-.25.01-.38,0l.43.06c-.25-.03-.5-.08-.74-.1-.43,0-.84.17-1.15.47-.63.63-.63,1.66,0,2.29.32.29.72.45,1.15.47h.07s-.43-.05-.43-.05c.3.06.61.1.92.11.5-.02.98-.15,1.42-.39.54-.28.93-.78,1.07-1.37.09-.49.08-.99-.05-1.47-.18-.87-.42-1.73-.68-2.58-.12-.4-.38-.75-.74-.97-.77-.45-1.77-.19-2.22.58-.22.38-.28.83-.16,1.25h0Z"/><path class="cls-4" d="M263.29,406.64c-.41,1.52.03,4.95,2.88,5.13,3.75-.17,3.79-4.34,2.45-6.25-1.1-1.56-4.16-2.11-5.33,1.12Z"/><path class="cls-4" d="M293.33,405.49c.52,1.48.35,4.94-2.48,5.34-3.75.12-4.11-4.04-2.92-6.04.97-1.64,3.99-2.43,5.4.7Z"/><path class="cls-4" d="M262.55,397.62c-.26.27-.54.53-.85.75l.33-.25c-.67.55-1.41,1.02-2.2,1.39l.39-.16c-.08.03-.15.06-.23.08-.4.12-.75.38-.97.74-.45.77-.19,1.77.58,2.22.38.21.83.27,1.25.16.38-.12.75-.28,1.09-.48.33-.18.66-.39.97-.6.42-.29.83-.6,1.23-.92.25-.19.49-.41.7-.64.3-.31.46-.72.47-1.15,0-.43-.17-.84-.47-1.15-.63-.63-1.66-.63-2.29,0h0Z"/><path class="cls-10" d="M263.65,439.96c.06,1.21.07,2.43.04,3.64,0,.29-.02.58-.04.86,0,.1,0,.2-.02.29.08-.48-.07.1-.1.19-.22.56-.54,1.08-.95,1.52-.11.11-.22.22-.34.32.26-.2-.23.12-.29.15-.28.16-.56.29-.85.42-.18.08-.2.09-.07.03-.1.04-.21.08-.31.12-.16.06-.32.12-.48.18-.38.14-.77.26-1.15.38-1.42.44-2.86.79-4.26,1.29-.85.26-1.35,1.13-1.13,1.99.24.86,1.13,1.36,1.99,1.13,1.57-.55,3.19-.93,4.76-1.45,1.59-.52,3.38-1.13,4.53-2.4,1.18-1.26,1.87-2.91,1.94-4.64.06-1.34.05-2.69-.02-4.03-.02-.89-.73-1.6-1.62-1.62-.89,0-1.61.73-1.62,1.62h0Z"/><path class="cls-4" d="M302.89,447.59c-.37-.05.26.04-.1-.01l-.43-.06c-.33-.05-.66-.11-.99-.17-.66-.12-1.31-.25-1.96-.41-.68-.16-1.36-.34-2.03-.55-.3-.1-.61-.2-.9-.31-.14-.05-.28-.11-.42-.16.26.11-.05-.02-.14-.07-.24-.11-.47-.23-.69-.36-.11-.07-.22-.14-.33-.21-.39-.25.18.18-.18-.14-.12-.11-.24-.22-.36-.33,0,0-.33-.37-.18-.17-.17-.2-.3-.43-.38-.68-.39-1.53-.61-3.1-.67-4.67-.02-.89-.73-1.6-1.62-1.62-.89,0-1.61.73-1.62,1.62.02,1.93.3,3.85.84,5.7.61,1.56,1.79,2.82,3.3,3.54,2.71,1.37,5.86,1.92,8.85,2.3.89,0,1.62-.73,1.62-1.62-.02-.89-.73-1.6-1.62-1.62h0Z"/><path class="cls-4" d="M255.75,451.88c4.49,4.38,11.38,5.94,17.41,6.55,6.97.76,14.02-.17,20.55-2.71,3.21-1.21,6.12-3.1,8.54-5.54,1.43-1.52-.86-3.82-2.29-2.29-3.92,4.18-9.82,6.06-15.33,6.97-6.38,1.08-12.92.66-19.11-1.23-2.69-.85-5.43-2.05-7.48-4.04-1.49-1.46-3.79.83-2.29,2.29h0Z"/><path class="cls-4" d="M285.52,381.52c.82,2.65,1.69,5.3,2.75,7.87.97,2.35,2.25,4.55,3.81,6.55,3.06,3.95,7.25,7.66,12.17,8.99,2.02.54,2.88-2.58.86-3.13-4.3-1.16-7.98-4.54-10.62-8-2.97-3.88-4.42-8.53-5.85-13.15-.61-1.99-3.75-1.14-3.13.86h0Z"/><path class="cls-4" d="M285.56,379.97c-2.96,4.37-6.83,8.05-11.35,10.77-1.14.68-2.32,1.29-3.52,1.85-.61.28-1.22.54-1.84.77-.26.05-.51.13-.75.24-.16-.01-.16.01.01.07.09.12.17.25.23.39-.24-.13.23-2.62.3-3.12.19-1.33.41-2.67.52-4.01.12-1.41-1.85-2.13-2.77-1.15-4.95,5.29-9.99,10.52-15.4,15.35-1.56,1.39.74,3.68,2.29,2.29,5.41-4.83,10.45-10.06,15.4-15.35l-2.77-1.15c-.19,2.22-.71,4.41-.81,6.64-.06,1.25.29,2.33,1.45,2.94,1.31.69,2.76.14,4.02-.37,4.59-1.86,8.78-4.58,12.34-8.02,2.03-1.98,3.85-4.16,5.43-6.51,1.18-1.73-1.63-3.35-2.8-1.64h0Z"/><path class="cls-8" d="M250.16,450.65c.65-2.26,1.73-4.37,3.17-6.23,1.16-1.6,2.5-3.07,3.98-4.38,1.7-1.28,3.73-2.05,5.85-2.25,3.17-.42,6.37-.51,9.55-.28,1.37.06,2.44,1.18,2.45,2.55-.07,1.18-.95,2.15-2.12,2.33-1.45.22-3.46.29-5.87.73-2.76.5-2.84.76-4.2,2.03l-.13.19c2.71-.06,5.94.1,7.38.76.54.25,2.5,1.39,2.98,1.72,2.29,1.58,3.48,2.74,4.19,4.21.27.82.22,1.71-.14,2.49-.28.57-1.23,1.32-2.73.85.86.78,1.22,1.96.95,3.08-.38,1.22-1.48,2.07-2.76,2.11.61.57.27,2.11-.2,2.77-.49.69-1.9.75-2.63.49-.62-.25-1.26-.46-1.91-.61-.04.21-.06.33-.06.33-.14.75-.44,2.5-.68,3.22-.68,2.12-1.65,4.46-3.59,5.6-.97.45-1.95.84-2.96,1.19-.84.39-1.58,2.31-2.03,3.65,0,.03-.04.04-.07.04,0,0,0,0,0,0-4.2-1.38-9.12-3.07-13.06-4.34-.26-.09-.41-.37-.32-.63,0,0,0-.01,0-.02.65-1.82,1.07-2.8,1.47-4,.56-2.01,1.01-4.05,1.35-6.11.79-5.4,1.04-7.52,1.75-10.22.13-.45.26-.88.38-1.28Z"/><path class="cls-4" d="M259.61,447.14c1.89-.19,3.8-.25,5.7-.18.93.02,1.86.09,2.78.22.4.07.79.16,1.18.26.09.03.19.06.28.09-.17-.07-.18-.08-.05-.02.15.07.29.15.43.22,1.76.88,3.39,2.01,4.83,3.35.5.5,1.2,1.22,1.21,1.92,0,.22-.04.45-.1.66-.09.32.1-.06-.03.08-.03.04-.08.07-.13.09-.19.05-.38.05-.57,0-2.03-.44-2.9,2.68-.86,3.13,2.62.57,4.68-.92,4.92-3.58.21-2.26-1.51-4.15-3.15-5.48-1.48-1.22-3.09-2.27-4.8-3.13-1.66-.69-3.44-1.04-5.24-1.03-2.13-.12-4.26-.07-6.38.15-.88.03-1.6.74-1.62,1.62,0,.89.73,1.61,1.62,1.62h0Z"/><path class="cls-4" d="M263.51,452.72c1.58-.02,3.15.26,4.63.82-.05-.02.56.23.29.11.16.07.32.14.48.21.33.15.66.31.99.47.69.35,1.37.72,2.03,1.12.29.18.57.36.85.55.05.03.4.29.26.19s.18.15.21.18c.2.16.37.35.5.57.1.17.16.35.19.54,0,.08,0,.47,0,.39.02-.16-.08.27-.08.29-.04.11-.02.07.05-.12-.03.06-.06.11-.09.16-.03.04-.26.36-.14.22s-.18.16-.22.2c-.08.07-.07.06.03-.02-.06.04-.13.09-.2.12-.19.1-.39.17-.6.2-.89.02-1.6.74-1.62,1.62,0,.89.73,1.62,1.62,1.62,1.94-.19,3.81-1.31,4.32-3.3.59-2.27-.61-4.18-2.38-5.47-3.22-2.44-7.12-3.82-11.16-3.93-2.09-.01-2.09,3.23,0,3.24h0Z"/><path class="cls-4" d="M264.6,458.67c.06,0,.32.04.01,0l.22.03c.17.02.34.05.51.08.35.06.71.14,1.06.22.33.08.65.17.97.27.16.05.32.11.48.17.07.02.14.05.2.08.11.04.3.13.09.04,1.14.54,2.22,1.2,3.21,1.98.03.02.28.21.14.11-.12-.1.09.07.09.07.06.03.24.37-.1-.14.03.04.11.2-.01-.04s-.03-.06-.02.02c.03.17-.02-.21-.02-.2-.02.13-.02.27,0,.41,0,.24-.06-.09.02-.12-.01.05-.03.1-.03.16-.03.12-.06.24-.09.35-.02.05-.04.1-.05.14-.05.2.16-.28.05-.12-.05.07-.25.39-.07.18.16-.2.06-.07.02-.03-.19.19.09-.09.11-.08-.04.02-.08.04-.12.07-.18.1.32-.08.12-.05-.11.02-.24.06-.35.09-.05.01-.24.04,0,0,.27-.05-.06,0-.1,0-.12,0-.24-.02-.36-.01-.16.01.17.02.19.03-.06-.02-.12-.03-.18-.03-.2-.05-.39-.12-.58-.2-.76-.3-1.55-.5-2.36-.59-.88-.07-1.76.16-2.49.66-.77.45-1.03,1.44-.58,2.22s1.44,1.03,2.22.58c.07-.05.15-.09.22-.14.26-.16,0-.03-.04,0,.15-.06.3-.1.46-.14.02.06-.42-.03-.14.03.09.02.19.01.28.02-.07,0-.32-.06-.01,0,.11.03.23.05.34.08.59.15,1.15.42,1.74.58,1.51.41,3.43.07,4.33-1.32.76-1.17,1.05-3.03.28-4.25-.33-.43-.73-.8-1.19-1.09-.33-.25-.66-.49-1-.72-.57-.4-1.17-.76-1.79-1.07-1.78-.84-3.7-1.37-5.66-1.55-.9,0-1.62.73-1.62,1.62.03.88.74,1.6,1.62,1.62h0Z"/><path class="cls-4" d="M251.94,443.61c-5.02,6.55-4.48,15.1-6.45,22.73-.22.9-.48,1.8-.79,2.67-.44.98-.8,1.99-1.08,3.03-.33,1.75,1.16,2.34,2.51,2.77,1.19.39,2.37.78,3.55,1.17,2.47.82,4.93,1.65,7.4,2.47.71.23,1.4.57,2.14.28.6-.3,1.03-.86,1.16-1.53.16-.46.34-.91.55-1.35.11-.21.22-.41.34-.62.03-.05.25-.31.11-.2.56-.3,1.16-.53,1.79-.67.67-.25,1.31-.58,1.89-1,1.02-.79,1.85-1.79,2.44-2.93.99-2.04,1.66-4.21,1.99-6.46.21-.86-.28-1.74-1.13-1.99-.86-.23-1.75.27-1.99,1.13-.48,2.52-.93,5.55-2.9,7.39-1.18,1.1-2.98,1.02-4.17,2.08-1.16,1.04-1.7,2.77-2.18,4.2l.74-.97-.07.03,1.25-.16c-2.21-.73-4.42-1.47-6.63-2.21-1.08-.36-2.17-.72-3.25-1.08-.54-.18-1.08-.36-1.63-.54-.46-.11-.91-.25-1.34-.44l.58.58v.04s0,.86,0,.86c.17-1.21.88-2.46,1.29-3.61.37-1.13.67-2.27.92-3.43.67-2.8.97-5.67,1.4-8.51.66-4.32,1.67-8.57,4.38-12.11.45-.77.19-1.76-.58-2.22-.78-.43-1.75-.17-2.22.58h0Z"/><path class="cls-4" d="M254.74,445.24c.78-1.04,1.63-2.03,2.55-2.95.73-.81,1.61-1.48,2.59-1.94,2.51-1.16,5.52-1.25,8.24-1.32,1.18-.03,2.36-.02,3.54.04.72.04,1.62-.1,1.87.69.23.73-.56,1.01-1.1,1.09-1.27.18-2.59.25-3.88.42-1.47.12-2.91.44-4.3.93-.91.44-1.72,1.05-2.41,1.78-1.53,1.43.77,3.71,2.29,2.29.2-.18.39-.37.59-.55.06-.06.57-.46.27-.25.14-.1.29-.19.45-.27.26-.14.07-.04.01-.01.16-.06.32-.11.49-.16,1.53-.39,3.1-.65,4.67-.76,1.39-.14,2.96-.11,4.19-.84,1.49-.88,2.25-2.6,1.9-4.29-.35-1.51-1.5-2.7-2.99-3.1-1.31-.26-2.64-.35-3.97-.27-3.3-.03-6.94.07-10.07,1.19-3.36,1.21-5.63,3.86-7.72,6.65-.45.77-.19,1.76.58,2.22.78.43,1.75.17,2.22-.58h0Z"/><path class="cls-8" d="M267.76,296.91c0-25.16-.17-222.25-.17-224.33h119.36c0,2.07.17,198.67.17,223.83"/><path class="cls-7" d="M321.57,125.9c-1.32,0-28.56.03-30.77.03v12.16h30.71c0-2.36.06-11.52.06-12.19Z"/><path class="cls-7" d="M366.08,125.9c-1.32,0-28.56.03-30.77.03v12.16h30.71c0-2.36.06-11.52.06-12.19Z"/><path class="cls-4" d="M378.53,136.18h-101.66c-2.46,0-2.47,3.83,0,3.83h101.66c2.46,0,2.47-3.83,0-3.83Z"/><path class="cls-7" d="M321.57,147.01c-1.32,0-28.56.03-30.77.03v12.16h30.71c0-2.36.06-11.52.06-12.19Z"/><path class="cls-7" d="M366.08,147.01c-1.32,0-28.56.03-30.77.03v12.16h30.71c0-2.36.06-11.52.06-12.19Z"/><path class="cls-10" d="M378.53,166.21h-101.66c-2.46,0-2.47,3.83,0,3.83h101.66c2.46,0,2.47-3.83,0-3.83Z"/><path class="cls-4" d="M378.53,157.29h-101.66c-2.46,0-2.47,3.83,0,3.83h101.66c2.46,0,2.47-3.83,0-3.83Z"/><path class="cls-4" d="M273.82,72.58c0,4.7,0,9.41.02,14.11l.04,32.83.05,41.26c.01,13.16.03,26.32.04,39.48,0,9.04.01,18.08.02,27.12v1.99c0,2.46,3.83,2.47,3.83,0,0-8.33,0-16.67-.02-25-.01-12.81-.03-25.62-.04-38.42-.02-13.86-.03-27.72-.05-41.58-.01-11.5-.03-23.01-.04-34.51,0-5.63.11-11.27-.02-16.89v-.37c0-2.46-3.83-2.47-3.83,0h0Z"/><path class="cls-4" d="M265.68,72.58c0,4.7,0,9.41.02,14.11l.04,32.83.05,41.26c.01,13.16.03,26.32.04,39.48,0,9.04.01,18.08.02,27.12v1.99c0,2.46,3.83,2.47,3.83,0,0-8.33,0-16.67-.02-25-.01-12.81-.02-25.62-.04-38.42-.02-13.86-.03-27.72-.05-41.58-.01-11.5-.03-23.01-.04-34.51,0-5.63.11-11.27-.02-16.89v-.37c0-2.46-3.83-2.47-3.83,0h0Z"/><path class="cls-4" d="M387.17,70.67h-119.58c-2.46,0-2.47,3.83,0,3.83h119.58c2.46,0,2.47-3.83,0-3.83Z"/><path class="cls-4" d="M381.35,193.33c-.08-18.93-.15-37.86-.22-56.79-.06-16.72-.11-33.45-.16-50.17-.01-4.6-.02-9.19-.03-13.79,0-2.46-3.83-2.47-3.83,0,0,11.05.05,22.11.09,33.15.06,18.93.12,37.86.19,56.79.04,10.27.08,20.53.12,30.8.01,2.46,3.84,2.47,3.83,0h0Z"/><path class="cls-4" d="M385.04,72.58c0,3.49,0,6.98.02,10.47l.04,24.22c.02,10.29.03,20.58.05,30.87.02,10.13.03,20.26.04,30.4,0,7.63.02,15.25.02,22.88v1.91c0,2.46,3.83,2.47,3.83,0,0-7.11,0-14.23-.02-21.34-.01-9.94-.02-19.89-.04-29.83-.02-10.4-.03-20.8-.05-31.2l-.04-25.46c0-4.2.1-8.42-.02-12.62v-.3c0-2.46-3.83-2.47-3.83,0h0Z"/><path class="cls-4" d="M378.53,145.1h-101.66c-2.46,0-2.47,3.83,0,3.83h101.66c2.46,0,2.47-3.83,0-3.83Z"/><path class="cls-7" d="M321.57,104.8c-1.32,0-28.56.03-30.77.03v12.16h30.71c0-2.36.06-11.52.06-12.19Z"/><path class="cls-7" d="M366.08,104.8c-1.32,0-28.56.03-30.77.03v12.16h30.71c0-2.36.06-11.52.06-12.19Z"/><path class="cls-4" d="M378.53,115.07h-101.66c-2.46,0-2.47,3.83,0,3.83h101.66c2.46,0,2.47-3.83,0-3.83Z"/><path class="cls-10" d="M378.53,102.88h-101.66c-2.46,0-2.47,3.83,0,3.83h101.66c2.46,0,2.47-3.83,0-3.83Z"/><path class="cls-4" d="M378.53,102.29h-101.66c-2.46,0-2.47,3.83,0,3.83h101.66c2.46,0,2.47-3.83,0-3.83Z"/><path class="cls-7" d="M321.57,83.1c-1.32,0-28.56.03-30.77.03v12.16h30.71c0-2.36.06-11.52.06-12.19Z"/><path class="cls-7" d="M366.08,83.1c-1.32,0-28.56.03-30.77.03v12.16h30.71c0-2.36.06-11.52.06-12.19Z"/><path class="cls-4" d="M366.08,81.18c-8.72,0-17.43,0-26.15.02h-4.62c-1.05.01-1.9.86-1.91,1.91v12.16c.02,1.05.86,1.9,1.91,1.91h30.71c1.05-.01,1.9-.86,1.91-1.91,0-4.06.06-8.13.06-12.19,0-2.46-3.83-2.47-3.83,0,0,4.06-.06,8.13-.06,12.19l1.91-1.91h-30.71l1.91,1.91v-12.16l-1.91,1.91c8.87,0,17.74,0,26.61-.02h4.16c2.46,0,2.47-3.83,0-3.83Z"/><path class="cls-4" d="M378.53,93.37h-101.66c-2.46,0-2.47,3.83,0,3.83h101.66c2.46,0,2.47-3.83,0-3.83Z"/><path class="cls-4" d="M378.53,81.18h-101.66c-2.46,0-2.47,3.83,0,3.83h101.66c2.46,0,2.47-3.83,0-3.83Z"/><path class="cls-7" d="M321.57,168.71c-1.32,0-28.56.03-30.77.03v12.16h30.71c0-2.36.06-11.52.06-12.19Z"/><path class="cls-7" d="M366.08,168.71c-1.32,0-28.56.03-30.77.03v12.16h30.71c0-2.36.06-11.52.06-12.19Z"/><path class="cls-4" d="M321.57,123.99c-8.72,0-17.43,0-26.15.02h-4.62c-1.05.02-1.9.86-1.91,1.91v12.16c.01,1.05.86,1.9,1.91,1.91h30.71c1.05-.02,1.9-.86,1.91-1.91,0-4.06.06-8.13.06-12.19,0-2.46-3.83-2.47-3.83,0,0,4.06-.06,8.13-.06,12.19l1.91-1.91h-30.71l1.91,1.91v-12.16l-1.91,1.91c8.87,0,17.74,0,26.61-.02h4.16c2.46,0,2.47-3.83,0-3.83Z"/><path class="cls-4" d="M366.08,123.99c-8.72,0-17.43,0-26.15.02h-4.62c-1.05.02-1.9.86-1.91,1.91v12.16c.01,1.05.86,1.9,1.91,1.91h30.71c1.05-.01,1.9-.86,1.91-1.91,0-4.06.06-8.13.06-12.19,0-2.46-3.83-2.47-3.83,0,0,4.06-.06,8.13-.06,12.19l1.91-1.91h-30.71l1.91,1.91v-12.16l-1.91,1.91c8.87,0,17.74,0,26.61-.02h4.16c2.46,0,2.47-3.83,0-3.83Z"/><path class="cls-4" d="M321.57,145.1c-8.72,0-17.43,0-26.15.02-1.54,0-3.08,0-4.62,0-1.05.01-1.9.86-1.91,1.91v12.16c.01,1.05.86,1.9,1.91,1.91h30.71c1.05-.02,1.9-.86,1.91-1.91,0-4.06.06-8.13.06-12.19,0-2.46-3.83-2.47-3.83,0,0,4.06-.06,8.13-.06,12.19l1.91-1.91h-30.71l1.91,1.91v-12.16l-1.91,1.91c8.87,0,17.74,0,26.61-.02h4.16c2.46,0,2.47-3.83,0-3.83Z"/><path class="cls-4" d="M366.08,145.1c-8.72,0-17.43,0-26.15.02-1.54,0-3.08,0-4.62,0-1.05.01-1.9.86-1.91,1.91v12.16c.02,1.05.86,1.9,1.91,1.91h30.71c1.05-.01,1.9-.86,1.91-1.91,0-4.06.06-8.13.06-12.19,0-2.46-3.83-2.47-3.83,0,0,4.06-.06,8.13-.06,12.19l1.91-1.91h-30.71l1.91,1.91v-12.16l-1.91,1.91c8.87,0,17.74,0,26.61-.02h4.16c2.46,0,2.47-3.83,0-3.83Z"/><path class="cls-4" d="M321.57,102.88c-8.72,0-17.43,0-26.15.02h-4.62c-1.05.01-1.9.86-1.91,1.91v12.16c.01,1.05.86,1.9,1.91,1.91h30.71c1.05-.02,1.9-.86,1.91-1.91,0-4.06.06-8.13.06-12.19,0-2.46-3.83-2.47-3.83,0,0,4.06-.06,8.13-.06,12.19l1.91-1.91h-30.71l1.91,1.91v-12.16l-1.91,1.91c8.87,0,17.74,0,26.61-.02h4.16c2.46,0,2.47-3.83,0-3.83Z"/><path class="cls-4" d="M366.08,102.88c-8.72,0-17.43,0-26.15.02h-4.62c-1.05.01-1.9.86-1.91,1.91v12.16c.02,1.05.86,1.9,1.91,1.91h30.71c1.05-.01,1.9-.86,1.91-1.91,0-4.06.06-8.13.06-12.19,0-2.46-3.83-2.47-3.83,0,0,4.06-.06,8.13-.06,12.19l1.91-1.91h-30.71l1.91,1.91v-12.16l-1.91,1.91c8.87,0,17.74,0,26.61-.02h4.16c2.46,0,2.47-3.83,0-3.83Z"/><path class="cls-4" d="M321.57,81.18c-8.72,0-17.43,0-26.15.02h-4.62c-1.05.01-1.9.86-1.91,1.91v12.16c.01,1.05.86,1.9,1.91,1.91h30.71c1.05-.02,1.9-.86,1.91-1.91,0-4.06.06-8.13.06-12.19,0-2.46-3.83-2.47-3.83,0,0,4.06-.06,8.13-.06,12.19l1.91-1.91h-30.71l1.91,1.91v-12.16l-1.91,1.91c8.87,0,17.74,0,26.61-.02h4.16c2.46,0,2.47-3.83,0-3.83Z"/><path class="cls-4" d="M321.57,166.8c-8.72,0-17.43,0-26.15.02h-4.62c-1.05.01-1.9.86-1.91,1.91v12.16c.01,1.05.86,1.9,1.91,1.91h30.71c1.05-.02,1.9-.86,1.91-1.91,0-4.06.06-8.13.06-12.19,0-2.46-3.83-2.47-3.83,0,0,4.06-.06,8.13-.06,12.19l1.91-1.91h-30.71l1.91,1.91v-12.16l-1.91,1.91c8.87,0,17.74,0,26.61-.02h4.16c2.46,0,2.47-3.83,0-3.83Z"/><path class="cls-4" d="M366.08,166.8c-8.72,0-17.43,0-26.15.02h-4.62c-1.05.01-1.9.86-1.91,1.91v12.16c.02,1.05.86,1.9,1.91,1.91h30.71c1.05-.01,1.9-.86,1.91-1.91,0-4.06.06-8.13.06-12.19,0-2.46-3.83-2.47-3.83,0,0,4.06-.06,8.13-.06,12.19l1.91-1.91h-30.71l1.91,1.91v-12.16l-1.91,1.91c8.87,0,17.74,0,26.61-.02h4.16c2.46,0,2.47-3.83,0-3.83Z"/><path class="cls-4" d="M378.53,178.99h-101.66c-2.46,0-2.47,3.83,0,3.83h101.66c2.46,0,2.47-3.83,0-3.83Z"/><path class="cls-4" d="M378.53,166.8h-101.66c-2.46,0-2.47,3.83,0,3.83h101.66c2.46,0,2.47-3.83,0-3.83Z"/><path class="cls-4" d="M378.53,123.99h-101.66c-2.46,0-2.47,3.83,0,3.83h101.66c2.46,0,2.47-3.83,0-3.83Z"/><path class="cls-8" d="M246.54,296.6c0-11.04-.23-103.22-.23-115.37h-89.01s.25,115.12,0,115.37"/><path class="cls-4" d="M248.45,229.09c0-12.78-.14-25.56-.2-38.34-.02-3.18-.02-6.35-.03-9.53-.01-1.05-.86-1.9-1.91-1.91h-78.16c-2.46,0-2.47,3.83,0,3.83h78.16l-1.91-1.91c0,12.97.14,25.94.2,38.91.02,2.98.02,5.97.03,8.96,0,2.46,3.83,2.47,3.83,0Z"/><path class="cls-4" d="M210.31,194.12c8.38,0,16.75-.1,25.13-.11,2.46,0,2.47-3.83,0-3.83-8.38,0-16.75.1-25.13.11-2.46,0-2.47,3.83,0,3.83Z"/><path class="cls-4" d="M221.16,202.11c4.76,0,9.52-.1,14.28-.11,2.46,0,2.47-3.83,0-3.83-4.76,0-9.52.1-14.28.11-2.46,0-2.47,3.83,0,3.83h0Z"/><path class="cls-8" d="M297.06,296.6c-.02-17.14-.04-89.87-.04-93.64h131.16v1.11c0,5.65.08,79.7.08,91.94"/><path class="cls-4" d="M298.98,296.6c-.01-12.75-.02-25.49-.02-38.24,0-14.78-.01-29.55-.01-44.33v-11.08l-1.91,1.91h131.16l-1.91-1.91c0,16.66.01,33.32.04,49.98,0,6.31.01,12.62.02,18.92,0,2.46,3.83,2.47,3.83,0-.02-20.53-.03-41.06-.05-61.59v-7.31c-.01-1.05-.86-1.9-1.91-1.91h-131.17c-1.05.02-1.9.86-1.91,1.91,0,9.57,0,19.13,0,28.69,0,15.68.01,31.35.02,47.03,0,5.98,0,11.95.01,17.93,0,2.46,3.83,2.47,3.83,0h0Z"/><path class="cls-7" d="M377.79,252.41c-1.32,0-28.41.04-30.61.04v37.31h30.55c0-3.3.06-36.42.06-37.35Z"/><path class="cls-4" d="M377.79,250.49c-8.69,0-17.38.01-26.07.03-1.52,0-3.03,0-4.55,0-1.05.01-1.9.86-1.91,1.91v37.32c.01,1.05.86,1.9,1.91,1.91h30.55c1.05-.01,1.9-.86,1.91-1.91,0-10.89.02-21.79.05-32.68,0-1.56,0-3.11,0-4.67,0-2.46-3.83-2.47-3.83,0,0,10.49-.02,20.97-.05,31.46,0,1.97,0,3.93,0,5.89l1.91-1.91h-30.55l1.91,1.91v-37.31l-1.91,1.91c8.84,0,17.68-.01,26.52-.03,1.36,0,2.73,0,4.09,0,2.46,0,2.47-3.83,0-3.83Z"/><path class="cls-4" d="M354.03,250.74v39.02c0,2.46,3.83,2.47,3.83,0v-39.02c0-2.46-3.83-2.47-3.83,0Z"/><path class="cls-7" d="M415.62,224.48c-1.32,0-28.56.03-30.77.03v14.88h30.71c0-2.36.06-14.23.06-14.9Z"/><path class="cls-4" d="M415.62,222.57c-8.72,0-17.43,0-26.15.02h-4.62c-1.05.01-1.9.86-1.91,1.91v14.88c.01,1.05.86,1.9,1.91,1.91h30.71c1.05-.01,1.9-.86,1.91-1.91,0-4.97.06-9.93.06-14.9,0-2.46-3.83-2.47-3.83,0,0,4.97-.06,9.93-.06,14.9l1.91-1.91h-30.71l1.91,1.91v-14.87l-1.91,1.91c8.87,0,17.74,0,26.61-.02h4.16c2.46,0,2.47-3.83,0-3.83Z"/><path class="cls-4" d="M398.2,224.51v19.7c0,2.46,3.83,2.47,3.83,0v-4.82c0-2.46-3.83-2.47-3.83,0v4.82c0,2.46,3.83,2.47,3.83,0v-19.7c0-2.46-3.83-2.47-3.83,0Z"/><path class="cls-4" d="M306.32,213.15c4.31,0,8.62,0,12.93-.01l26.71-.02,31.79-.03,27.73-.03c4.98,0,9.97,0,14.95-.01h.53c2.46,0,2.47-3.83,0-3.83-4.27,0-8.54,0-12.81.01l-26.66.03-31.78.03-27.78.03c-5.02,0-10.04,0-15.06.01h-.55c-2.46,0-2.47,3.83,0,3.83h0Z"/><path class="cls-8" d="M369.19,260.99c.38.62,1.27,1.7,1.66,2.31"/><path class="cls-4" d="M367.54,261.95c.5.81,1.15,1.51,1.66,2.31.26.42.67.74,1.14.88.25.08.51.09.77.03.25-.01.5-.09.71-.23.43-.25.75-.66.88-1.14.13-.5.06-1.03-.19-1.47-.51-.8-1.16-1.51-1.66-2.31-.26-.43-.67-.74-1.14-.88-.25-.08-.51-.09-.77-.03-.25.01-.5.09-.71.23-.43.25-.75.66-.88,1.14-.13.5-.06,1.03.19,1.47h0Z"/><path class="cls-8" d="M362.8,261.89c2.43,3.49,4.99,6.89,7.67,10.2"/><path class="cls-4" d="M361.14,262.86c2.53,3.62,5.18,7.15,7.97,10.59.75.74,1.96.74,2.71,0,.72-.76.72-1.95,0-2.71-2.58-3.19-4.93-6.31-7.37-9.81-.53-.91-1.71-1.22-2.62-.69-.91.53-1.22,1.71-.69,2.62h0Z"/><path class="cls-3" d="M347.09,296.46v-46.22h-55.03c.08,16.67-.01,33.7-.01,46.49"/><path class="cls-4" d="M349,296.46v-44.01c0-2.46-3.83-2.47-3.83,0v44.01c0,2.46,3.83,2.47,3.83,0Z"/><path class="cls-4" d="M303.9,252.95v43.65c0,2.46,3.83,2.47,3.83,0v-43.65c0-2.46-3.83-2.47-3.83,0Z"/><path class="cls-4" d="M317.66,252.95v43.78c0,2.46,3.83,2.47,3.83,0v-43.78c0-2.46-3.83-2.47-3.83,0h0Z"/><path class="cls-4" d="M331.42,252.95v43.05c0,2.46,3.83,2.47,3.83,0v-43.05c0-2.46-3.83-2.47-3.83,0Z"/><path class="cls-4" d="M290.15,252.95c.07,14.59,0,29.19-.01,43.78,0,2.46,3.83,2.47,3.83,0,0-14.59.08-29.19.01-43.78-.01-2.46-3.84-2.47-3.83,0Z"/><path class="cls-6" d="M292.06,239.39h141.63v13.56h-141.63v-13.56Z"/><path class="cls-4" d="M292.06,241.3h141.63l-1.91-1.91v13.56l1.91-1.91h-141.63l1.91,1.91v-13.56c0-2.46-3.83-2.47-3.83,0v13.56c.02,1.05.86,1.9,1.91,1.91h141.63c1.05-.02,1.9-.86,1.91-1.91v-13.56c-.01-1.05-.86-1.9-1.91-1.91h-141.63c-2.46,0-2.47,3.83,0,3.83Z"/><path class="cls-4" d="M347.32,291.79h80.6c2.46,0,2.47-3.83,0-3.83h-80.6c-2.46,0-2.47,3.83,0,3.83Z"/><path class="cls-12" d="M409.39,285.56h-7.38c-1.72,0-3.83-6.15-1.2-10.18,2.85-4.37,9.31-3.58,13.78-3.64,5.97-.08,11.27-.02,17.48.24,5.65,0,8.04,1.28,9.51,4.69.85,1.96.93,8.89-3.54,8.89h-28.64Z"/><path class="cls-4" d="M409.39,283.65h-6.1c-.29,0-.59,0-.88,0-.38,0-.53.02-.04.06.36.04.18.2,0-.12.06.1-.3-.57-.37-.74-1.09-2.7-.62-6.41,2.05-7.98,2.78-1.64,6.46-1.24,9.56-1.22,4.62.03,9.23-.05,13.84.08,2.33.07,4.7.05,7.02.26,1.34.04,2.64.45,3.76,1.18.33.27.63.59.88.93.18.27.35.54.49.83.09.16.17.32.23.49.07.2.11.41.16.61.05.14.08.28.07.43.06.62.07,1.25.03,1.88-.03.53-.13,1.05-.29,1.56-.13.42-.32.83-.57,1.19-.38.49-.71.53-1.38.55-1.73.05-3.47,0-5.2,0h-23.27c-2.46,0-2.47,3.83,0,3.83h23.52c1.7,0,3.42.05,5.12,0,3.78-.11,5.55-3.38,5.86-6.78.39-2.96-.63-5.93-2.74-8.03-3.17-2.93-7.89-2.57-11.89-2.7-5.27-.18-10.53-.1-15.8-.13-3.88-.03-8.34-.3-11.72,1.98-4.02,2.71-5.03,8.18-3.24,12.52.7,1.69,1.8,3.08,3.74,3.15,2.38.08,4.77,0,7.15,0s2.47-3.83,0-3.83Z"/><path class="cls-8" d="M399.32,296.46v-13.01h43.34v13.01"/><path class="cls-4" d="M401.23,296.46v-13.01l-1.91,1.91h43.34l-1.91-1.91v13.01c0,2.46,3.83,2.47,3.83,0v-13.01c-.01-1.05-.86-1.9-1.91-1.91h-43.34c-1.05.01-1.9.86-1.91,1.91v13.01c0,2.46,3.83,2.47,3.83,0Z"/><path class="cls-8" d="M178.98,296.65c0-9.14.06-53.76.06-57.97h97.36c0,4.21-.06,48.79-.06,57.92"/><path class="cls-4" d="M180.89,296.65c0-7.44,0-14.88.02-22.33l.03-27.83c0-2.61,0-5.21,0-7.82l-1.91,1.91h97.36l-1.91-1.91c0,6.27,0,12.53-.02,18.8-.01,9.59-.02,19.19-.03,28.78,0,3.45,0,6.9,0,10.35,0,2.46,3.83,2.47,3.83,0,0-7.44,0-14.87.02-22.31l.03-27.8c0-2.6,0-5.21,0-7.81-.01-1.05-.86-1.9-1.91-1.91h-97.36c-1.05.01-1.9.86-1.91,1.91,0,6.27,0,12.54-.02,18.81-.01,9.6-.02,19.2-.03,28.8,0,3.45,0,6.9,0,10.35,0,2.46,3.83,2.47,3.83,0h0Z"/><path class="cls-3" d="M265.73,296.6v-39.62h-23.99c.04,9.78,0,32.11,0,39.62"/><path class="cls-7" d="M201.06,257.49h8.67c-.01,9.18,0,18.55,0,25.6h-8.67v-25.6Z"/><path class="cls-7" d="M217.31,257.49h8.67c-.01,9.18,0,18.55,0,25.6h-8.67v-25.6Z"/><path class="cls-4" d="M267.65,296.6v-39.62c-.02-1.05-.86-1.9-1.91-1.91h-23.99c-1.05.02-1.9.86-1.91,1.91.04,10.92.01,21.83,0,32.75,0,2.29,0,4.58,0,6.87,0,2.46,3.83,2.47,3.83,0,0-10.52,0-21.05.01-31.57,0-2.68,0-5.36-.01-8.05l-1.91,1.91h23.99l-1.91-1.91v39.62c0,2.46,3.83,2.47,3.83,0Z"/><path class="cls-4" d="M201.06,259.41h8.67l-1.91-1.91c-.01,8.53-.01,17.06,0,25.6l1.91-1.91h-8.67l1.91,1.91v-25.6c0-2.46-3.83-2.47-3.83,0v25.6c.02,1.05.86,1.9,1.91,1.91h8.67c1.05-.01,1.9-.86,1.91-1.91v-25.6c-.01-1.05-.86-1.9-1.91-1.91h-8.67c-2.46,0-2.47,3.83,0,3.83Z"/><path class="cls-4" d="M217.31,259.41h8.67l-1.91-1.91c-.01,8.53-.01,17.06,0,25.6l1.91-1.91h-8.67l1.91,1.91v-25.6c0-2.46-3.83-2.47-3.83,0v25.6c.01,1.05.86,1.9,1.91,1.91h8.67c1.05-.01,1.9-.86,1.91-1.91v-25.6c-.02-1.05-.86-1.9-1.91-1.91h-8.67c-2.46,0-2.47,3.83,0,3.83Z"/><path class="cls-4" d="M247.18,276.51c.03,1.82,0,3.65,0,5.47,0,1.06.86,1.91,1.91,1.91s1.91-.86,1.91-1.91c0-1.82.03-3.65,0-5.47,0-1.06-.86-1.91-1.91-1.91s-1.91.86-1.91,1.91Z"/><path class="cls-8" d="M159.29,296.59c0-13.72-.62-144.89-.62-160H55.36c0,2.07.17,135.07.17,160.22"/><path class="cls-4" d="M161.2,296.59c0-6.6-.04-13.19-.06-19.79-.05-12.05-.1-24.09-.15-36.14-.06-14.04-.12-28.08-.18-42.12-.05-12.61-.11-25.21-.16-37.82-.03-7.61-.06-15.22-.08-22.82v-1.3c-.01-1.05-.86-1.9-1.91-1.91H55.36c-1.05.02-1.9.86-1.91,1.91,0,4.81,0,9.62.02,14.44.01,11.25.03,22.5.04,33.75.02,14.08.03,28.15.05,42.23.02,13.4.03,26.8.04,40.19,0,9.21.02,18.41.02,27.62v1.99c0,2.46,3.83,2.47,3.83,0,0-8.44,0-16.88-.02-25.32-.01-13.11-.02-26.23-.04-39.35-.02-14.18-.03-28.36-.05-42.55-.01-11.75-.03-23.5-.04-35.25,0-3.89,0-7.77-.01-11.66,0-1.89.12-3.83,0-5.72,0-.12,0-.25,0-.37l-1.91,1.91h103.31l-1.91-1.91c0,6.82.04,13.63.06,20.45.05,12.16.1,24.32.15,36.48.06,14.05.12,28.1.18,42.14.05,12.5.11,25.01.16,37.52.03,7.4.06,14.8.08,22.21v1.2c0,2.46,3.83,2.47,3.83,0h0Z"/><path class="cls-4" d="M158.15,269H56.49c-2.46,0-2.47,3.83,0,3.83h101.66c2.46,0,2.47-3.83,0-3.83Z"/><path class="cls-4" d="M158.15,257.37H56.49c-2.46,0-2.47,3.83,0,3.83h101.66c2.46,0,2.47-3.83,0-3.83Z"/><path class="cls-4" d="M158.15,228.2H56.49c-2.46,0-2.47,3.83,0,3.83h101.66c2.46,0,2.47-3.83,0-3.83Z"/><path class="cls-4" d="M158.15,216.57H56.49c-2.46,0-2.47,3.83,0,3.83h101.66c2.46,0,2.47-3.83,0-3.83Z"/><path class="cls-7" d="M145.45,162.78c-3.23,0-69.64.03-75.03.03v14.88h74.88c0-2.36.15-14.23.15-14.9Z"/><path class="cls-4" d="M118.53,163.06v13.64c0,1.06.86,1.91,1.91,1.91s1.91-.86,1.91-1.91v-13.64c0-1.06-.86-1.91-1.91-1.91s-1.91.86-1.91,1.91Z"/><path class="cls-4" d="M93.52,163.06v14.6c0,2.46,3.83,2.47,3.83,0v-14.6c0-2.46-3.83-2.47-3.83,0Z"/><path class="cls-7" d="M145.45,203.4c-3.23,0-69.64.03-75.03.03v14.88h74.88c0-2.36.15-14.23.15-14.9Z"/><path class="cls-4" d="M118.53,203.67v13.64c0,1.06.86,1.91,1.91,1.91s1.91-.86,1.91-1.91v-13.64c0-1.06-.86-1.91-1.91-1.91s-1.91.86-1.91,1.91Z"/><path class="cls-4" d="M93.52,203.4v14.87c0,2.46,3.83,2.47,3.83,0v-14.87c0-2.46-3.83-2.47-3.83,0Z"/><path class="cls-7" d="M145.45,243.81c-3.23,0-69.64.03-75.03.03v14.88h74.88c0-2.36.15-14.23.15-14.9Z"/><path class="cls-4" d="M145.45,160.87c-8.44,0-16.89,0-25.33,0-12.88,0-25.77,0-38.65.01h-11.05c-1.05.01-1.9.86-1.91,1.91v14.88c.01,1.05.86,1.9,1.91,1.91h74.88c1.05-.02,1.9-.86,1.91-1.91,0-4.97.14-9.94.15-14.9,0-2.46-3.82-2.47-3.83,0-.01,4.97-.15,9.93-.15,14.9l1.91-1.91h-74.88l1.91,1.91v-14.87l-1.91,1.91c8.96,0,17.91,0,26.87,0h38.22c3.31-.01,6.63-.01,9.94-.01,2.46,0,2.47-3.83,0-3.83Z"/><path class="cls-4" d="M145.45,201.49c-8.44,0-16.89,0-25.33,0h-38.65c-3.68.01-7.37.01-11.05.01-1.05.01-1.9.86-1.91,1.91v14.88c.01,1.05.86,1.9,1.91,1.91h74.88c1.05-.01,1.9-.86,1.91-1.91,0-4.97.14-9.94.15-14.9,0-2.46-3.82-2.47-3.83,0-.01,4.97-.15,9.94-.15,14.9l1.91-1.91h-74.88l1.91,1.91v-14.87l-1.91,1.91c8.96,0,17.91,0,26.87,0h38.22c3.31-.01,6.63-.01,9.94-.01,2.46,0,2.47-3.83,0-3.83Z"/><path class="cls-4" d="M145.45,241.89c-8.44,0-16.89,0-25.33,0h-38.65c-3.68.01-7.37.01-11.05.01-1.05.01-1.9.86-1.91,1.91v14.88c.01,1.05.86,1.9,1.91,1.91h74.88c1.05-.01,1.9-.86,1.91-1.91,0-4.97.14-9.93.15-14.9,0-2.46-3.82-2.47-3.83,0-.01,4.97-.15,9.93-.15,14.9l1.91-1.91h-74.88l1.91,1.91v-14.87l-1.91,1.91c8.96,0,17.91,0,26.87,0h38.22c3.31-.01,6.63-.01,9.94-.01,2.46,0,2.47-3.83,0-3.83Z"/><path class="cls-4" d="M118.53,244.08v13.64c0,1.06.86,1.91,1.91,1.91s1.91-.86,1.91-1.91v-13.64c0-1.06-.86-1.91-1.91-1.91s-1.91.86-1.91,1.91Z"/><path class="cls-4" d="M93.52,243.81v14.88c0,2.46,3.83,2.47,3.83,0v-14.88c0-2.46-3.83-2.47-3.83,0Z"/><path class="cls-4" d="M158.15,187.4H56.49c-2.46,0-2.47,3.83,0,3.83h101.66c2.46,0,2.47-3.83,0-3.83Z"/><path class="cls-4" d="M158.15,175.77H56.49c-2.46,0-2.47,3.83,0,3.83h101.66c2.46,0,2.47-3.83,0-3.83Z"/><path class="cls-4" d="M158.15,146.1H56.49c-2.46,0-2.47,3.83,0,3.83h101.66c2.46,0,2.47-3.83,0-3.83Z"/><path class="cls-4" d="M450.95,208.98c.06,2.06-.06,4.13,0,6.19,0,1.06.86,1.91,1.91,1.91s1.91-.86,1.91-1.91c-.06-2.06.06-4.13,0-6.19,0-1.06-.86-1.91-1.91-1.91s-1.91.86-1.91,1.91Z"/><path class="cls-4" d="M457.45,208.98c.06,2.06-.06,4.13,0,6.19,0,1.06.86,1.91,1.91,1.91s1.91-.86,1.91-1.91c-.06-2.06.06-4.13,0-6.19,0-1.06-.86-1.91-1.91-1.91s-1.91.86-1.91,1.91Z"/><path class="cls-4" d="M450.95,241.53c.06,2.06-.06,4.13,0,6.19,0,1.06.86,1.91,1.91,1.91s1.91-.86,1.91-1.91c-.06-2.06.06-4.13,0-6.19,0-1.06-.86-1.91-1.91-1.91s-1.91.86-1.91,1.91Z"/><path class="cls-4" d="M457.45,241.53c.06,2.06-.06,4.13,0,6.19,0,1.06.86,1.91,1.91,1.91s1.91-.86,1.91-1.91c-.06-2.06.06-4.13,0-6.19,0-1.06-.86-1.91-1.91-1.91s-1.91.86-1.91,1.91Z"/><path class="cls-4" d="M434.31,220.48c4.35,1.61,9.14,1.55,13.45-.16,1-.31,1.59-1.34,1.34-2.35-.29-1.02-1.33-1.61-2.35-1.34-3.64,1.53-7.73,1.59-11.41.16-1.02-.28-2.07.32-2.35,1.34-.25,1.02.34,2.05,1.34,2.35h0Z"/><path class="cls-4" d="M439.44,250.78c2.34.86,4.91.83,7.23-.08.47-.15.88-.46,1.14-.88.26-.45.32-.98.19-1.47-.13-.48-.45-.89-.88-1.15-.44-.27-.98-.34-1.47-.19-.64.26-1.31.44-2,.54l.51-.07c-.8.11-1.62.11-2.42,0l.51.07c-.61-.09-1.22-.24-1.8-.46-.5-.14-1.03-.07-1.47.19-.91.53-1.22,1.71-.69,2.62,0,0,0,0,0,0,.27.41.68.72,1.15.88h0Z"/><path class="cls-6" d="M475.7,296.37c0-8.33-.33-73.55-.41-93.12,0-2.11-1.72-3.81-3.83-3.8h-2.37c-2.11,0-3.82,1.72-3.82,3.83.01,15.14.04,66.72.06,93.01"/><path class="cls-4" d="M477.62,296.37c0-9.38-.07-18.76-.11-28.13-.07-14.56-.14-29.12-.21-43.68-.03-5.81-.05-11.61-.08-17.41-.01-3.09.41-6.5-2.44-8.55-1.83-1.32-4.7-1.35-6.85-.94-2.24.47-3.98,2.22-4.45,4.46-.44,2.34-.12,5-.12,7.37v9.13c0,7.77,0,15.55.01,23.32,0,16.49.02,32.98.03,49.48v4.87c0,2.46,3.83,2.47,3.83,0-.01-15.49-.02-30.99-.03-46.48,0-14.13-.02-28.27-.02-42.4v-3.17c0-1.22.1-2.58,1.58-2.85,1.05-.18,2.12-.17,3.16.03.73.18,1.29.77,1.45,1.51.1,1.03.11,2.06.03,3.08.02,5.4.05,10.81.08,16.21.06,14.07.13,28.13.2,42.2.05,10.16.09,20.32.13,30.48v1.47c0,2.46,3.83,2.47,3.83,0h0Z"/><path class="cls-4" d="M452.86,217.09c8.59,0,17.18-.06,25.77-.1,1.76,0,3.52-.01,5.28-.01,2.46,0,2.47-3.83,0-3.83-8.55,0-17.1.06-25.65.1-1.8,0-3.6.01-5.4.01-2.46,0-2.47,3.83,0,3.83h0Z"/><path class="cls-4" d="M452.86,249.64c8.59,0,17.18-.06,25.77-.1,1.76,0,3.52-.01,5.28-.01,2.46,0,2.47-3.83,0-3.83-8.55,0-17.1.06-25.65.1-1.8,0-3.6.01-5.4.01-2.46,0-2.47,3.83,0,3.83h0Z"/><path class="cls-8" d="M468.68,76.49c.19.04.29-.1.21-.31-.65-1.66-3.96-5.53-9.52-5.53-7.68,0-9.76,4.37-9.54,5.72-.86-.52-6.18-2.01-9.56.59-1.62,1.24-2.76,4.25-1.85,6.08-3-1.4-6.6,3.73-4.66,7.1,3.13,5.43,9.47,4.99,11.96,3.89,2.51,1.93,5.5,3.12,8.65,3.44,2.68.33,5.38.37,8.07.11,2.3-.23,4.53-.93,6.54-2.06,1.83-1.13,3.01-3.06,3.18-5.2,1.75.51,3.61.43,5.31-.22,2.56-.98,3.85-3.92,3.76-6.98-.1-2.77-1.65-5.29-4.09-6.63-2.58-1.24-5.58-1.19-8.12.11"/><path class="cls-4" d="M451.68,75.86c.1.72.05.37.06.18.01-.29-.18.43-.02.19.1-.15.36-.8.06-.3.14-.25.27-.5.42-.74s-.23.22.13-.16c.1-.11.2-.22.31-.33.15-.15.31-.3.48-.44-.3.25.1-.07.17-.12.38-.25.77-.47,1.17-.67.93-.39,1.91-.66,2.91-.78,2.41-.39,4.88.08,6.97,1.33.74.46,1.41,1.04,1.98,1.7.06.06.44.54.18.21.11.14.21.29.3.43.08.13.16.27.24.4.29.47-.05-.36.02.13l.19-1.47-.07.11,1.65-.95-.16.02c-1.05.03-1.89.87-1.91,1.91,0,1.05.86,1.91,1.91,1.91,1.94-.19,2.54-1.87,1.73-3.48-.4-.75-.91-1.44-1.5-2.06-1.61-1.73-3.65-2.98-5.92-3.63-4.31-1.23-10.35-.45-13.42,3.13-1.17,1.2-1.75,2.85-1.58,4.51.29,1.02,1.34,1.61,2.36,1.34,1-.3,1.59-1.34,1.34-2.35h0Z"/><path class="cls-4" d="M469.99,78.26c1.84-.92,3.98-1.02,5.89-.27-.13-.06-.09-.04.12.06.12.06.24.13.36.19.24.13.47.28.69.44-.16-.12.33.3.39.35.2.19.38.38.56.59.15.18.17.21.08.09.08.11.16.22.23.33.15.23.28.46.41.7.06.12.12.24.18.37-.06-.15-.05-.11.04.11.09.26.17.51.24.78.45,1.83.08,3.77-1.02,5.31.19-.25-.26.27-.31.32-.09.09-.18.17-.27.25.15-.11.13-.09-.05.04-.37.27-.8.47-1.25.57-.98.27-2.02.3-3.01.1-1.02-.25-2.05.34-2.35,1.34-.27,1.02.32,2.07,1.34,2.36,2.5.44,5.21.38,7.36-1.15,1.85-1.38,3.06-3.43,3.38-5.71.45-2.41.02-4.9-1.2-7.02-1.23-2.06-3.18-3.6-5.48-4.29-2.75-.76-5.69-.45-8.23.86-.91.53-1.22,1.71-.69,2.62.53.91,1.71,1.22,2.62.69h0Z"/><path class="cls-4" d="M470.25,89.74c.11,4.96-6.32,5.98-10.08,6.09-4.33.14-9.62-.2-13.09-3.15-1.87-1.59-4.59,1.11-2.71,2.71,4.62,3.92,11.32,4.65,17.15,4.2,5.66-.43,12.71-3.06,12.56-9.85-.06-2.46-3.88-2.47-3.83,0h0Z"/><path class="cls-4" d="M450.8,74.72c-.77-.4-1.59-.68-2.45-.82-1.31-.28-2.65-.38-3.98-.3-1.57.09-3.09.53-4.46,1.31-1.38.85-2.46,2.12-3.06,3.62-.82,1.73-.84,3.73-.08,5.49.54.91,1.71,1.22,2.62.69.89-.55,1.19-1.7.69-2.62.22.48,0-.08-.04-.19-.13-.39,0,.33-.01-.06v-.59c0-.43-.08.3,0-.1.08-.36.18-.71.29-1.07.08-.2.08-.2-.01.01.04-.1.09-.19.14-.29.07-.14.15-.28.23-.41.11-.18.22-.35.34-.51-.26.36.01,0,.08-.07.13-.14.27-.27.41-.39-.34.3.03,0,.12-.07.18-.12.36-.22.55-.32.14-.07.43-.2.12-.07.36-.15.74-.27,1.12-.36.18-.04.36-.07.53-.11.39-.09-.34.03.18-.03.35-.04.7-.05,1.05-.06s.68.01,1.02.04c.16.01.32.03.49.05.41.04-.42-.08.08.01.52.09,1.04.2,1.55.35.19.06.37.13.56.19l.1.04c-.36-.15-.45-.19-.29-.12.03,0,.14.07.17.09.91.53,2.08.23,2.62-.69.53-.91.23-2.09-.69-2.62h0Z"/><path class="cls-4" d="M439.39,81.39c-1.09-.54-2.35-.62-3.51-.24-1.08.39-2.02,1.06-2.74,1.96-1.64,1.88-2.22,4.46-1.54,6.86,1.51,4.33,6.24,6.75,10.62,6.67,1.75.04,3.48-.39,5.01-1.23.91-.54,1.21-1.71.67-2.62-.53-.9-1.7-1.21-2.61-.68-.16.1-.33.17-.49.27-.19.11.49-.17.08-.04-.14.05-.29.1-.43.14-.26.08-.52.14-.78.19-.14.03-.29.05-.43.08-.29.06.18-.04.17-.02-.09.02-.19.03-.29.03-.7.07-1.41.08-2.11.01-.09,0-.17-.02-.26-.03-.27-.02.38.07.11.02-.18-.03-.35-.06-.53-.1-.38-.08-.76-.18-1.13-.3-.18-.06-.35-.13-.53-.19.45.16-.07-.04-.19-.1-.4-.2-.78-.42-1.14-.68-.08-.06-.16-.12-.24-.18.06.04.29.25.03.01-.15-.14-.31-.28-.46-.42s-.3-.31-.44-.47c-.07-.08-.14-.17-.21-.25-.23-.27.06.1-.06-.08s-.27-.38-.38-.58c-.04-.07-.33-.61-.24-.41s-.1-.32-.12-.4c-.02-.1-.03-.19-.06-.29-.06-.21,0,.36,0,0,0-.2-.01-.39,0-.59,0-.1.02-.19.03-.29-.05.44-.02.16,0,.07.06-.22.1-.43.17-.65.03-.1.07-.19.1-.28.06-.22-.16.29.01-.02.12-.22.23-.44.36-.64.05-.08.11-.16.16-.24.19-.29-.15.13.01,0s.29-.31.44-.46c.07-.06.14-.12.21-.18-.32.31-.07.06.04-.02.07-.05.15-.09.22-.13.06-.03.4-.18.12-.07-.32.13.33-.12.36-.09.09.09-.48-.01-.15.02.06,0,.31-.04.36,0,.01,0-.5-.13-.15,0,.12.04.49.18.02-.02.92.5,2.06.19,2.62-.69.53-.91.22-2.08-.69-2.62h0Z"/><path class="cls-4" d="M448.42,89.41c1.66,3,5.44,4.08,8.44,2.42.06-.03.12-.07.18-.11.91-.53,1.22-1.71.69-2.62-.53-.91-1.71-1.22-2.62-.69-.19.12-.39.23-.59.32l.46-.19c-.32.13-.66.23-1.01.28l.51-.07c-.4.05-.8.05-1.2,0l.51.07c-.4-.06-.79-.17-1.16-.33l.46.19c-.35-.15-.67-.34-.97-.57l.39.3c-.25-.2-.48-.43-.68-.69l.3.39c-.15-.2-.28-.41-.39-.64-.54-.91-1.7-1.21-2.62-.69-.89.55-1.19,1.7-.69,2.62h0Z"/><path class="cls-8" d="M182.63,52.77c.29.06.42-.14.3-.45-.95-2.41-5.78-8.06-13.88-8.06-11.2,0-14.24,6.37-13.9,8.34-1.26-.75-9.01-2.92-13.94.87-2.36,1.82-4.02,6.2-2.7,8.87-4.38-2.04-9.63,5.44-6.79,10.35,4.56,7.92,13.81,7.27,17.44,5.67,3.09,2.73,8.52,4.61,12.61,5.02,3.9.48,7.85.54,11.76.16,3.35-.33,6.6-1.36,9.54-3.01,2.67-1.64,4.39-4.46,4.64-7.58,3.12.63,4.98.73,7.74-.32,3.73-1.42,5.61-5.73,5.48-10.17-.15-4.04-2.41-7.71-5.96-9.66-3.76-1.8-8.14-1.74-11.84.16"/><path class="cls-4" d="M157.01,52.09c.09.59,0,.19.06-.1-.12.65.08-.15.13-.37.05-.2.13-.33,0-.04.06-.13.12-.26.19-.39.16-.3.34-.6.54-.88.23-.33-.02,0,.19-.24.12-.14.25-.28.38-.42.28-.28.57-.55.87-.81.77-.59,1.62-1.08,2.52-1.45,5.02-2.09,11.3-1.69,15.73,1.55.92.68,1.76,1.47,2.49,2.36.25.31.48.63.69.97.1.16.19.33.29.5.27.46,0-.2.08.31l.19-1.48-.11.16,1.65-.95-.23.02c-1.05.03-1.89.87-1.91,1.91,0,1.05.86,1.91,1.91,1.91,2.29-.22,2.6-2.22,1.65-3.97-.58-1.02-1.29-1.96-2.11-2.79-2.3-2.41-5.23-4.13-8.45-4.98-5.93-1.55-14.23-.47-18.39,4.51-1.46,1.51-2.2,3.57-2.03,5.66.29,1.02,1.34,1.61,2.36,1.34,1-.3,1.59-1.34,1.34-2.35h-.01Z"/><path class="cls-4" d="M184.11,54.59c2.88-1.46,6.24-1.64,9.26-.48,2.71,1.2,4.7,3.6,5.4,6.48.72,2.9.15,5.97-1.57,8.41-1.92,2.47-5.27,2.75-8.13,2.25-1.02-.25-2.05.34-2.35,1.34-.27,1.02.33,2.07,1.34,2.35,3.42.6,7.12.51,10.06-1.59,2.49-1.89,4.12-4.7,4.53-7.81.59-3.28,0-6.67-1.66-9.56-1.67-2.82-4.33-4.91-7.46-5.86-3.79-1.06-7.83-.64-11.33,1.16-2.19,1.12-.26,4.42,1.93,3.31h0Z"/><path class="cls-4" d="M185.8,72.08c.25,7.76-9.55,9.56-15.48,9.76-6.58.22-14.57-.34-19.81-4.85-1.86-1.6-4.58,1.1-2.71,2.71,6.38,5.49,15.8,6.43,23.87,5.9,4.22-.28,8.73-1.15,12.36-3.43,3.51-2.14,5.63-5.97,5.59-10.09-.08-2.46-3.91-2.47-3.83,0h0Z"/><path class="cls-4" d="M156.13,50.94c-1.05-.54-2.19-.92-3.36-1.11-1.83-.39-3.71-.53-5.57-.4-2.13.12-4.2.73-6.05,1.78-1.86,1.14-3.3,2.84-4.11,4.86-1.08,2.27-1.14,4.9-.16,7.22.54.91,1.7,1.21,2.62.69.89-.55,1.2-1.7.69-2.62.1.23-.12-.41-.14-.49-.1-.38-.02.05-.05-.32-.03-.41-.02-.83.04-1.24.16-.98.51-1.92,1.03-2.77,1.02-1.59,2.67-2.69,4.53-3.02.92-.22,1.86-.33,2.81-.31.49,0,.99.02,1.48.05.54.04.8.07,1.06.12.76.12,1.52.29,2.26.5.28.08.54.18.82.27.4.13-.27-.22-.07-.03.08.05.16.09.24.13,2.14,1.23,4.07-2.07,1.93-3.31h0Z"/><path class="cls-4" d="M139.49,60.68c-6.48-2.83-12.06,5.78-10.07,11.51,1.21,3.08,3.49,5.62,6.43,7.16,2.53,1.33,5.35,1.99,8.21,1.91,2.39.05,4.76-.53,6.86-1.68,2.07-1.32.16-4.63-1.93-3.31-.23.15-.48.25-.72.38-.27.15.1-.04.13-.06-.08.03-.15.06-.23.09-.21.07-.42.15-.63.21-.37.11-.76.21-1.14.29-.21.04-.42.08-.62.11-.08.01-.37.05.02,0-.14.02-.28.03-.42.05-2,.26-4.04.05-5.95-.6-.44-.13-.86-.3-1.27-.51-.58-.29-1.13-.62-1.66-.99-.9-.66-1.69-1.45-2.35-2.35-.37-.49-.69-1.01-.96-1.56-.09-.23-.16-.46-.22-.69-.07-.21-.1-.43-.11-.66-.06-1.04.14-2.08.58-3.02.46-1.03,1.18-1.91,2.09-2.57.16-.11.61-.34.6-.34-.2.08.15-.05.2-.06.14-.04.29-.08.43-.11-.35.07.38,0,.54,0-.47-.05.6.22.26.07.92.5,2.06.2,2.62-.69.53-.91.22-2.08-.69-2.62h0Z"/><path class="cls-4" d="M153.86,71.17c2.18,3.95,7.15,5.4,11.1,3.22.09-.05.18-.1.27-.16.91-.53,1.22-1.71.69-2.62-.53-.91-1.71-1.22-2.62-.69h0c-.17.11-.34.22-.52.31-.09.03-.17.07-.25.12.26-.22.3-.12.05-.03-.19.07-.38.12-.57.17-.09.02-.18.04-.27.06-.2.04-.41-.02.08,0-.38-.01-.77.05-1.15.03-.1,0-.18-.02-.27-.02-.4-.03.47.1.07,0-.2-.04-.4-.08-.59-.13s-.39-.11-.57-.18c-.07-.03-.38-.14-.08-.03s0,0-.07-.04c-.36-.18-.67-.46-1.03-.63.13.06.32.27.09.06-.07-.06-.14-.12-.2-.18-.16-.15-.3-.31-.45-.48-.22-.24.19.28.07.09-.05-.08-.11-.15-.15-.22-.12-.18-.23-.38-.32-.57-.54-.91-1.71-1.21-2.62-.69-.89.55-1.19,1.7-.69,2.62h0Z"/><path class="cls-2" d="M176.04,296.08v-10.12h8.96v10.12"/><path class="cls-12" d="M183.3,254.57c-1.51-1.17-3.62-1.17-5.14,0-3.55,2.78-6.3,6.46-7.97,10.66-.52,1.27-.91,2.58-1.17,3.92-.21,1.28-.34,2.58-.4,3.88-.14,2.29-.28,4.66.55,6.8.74,1.87,2.13,3.4,3.91,4.32,1.77.91,5.67,1.39,7.65,1.39,1.49,0,5.88-.48,7.65-1.39,1.79-.92,3.18-2.45,3.91-4.32.83-2.14.69-4.51.55-6.8-.06-1.3-.19-2.6-.4-3.88-.26-1.34-.65-2.66-1.17-3.92-1.66-4.2-4.42-7.88-7.97-10.66Z"/><path class="cls-4" d="M184.27,252.92c-1.37-.96-3.07-1.33-4.72-1.01-1.61.44-3.07,1.32-4.21,2.55-2.54,2.33-4.61,5.12-6.1,8.23-1.54,3.32-2.41,6.91-2.55,10.57-.23,3.67,0,7.26,2.46,10.19,3.57,4.25,10.28,4.39,15.35,3.66,2.81-.4,5.45-1.14,7.47-3.27,2.59-2.73,3.04-6.32,2.84-9.94-.09-4.07-1.06-8.07-2.84-11.73-1.76-3.48-4.26-6.53-7.32-8.94-.76-.71-1.95-.71-2.71,0-.74.75-.74,1.96,0,2.71,4.51,3.43,7.6,8.39,8.69,13.95.21,1.47.34,2.96.37,4.45.15,1.54.01,3.1-.41,4.59-.74,2.07-2.51,3.6-4.67,4.04-3.64.87-8.13,1.11-11.66-.36-2.29-1.07-3.77-3.37-3.8-5.9-.22-3.04.08-6.09.9-9.03.9-2.93,2.36-5.65,4.31-8.01,1.53-1.84,4.07-5.27,6.67-3.44,2.02,1.42,3.93-1.89,1.93-3.31Z"/><path class="cls-4" d="M183.08,285.95v10.12c0,1.06.86,1.91,1.91,1.91s1.91-.86,1.91-1.91v-10.12c0-1.06-.86-1.91-1.91-1.91s-1.91.86-1.91,1.91Z"/><path class="cls-4" d="M174.12,285.95v10.12c0,1.06.86,1.91,1.91,1.91s1.91-.86,1.91-1.91v-10.12c0-1.06-.86-1.91-1.91-1.91s-1.91.86-1.91,1.91Z"/><path class="cls-2" d="M51.25,296.62v-10.12h8.96v10.12"/><path class="cls-12" d="M58.52,255.12c-1.51-1.17-3.62-1.17-5.14,0-3.55,2.78-6.3,6.46-7.97,10.66-.52,1.27-.91,2.58-1.17,3.92-.21,1.28-.34,2.58-.4,3.88-.14,2.29-.28,4.66.55,6.8.74,1.87,2.13,3.4,3.91,4.32,1.77.91,5.67,1.39,7.65,1.39,1.49,0,5.88-.48,7.65-1.39,1.79-.92,3.18-2.45,3.91-4.32.83-2.14.69-4.51.55-6.8-.06-1.3-.19-2.6-.4-3.88-.26-1.34-.65-2.66-1.17-3.92-1.66-4.2-4.41-7.88-7.97-10.66Z"/><path class="cls-4" d="M59.48,253.46c-1.37-.96-3.07-1.33-4.72-1.01-1.61.44-3.07,1.32-4.21,2.55-2.54,2.33-4.61,5.12-6.1,8.23-1.54,3.32-2.41,6.91-2.55,10.57-.22,3.67,0,7.26,2.46,10.19,3.57,4.25,10.28,4.39,15.35,3.66,2.81-.4,5.45-1.14,7.46-3.27,2.59-2.73,3.04-6.32,2.84-9.94-.09-4.07-1.06-8.07-2.84-11.73-1.76-3.48-4.26-6.53-7.32-8.94-.76-.71-1.95-.71-2.71,0-.74.75-.74,1.96,0,2.71,4.5,3.43,7.6,8.39,8.69,13.95.21,1.47.34,2.96.37,4.45.15,1.54.01,3.1-.41,4.59-.74,2.07-2.51,3.6-4.67,4.04-3.64.87-8.13,1.11-11.66-.36-2.29-1.07-3.77-3.37-3.8-5.9-.22-3.04.08-6.09.9-9.03.9-2.93,2.36-5.65,4.31-8.01,1.53-1.84,4.07-5.27,6.67-3.44,2.02,1.42,3.93-1.9,1.93-3.31Z"/><path class="cls-4" d="M58.3,286.49v10.12c0,1.06.86,1.91,1.91,1.91s1.91-.86,1.91-1.91v-10.12c0-1.06-.86-1.91-1.91-1.91s-1.91.86-1.91,1.91Z"/><path class="cls-4" d="M49.34,286.49v10.12c0,1.06.86,1.91,1.91,1.91s1.91-.86,1.91-1.91v-10.12c0-1.06-.86-1.91-1.91-1.91s-1.91.86-1.91,1.91Z"/><path class="cls-8" d="M33.3,296.81c14.72,0,443.89-.16,457.81-.16"/><path class="cls-4" d="M33.3,298.73h49.93s48.78-.03,48.78-.03l58.76-.02,63.94-.02,64.24-.02,60.39-.02,51.64-.02h38.15s20.3-.02,20.3-.02h1.69c2.46,0,2.47-3.83,0-3.83h-49.56s-48.66.03-48.66.03l-58.68.02-63.91.02-64.26.02-60.45.02-51.75.02h-38.3s-20.5.02-20.5.02h-1.74c-2.46,0-2.47,3.83,0,3.83h0Z"/><path class="cls-5" d="M398.14,458.12c9.57,9.58,18.94,19.34,28.5,28.93,5.21,5.05,13.5,5.05,18.71,0,19.72-19.36,39.26-38.9,58.61-58.63,5.17-5.17,5.17-13.55,0-18.71-5.17-5.17-13.55-5.17-18.71,0-19.31,19.77-38.85,39.31-58.62,58.63h18.71c-9.56-9.58-18.93-19.35-28.5-28.93-5.17-5.17-13.55-5.17-18.71,0-5.17,5.17-5.17,13.55,0,18.71h0Z"/></g></svg>