<?xml version="1.0" encoding="UTF-8"?><svg xmlns="http://www.w3.org/2000/svg" viewBox="0 0 235.96 211.6"><defs><style>.cls-1{isolation:isolate;}.cls-2{fill:none;mix-blend-mode:multiply;stroke:#ffb14d;stroke-miterlimit:10;stroke-width:1.85px;}.cls-3{fill:#fe7b17;}.cls-3,.cls-4{stroke-width:0px;}.cls-4{fill:#fff;}</style></defs><g class="cls-1"><g id="_レイヤー_2"><g id="_レイヤー_1-2"><path class="cls-3" d="M167.39,7.93h-90.9c-8.26,0-15.89,4.41-20.02,11.56L11.02,98.21c-4.13,7.15-4.13,15.96,0,23.11l45.45,78.72c4.13,7.15,11.76,11.56,20.02,11.56h90.9c8.26,0,15.89-4.41,20.02-11.56l45.45-78.72c4.13-7.15,4.13-15.96,0-23.11l-45.45-78.72c-4.13-7.15-11.76-11.56-20.02-11.56Z"/><path class="cls-2" d="M160.39.93h-90.9c-8.26,0-15.89,4.41-20.02,11.56L4.02,91.21c-4.13,7.15-4.13,15.96,0,23.11l45.45,78.72c4.13,7.15,11.76,11.56,20.02,11.56h90.9c8.26,0,15.89-4.41,20.02-11.56l45.45-78.72c4.13-7.15,4.13-15.96,0-23.11L180.41,12.48c-4.13-7.15-11.76-11.56-20.02-11.56Z"/><path class="cls-4" d="M106.82,123.94c-4.04,3.96-9.25,5.91-14.3,5.91s-10.26-1.94-14.3-5.91c-4.66-4.59-7.7-12.05-7.7-21.14s3.03-16.63,7.7-21.22c4.04-3.96,9.25-5.91,14.3-5.91s10.26,1.94,14.3,5.91c4.66,4.59,7.69,12.05,7.69,21.22s-3.03,16.56-7.69,21.14ZM88.4,89.35c-2.8,2.41-4.51,8.71-4.51,13.53,0,4.12,1.48,10.88,4.51,13.52,1.01.93,2.56,1.63,4.12,1.63s3.11-.7,4.12-1.63c2.88-2.49,4.51-9.02,4.51-13.45s-1.79-11.19-4.51-13.6c-1.01-.93-2.56-1.63-4.12-1.63s-3.11.7-4.12,1.63Z"/><path class="cls-4" d="M131.77,110.96c.08,1.94.85,3.96,2.1,5.21,1.17,1.24,3.03,2.02,5.29,2.02,2.64,0,4.28-1.17,5.29-2.25,1.17-1.32,1.55-2.72,1.55-4.27,0-2.25-1.09-3.81-2.02-4.59-1.32-1.09-3.34-1.48-4.97-1.48-.85,0-1.55.08-2.25.31v-9.09c2.72.39,4.43-.39,5.52-1.32,1.24-1.09,1.71-2.49,1.71-3.65,0-1.4-.62-2.95-1.4-3.73-.85-.85-2.33-1.4-3.81-1.4-1.63,0-2.95.54-3.73,1.32-1.17,1.09-1.79,2.95-1.79,4.59h-12.51c.31-5.44,2.72-9.56,5.05-11.89,3.81-3.96,8.71-5.05,13.68-5.05,3.89,0,9.02.78,12.9,4.59,2.56,2.56,4.2,6.06,4.2,10.03,0,2.25-.39,4.28-1.55,6.37-.93,1.71-2.1,3.03-3.96,3.96,3.19,1.17,5.05,3.19,6.14,4.74,1.48,2.18,2.18,4.66,2.18,7.62,0,5.52-2.41,9.17-4.59,11.35-2.8,2.8-7.77,5.52-15.47,5.52-4.97,0-10.34-1.17-14.85-5.36-2.64-2.41-5.83-6.84-6.45-13.52h13.76Z"/></g></g></g></svg>