<?xml version="1.0" encoding="UTF-8"?><svg id="_レイヤー_2" xmlns="http://www.w3.org/2000/svg" viewBox="0 0 548.06 535.77"><defs><style>.cls-1{fill:#947f6e;}.cls-1,.cls-2,.cls-3,.cls-4,.cls-5,.cls-6{stroke-width:0px;}.cls-2{fill:#41352c;}.cls-3{fill:#cb6850;}.cls-4{fill:#ffb14d;}.cls-5{fill:#fff;}.cls-6{fill:#ffca8c;}</style></defs><g id="_レイヤー_1-2"><path class="cls-6" d="M503.99,170.26c34.44,101.72-8.71,233.53-98.16,297.65-89.06,63.73-224.82,59.77-309.13-3.96C12.39,399.83-20.46,276.34,12.79,176.99,45.64,77.24,144.99,2.04,251.07.06c105.68-2.37,218.1,68.87,252.93,170.2Z"/><circle class="cls-6" cx="443.23" cy="430.94" r="104.83"/><path class="cls-4" d="M334.34,322.13c-3.71,20.35-5.51,40.99-5.39,61.67.13,13.08,2.93,29.04,5.4,41.65,0,0,1.68,6.14,3.61,13.2-73.77.04-159.07.1-216.54.17v-56.37c.9-12.88,2.76-50.25.81-60.45-22.47,2.19-51.49,2.39-74.24,1.97-17.42-.31-30.46-12.92-32.24-23.36-1.1-6.44-.1-14.63,1.49-20.97,1.94-7.71,13.57-24.5,18.9-30.58,6.47-7.37,52.08-57.11,60.56-65.39,11.55,8.32,27.17,21.3,38.72,29.62-2.86,5.95-27.12,35.46-37.85,50.55l16.75-4.66c8.1-2.25,25.13-5.39,29.66-5.03,2.92.23,23.39,1.14,27.64.64l2.66-.31c5.3-4.4,10.81-8.45,16.25-12.11,2.23,1.82,4.61,3.45,7.1,4.9,0,12.28.14,24.78.42,37.41,9.4,2.37,19.06,3.53,28.75,3.44,24.51,0,38.24-6.64,38.24-6.64l6.1-2.95v-.04c-1.28-6.23-2.83-11.87-4.19-18.07-.95-4.13-1.63-8.31-2.05-12.53,3.28-1.81,6.35-3.99,9.15-6.49,4.6,3.62,9,7.49,13.17,11.6,7.04.55,22.88,1.36,25.4,1.15,4.53-.35,35.14,4.94,43.23,7.19l3.29.92c-9.95-14.17-35-42.82-37.96-48.97,11.55-8.32,27.17-21.3,38.72-29.62,8.48,8.29,54.09,58.02,60.56,65.4,5.33,6.09,16.97,22.87,18.9,30.58,1.59,6.35,2.6,14.53,1.49,20.97-1.79,10.44-14.82,23.04-32.24,23.36-22.45.41-51,.23-73.36-1.87"/><path class="cls-1" d="M168.47,209.94c2.7,8.49,7.02,16.38,12.72,23.22,2.82,3.35,5.95,6.43,9.34,9.2-5.44,3.66-10.95,7.71-16.26,12.11l-2.66.31c-4.25.5-24.71-.41-27.64-.64h-.11l-.09-1.18c-.01-.19.03-.94.26-1.02,5.77-2,7.3-7.99,6.97-14.05-.34-6.09-1.94-12.31-2.09-18.4-.07-2.56.04-5.13.32-7.68.48-4.36,1.79-8.58,3.87-12.45,1.08,1.42,2.33,2.7,3.72,3.82,2.35,1.88,5.15,3.11,8.12,3.58l2.64.39c.27.91.56,1.83.87,2.78Z"/><path class="cls-2" d="M376.74,154.44c-.88-3.62-2.3-8.35.08-11.72,2.09-2.96,6-1.75,8.49.03,1.62,1.26,3.08,2.7,4.37,4.3.71.81,1.64,1.35.86,2.19-2.2,2.34-5.79-2.11-6.84-3.68-4.05-6.07-5.28-14.53-1.75-21.14,3.23-5.89,9.64-9.31,16.33-8.7,7.57.78,12.28,8.08,14.94,14.52.81,1.96,2.4,7.07-.79,8.05-3.12.96-6.83-4.05-8.29-6.12-2.45-3.54-4.37-7.41-5.71-11.49-1.32-3.94-2.33-8.36-1.39-12.5,1.44-6.33,7.16-10.25,13.43-10.9,8.2-.86,15.37,4.27,20.08,10.6,2.59,3.36,4.46,7.22,5.5,11.33.6,2.57.49,6.66-1.89,7.86-4.34,2.19-.52,8.71,3.81,6.52,4.57-2.3,6.16-7.97,5.87-12.74-.51-5.19-2.3-10.18-5.22-14.51-5.58-8.84-14.72-16.44-25.59-16.7-9.9-.24-19.96,5.46-22.95,15.23-1.81,5.91-.81,12.42,1.16,18.16,1.87,5.73,4.76,11.09,8.52,15.8,3.52,4.27,9.14,8.53,15,6.62,6.2-2.02,8.02-9.11,6.51-14.86-1.61-5.54-4.44-10.66-8.3-14.95-3.57-4.11-8.55-6.74-13.95-7.38-10.27-1.01-20.07,4.59-24.4,13.96-4.45,10.52-2.27,22.67,5.57,30.98,4.22,4.21,10.97,5.97,15.66,1.4,2.13-2,3.02-4.98,2.34-7.82-.75-2.8-3.2-5.19-5.17-7.2-4.11-4.19-9.79-7.31-15.81-5.81-5.9,1.46-9.01,7.37-9.21,13.08.03,3.26.52,6.5,1.43,9.63,1.16,4.72,8.44,2.72,7.29-2.01h.01Z"/><path class="cls-5" d="M269.54,421.41c-.74-.31,2.08-142.77,1.59-142.93-1.75-8.29-4.44-13.23-5.42-18.48-.71-3.88-1.22-7.8-1.53-11.74,16.32-8.37,29.12-30.27,31.4-36.63.36-1.11,1.09-3.21,1.73-5.7l1.38-.23c2.96-.52,5.74-1.8,8.06-3.71,2.86-2.47,5.15-5.52,6.71-8.96,3.33-6.8,4.72-14.38,4.03-21.92-.1-1.93-.61-3.81-1.49-5.53-1.53-2.52-4.12-4.21-7.04-4.6-2.98-.41-5.98.49-8.24,2.48,0,0,18.67-66.42-73.7-66.42-76.96,0-64.8,67.53-64.8,67.53-2.29-1.95-5.31-2.81-8.28-2.35-2.92.44-5.48,2.17-6.97,4.71-.85,1.73-1.33,3.63-1.4,5.55-.57,7.55.95,15.11,4.39,21.85,1.62,3.41,3.96,6.43,6.86,8.85,2.35,1.88,5.15,3.11,8.12,3.58l2.64.39c2.65,9.53,7.28,18.39,13.59,26.01,5.68,6.99,12.87,12.61,21.03,16.44-.24,3.66-.67,7.3-1.28,10.91-.87,5.27-1.89,17.19-2.94,22.57-.47.18,5.86,132.7,4.44,133.2,0,0,8.73,11.14,31.91,11.14,25.29,0,35.19-6.03,35.19-6.03Z"/><path class="cls-1" d="M311.95,121.94c1.82,12.04,2.85,28.59-1.68,39.31-.42-.13-.85-.22-1.29-.28-5.06-.71-10.69,2.58-10.73,7.96-9.58-4.02-20.19-18.01-24.07-24.54-2.98-5.01-7.08-16.51-9.57-25.02-11.38,14.54-30.32,23.96-50.11,28.71-4.74,1.19-1.06-10.04-.05-16.64-12.11,10.58-34.9,27.15-49.69,37.63-.7-4.67-5.72-7.45-10.36-6.93-1.57-6.61-3.25-13.64-3.25-13.64-1.83-7.56-2.16-24.1-.29-33.61,6.89-35.25,42.12-63.47,79.3-61.73,37.15-2.34,72.82,25.31,80.28,60.45.5,2.34,1.02,5.18,1.5,8.3Z"/><path class="cls-2" d="M154.79,147.51c-1.97-8.42-1.79-18.13-.94-26.89.99-9.01,3.89-17.71,8.5-25.51,9.55-16.39,24.76-28.73,42.77-34.69,4.38-1.46,8.89-2.48,13.47-3.05,4.89-.57,9.8-.45,14.71-.54,9.66-.12,19.24,1.71,28.18,5.38,17.55,7.15,31.86,20.48,40.23,37.47,3.6,7.96,5.92,16.45,6.86,25.13,1.28,9.41,1.99,19.49.04,28.85-.45,2.21-1.1,4.37-1.94,6.45-.54,2.01.64,4.08,2.64,4.65,2,.5,4.05-.66,4.65-2.64,3.89-9.57,3.74-20.73,2.87-30.85-.57-9.6-2.42-19.07-5.51-28.18-7.46-19.49-21.92-35.5-40.55-44.9-9.3-4.75-19.41-7.69-29.81-8.65-5.2-.36-10.41-.43-15.62-.21-5.21.13-10.4.77-15.49,1.93-20.32,4.83-38.16,16.92-50.18,33.99-5.89,8.27-10.06,17.64-12.23,27.56-1.94,10-2.27,20.25-.96,30.35.22,2.13.57,4.25,1.03,6.35,1.1,4.73,8.4,2.73,7.29-2.01h0Z"/><path class="cls-2" d="M261.27,121.42c3.26,10.8,6.9,21.67,13.64,30.83,3.3,4.6,7.04,8.88,11.15,12.77,3.9,3.6,8.43,7.08,13.67,8.37,4.72,1.16,6.74-6.13,2.01-7.29-4.04-.99-7.77-3.98-10.94-6.98-3.66-3.5-6.99-7.33-9.94-11.45-6.09-8.45-9.34-18.37-12.32-28.26-1.4-4.64-8.7-2.67-7.29,2.01Z"/><path class="cls-2" d="M262.14,116.45c-6.5,8.03-14.67,14.54-23.95,19.08-4.75,2.41-9.67,4.45-14.73,6.09-2.66.87-5.35,1.66-8.07,2.35-.16.04-1.89.41-1.89.47,0-.23,1.38.2,1.48.26-.22-.13,1.35,1.24.85.81-.24-.21.11.28.14.33-.17-.28.11-.29-.04-.07-.14.2-.02.04,0-.3.07-4.24,1.47-8.59,2.17-13.03.49-2.05-.77-4.11-2.81-4.6-1.25-.3-2.57.05-3.5.92-16.17,14.09-33.93,26.47-51.43,38.82-1.76,1.09-2.35,3.36-1.36,5.17,1.06,1.79,3.36,2.39,5.17,1.36,18.02-12.72,36.32-25.49,52.96-40l-6.31-3.68c-.76,4.75-2.32,9.48-2.44,14.31-.24,2.26.59,4.51,2.25,6.06,2.23,1.8,4.9.94,7.4.29,12.37-3.04,24.1-8.27,34.63-15.45,5.6-3.87,10.6-8.54,14.85-13.85,1.41-1.5,1.41-3.84,0-5.34-1.48-1.46-3.86-1.46-5.34,0h0Z"/><path class="cls-2" d="M303.42,166.13c2.73-2.26,6.77-1.88,9.03.85,0,.01.02.02.03.03,1.04,1.89,1.53,4.04,1.41,6.2.13,2.59-.02,5.19-.45,7.74-1.54,8.75-6.01,19.32-15.73,21.09-2,.57-3.17,2.64-2.64,4.65.59,1.98,2.64,3.15,4.65,2.64,13.91-2.56,20.48-18.26,21.6-30.87.57-6.39.26-14.13-5.21-18.41-5.4-4.11-12.97-3.81-18.02.72-1.46,1.48-1.46,3.86,0,5.34,1.49,1.43,3.85,1.43,5.34,0h0Z"/><path class="cls-2" d="M258.07,254.56c11.2-2.72,20.38-11.08,27.48-19.8,5.57-6.45,10.12-13.73,13.48-21.57,1.95-4.84,3.06-9.97,3.29-15.19.13-4.86-7.42-4.86-7.56,0-.16,3.04-.71,6.04-1.64,8.94-.34,1.14-.68,2.27-1.08,3.39-.09.24-.17.48-.26.73-.18.51.28-.58-.17.4-1.94,4.07-4.21,7.99-6.77,11.7-6.88,10.11-16.42,21.09-28.78,24.11-4.72,1.15-2.72,8.44,2.01,7.29h0Z"/><path class="cls-2" d="M164.92,161.89c-4.97-4.35-12.3-4.69-17.65-.81-5.76,4.32-6.04,12.17-5.35,18.76,1.31,12.56,8.09,28.23,22.04,30.56,2,.49,4.04-.67,4.65-2.64.54-2.01-.64-4.08-2.64-4.65-9.76-1.63-14.42-12.05-16.11-20.8-.45-2.43-.65-4.91-.6-7.38-.17-2.18.23-4.36,1.14-6.34,2-2.88,5.96-3.6,8.85-1.6.11.08.22.16.32.24,1.5,1.42,3.84,1.42,5.34,0,1.46-1.48,1.46-3.86,0-5.34Z"/><path class="cls-2" d="M161.66,198.27c3.95,21.73,15.91,42.95,36.1,53.38,5.61,2.9,11.73,4.7,18.03,5.29,2.08-.01,3.76-1.7,3.78-3.78-.04-2.07-1.71-3.73-3.78-3.78-20.49-1.99-36.58-20.32-43.09-38.74-1.63-4.69-2.89-9.49-3.75-14.38-.57-2-2.64-3.17-4.65-2.64-1.98.59-3.15,2.64-2.64,4.65h0Z"/><path class="cls-2" d="M197.05,288.31c11.63,2.92,23.62,4.08,35.59,3.46,9.86-.29,19.63-1.96,29.02-4.96,1.8-.58,3.56-1.28,5.28-2.08,1.79-1.07,2.39-3.37,1.36-5.17-1.08-1.77-3.36-2.36-5.17-1.36-.49.24-1.14.43-.07.05-.88.31-1.74.69-2.63,1-3.2,1.11-6.47,2.01-9.79,2.71-11.68,2.4-23.66,3.03-35.53,1.85-5.42-.49-10.79-1.42-16.06-2.79-4.71-1.23-6.72,6.06-2.01,7.29h0Z"/><path class="cls-2" d="M206.52,412.66c.94-19.58-.67-38.95-1.84-58.47-1.36-22.8-2.31-45.62-2.82-68.45-.29-12.82-.44-25.65-.44-38.47,0-4.86-7.56-4.87-7.56,0,0,22.81.45,45.62,1.36,68.42.84,21.49,2.33,42.93,3.58,64.4.63,10.85.69,21.73.17,32.59-.23,4.86,7.32,4.85,7.56,0h0Z"/><path class="cls-2" d="M261.11,247.88c1.13,11.64,4.78,22.74,6.87,34.2,1.8,10.71,2.62,21.57,2.45,32.43-.04,21.9-3.04,43.62-3.81,65.49-.45,12.59-.49,25.2-.49,37.8,0,4.86,7.56,4.87,7.56,0,0-20.83.2-41.65,1.97-62.41,1.99-23.29,3.76-46.7.47-69.97-1.8-12.65-6.23-24.81-7.46-37.54-.06-2.06-1.71-3.72-3.78-3.78-2.08.01-3.76,1.7-3.78,3.78h0Z"/><path class="cls-2" d="M287.21,256.77c5.53.43,11.08.72,16.62.96,3.4.15,6.83.03,10.22.2,3.77.25,7.52.72,11.24,1.41,5.28.82,10.55,1.72,15.8,2.71,4.59.86,9.22,1.69,13.72,2.93,4.7,1.29,6.7-6,2.01-7.29-9.22-2.31-18.56-4.11-27.98-5.39-4.53-.72-9.08-1.45-13.65-1.83-2.99-.26-6.03-.08-9.04-.19-6.32-.24-12.65-.57-18.96-1.05-2.08.02-3.76,1.7-3.78,3.78.04,2.07,1.71,3.74,3.78,3.78h0Z"/><path class="cls-5" d="M328.61,207.73c7.78-5.94,16.44-12.89,24.19-18.8-2.07-2.41-3.94-4.97-5.62-7.66-2.63-4.86-2.54-10.66-2.66-16.18-.34-16.16-5.38-42.33-14.56-50.94l-.79-1.01c-9.16-8.38-15.28-13.82-24.91-18.85-8.4-4.39-13.21-4.2-15.5-2.96-2.5,1.35-4.05,5.09-3.03,6.9-2.45-1.49-5.65-.7-7.14,1.75-.13.21-.24.44-.34.67-1.63,2.9-.97,6.54,1.57,8.68-3.91,1.5-3.83,5.88-2.95,8.7.87,2.81,2.45,3.95,4.93,5.55,2.26,1.46,3.76,2.7,6.77,5.03-2.71,5.15-3.08,9.9.78,15.21,4.64,6.38,11.15,9.58,16.39,15.49,5.84,6.6,5.19,10.18,6.35,18.92s3.46,18.33,10.79,23.24c2.16,1.85,4.08,3.96,5.72,6.28Z"/><path class="cls-2" d="M327.29,116.82c2.58,2.73,4.59,5.95,5.91,9.48,1.94,4.79,3.44,9.75,4.5,14.81,1.12,4.96,1.94,9.97,2.46,15.03.54,5.32.39,10.66.84,15.97.19,3.74,1.13,7.41,2.77,10.79,1.82,3.11,3.95,6.03,6.36,8.72,1.48,1.46,3.86,1.46,5.34,0,1.43-1.49,1.43-3.85,0-5.34-1.88-2.14-3.57-4.45-5.04-6.89-1.28-2.69-1.96-5.62-1.98-8.6-.3-5.25-.28-10.47-.86-15.71-.94-10.54-3.34-20.89-7.12-30.78-1.7-4.77-4.37-9.13-7.85-12.81-3.51-3.37-8.86,1.97-5.34,5.34h0Z"/><path class="cls-2" d="M331.85,110.47c-9.28-8.47-18.85-16.98-30.67-21.72-3.84-1.54-8.49-2.73-12.58-1.42-5.13,1.64-8.39,7.81-6.12,12.81l5.17-5.17c-2.29-1.2-4.96-1.49-7.45-.8-2.24.83-4.09,2.45-5.19,4.57-2.43,4.39-1.54,9.87,2.17,13.25l.76-5.93c-5.42,2.35-6.3,9.03-4.31,14,1.2,2.71,3.23,4.97,5.8,6.45,2.24,1.49,4.36,3.11,6.48,4.75l-.59-4.58c-1.79,3.14-2.67,6.71-2.54,10.32.46,3.91,2.11,7.59,4.72,10.53,4.49,5.54,10.85,9.11,15.57,14.42,1.67,1.77,2.94,3.87,3.74,6.17.62,2.32,1,4.7,1.15,7.09.48,6.61,2,13.11,4.52,19.24,1.38,3.16,3.42,5.99,5.98,8.3,1.42,1.23,2.34,1.71,3.46,2.85,1.23,1.27,2.37,2.61,3.43,4.01,1.1,1.75,3.36,2.34,5.17,1.36,1.79-1.06,2.39-3.37,1.36-5.17-1.73-2.5-3.74-4.79-6-6.82-2.15-1.53-4-3.44-5.46-5.64-2.93-4.88-4.03-10.81-4.7-16.39-.63-5.21-.83-10.5-3.46-15.18-3.27-5.8-8.72-9.75-13.7-13.95-3.03-2.24-5.55-5.08-7.41-8.36-1.24-2.93-.97-6.28.71-8.99.84-1.49.6-3.35-.59-4.58-1.87-1.45-3.72-2.94-5.64-4.33-1.57-.88-3.03-1.95-4.35-3.19-.66-.96-1.04-2.1-1.09-3.26-.03-1.43.06-1.89,1.57-2.55,1.8-1.07,2.4-3.4,1.33-5.2-.16-.27-.35-.51-.56-.73-1.16-.85-1.64-2.34-1.2-3.7.57-1.47,1.18-2.02,2.52-1.46,1.85,1,4.17.31,5.17-1.54.61-1.13.61-2.5,0-3.63.4.87.13.38.4-.26.29-.59.72-1.1,1.27-1.47.46-.41-.77.17-.07.02.21-.05.41-.1.62-.18.79-.28-.19-.03.13-.05.27-.02.54-.04.81-.05,3.41-.06,7.62,1.83,11.07,3.68,8.72,4.68,16,11.15,23.27,17.79,3.58,3.27,8.94-2.05,5.34-5.34h-.01Z"/><path class="cls-2" d="M321.95,117.74c-5.15-4.65-10.66-8.89-16.47-12.68-5.72-3.92-11.8-7.3-18.15-10.07-2.01-.54-4.08.63-4.65,2.64-.5,2.01.66,4.05,2.64,4.65-.5-.21.28.13.36.17.31.14.63.28.93.43.65.3,1.3.62,1.94.94,1.45.73,2.89,1.51,4.3,2.32,3,1.71,5.94,3.54,8.82,5.46,5.28,3.43,10.28,7.27,14.95,11.49,3.56,3.31,8.92-2.03,5.34-5.34h0Z"/><path class="cls-2" d="M319.25,129.83c-11.36-8.9-23.38-17.36-36.43-23.61-1.81-1-4.08-.4-5.17,1.36-1.03,1.8-.43,4.1,1.36,5.17,12.41,6.19,24.11,13.71,34.9,22.43,1.5,1.42,3.85,1.42,5.35,0,1.46-1.48,1.46-3.86,0-5.34h0Z"/><path class="cls-2" d="M315.29,144.14c-8.26-6.7-16.08-14.11-25.32-19.49-1.8-1.05-4.12-.45-5.17,1.36-1.05,1.8-.45,4.12,1.36,5.17h0c8.76,5.1,15.88,11.88,23.8,18.3,1.5,1.42,3.84,1.42,5.34,0,1.46-1.48,1.46-3.86,0-5.34h0Z"/><path class="cls-2" d="M330.69,321.12c-1.81,9.8-3.15,19.69-4.07,29.61-1.51,16.08-2.25,32.42-.36,48.49,1.08,9.14,2.68,18.2,4.45,27.23.57,2,2.64,3.17,4.65,2.64,1.98-.59,3.15-2.64,2.64-4.65-3.04-15.49-5.44-30.94-5.26-46.77.16-14.07,1.23-28.12,3.21-42.06.6-4.18,1.27-8.34,2.04-12.49.5-2-.66-4.05-2.64-4.65-2.01-.54-4.08.64-4.65,2.63Z"/><path class="cls-2" d="M171.62,251.01c-3.11.23-6.23.26-9.34.09-4.17-.09-8.34-.24-12.5-.42-2.43-.11-4.9-.4-7.32-.31-4.45.27-8.87.85-13.23,1.73-5.34.94-10.68,2.01-15.9,3.45-4.68,1.29-2.69,8.58,2.01,7.29,8.54-2.47,17.3-4.1,26.16-4.86,2.4-.06,4.79.01,7.18.22,4.02.19,8.03.33,12.05.44,3.63.22,7.27.2,10.9-.05,2.06-.06,3.72-1.72,3.78-3.78-.01-2.08-1.7-3.76-3.78-3.78h0Z"/><path class="cls-5" d="M176.75,109.32c2.54-2.14,3.2-5.79,1.57-8.68-1.12-2.64-4.17-3.88-6.81-2.76-.23.1-.45.21-.67.34,1.01-1.81-.53-5.55-3.03-6.9-2.29-1.23-7.1-1.43-15.5,2.96-9.63,5.04-15.74,10.48-24.91,18.85l-.79,1.01c-9.18,8.61-14.21,34.79-14.56,50.94-.12,5.52-.03,11.32-2.66,16.18-1.68,2.69-3.56,5.25-5.62,7.66,7.75,5.91,16.41,12.86,24.19,18.8,1.64-2.32,3.56-4.43,5.72-6.28,7.33-4.9,9.64-14.5,10.8-23.24,1.16-8.74.51-12.32,6.35-18.92,5.23-5.91,11.74-9.11,16.39-15.49,3.86-5.3,3.49-10.06.78-15.21,3.01-2.32,4.51-3.57,6.77-5.03,2.48-1.59,4.06-2.73,4.93-5.55.87-2.81.96-7.19-2.95-8.7Z"/><path class="cls-2" d="M106.45,191.61c4.14-5.06,7.83-9.87,8.78-16.52.79-5.58.51-11.25.99-16.86.77-10.26,2.93-20.36,6.42-30.03.84-2.26,1.86-4.45,3.04-6.55.94-1.79,2.16-3.42,3.62-4.82,3.51-3.38-1.83-8.71-5.34-5.34-6.71,6.45-9.7,16.64-11.84,25.41-2.41,10.23-3.71,20.7-3.89,31.21.1,3.43-.41,6.84-1.51,10.09-1.46,2.95-3.35,5.68-5.6,8.09-1.42,1.5-1.42,3.84,0,5.34,1.48,1.46,3.86,1.46,5.34,0h0Z"/><path class="cls-2" d="M130.07,115.8c7.27-6.64,14.55-13.1,23.27-17.79,2.08-1.17,4.28-2.13,6.54-2.88,1.4-.5,2.88-.77,4.37-.8.28,0,.55.02.83.03.91.04-.58-.18.16.03.25.07.5.14.75.21.65.17-.52-.42-.07-.02.54.37.98.88,1.26,1.47.3.7.03,1.08.4.26-1,1.85-.31,4.17,1.55,5.17,1.13.61,2.49.61,3.62,0,1.32-.56,1.94-.02,2.52,1.46.44,1.36-.04,2.85-1.2,3.7-1.47,1.49-1.46,3.9.03,5.37.22.22.46.41.73.56,1.41.61,1.62,1.1,1.57,2.33.03,1.25-.35,2.47-1.09,3.49-1.25,1.19-2.65,2.21-4.15,3.04-1.99,1.42-3.9,2.97-5.84,4.47-1.2,1.22-1.45,3.09-.59,4.58,1.49,2.43,1.88,5.38,1.08,8.12-1.32,2.95-3.33,5.54-5.86,7.56-5.01,4.58-10.61,8.29-14.56,13.94-3.07,4.4-3.7,9.38-4.27,14.57-.62,5.62-1.39,11.6-3.89,16.74-1.24,2.67-3.11,4.99-5.45,6.77-2.7,2.2-5.08,4.77-7.07,7.63-1.04,1.8-.44,4.11,1.36,5.17,1.81,1,4.08.4,5.17-1.36,1.62-2.19,3.52-4.16,5.65-5.87,2.55-1.98,4.67-4.47,6.23-7.3,3.22-5.8,4.4-12.38,5.23-18.88.67-5.23.72-9.83,3.89-14.09,4.14-5.56,10.4-9.01,15.13-13.98,3.04-2.88,5.19-6.57,6.19-10.63.63-4.21-.17-8.5-2.29-12.19l-.59,4.58c2.13-1.65,4.24-3.27,6.48-4.75,2.57-1.48,4.6-3.74,5.8-6.45,1.99-4.97,1.1-11.65-4.31-14l.76,5.93c3.71-3.38,4.61-8.87,2.17-13.26-1.11-2.11-2.97-3.74-5.2-4.57-2.49-.69-5.15-.41-7.44.8l5.17,5.17c2.28-5-.99-11.16-6.12-12.81-4.09-1.31-8.75-.12-12.59,1.42-11.82,4.74-21.4,13.25-30.68,21.72-3.6,3.29,1.76,8.62,5.34,5.34h0Z"/><path class="cls-2" d="M139.97,123.08c4.67-4.22,9.67-8.06,14.95-11.49,2.81-1.87,5.67-3.67,8.6-5.34,1.42-.81,2.86-1.59,4.31-2.33.64-.33,1.29-.65,1.95-.96.31-.15.63-.29.94-.44.1-.05,1.1-.49.55-.25,1.97-.61,3.12-2.65,2.64-4.65-.56-2-2.64-3.18-4.65-2.64-6.35,2.78-12.43,6.15-18.15,10.07-5.82,3.79-11.32,8.03-16.47,12.68-3.58,3.31,1.78,8.64,5.34,5.34h0Z"/><path class="cls-2" d="M142.67,135.16c10.79-8.72,22.49-16.23,34.9-22.43,1.79-1.06,2.39-3.36,1.36-5.17-1.08-1.77-3.36-2.36-5.17-1.36-13.05,6.25-25.07,14.71-36.43,23.61-1.46,1.48-1.46,3.86,0,5.34,1.5,1.43,3.85,1.43,5.34,0h0Z"/><path class="cls-2" d="M146.64,149.48c7.92-6.42,15.03-13.2,23.79-18.3,1.8-1.05,2.41-3.37,1.36-5.17-1.05-1.8-3.37-2.41-5.17-1.36h0c-9.24,5.38-17.06,12.78-25.32,19.49-1.46,1.48-1.46,3.86,0,5.34,1.49,1.43,3.85,1.43,5.34,0Z"/><path class="cls-2" d="M118.61,323.13c.05.27.09.54.13.82.03.18-.08-.75,0,.04.08.75.16,1.5.21,2.26.13,1.65.2,3.29.25,4.94.13,4.18.12,8.37.06,12.55-.12,9.13-.48,18.25-.96,27.36-.2,3.78-.41,7.57-.68,11.35,0,2.09,1.69,3.78,3.78,3.78s3.78-1.69,3.78-3.78c1.17-16.75,2.04-33.66,1.59-50.45-.02-3.64-.32-7.28-.89-10.88-.57-2-2.64-3.17-4.65-2.64-1.98.59-3.15,2.64-2.64,4.65h0Z"/><path class="cls-2" d="M335.24,325.89c12.3,1.14,24.65,1.64,36.99,1.88,12.31.24,24.7.42,37.01-.03,10.97-.35,21.32-5.19,28.63-13.38,3.05-3.35,5.26-7.39,6.43-11.77,1.13-6.03,1.08-12.22-.13-18.23-.7-4.59-2.13-9.03-4.25-13.16-2.22-4.24-4.7-8.34-7.42-12.29-3.59-5.36-7.55-10.46-11.84-15.27-9.35-10.39-18.82-20.67-28.3-30.94-9.29-10.07-18.51-20.22-28.1-30.01-.56-.57-1.12-1.14-1.7-1.7-1.22-1.2-3.09-1.44-4.58-.59-13.18,9.52-25.55,20.1-38.72,29.62-1.75,1.1-2.34,3.36-1.36,5.17,1.26,2.28,2.73,4.44,4.39,6.44,2.74,3.62,5.58,7.17,8.43,10.7,6.47,8.03,13.07,15.98,19.4,24.12,2.43,3.12,5.24,6.8,7.55,10.37,2.63,4.07,9.17.29,6.52-3.81-5.1-7.48-10.58-14.69-16.43-21.59-3.31-4.09-6.62-8.16-9.93-12.25-1.53-1.89-3.05-3.78-4.57-5.67-.65-.82-1.3-1.64-1.95-2.46-.28-.36-.57-.73-.86-1.09-.47-.59-.6-.77-.79-1.02-1.99-2.34-3.74-4.87-5.24-7.56l-1.36,5.17c13.18-9.52,25.55-20.1,38.72-29.62l-4.58-.59c8.46,8.29,16.37,17.19,24.42,25.89,10.05,10.85,20.05,21.75,30,32.68,8.94,9.86,17.08,20.07,22.84,32.32.28.59.53,1.2.74,1.82.31.92.57,1.85.78,2.8.66,2.82,1.12,5.69,1.36,8.58.36,4.53.31,9.76-1.54,13.54-3.97,8.06-12.25,13.52-20.87,15.47-5.35,1.2-11.04.84-16.49.89-6.09.05-12.17.05-18.25,0-12.17-.12-24.34-.47-36.48-1.31-2.83-.2-5.66-.43-8.49-.69-2.08.02-3.76,1.7-3.78,3.78.04,2.07,1.71,3.74,3.78,3.78h0Z"/><path class="cls-2" d="M121.34,318.33c-23.84,2.2-47.9,2.3-71.82,1.89-9.92-.17-19.35-3.81-25.78-11.59-2.39-2.71-3.94-6.05-4.46-9.63-.58-5.75-.14-11.55,1.29-17.14.95-3.65,2.46-7.13,4.49-10.31,2.38-4.16,5.02-8.17,7.78-12.08,2.96-4.13,6.16-8.07,9.59-11.81,9.38-10.39,18.83-20.71,28.36-30.97,8.9-9.64,17.75-19.36,26.94-28.74.54-.55,1.08-1.1,1.63-1.63l-4.58.59c13.18,9.52,25.55,20.1,38.72,29.62l-1.35-5.17c-1.31,2.39-2.82,4.67-4.52,6.8-2.74,3.76-5.58,7.44-8.42,11.12-6.48,8.39-13.28,17-19.73,25.58-2.78,3.7-5.57,7.41-8.08,11.3-2.65,4.09,3.89,7.89,6.52,3.81,4.95-7.66,10.7-14.83,16.29-22.03,6.37-8.22,12.84-16.37,19.02-24.71,2.05-2.52,3.87-5.22,5.44-8.06.98-1.81.39-4.07-1.36-5.17-13.17-9.51-25.55-20.11-38.72-29.63-1.48-.86-3.36-.62-4.58.59-8.84,8.66-17.09,17.96-25.49,27.04-10.14,10.96-20.24,21.97-30.28,33.03-3.51,3.87-6.91,7.76-10.02,11.96-5.42,7.34-11.1,15.35-14.15,24.02-1.77,5.53-2.64,11.32-2.58,17.13-.2,4.99.88,9.95,3.15,14.4,4.82,8.93,14.13,15.34,23.82,17.87,5.79,1.51,11.77,1.36,17.71,1.42,6.16.06,12.31.07,18.47.03,12.63-.1,25.28-.44,37.88-1.3,2.94-.2,5.88-.44,8.82-.71,2.06-.05,3.72-1.71,3.78-3.78-.01-2.08-1.7-3.76-3.78-3.78h0Z"/><path class="cls-2" d="M230.64,194.87c.61,2.22,1.11,4.46,1.47,6.73l-.13-1c.04.31.05.62.03.93l.13-1c-.02.14-.06.28-.1.42l.38-.9c-.04.09-.09.18-.15.27l.59-.77c-.07.08-.14.15-.22.22l.77-.59c-.17.11-.35.2-.53.28l.9-.38c-.29.12-.59.21-.9.26l1-.13c-.28.03-.56.03-.84,0l1,.13c-.31-.04-.63-.12-.94-.16-.49-.16-1.01-.18-1.51-.07-.5.02-.98.18-1.4.45-1.8,1.05-2.41,3.37-1.36,5.17.48.86,1.3,1.49,2.26,1.73.75.1,1.48.29,2.25.33,1.17,0,2.32-.27,3.35-.8,1.34-.62,2.33-1.8,2.7-3.23.24-1.14.23-2.31-.03-3.44-.37-2.17-.87-4.32-1.43-6.45-.55-2.01-2.63-3.19-4.64-2.64,0,0,0,0,0,0-1.99.59-3.15,2.64-2.64,4.65h0Z"/><path class="cls-2" d="M181.78,197.57c1.43,1.79,2.68,3.71,3.73,5.75.09.3.22.59.39.85-.21-.5-.26-.62-.16-.35.05.11.09.23.14.34.22.55.41,1.12.6,1.68s.34,1.12.48,1.69c.17.67.01-.89-.03-.14v.44c.1-.59.12-.74.06-.44-.02.11-.05.23-.08.34-.13.38-.08.31.13-.21-.15.23-.28.47-.39.71-.37.64.38-.36-.21.24-.64.66.53-.21-.09.12-.83.44-.01,0,.02.05-.14.05-.29.09-.44.12-.4.07-.27.06.38-.04-.21-.01-.42,0-.63.02-.14,0-.28-.01-.43-.03.61.09.77.11.47.06-.23-.09-.49-.11-.73-.18-.1-.03-.2-.07-.31-.11-.27-.1-.14-.05.4.17-.24-.16-.49-.3-.75-.42l-.18-.12c-.31-.23-.23-.16.26.2-.06-.13-.34-.33-.45-.44-.26-.3-.19-.2.2.28-.08-.11-.16-.23-.23-.34-.3-.5.01-.4.03.17,0-.22-.27-1.37-.1,0-.03-1-.42-1.95-1.1-2.68-.71-.7-1.67-1.1-2.68-1.1-1.83.08-4.04,1.68-3.78,3.78.11,1.45.59,2.85,1.39,4.06.82,1.17,1.87,2.14,3.1,2.87,2.5,1.5,5.54,1.76,8.26.72,3.13-1.39,5.23-4.41,5.44-7.83-.12-2.65-.84-5.24-2.1-7.58-1.1-2.32-2.47-4.5-4.08-6.49-.53-.82-1.32-1.44-2.26-1.73-.98-.26-2.03-.12-2.91.38-1.54,1-2.64,3.49-1.36,5.17h0Z"/><path class="cls-2" d="M231.69,215.46c-.12,0-1.09-.14-.33-.01-.41-.07-.81-.17-1.22-.26-.79-.18-1.56-.39-2.34-.58-2.21-.6-4.49-.97-6.78-1.09-4.57-.12-8.86,2.2-11.25,6.09-5.22,7.97-2.55,21.28,7.74,23.36,2.42.5,4.93.43,7.31-.23,2.11-.62,3.96-2.27,6.09-2.72,1.66-.35,2.98.6,4.41,1.34,2.21,1.2,4.66,1.86,7.17,1.93,5.15.23,9.95-2.64,12.18-7.29,1.92-4.28,2.04-9.15.35-13.53-1.72-5.02-6.25-8.53-11.54-8.95-2.44-.06-4.87.24-7.22.88-.94.22-1.87.47-2.8.7-.4.1-.8.19-1.2.28-.23.05-.46.09-.7.13.48-.06.53-.08.13-.05-4.85.17-4.87,7.73,0,7.56,4.63-.17,11.35-4.39,14.98-.14,3.52,4.11,2.61,12.84-3.88,12.86-3.32.01-5.72-2.52-8.9-3.13-2.02-.41-4.12-.24-6.05.47-1.56.59-2.93,1.59-4.48,2.19-2.64,1.03-6.1.55-7.61-2.05-1.31-2.58-1.41-5.62-.28-8.28,2.91-7.16,10.79-2.11,16.22-1.93,4.87.18,4.86-7.38,0-7.54Z"/><path class="cls-2" d="M210.32,179.82c-1.16-.21-2.33-.33-3.5-.35-1.04.02-2.08.12-3.11.29-1.59.28-3.16.64-4.71,1.1-.94.27-1.75.89-2.26,1.73-1.05,1.8-.45,4.11,1.35,5.17.88.52,1.93.65,2.91.38,1.59-.48,3.22-.85,4.86-1.13l-1,.14c1.3-.17,2.62-.17,3.93,0l-1-.14c.18.03.35.05.53.08.98.24,2.02.1,2.91-.38,1.8-1.05,2.41-3.37,1.36-5.17-.49-.86-1.3-1.48-2.26-1.73h0Z"/><path class="cls-2" d="M255.95,187.02c1.27-.15,2.54-.14,3.81.02l-1-.14c1.85.33,3.67.82,5.44,1.45,2.01.54,4.08-.64,4.65-2.64.51-2.01-.66-4.05-2.64-4.65-1.5-.53-3.03-.96-4.58-1.31-1.87-.39-3.78-.5-5.68-.3-1,.03-1.95.42-2.68,1.1-1.48,1.48-1.48,3.87,0,5.34,0,0,0,0,0,0,.7.72,1.67,1.12,2.68,1.1h0Z"/><path class="cls-2" d="M266.47,168.35c.97,2.34,2.75,4.26,5.01,5.41,2.38,1.49,5.07,2.41,7.86,2.71,1,0,1.97-.39,2.68-1.1,1.48-1.48,1.48-3.87,0-5.34-.74-.66-1.68-1.05-2.68-1.1l-.37-.06,1,.14c-1.08-.17-2.14-.47-3.15-.91l.9.38c-1.35-.56-2.63-1.3-3.79-2.19l.77.59c-.56-.42-1.06-.9-1.5-1.44l.59.77c-.14-.19-.27-.39-.36-.61l.38.9c-.02-.06-.04-.11-.06-.17-.28-.94-.89-1.75-1.73-2.26-1.8-1.05-4.12-.45-5.17,1.35-.51.88-.65,1.93-.38,2.91h0Z"/><path class="cls-2" d="M280.91,78.28c.96-.93,1.94-1.84,2.96-2.72.42-.37.85-.73,1.29-1.08.17-.14.65-.51.23-.19.23-.18.47-.35.71-.52,1.73-1.28,3.6-2.36,5.57-3.23-.71.31.47-.17.74-.26.51-.18,1.02-.34,1.53-.48,1.01-.29,2.03-.48,3.06-.67,1.07-.2-.44.04.19-.03.29-.03.58-.07.87-.09.6-.06,1.21-.1,1.81-.12,1.3-.06,2.6-.04,3.9,0,2.09,0,3.78-1.69,3.78-3.78s-1.69-3.78-3.78-3.78c-5.33-.32-10.67.56-15.63,2.57-4.71,2.23-8.98,5.3-12.59,9.05-1.49,1.46-1.51,3.86-.04,5.34,1.46,1.49,3.86,1.51,5.34.04.01-.01.03-.03.04-.04h0Z"/><path class="cls-2" d="M160.51,70.11c.31-.06.61-.11.92-.16.63-.1-.52.05.11,0,.56-.05,1.11-.1,1.67-.11,1.12-.03,2.24.01,3.35.12,1.17.1-.38-.07.29.04.25.04.49.08.74.13.55.1,1.1.22,1.64.36.6.15,1.2.33,1.79.53.24.08.47.16.71.25.08.03.94.37.59.22-.3-.12.35.16.41.18.28.13.57.26.84.4.5.25,1,.52,1.48.8.48.28.96.58,1.42.89.21.14.41.28.61.43.52.35-.01-.03.28.2.88.7,1.7,1.45,2.47,2.27.39.41.75.83,1.11,1.26.12.15.34.44.1.12.22.3.44.61.65.92,1.09,1.76,3.36,2.35,5.17,1.36,1.79-1.07,2.39-3.37,1.36-5.17-6.62-9.61-18.26-14.42-29.73-12.29-2,.57-3.17,2.64-2.64,4.65.59,1.98,2.64,3.15,4.65,2.64h0Z"/><path class="cls-2" d="M149.38,198.39c-4.95,10.04-4.67,20.86-3.06,31.67.67,4.49,1.7,9.45.38,13.91-.34,1.36-1.09,2.58-2.15,3.49-.97.77-2.29.93-3.17,1.81-.92,1-1.41,2.33-1.37,3.69-.15,4.86,7.4,4.86,7.56,0l-.26.89-2.26,1.73c10.19-3.84,10.35-14.62,9.08-23.84-1.36-9.92-2.86-20.18,1.76-29.54,1-1.81.4-4.08-1.36-5.17-1.8-1.03-4.1-.43-5.17,1.36h0Z"/><path class="cls-3" d="M397.77,444.56c9.39,9.4,18.59,18.99,27.98,28.4,5.12,4.96,13.25,4.96,18.37,0,19.36-19,38.54-38.19,57.54-57.56,5.07-5.07,5.07-13.3,0-18.37-5.07-5.07-13.3-5.07-18.37,0-18.96,19.4-38.14,38.59-57.54,57.56h18.37c-9.39-9.4-18.59-18.99-27.98-28.4-5.07-5.07-13.3-5.07-18.37,0-5.07,5.07-5.07,13.3,0,18.37h0Z"/></g></svg>