<?xml version="1.0" encoding="UTF-8"?><svg xmlns="http://www.w3.org/2000/svg" viewBox="0 0 235.96 211.6"><defs><style>.cls-1{isolation:isolate;}.cls-2{fill:none;mix-blend-mode:multiply;stroke:#ffb14d;stroke-miterlimit:10;stroke-width:1.85px;}.cls-3{fill:#fe7b17;}.cls-3,.cls-4{stroke-width:0px;}.cls-4{fill:#fff;}</style></defs><g class="cls-1"><g id="_レイヤー_2"><g id="_レイヤー_1-2"><path class="cls-3" d="M167.39,7.93h-90.9c-8.26,0-15.89,4.41-20.02,11.56L11.02,98.21c-4.13,7.15-4.13,15.96,0,23.11l45.45,78.72c4.13,7.15,11.76,11.56,20.02,11.56h90.9c8.26,0,15.89-4.41,20.02-11.56l45.45-78.72c4.13-7.15,4.13-15.96,0-23.11l-45.45-78.72c-4.13-7.15-11.76-11.56-20.02-11.56Z"/><path class="cls-2" d="M160.39.93h-90.9c-8.26,0-15.89,4.41-20.02,11.56L4.02,91.21c-4.13,7.15-4.13,15.96,0,23.11l45.45,78.72c4.13,7.15,11.76,11.56,20.02,11.56h90.9c8.26,0,15.89-4.41,20.02-11.56l45.45-78.72c4.13-7.15,4.13-15.96,0-23.11L180.41,12.48c-4.13-7.15-11.76-11.56-20.02-11.56Z"/><path class="cls-4" d="M107.83,130.94c-4.04,3.96-9.25,5.91-14.3,5.91s-10.26-1.94-14.3-5.91c-4.66-4.59-7.7-12.05-7.7-21.14s3.03-16.63,7.7-21.22c4.04-3.96,9.25-5.91,14.3-5.91s10.26,1.94,14.3,5.91c4.66,4.59,7.69,12.05,7.69,21.22s-3.03,16.56-7.69,21.14ZM89.41,96.35c-2.8,2.41-4.51,8.71-4.51,13.52,0,4.12,1.48,10.88,4.51,13.52,1.01.93,2.56,1.63,4.12,1.63s3.11-.7,4.12-1.63c2.88-2.49,4.51-9.02,4.51-13.45s-1.79-11.19-4.51-13.6c-1.01-.93-2.56-1.63-4.12-1.63s-3.11.7-4.12,1.63Z"/><path class="cls-4" d="M135.04,95.27h-7.38v-11.43h20.83v51.84h-13.45v-40.42Z"/></g></g></g></svg>