<?xml version="1.0" encoding="UTF-8"?><svg id="_レイヤー_2" xmlns="http://www.w3.org/2000/svg" viewBox="0 0 548.06 529.58"><defs><style>.cls-1{fill:#a88975;}.cls-1,.cls-2,.cls-3,.cls-4,.cls-5,.cls-6,.cls-7,.cls-8{stroke-width:0px;}.cls-2{fill:#41352c;}.cls-3{fill:#cb6850;}.cls-4{fill:#fff;}.cls-5{fill:#84807f;}.cls-6{fill:#ff9c31;}.cls-7{fill:#211715;}.cls-8{fill:#ffca8c;}</style></defs><g id="_レイヤー_1-2"><path class="cls-8" d="M502.98,178c31.56,99.07-6.97,219.06-90.27,279.61-82.93,60.54-210.25,61.65-297.95,0C26.7,395.59-22.11,270.83,9.82,171.76,41.74,72.32,154.76-1.8,261.9.03c107.51,1.83,209.52,79.26,241.08,177.96Z"/><circle class="cls-8" cx="443.61" cy="425.13" r="104.45"/><path class="cls-4" d="M180.61,141.92c1.51-1.5,3.55-2.34,5.68-2.33,2.72-.19,5.33,1.13,6.79,3.44,2.41,3.83,2.59,11.05,1.25,15.57-.95,3.2-2.53,8.11-6.63,11.74-1.83,1.64-4.26,2.45-6.7,2.22l-.66-.09c-.56,2.18-1.25,4.33-2.09,6.42-1.54,4.72-10.35,21.35-22.07,28.27.11,3.12.51,6.23,1.19,9.28.54,2.09,1.89,3.89,3.76,4.98,2.77,1.84,8.32,3.24,12.78,4.01-.09.09-.13.14-.13.14-8.29,8.97-23.87,13.94-40,14.61-16.47.58-33.93-3.95-41.47-11.99,3.85-1.14,8.51-2.27,11.69-4.21,2.05-1.48,3.48-3.65,4.05-6.11.2-2.96.22-5.93.07-8.89-5.59-2.8-10.57-6.69-14.64-11.44-5.52-6.17-9.72-13.41-12.34-21.27-2.57.65-5.31.08-7.4-1.55-4.37-3.31-6.32-8.08-7.51-11.2-1.69-4.41-2.06-11.62.05-15.62,1.27-2.41,3.77-3.93,6.5-3.95,2.12-.18,4.23.5,5.84,1.89,0,0-8.56-48.21,51.38-48.21s50.62,44.29,50.62,44.29Z"/><path class="cls-5" d="M186.66,100.58c-2.82-7.62-7.22-14.29-13.42-18.88l-7.05-6.85c-8.08-9.84-20.8-14.86-38.69-14.96-23.26.11-40.02,11.16-47.24,21.14l1.62,1.55c-15.23,14.28-20.03,38.97-11.5,61.83.77-.25,1.57-.41,2.38-.46,2.12-.18,4.23.5,5.84,1.89l7.89-7.16c5.85-7.05,16.26-17.74,23.68-22.01.87-.5,2.04.09,2.45,1.56.34,1.15.46,2.35.37,3.55-.14,1.01.57,1.95,1.58,2.09.39.05.79-.02,1.14-.2,5.29-3.21,14.7-9.63,21.42-12.77l10.18.86c3.48,1.28,6.71,3.15,9.56,5.51,6.35,5.06,12.53,12.09,15.4,18.56l8.34,6.1c1.51-1.5,3.55-2.34,5.68-2.33.92-.01,1.83.11,2.71.36,2.66-12.5,2.18-27.16-2.34-39.37Z"/><path class="cls-2" d="M82.59,82.39c1.34-1.76,2.81-3.4,4.42-4.91,1.8-1.69,3.73-3.24,5.77-4.62,5.06-3.41,10.63-6,16.5-7.69,7.01-2,14.29-2.85,21.57-2.5,6.48.17,12.88,1.4,18.95,3.65,5.64,2.19,10.62,5.78,14.47,10.44,1.06,1.04,2.76,1.04,3.81,0,1.02-1.07,1.02-2.75,0-3.81-8.52-10.29-21.52-14.53-34.47-15.51-14.56-1.1-29.62,1.93-42.05,9.78-5.29,3.25-9.92,7.48-13.64,12.45-.74,1.29-.31,2.93.97,3.69,1.29.72,2.92.29,3.69-.97Z"/><path class="cls-2" d="M72.88,143.43c-5.72-15.69-5.66-33.85,2.76-48.58,2.19-3.83,4.93-7.32,8.14-10.36,2.53-2.39-1.29-6.2-3.81-3.81-12.96,12.26-18.1,30.92-16.03,48.35.63,5.41,1.89,10.72,3.74,15.84.43,1.41,1.89,2.24,3.32,1.88,1.43-.41,2.27-1.88,1.88-3.32h0Z"/><path class="cls-2" d="M171.87,84.03c12.49,9.34,16.31,26.83,16.04,41.6-.07,4.47-.56,8.93-1.45,13.32-.36,1.43.47,2.89,1.88,3.32,1.43.38,2.91-.46,3.32-1.88,3.42-16.66,2.1-36.09-7.39-50.66-2.59-3.99-5.87-7.5-9.68-10.35-1.29-.74-2.93-.31-3.69.97-.72,1.29-.29,2.92.97,3.69h0Z"/><path class="cls-2" d="M80.51,143.94c-3.53-2.96-8.49-3.52-12.58-1.4-2.84,1.63-4.79,4.45-5.32,7.68-1.42,7.74.41,15.73,5.07,22.07,3.26,4.46,7.87,7.72,13.61,6.73,1.43-.41,2.27-1.88,1.88-3.32-.42-1.41-1.89-2.25-3.32-1.88-3.93.68-7.12-3.31-8.85-6.29-1.75-2.89-2.89-6.11-3.34-9.46-.36-3.13-.38-6.87,1.39-9.57.11-.15.08-.12-.07.08.11-.13.22-.26.34-.38.09-.09.69-.63.52-.5.57-.41,1.22-.71,1.91-.86,1.71-.49,3.54-.15,4.96.92,1.07,1.01,2.74,1.01,3.81,0,1.04-1.06,1.04-2.76,0-3.81h0Z"/><path class="cls-2" d="M182.52,143.83c2.29-2.15,5.88-2.04,8.03.25,0,0,0,0,0,0-.39-.46.13.2.2.31.25.39.46.79.64,1.21.28.72.5,1.47.65,2.23.38,1.86.51,3.76.4,5.65-.21,3.3-1.08,6.52-2.57,9.48-1.72,3.49-4.53,7.33-8.87,6.91-1.49.01-2.69,1.21-2.7,2.7.03,1.48,1.22,2.67,2.7,2.7,8.98.86,14.05-8.98,16.03-16.27,1.03-3.99,1.13-8.17.3-12.2-.48-3.33-2.29-6.33-5.03-8.29-4.36-2.61-9.92-1.98-13.59,1.52-2.49,2.43,1.32,6.24,3.81,3.81h0Z"/><path class="cls-2" d="M178.56,167.98c-.38,2.2-.92,4.37-1.6,6.5-.27.87-.55,1.73-.87,2.58-.07.18-.14.36-.21.54-.2.52.31-.8-.1.25-.11.28-.21.56-.31.83-.07.17-.13.34-.2.51-.04.11-.09.21-.13.32-.13.34.21-.48.06-.14-.24.54-.48,1.08-.74,1.62-.58,1.2-1.2,2.38-1.85,3.55-3.37,6.29-7.77,11.97-13.02,16.79-2.82,2.63-6.21,4.58-9.91,5.7-3.35.91-1.93,6.12,1.43,5.2,7.77-2.11,14.04-8.02,18.91-14.18,4.2-5.17,7.67-10.9,10.28-17.03.1-.25.21-.51.3-.77.04-.11.25-.75.11-.37-.19.54.15-.37.25-.6.09-.21.17-.43.25-.64.2-.53.39-1.07.56-1.61.85-2.49,1.5-5.03,1.96-7.62.35-1.43-.48-2.89-1.88-3.32-1.43-.38-2.91.45-3.32,1.88h0Z"/><path class="cls-2" d="M77.36,173.12c1.98,7.48,5.29,14.54,9.78,20.84,4.93,6.84,11.28,13.21,18.9,17.01,4.01,1.99,8.34,3.24,12.8,3.7,1.49,0,2.69-1.21,2.7-2.7-.03-1.48-1.22-2.66-2.7-2.7-14.87-1.62-26.48-14.61-32.57-27.41-1.54-3.27-2.79-6.68-3.71-10.18-.9-3.35-6.1-1.93-5.2,1.43h0Z"/><path class="cls-2" d="M126.64,186.86c.37-.21.73-.42,1.11-.61.12-.06.55-.35.67-.32-.37.15-.45.19-.26.11.08-.03.16-.06.24-.09.14-.06.29-.11.43-.16.72-.25,1.46-.44,2.21-.58.25-.05.5-.09.76-.13-.4.06.09-.01.24-.03.56-.06,1.12-.1,1.68-.12,1.01-.04,2.03-.02,3.04.08.22.02.55.08.14.01.22.04.45.07.67.12.34.07.67.15,1.01.24s.63.2.94.31c.47.16.02-.08-.13-.06.14.04.27.1.39.18.38.19.73.4,1.08.64,1.29.75,2.93.31,3.69-.97.71-1.29.29-2.91-.97-3.69-2.75-1.98-6.59-2.39-9.87-2.26-3.44.06-6.82.97-9.82,2.66-1.29.75-1.72,2.4-.97,3.69.75,1.29,2.4,1.72,3.69.97h0Z"/><path class="cls-2" d="M131.65,161.13c.25.84.49,1.68.71,2.52.26.88.47,1.78.62,2.69l-.1-.72c.02.18.03.36.01.54l.1-.72c-.02.11-.04.22-.08.32l.27-.65c-.03.07-.07.14-.12.21l.42-.55s-.07.08-.11.11l.55-.42c-.16.11-.32.2-.5.28l.65-.27c-.21.09-.43.15-.65.19l.72-.1c-.23.03-.46.02-.69,0l.72.1c-.43-.06-.86-.14-1.29-.18-.72,0-1.4.28-1.91.79-1.05,1.05-1.05,2.76,0,3.81.53.48,1.2.75,1.91.79.04,0,.08,0,.12.01l-.72-.1c.53.11,1.07.17,1.61.19.86-.03,1.71-.26,2.47-.67.92-.48,1.59-1.34,1.84-2.35.16-.85.13-1.72-.09-2.56-.34-1.59-.77-3.16-1.24-4.72-.2-.67-.64-1.25-1.24-1.61-1.29-.75-2.94-.32-3.69.97-.37.63-.47,1.38-.27,2.08h-.01Z"/><path class="cls-2" d="M104.48,147.91c-.74,2.78.05,9.07,5.27,9.41,6.87-.3,6.94-7.95,4.5-11.45-2.01-2.87-7.63-3.87-9.77,2.05Z"/><path class="cls-2" d="M159.52,145.79c.95,2.71.64,9.05-4.54,9.78-6.87.22-7.53-7.4-5.36-11.07,1.78-3.01,7.3-4.45,9.89,1.29Z"/><path class="cls-2" d="M111.17,134.26c-.67-.19-1.32-.43-1.94-.73l.63.28c-1.47-.62-2.86-1.42-4.13-2.38l.54.44c-.12-.09-.23-.2-.33-.31-.49-.5-1.15-.81-1.85-.85-1.49-.07-2.75,1.09-2.81,2.58-.03.73.23,1.44.73,1.97,1.02.97,2.19,1.76,3.46,2.37.81.43,1.64.82,2.48,1.18.53.24,1.07.44,1.63.59.69.2,1.42.13,2.06-.2.63-.34,1.1-.91,1.32-1.59.44-1.42-.36-2.93-1.78-3.37h-.01Z"/><path class="cls-2" d="M105.41,208.95c.11,2.22.12,4.45.06,6.66-.01.53-.03,1.06-.07,1.58,0,.18-.02.36-.05.53.13-.73-.14.28-.19.42-.4,1.08-1.02,2.07-1.81,2.9-.19.21-.4.4-.63.58.34-.26-.49.27-.58.32-.51.28-1.03.54-1.56.78-.36.16-1.03.42-1.64.64-.7.25-1.4.48-2.11.7-2.6.81-5.24,1.46-7.81,2.36-1.41.43-2.24,1.89-1.88,3.32.41,1.43,1.88,2.27,3.32,1.88,2.87-1.01,5.84-1.7,8.72-2.65,2.87-.94,6.09-2.04,8.19-4.32,2.12-2.26,3.35-5.22,3.47-8.32.1-2.46.09-4.93-.04-7.39-.03-1.48-1.22-2.67-2.7-2.7-1.48.01-2.68,1.21-2.7,2.7h0Z"/><path class="cls-2" d="M177.03,223.21c-.09,0-.17-.02-.26-.03-.26-.04-.52-.08-.79-.11-.61-.09-1.21-.19-1.81-.3-1.2-.22-2.39-.46-3.59-.74-1.25-.29-2.5-.62-3.72-1.01-.56-.17-1.11-.36-1.65-.56-.26-.1-.52-.2-.77-.3.41.17-.25-.11-.32-.15-1.8-.84-3.43-1.95-3.99-3.63-.78-2.81-1.19-5.72-1.23-8.64-.03-1.48-1.22-2.66-2.7-2.7-1.48.01-2.68,1.21-2.7,2.7.2,3.39.38,7.14,1.53,10.37,1.1,2.78,3.21,5.05,5.92,6.33,4.92,2.49,10.66,3.48,16.08,4.16,1.49,0,2.69-1.21,2.7-2.7-.04-1.47-1.22-2.66-2.7-2.7h0Z"/><path class="cls-2" d="M146.6,114.35c4.94,2.1,9.4,5.16,13.13,9.02,4.24,3.93,7.7,8.61,10.21,13.82.76,1.28,2.4,1.71,3.69.97,1.26-.77,1.68-2.4.97-3.69-2.8-5.74-6.66-10.9-11.37-15.21-4.34-4.34-9.51-7.77-15.19-10.1-1.43-.39-2.91.45-3.32,1.88-.36,1.43.47,2.89,1.88,3.32h0Z"/><path class="cls-2" d="M88.4,140.59c5.81-6.97,12.28-13.89,19.62-19.27.78-.57,1.57-1.12,2.38-1.63.17-.11,1.09-.51,1.14-.69-.05.17-1.65.17-1.52-.11,0-.01.07.36.08.31.05.46.12.92.22,1.37.03.53-.05,1.06-.02,1.58.08,1.53.89,2.93,2.18,3.77,2.29,1.46,4.43.18,6.42-1.06,1.86-1.16,3.7-2.35,5.55-3.52,4.51-2.99,9.2-5.7,14.05-8.12,1.28-.76,1.71-2.4.97-3.69-.77-1.26-2.4-1.69-3.69-.97-4.33,2.14-8.52,4.54-12.57,7.18-1.94,1.22-3.86,2.45-5.79,3.68-.84.53-1.69,1.06-2.53,1.59-.18.1-.36.21-.53.33,0-.29,1.13.14,1.14.15.1.03.08.36.2.3s.03-.89.03-1c-.06-2.56-.81-5.82-3.56-6.73-2.27-.75-4.19.73-5.96,1.97-3.91,2.81-7.59,5.93-11.01,9.33-3.74,3.62-7.28,7.44-10.62,11.44-1.01,1.07-1.01,2.74,0,3.81,1.06,1.04,2.76,1.04,3.81,0h0Z"/><path class="cls-4" d="M173.49,392.61c-3.12-.14-6.29-.31-9.56-.49-11.51-.61-23.58-1.47-34.51-2.98-20.8,5.28-43.17,9.21-60.88,10.6-6.87.54-23.32-.94-30.79-8.65-5.91-6.15-9.78-13.97-11.1-22.39-1.7-12.12-2.14-24.38-1.31-36.59,1.25-24.27,2.54-39.53,9.36-64.07,3.98-9.82,8.54-16.66,16.11-21.88,10-6.9,20.54-11.97,40.99-18.53,7.25,8.38,25.13,13.14,41.98,12.55,16.56-.69,32.53-5.91,40.63-15.34,12.42,2.7,25.2,5.81,36.23,12.22,4.47,2.41,8.53,5.54,11.99,9.26,3.39,3.79,6.3,7.99,8.66,12.5,7.24,13.68,9.19,29.03,10.92,44.23,1.65,14.98,2.09,30.07,1.31,45.12-.56,11.73-2,19.17-7.06,28.22-4.12,7.38-16.24,14.34-26.85,15.5-12.01,1.22-24.09,1.46-36.14.72Z"/><path class="cls-1" d="M443.4,240.53c9.82,4.16,21.73-1.33,25.53-11.14,3.12-8.04.45-18.85-1.51-27.25-3.21-14.38-4.41-29.13-3.57-43.84.78-8.53.77-18.7.71-22.97-.2-14.77-5.87-31.59-14.87-41.27-3.58-3.86-4.79-5.78-8.35-8.16l-4.12-2.75-4.14-1.97c-8.58-4.17-17.92-6.53-27.45-6.93-19.12-1.11-36.72,7.75-44.69,14.54-13.23,11.27-22.45,32.71-23.2,62.99-1.19,20.48-3.73,35.15-6.57,43.41-2.17,6.82-3.6,13.85-4.25,20.97-.56,8.47,8.22,20.8,23.19,19.2l93.29,5.16Z"/><path class="cls-4" d="M352.67,149.29c.08.07.16.13.24.2l2.88-2.1,3.35-2.44c9.54-6.92,19.9-15.66,29.39-23.96-.56,3.19-2.22,8.6-2.63,11.91-.17,1.33.09,1.81,1.08,2.35.88.28,1.82.29,2.71.03,13.21-3.48,24.98-11.05,33.64-21.62,1.38,6.9,3.39,15.49,5.33,19.73,4.8,10.5,13.46,19.62,21.46,22.57,1.57-1.28,3.58-1.88,5.59-1.66,2.59.08,4.93,1.57,6.09,3.89,1.91,3.85,1.4,10.68-.3,14.83-1.2,2.94-3.16,7.42-7.38,10.46-1.88,1.38-4.25,1.91-6.54,1.46l-.61-.14c-.73,2.01-1.6,3.97-2.58,5.86-1.6,3.64-8.92,14.81-18.22,21.46.04,2.47-.03,3.45.2,6.66.04,1.53.3,3.05.77,4.52.65,1.87,1.79,3.54,3.31,4.82,3.36,2.71,6.82,4,11.08,5.61l3.89,1.53c-13.7,6.88-28.77,10.61-44.11,10.92-14.83.06-34.29-5.06-44.71-10.89l3.98-1.56c4.26-1.6,7.71-2.9,11.08-5.61,1.52-1.28,2.66-2.94,3.31-4.82.47-1.46.73-2.98.77-4.52.21-2.9.18-3.98.19-5.99-5.31-3.2-9.87-7.49-13.4-12.59-4.63-6.36-7.91-13.59-9.63-21.26-2.49.37-5.02-.43-6.84-2.17-3.82-3.54-5.2-8.23-6.03-11.29-1.17-4.32-.84-11.17,1.53-14.75,1.43-2.16,3.94-3.35,6.52-3.11,1.68.03,3.3.61,4.62,1.65Z"/><path class="cls-7" d="M444.36,184.1c-1.8,4.71-4.26,9.15-7.29,13.19-3.62,5.09-8.07,9.53-13.16,13.15-2.83,2.01-6.06,3.39-9.47,4.04-1.43.41-2.27,1.88-1.88,3.32.42,1.41,1.89,2.24,3.32,1.88,6.99-1.17,13.11-5.74,18.06-10.59,4.41-4.3,8.24-9.16,11.4-14.44,1.67-2.91,3.09-5.95,4.24-9.1.38-1.43-.46-2.91-1.88-3.32-1.43-.36-2.9.47-3.32,1.88h0Z"/><path class="cls-2" d="M349.54,175.91c1.22,7.53,3.84,14.75,7.73,21.31,4,6.7,9.36,12.98,16,17.17,3.41,2.14,7.17,3.66,11.1,4.5,3.39.72,4.83-4.48,1.43-5.2-8.49-1.8-15.14-7.17-20.34-13.95-5.61-7.4-9.29-16.08-10.73-25.25-.41-1.43-1.88-2.27-3.32-1.88-1.41.42-2.24,1.89-1.88,3.32h0Z"/><path class="cls-2" d="M392.84,195.13c.16-.08.33-.15.49-.22.4-.18-.19.1-.27.11.12-.04.24-.08.36-.14.52-.2,1.05-.36,1.58-.49.35-.08.7-.14,1.05-.21.52-.1-.32.02.04-.01.19-.02.39-.04.58-.06,1-.08,2-.09,3.01-.03.48.03.95.07,1.43.12-.53-.06.28.05.31.05.2.03.4.07.59.11.71.15,1.41.34,2.1.6.08.03.17.06.25.1.19.07.11.04-.25-.11.09-.01.29.13.36.17.23.11.47.24.69.37.17.1.34.22.51.33.52.35-.55-.47-.01,0,1.05,1.05,2.76,1.05,3.81,0s1.05-2.76,0-3.81c-2.62-2.28-6.1-3.08-9.49-3.31-3.38-.26-6.78.35-9.86,1.77-1.28.76-1.71,2.4-.97,3.69.78,1.25,2.4,1.68,3.69.97h0Z"/><path class="cls-2" d="M397.83,169.96c-.46,1.45-.9,2.91-1.23,4.39-.16.58-.24,1.17-.22,1.77.04,1.22.67,2.34,1.69,2.99.74.46,1.59.73,2.46.79.54.01,1.08-.03,1.61-.14l-.72.1c.08-.01.16-.02.23-.03.71-.02,1.39-.3,1.91-.79,1.05-1.05,1.05-2.76,0-3.81-.5-.51-1.19-.79-1.91-.79-.38.03-.76.1-1.14.15l.72-.1c-.26.04-.53.04-.79.01l.72.1c-.18-.03-.35-.08-.52-.15l.64.27c-.2-.08-.39-.19-.56-.31l.55.42s-.08-.07-.11-.11l.42.55c-.04-.06-.08-.13-.11-.2l.27.64c-.03-.07-.05-.15-.06-.22l.1.72c-.02-.2-.02-.4,0-.6l-.1.72c.16-.86.37-1.71.63-2.55.22-.8.46-1.59.71-2.38.38-1.43-.46-2.91-1.88-3.32-1.43-.36-2.89.47-3.32,1.88h0Z"/><path class="cls-2" d="M375.32,156.13c-.96,2.55-.81,8.57,4.09,9.39,6.52.37,7.32-6.85,5.33-10.39-1.62-2.9-6.83-4.38-9.42,1Z"/><path class="cls-2" d="M427.51,159.37c.64,2.65-.25,8.61-5.22,8.81-6.52-.44-6.41-7.7-4.01-10.97,1.97-2.68,7.32-3.51,9.22,2.16Z"/><path class="cls-2" d="M452.03,157.89c1.37-.94,3.09-1.18,4.67-.65.82.18,1.55.62,2.09,1.26.46.45-.12-.23.18.22,1.69,2.49,1.56,6.14,1.15,9-.48,3.14-1.61,6.14-3.31,8.82-1.7,2.83-4.79,6.56-8.53,5.82-1.43-.36-2.89.47-3.32,1.88-.38,1.43.46,2.91,1.88,3.32,8.91,1.75,14.63-6.92,17.37-14.13,2.29-6.01,2.81-15.68-3-19.92-3.98-2.72-9.28-2.49-13.01.57-1.04,1.06-1.04,2.76,0,3.81,1.07,1.02,2.75,1.02,3.81,0h0Z"/><path class="cls-2" d="M355.3,148.07c-3.13-3.09-7.82-3.99-11.87-2.28-2.86,1.36-4.98,3.92-5.77,6.98-2.2,6.9-.81,14.98,2.75,21.19,2.47,4.32,6.63,8.14,11.93,7.77,1.48-.03,2.66-1.22,2.7-2.7-.01-1.48-1.21-2.68-2.7-2.7-4.11.29-6.71-3.57-8.2-6.92-1.27-2.79-1.99-5.81-2.1-8.88-.06-1.75.11-3.5.51-5.21.16-.7.37-1.38.65-2.03.2-.41.42-.81.67-1.2.06-.1.45-.56.06-.11.73-.97,1.84-1.58,3.05-1.65,1.66-.22,3.33.34,4.51,1.54,2.44,2.47,6.25-1.34,3.81-3.81h0Z"/><path class="cls-2" d="M420.85,114.98c1.83,9,3.81,17.98,8.77,25.84,4.72,7.49,11.36,14.56,19.79,17.76,1.43.38,2.91-.45,3.32-1.88.36-1.43-.47-2.9-1.88-3.32-7.3-2.78-13.12-9.58-17.06-16.09-4.34-7.16-6.05-15.47-7.73-23.74-.4-1.44-1.88-2.28-3.32-1.88-1.44.4-2.28,1.88-1.88,3.32h0Z"/><path class="cls-2" d="M421.38,111.82c-6.02,7.26-13.55,13.13-22.07,17.18-2.09.97-4.23,1.82-6.42,2.54-1.15.38-2.31.74-3.47,1.04-.43.09-.86.16-1.29.2.1-.21.39.88.43.9-.44-.21.99-5.21,1.15-5.84.5-2.03,1.04-4.06,1.42-6.12.35-1.46-.54-2.93-2-3.29-.89-.22-1.84.03-2.51.66-9.34,8.16-18.81,16.24-28.85,23.54-1.25.78-1.68,2.4-.97,3.69.76,1.28,2.4,1.71,3.69.97,10.41-7.57,20.25-15.91,29.94-24.38l-4.51-2.62c-.7,3.78-1.94,7.44-2.53,11.24-.34,2.21-.32,4.29,1.67,5.7,1.93,1.37,4.31.96,6.44.37,8.39-2.38,16.25-6.36,23.12-11.74,3.87-3.03,7.42-6.46,10.57-10.23,1.01-1.07,1.01-2.74,0-3.81-1.06-1.04-2.76-1.04-3.82,0h0Z"/><path class="cls-2" d="M461.16,158.31c-.79,15.31.53,30.65,3.91,45.6,2.49,10.65,5.96,25.03-4.92,32.27-4.71,3.25-10.73,3.91-16.03,1.75-1.43-.39-2.91.45-3.32,1.88-.36,1.43.47,2.89,1.88,3.32,11.5,4.72,25.26-2.23,29.14-13.82,2.23-6.67,1.14-14.14-.22-20.87-1.54-7.59-3.43-15.03-4.28-22.75-.96-9.09-1.21-18.25-.76-27.38.15-3.47-5.24-3.46-5.39,0h0Z"/><path class="cls-2" d="M439.99,88.23c1.76,1.24,3.35,2.7,4.75,4.34,1.67,1.87,3.43,3.68,4.98,5.65,2.98,3.89,5.39,8.18,7.16,12.76,1.99,5.01,3.41,10.23,4.25,15.55.61,4.46.87,8.96.76,13.46-.02,6.11-.19,12.23-.73,18.32.01,1.48,1.21,2.69,2.7,2.7,1.48-.03,2.67-1.22,2.7-2.7.51-5.7.69-11.43.73-17.15.11-4.84-.13-9.69-.72-14.5-1.48-10.76-5.22-21.8-11.74-30.59-1.84-2.48-3.95-4.72-6.01-7.02-1.8-2.07-3.85-3.91-6.11-5.47-2.88-1.95-5.58,2.72-2.72,4.66h0Z"/><path class="cls-2" d="M434.44,78.87c-9.49-4.53-19.82-7.04-30.33-7.37-11.24-.18-22.37,2.33-32.44,7.34-7.25,3.35-13.67,8.27-18.8,14.41-5.34,6.78-9.43,14.46-12.06,22.69-3.69,11.6-5.63,23.69-5.77,35.86-.09,3.47,5.3,3.47,5.39,0,.48-18.2,3.89-37.61,14.72-52.7,4.14-5.71,9.51-10.41,15.71-13.76,8.74-4.91,18.48-7.78,28.48-8.38,11.16-.49,22.28,1.77,32.36,6.58,1.29.71,2.91.28,3.69-.97.74-1.29.31-2.93-.97-3.69h0Z"/><path class="cls-2" d="M335.05,151.79c-.49,8.35-1.21,16.7-2.47,24.98-.78,5.73-2.03,11.39-3.73,16.91-2.28,6.9-3.8,14.03-4.52,21.26-.4,5.63,1.53,11.18,5.36,15.34,5.16,5.74,12.76,8.63,20.43,7.78,1.47-.04,2.66-1.22,2.7-2.7-.01-1.49-1.21-2.69-2.7-2.7-5.89.77-11.8-1.26-15.97-5.49-1.6-1.7-2.86-3.69-3.71-5.87-.8-2.08-1.05-4.34-.7-6.55.72-6.69,2.17-13.27,4.31-19.65,1.6-5.21,2.8-10.54,3.57-15.93,1.44-9.07,2.28-18.23,2.82-27.39.2-3.47-5.19-3.46-5.39,0h0Z"/><path class="cls-2" d="M420.51,150.35c1.29-.08,2.58-.28,3.83-.59.72-.19,1.43-.43,2.12-.71.61-.25,1.17-.58,1.69-.99.28-.24.49-.54.61-.89.18-.31.26-.66.26-1.02.04-1.49-1.13-2.73-2.62-2.78,0,0,0,0,0,0l-.69.07c-.45.1-.87.33-1.22.64l-.07.05.57-.4c-.38.25-.79.45-1.22.6l.65-.24c-1.31.46-2.68.76-4.07.89l.69-.07c-.13,0-.25.02-.39.03-.7,0-1.37.26-1.9.71-.53.5-.84,1.18-.87,1.91-.02.7.24,1.38.71,1.9.49.54,1.18.86,1.91.87h0Z"/><path class="cls-2" d="M373.21,213.43c0,1.4-.03,2.79-.11,4.19.01,1.69-.24,3.38-.75,5-1.24,3.12-4.05,4.83-6.96,6.26-3.65,1.78-7.6,3.08-11.38,4.56-1.41.43-2.23,1.89-1.88,3.32.4,1.43,1.88,2.27,3.32,1.88,4.53-1.78,9.32-3.3,13.61-5.59,1.82-.93,3.51-2.1,5.02-3.47,1.48-1.47,2.62-3.25,3.33-5.21,1.33-3.34,1.17-7.39,1.19-10.94.02-3.47-5.38-3.48-5.39,0h0Z"/><path class="cls-7" d="M423.47,213.43c.02,3.56-.14,7.6,1.19,10.94.72,1.96,1.86,3.74,3.34,5.21,1.51,1.37,3.2,2.54,5.02,3.47,4.3,2.28,9.08,3.81,13.61,5.59,1.44.39,2.91-.45,3.32-1.88.36-1.43-.47-2.89-1.88-3.32-3.78-1.49-7.73-2.78-11.38-4.56-2.9-1.41-5.73-3.14-6.96-6.26-.51-1.62-.76-3.3-.75-5-.08-1.4-.1-2.79-.11-4.19-.02-3.47-5.41-3.48-5.39,0h0Z"/><path class="cls-6" d="M489,280.99c.06,17.01-1.05,36.77-5.05,54.69-2.89,12.97-7.7,26.64-17.48,36.15-9.27,9.01-25.27,9.86-36.01,5.49-10.19-4.08-15.21-11.77-18.2-18.71-2.16-5.14-4.02-10.41-5.58-15.76-4.79,1.56-9.78,2.43-14.82,2.58l-1.85.1c1.37,6.9,4.47,25.14,5.77,37.53-14.72,4.18-31.68,6.72-47.72,8.04-13.47,1.11-27.42.68-37.04-10.57-8.88-10.39-9.89-25.05-10.02-38.11-.13-12.49.54-25.01,1.46-37.46,1.03-13.93,6.71-36.65,14.43-48.28,8.15-12.28,21.32-16.36,35.13-20.87l2.7-.77c.61-.17,1.02-.22,1.2-.11,10.25,5.98,30.21,11.32,45.37,11.26,16.05-.31,31.8-4.39,45.98-11.93,11.6,3.71,20.45,7.81,27.71,14.95,6.34,6.95,13.09,15.98,14.02,31.78"/><path class="cls-4" d="M408.26,347.85c-.54-1.63-1.06-3.3-1.57-5-4.79,1.56-9.78,2.43-14.82,2.58l-1.86.06c1.14,5.77,3.52,19.57,5.02,31.2,5.93-.06,11.85-.16,17.78-.25,3.74-.22,7.39-1.23,10.71-2.97-5.03-3.85-8.92-8.98-11.25-14.87-1.41-3.29-2.75-6.92-4.01-10.76Z"/><path class="cls-2" d="M358.2,230.9c-15.83,5.53-33.55,9.41-43.51,24.23-4.3,6.39-7.03,13.92-9.27,21.24-2.41,7.82-4.14,15.84-5.18,23.96-1.26,9.93-1.56,20.08-1.82,30.07-.25,9.62-.37,19.36,1.03,28.9,1.28,8.69,4.3,17.24,10.28,23.83,5.86,6.46,13.9,9.67,22.42,10.69,8.86,1.06,17.96-.07,26.77-1.09,10.3-1.13,20.53-2.88,30.62-5.24,2.33-.56,4.65-1.17,6.96-1.82,1.16-.33,1.97-1.39,1.98-2.6-.86-8.09-2.07-16.16-3.38-24.19-.88-5.41-1.69-10.89-2.94-16.23-.33-1.17-1.39-1.98-2.6-1.98-16.19,1.9-32.44,3.35-48.69,4.64-1.47.04-2.66,1.22-2.7,2.7.01,1.48,1.21,2.69,2.7,2.7,16.25-1.29,32.5-2.74,48.69-4.64l-2.6-1.98c1.23,5.21,2.01,10.56,2.88,15.85,1.26,7.69,2.43,15.4,3.26,23.15l1.98-2.6c-9.37,2.59-18.91,4.56-28.54,5.89-8.97,1.45-18.02,2.27-27.11,2.46-7.63.02-15.36-1.21-21.71-5.72-6.61-4.7-10.29-12.33-12.09-20.04-1.95-8.37-1.98-17.11-1.93-25.66.07-10.64.65-21.26,1.42-31.87.6-7.28,1.86-14.48,3.75-21.53,1.78-7.48,4.41-14.74,7.83-21.63,3.35-6.54,8.54-11.95,14.93-15.58,6.91-3.96,14.62-6.24,22.14-8.7,1.96-.64,3.92-1.29,5.86-1.97,1.41-.43,2.24-1.89,1.88-3.32-.41-1.43-1.88-2.27-3.32-1.88h0Z"/><path class="cls-2" d="M332.53,295.06c2.1,17.58,4.23,35.15,6.24,52.74.04,1.47,1.23,2.65,2.7,2.7,1.49,0,2.69-1.21,2.7-2.7-2.01-17.59-4.14-35.16-6.24-52.74-.04-1.47-1.23-2.65-2.7-2.7-1.49,0-2.69,1.21-2.7,2.7Z"/><path class="cls-2" d="M444.08,232.92c-11.15,5.68-23.28,9.16-35.74,10.25-11.87,1.04-23.76-.77-35.15-4.12-5.53-1.51-10.87-3.67-15.89-6.44-3.01-1.74-5.73,2.92-2.72,4.66,4.72,2.62,9.71,4.73,14.89,6.28,5.94,1.89,12.02,3.31,18.19,4.23,6.17.98,12.43,1.3,18.67.95,6.94-.47,13.82-1.64,20.52-3.48,6.9-1.84,13.59-4.41,19.96-7.65,3.08-1.59.36-6.25-2.72-4.66h0Z"/><path class="cls-2" d="M395.1,379.39c5.28-.05,10.56-.14,15.83-.22,4.42-.05,8.78-1.01,12.81-2.83,1.28-.76,1.71-2.4.97-3.69-.78-1.26-2.4-1.68-3.69-.97-1.91.84-3.92,1.46-5.97,1.84-1.72.23-3.46.32-5.19.27-4.92.08-9.84.15-14.76.2-3.47.03-3.48,5.43,0,5.39h0Z"/><path class="cls-2" d="M391.87,348.13c5.22-.16,10.39-1.05,15.37-2.63,1.44-.4,2.28-1.88,1.88-3.32-.4-1.44-1.88-2.28-3.32-1.88h0c-2.32.75-4.69,1.33-7.09,1.76-.59.1-1.18.2-1.77.28.49-.07-.37.04-.38.05-.32.04-.64.07-.96.11-1.24.12-2.47.2-3.72.24-1.49,0-2.7,1.21-2.7,2.7s1.21,2.7,2.7,2.7h0Z"/><path class="cls-2" d="M491.7,280.99c-.56-10.63-4.4-20.83-10.98-29.2-2.82-3.63-6.13-6.84-9.85-9.53-4.12-2.88-8.56-5.27-13.23-7.12-6.07-2.41-12.28-4.46-18.58-6.15-3.35-.95-4.77,4.25-1.43,5.2,9.81,2.79,19.88,5.73,28.51,11.34,12.02,7.9,19.53,21.09,20.18,35.46.03,1.48,1.22,2.66,2.7,2.7,1.48-.01,2.68-1.21,2.7-2.7h0Z"/><path class="cls-4" d="M156.24,361.5c-2.52-9.78-5.49-20.77-7.47-27.34,7.84-3.61,11.72-4.66,19.28-6.84,6.2-1.79,12.83-3.66,21.38-3.66,5.69,0,11.77,2.46,15.99,3.95l1.28.45c-1.08,11.53-2.29,22.77-3.39,30.79l-1.25,1.12s-4.74,4.26-8.25,4.94c-5.18,1.01-30.69,2.8-35.4.41l-1.36-.69c-.26-1.02-.53-2.07-.8-3.13Z"/><path class="cls-4" d="M55.88,317.63c-.15-.28-.3-.55-.42-.84-.67-1.52-.41-3.3.67-4.56,1.27-1.32,3.11-1.93,4.92-1.62,0,0,.63.07,1.38.15-.55-.63-1.02-1.33-1.39-2.08-.95-1.93-.63-4.24.8-5.84,1.4-1.25,3.28-1.82,5.13-1.56,2.16.31,4.17,1.25,5.79,2.72,8.41,7.45,23.9,22.55,31.72,30.44,0,0,1.51,1.45,3.11,2.95-16.9,2.94-34.14,5.94-42.19,7.43l-.8-1c-2.5-3.12-4.59-5.97-7.28-9.42-.92-1.03-1.65-2.21-2.17-3.49-.45-1.49-.18-3.11.72-4.38,1.72-1.92,3.98-1.57,7.04-1.03-1.24-1.28-2.49-2.55-3.74-3.81-1.27-1.19-2.38-2.55-3.3-4.03Z"/><path class="cls-2" d="M200.15,358.06c-1.84,1.64-4.24,3.61-6.91,4.22-.39.09-.79.14-1.18.2-.11.02-.22.03-.33.05-.36.05.56-.07.18-.02-.3.04-.6.08-.89.11-1.3.15-2.61.28-3.92.39-6.83.66-13.7.91-20.56.75-1.55-.05-3.1-.14-4.65-.32-.52-.06-.02,0,.07.01-.2-.03-.4-.06-.6-.1-.27-.05-.54-.1-.81-.16-.23-.06-.46-.13-.7-.19-.09-.02-.18-.08-.27-.09-.45-.08.59.27.18.07-1.29-.71-2.91-.29-3.69.97-.74,1.29-.31,2.93.97,3.69,2.44.97,5.05,1.46,7.68,1.43,3.56.2,7.14.15,10.71.03,6.31-.04,12.62-.56,18.85-1.55,3.62-.68,6.99-3.28,9.68-5.68,2.59-2.32-1.24-6.12-3.81-3.81h0Z"/><path class="cls-2" d="M152,335.64c3.96-1.72,8.02-3.18,12.16-4.38,4.33-1.28,8.67-2.6,13.09-3.56,4.68-1.15,9.51-1.56,14.32-1.23,4.53.46,8.87,2.23,13.12,3.74,1.43.38,2.91-.46,3.32-1.88.37-1.43-.47-2.9-1.88-3.32-4.69-1.66-9.33-3.38-14.32-3.91-5.22-.37-10.47.08-15.56,1.31-4.57.96-9.06,2.34-13.53,3.66-4.58,1.35-9.08,3-13.45,4.93-1.28.76-1.71,2.4-.97,3.69.77,1.26,2.4,1.68,3.69.97h0Z"/><path class="cls-2" d="M106.39,332.51c-8.37-8.43-16.9-16.71-25.58-24.84-4.16-3.88-8.81-9.45-15.04-9.14-3.71.19-7.09,2.39-7.79,6.23-.73,3.93,1.55,7.05,4.24,9.64,5.68,5.48,11.27,11.04,16.94,16.53,2.49,2.42,6.31-1.39,3.81-3.81-4.48-4.34-8.91-8.72-13.36-13.09-1.12-1.11-2.27-2.19-3.41-3.28-1.11-.91-2.04-2.02-2.75-3.27-1.12-2.51,1.33-3.89,3.53-3.53,2.38.39,4.13,2.14,5.84,3.68,1.83,1.66,3.65,3.34,5.45,5.03,4.14,3.89,8.25,7.82,12.31,11.79,4.03,3.92,8.03,7.88,12,11.86,2.45,2.47,6.26-1.35,3.82-3.81h0Z"/><path class="cls-2" d="M61.05,307.91c-3.25-.44-6.43,1.2-7.96,4.1-1.66,3.56.08,6.91,2.4,9.66,2.2,2.6,4.77,4.95,7.16,7.39,2.43,2.48,4.88,4.94,7.47,7.26,2.58,2.32,6.41-1.49,3.81-3.81-4.16-3.73-7.97-7.82-11.9-11.8-.92-.93-1.88-1.85-2.73-2.85-.72-.72-1.24-1.62-1.52-2.6-.25-1.79,1.82-2.15,3.26-1.97,1.49,0,2.69-1.21,2.7-2.7-.04-1.47-1.22-2.66-2.7-2.7h0Z"/><path class="cls-2" d="M61.14,322.49c-2.61-.34-5.31.06-7.18,2.11-1.73,2.07-2.21,4.92-1.25,7.45,1.03,2.62,3.11,4.76,4.8,6.98,1.71,2.24,3.42,4.48,5.18,6.68,1.06,1.04,2.76,1.04,3.81,0,1.02-1.07,1.02-2.75,0-3.81-1.34-1.67-2.45-3.12-3.74-4.81-1.39-1.82-2.96-3.72-4.18-5.47-.27-.38-.52-.77-.74-1.18,0,0-.13-.38-.16-.48-.17-.47-.02.21-.03-.1-.01-.21,0-.42-.01-.63,0-.5-.05.11,0-.17.04-.21.1-.41.16-.61-.09.34-.05.08.07-.12.2-.35-.47.49.09-.11.32-.34-.05,0,.15-.14.16-.12.47-.26.11-.11.19-.08.38-.11.57-.17.28-.09-.37-.01.14-.03.22,0,.43-.02.65-.01.52.02,1.04.06,1.55.14,1.49,0,2.69-1.21,2.7-2.7-.04-1.47-1.22-2.66-2.7-2.7h0Z"/><path class="cls-2" d="M206.94,289.75c-1.08,21.5-3.06,43.03-5.71,64.39-.49,3.97-.95,7.72-1.76,11.94-.36,1.43.47,2.89,1.88,3.32,1.43.38,2.91-.46,3.32-1.88,1.68-8.73,2.52-17.67,3.45-26.5,1.22-11.58,2.27-23.18,3.15-34.79.42-5.48.8-10.97,1.07-16.46.17-3.47-5.22-3.46-5.39,0h0Z"/><path class="cls-2" d="M97.69,222.97c-15.22,4.66-30.71,9.71-44.27,18.24-3.1,1.87-6.03,4.01-8.75,6.41-3.06,2.86-5.69,6.16-7.8,9.78-2.48,4.1-4.38,8.51-5.65,13.13-1.34,5.01-2.55,10.06-3.58,15.14-1.82,9.19-3.1,18.48-3.83,27.82-.77,9.3-1.35,18.65-1.53,27.98-.19,9.88.12,20.09,2.08,29.8.9,4.36,2.45,8.55,4.61,12.44,2.14,4.14,5.07,7.83,8.61,10.87,6.17,4.93,14.34,6.8,22.03,7.62,7.16.76,14.28-.15,21.38-1.05,19.05-2.43,37.91-6.22,56.42-11.33,4.5-1.23,8.96-2.56,13.4-3.97,2.04-.65,4.07-1.33,6.1-2.03,2.33-.81,5.01-1.43,5.91-4.05.57-1.67.03-3.33-.36-4.97-.35-1.47-.7-2.93-1.07-4.39-.88-3.57-1.78-7.13-2.71-10.69-1.9-7.35-3.85-14.69-5.94-21.98-.41-1.43-.83-2.86-1.26-4.28-.54-1.78-1-3.62-2.67-4.69-2.35-1.52-5.78-.3-8.36.15-12.75,2.24-25.5,4.46-38.25,6.65-11.99,2.08-23.98,4.15-35.95,6.33-1.49.27-2.98.55-4.47.84-1.43.41-2.26,1.88-1.88,3.32.42,1.42,1.89,2.25,3.32,1.88,9.52-1.86,19.1-3.45,28.66-5.12,13.21-2.31,26.43-4.61,39.64-6.89,2.71-.47,5.43-.94,8.14-1.42,2.12-.22,4.22-.59,6.29-1.11.37-.12.19.03.17-.03.12.34-.46-.29-.37-.29-.14,0-.02-.24,0,.07.13.63.32,1.26.57,1.85.42,1.38.82,2.77,1.22,4.16.96,3.33,1.88,6.67,2.78,10.02,1.94,7.17,3.8,14.35,5.6,21.56.37,1.48.73,2.96,1.09,4.44.14.6.29,1.2.43,1.8l.19.82c.07.29.22.81.1.2-.06-.31.4-.25-.29-.08-.46.11-.92.33-1.37.48-1.06.37-2.13.74-3.2,1.09-2,.67-4,1.31-6.01,1.94-17.7,5.44-35.77,9.65-54.05,12.59-8.15,1.33-16.37,2.5-24.61,3.04-6.44.38-12.9-.46-19.03-2.47-3.18-.92-6.14-2.49-8.69-4.61-3.2-3.02-5.81-6.62-7.69-10.6-4.03-8.15-4.59-17.61-4.99-26.54-.27-8.82-.09-17.65.53-26.46.51-9.03,1.13-18.07,2.4-27.03,1.37-9.42,3.32-18.75,5.83-27.93,2.13-7.96,6.52-15.14,12.65-20.65,4.76-3.88,9.98-7.16,15.55-9.77,6.6-3.23,13.41-6.01,20.39-8.33,4.63-1.59,9.29-3.08,13.97-4.51,3.31-1.01,1.9-6.22-1.43-5.2h0Z"/><path class="cls-2" d="M170.46,226.74c9.63,2.07,19.31,4.17,28.51,7.73,8.63,3.34,17.03,8.09,23.05,15.24,12.97,15.42,15.72,36.19,17.74,55.53,1.11,10.78,1.57,21.63,1.4,32.47-.13,9.16-.14,18.69-2.79,27.54-1.08,3.75-2.68,7.34-4.75,10.65-2.2,3.1-5.06,5.68-8.36,7.56-3.74,2.33-7.82,4.04-12.1,5.07-4.76.95-9.6,1.46-14.46,1.52-9.88.38-19.77.26-29.63-.37-10.48-.54-20.96-1.14-31.4-2.25-2.52-.27-5.03-.56-7.54-.9-1.43-.34-2.88.48-3.32,1.88-.39,1.43.45,2.91,1.88,3.32,10.98,1.5,22.03,2.35,33.1,2.96,10.26.56,20.54,1.16,30.82.96,10.18-.2,20.61-.54,30.04-4.73,4.13-1.81,7.94-4.26,11.29-7.27,3.01-2.86,5.4-6.32,7.02-10.15,3.84-8.39,4.92-17.31,5.32-26.45.52-11.29.38-22.6-.42-33.87-.69-10.77-2.07-21.48-4.13-32.08-2.06-10.11-5.45-20.05-11.1-28.75-2.69-4.3-5.98-8.18-9.78-11.53-3.79-3.13-7.93-5.82-12.33-7.99-9.18-4.66-19.16-7.4-29.15-9.66-2.49-.56-4.98-1.1-7.48-1.64-3.38-.73-4.83,4.47-1.43,5.2h0Z"/><path class="cls-4" d="M437.74,238.52c1.36-1.94,2.6-3.95,3.71-6.04.56-1.07,1.09-2.18,1.59-3.37,3.36-10.89,5.41-29.49,5.89-39.2.23-1.62.05-3.28-.54-4.81-.9-1.72-2.68-2.81-4.63-2.82-3.46.34-4.5,2.58-4.89,4.67-.16.82-.34,2.07-.45,3.08l-.07-.09c-1.06-1.48-2.79-2.34-4.61-2.3-2.62.24-4.31,2.22-4.94,5.33-.95,4.77-2.88,12.77-4.55,19.02.1-2.16.15-4.17.22-6.6.02-1.09-.18-2.17-.59-3.18-.36-.93-1.15-1.64-2.12-1.9-1.63-.23-3.24.57-4.05,2-.65,1.49-1.04,3.08-1.17,4.69-.58,4.58-1.69,9.08-3.29,13.42-3.24,7.65-12.6,17.42-13.76,23.64-.65,3.47-.08,6.29.38,9.36.47,3.1,1.45,6.46,1.6,10.36.5,7.55.77,12.09,1.1,19.27,10.43-1.99,21.96-4.22,31.84-5.97-2.74-6.04-5.86-13.82-5.39-18.22.06-5.63,1.93-11.09,5.34-15.56,1.24-1.71,2.36-3.27,3.4-4.78Z"/><path class="cls-2" d="M427.22,211.33c1.41-5.37,2.75-10.76,3.89-16.2.17-1.01.41-2,.72-2.97.1-.22.22-.44.35-.65.06-.1.38-.52.16-.26.17-.21.37-.4.58-.57-.34.27.28-.14.34-.17-.44.22.93-.21.49-.16.39-.07.8-.02,1.16.14.26.13.51.29.72.5.29.27.56.56.82.87,1.06,1.04,2.76,1.04,3.81,0,1.02-1.07,1.02-2.75,0-3.81-1.84-2.36-4.85-3.48-7.79-2.91-2.97.79-5.28,3.15-6.01,6.14-.85,2.81-1.27,5.8-1.94,8.65-.79,3.34-1.62,6.66-2.49,9.98-.88,3.36,4.32,4.79,5.2,1.43h0Z"/><path class="cls-2" d="M445.65,229.82c1.95-6.89,3.34-13.93,4.16-21.04,1.02-6.7,1.65-13.45,1.88-20.22.06-3.88-1.7-7.22-5.46-8.59-3.58-1.15-7.47.49-9.15,3.86-.62,1.44-1,2.98-1.14,4.54-.09.68-.24,1.94-.29,2.34-.03.23-.17,1.17-.25,1.69-.46,3.07-.93,6.14-1.41,9.2-1.07,6.82-2.08,13.69-3.6,20.43-.76,3.38,4.44,4.82,5.2,1.43,1.2-5.33,2.04-10.74,2.92-16.13.91-5.6,1.92-11.23,2.56-16.87.1-1.22.3-2.43.6-3.62.11-.85.74-1.55,1.58-1.74,2.58-.79,3.09,2.12,3.03,3.86-.19,6.07-.87,12.15-1.65,18.17-.8,7.19-2.2,14.3-4.18,21.25-1.01,3.33,4.19,4.75,5.2,1.43h0Z"/><path class="cls-2" d="M405.26,283.05c-.43-9.49-.65-19.06-2.45-28.41-.75-3.86-1.6-8.36-.07-12,1.61-3.31,3.55-6.45,5.78-9.37,2.73-3.59,5.09-7.44,7.06-11.49.7-1.29.28-2.91-.97-3.69-1.29-.74-2.93-.31-3.69.97-3.18,7.36-9.13,13.1-12.58,20.3-2.07,4.32-2,8.67-1.3,13.33.35,2.28.82,4.52,1.23,6.79.38,2.46.61,4.94.71,7.43.34,5.38.64,10.75.89,16.13.16,3.46,5.55,3.48,5.39,0h0Z"/><path class="cls-2" d="M436.74,275.72c-1.89-3.93-3.41-8.03-4.54-12.25-.77-3.6-.62-7.33.45-10.86,1.1-3.98,3.5-7.19,5.86-10.51,2.71-3.63,5.02-7.53,6.88-11.66.7-1.29.28-2.91-.97-3.69-1.29-.74-2.93-.31-3.69.97-2.03,4.42-4.53,8.61-7.47,12.48-2.61,3.65-4.94,7.33-6.02,11.75-1.12,4.23-1.2,8.67-.24,12.94,1.27,4.66,2.98,9.19,5.09,13.53.76,1.28,2.4,1.71,3.69.97,1.26-.77,1.68-2.4.97-3.69h0Z"/><path class="cls-2" d="M415.85,221.14c1.34-3.63,2.33-7.38,2.96-11.19.2-1.75.48-3.48.86-5.2.05-.21.11-.41.18-.62.12-.32.14-.39.06-.2.08-.17.17-.33.27-.49-.15.18-.11.15.1-.09.24-.22.28-.25.11-.1.16-.1.32-.19.48-.28-.55.24.68-.24.27-.06-.19.03-.14.03.14.02-.34-.05-.33-.03.02.05-.23-.09-.21-.06.07.09-.21-.14-.2-.11.04.11-.07-.26.05.2.09.33.07.22.23.87.24.91.11,1.54.09,3.09-.07,4.63-.11,3.3-.29,6.59-.53,9.89.01,1.48,1.21,2.68,2.7,2.7,1.48-.03,2.67-1.22,2.7-2.7.22-3,.4-6.01.5-9.02.11-3.12.59-6.61-1.01-9.45-1.66-2.8-5.27-3.72-8.07-2.07-.28.16-.54.35-.79.56-2.87,2.19-2.97,5.9-3.48,9.18-.63,3.94-1.64,7.82-3.02,11.56-.38,1.43.46,2.91,1.88,3.32,1.43.36,2.9-.47,3.32-1.88h0Z"/><path class="cls-2" d="M486.3,280.99c.06,19.07-1.09,38.43-5.66,57.01-2.02,8.2-4.8,16.3-9.31,23.49-2.15,3.54-4.82,6.74-7.92,9.48-2.73,2.24-5.89,3.88-9.29,4.83-6.91,2-14.27,1.86-21.1-.41-6.94-2.38-12.73-7.27-16.24-13.71-3.24-5.75-5.27-12.25-7.2-18.59-2.21-7.26-4.05-14.63-5.7-22.03-2.54-11.4-4.7-22.92-6.32-34.49-.03-.21-.16-1.18-.1-.7.06.46-.06-.43-.08-.64l-1.98,2.6c14.73-3.03,29.44-6.15,44.21-8.95l-3.32-1.88c3.82,12.88,7.87,25.69,11.53,38.61.95,3.33,6.15,1.92,5.2-1.43-3.67-12.92-7.71-25.73-11.53-38.61-.43-1.41-1.89-2.24-3.32-1.88-14.77,2.81-29.49,5.93-44.21,8.95-1.17.32-1.98,1.39-1.98,2.6,1.39,11.02,3.43,21.99,5.73,32.85,1.64,7.74,3.47,15.44,5.66,23.04,1.89,7.08,4.37,13.99,7.4,20.66,3.27,7.17,8.83,13.04,15.8,16.71,7.26,3.55,15.41,4.82,23.4,3.67,8.17-1,15.68-5,21.05-11.23,6.02-6.96,9.98-15.39,12.75-24.1,2.81-9.3,4.76-18.83,5.84-28.48,1.22-10,1.9-20.06,2.03-30.13.04-2.41.06-4.82.05-7.23-.01-3.47-5.41-3.48-5.39,0h0Z"/><path class="cls-2" d="M90.87,230.59c3.86,3.54,8.42,6.23,13.38,7.9,5.89,2.11,12.02,3.46,18.24,4.01,12.76,1.41,25.67-.28,37.63-4.93,5.86-2.2,11.17-5.65,15.56-10.09,2.37-2.53-1.44-6.35-3.81-3.81-7.32,7.81-18.39,11.28-28.68,12.92-11.58,1.89-23.44,1.1-34.66-2.32-4.99-1.57-10.06-3.79-13.85-7.49-2.48-2.43-6.3,1.38-3.81,3.81h0Z"/><path class="cls-3" d="M397.23,438.7c9.36,9.37,18.52,18.92,27.87,28.29,5.1,4.94,13.2,4.94,18.3,0,19.29-18.93,38.4-38.05,57.33-57.35,5.05-5.05,5.05-13.25,0-18.3-5.05-5.05-13.25-5.05-18.3,0-18.89,19.33-38,38.45-57.33,57.35h18.3c-9.35-9.37-18.52-18.93-27.87-28.29-5.05-5.05-13.25-5.05-18.3,0-5.05,5.05-5.05,13.25,0,18.3h0Z"/></g></svg>