<?xml version="1.0" encoding="UTF-8"?><svg id="_レイヤー_2" xmlns="http://www.w3.org/2000/svg" viewBox="0 0 342.23 50.33"><defs><style>.cls-1{fill:#41352c;stroke-width:0px;}</style></defs><g id="_レイヤー_1-2"><path class="cls-1" d="M8.95,19.73c-.41-.06-.77-.15-1.1-.26s-.65-.26-.96-.45-.62-.39-.91-.61-.59-.47-.87-.75c-.31-.31-.55-.65-.73-1.01s-.3-.73-.4-1.12-.16-.79-.21-1.2-.09-.83-.12-1.27h-1.41l-.89.09-.28-.05-.19.05c-.06-.03-.12-.05-.16-.07s-.1-.03-.16-.05-.12-.04-.16-.07-.1-.06-.16-.09c-.03-.06-.07-.12-.12-.19s-.08-.13-.09-.21-.02-.15-.02-.21v-.23l.23-.47c.09-.06.19-.12.28-.16s.2-.08.3-.09.21-.02.3-.02h.33l.47.05c.12-.03.26-.05.4-.07s.28-.02.42-.02h.87v-2.16c0-.34.02-.69.05-1.03s.05-.69.05-1.03h-1.97l-.47.05-.47-.23c-.03-.06-.07-.12-.12-.19s-.08-.13-.09-.21-.02-.15-.02-.21v-.23l.23-.47c.19-.19.41-.29.66-.3s.51-.02.77-.02h1.57c.06-.34.11-.68.14-1.01s.08-.66.14-1.01.1-.69.12-1.03.12-.66.3-.94c.06-.03.12-.07.19-.12s.13-.08.21-.09.15-.02.21-.02h.23l.47.23c.06.09.12.18.16.26s.07.16.07.26v.61c-.03.25-.07.5-.12.75l-.14.75c-.05.25-.07.51-.07.77s-.03.52-.09.77c.31.06.63.11.96.14l.98.09.98.09c.33.03.63.14.91.33.03.06.07.12.12.19s.08.13.09.21.02.15.02.21v.23l-.23.47c-.06.03-.13.07-.21.12s-.16.08-.23.09-.16.02-.23.02h-.26c-.28-.03-.54-.07-.77-.12s-.48-.07-.75-.07-.52-.03-.75-.09-.48-.09-.73-.09l-.09,4.12h2.13c.36,0,.73,0,1.1-.02s.7.07.98.26c.03.06.07.12.12.19s.08.13.09.21.02.16.02.23v.26l-.23.47c-.28.19-.6.27-.96.26s-.72-.02-1.08-.02h-2.09v.84l.09.56c.03.19.07.37.12.54s.11.34.19.52.16.34.26.49l.09.05c.09.19.22.34.38.47s.31.24.47.35.32.22.49.33.34.21.49.3c.16.03.32.08.49.14s.34.1.49.12.33.02.52.02h.52c.22-.06.43-.12.63-.19s.4-.12.59-.19.37-.16.54-.3.35-.27.54-.4c.19-.19.34-.4.45-.63s.18-.49.21-.77.05-.55.07-.82.1-.51.26-.73c.06-.03.12-.07.19-.12s.13-.08.21-.09.16-.02.23-.02h.26l.47.23c.03.06.07.12.12.19s.08.13.09.21.02.15.02.21v.23c-.03.31-.08.62-.14.91s-.12.59-.16.89-.16.57-.35.82l-.56.75-.33.28-.38.19v.09c-.28.22-.59.39-.91.52s-.66.24-1.01.35-.7.17-1.08.19-.75.02-1.12.02Z"/><path class="cls-1" d="M32.91,19.03c-.41-.09-.8-.18-1.2-.26s-.76-.2-1.1-.38-.66-.41-.96-.7l-.91-.91c-.72-.75-1.23-1.59-1.55-2.53s-.52-1.91-.63-2.91-.17-2-.19-3-.02-2-.02-3c.06-.25.11-.5.14-.75s.07-.5.12-.75.08-.51.09-.77.1-.49.26-.68c.06-.03.12-.07.19-.12s.13-.08.21-.09.15-.02.21-.02h.23l.47.23c.06.09.12.19.16.28s.07.2.07.3v.68c-.09.41-.17.82-.23,1.24s-.09.86-.09,1.31v2.7c.06.72.12,1.43.19,2.13s.19,1.39.38,2.06.48,1.3.89,1.88.89,1.1,1.45,1.57c.16.12.32.22.49.28s.35.12.54.19.38.11.59.14.41.05.63.05.43-.03.63-.09l.61-.19c.2-.06.39-.17.56-.33s.34-.31.49-.47l1.36-1.92c.06-.03.12-.07.19-.12s.13-.08.21-.09.15-.02.21-.02h.23l.47.23c.03.06.07.13.12.21s.08.16.09.23.02.16.02.23v.26l-.23.47h-.09c-.12.19-.25.38-.38.59s-.27.4-.42.59-.3.38-.45.56-.3.36-.49.52c-.25.22-.51.41-.77.56s-.55.27-.87.35-.62.14-.94.19-.64.07-.98.07Z"/><path class="cls-1" d="M60.19,18.98c-.81-.16-1.61-.33-2.39-.52s-1.58-.38-2.39-.56-1.62-.38-2.41-.59-1.57-.45-2.32-.73c-.03-.06-.07-.12-.12-.19s-.08-.13-.09-.21-.02-.15-.02-.21v-.23l.23-.47c.09-.06.18-.12.26-.16s.16-.07.26-.07h.61c.75.28,1.5.51,2.25.68s1.52.34,2.3.52,1.55.35,2.32.54,1.52.38,2.27.56c.03.06.07.12.12.19s.08.13.09.21.02.16.02.23v.26l-.23.47c-.06.03-.12.07-.16.12s-.11.08-.19.09-.15.02-.21.02-.12.02-.19.05ZM60.05,7.83c-.06-.03-.12-.05-.16-.07s-.1-.03-.16-.05-.12-.04-.16-.07-.1-.06-.16-.09c-.03-.06-.07-.12-.12-.19s-.08-.13-.09-.21-.02-.15-.02-.21v-.23l.23-.47h.09l.23-.52c-.66-.16-1.32-.3-1.99-.45s-1.34-.32-2.02-.54-1.35-.37-2.04-.45-1.36-.2-2.02-.35c-.03-.06-.07-.12-.12-.19s-.08-.13-.09-.21-.02-.15-.02-.21v-.23l.23-.47c.09-.06.2-.12.3-.16s.23-.08.35-.09.25-.02.38-.02h.38c.75.06,1.49.2,2.23.4s1.48.41,2.23.61,1.5.38,2.25.52,1.47.4,2.16.77c.03.06.07.12.12.19s.08.13.09.21.02.16.02.23v.26l-.23.47c-.16.09-.27.21-.35.35s-.16.27-.26.4-.19.26-.28.4-.19.27-.28.4c-.06.03-.12.06-.16.09s-.1.06-.16.09-.12.05-.19.05-.12.02-.19.05Z"/><path class="cls-1" d="M85.31,19.5c-.22-.06-.43-.12-.63-.16s-.39-.12-.56-.23-.34-.24-.52-.4-.34-.31-.49-.47c-.28-.38-.51-.77-.68-1.17s-.29-.84-.35-1.31-.16-.92-.3-1.36-.37-.83-.68-1.17c-.16-.12-.32-.24-.49-.35s-.34-.2-.52-.26-.35-.11-.54-.14-.39-.03-.61,0c-.19.06-.38.09-.56.09s-.36.05-.52.14-.31.2-.47.3-.31.23-.47.35c-.16.47-.31.95-.47,1.43s-.33.95-.52,1.41-.34.93-.47,1.43-.3.97-.52,1.41c-.06.03-.12.07-.19.12s-.13.08-.21.09-.16.02-.23.02h-.26l-.47-.23c-.03-.06-.07-.12-.12-.19s-.08-.13-.09-.21-.02-.15-.02-.21v-.23c.41-1.25.82-2.49,1.24-3.73s.83-2.48,1.22-3.75.83-2.51,1.31-3.73.95-2.44,1.38-3.66c.06-.03.12-.07.19-.12s.13-.08.21-.09.15-.02.21-.02h.23l.47.23c.03.06.07.13.12.21s.08.16.09.26.02.19.02.28v.28c-.12.56-.3,1.1-.52,1.62l-.66,1.55c-.22.52-.41,1.03-.59,1.55s-.34,1.07-.49,1.66h.7c.09-.03.2-.06.3-.09s.22-.05.33-.05h.63c.19.09.39.16.61.19s.41.09.59.19.34.2.52.3.34.21.49.3v.09l.42.23v.09h.09c.31.41.58.82.8,1.24s.36.88.42,1.38.16.98.3,1.45.4.89.77,1.27c.09.06.19.12.28.16s.19.09.28.12.19.05.28.05h.33c.06-.06.14-.09.23-.09s.18-.02.26-.07l.23-.14c.08-.05.15-.1.21-.16l.56-.98c.06-.03.12-.07.19-.12s.13-.09.21-.12.16-.05.23-.05h.26l.47.23c.03.06.07.12.12.19s.08.13.09.21.02.16.02.23v.26c-.06.12-.12.26-.19.4s-.13.27-.21.4-.16.25-.26.38-.17.25-.23.38h-.09v.09c-.22.12-.43.24-.63.35s-.42.2-.66.28-.47.13-.7.16-.49.03-.77,0Z"/><path class="cls-1" d="M97.64,12.96l-.47-.23c-.09-.09-.16-.21-.19-.35s-.06-.27-.09-.4c.25-.91.52-1.8.82-2.67s.64-1.72,1.03-2.53l-1.43-.05-1.12.05-.47-.23c-.09-.12-.16-.26-.21-.4s-.05-.29-.02-.45l.23-.47c.34-.22.73-.32,1.15-.3s.84,0,1.24-.02l1.38.05c.16-.52.32-1.03.49-1.55s.41-1.01.73-1.48c.12-.09.26-.16.4-.21s.29-.05.45-.02l.47.23c.09.12.16.26.21.4s.05.3.02.49c-.16.34-.3.69-.45,1.03s-.26.71-.35,1.1h.8l.98-.05c.25.03.52.04.8.02s.53.07.75.26c.09.12.16.26.21.4s.05.29.02.45l-.23.47c-.22.16-.47.24-.75.26s-.56.02-.84.02l-.84-.05-1.59.05c-.44.97-.84,1.95-1.22,2.93s-.7,1.98-.98,2.98c-.14.09-.28.17-.42.23s-.3.08-.49.05ZM104.23,20.53c-.56-.06-1.09-.19-1.59-.38s-.94-.53-1.31-1.03c-.28-.25-.46-.55-.54-.89s-.13-.7-.16-1.08c.06-.42.16-.83.28-1.22s.34-.74.66-1.05c.5-.41,1.04-.71,1.62-.91s1.21-.29,1.9-.26l1.41.14v-1.64l-.33-2.53c.03-.12.07-.24.12-.35s.1-.21.16-.3c.12-.09.26-.16.4-.21s.29-.05.45-.02l.47.23c.22.81.38,1.64.47,2.48s.14,1.72.14,2.62c.34.06.69.13,1.03.21s.67.2.98.35c.11.12.2.26.26.4s.08.3.05.49l-.26.47c-.12.09-.27.16-.42.21s-.33.05-.52.02l-1.08-.28c-.03.67-.19,1.27-.47,1.8s-.62,1.05-1.03,1.55c-.34.41-.75.7-1.22.87s-.95.27-1.45.3ZM105.26,18.38c.25-.19.45-.4.59-.63s.29-.48.45-.73c.06-.22.13-.43.21-.64s.1-.44.07-.69l-2.3-.14c-.25.06-.5.15-.75.26s-.48.24-.7.4c-.09.19-.18.38-.26.57s-.12.4-.12.62c.03.19.11.36.23.52s.27.3.42.42c.22.09.44.18.66.26s.45.12.7.12l.8-.33ZM112.41,10.38c-.12-.03-.24-.07-.35-.12s-.21-.1-.3-.16c-.59-.66-1.18-1.3-1.77-1.92s-1.24-1.17-1.96-1.64l-.19-.19c-.09-.12-.16-.26-.21-.4s-.05-.29-.02-.45l.23-.47c.12-.09.26-.16.4-.21s.3-.05.49-.02l.56.33v.09l.38.19.66.52,2.7,2.67c.12.16.22.31.28.47s.08.34.05.56l-.23.47c-.09.09-.2.16-.33.19l-.38.09Z"/><path class="cls-1" d="M123.19,20.11l-.47-.23c-.03-.06-.06-.12-.09-.16s-.05-.1-.07-.16-.03-.12-.05-.16-.04-.1-.07-.16v-6.09h-.14l-1.41,1.31c-.06.12-.14.26-.23.4s-.18.27-.26.4-.17.25-.28.38-.21.25-.3.38c-.06.03-.12.07-.19.12s-.13.08-.21.09-.15.02-.21.02h-.23l-.47-.23c-.03-.06-.07-.12-.12-.19s-.08-.13-.09-.21-.02-.15-.02-.21v-.23c.06-.19.16-.36.3-.52s.26-.32.35-.49.2-.34.33-.49l.38-.47c.19-.16.37-.32.54-.49s.34-.34.52-.49l.52-.47c.17-.16.3-.34.4-.56.06-.03.12-.07.16-.12s.1-.08.16-.09.13-.02.21-.02h.21v-.66c-.03-.12-.05-.25-.07-.38s-.02-.26-.02-.4v-.82h-.14l-.42.05-.47-.23c-.12-.22-.29-.4-.49-.54s-.4-.29-.59-.45-.37-.32-.54-.49-.34-.35-.49-.54c-.06-.06-.11-.13-.14-.21l-.09-.23c-.03-.08-.05-.16-.05-.26v-.28l.23-.47c.06-.03.12-.07.19-.12s.13-.08.21-.09.15-.02.21-.02h.23l.47.23v.09h.09c.12.16.23.32.33.49s.23.32.4.45.34.26.49.4.33.24.52.3c.03-.56.03-1.12,0-1.69s-.02-1.11.05-1.64.1-1.07.12-1.62.13-1.07.35-1.57c.06-.03.12-.07.19-.12s.13-.08.21-.09.15-.02.21-.02h.23l.47.23c.03.06.07.12.12.19s.08.13.09.21.02.16.02.23v.26c0,.56-.04,1.11-.12,1.64s-.12,1.08-.12,1.64v3.38c.03.31.04.64.02.98s0,.67.02.98.05.64.07.98.05.67.12.98v7.69l-.23.47c-.06.03-.12.07-.19.12s-.13.08-.21.09-.15.02-.21.02h-.23ZM128.72,20.72l-.52-.23c-.03-.06-.07-.12-.12-.19s-.08-.13-.09-.21-.03-.15-.05-.21-.02-.14-.02-.23c.16-.94.38-1.87.66-2.79s.54-1.85.77-2.79.46-1.88.68-2.84.39-1.9.52-2.84l-2.34-.05-2.34.09-.47-.23c-.03-.06-.07-.12-.12-.19s-.08-.13-.09-.21-.02-.15-.02-.21v-.23l.33-.56c.09-.06.18-.12.26-.16s.16-.08.26-.09.2-.02.3-.02h.3l1.55.05,1.41-.05,1.31.05c.12-.44.21-.89.26-1.36s.1-.95.16-1.43.12-.96.16-1.43.18-.91.4-1.31c.06-.03.12-.07.19-.12s.13-.08.21-.09.15-.02.21-.02h.23l.47.23c.03.06.07.12.12.19s.08.13.09.21.02.16.02.23v.26c-.09.38-.16.76-.21,1.15s-.09.79-.14,1.2-.09.8-.14,1.2-.09.79-.12,1.2c.47,0,.93,0,1.38.02s.91.04,1.36.07.91.04,1.38.02.89.09,1.27.3c.03.06.07.12.12.19s.08.13.09.21.02.15.02.21v.23l-.23.47c-.06.03-.12.07-.19.12s-.13.08-.21.09-.15.03-.21.05-.14.02-.23.02l-4.69-.19v.19c.28.91.62,1.8,1.01,2.7s.73,1.79,1.03,2.7.64,1.8,1.03,2.67.66,1.78.82,2.72l-.23.47c-.06.03-.12.07-.19.12s-.13.08-.21.09-.15.02-.21.02h-.23l-.47-.23c-.28-.66-.55-1.32-.8-1.99s-.52-1.34-.8-2.02-.52-1.35-.73-2.04-.48-1.36-.82-2.02h-.09c-.19.72-.36,1.44-.52,2.16s-.34,1.44-.56,2.16-.41,1.44-.59,2.16-.35,1.44-.54,2.16c-.06.03-.12.07-.19.12s-.13.08-.21.09-.15.02-.21.02h-.23ZM136.45,6.09l-.47-.23c-.16-.25-.3-.5-.45-.75s-.26-.51-.35-.77-.2-.53-.33-.8-.2-.54-.23-.82c.03-.06.05-.12.07-.16s.03-.1.05-.16.04-.12.07-.16.06-.1.09-.16c.06-.03.12-.07.19-.12s.13-.08.21-.09.15-.02.21-.02h.23l.47.23c.12.25.25.52.38.8s.23.56.33.84.23.55.4.8.24.55.21.89l-.23.47c-.06.03-.12.07-.19.12s-.13.08-.21.09-.15.02-.21.02h-.23Z"/><path class="cls-1" d="M145.92,10.5l-.47-.23v-.09h-.09l-.33-.28-.47-.47c-.16-.16-.33-.29-.52-.4l-.56-.33c-.19-.11-.36-.24-.52-.4-.03-.06-.07-.12-.12-.19s-.08-.13-.09-.21-.02-.15-.02-.21v-.23l.23-.47c.06-.03.12-.07.19-.12s.13-.08.21-.09.16-.02.23-.02h.26l1.5.94v.09l.28.14v.09l.28.14.33.28.33.28.38.47.05.61-.23.47c-.06.03-.12.07-.19.12s-.13.08-.21.09-.15.02-.21.02h-.23ZM143.62,19.55l-.47-.23c-.03-.06-.07-.12-.12-.19s-.08-.13-.09-.21-.02-.16-.02-.23v-.26c.19-.41.39-.81.61-1.22s.43-.81.63-1.22.46-.79.77-1.15.59-.73.84-1.1c.06-.03.12-.07.19-.12s.13-.08.21-.09.16-.02.23-.02h.26l.47.23c.03.06.07.12.12.19s.08.13.09.21.02.15.02.21v.23l-.66,1.03c-.31.25-.55.53-.7.84s-.32.63-.49.96-.34.65-.52.96-.35.62-.54.94c-.06.03-.12.07-.19.12s-.13.08-.21.09-.15.02-.21.02h-.23ZM146.53,4.64c-.06-.03-.13-.05-.21-.07s-.14-.04-.19-.07-.1-.06-.16-.09-.12-.08-.19-.14l-2.2-1.88c-.06-.09-.12-.18-.19-.26s-.12-.16-.16-.26-.08-.19-.09-.28-.02-.2-.02-.33l.23-.47c.06-.03.12-.07.19-.12s.13-.08.21-.09.15-.02.21-.02h.23l.47.23.14.14c.12.19.27.34.42.45s.31.23.47.38.32.28.49.42.34.26.49.35v.09l.28.14.47.56.05.56-.23.47c-.06.03-.12.06-.16.09s-.1.06-.16.09-.12.05-.19.05-.12.02-.19.05ZM150.14,20.25l-.47-.23c-.03-.06-.07-.12-.12-.19s-.08-.13-.09-.21-.02-.16-.02-.23v-.26c.22-.72.48-1.43.8-2.13s.64-1.41.98-2.11.65-1.41.91-2.13.59-1.44.96-2.16h-1.43c-.23,0-.45-.02-.66-.05s-.4-.11-.59-.23c-.16-.19-.26-.38-.3-.59s-.07-.42-.07-.66v-1.43c.06-.5.12-1.01.16-1.52s.1-1.02.16-1.52.11-1.02.14-1.55.12-1.03.28-1.5c.12-.12.27-.2.45-.21s.35-.03.54-.05.38-.02.56-.02h.56c.62.06,1.27.1,1.92.12s1.3.04,1.95.07,1.28.05,1.92.05,1.26.11,1.85.33c.25.59.37,1.24.35,1.95s.02,1.39.09,2.06.14,1.34.19,2.02.1,1.34.16,1.99l-.23.47c-.22.16-.45.24-.7.26s-.51.02-.77.02-.53.02-.8.05-.52.05-.77.05c-.03.41-.05.81-.07,1.22l-.05,1.22c-.02.41-.02.82-.02,1.24v1.24c.03.22.05.45.07.68s.05.46.09.68.1.44.16.66.16.42.28.61c.06.06.15.09.26.09h.91l2.62-.42.47.23c.03.06.07.12.12.19s.08.13.09.21.02.16.02.23v.26l-.23.47c-.31.16-.65.27-1.01.33l-1.08.19c-.36.06-.73.1-1.12.12s-.77.02-1.15.02c-.12-.03-.26-.07-.4-.12s-.27-.11-.38-.19l-.33-.23c-.11-.08-.21-.18-.3-.3-.31-.47-.52-.97-.63-1.5s-.19-1.08-.23-1.64-.07-1.14-.07-1.73v-1.73c.03-.16.05-.32.07-.49s.02-.34.02-.52v-.52c0-.17.02-.34.05-.49l-1.03-.09c-.44.75-.8,1.53-1.1,2.34s-.62,1.61-.98,2.39-.73,1.56-1.1,2.34-.72,1.56-1.03,2.34c-.06.03-.12.07-.19.12s-.13.08-.21.09-.15.02-.21.02h-.23ZM159.42,8.77v-.42c-.06-.41-.11-.82-.14-1.24s-.06-.84-.09-1.24-.06-.82-.09-1.24-.05-.85-.05-1.29c-.56-.03-1.12-.05-1.69-.05s-1.12-.02-1.66-.05-1.1-.05-1.66-.05-1.12-.03-1.69-.09c-.06.47-.11.94-.14,1.41s-.08.94-.14,1.41-.11.94-.14,1.41-.05.95-.05,1.45l6.8.05.75-.05Z"/><path class="cls-1" d="M175.15,20.3c-.53-.06-1.04-.18-1.52-.35s-.91-.46-1.29-.87c-.28-.34-.46-.73-.54-1.15s-.12-.88-.12-1.36c.03-.59.18-1.14.45-1.64s.6-.97,1.01-1.41c.25-.16.47-.35.66-.59s.36-.45.52-.63c-.38-.22-.79-.34-1.24-.38s-.87-.14-1.24-.33c-.09-.12-.16-.26-.21-.4s-.05-.3-.02-.49c.19-.69.4-1.37.63-2.04s.46-1.35.68-2.04l-1.64-.05-.47.09-.77-.09-.7.05-.47-.23c-.09-.12-.16-.26-.21-.4s-.05-.29-.02-.45l.23-.47c.22-.19.48-.29.8-.3s.63-.02.96-.02l.52.05,1.27-.05.98.05.23-.05c.19-.48.34-.98.47-1.48s.3-.98.52-1.45c.12-.09.26-.16.4-.21s.29-.05.45-.02l.47.23c.09.12.16.26.21.4s.05.3.02.49l-.61,2.13c.91.03,1.82.05,2.74.05s1.8.12,2.65.38c.09.12.16.26.21.4s.05.29.02.45l-.23.47c-.12.09-.27.16-.45.21s-.35.07-.54.07c-.5-.06-1.01-.1-1.52-.12s-1.02-.04-1.52-.07h-2.11c-.12.59-.3,1.17-.52,1.73s-.41,1.14-.56,1.73c.44.16.88.3,1.31.42l1.31.38c.5-.28,1-.55,1.5-.82s1.03-.45,1.59-.54l.47.23c.09.12.16.26.21.4s.05.29.02.45l-.23.47-1.97.98v.14l.28.23.56.89h.09c.16.19.29.38.4.59s.15.43.12.68l-.23.47c-.12.09-.26.16-.4.21s-.29.05-.45.02l-.52-.28-1.08-1.41-.42-.42h-.14c-.47.44-.95.88-1.43,1.34s-.85.96-1.1,1.52l-.09,1.01.23.84c.25.12.5.23.75.33s.52.16.8.19h2.62l1.97-.14.47.23c.09.12.16.26.21.4s.05.3.02.49l-.23.47c-.12.09-.27.16-.45.21s-.34.09-.49.12l-.47-.05-.98.09h-2.81Z"/><path class="cls-1" d="M205.31,20.67c-.22-.06-.45-.1-.68-.12s-.46-.06-.68-.14-.43-.17-.63-.28-.4-.24-.59-.4c-.31-.38-.52-.8-.61-1.27s-.15-.94-.16-1.41-.05-.95-.09-1.43-.05-.98-.02-1.48h-1.55l-.23.33h-.09c-.28.5-.59,1-.91,1.5s-.68.98-1.05,1.43-.74.92-1.1,1.41-.66.99-.91,1.52c-.06.03-.13.07-.21.12s-.16.08-.23.09-.16.02-.23.02h-.26l-.47-.23c-.03-.06-.07-.12-.12-.19s-.08-.13-.09-.21-.02-.15-.02-.21v-.23c.25-.47.52-.93.82-1.38s.63-.89,1.01-1.31.72-.86,1.03-1.31.59-.91.84-1.38h-1.38c-.23,0-.46-.02-.68-.05s-.42-.11-.61-.23c-.09-.16-.16-.32-.21-.49s-.07-.35-.07-.54v-1.12c.03-.94.08-1.86.14-2.77s.14-1.8.23-2.7.16-1.8.21-2.72.26-1.79.63-2.6c.06-.03.12-.07.19-.12s.13-.09.21-.12.16-.05.23-.05h.26c.12.06.25.11.38.14s.25.05.38.07.25.05.38.09.27.05.42.02l1.36-.05c.53.06,1.06.11,1.59.14s1.05.11,1.55.23,1.02.2,1.55.21,1.03.13,1.5.35c.22.94.35,1.9.4,2.88s.14,1.96.28,2.93.23,1.95.26,2.95.09,1.98.19,2.95l-.23.47c-.06.03-.12.07-.19.12s-.13.08-.21.09-.15.02-.21.02h-.23l-.23-.05-.14.05-2.3-.09v1.59c.06.22.09.45.09.68v.7c0,.23.02.46.07.68s.12.42.21.61c.19.12.38.21.59.26s.41.09.63.12.45.05.7.05h.7l1.64-.23.47.23c.03.06.07.12.12.19s.08.13.09.21.02.15.02.21v.23l-.23.47c-.25.16-.52.26-.8.3s-.57.09-.87.14-.59.07-.89.07h-.91ZM205.5,12.38v-.09l-.09-1.36c-.72,0-1.41-.04-2.09-.12s-1.38-.13-2.11-.16-1.44-.12-2.11-.26-1.35-.21-2.04-.21c-.09.16-.13.33-.12.52s.02.37.02.54,0,.34-.02.52-.02.35-.02.54l1.92.05h6.42l.23.05ZM205.31,9.05v-.09l-.23-1.83c-.66-.06-1.31-.1-1.97-.12s-1.31-.06-1.97-.14-1.3-.16-1.95-.23-1.29-.1-1.95-.07l-.14,1.78c.69,0,1.36.07,2.02.21s1.34.22,2.06.23,1.41.05,2.09.12,1.35.11,2.04.14ZM204.89,5.2v-.42l-.14-1.45c-.5-.03-.98-.09-1.45-.19s-.95-.17-1.45-.23-1.01-.11-1.52-.14-1.02-.05-1.52-.05l-.52.05-.7-.14-.14,2.11c.62-.03,1.24,0,1.85.07s1.23.16,1.85.23,1.25.13,1.88.16,1.25.03,1.88,0Z"/><path class="cls-1" d="M226.59,18.05c-.06-.03-.12-.05-.16-.07s-.1-.03-.16-.05-.12-.04-.16-.07-.1-.06-.16-.09c-.03-.06-.07-.12-.12-.19s-.08-.13-.09-.21-.02-.15-.02-.21v-.23l.23-.47c.25-.16.51-.28.77-.38l.8-.28c.27-.09.52-.22.75-.38s.46-.34.68-.56c.12-.19.26-.38.4-.59s.26-.41.35-.61.15-.43.16-.68.02-.5.02-.75c-.03-.28-.07-.55-.12-.82s-.12-.52-.21-.77-.22-.48-.38-.7-.33-.44-.52-.66c-.38-.31-.77-.55-1.2-.73s-.87-.3-1.34-.4-.95-.15-1.45-.16-1-.02-1.5-.02c-.56.06-1.12.14-1.66.23s-1.09.18-1.64.26-1.09.2-1.62.35-1.06.3-1.59.42l-.47-.23c-.03-.06-.07-.12-.12-.19s-.08-.13-.09-.21-.02-.15-.02-.21v-.23l.23-.47c.66-.41,1.36-.68,2.11-.82s1.51-.27,2.27-.38,1.53-.21,2.3-.3,1.55-.11,2.37-.05c.41.09.82.18,1.24.26s.83.16,1.22.26.77.27,1.12.52.71.48,1.05.7c.31.38.61.76.89,1.15s.48.83.61,1.31.21.97.26,1.45.07.98.07,1.48c-.06.28-.13.56-.21.84s-.2.55-.35.8-.32.49-.49.73-.37.46-.59.68c-.28.19-.55.39-.8.61s-.53.38-.84.47-.62.21-.91.35-.6.24-.91.3Z"/><path class="cls-1" d="M242.06,18.42c-.06-.03-.13-.05-.21-.07s-.14-.04-.19-.07-.1-.06-.16-.09-.12-.08-.19-.14c-.16-.19-.26-.4-.3-.63s-.08-.47-.09-.7-.03-.48-.05-.73-.04-.48-.07-.7v-4.92c.06-.47.09-.95.09-1.45s0-1,.02-1.5.04-.99.07-1.48.14-.95.33-1.38c.06-.03.12-.07.19-.12s.13-.08.21-.09.15-.02.21-.02h.23l.47.23c.06.09.12.19.16.28s.07.2.07.3v.68c-.06.38-.1.75-.12,1.12s-.02.76-.02,1.15,0,.77-.02,1.15-.04.75-.07,1.12v4.92l.09.66h.09l.61-.7c.06-.03.12-.07.19-.12s.13-.08.21-.09.15-.02.21-.02h.23l.47.23c.03.06.07.13.12.21s.08.16.09.23.02.16.02.23v.26l-.23.47-.47.47c-.16.16-.32.3-.49.45s-.35.27-.54.4-.38.23-.56.33l-.61.14ZM252.84,19.31l-.47-.23c-.09-.12-.16-.25-.21-.38s-.07-.26-.07-.4v-.45c0-.16-.02-.3-.05-.42l.05-.05v-5.95l.19-4.03c-.47-.03-.95-.08-1.43-.14s-.97-.1-1.45-.12-.97-.07-1.45-.16-.95-.22-1.38-.38c-.03-.06-.07-.12-.12-.19s-.08-.13-.09-.21-.02-.15-.02-.21v-.23l.23-.47c.09-.06.19-.12.28-.16s.19-.07.28-.07h.66c.34.12.71.2,1.1.23s.78.05,1.17.07.77.05,1.15.12.75.09,1.12.09v-.82c0-.27,0-.53.02-.8l.05-.8c.02-.27.1-.51.26-.73.06-.03.12-.07.19-.12s.13-.08.21-.09.15-.02.21-.02h.23l.47.23c.06.09.12.2.16.3s.07.22.07.33v.73l-.05,1.92c.31.03.63.07.96.12s.65.1.96.16.64.09.98.09.64.11.89.33c.03.06.07.12.12.19s.08.13.09.21.02.15.02.21v.23l-.23.47c-.06.03-.12.07-.19.12s-.13.08-.21.09-.16.02-.23.02h-.26l-2.95-.42c-.03.31-.05.62-.07.94s-.03.63-.05.96-.02.66-.02,1.01-.02.67-.05.98v5.95l-.05.19.09.98-.28.52c-.06.03-.12.07-.19.12s-.13.08-.21.09-.15.02-.21.02h-.23Z"/><path class="cls-1" d="M267.42,19.73l-.47-.23c-.06-.09-.12-.19-.16-.28s-.08-.2-.09-.3-.02-.23-.02-.35v-.38c.06-.97.13-1.93.21-2.88s.12-1.91.14-2.88l.05-2.91c.02-.97.07-1.94.16-2.91h-.61l-1.83.05c-.06-.03-.12-.05-.16-.07s-.1-.03-.16-.05-.12-.04-.16-.07-.1-.06-.16-.09c-.03-.06-.07-.12-.12-.19s-.08-.13-.09-.21-.02-.15-.02-.21v-.23l.23-.47c.22-.16.47-.23.75-.23h.84c.28,0,.55,0,.82-.02s.54-.02.82-.02c0-.28.02-.56.05-.84s.07-.55.12-.82.08-.54.09-.82.12-.53.3-.75c.06-.03.12-.07.19-.12s.13-.08.21-.09.15-.02.21-.02h.23l.47.23c.03.06.07.12.12.19s.08.13.09.21.02.16.02.23v.26l-.09.56-.09.56c-.03.19-.05.38-.07.56s-.02.39-.02.61c.25.06.52.09.8.09h2.53l3.05-.09.47.23c.03.06.07.12.12.19s.08.13.09.21.02.16.02.23v.26l-.23.47c-.47.19-.97.28-1.5.28s-1.06,0-1.59.02-1.06.02-1.59.02h-1.59l-.7-.09c-.12,1.06-.18,2.15-.16,3.26s0,2.2-.05,3.28-.11,2.16-.19,3.23-.21,2.13-.4,3.16c-.06.03-.12.07-.19.12s-.13.08-.21.09-.15.02-.21.02h-.23ZM275.91,19.03c-.28-.06-.57-.11-.87-.14s-.58-.09-.84-.16-.54-.14-.82-.19-.55-.15-.8-.3c-.03-.06-.08-.12-.14-.19s-.1-.13-.12-.21-.02-.15-.02-.21v-.23l.28-.47c.06-.03.13-.07.21-.12s.16-.08.26-.09.19-.02.28-.02h.28c.34.09.7.19,1.05.28s.73.16,1.12.21.78.06,1.17.05.79-.02,1.2-.02c.12-.03.25-.05.38-.07s.24-.03.35-.05.23-.02.38-.02h.4l.47.23c.03.06.07.12.12.19s.08.13.09.21.02.15.02.21v.23l-.23.47c-.31.16-.64.26-.98.3s-.7.09-1.05.12-.72.04-1.08.02-.73-.02-1.1-.02ZM279.05,11.77c-.34-.16-.7-.3-1.08-.42s-.77-.21-1.17-.26-.82-.07-1.24-.07h-1.24l-.84.14-.47-.23c-.03-.06-.07-.13-.12-.21s-.08-.16-.09-.23-.02-.15-.02-.21v-.23l.23-.47c.22-.16.46-.27.73-.33s.55-.09.84-.09h1.76c.31.06.62.11.94.14s.61.08.89.14.56.15.84.26.55.26.8.45c.03.06.07.12.12.19s.08.14.09.23.02.17.02.23v.23l-.23.47c-.06.03-.12.07-.16.12s-.11.08-.19.09-.15.02-.21.02-.12.02-.19.05Z"/><path class="cls-1" d="M299.58,20.34l-.47-.23c-.03-.06-.07-.12-.12-.16s-.07-.11-.07-.19-.02-.15-.05-.21-.05-.12-.05-.19c.06-.31.21-.59.45-.84s.41-.52.52-.82.17-.61.19-.94.02-.66.02-1.01c-.03-.12-.07-.26-.12-.4s-.12-.27-.23-.38-.2-.23-.28-.35-.18-.23-.3-.33c-.22-.12-.44-.23-.66-.33s-.46-.14-.73-.14h-1.62c-.31.03-.62.1-.91.21s-.59.2-.89.26-.59.16-.87.28-.55.28-.8.47l-.38.33-.56.05-.47-.23c-.06-.09-.12-.2-.16-.3s-.07-.23-.07-.35v-.75c.06-.59.11-1.19.14-1.78s.05-1.2.05-1.83.02-1.23.05-1.83.16-1.16.38-1.69c.06-.03.12-.07.19-.12s.13-.08.21-.09.15-.02.21-.02h.23l.47.23c.06.09.12.18.16.26s.07.17.07.28v.63c-.06.38-.1.77-.12,1.2s-.02.84-.02,1.27,0,.84-.02,1.24-.04.81-.07,1.22h.23c.41-.12.8-.25,1.2-.38s.79-.22,1.2-.28.84-.09,1.31-.09h1.36c.19.06.38.12.59.16s.4.11.59.19.37.18.54.3.35.25.54.38l.14.14.38.42.23.42h.09c.16.19.27.39.33.61s.12.45.16.68.07.48.07.73v.75c-.06.28-.12.57-.16.87s-.12.58-.21.84-.23.52-.42.75-.34.48-.47.73h-.09l-.09.14c-.06.06-.12.11-.19.14s-.12.05-.19.07-.13.02-.21.02h-.21ZM297.47,6.19c-.38-.19-.75-.4-1.12-.63s-.73-.48-1.08-.73-.7-.48-1.05-.68-.73-.41-1.1-.63c-.03-.06-.07-.12-.12-.19s-.08-.13-.09-.21-.02-.15-.02-.21v-.23l.23-.47c.06-.03.12-.07.19-.12s.13-.08.21-.09.16-.02.23-.02h.26c.38.19.74.38,1.1.56s.71.41,1.05.68.7.5,1.05.7.71.43,1.05.68c.03.06.07.12.12.19s.09.13.12.21.05.16.05.23v.26l-.23.47c-.06.03-.12.07-.19.12s-.13.08-.21.09-.15.02-.21.02h-.23Z"/><path class="cls-1" d="M317.02,19.27l-.7-.33c-.06-.09-.12-.17-.19-.23s-.12-.14-.16-.23-.07-.19-.07-.28-.02-.19-.05-.28c.03-.06.05-.12.07-.16s.03-.1.05-.16.04-.12.07-.16.06-.1.09-.16l.28-.19c.09-.06.2-.11.3-.14s.22-.05.33-.05h.35l.47.23v.09h.09c.06.09.12.18.16.26s.08.17.09.28.02.22.02.33v.35l-.28.56c-.06.03-.13.07-.21.12s-.16.09-.23.12-.16.05-.23.05h-.26Z"/><path class="cls-1" d="M329.02,19.27l-.7-.33c-.06-.09-.12-.17-.19-.23s-.12-.14-.16-.23-.07-.19-.07-.28-.02-.19-.05-.28c.03-.06.05-.12.07-.16s.03-.1.05-.16.04-.12.07-.16.06-.1.09-.16l.28-.19c.09-.06.2-.11.3-.14s.22-.05.33-.05h.35l.47.23v.09h.09c.06.09.12.18.16.26s.08.17.09.28.02.22.02.33v.35l-.28.56c-.06.03-.13.07-.21.12s-.16.09-.23.12-.16.05-.23.05h-.26Z"/><path class="cls-1" d="M341.02,19.27l-.7-.33c-.06-.09-.12-.17-.19-.23s-.12-.14-.16-.23-.07-.19-.07-.28-.02-.19-.05-.28c.03-.06.05-.12.07-.16s.03-.1.05-.16.04-.12.07-.16.06-.1.09-.16l.28-.19c.09-.06.2-.11.3-.14s.22-.05.33-.05h.35l.47.23v.09h.09c.06.09.12.18.16.26s.08.17.09.28.02.22.02.33v.35l-.28.56c-.06.03-.13.07-.21.12s-.16.09-.23.12-.16.05-.23.05h-.26Z"/><path class="cls-1" d="M175.32,50.08c-.72-1.52-1.97-2.9-3.85-4.23-1.77-1.21-3.9-2.29-6.36-3.21-4.24-1.62-9.76-2.94-16.4-3.91-12.95-1.9-27.08-2.82-43.19-2.82-18.98,0-38.35,1.28-57.09,2.53,0,0-.27.02-.27.02-.21,0-.35-.07-.37-.17-.02-.11.11-.2.3-.22,17.65-1.21,37.66-2.58,57.39-2.58,16.12,0,30.32.93,43.39,2.83,4.77.7,9.05,1.59,12.71,2.66,4.41,1.29,7.91,2.83,10.41,4.6,1.57,1.09,2.79,2.33,3.6,3.66l.27.45.71-.24c7.16-2.43,15.42-4.12,25.24-5.15,8.08-.85,16.88-1.24,28.53-1.24,2.02,0,4.04.02,6.03.04,2.13.02,4.26.04,6.39.07,4.23.05,8.6.1,12.91.1,13.13,0,28.46-.41,42.6-3.48.03,0,.06,0,.09,0,.2,0,.32.04.37.12.07.11-.03.24-.24.29-14.26,3.08-29.65,3.5-42.82,3.5-4.36,0-8.78-.05-13.05-.1-2.09-.03-4.18-.05-6.26-.07-2-.02-4.02-.04-6.02-.04-11.31,0-20.33.39-28.41,1.23-10.16,1.05-18.7,2.85-26.1,5.48l-.39.14-.12-.26Z"/></g></svg>