<?xml version="1.0" encoding="UTF-8"?><svg id="_レイヤー_2" xmlns="http://www.w3.org/2000/svg" viewBox="0 0 497.95 70.45"><defs><style>.cls-1{fill:#41352c;stroke-width:0px;}</style></defs><g id="_レイヤー_1-2"><path class="cls-1" d="M17.65,42.61c0,.09.05.18.14.25.09.07.21.08.35.04l1.48-.63c.47-.19.94-.28,1.41-.28.52,0,1.05.14,1.62.42.94.47,1.55,1.22,1.83,2.25l.35,1.2c.09.47.14.91.14,1.34,0,.7-.17,1.41-.49,2.11-.47,1.12-1.24,1.95-2.32,2.46-4.88,2.49-10.01,4.99-15.4,7.52-.52.28-1.05.42-1.62.42-.52,0-1.01-.09-1.48-.28-1.03-.42-1.76-1.17-2.18-2.25l-1.12-2.81c-.19-.47-.28-.96-.28-1.48s.12-1.05.35-1.62c.47-1.03,1.24-1.76,2.32-2.18.42-.14,1.16-.41,2.21-.81,1.05-.4,1.86-.71,2.43-.95.33-.14.49-.38.49-.7v-17.79c0-.38-.17-.56-.49-.56h-3.23c-1.17,0-2.16-.4-2.95-1.2-.8-.8-1.2-1.78-1.2-2.95v-1.55c0-1.17.4-2.16,1.2-2.95.8-.8,1.78-1.2,2.95-1.2h3.23c.33,0,.49-.19.49-.56V7.31c0-1.17.41-2.16,1.23-2.95.82-.8,1.79-1.2,2.92-1.2h1.48c1.12,0,2.1.4,2.92,1.2.82.8,1.23,1.78,1.23,2.95v10.55c0,.38.16.56.49.56h2.04c1.12,0,2.1.4,2.92,1.2.82.8,1.23,1.78,1.23,2.95v1.55c0,1.17-.41,2.16-1.23,2.95-.82.8-1.79,1.2-2.92,1.2h-2.04c-.33,0-.49.19-.49.56v13.78ZM42.47,59.91h12.09c1.45,0,2.5-.29,3.13-.88.63-.59,1.11-1.7,1.44-3.34.19-.98.7-1.69,1.55-2.11.47-.23.94-.35,1.41-.35.42,0,.84.09,1.27.28.47.19.94.38,1.41.56,1.17.42,2.08,1.12,2.74,2.11.47.75.7,1.52.7,2.32,0,.28-.05.56-.14.84-.75,3.61-2.06,6.15-3.94,7.63-1.88,1.48-4.74,2.21-8.58,2.21h-14.06c-5.39,0-9.02-.97-10.9-2.92-1.88-1.95-2.81-5.71-2.81-11.29v-16.03c0-.23-.12-.3-.35-.21-.7.28-1.41.28-2.11,0s-1.2-.77-1.48-1.48l-1.2-2.81c-.24-.52-.35-1.05-.35-1.62,0-.52.09-1.03.28-1.55.47-1.08,1.22-1.83,2.25-2.25l2.46-1.05c.33-.14.49-.38.49-.7v-13.92c0-1.17.41-2.16,1.23-2.95.82-.8,1.79-1.2,2.92-1.2h1.62c1.17,0,2.16.4,2.95,1.2.8.8,1.2,1.78,1.2,2.95v9.63c0,.14.06.25.18.32.12.07.22.08.32.04l2.95-1.27c.33-.14.49-.38.49-.7V6.19c0-1.12.4-2.1,1.2-2.92.8-.82,1.78-1.23,2.95-1.23h1.48c1.12,0,2.1.41,2.92,1.23.82.82,1.23,1.79,1.23,2.92v10.9c0,.14.05.25.14.32.09.07.21.08.35.04l3.09-1.34,1.62-1.05.07-.07c.75-.47,1.5-.7,2.25-.7.52,0,1.01.07,1.48.21l3.87,1.41c.42.14.74.4.95.77.21.38.27.77.18,1.2v.42c-.05,12.8-.19,20.86-.42,24.19-.14,3.33-1.34,5.55-3.59,6.68-.98.56-2.25.94-3.8,1.12h-.49c-.94,0-1.78-.3-2.53-.91-.94-.8-1.52-1.78-1.76-2.95-.38-1.64-.77-2.95-1.2-3.94-.05-.09-.09-.13-.14-.11-.05.02-.07.06-.07.11v6.68c0,1.12-.41,2.1-1.23,2.92-.82.82-1.79,1.23-2.92,1.23h-1.48c-1.17,0-2.16-.41-2.95-1.23-.8-.82-1.2-1.79-1.2-2.92v-16.1c0-.14-.06-.23-.18-.28-.12-.05-.22-.05-.32,0l-2.95,1.27c-.33.14-.49.4-.49.77v20.18c0,2.2.27,3.58.81,4.11.54.54,1.86.81,3.97.81ZM55.41,27c0-.09-.05-.18-.14-.25-.09-.07-.21-.08-.35-.04l-3.02,1.34c-.33.14-.49.4-.49.77v12.45c0,.38.16.56.49.56.56.05,1.29.07,2.18.07.37,0,.66-.09.84-.28.19-.19.3-.54.35-1.05.09-.56.14-5.09.14-13.57Z"/><path class="cls-1" d="M88.03,43.45c.52-.28,1.05-.42,1.62-.42.42,0,.84.07,1.27.21.94.38,1.57,1.08,1.9,2.11l.49,1.48c.23.56.35,1.12.35,1.69s-.12,1.15-.35,1.76c-.42,1.12-1.15,2.02-2.18,2.67-4.22,2.63-8.32,5.09-12.3,7.38-.56.33-1.12.49-1.69.49-.42,0-.84-.07-1.27-.21-1.03-.38-1.73-1.08-2.11-2.11l-.98-2.74c-.19-.47-.28-.96-.28-1.48,0-.61.12-1.2.35-1.76.47-1.08,1.22-1.87,2.25-2.39.75-.33,1.52-.7,2.32-1.12.33-.19.49-.45.49-.77v-18.77c0-.38-.19-.56-.56-.56h-1.12c-1.17,0-2.16-.4-2.95-1.2-.8-.8-1.2-1.78-1.2-2.95v-1.55c0-1.12.4-2.1,1.2-2.92.8-.82,1.78-1.23,2.95-1.23h1.12c.37,0,.56-.16.56-.49V7.31c0-1.17.4-2.16,1.2-2.95.8-.8,1.78-1.2,2.95-1.2h1.41c1.12,0,2.1.4,2.92,1.2.82.8,1.23,1.78,1.23,2.95v11.25c0,.33.16.49.49.49h.28c1.12,0,2.1.41,2.92,1.23.82.82,1.23,1.79,1.23,2.92v1.55c0,1.17-.41,2.16-1.23,2.95-.82.8-1.79,1.2-2.92,1.2h-.28c-.33,0-.49.19-.49.56v13.71c0,.09.05.18.14.25.09.07.19.08.28.04ZM128.32,28.69c.28-1.12.89-2.01,1.83-2.67.75-.52,1.55-.77,2.39-.77.23,0,.49.02.77.07l1.12.21c1.12.19,1.99.77,2.6,1.76.42.61.63,1.29.63,2.04,0,.33-.05.66-.14.98-1.97,7.88-4.67,14.88-8.09,21.02-.14.33-.19.66-.14.98,1.22,5.58,2.41,8.37,3.59,8.37.56,0,.96-1.38,1.2-4.15.09-.75.49-1.25,1.2-1.51.7-.26,1.36-.15,1.97.32.19.19.37.35.56.49,1.03.84,1.8,1.83,2.32,2.95.33.75.49,1.5.49,2.25,0,.42-.05.82-.14,1.2-.7,3.14-1.73,5.3-3.09,6.47-1.36,1.17-3.33,1.76-5.91,1.76-3.56,0-6.54-2.74-8.93-8.23-.14-.33-.31-.35-.49-.07-1.73,1.97-3.52,3.77-5.34,5.41-.84.66-1.76.98-2.74.98h-.35c-1.17-.09-2.2-.54-3.09-1.34-.42-.38-.84-.75-1.27-1.12-.7-.61-1.05-1.38-1.05-2.32,0-1.08.42-1.94,1.27-2.6,1.08-.84,2.16-1.78,3.23-2.81.05-.05.06-.09.04-.14-.02-.05-.08-.07-.18-.07-5.95,1.5-10.88,2.74-14.77,3.73-.33.09-.66.14-.98.14-.75,0-1.45-.21-2.11-.63-.98-.61-1.62-1.48-1.9-2.6l-.42-1.62c-.05-.33-.07-.66-.07-.98,0-.7.21-1.38.63-2.04.61-.94,1.45-1.5,2.53-1.69,4.26-.8,9.77-1.87,16.52-3.23.28-.05.54-.07.77-.07.8,0,1.52.24,2.18.7.89.66,1.41,1.55,1.55,2.67l.14,1.05c0,.09.05.15.14.18.09.02.16.01.21-.04.84-1.12,1.5-2.01,1.97-2.67.19-.28.26-.61.21-.98-1.45-7.73-2.42-17.25-2.88-28.55-.05-.33-.24-.49-.56-.49h-18c-1.17,0-2.16-.41-2.95-1.23-.8-.82-1.2-1.79-1.2-2.92v-1.12c0-1.17.4-2.16,1.2-2.95.8-.8,1.78-1.2,2.95-1.2h17.72c.33,0,.49-.19.49-.56-.05-2.81-.07-4.43-.07-4.85,0-1.08.4-2.01,1.2-2.81.8-.8,1.76-1.2,2.88-1.2h1.69c1.12,0,2.08.4,2.88,1.2.8.8,1.2,1.76,1.2,2.88v4.78c0,.38.16.56.49.56h4.36c.09,0,.16-.05.21-.14.05-.09.02-.19-.07-.28-.47-.52-.98-1.05-1.55-1.62-.75-.7-1.12-1.55-1.12-2.53s.37-1.83,1.12-2.53c.89-.7,1.87-1.08,2.95-1.12h.14c1.08,0,2.04.35,2.88,1.05.7.61,1.36,1.2,1.97,1.76.7.66,1.05,1.43,1.05,2.32,0,1.08-.42,1.99-1.27,2.74l-.07.14s-.07.04-.07.11.05.11.14.11c.66,0,1.22.24,1.69.7.47.47.7,1.03.7,1.69v2.88c0,1.12-.4,2.1-1.2,2.92-.8.82-1.78,1.23-2.95,1.23h-8.65c-.33,0-.49.17-.49.49.19,4.22.44,8.25.77,12.09,0,.05.04.07.11.07s.11-.02.11-.07c.52-1.59.96-3.23,1.34-4.92ZM95.62,28.83c0-1.12.4-2.1,1.2-2.92.8-.82,1.78-1.23,2.95-1.23h10.55c1.12,0,2.1.41,2.92,1.23.82.82,1.23,1.79,1.23,2.92v14.48c0,1.12-.41,2.1-1.23,2.92-.82.82-1.79,1.23-2.92,1.23h-10.55c-1.17,0-2.16-.41-2.95-1.23-.8-.82-1.2-1.79-1.2-2.92v-14.48ZM105.96,39.52c.33,0,.49-.19.49-.56v-5.91c0-.33-.17-.49-.49-.49h-2.25c-.38,0-.56.17-.56.49v5.91c0,.38.19.56.56.56h2.25Z"/><path class="cls-1" d="M157.64,6.05c.52-1.08,1.29-1.85,2.32-2.32.61-.28,1.22-.42,1.83-.42.47,0,.94.07,1.41.21l1.83.56c1.08.38,1.85,1.05,2.32,2.04.23.52.35,1.03.35,1.55s-.12,1.03-.35,1.55c-1.45,3.19-2.95,6.23-4.5,9.14-.19.28-.28.61-.28.98v46.76c0,1.17-.41,2.16-1.23,2.95-.82.8-1.79,1.2-2.92,1.2h-1.62c-1.17,0-2.16-.4-2.95-1.2-.8-.8-1.2-1.78-1.2-2.95v-31.78c0-.09-.05-.16-.14-.21-.09-.05-.17-.02-.21.07-.56.66-1.15,1.34-1.76,2.04-.52.56-1.12.84-1.83.84-.19,0-.38-.02-.56-.07-.94-.19-1.62-.73-2.04-1.62-.52-1.17-1.08-2.3-1.69-3.38-.42-.84-.63-1.73-.63-2.67,0-.28.02-.54.07-.77.14-1.22.61-2.27,1.41-3.16,4.97-5.53,9.09-11.98,12.38-19.34ZM194.55,57.87c0,.33.16.49.49.49h13.08c1.17,0,2.16.41,2.95,1.23.8.82,1.2,1.79,1.2,2.92v1.69c0,1.12-.4,2.1-1.2,2.92-.8.82-1.78,1.23-2.95,1.23h-38.39c-1.17,0-2.16-.41-2.95-1.23-.8-.82-1.2-1.79-1.2-2.92v-1.69c0-1.12.4-2.1,1.2-2.92.8-.82,1.78-1.23,2.95-1.23h13.64c.33,0,.49-.16.49-.49v-11.11c0-.38-.17-.56-.49-.56h-9.84c-1.12,0-2.1-.4-2.92-1.2-.82-.8-1.23-1.78-1.23-2.95v-1.55c0-1.17.41-2.16,1.23-2.95.82-.8,1.79-1.2,2.92-1.2h9.84c.33,0,.49-.19.49-.56v-9.56c0-.38-.17-.56-.49-.56h-12.16c-1.12,0-2.1-.4-2.92-1.2-.82-.8-1.23-1.78-1.23-2.95v-1.62c0-1.12.41-2.1,1.23-2.92.82-.82,1.79-1.23,2.92-1.23h13.22c.09,0,.15-.04.18-.11.02-.07-.01-.13-.11-.18-2.11-1.45-4.1-2.77-5.98-3.94-.94-.56-1.48-1.36-1.62-2.39-.05-.19-.07-.38-.07-.56,0-.84.3-1.57.91-2.18l1.27-1.41c.84-.89,1.87-1.45,3.09-1.69.33-.05.63-.07.91-.07.89,0,1.73.21,2.53.63,3.75,2.06,6.96,4.01,9.63,5.84.94.66,1.45,1.55,1.55,2.67v.35c0,.98-.35,1.85-1.05,2.6-.09.09-.12.19-.07.28.05.09.12.14.21.14h11.25c1.17,0,2.16.41,2.95,1.23.8.82,1.2,1.79,1.2,2.92v1.62c0,1.17-.4,2.16-1.2,2.95-.8.8-1.78,1.2-2.95,1.2h-12.02c-.33,0-.49.19-.49.56v9.56c0,.38.16.56.49.56h10.05c1.17,0,2.16.4,2.95,1.2.8.8,1.2,1.78,1.2,2.95v1.55c0,1.17-.4,2.16-1.2,2.95-.8.8-1.78,1.2-2.95,1.2h-10.05c-.33,0-.49.19-.49.56v11.11Z"/><path class="cls-1" d="M282.45,39.73c0,1.12-.41,2.1-1.23,2.92s-1.79,1.23-2.92,1.23h-14.84c-.14,0-.26.06-.35.18-.09.12-.12.22-.07.32,1.36,4.08,2.91,7.45,4.64,10.12,1.73,2.72,3.33,4.08,4.78,4.08h.07c.75,0,1.31-.8,1.69-2.39.23-.89.42-2.13.56-3.73.09-.84.54-1.45,1.34-1.83.33-.14.66-.21.98-.21.42,0,.84.14,1.27.42.61.38,1.24.73,1.9,1.05,1.12.56,2.01,1.36,2.67,2.39.47.8.7,1.62.7,2.46,0,.24-.02.49-.07.77-.7,3.98-1.76,6.77-3.16,8.37-1.83,2.06-4.67,3.09-8.51,3.09-4.41-.05-8.39-2.37-11.95-6.96-3.42-4.5-6.12-10.38-8.09-17.65-.09-.33-.31-.49-.63-.49h-15.47c-.38,0-.56.17-.56.49v9.84c0,.38.16.54.49.49,1.92-.19,6.05-.63,12.38-1.34.19-.05.35-.07.49-.07.94,0,1.76.33,2.46.98.84.7,1.29,1.62,1.34,2.74l.07,2.04c.05.8-.11,1.54-.46,2.21-.35.68-.83,1.24-1.44,1.69-.61.45-1.29.71-2.04.81-7.41,1.03-15.89,2.11-25.45,3.23-.24.05-.45.07-.63.07-.94,0-1.78-.31-2.53-.91-.98-.66-1.59-1.57-1.83-2.74l-.56-2.81c-.05-.28-.07-.54-.07-.77,0-.8.26-1.52.77-2.18.66-.89,1.55-1.38,2.67-1.48,1.31-.09,2.3-.16,2.95-.21.38-.05.56-.26.56-.63V7.59c0-1.12.41-2.1,1.23-2.92s1.79-1.23,2.92-1.23h44.79c1.12,0,2.1.41,2.92,1.23.82.82,1.23,1.79,1.23,2.92v16.73c0,1.12-.41,2.1-1.23,2.92s-1.79,1.23-2.92,1.23h-12.94c-.33,0-.47.19-.42.56.14,1.36.35,2.91.63,4.64.05.33.26.49.63.49h17.09c1.12,0,2.1.41,2.92,1.23.82.82,1.23,1.79,1.23,2.92v1.41ZM266.84,13.71c0-.38-.19-.56-.56-.56h-30.52c-.38,0-.56.19-.56.56v4.64c0,.33.19.49.56.49h30.52c.38,0,.56-.16.56-.49v-4.64ZM235.2,33.68c0,.33.19.49.56.49h13.5c.33,0,.47-.19.42-.56-.24-1.59-.4-3.12-.49-4.57-.05-.38-.26-.56-.63-.56h-12.87c-.33,0-.49.19-.49.56v4.64Z"/><path class="cls-1" d="M329.7,66.38c-.47.14-.91.21-1.34.21-.75,0-1.48-.17-2.18-.49-1.17-.52-2.11-1.29-2.81-2.32l-2.04-3.3c-.28-.42-.42-.87-.42-1.34,0-.38.07-.77.21-1.2.42-.84,1.1-1.36,2.04-1.55.84-.19,1.8-.42,2.88-.7,4.69-1.12,8.38-3.25,11.07-6.36,2.7-3.12,4.04-6.97,4.04-11.57s-1.04-8.36-3.13-11.43c-2.09-3.07-5.07-5.12-8.96-6.15-.38-.09-.59.05-.63.42-1.08,6.42-2.44,12.45-4.08,18.07-2.25,7.45-4.98,13.29-8.19,17.51-3.21,4.22-6.86,6.33-10.93,6.33-4.36,0-8.04-2.11-11.04-6.33-3-4.22-4.5-9.38-4.5-15.47,0-4.17.87-8.17,2.6-11.99,1.73-3.82,4.09-7.15,7.07-9.98,2.98-2.84,6.56-5.1,10.76-6.79,4.19-1.69,8.64-2.53,13.32-2.53,4.41,0,8.48.74,12.23,2.21,3.75,1.48,6.88,3.5,9.39,6.08,2.51,2.58,4.46,5.61,5.87,9.11,1.41,3.49,2.11,7.28,2.11,11.36,0,7.08-1.96,13.07-5.87,17.96-3.91,4.9-9.74,8.31-17.47,10.23ZM313.1,36.42c1.45-4.41,2.65-9.61,3.59-15.61.05-.14.02-.25-.07-.32-.09-.07-.21-.08-.35-.04-3.23.94-6.06,2.53-8.47,4.78-2.42,2.25-4.16,4.62-5.24,7.1-1.08,2.49-1.62,4.9-1.62,7.24,0,2.95.45,5.26,1.34,6.93.89,1.66,1.99,2.5,3.3,2.5s2.62-1.02,3.8-3.06c1.17-2.04,2.41-5.21,3.73-9.53Z"/><path class="cls-1" d="M426.73,17.3c0,1.12-.41,2.1-1.23,2.92s-1.79,1.23-2.92,1.23h-29.6c-.33,0-.49.17-.49.49-.14,2.11-.38,4.45-.7,7.03-.05.33.12.49.49.49h22.64c1.17,0,2.16.42,2.95,1.27.66.66.98,1.45.98,2.39v.49c-.05.09-.07.19-.07.28-.61,9.56-1.34,16.65-2.18,21.27-.84,4.62-2.02,7.75-3.52,9.39-1.97,2.16-4.83,3.45-8.58,3.87-1.64.19-3.82.28-6.54.28-.61,0-1.27-.02-1.97-.07-1.12,0-2.13-.4-3.02-1.2-.89-.8-1.5-1.78-1.83-2.95-.24-.89-.56-1.76-.98-2.6-.14-.33-.21-.68-.21-1.05,0-.42.12-.82.35-1.2.42-.7,1.03-1.05,1.83-1.05h.14c2.39.09,5.06.14,8.02.14,1.59,0,2.79-.3,3.59-.91,1.73-1.41,3-7.41,3.8-18,.05-.33-.12-.49-.49-.49h-16.59c-.33,0-.54.17-.63.49-1.55,6.33-4.1,11.95-7.66,16.88-2.95,4.12-6.94,7.71-11.95,10.76-.66.38-1.34.56-2.04.56-.38,0-.75-.05-1.12-.14-1.08-.28-1.99-.89-2.74-1.83-.28-.42-.61-.84-.98-1.27-.38-.42-.75-.84-1.12-1.27-.56-.61-.84-1.31-.84-2.11,0-.14.02-.3.07-.49.14-.98.63-1.73,1.48-2.25,1.27-.7,2.44-1.48,3.52-2.32,2.11-1.59,3.88-3.19,5.31-4.78,1.43-1.59,2.68-3.43,3.76-5.52,1.08-2.08,1.91-4.01,2.5-5.77.59-1.76,1.08-3.83,1.48-6.22.4-2.39.67-4.45.81-6.19.14-1.59.28-3.54.42-5.84,0-.38-.17-.56-.49-.56h-15.26c-1.12,0-2.1-.41-2.92-1.23-.82-.82-1.23-1.79-1.23-2.92v-1.69c0-1.12.41-2.1,1.23-2.92s1.79-1.23,2.92-1.23h22.29c.38,0,.56-.19.56-.56v-6.75c0-1.12.41-2.1,1.23-2.92s1.79-1.23,2.92-1.23h2.6c1.12,0,2.1.41,2.92,1.23.82.82,1.23,1.79,1.23,2.92v6.75c0,.38.16.56.49.56h23.27c1.12,0,2.1.41,2.92,1.23.82.82,1.23,1.79,1.23,2.92v1.69Z"/><path class="cls-1" d="M444.87,48.45c-.56.89-1.38,1.41-2.46,1.55h-.35c-.89,0-1.66-.33-2.32-.98l-4.71-4.92c-.75-.75-1.12-1.64-1.12-2.67,0-1.22.45-2.23,1.34-3.02,1.08-.98,2.2-2.11,3.38-3.38,1.08-1.12,3.14-3.56,6.19-7.31,3.05-3.75,5.25-6.4,6.61-7.95,2.86-3.23,5.74-4.85,8.65-4.85,2.44,0,4.92,1.2,7.45,3.59,2.01,1.92,4.86,5.05,8.54,9.39,3.68,4.34,5.82,6.83,6.43,7.49,4.78,5.2,9.49,9.98,14.13,14.34.89.89,1.34,1.97,1.34,3.23,0,1.03-.33,1.95-.98,2.74l-3.52,4.08c-.75.84-1.69,1.29-2.81,1.34h-.21c-1.03,0-1.92-.38-2.67-1.12-3.84-3.89-7.9-8.44-12.16-13.64-.94-1.17-3.01-3.73-6.22-7.66-3.21-3.94-5.45-6.63-6.71-8.09-1.08-1.12-1.97-1.69-2.67-1.69h-.14c-.75.05-1.62.68-2.6,1.9-1.31,1.69-4.59,6.28-9.84,13.78-.66.94-1.5,2.23-2.53,3.87Z"/></g></svg>