<?xml version="1.0" encoding="UTF-8"?><svg id="_レイヤー_2" xmlns="http://www.w3.org/2000/svg" viewBox="0 0 49.05 52.31"><defs><style>.cls-1{fill:#d07762;}.cls-1,.cls-2,.cls-3,.cls-4,.cls-5,.cls-6,.cls-7,.cls-8,.cls-9,.cls-10,.cls-11,.cls-12,.cls-13,.cls-14,.cls-15,.cls-16,.cls-17,.cls-18,.cls-19,.cls-20,.cls-21,.cls-22,.cls-23,.cls-24,.cls-25,.cls-26,.cls-27,.cls-28,.cls-29,.cls-30,.cls-31,.cls-32,.cls-33,.cls-34,.cls-35,.cls-36,.cls-37,.cls-38,.cls-39,.cls-40,.cls-41,.cls-42,.cls-43,.cls-44,.cls-45,.cls-46,.cls-47,.cls-48,.cls-49,.cls-50,.cls-51,.cls-52,.cls-53,.cls-54,.cls-55,.cls-56,.cls-57,.cls-58{stroke-width:0px;}.cls-2{fill:#bc391e;}.cls-3{fill:#bb3d28;}.cls-4{fill:#cf745d;}.cls-5{fill:#c6593e;}.cls-6{fill:#c85e45;}.cls-7{fill:#c5593e;}.cls-8{fill:#cb6951;}.cls-9{fill:#cb6850;}.cls-10{fill:#b72c0f;}.cls-11{fill:#c35137;}.cls-12{fill:#c55c43;}.cls-13{fill:#c04d31;}.cls-14{fill:#ad1611;}.cls-15{fill:#bc4125;}.cls-16{fill:#b93317;}.cls-17{fill:#cc6951;}.cls-18{fill:#d17c67;}.cls-19{fill:#af1c18;}.cls-20{fill:#c04428;}.cls-21{fill:#b1231c;}.cls-22{fill:#b93d22;}.cls-23{fill:#b42921;}.cls-24{fill:#c9644b;}.cls-25{fill:#cd6d55;}.cls-26{fill:#cb6952;}.cls-27{fill:#c75d43;}.cls-28{fill:#d58471;}.cls-29{fill:#cb6750;}.cls-30{fill:#c55539;}.cls-31{fill:#ca654b;}.cls-32{fill:#b42a20;}.cls-33{fill:#b11f19;}.cls-34{fill:#c96046;}.cls-35{fill:#cc6b53;}.cls-36{fill:#c25038;}.cls-37{fill:#d07862;}.cls-38{fill:#b5281b;}.cls-39{fill:#b0280c;}.cls-40{fill:#ce745d;}.cls-41{fill:#c34f32;}.cls-42{fill:#c4563c;}.cls-43{fill:#cf725c;}.cls-44{fill:#c45138;}.cls-45{fill:#b52d23;}.cls-46{fill:#d88d7c;}.cls-47{fill:#c45337;}.cls-48{fill:#be4a34;}.cls-49{fill:#c04c31;}.cls-50{fill:#b83625;}.cls-51{fill:#bc3e21;}.cls-52{fill:#bd381c;}.cls-53{fill:#bc361b;}.cls-54{fill:#bf4d32;}.cls-55{fill:#b52e23;}.cls-56{fill:#ba381e;}.cls-57{fill:#af1611;}.cls-58{fill:#c45539;}</style></defs><g id="_レイヤー_2-2"><path class="cls-37" d="M17.71,3.71c-.62-.18-1.24-.34-1.9-.27-.14.2-1.36-.21-2.17.81-.17.26-.44.26-.71.28-.76.06-1.37.33-1.54,1.18-.05.22-.26.35-.46.45-.04.08-.07.17-.13.23-.68.67-1.31,1.37-1.27,2.43,0,.15-.14.37-.27.43-.76.37-.86,1.09-1.03,1.79.15,1.12-.41,2.2-.96,2.91-.95,1.23-.25,2.04.24,2.91.5.88,1.32,1.35,2.4.91.67-.39.91-1.1,1.26-1.72.19-.95,1.23-1.26,1.57-2.09.26-.35.76-.44.97-.85,0-.14-.05-.25-.16-.32-1.05-.41-1.65.2-2.19.96-.12.15-.25.29-.38.43-.3.23-.53.59-.99.62.16-.35.59-.44.66-.82.13-.67.28-1.47-.25-1.92-.96-.82-.63-1.63-.26-2.51.08-.53-.02-1.1.38-1.55.03-.05.07-.1.1-.15.03-.05.07-.1.1-.15.31-.46.86-.66,1.2-1.07.71-.84,1.87-1.2,2.35-2.26-.02-.04-.04-.07-.06-.1.35-.04.71-.16,1.04-.09.55.1,1.06.11,1.58-.11.33-.14.6.09.89.2,0-.18,0-.36,0-.54Z"/><path class="cls-5" d="M30.46,40.34c-.66-.27-1.27-.03-1.8.29-2.9,1.73-5.51.97-8.01-.89-.3-.22-.58-.43-.96-.44-2.3-.07-3.92-1.12-4.78-3.28-.1-.1-.2-.17-.33-.23-.37-.13-.76-.13-1.13-.24-.19-.04-.38-.07-.57-.04-.03,0-.05.02-.07.02-.07-.27-.26-.43-.26-.77,0-.61-.28-1.04-.84-1.3,0,.55,0,1.1,0,1.64,0,.36.12.67.42.89.07,0,.22-.07.36-.14,0,.05.03.09.07.14h0c1.25.62,2.09,1.7,2.98,2.72.37.16.68.42,1.04.6.7.36,1.5.59,2.05,1.24.32.38.8.57,1.32.6.59.03,1.13.24,1.65.52,2.18,1.16,4.37,1.15,6.59.08.52-.25,1.08-.45,1.61-.68.24-.11.51-.2.66-.45,0-.09,0-.18,0-.28Z"/><path class="cls-20" d="M29.92.48c.69,0,1.32.28,1.95.51,3.88,1.41,7.3,3.53,10.06,6.64,1.86,2.1,3.03,4.53,3.18,7.33.1,1.77.82,5.11,1.89,6.99.13.23.31.45.29.75.05,1.36.46,2.67.75,3.97,1.33,5.8.06,11.07-2.9,16.06-.36.61-.77,1.23-.84,1.97-.8,1.05-1.83,1.83-2.98,2.45-.82-.02-1.63.08-2.33.49-1.38.82-2.87,1.33-4.42,1.69-.27.2-3.04.42-4.11.44-1.3.02-2.57.18-3.81.59-1.17-.27-2.16.33-3.23.6-2.31.58-4.68.84-7.06,1.03-.92-.06-1.74-.45-2.5-.89-2.14-1.21-3.88-2.86-5.11-5.02-.07-.1-.24-.16-.3-.49-.13-.23,0-.33.19-.42.84.2,1.52.67,2.15,1.25.08.08.16.16.23.24.08.08,1.29,1.35,1.39,1.5,2.03,2.47,4.84,2.27,7.54,1.98,1.51-.16,3.13-.2,4.53-1.07.48-.3,1.14-.13,1.72-.07.82.08,1.61.03,2.29-.53.31-.2.69-.41,1-.29,2.08.86,3.99-.6,6.02-.39.51.05.94-.25,1.31-.59.83-.55,1.7-.94,2.74-1.04,2.14-.2,3.07-1.87,3.91-3.54.3-.6.55-1.23.87-1.83,1.58-3.01,2.71-6.17,2.83-9.61.03-.73,0-1.47-.25-2.14-.6-1.62-.95-3.29-.96-5-.01-1.41-.82-2.54-1.18-3.83-.35-1.25-.89-2.45-1.01-3.76.27-2.19-1.13-3.79-1.91-5.63-1.03-2.4-2.87-4.13-4.72-5.74-1.34-1.16-3.04-1.96-4.87-2.46-2.48-.68-4.95-.92-7.48-.73-1.12.09-2.24.23-3.35.42-.76.13-1.52.19-2.26-.15-.49-.34-.8,0-1.19.25-.75.49-1.34.34-1.62-.59.07-.05.14-.07.22-.05.17-.13.41-.08.58-.23.69-.31,1.42-.5,2.18-.54.52.22,1.11.22,1.58.08,2.8-.88,5.66-.39,8.5-.44.19,0,.34-.08.49-.18Z"/><path class="cls-41" d="M8.76,45.23c-.11.12-.21.24-.32.36-.28-.23-.47-.51-.52-.88-.12-1.1-.92-1.97-1.08-3.03-.45-2.92-2.3-4.9-4.34-6.77-.73-.67-1.06-1.55-1.29-2.48-.42-1.68-1.04-3.24-.44-5.12.45-1.4.25-3.03.49-4.54.12-.78.38-1.48.94-2.05.53-1.23,1.7-2.12,1.9-3.54.41-.61.97-1.13,1.22-1.82.16-.46.45-.82.45-.82,0-.74.8-2.36.86-2.42,1.07.52.21,1.29.24,1.94-.08.24-.19.47-.28.71-.12.29-.06.6-.03.9-.25,1.4-.67,2.65-1.81,3.66-2.2,1.94-2.55,4.55-2.64,7.35-.08,2.32.7,4.34,1.3,6.46.18.64.56,1.07,1.01,1.54,1.64,1.67,3.37,3.33,3.34,5.96,0,.47.22.87.44,1.27.5,1,1.1,1.98.72,3.18-.05.05-.1.1-.15.15Z"/><path class="cls-2" d="M2.52,20.8c-.84.81-.95,1.88-1.07,2.94-.06.53,0,1.07-.21,1.59-.09.24-.11.55-.04.8.24.84,0,1.6-.35,2.32-.26.54-.27,1.01.01,1.54.25.47.47.97.38,1.54-.03.19.06.34.15.5.11.19.26.39.28.6.09,1.13.73,1.9,1.59,2.52.26.19.47.39.65.66.23.33.5.65.8.9.77.65,1.19,1.55,1.74,2.35.25.36.45.76.3,1.26-.11.39.07.8.25,1.16.51.95.6,2.07,1.24,2.97.11.15-.19.23-.36.26,0,0,0,0,0,0-.06-.1-.13-.2-.2-.3-.07-.05-.21-.43-.28-.54-.54-.59-.76-1.29-.9-2.09-.04-.22-.12-.56-.31-.72l.07.11c-.14-.16-.28-.77-.44-.92-1.02-2.03-2.2-3.44-3.85-4.99-.95-.9-1.49-1.99-1.71-3.29-.72-3.35-.12-9.23,1.12-10.91h0c.14-.12.21-.59.4-.67.26-.1.5.19.7.42Z"/><path class="cls-10" d="M44.3,44.7c-.2-.15-.33-.36-.22-.58.34-.68.54-1.4,1-2.05.57-.79.99-1.71,1.35-2.62.65-1.63,1.28-3.27,1.43-5.04.01-.17.13-.34.17-.51.21-.96.55-1.92.09-2.91.07-1.54-.24-3.03-.53-4.54-.16-.84-.28-1.68-.49-2.5-.11-.44-.24-.89.19-1.25h0c.14.16.09.41.27.55.84,1.33,1.12,2.84,1.28,4.35.29,2.82.33,5.66-.21,8.46-.54,2.77-1.03,4.48-3.05,7.05-.08.1-.92,1.22-1,1.31h0c-.09.09-.2.16-.26.28h0Z"/><path class="cls-16" d="M16.36,51.99c.38-.37.92-.37,1.37-.45.83-.14,1.65-.32,2.51-.37,1.15-.07,2.28-.35,3.42-.56.16-.03.34-.14.45-.27.58-.64,1.25-.58,1.97-.28.2.09.43.11.58.3,0,0-.14.21-.53.24-2.77,1.24-5.63,1.98-8.69,1.63-.33-.16-1.07-.23-1.07-.23Z"/><path class="cls-6" d="M16.37,1.84s.05.08.08.1q.91.62,1.71-.14c.3-.28.6-.38.91,0,.13.27.46.49.28.86-1.11.6-2.37.66-3.57.95-.64.28-1.55-.09-1.94.8-1.11.39-1.99,1.12-2.86,1.88-.15,0-.27-.05-.38-.15-.16-.53.04-.98.31-1.41,1.63-1.32,3.41-2.35,5.46-2.89Z"/><path class="cls-52" d="M29.92.48c-.04.23-.14.44-.4.48-.22.04-.45.03-.67.03-1.35,0-2.71-.03-4.06.02-.6.02-1.16-.36-1.72-.23-.54.12-1.02.51-1.59.64-.78.18-1.51.23-2.14-.4C20.09.48,25.07.11,26.76.02c1.07-.06,2.14.06,3.16.46Z"/><path class="cls-27" d="M10.66,6.15c.09,0,.18,0,.27,0-.43,1.19-.96,2.34-1.61,3.41-.3.5-.63.97-.8,1.53-.23.88-1.06,1.52-1,2.55.02.32-.38.59-.75.7-.06-.02-.12-.04-.18-.05-.02-.45.04-.88.21-1.31.12-.29.11-.62-.18-.85.22-1.14.52-2.26,1.04-3.31.53.14.72-.16.81-.6.12-.54.46-.94.84-1.32.08-.09.17-.18.26-.26.04-.04.09-.08.13-.13.09-.09.18-.16.28-.24.21-.13.41-.28.68-.13Z"/><path class="cls-56" d="M34.57,49.33c-.09-.07-.12-.21-.05-.22,1.53-.24,2.85-.96,4.16-1.73.62-.36,1.32-.57,2.06-.52.24.02.44.09.58.29-1.52,1.09-3.23,1.56-5.06,1.92-.22.04-.77.26-1.69.26Z"/><path class="cls-44" d="M9.58,6.96c-.37.57-.99,1.03-.85,1.83,0,.04-.01.09-.03.13-.11.26-.3.44-.59.44-.35,0-.4-.27-.45-.54.54-1.53,1.4-2.83,2.77-3.75.04-.1.12-.15.22-.18.09-.05.17-.11.26-.16.05.5.02.98-.25,1.41-.18.09-.36.18-.54.27-.09.09-.19.17-.27.27h0c-.1.09-.18.18-.27.27Z"/><path class="cls-53" d="M2.52,20.8c-.26,0-.53,0-.79,0-.08-.06-.13-.14-.11-.21.24-.88,2.48-3.18,2.47-3.39,0,0,0-.01,0-.01.08.1.24.22.22.31-.05.44-.11.9-.43,1.23-.59.61-.91,1.39-1.37,2.08Z"/><path class="cls-27" d="M36.97,47.4c-.09.63-.59.75-1.08.79-.58.05-1.16.02-1.74.02-.36,0-.73-.04-1.02.21-.55.48-1.29.26-1.9.54-.25.12-.52-.09-.75-.21-.64-.35-1.27-.37-1.91,0-.42.3-.96.45-1.41.38-1.85-.29-3.6.39-5.4.47-.46.02-.88.15-1.3.32-2.3.95-4.5-.15-6.73-.4-.59-.06-1.04-.67-1.3-1.28,0-.14.06-.26.16-.36.29-.06.51.09.74.23.41.25.81.71,1.32.36.47-.32.26-.9.29-1.38.02-.41-.07-.8-.23-1.17-.21-.48-.11-.96.32-1.18,1.03-.54.96-1.12.22-1.84-.13-.12-.12-.33-.1-.51.08-.23.26-.26.47-.21.12.05.24.11.35.18.11.07.21.15.31.23.05.04.11.08.16.11.11.07.22.15.33.22,1.03.98,2.42,1.37,3.59,2.13.6.39,1.29.35,1.95.05.49-.23.99-.45,1.56-.37,2.85.42,5.75-.28,8.54.18,1.63.27,2.47.08,3.36-1.27.37-.56.88-1.06,1.15-1.72.55-.47,1.06-.95,1.3-1.69.46-1.46.5-1.46,1.99-.92.86-.13,1.75-.31,1.67,1.05-.3.22-.68.2-1.01.32-1.35.48-1.61.94-1.27,2.3q.4,1.6-1.3,1.38c.18,1.2,1.49.78,2.02,1.44-.17.63-.7.44-1.11.47-.9.05-1.64.38-2.21,1.09Z"/><path class="cls-42" d="M36.97,47.4c.04-.56.37-.89.86-1.06.5-.17,1-.36,1.55-.3.31.03.63.03.84-.27.77-.85,1.04-2.04,1.92-2.83.4-.36.3-.78-.01-1.19-.31-.42-.74-.83-.28-1.41-.22-.31-.44-.62-.65-.92-.38.09-.6.43-.98.38-.35-.7.18-.97.62-1.26.3-.19.88-.25.88-.57,0-2.03,1.88-2.98,2.54-4.62.51-1.24,0-2.18-.69-3.12-.07-.22-.15-.49-.02-.66.86-1.05.78-2.32.87-3.55,1.08-1.31,1.14-2.28.45-3.77-.57-1.26-1.03-2.56-1.69-3.78-.3-.56-.1-1.03.27-1.47.15-.21.31-.43.55-.54.3.22.27.55.27.86,0,.46.06.87.32,1.28.34.52.42,1.18.62,1.76.23.67.28,1.4.84,1.92.06.05.09.17.08.25-.07,1.04.42,2.03.31,3.08-.08.74.03,1.45.46,2.07.41.59.41,1.3.5,1.94.23,1.56.28,3.15-.2,4.68-.17.55-.54,1.03-.61,1.62-.01.13-.13.26-.11.38.16,1.07-.42,1.91-.91,2.75-.51.89-.7,1.96-1.45,2.72-.06.06-.08.16-.09.25-.13,1.3-1.05,2.16-1.75,3.13-.62.86-1.55,1.3-2.55,1.36-.79.05-1.48.27-2.16.6-.2.1-.41.18-.62.26Z"/><path class="cls-7" d="M44.02,16.46c0,.22-.05.43-.27.55-.5-1.83-1.43-3.48-2.13-5.23-1.23-2.25-3.01-4.09-4.79-5.86-1.69-1.68-3.87-2.71-6.42-2.5-.13-.03-.25-.08-.37-.14-1.35-.86-2.91-.75-4.4-.91-.39-.04-.81.05-1.21.07-.26,0-.51.05-.76.12-.44.1-.88.14-1.32.22-.13.01-.26.01-.38,0-.63-.13-1.26-.11-1.89.06-.28.03-.54,0-.74-.22-.11-.26-.29-.51-.27-.81.67.4,1.42.37,2.1.21.63-.15,1.24-.19,1.87-.21.58-.02,1.12-.34,1.72-.27.7.09,1.38-.22,2.13-.04.68.16,1.44,0,2.16.06.84.08,1.71.12,2.45.6.33.21.68.21,1.04.2.47-.02.89.1,1.29.34.74.43,1.5.82,2.19,1.32.42.3,1.04.08,1.33.56.27.43.57.81.94,1.14.23.21.44.47.71.62.37.22.62.47.73.91.1.41.48.62.83.85.58.38,1.09.82,1.03,1.61,0,.09,0,.21.04.26.67.64.73,1.64,1.34,2.31.8.89,1.16,1.9,1.05,3.1-.03.36,0,.72,0,1.08Z"/><path class="cls-30" d="M12.56,47.94c.17.93.88,1.31,1.66,1.6.46.17.87.29,1.38-.07.57-.4,1.25-.2,1.73.28.38.38.8.45,1.23.3.8-.26,1.72-.16,2.39-.83.18-.18.41-.08.64-.03.71.15,1.42.27,2.07-.24.35-.27.8-.28,1.17-.16,1.08.34,2.12.29,3.19-.02.17-.05.36-.01.54-.02-.1.21-.24.44-.46.46-.66.04-1.29.4-1.98.14-.28-.11-.63-.04-.94-.06-.47-.03-.9.05-1.24.42-.26.28-.58.43-.97.39-.92-.08-1.79.2-2.66.37-1.21.24-2.39.37-3.58-.02-.17-.06-.38-.11-.53-.06-.98.34-1.75-.26-2.52-.62-.76-.35-1.44-.92-1.66-1.84-.09-.09-.18-.18-.27-.27h0c-.09-.09-.18-.18-.27-.27h0c-.09-.09-.18-.18-.27-.27h0c-.09-.09-.18-.18-.27-.27h0c-.15-.18-.17-.36-.05-.56,1.21-.11,1.53.68,1.67,1.65Z"/><path class="cls-41" d="M10.93,46.31c0,.18,0,.36,0,.54-.58-.39-1.08-.88-1.74-1.16-.18-.08-.29-.31-.44-.47,0,0,0,0,0,0,1.32-.48,1.83-.23,2.17,1.09Z"/><path class="cls-27" d="M7.95,41.97c-.34-.27-.52-.64-.53-1.05-.01-.5-.25-1-.22-1.45.07-1.14-.67-1.82-1.25-2.59-.38-.5-.87-.9-1.2-1.45-.2-.34-.5-.64-.92-.76-.52-.15-.75-.52-.66-1.02.13-.68-.55-1.01-.63-1.59-.07-.53.12-1.1-.25-1.57-.17-.22-.28-.46-.31-.73-.02-.13-.05-.33-.14-.36-.72-.29-.5-.63-.13-1.06.27-.32.36-.75.18-1.15-.22-.49-.14-.94.01-1.44.1-.33.12-.74.03-1.07-.24-.83.08-1.59.24-2.36.06-.31.16-.61.48-.78.11-.06.26-.17.28-.28.15-.87.99-1.26,1.34-2,.07-.16.21-.32.36-.39.82-.4,1.08-1.12,1.24-1.96.1-.52.52-.95.45-1.53.06-.01.13-.03.19-.04,1.32,1.37,1.35,2.7-.15,3.72-1.52,1.03-2.22,2.51-2.79,4.1-.46,1.29-.06,2.49.82,3.52.18.21.4.42.69.26.27-.15.29-.44.24-.72-.05-.33-.3-.55-.44-.83-.24-.52-.23-1.09.36-1.24,1.28-.33,1.26-1.37,1.47-2.32.19-.85.32-1.76,1.56-1.58.21.28.26.64.08.9-.81,1.19-.8,2.66-1.43,3.92-.45.92-.56,1.9-.08,2.99.36.82.63,1.89.49,2.73-.4,2.33,1.11,3.67,2.3,5.2.43.55,1.17.93.88,1.82-.24.29-.47.12-.71,0-.63-.34-1.33-.01-1.1.57.52,1.33-.5,2.39-.42,3.61-.11.08-.23.08-.34,0Z"/><path class="cls-27" d="M7.95,41.97h.27c.62-.16,1.03.29,1.14.7.33,1.19,1.3,1.74,2.17,2.43.28-.14.36-.46.51-.73.58-1,1.15-1.13,2.15-.42.86.6.37,1.37-.01,1.87-.53.71-1.14,1.37-1.62,2.12,0,0,0,0,0,0-.11-.13-.26-.25-.32-.41-.24-.62-.7-1-1.31-1.22-.46-.88-1.2-1.21-2.17-1.09.01-1.02-.15-2-.73-2.87-.07-.1-.06-.25-.08-.38Z"/><path class="cls-29" d="M35.39,9.11c-.3-.79-.21-1.6-.22-2.41.18-1.42-.57-2.19-1.75-2.84-.96-.53-2.04-.2-2.96-.69-.09,0-.18,0-.27,0-.74-.47-1.57-.47-2.08.16-.75.93-1.02.28-1.25-.27-.29-.7-.67-1-1.42-.73-.25.09-.53,0-.79-.09-.12-.02-.24-.02-.37,0-.17.06-2.13.38-2.22.38-.63.08-1.27-.29-1.9,0-.27,0-.54,0-.81,0-.05,0-.09,0-.13-.01-.24-.1-.48-.29-.73-.3-.35-.01-.21.44-.41.6-.18.15-.38.27-.61.24-.22-.03-.44-.09-.65-.16-.48-.16-.78.03-.99.45.05.05.1.11.16.16.53.21,1.63.59,1.69.7.1.1.22.17.36.21,2.02-.26,4.08-.21,6.09-.6.55-.11,1.03-.12,1.43.44.78,1.11,2.18,1.36,3.2,2.16.25.2.62.18.88-.06.28-.26.15-.58.05-.88-.13-.38-.61-.67-.35-1.21.53.11.84.45,1.18.73.89.73.55,1.7.32,2.52-.21.75-1.03.41-1.55.31-2.22-.41-4.4.18-6.61.17-.79.17-1.58.32-2.25.81-1.73,1.01-3.69,1.55-5.41,2.61-.59.37-1.34.54-1.34,1.44v.15c-.43.2-.93.55-1.09.66-.38.15-.47.49-.61.82-.15.36-.66.24-.86.57-.15.24-.15.51-.15.78.38-.14.61-.59,1.08-.54.83-.16,1.94-1.15,2.16-2.04.07-.02.13-.05.19-.09.17-.11.34-.23.52-.34.09-.05.18-.1.26-.15.14-.07.28-.13.42-.19.1-.04.2-.07.29-.11.1-.04.21-.07.31-.11.47-.2.93-.45,1.39-.68.1-.06.2-.12.29-.18.19-.11.4-.19.62-.25.43-.14.87-.27,1.24-.56.25-.23.56-.4.72-.73.82-.55,1.64-1.06,2.67-1.1.22,0,.44-.08.65-.15.49-.14.98-.18,1.46,0,.45.17.86.12,1.31,0,.7-.18,1.45-.28,2.11.09.68.37,1.38.34,2.1.35.41.26.69.03.91-.28.28-.38.22-.87.34-1.3.11-.43.35-.82.83-.73.63.12.35.63.25.98-.16.57-.28,1.14-.19,1.74.17,1.13,1,.82,1.68.75.69-.07,1.13-.41.84-1.18Z"/><path class="cls-35" d="M8.22,11.03c.38.43-.43,3.25-1.02,3.51-.19.08-.35.43-.23.72.24.57.45,1.19.88,1.64.53.56,1.17.93,2,.65.24.26.14.54-.07.71-.7.54-1.02,1.35-1.56,2-.24.13-.49.24-.71.38-.2.12-.31.32-.35.55-.09.57-.22,1.14-.29,1.72-.14,1.08-.21,1.18-1.38,1.43-.24.05-.43.13-.48.39-.05.23,0,.45.19.6.03.03.08.04.12.06.44.14.45.5.46.87,0,.47-.1.91-.48,1.21-.18.14-.46.16-.64.02-.28-.22-.51-.5-.74-.77-.08-.1-.07-.29-.16-.37-1.01-.89-.66-2.06-.69-3.16-.01-.4.28-.65.53-.9.27-.26.44-.5.32-.94-.2-.75.29-1.26.89-1.46.38-.13.59-.29.79-.6.14-.22.34-.45.57-.55.4-.16.74-.34.85-.78.14-.53.18-1.07-.08-1.58-.18-.36-.28-.76-.63-1.02,0-.18,0-.36,0-.54.22-.12.26-.32.27-.54.19-.19.38-.38.56-.58.09-.1.16-.21.21-.33.17-.39-.35-.91.21-1.22.45-.25.37-.79.65-1.14Z"/><path class="cls-26" d="M12.56,47.94c-.15-.96.58-1.44,1.12-2.02.18-.19.45-.29.49-.6.04-.31.2-.64.14-.91-.09-.4-.53-.25-.81-.28-.31-.03-.45-.59-.79-.28-.18.16-.16.53-.33.71-.26.29-.32.63-.46.96-.1.22-.35.26-.59.22-.21-.03-.33-.16-.3-.37.07-.4-.13-.57-.48-.68-.3-.09-.58-.23-.86-.37-.16-.08-.33-.23-.3-.41.16-.98-.5-1.46-1.17-1.93-.02-.22,0-.47-.08-.65-.29-.58-.08-1.01.28-1.46.43-.54.41-.56-.07-1.08-.36-.39-.41-.49-.05-.72.47-.3.44-.73.52-1.15.02-.1.16-.19.27-.24.05-.02.18.04.23.09.36.38.54.93,1.08,1.14,1.67,1.39,3.49,2.63,4.88,4.34,0,.52.36.8.74,1.05.25.17.34.39.34.68,0,.34-.05.64-.46.69-.27.04-.52.11-.74.29-.28.24-.38.48-.15.79.16.23.27.45.27.73,0,.67,0,1.34-.02,2.02,0,.31-.2.47-.51.51-.56.07-1.06-.01-1.46-.47-.2-.23-.48-.4-.72-.6Z"/><path class="cls-13" d="M36.98,41.98c0,.22,0,.45,0,.67,0,.45-.15.76-.6.94-.56.23-.89.63-1.07,1.26-.29.98-1.13,1.21-2.01.59-.31-.22-.57-.3-.97-.27-1.25.07-2.51.19-3.75-.08-.29-.06-.53,0-.78.1-.82.37-1.65.4-2.48.04-.59-.26-1.22-.02-1.83-.18-.31-.08-.61.15-.87.31-1.13.7-2.13.4-3.09-.35-.25-.19-.51-.41-.8-.48-.87-.21-1.52-.73-2.13-1.35-.06-.06-.15-.09-.23-.14-.08-.1-.18-.18-.27-.27h0c-.09-.09-.18-.18-.27-.27h0c-.15-.17-.17-.36-.05-.55.27-.16.52-.06.78.03,1.08.51,2.15,1.07,3.31,1.39,1.69.33,3.39.51,5.09.77.86.35,1.69.48,2.6.06.57-.27,1.25-.22,1.87-.06.86.23,1.68.04,2.54-.05,1.86-.2,3.44-.94,4.82-2.17.07.02.14.03.21.05Z"/><path class="cls-11" d="M15.82,41.97c0,.18,0,.36,0,.55-.18-.09-.36-.18-.54-.27-.31-.01-.64.02-.82-.33-.43-.83-1.2-1.31-1.91-1.85-.82-.62-1.68-1.2-2.15-2.17.02-.37-.03-.72-.32-.99-.2-.18-.36-.41-.57-.57-.71-.52-1.15-1.22-1.52-1.99-.06-.12-.07-.3-.17-.36-.52-.31-.62-.81-.77-1.35-.15-.52-.42-.96.02-1.49.19-.23.05-.6-.09-.9-.15-.32-.46-.66-.34-1,.23-.69-.05-1.19-.44-1.69-.05-.07-.1-.17-.09-.25.13-.87.05-1.81.55-2.57.29-.43.49-.81.51-1.34.02-.63.22-1.23.61-1.75.3-.4.51-.85.46-1.38-.03-.89.46-1.5,1.1-2.01.24-.19.53-.33.53-.7.36-.54.72-1.09,1.08-1.63.29-.38.48-.97,1.14-.51-.1,1.01-.91,1.63-1.43,2.38-1.92,2.8-2.71,5.93-2.99,9.24-.19,3.39.17,6.62,2.76,9.18.25.25.45.56.65.86.92,1.56,2.43,2.49,3.79,3.59.43.34,1.07.56.95,1.31Z"/><path class="cls-8" d="M32.62,47.01c0,.14.01.27,0,.41-.05.57-.28.74-.91.61-.6-.12-1.29-.03-1.65-.72-.03-.07-.26-.09-.36-.05-.25.1-.53.2-.7.39-.61.72-1.49.79-2.3,1.04-.6.18-1.13-.23-1.7-.3-.09-.01-.2-.19-.23-.31-.11-.39-.37-.57-.73-.72-.33-.14-.46-.5-.32-.77.16-.32.38-.61.59-.9.08-.11.25-.16.36-.06.45.4,1.08.19,1.6.54.51.34,1.22.44,1.84-.17.49-.48,1.22-.28,1.81-.15.55.12,1.02.17,1.57,0,.72-.22,1.09.12,1.13.9,0,.09,0,.18,0,.27h0Z"/><path class="cls-24" d="M41.85,40.34c-.07.55.24.91.59,1.28.65.7.63.85-.04,1.55-.22.23-.45.44-.66.67-.12.13-.34.3-.32.41.16.97-.57,1.19-1.2,1.51-.18,0-.36-.01-.54,0-.62.05-1.16-.06-1.49-.67-.06-.11-.21-.16-.31-.25-.33-.33-.33-.44-.02-.77q.36-.38.86-.07c.15.09.31.18.47.26.13.06.26.05.36-.06.1-.11.12-.27.04-.37-.35-.38-.49-.82-.46-1.34.03-.39-.16-.85-.02-1.18.2-.45.81-.51,1.22-.76.48-.29.97-.44,1.52-.22Z"/><path class="cls-54" d="M43.75,30.3c.81.21.91.94,1.05,1.56.18.82-.06,1.58-.62,2.26-.36.43-.76.83-.76,1.51,0,.5-1.05,2.82-2.05,3.06-.64.16-1.07.43-1.15,1.11-.3,0-.46-.24-.68-.38-.48-.31-.96-.09-.91.46.07.9-.55,1.38-1.02,1.95-.11.13-.42.1-.63.14,0,0,0,0,0,0-.06-1.71.7-3.12,2.08-3.93.9-.53,1.69-.96,2.07-1.96.15-.39.48-.65.85-.84.66-1.49,2.66-2.49,1.64-4.58-.05-.11.05-.25.15-.35Z"/><path class="cls-11" d="M15.82,42.51c.09.09.18.18.27.27-.09-.09-.18-.18-.27-.27Z"/><path class="cls-11" d="M16.09,42.79l.27.27-.27-.27Z"/><path class="cls-27" d="M41.85,11.58c.14.12.26.26.26.45,0,.79.35,1.37,1.04,1.75.17.09.32.21.3.41-.11.96.32,1.86.3,2.81-.07.16-.09.38-.21.47-.32.26-.29.55-.08.82.53.67.62,1.58,1.18,2.23.08.1.16.24.15.36-.06.79.43,1.34.83,1.92.22.32.3.61.17.99-.17.5-.33,1.02-.4,1.55-.07.55-.39.64-.84.62-.05-.04-.09-.09-.14-.13-.14-2.11-1-3.93-2.27-5.58-.76-1.37-1.91-2.46-2.85-3.71-.83-1.1-1.8-2.25-3.26-2.69-.32-.18-.59-.42-.82-.69-3.25-3.72-7.6-3.77-12.01-3.63-.59.02-1.05.49-1.62.62-.14.04-.29.07-.43.08-.31,0-1.17.23-1.35-.06,1.07-1.53,3.34-1.82,4.9-1.87,1.95-.05,3.93-.14,5.83.55,1.08.17,2.14.4,2.87,1.34.63.41,1.23.87,1.83,1.33.09.08.18.17.26.26.15.18.32.36.52.5,2.2.83,3.75,2.36,4.86,4.41.29.52.82.91,1.48.54.63-.34.65-.94.47-1.54-.28-.96-.96-1.74-1.24-2.7-.08-.5-.15-1,.27-1.41Z"/><path class="cls-49" d="M36.16,13.74c.77-.12,1.35.23,1.71.84.3.5.69.82,1.2,1.04.36.16.54.43.65.81.18.68.6,1.22,1.2,1.58.37.23.6.48.72.92.12.43.29.87.76,1.07,1.02,1.61,1.07,3.56,1.8,5.27.1.24.16.51.37.7h0c-.02.46.09.88.2,1.32.14.56.18,1.13-.43,1.56-.46.32-.61.88-.58,1.45.08.25.12.53.25.75.4.69.33,1.36.03,2.05-.09.22-.2.38-.43.46-.71.23-.99.66-.72,1.42.1.29-.06.37-.76.48-.3-.79-.03-1.51.33-2.19.58-1.09.81-2.18.32-3.37-.14-.34-.26-.72-.17-1.06.53-1.96-.05-3.87-.38-5.74-.35-1.95-1.07-3.9-2.85-5.15-1.06-1.37-2.36-2.54-3.28-4.03.02-.06.04-.12.07-.18Z"/><path class="cls-24" d="M34.8,6.69c.21-1.34-.4-2.08-1.64-2.52-.54-.19-1.02-.51-1.64-.49-.41.02-.79-.18-1.05-.52.68,0,1.36.02,2.03,0,.67-.02,1.23.2,1.72.65.35.32.62.8,1.25.6.11-.03.29.18.44.27,1.37.79,2.21,2.1,3.17,3.28.4.49.65,1.09,1.43,1.03.07,0,.18.18.22.29.04.12.04.27.03.4-.01.39.09.69.45.91.35.22.63.52.64.98,0,.54,0,1.09,0,1.63-1.21-.25-1.97-1.04-2.46-2.11-.2-.44-.22-1.03-.82-1.14-.63-.12-.66.49-.87.85-.25.41-.62.53-1.04.4-.56-.17-.94-.57-1.02-1.15-.16-1.15-.56-2.24-.83-3.36Z"/><path class="cls-24" d="M30.19,3.16c-.4,0-.81-.02-1.21.03-.62.07-.83.33-.96,1.05-.02.13-.02.26-.24.36-.7-.56-1.43-1.12-1.53-2.26-.75.43-1.39.18-2.03,0-.07-.06-.09-.12-.07-.18.02-.06.05-.09.07-.09.67.03,1.32-.13,1.97-.15.59-.02,1.2.27,1.8.4.21.05.44.03.66.01.69-.06,1.21.18,1.53.82Z"/><path class="cls-28" d="M20.43,9.13c-.62.49-1.15,1.14-2.07.97-.43.23-.82.54-1.31.66-.63.15-.94.86-1.58.96-.6.1-1.06.41-1.49.79-.13.12-.22.27-.33.41-.18,0-.35.01-.53,0-.53-.05-.93.15-1.24.58-.12.18-.27.34-.4.51-.67-1.27-.37-2.26.86-2.83.68-.31,1.13-.88,1.08-1.56-.05-.63-.63-1.05-1.28-1.24-.59-.17-1.26-.14-1.75-.62,0-.09,0-.18,0-.27,1.25-.64,2.22-1.66,3.37-2.43.46-.31.91-.54,1.46-.65.84-.17,1.53-.21,1.66.92.04.35.38.61.49.96.25.79.74.79,1.36.46,1.01-.55,2.08-.86,3.23-.82,1.34.04,1.53.39.95,1.67-.06.11-.13.22-.22.32-.62.65-1.74.38-2.26,1.21Z"/><path class="cls-18" d="M22.6,7.78c0-.32.03-.6.3-.85.35-.33-.03-.71-.39-.7-1.11.02-2.22.08-3.23.64-.35.2-.72.38-1.09.53-.61.25-.88.09-1-.58-.05-.27-.03-.59-.28-.73-.58-.34-.6-.84-.43-1.39-1.35-.07-1.99.13-2.81.87-.13.12-.27.24-.42.31-.66.3-1.25.7-1.75,1.23-.3.32-.66.44-1.09.41.4-.62,1.08-.9,1.62-1.35.21-.17.45-.3.52-.58.08-.37.31-.5.66-.53.49-.05.77-.4,1-.8,1.17-.23,2.35-.97,3.52,0h0c1.27.61,2.51,1.38,3.98.56.48-.27,1-.42,1.5-.63.84-.36,1.59-.22,2.25.4.13.12.27.24.4.37.55.52,1.63.65,1.42,1.73-.12.6-2.17,1.44-2.94,1.17-.6-.22-1.16.09-1.73-.07Z"/><path class="cls-46" d="M10.39,7.78c.77-.09,1.47.36,2.24.29.18-.02.35.1.41.28.17.49.64.73.94,1.2-.2.39-.44.81-.63,1.24-.24.56-.6.81-1.23.8-.58,0-.71.17-.61.76.07.38.03.7-.13,1.02-.12.23.01.43.08.64-.09.09-.18.18-.27.27-.36.16-.6-.02-.81-.27,0-.13,0-.27,0-.4q0-1.44-1.24-2.24c-.08-.77.6-1.27.69-1.97.34-.49.16-1.15.54-1.63h0Z"/><path class="cls-28" d="M10.39,14.02c.31-.01.55.16.81.27-.21.47-.7.65-1.05.98-.22.21-.67.06-.78-.2-.13-.3,0-.63.32-.74.25-.08.53-.05.7-.31Z"/><path class="cls-18" d="M10.39,7.78c.02.61,0,1.2-.54,1.63,0-.26,0-.53,0-.79,0-.39.18-.67.54-.83Z"/><path class="cls-22" d="M39.41,17.55c.54.39.91.99,1.57,1.24.11.04.24.2.24.31,0,.71.63,1.19.67,1.89.02.25.14.55.3.74.45.53.52,1.13.47,1.78-.05.64.06,1.26.29,1.85.31.78.31,1.56.09,2.38-.2.74-.26,1.53.15,2.24.59,1.04.25,2.06-.16,2.99-.29.66-.68,1.25-.7,2.01,0,.17-.14.33-.21.5-.41.22-.7.52-.83.99-.08.3-.21.6-.39.85-.35.47-.72.93-1.41.88-.46-.03-.72.23-.95.61-.44.72-1.02,1.34-1.15,2.23-.05.33-.45.56-.43.95-.08.05-.19.08-.22.15-.45,1.03-1.54,1.28-2.32,1.9-.13.1-.35.13-.52.11-.74-.08-1.44.17-2.12.36-.77.21-1.48.25-2.26.04-.74-.2-1.54-.27-2.24.14-.83.48-1.55.26-2.25-.25,1.49-.61,3.05-.81,4.64-.86.49-.01.97.05,1.42-.18,1.66-.19,3.25-.51,4.52-1.75.6-.58,1.04-1.21,1.09-2.06.24-.74.87-1.21,1.25-1.86.74-.82,1.39-1.69,2.44-2.26,1.02-.56,1.38-1.85,1.42-2.93.08-2.08.11-4.16-.02-6.25-.07-1.15-.42-2.31-.11-3.49.1-.38-.26-.64-.49-.92-.57-.75-.68-1.74-1.25-2.49-.25-.58-.96-1.04-.53-1.82Z"/><path class="cls-38" d="M31.27,43.6c-.44.32-.83.54-1.46.32-.83-.29-1.69.11-2.51.28-.76.17-1.51.2-2.27.21-1.33.04-2.63-.23-3.93-.45-.3-.05-.61-.07-.92-.09-.23-.02-.43-.08-.58-.27.17-.32.55-.42.76-.7.13-.57-1.15-.28-.67-1.07.52-.28,1.09-.29,1.57,0,2.52,1.51,4.97.66,7.44-.12,2.44-.77,4.49-2.25,6.56-3.69.28-.1.56-.11.82.04.32.42-.1.59-.29.85-2.16,1.9-4.66,3.18-7.37,4.03q.63.31,1.49.3c.18-.03.37-.07.55-.11.13-.03.25-.03.38-.03.25.07.52.12.42.49Z"/><path class="cls-23" d="M15.82,41.97c-.4-.74-1.21-1.02-1.8-1.56-.59-.53-1.27-.97-1.89-1.46-.53-.43-.81-1.05-1.2-1.59.35-.84,1.01-1.06,1.76-.65.77.42,1.57.82,1.95,1.75.32.77.96,1.27,1.82,1.44.69.14,1.29.4,1.31,1.26-.69.08-1.19.39-1.41,1.08l-.55-.26Z"/><path class="cls-19" d="M16.36,42.23c0-.18,0-.36,0-.54.02-1.07.02-1.07.96-.62.12.06.26.06.39.08.82-.16,1.38.28,1.9.81.26.4.77.18,1.09.42.14.1.33.2.38.34.08.22-.15.27-.31.35-.39.18-.65.64-1.17.53-1.18-.23-2.2-.83-3.25-1.38Z"/><path class="cls-55" d="M13.64,13.73c.11-.08.22-.15.34-.2.57-.15,1.16-.12,1.71-.39.8-.39,1.5-.14,1.79.64.28.76-.14,1.61-.85,1.75-1.38.27-1.7,1.28-2.11,2.34-.47,1.21-1.31,2.2-2.41,2.82-1.57.87-1.79,1.11-1.53,2.79-.01.13-.06.25-.13.36-.37.37-.93.21-1.34.55-.84.71-1.15,1.54-.78,2.59-.16.31-.37.56-.71.67-.36-.11-.39-.33-.2-.62-.09-2.49.71-4.79,1.53-7.09.07-.21.21-.4.33-.59.4-.65.78-1.32,1.21-1.95.49-.7,1.03-1.36,1.54-2.04.6-.42,1.54-1.63,1.62-1.65Z"/><path class="cls-3" d="M10.38,23.79c0-.09,0-.18,0-.27.36-.11.55.11.72.37.26.64.16,1.3.17,1.96,0,.67-.33,1.21-.66,1.74-.06.12-.19.26-.15.36.54,1.69.73,3.45,1.12,5.17.06.11.1.23.13.35.19.77-.17,1.73.78,2.24.1.07.2.14.29.22,1.14.71,1.9,1.86,3.03,2.59,2.09,1.1,4.13,2.29,6.38,3.08,1.97.69,3.85.78,5.74-.14.77-.38,1.57-.66,2.34-1.03,1.23-.46,2.32-1.14,3.39-1.9.46-.33.91-.76,1.56-.69.12.08.16.19.12.32-.77.75-1.56,1.48-2.55,1.95-.61.29-1.17.67-1.76,1.01-.46.27-.9.5-1.46.62-.72.15-1.43.49-2.14.74-.9.32-1.85.37-2.78.53-1,.17-2.03-.03-2.87-.56-.71-.45-1.41-.53-2.18-.5-.71-.1-1.27-.54-1.9-.81-.35-.51-.67-.89-1.44-.94-.97-.06-1.68-.82-2.01-1.74-.19-.52-.49-.82-.95-1.02-.08-.04-.17-.07-.24-.12-.29-.2-.58-.4-.87-.6-.32.41-.94.21-1.26.62-.54-.7-1.22-1.29-1.56-2.16-.2-.51-.96-.68-1.04-1.35-.85-.78-.76-1.87-.91-2.87-.07-.44-.01-.9-.01-1.35,0-.58.03-1.17-.2-1.73-.13-.3-.1-.63.2-.85.01.22.05.43.27.55.49.47.33,1.09.36,1.66.07,1.27.33,2.49.78,3.68.14.36.27.87.8.73.48-.13.23-.59.23-.93-.01-1.01-.38-1.93-.81-2.82-.02-.85-.3-1.65-.46-2.48,0-.12.03-.24.08-.36.26-.32.76-.29,1-.64.07-.09.15-.18.22-.27.54-.54.48-1.19.33-1.85-.02-.2.03-.37.17-.51Z"/><path class="cls-25" d="M34.8,6.69c.23.04.47.11.5.37.07.53.09,1.04.46,1.51.19.23.14.69.12,1.05-.04.64.34,1.01.79,1.31.29.19.76.08.82-.38.01-.09.01-.18.02-.27.03-.3-.05-.69.35-.79.43-.12.89-.18,1.27.19.29.29.59.55.56,1.02-.04.74.38,1.21,1.03,1.39.44.12.57.37.63.75.05.27.27.33.5.37.59.59.88,1.37,1.22,2.08.28.58.46,1.37-.16,2.01-.6.61-1.26.69-1.88.1-.36-.34-.66-.69-.86-1.18-.23-.56-.53-1.14-1.14-1.46-.18-.1-.32-.31-.44-.5-.41-.63-.89-1.11-1.74-1.08-.55.02-.76-.6-1.23-.79-.16-.15-.11-.4-.27-.54h0c-.44-.72-1.09-1.16-1.9-1.36-.28-.02-.57-.09-.69-.35-.29-.65-.81-.78-1.44-.74-.24.02-.44-.07-.59-.27.47-.04.76-.26.8-.75.02-.18,0-.36.02-.54.02-.35-.11-.76.19-1.03.33-.31.76-.49,1.2-.61.3-.08.66.16.73.47.08.36.15.76-.09,1.05-.46.55-.39,1.18-.39,1.8,0,.49.14.68.65.52.17-.05.35-.06.53-.09.29-.05.68.13.83-.25.12-.29-.23-.46-.29-.72-.06-.26-.09-.53-.1-.8-.01-.5,0-.99,0-1.49Z"/><path class="cls-50" d="M18.26,11.03c.39-.29.91-.36,1.37-.53.43-.52,1.11-.29,1.62-.54.09,0,.18,0,.27,0,.17-.15.36-.14.56-.06.31,1.38,1.9,2.39,3.4,1.94,1.82-.55,3.31.32,4.89.83.26.09.61.3.27.7-.19.12-.4.19-.63.22-2.76-.36-5.59.05-8.32-.68-.39-.16-.44-.62-.81-1.03-.16,1.02-.33,1.86-1.57,1.47-1.5-.47-1.82-.83-1.6-2.03h0c.15-.15.36-.14.54-.27Z"/><path class="cls-47" d="M22.05,9.96c-.18,0-.36,0-.54-.01q1.45-.81,2.87-.81c.54,0,1.08,0,1.62,0,1.35-.01,2.66.26,3.98.5.61.11,1.15.39,1.76.5.63.11,1.18.61,1.77.94.12.07.24.14.33.24.78.81,1.66,1.52,2.32,2.43,0,0,0,.03,0,.03-.51.34-.84-.07-1.2-.31-.75-.51-1.47-1.06-2.29-1.44-3.15-1.62-6.47-2.26-10-1.82-.23,0-.44-.07-.61-.24Z"/><path class="cls-42" d="M44.56,25.96c-.13-.04-.32-.04-.37-.12-.44-.8-1.03-1.55-.99-2.53.02-.54-.1-1.04-.31-1.54-.24-.56-.34-1.18-.51-1.78.67.46.79,1.24,1.11,1.9.18.36.31.74.76.86.12.03.21.15.21.3-.03.97.18,1.93.1,2.9Z"/><path class="cls-24" d="M33.44,10.49s.09,0,.13,0q1.35.03,1.77,1.36c-.74-.3-1.3-.86-1.9-1.36Z"/><path class="cls-24" d="M35.34,11.85c.22.12.27.32.27.54-.22-.12-.27-.32-.27-.54Z"/><path class="cls-32" d="M22.05,9.96c.18,0,.36,0,.54,0,.51.74,1.24,1.03,2.1.99,2.92-.12,5.59.76,8.21,2.03.17-.39-.26-.78,0-1.14.94.3,1.66.97,2.44,1.52.25.18.47.39.8.41.1.14.19.31.31.42,1.13,1,2.01,2.2,2.95,3.36.03.66.51,1.1.81,1.63-.57.72-.22,1.65-.55,2.43-.3.12-.49-.04-.67-.25-.71-2.64-2.53-4.51-4.4-6.35-.64-.63-1.51-.76-2.31-1.07-.54-.21-1.16-.25-1.56-.74-.57-.47-1.32-.51-1.97-.78-.16-.06-.39,0-.52-.1-.92-.67-1.87-.41-2.81-.11-.39.12-.78.19-1.19.16-.24-.01-.44-.1-.53-.34-.19-.5-.55-.48-.99-.39-.5.1-.5.08-.68-.45-.06-.17-.09-.36-.21-.48-.38-.4.12-.52.22-.76Z"/><path class="cls-40" d="M22.6,7.78c.08-.04.17-.07.23-.13.49-.45,1.01-.57,1.56-.11.38.31.77.29,1.07-.07.36-.42.84-.47,1.31-.6.18-.05.29-.2.33-.39.04-.21-.07-.38-.22-.45-.74-.36-1.32-.92-1.92-1.45-.38-.34-.88-.48-1.24-.26-.62.38-1.37.39-1.94.85-.21.17-.46.29-.71.37-.47.16-.93.32-1.33-.19-.28-.35-.7-.29-1.12-.19-.8.19-.8.17-.89-.64,0-.09,0-.18,0-.27.4-.02.81.05,1.2-.09.34-.12.38-.71.81-.59.28.08.5.36.76.54.16.11.35.08.51-.02.6-.41,1.28-.39,1.95-.38.36,0,.72-.01,1.06-.16.39-.16.8-.11,1.2-.11.37,0,.61.16.62.55.01.46.15.76.68.82.5.06.9.37,1.29.69.41.33.89.6,1.35.86.07.04.25-.05.35-.12.05-.03.06-.17.04-.24-.08-.26-.21-.5-.43-.67-.26-.2-.4-.48-.48-.79-.07-.29.04-.53.29-.69.21-.13.45-.16.63-.01.6.47,1.19.95,1.77,1.45.18.15.27.4.17.62-.3.69-.18,1.42-.22,2.13-.02.36-.17.5-.51.42-.92-.22-1.88-.06-2.79-.37-.32-.11-.74-.1-1.07,0-1.42.43-2.86.17-4.29.24-.17-.18-.15-.36,0-.54Z"/><path class="cls-48" d="M17.71,11.3c0,.36.04.71.26,1.01.08.1.17.26.28.27.53.06,1.01.23,1.45.55.26.18.66-.07.69-.39.04-.44.04-.89.08-1.33.01-.1.13-.23.24-.28.18-.1.35-.02.47.13.34.41.35.9.34,1.39-.07.23-.2.43-.31.64-1.98.77-3,3.02-5.25,3.39-.3.05-.36.38-.5.6-.5.65-.56,1.48-.93,2.21-.73,1.43-2.08,2.16-3.09,3.26-.31.23-.29.6-.39.91-.04.04-.08.09-.12.13-.18-.09-.36-.18-.54-.27-.14-.28-.29-.56-.41-.85-.05-.11-.08-.31-.02-.38.42-.48.42-1.2.95-1.61.22-.17.41-.33.72-.21.41.15.67-.08.89-.41.2-.3.43-.58.67-.84.49-.52,1.04-.97,1.09-1.8.03-.42.38-.81.56-1.22.24-.55.59-.89,1.24-.82.47.05.76-.15.88-.63.04-.17.19-.3.28-.46.04-.07.06-.17.06-.25-.04-.45-.9-1-1.23-.71-.68.58-1.43.4-2.18.41-.13-.3.14-.37.28-.52h0c.26-.19.56-.34.82-.54h0c.14-.16.4-.11.54-.27h0c.09-.09,1.54-.82,2.16-1.09Z"/><path class="cls-18" d="M22.6,7.78c0,.18,0,.36,0,.54-.03.03-.05.09-.09.1-.73.15-1.4.45-2.08.72.02-.39.18-.72.58-.77.59-.06,1.08-.35,1.59-.59Z"/><path class="cls-32" d="M41.31,21.62c.68.37,1,.89.66,1.67-.15.34-.19.72-.06,1.06.27.7.19,1.42.21,2.13.02.85-.04,1.69.21,2.54.16.54.22,1.2-.08,1.72-.3.52-.53.92.02,1.41.1.09.14.39.07.5-.53.89-.68,1.94-1.29,2.79-.23.31-.45.55-.85.57-.51.03-.81.35-1.04.76-.27.48-.64.86-1.11,1.15-.72-1.37.49-1.92,1.19-2.61.48-.47.93-.88,1.26-1.5.73-1.36.49-2.55-.3-3.75-.11-2.03.19-4.34.09-6.38.96-.51.75-1.25,1-2.06Z"/><path class="cls-57" d="M40.49,30.3c.11.14.21.3.34.4.89.7.71,1.52.3,2.39-.13.28-.3.57-.34.87-.1.76-.56,1.17-1.19,1.49-.65.34-1.05.95-1.44,1.53-.15.23-.07.61-.1.92,0,.34-.2.57-.42.81-.24.26-.46.54-.68.81-.14.19-.27.41-.57.32-.38-.3-.76-.59-.78-1.14.18-.18.36-.36.54-.54-.21-.51.07-.9.38-1.19,1.43-1.33,2.16-3.03,2.72-4.84.08-.26.23-.49.37-.71.26-.33.33-.79.69-1.07.06-.02.11-.04.17-.06Z"/><path class="cls-39" d="M36.43,39.8c.18-.09.36-.18.54-.27.12.82-.17,1.43-.77,2.03-1.38,1.37-2.97,2.12-4.92,2.04-.12-.22-.32-.27-.55-.27-.08-.36.19-.5.43-.58,1.69-.57,3.18-1.48,4.53-2.65.2-.18.46-.29.74-.3Z"/><path class="cls-14" d="M41.31,21.62c.03.48.32.91.28,1.42-.05.55-.11.66-.7.74-.13.02-.26,0-.4,0-.05-.03-.1-.06-.15-.09-.12-.12-.21-.27-.29-.43-.05-.1-.09-.21-.12-.32-.1-.39-.28-.75-.28-1.16,0-.06.01-.11.02-.17-.31-1.19-.3-1.34.03-2.12.1-.23.29-.3.51-.33.62.7.68,1.65,1.09,2.44Z"/><path class="cls-45" d="M36.43,39.8c-1.29,1.31-2.75,2.37-4.5,3-.41.15-1.38.53-1.47.53-.08.1-.19.17-.28.27-.4,0-.81-.03-1.21,0-.55.05-.95-.17-1.24-.63.03-.28.28-.35.47-.38,1.91-.31,3.48-1.37,5.13-2.26.83-.45,1.57-1.03,2.29-1.63.29.35.78.55.81,1.09Z"/><path class="cls-51" d="M40.22,23.25c.17.14.1.4.27.54,0,0,0,0,0,0,.01.62,0,1.24.19,1.86.14.45.17,1.01.04,1.46-.3,1.06-.2,2.13-.23,3.2h0c-.53.19-.3.75-.54,1.08-.21.49-.4.98-.58,1.48-.52,1.41-1.01,2.87-2.21,3.9-.45.39-.77.87-1,1.4-.27,0-.54,0-.81,0,0-.09,0-.18,0-.28,0-.07,0-.14,0-.21.02-.14.07-.28.14-.4.11-.14-.07,0,.07-.11,2.46-1.97,3.09-4.96,3.84-7.71.49-1.78.87-3.88-.18-5.8-.31-.57-.49-1.27-.32-1.97.05-.14.13-.25.25-.34.18.09.36.19.54.28,0,0,0,0,0,0,.19.45.54,1.54.55,1.63Z"/><path class="cls-39" d="M30.18,43.59c.09-.09.19-.18.28-.27-.09.09-.19.18-.28.27Z"/><path class="cls-21" d="M9.31,29.76c0,.3.25.45.38.68.25.42.44.88.42,1.39-.01.5.06.97.21,1.45.15.48-.02.77-.54.87-.13.02-.25.1-.38.12-.19.04-.37-.04-.46-.2-.17-.31-.33-.63-.46-.96-.7-1.78-.9-3.63-.81-5.53.01-.35.19-.54.55-.55.04.05.09.09.13.13.03.96.84,1.64.95,2.58Z"/><path class="cls-21" d="M10.38,23.79c0,.18,0,.36.01.54-.75.58-.04,1.53-.54,2.17h0c-.27.37-.82.17-1.08.54h0c-.18.16-.36.16-.54,0h0c-.02-.23-.16-.4-.29-.59-.4-.6-.33-1.08.18-1.52.13-.12.38-.18.42-.32.29-1.04,1.12-.83,1.85-.83Z"/><path class="cls-58" d="M39.14,21.62c.02.86.2,1.67.63,2.44.37.67.52,1.37.26,2.19-.2.62-.07,1.34-.07,2.02,0,.68-.14,1.31-.34,1.97-.34,1.17-1.04,2.18-1.32,3.36-.04.17-.2.34-.19.5.07.94-.57,1.46-1.13,2.04-.47.48-1.03.89-1.36,1.49-.1.08-.19.17-.27.27,0,0,0,0,0,0-.8.5-1.65.92-2.38,1.51-.76.61-1.62.92-2.5,1.21-.08-.1-.12-.22-.12-.36,1.34-1.24,3.08-1.93,4.38-3.24.91-.91,2-1.65,2.58-2.86.33-1.07.7-2.13,1.11-3.18,1.36-3.54.79-6.96-.94-10.24-.29-.54-.7-.91-1.33-1.04-1.52-.33-1.94-.78-2.2-2.24-.3-1.71-.35-1.76-2.02-1.85-.32-.02-.64-.04-.9-.23-1.5-1.15-3.18-.99-4.96-.96-1.76.03-3.55-.47-5.1-1.48.12-.22.33-.27.55-.28.62.02,1.25-.03,1.86.21.28.11.62.07.93.07.85,0,1.7,0,2.55,0,.54,0,1.06.04,1.59.17.55.14,1.15.08,1.73.11.44.35,1.01.43,1.5.52,2.17.38,3.48,1.93,4.81,3.42.52.59.89,1.3,1.55,1.81.86.65.65,1.81,1.09,2.67Z"/><path class="cls-12" d="M11.47,33.29c-.3-.15-.51-.37-.52-.72-.02-.36-.02-.71-.01-1.07,0-.54-.06-1.04-.29-1.55-.29-.64-.5-1.32-.69-2-.08-.3.22-.32.43-.37.07.02.14.03.2.05.91.22,1.29.81,1.25,1.72.02.66,0,1.32,0,1.98-.04.6.08,1.22-.21,1.79-.05.05-.11.11-.16.16Z"/><path class="cls-55" d="M9.85,26.5c-.03-.38.01-.74-.27-1.1-.46-.6-.33-.77.5-.87.11-.01.21-.13.31-.2.49,1.05.41,1.38-.54,2.17Z"/><path class="cls-12" d="M10.39,27.59c.02-.23.07-.45.23-.62.27-.28.33-.63.31-1,.33-.69,0-1.43.2-2.13.15-.1.28-.09.42.03.5.97.36,1.99.16,2.98-.12.63-.48,1.2-1.32.76h0Z"/><path class="cls-55" d="M8.22,27.04c.18,0,.36,0,.54,0,.18.91.69,1.74.54,2.71-.36-.36-.39-.96-.93-1.23-.26-.13-.33-.49-.22-.83.07-.2.05-.44.07-.65Z"/><path class="cls-36" d="M12.28,35.43c.6.03,1.24,1.17,1.83,1.25.13.02.24.24.34.38.37.54.73,1.1,1.1,1.64-.34,0-.6-.16-.77-.46-.33-.6-.73-1.09-1.4-1.37-.35-.15-.92-1.07-1.09-1.45Z"/><path class="cls-55" d="M8.76,27.04c.03-.36.22-.54.57-.53.17,0,.34,0,.51,0-.03.36-.22.54-.57.53-.17,0-.34,0-.51,0Z"/><path class="cls-48" d="M11.2,23.79c0,.49,0,.97,0,1.46,0,.27-.03.53-.27.71,0-.72,0-1.45,0-2.17,0,0,0,0,0,0,.09-.09.18-.09.27,0Z"/><path class="cls-15" d="M39.14,21.62c-.3-.15-.52-.38-.52-.73-.01-1-.45-1.72-1.37-2.13-.3-.14-.49-.35-.58-.69-.11-.39-.28-.78-.61-1.04-.67-.53-1.18-1.23-1.81-1.77-.65-.55-1.42-1.05-2.35-1.17-.61-.08-1.19-.31-1.63-.78-.03-.03-.04-.08-.07-.12.18,0,.37,0,.55,0,1.21.16,2.32.65,3.46,1.07.16.06.33.17.45.29.91.93,1.94,1.75,2.63,2.88.21.34.43.69.72.97.82.81,1.11,1.82,1.15,2.93,0,.09,0,.19,0,.28Z"/><path class="cls-33" d="M32.91,11.83c.25.53.5,1.05.79,1.66-.42.12-.74,0-1.03-.17-1.24-.75-2.6-1.14-3.99-1.55-1.38-.41-2.74-.47-4.13-.47-.37,0-.71-.09-1.05-.2-.83-.25-.83-.23-.91-1.16.33-.16.66-.26,1.03-.27,1.89-.06,3.78.07,5.6.57,1.29.35,2.58.76,3.68,1.58Z"/><path class="cls-34" d="M20.97,12.93c.61-.07,1.15.13,1.67.43.48.27.98.43,1.55.39.45-.03.9-.04,1.24.37.16.19.41.14.63.06.25-.09.52-.15.77-.25.49-.22.95-.24,1.39.14.27.23.57.24.88.1.53-.25.94-.08,1.31.34.18.2.43.32.63.51.33.32.67.43,1.1.22.29-.14.63-.19.91,0,.38.24.74.51,1.07.8.11.1.14.34.13.51-.07.84.15,1.59.56,2.31.28.48.25.5.93.42.42-.05,1.37.34,1.62.68.66.91,1.24,1.87,1.45,3,.1.53.08,1.08.48,1.52.08.09.12.26.1.38-.1.93.33,1.85.04,2.8-.1.33-.03.72-.02,1.08.01.46-.06.89-.26,1.31-.33.68-.48,1.43-.88,2.1-.29.48-.35,1.1-.48,1.67-.05.22-.08.44-.28.58-.34-.29-.31-.68-.31-1.07,0-.12.03-.24.06-.36.08-.27.2-.54.28-.81.03-.11.08-.21.12-.31.07-.15.14-.3.21-.45.04-.11.09-.21.14-.31.25-.47.27-1.01.44-1.5.18-2.3-.06-4.56-.62-6.78-.12-.5-.34-.67-.97-.38-1.23.57-2.7.74-1.43,2.72.38.59-.37,1.46-1.01,1.89-.69.46-.98,1.01-.9,1.8.1.93-.3,1.76-.58,2.61-.1.31-.26.71-.57.68-1.5-.12-2.32,1.28-3.63,1.57-.37.08-.62.31-.8.66-.87,1.7-1.22,1.71-2.27.09.23-1.81.17-1.89-1.66-2.21-1.03-.18-1.29-.74-.69-1.58.21-.29.48-.54.39-.94-.15-.1-.25.02-.36.07-.52.27-1.08.44-1.41-.2-.33-.64.06-1.37.59-1.44,1.26-.17,2.21-1.59,3.71-.81.66.34,1.12-.23,1.28-.84.17-.66-.24-1.01-.87-1.11-.9-.15-1.71-.27-2.5.51-.74.73-1.51.39-2.05-.55-.79-1.35-.74-2.7-.35-4.14.19-.71.55-1.03,1.24-.91.72.12.98.58.77,1.29-.06.21-.13.43.1.71.68-.11,1.32-.49,1.83-.94.85-.73,1.67-1.06,2.35-.53-.84-.2-.97-.94-.5-1.93.1-.2.17-.42.22-.64.09-.38.46-.81.09-1.14-.39-.34-.81-.1-1.22.17-.58.38-2.13-.29-2.66-1.16-.26-.43-.53-.83-.87-1.2-.92-.97-1.11-.97-1.95.09-.27.34-.57.57-.99.65-.31.06-.73.05-.89.29-.94,1.44-2.4,1.34-3.83,1.38-.06-.02-.12-.04-.18-.06,0-.14-.01-.28.02-.41.17-.55.38-.76.86-.59.55.2.9,0,1.16-.38.46-.67,1.26-.99,1.71-1.67.27-.41,1.92-.82,1.95-1.29Z"/><path class="cls-12" d="M11.2,22.7c.37-.63.96-1.05,1.44-1.57.12-.13.27-.21.47-.2.33.01.49-.22.51-.5.02-.49.24-.84.59-1.15.35-.31.56-.68.53-1.17-.02-.4.17-.68.53-.85,0,0,0,0,0,0,.15.13.17.3.13.49.03.13-.32.21-.04.38.06.11.09.23.1.36.45,2.13-.45,3.28-2.55,3.64-.55.09-.88.79-1.55.68-.06-.04-.11-.08-.17-.12Z"/><path class="cls-12" d="M11.2,23.79c-.09,0-.18,0-.27,0-.04-.17-.05-.34-.12-.5-.18-.41.01-.55.39-.59h0c.28.36.32.72,0,1.09h0Z"/><path class="cls-3" d="M35.34,37.9c.09-.09.18-.18.27-.27-.09.09-.18.18-.27.27Z"/><path class="cls-31" d="M37.51,33.02c0,.45,0,.91,0,1.36,0,.4-.24.66-.51.91-.85.79-1.68,1.61-2.57,2.37-.96.83-2.01,1.49-3.06,2.18-.3.2-.72.16-.93.5-1.15.26-2.14.89-3.21,1.35-.47.21-.94.31-1.44.28-1.68-.09-3.27-.5-4.74-1.32-.3-.16-.42-.46-.63-.69-.3-.32-.63-.52-1.07-.31-.31.15-.6.12-.91-.03-.73-.34-1.47-.66-2.15-1.1-.72-.46-1.24-1.02-1.4-1.88-.04-.22-.12-.43-.18-.65.61-.34.77.2,1.01.54.27.39.4.92,1.1.98.14-1.72,1.47-2.71,2.52-3.8,1.08-1.11,1.98.5,3.05.56.53.03.72.73.77,1.29.02.19-.13.32-.23.48-.82,1.36-.78,1.8.3,3.07.48.62,1.13,1.04,1.81,1.39.86.45,1.81.71,2.7.13,2.47-1.62,5.23-2.79,7.41-4.86.93-.64,1.81-1.31,1.91-2.58.01-.18.22-.26.42-.2Z"/><path class="cls-9" d="M37.51,33.02c-.25.17-.3.44-.27.7.09.77-.36,1.23-.91,1.63-.32.23-.66.43-.99.65-.32-.45-.05-.81.25-1.06.83-.71,1.09-1.62,1.06-2.66-.02-.79.58-1.4.76-2.49-.84.92-1.57,1.33-2.59,1-.47-.15-.66.28-.58.79.22,1.43.2,1.44-1.34,1.68-1.25.2-1.78,1.09-1.37,2.3.34,1.03-.03,1.75-1.11,1.8-1.02.04-1.95.2-2.84.69-.2.11-.5.2-.65.08-.94-.75-1.83.18-2.76.03-.7-.11-.61.79-1.02,1.1-.69-.21-.94-.76-1.07-1.39-.04-.17,0-.36,0-.54q0-.99.85-1.57s.04-.08.07-.13c-.14-.32-.28-.64-.43-.96-.06-.13-.2-.25-.31-.19-.53.29-.84-.11-1.21-.34-.23-.14-.44-.31-.68-.44-.35-.2-.78-.08-.89.3-.15.48-.22.97-.88.99-.19,0-.27.22-.32.39-.09.32-.31.54-.54.76-.34.33-.62.66-.33,1.17.06.1.02.27,0,.39-.08.35-.61.57-.86.32-.41-.39-.97-.66-1.06-1.34-.05-.35-.27-.68-.72-.69-.09,0-.18,0-.27,0-.06-.14-.07-.29-.03-.44.95-1.6.4-3.33.42-5,.02-1.65,3.18-2.87,3.68-3.57.88.58.86,1.58,1.1,2.44.18.63.2.97,1.01.59.96-.44,1.92.26,2.12,1.53.09.58.25.75.82.74,1.72-.02,1.71,0,1.98,1.64.03.18.17.31.29.44.31.32.6.66.93.97.19.18.61.03.65-.22.04-.22.03-.45.06-.67.1-.72.41-1.11,1.1-1.13.6-.02,1.02-.18,1.35-.69.34-.52.86-.77,1.51-.7.22.02.45,0,.68-.02.25-.02.44-.15.47-.4.04-.46.12-.88.43-1.26.18-.22.15-.51.15-.78,0-.5.02-.99,0-1.49-.02-.5.11-.8.67-.98.78-.25,1.13-.99,1.4-1.71.04-.11,0-.27-.07-.38-.09-.15-.23-.27-.35-.41-.73-.84-.73-.96.09-1.76.32-.32.62-.72,1.12-.21.09.09.25.05.36-.06.13-.13.28-.24.39-.37.64-.74.63-.74,1.18.09.21.31.38.61.36.99-.02.55-.01,1.09.41,1.52.06.06.1.18.08.25-.17.62-.26,1.22.21,1.76.02.03.02.11,0,.13-.65.57-.14,1.19-.03,1.75.1.53-.04.87-.39,1.19-.22.53-.25,1.12-.54,1.63h0c-.17.14-.12.39-.27.54h0c-.26.22-.03.59-.27.81,0,.09,0,.18,0,.27Z"/><path class="cls-31" d="M11.75,33.56c-.09-.09-.18-.18-.27-.28,0-.63,0-1.26,0-1.9.05-.04.1-.07.15-.11.06.01.12.03.18.04.11.07.19.15.26.25.02.06.04.12.06.17.04.34-.1.69.06,1.02.06.1.12.19.19.29.66.71,1.8,1.22,1.09,2.53-.03.05-.07.1-.11.15-.18,0-.36,0-.54,0-.47-.45-.09-1.18-.54-1.63h0c-.09-.09-.18-.18-.27-.27h0c-.09-.09-.17-.19-.27-.27h0Z"/><path class="cls-31" d="M14.46,35.73v.27c-.38-.03-.8.13-1.09-.27,0,0,0,0,0,0,.28-.28.59-.3.94-.14.05.05.1.09.15.14Z"/><path class="cls-34" d="M11.21,23.79c0-.36,0-.72,0-1.08.23-.02.46-.06.61-.23.56-.65,1.36-.84,2.12-1.09.21-.07.45-.06.65-.15.48-.2.82-.73.62-1.2-.28-.69-.13-1.31.06-1.95,1.32.48.79,1.59.86,2.5-.33,1.32-1.01,2.16-2.55,1.98-.79-.09-1.23.39-1.37,1.18-.18.97-.04,1.87.45,2.73.03.13.03.27,0,.4-.22.44-.26.92-.37,1.38-.1.43-.14.99-.82.97,0-.18,0-.35-.01-.53-.01-.3-.14-.51-.46-.54-.34-.04-.59-.17-.61-.56.37,0,.69-.05.89-.45.19-.38.23-.78.18-1.17-.09-.73.28-1.52-.26-2.19Z"/><path class="cls-9" d="M11.48,29.22c.46-.38.56-.9.54-1.45-.02-.44.11-.8.54-.99.55.88.76,1.89,1.06,2.86.38,1.25-.37,1.89-1.87,1.76-.09,0-.18,0-.27,0,0-.72,0-1.45,0-2.17Z"/><path class="cls-12" d="M11.75,33.56c.09.09.18.18.27.27-.09-.09-.18-.18-.27-.27Z"/><path class="cls-12" d="M12.02,33.83c.09.09.18.18.27.27-.09-.09-.18-.18-.27-.27Z"/><path class="cls-17" d="M15.82,20.8c0-.48,0-.96,0-1.44,0-.5-.15-.94-.54-1.27h0c-.06-.06-.08-.12-.06-.18.02-.06.04-.09.06-.09,0-.18,0-.36,0-.54.32-.29.59-.69,1.15-.4.22.12.52.1.79.12.43.03.8-.08,1.02-.51.06-.12.14-.23.22-.34.38-.47.8-.84,1.48-.79.57.05.88-.2,1.05-.8.26-.92,1.45-1.14,2.01-.36.27.38.54.71.9.97.43.32.11,1.08.7,1.22.46.11.84.29,1.16.63.14.15.29.41.53.25.11-.08.1-.33.16-.5.05-.13.14-.27.29-.22.36.13.69.02,1.05-.05.51-.09.93.41.69.85-.37.68-.37,1.48-.83,2.12-.32.44-.07.88.47,1.01.17.04.36.03.54.05.32.03.47.25.53.53.01.07-.03.19-.09.23-.22.15-.45.34-.74.17-.23-.14-.45-.31-.68-.43-.59-.31-.84-.36-1.19.13-.62.84-1.75.87-2.39,1.64-.13.16-.33.04-.5-.04-.26-.13-.43-.31-.43-.62,0-.29.17-.5.3-.74.24-.45.06-.78-.44-.86-.13-.02-.27-.01-.4,0-.31.02-.51.17-.54.49-.02.27,0,.54-.03.81-.02.22,0,.51-.13.64-.43.44-.4.8-.07,1.3.28.43.42.97.61,1.45.12.3.09.62.47.67.45.06.99.12,1.17-.4.21-.62.63-.62,1.16-.67.63-.05,1.22.34,1.86.12.04-.01.09,0,.13.01.64.28.96,1.45.54,1.99-.14.18-.31.33-.46.49-.36.37-.66.67-1.23.21-.27-.22-.76-.22-1.11-.42-.32.07-.2.37-.29.54-.09.17-.22.28-.42.29-.27.01-.54.05-.81.02-.64-.06-1,.33-1.32.78-.13.18-.12.44.02.64.15.21.39.21.61.17.44-.08.66-.44.91-.76.09-.11.23-.19.34-.1.09.07.15.23.15.35,0,.44-.27.85-.1,1.32.07.19-.18.28-.36.31-.28.05-.56.1-.55.46,0,.36.31.6.75.62.09,0,.18.01.27,0,.26-.04.53-.14.79-.14.34,0,.27.43.5.57.08.04.16.07.24.11.74.36.79.49.4,1.18-.14.24-.3.45-.3.74q-.73-.27-.65-.88c.09-.73-.16-1.05-.83-1.01-.26.01-.53.09-.78.17-.31.09-.61.1-.92-.02-.41-.15-.51-.35-.25-.76.21-.33.16-.59-.06-.85-.12-.14-.24-.27-.37-.39-.23-.21-.41-.49-.75-.55-.41-.08-.51.29-.72.5-.17.17-.37.25-.61.23-.24-.02-.45-.1-.5-.36-.04-.22-.04-.45-.05-.67-.01-.22.07-.53-.05-.66-.53-.57-.37-1.35-.67-1.98-.02-.04-.06-.06-.1-.09-.29.26-.63.31-.99.22-.97-.38-2.06-.66-1.27-2.14.17-.33-.32-.48-.52-.71-.65-.77-.46-1.31.53-1.48.27-.05.54-.04.81-.04.91.02,1.87.15,2.02-1.15,0-.04.04-.09.07-.11,1.83-.96.92-2.54.86-3.91-.02-.49-.42-.89-.76-.32-.71,1.19-1.58.95-2.61.42-.25,1.05.46,2.33-.86,2.97Z"/><path class="cls-34" d="M15.27,17.82c0,.09,0,.18,0,.27-.18-.09-.18-.18,0-.27Z"/><path class="cls-4" d="M23.14,39.26c0-.23-.01-.45,0-.68.06-.61.5-1,1.09-.89.4.07.74.25,1.17.03.33-.17.47-.54.72-.7.24.04.24.17.28.3.16.49.37.67.73.54.46-.17.93-.36,1.34-.62.33-.21.62-.29,1-.18.3.08.63.02.94.03.34,0,.6-.15.83-.39.2-.22.29-.45.13-.73-.13-.23-.28-.46-.41-.69-.36-.64-.28-1.07.3-1.53.28-.22.6-.4.87-.64.34-.31.68-.41,1.1-.21.29.14.65.21.87-.08.27-.34.11-.67-.18-.95-.18-.17-.2-.39-.21-.62-.02-.6.29-.92.89-.94.43-.02.78.18,1.16.33.24.1.44.03.57-.19.14-.23.24-.48.38-.72.11-.19.23-.41.51-.33.26.07.52.18.66.43.04.07.06.21.02.25-.32.34-.3.87-.59,1.18-.35.39-.35.8-.35,1.26,0,.27.03.55-.02.81-.1.63-.29,1.2-.89,1.58-.37.23-.72.57-.72,1.09-.23.55-.85.64-1.21,1.05-.32.37-.65.75-1.17.89-.15.04-.29.2-.39.34-.21.27-.46.44-.8.42-.5-.03-.85.21-1.18.55-.48.49-1.04.86-1.68,1.1-.27.1-.45.28-.67.44-.64.46-1.28.61-2.13.46-1.09-.19-1.83-.85-2.67-1.42-.2-.14-.29-.34-.31-.57Z"/><path class="cls-1" d="M17.44,27.04c.36,0,.72,0,1.08,0-.08.48-.2.91-.73,1.11-.46.18-.56.61-.62,1.05-.09.1-.18.1-.27,0-.5.01-1.67,2.12-1.63,2.97.02.45.07.9.1,1.34.06.85.03,1.73-.91,2.2h0c-.17-.14-.43-.25-.43-.49,0-1.35-1-1.79-2.01-2.22h0c-.36-.45.27-.9,0-1.36h0c-.09-.09-.17-.19-.27-.27,0,0,0,0,0,0,.25-.58.31-.61.72-.37.15.08.23.27.45.21.05-.07.15-.14.14-.2-.05-.46.56-.82.3-1.21-.27-.4-.19-.86-.44-1.24-.37-.55-.38-1.17-.35-1.8,0-.09,0-.18,0-.27-.29-.32-.17-.76-.33-1.13-.26-.62-.12-1.29.44-1.68.56-.39,1.21-.28,1.76.12.47.34.95.65,1.52.83.55.17.77.52.23.95-.96.77-.23.98.39,1.18.29.09.62.08.88.28Z"/><path class="cls-9" d="M12.02,33.01c.17-.04.35-.06.52-.12.24-.08.42-.07.58.16.12.18.25.4.43.51.6.37.91.81.69,1.55-.05.17.14.41.22.62-.36,0-.72,0-1.08,0-.07-.21-.25-.52-.18-.61.54-.65.13-.9-.38-1.21-.34-.2-.63-.51-.8-.89Z"/><path class="cls-9" d="M11.75,31.39c.09.09.18.18.27.27-.09-.09-.18-.18-.27-.27Z"/><path class="cls-43" d="M17.44,27.04c-.18,0-.36-.02-.54,0-.85.11-1.34-.39-1.72-1.04-.17-.29-.07-.49.29-.58.09-.02.18-.02.27-.02.18-.01.42-.02.44-.21.04-.32-.26-.33-.47-.31-.56.06-.93-.18-1.23-.64-.24-.37-.63-.46-1.07-.46-.62,0-.69.06-.87.75-.03.13-.09.26-.12.39-.08.28.06.41.31.5.28.1.35.28.14.5-.17.17-.27.35-.3.59-.13-.04-.34-.06-.36-.14-.23-.62-.56-1.25-.41-1.93.11-.51-.06-1.06.27-1.55.33-.48.72-.79,1.33-.73.31.03.62.14.93.11.43-.05.89-.08,1.02-.68.06-.29.32-.53.49-.79.35-.59.51-1.23.54-1.9.01-.32-.03-.63-.3-.86-.16-.14-.15-.33-.04-.48.18-.24.44-.33.72-.2.28.13.53.34.8.49.68.36.92.28,1.26-.42.1-.2.18-.41.32-.58.17-.21.39-.4.7-.27.29.12.59.27.6.65.01.36.02.72.02,1.08,0,.5.05.95.35,1.41.34.52.25.75-.21,1.15-.2.18-.39.39-.62.52-.5.29-.87.57-.65,1.27.11.35-.15.56-.56.57-.77.02-1.53,0-2.3.02-.18,0-.36,0-.54.04-.25.04-.4.45-.23.65.11.13.25.25.4.34.8.49.85.61.44,1.35-.06.12-.17.21-.24.33-.16.28-.11.45.19.5.41.07.8.14.99.58Z"/></g></svg>