<?xml version="1.0" encoding="UTF-8"?><svg xmlns="http://www.w3.org/2000/svg" xmlns:xlink="http://www.w3.org/1999/xlink" viewBox="0 0 586.72 332.94"><defs><style>.cls-1{fill:#cb6850;}.cls-1,.cls-2,.cls-3{stroke-width:0px;}.cls-4{isolation:isolate;}.cls-2,.cls-5,.cls-6{fill:none;}.cls-7{mix-blend-mode:hard-light;opacity:.3;}.cls-5{stroke:#41352c;stroke-linecap:round;stroke-linejoin:round;}.cls-5,.cls-6{stroke-width:.43px;}.cls-8{clip-path:url(#clippath);}.cls-3{fill:#fff;}.cls-9{mask:url(#mask);}.cls-6{stroke:#cb6850;stroke-miterlimit:10;}</style><clipPath id="clippath"><rect class="cls-2" width="586.72" height="332.94"/></clipPath><mask id="mask" x="-61.94" y="-27.14" width="688.38" height="403.05" maskUnits="userSpaceOnUse"><path class="cls-3" d="M586.69,49.01v284.14H-.03V49.01c28.97-2.38,51.05-8.69,66.09-14.15,19.62-7.12,29.77-13.71,53.3-21.06,19.46-6.06,36.06-8.9,47.18-10.34h0c5.88,5.75,26.98,16.99,101.86,16.05,4.88-.06,9.75.52,13.95,1.79,3.75,1.12,7.57,2.92,9.78,5.77.43.55,1.96.55,2.39,0,2.21-2.86,6.04-4.65,9.78-5.77,4.21-1.26,9.07-1.85,13.95-1.79,74.9.94,95.99-10.3,101.87-16.05,11.12,1.44,27.72,4.28,47.18,10.34,23.53,7.34,33.68,13.93,53.3,21.06,15.04,5.46,37.12,11.76,66.09,14.15Z"/></mask></defs><g class="cls-4"><g id="_レイヤー_2"><g id="_レイヤー_2-2"><g class="cls-8"><path class="cls-3" d="M586.72,48.8v284.14H0V48.8c28.97-2.38,51.06-8.69,66.09-14.14,19.62-7.12,29.76-13.72,53.29-21.06,19.46-6.06,36.06-8.9,47.18-10.34,5.87,5.74,26.96,17,101.87,16.05,4.88-.06,9.74.52,13.95,1.79,3.75,1.12,7.57,2.92,9.78,5.78.43.55,1.96.55,2.39,0,2.21-2.86,6.04-4.66,9.78-5.78,4.21-1.26,9.07-1.85,13.95-1.79,74.89.94,95.98-10.3,101.87-16.05h0c11.12,1.45,27.72,4.28,47.18,10.34,23.53,7.34,33.67,13.94,53.29,21.06,15.04,5.45,37.12,11.76,66.09,14.14Z"/><path class="cls-6" d="M166.57,3.25c-11.12,1.45-27.72,4.28-47.18,10.34-23.53,7.34-33.67,13.94-53.29,21.06C51.06,40.11,28.97,46.42,0,48.8v284.14h586.72V48.8c-28.97-2.38-51.05-8.69-66.09-14.14-19.62-7.12-29.76-13.72-53.29-21.06-19.46-6.06-36.05-8.9-47.18-10.34"/><path class="cls-5" d="M422.39,0s-.25,1.31-2.23,3.25h0c-5.88,5.75-26.98,16.99-101.87,16.05-4.88-.06-9.74.52-13.95,1.79-3.74,1.12-7.57,2.92-9.78,5.78-.43.55-1.96.55-2.39,0-2.21-2.86-6.03-4.66-9.78-5.78-4.2-1.26-9.07-1.85-13.95-1.79-74.91.95-96-10.3-101.87-16.05C164.58,1.31,164.33,0,164.33,0"/><g class="cls-9"><g class="cls-7"><rect class="cls-1" x="11.88" y="-27.14" width="14.04" height="403.05"/><rect class="cls-1" x="39.96" y="-27.14" width="14.04" height="403.05"/><rect class="cls-1" x="68.03" y="-27.14" width="14.04" height="403.05"/><rect class="cls-1" x="96.11" y="-27.14" width="14.04" height="403.05"/><rect class="cls-1" x="124.18" y="-27.14" width="14.04" height="403.05"/><rect class="cls-1" x="152.25" y="-27.14" width="14.04" height="403.05"/><rect class="cls-1" x="180.33" y="-27.14" width="14.04" height="403.05"/><rect class="cls-1" x="208.4" y="-27.14" width="14.04" height="403.05"/><rect class="cls-1" x="236.48" y="-27.14" width="14.04" height="403.05"/><rect class="cls-1" x="264.55" y="-27.14" width="14.04" height="403.05"/><rect class="cls-1" x="292.62" y="-27.14" width="14.04" height="403.05"/><rect class="cls-1" x="320.7" y="-27.14" width="14.04" height="403.05"/><rect class="cls-1" x="348.77" y="-27.14" width="14.04" height="403.05"/><rect class="cls-1" x="376.85" y="-27.14" width="14.04" height="403.05"/><rect class="cls-1" x="404.92" y="-27.14" width="14.04" height="403.05"/><rect class="cls-1" x="433" y="-27.14" width="14.04" height="403.05"/><rect class="cls-1" x="461.07" y="-27.14" width="14.04" height="403.05"/><rect class="cls-1" x="489.14" y="-27.14" width="14.04" height="403.05"/><rect class="cls-1" x="517.22" y="-27.14" width="14.04" height="403.05"/><rect class="cls-1" x="545.29" y="-27.14" width="14.04" height="403.05"/><rect class="cls-1" x="573.37" y="-27.14" width="14.04" height="403.05"/><rect class="cls-1" x="275.23" y="-329.3" width="14.04" height="688.38" transform="translate(297.15 -267.36) rotate(90)"/><rect class="cls-1" x="275.23" y="-301.22" width="14.04" height="688.38" transform="translate(325.22 -239.28) rotate(90)"/><rect class="cls-1" x="275.23" y="-273.15" width="14.04" height="688.38" transform="translate(353.3 -211.21) rotate(90)"/><rect class="cls-1" x="275.23" y="-245.07" width="14.04" height="688.38" transform="translate(381.37 -183.14) rotate(90)"/><rect class="cls-1" x="275.23" y="-217" width="14.04" height="688.38" transform="translate(409.44 -155.06) rotate(90)"/><rect class="cls-1" x="275.23" y="-188.92" width="14.04" height="688.38" transform="translate(437.52 -126.99) rotate(90)"/><rect class="cls-1" x="275.23" y="-160.85" width="14.04" height="688.38" transform="translate(465.59 -98.91) rotate(90)"/><rect class="cls-1" x="275.23" y="-132.78" width="14.04" height="688.38" transform="translate(493.67 -70.84) rotate(90)"/><rect class="cls-1" x="275.23" y="-104.7" width="14.04" height="688.38" transform="translate(521.74 -42.76) rotate(90)"/><rect class="cls-1" x="275.23" y="-76.63" width="14.04" height="688.38" transform="translate(549.82 -14.69) rotate(90)"/><rect class="cls-1" x="275.23" y="-48.55" width="14.04" height="688.38" transform="translate(577.89 13.38) rotate(90)"/><rect class="cls-1" x="275.23" y="-20.48" width="14.04" height="688.38" transform="translate(605.96 41.46) rotate(90)"/></g></g></g></g></g></g></svg>