<?xml version="1.0" encoding="UTF-8"?><svg id="_レイヤー_2" xmlns="http://www.w3.org/2000/svg" viewBox="0 0 399.38 383.39"><defs><style>.cls-1{fill:#41352c;}.cls-1,.cls-2{stroke-width:0px;}.cls-2{fill:#fff;}</style></defs><g id="_レイヤー_1-2"><path class="cls-2" d="M7.33,121.87c-.02,69.96-.05,160.62-.07,231.12,0,12.87,10.42,23.31,23.29,23.32h.04c81.05.02,253.64.1,338.39.12,12.87,0,23.31-10.41,23.32-23.28v-.03c0-70.48.03-161.13.07-231.11.02-12.86-10.39-23.3-23.25-23.32h-.04c-71.08-.02-259.21-.09-338.4-.11-12.87-.02-23.31,10.39-23.34,23.26,0,.01,0,.03,0,.04Z"/><path class="cls-1" d="M.45,121.87c-.01,52.56-.03,105.11-.05,157.66v39.59c0,11.95-.98,24.37.11,36.26,1,11.51,8.42,21.47,19.16,25.73,8.13,3.23,17.74,2.08,26.34,2.08l120.16.04,133.09.05h55.99c9.41,0,19.17.98,27.81-3.49,10.03-5.42,16.24-15.96,16.1-27.37.44-52.68,0-105.39.03-158.07l.02-38.7v-18.87c.26-5.92.2-11.86-.19-17.78-1.2-11.49-8.79-21.31-19.6-25.36-7.33-2.75-15.73-1.87-23.44-1.87l-107.42-.03-126.39-.04H42.14c-8.75,0-17.54-.69-25.58,3.48C6.73,100.49.56,110.72.45,121.89c-.22,8.85,13.53,8.85,13.75,0,.08-8.81,7.04-16.02,15.85-16.41,6.94-.24,13.93,0,20.87,0h50.33l119.59.04,111.69.04h21.53c6.3,0,14.05-1.14,20.09.81,3.88,1.27,7.15,3.95,9.17,7.51,1.97,4.43,2.71,9.31,2.14,14.13,0,11.85,0,23.7-.02,35.55-.03,51.18-.04,102.36-.05,153.55,0,11.78.1,23.57,0,35.35.26,9.06-6.79,16.66-15.84,17.09-16.5.56-33.13,0-49.65,0l-124.71-.04-122.38-.05h-36.47c-3.84.34-7.71,0-11.43-.99-4.02-1.47-7.31-4.45-9.17-8.31-1.64-4.66-2.19-9.63-1.61-14.53v-35.84c.01-51.17.03-102.34.04-153.51v-34.38c.02-8.85-13.73-8.87-13.73,0Z"/><path class="cls-1" d="M39.28,149.77c39.53,34.99,79.72,69.21,120.58,102.66,5.08,4.16,10.18,8.3,15.3,12.42,4.52,4.15,9.34,7.94,14.44,11.35,5.23,2.95,11.52,3.36,17.1,1.12,5.76-2.32,10.68-7.36,15.51-11.19,22.21-17.58,44.1-35.55,65.67-53.93,24.43-20.7,48.57-41.73,72.42-63.08,6.62-5.9-3.13-15.6-9.72-9.73-40.57,36.17-81.75,71.73-124.1,105.83-4.65,3.74-9.32,7.47-14,11.17-2.53,2-5.05,4.03-7.61,6-1.59,1.64-3.76,2.6-6.05,2.67-2.24-.54-4.28-1.74-5.85-3.44-2.31-1.85-4.62-3.71-6.93-5.57-4.71-3.79-9.41-7.6-14.1-11.42-19.86-16.19-39.55-32.6-59.07-49.21-21.48-18.25-42.78-36.71-63.89-55.38-6.6-5.85-16.37,3.84-9.72,9.72h0Z"/><path class="cls-1" d="M129.34,57.83c0,25.5-.02,54.64-.02,80.28,0,11.67,9.44,21.13,21.11,21.14h.02l98.68.04c11.66,0,21.13-9.44,21.14-21.1v-.03c0-25.63,0-54.77.02-80.28.01-11.66-9.43-21.13-21.09-21.14h-.03l-98.68-.04c-11.66-.01-21.13,9.43-21.14,21.09,0,0,0,.02,0,.03Z"/><path class="cls-2" d="M192.27,85.76v36.76c0,4.09,3.31,7.42,7.4,7.43h.23c4.1.01,7.44-3.3,7.45-7.4,0,0,0-.01,0-.02,0-14.4,0-21.16.02-36.74-1.8,0-12.82-.03-15.1-.03Z"/><path class="cls-2" d="M199.8,66.2c-10.22-.2-18.67,7.92-18.88,18.14,0,.21,0,.42,0,.62,0,11.71,7.3,19.11,18.88,19.11s18.88-7.4,18.88-19.11c.15-10.21-8.01-18.61-18.22-18.76-.22,0-.44,0-.66,0Z"/><path class="cls-1" d="M174.36,39.23c0-14.05,11.4-25.44,25.45-25.43,14.04,0,25.43,11.39,25.43,25.43.11,8.84,13.87,8.87,13.75,0,0-16.34-10.17-30.95-25.48-36.66-20.13-7.69-42.67,2.4-50.36,22.53-1.72,4.51-2.59,9.3-2.57,14.13-.11,8.85,13.64,8.86,13.75,0h0Z"/></g></svg>