<?xml version="1.0" encoding="UTF-8"?><svg xmlns="http://www.w3.org/2000/svg" viewBox="0 0 392.79 56.82"><defs><style>.cls-1{isolation:isolate;}.cls-2{fill:#fff;}.cls-2,.cls-3{stroke:#ffb14d;stroke-miterlimit:10;stroke-width:2px;}.cls-4{stroke-width:0px;}.cls-4,.cls-3{fill:#ffb14d;}.cls-5{mix-blend-mode:multiply;}</style></defs><g class="cls-1"><g id="_レイヤー_2"><g id="_レイヤー_1-2"><g class="cls-5"><path class="cls-3" d="M209.77,46.98l-8.7,7.35c-2.36,1.99-6.18,1.99-8.54,0l-8.7-7.35c-2.26-1.91-5.32-2.98-8.51-2.98H24.68c-13.08,0-23.68-8.95-23.68-20h0C1,12.95,11.6,4,24.68,4h343.42c13.08,0,23.68,8.95,23.68,20h0c0,11.05-10.6,20-23.68,20h-149.82c-3.19,0-6.25,1.07-8.51,2.98Z"/></g><path class="cls-2" d="M209.77,43.98l-8.7,7.35c-2.36,1.99-6.18,1.99-8.54,0l-8.7-7.35c-2.26-1.91-5.32-2.98-8.51-2.98H24.68c-13.08,0-23.68-8.95-23.68-20h0C1,9.95,11.6,1,24.68,1h343.42c13.08,0,23.68,8.95,23.68,20h0c0,11.05-10.6,20-23.68,20h-149.82c-3.19,0-6.25,1.07-8.51,2.98Z"/><path class="cls-4" d="M21.3,23.84l-.47-.23c-.09-.09-.16-.21-.19-.35s-.06-.27-.09-.4c.25-.91.52-1.8.82-2.67s.64-1.72,1.03-2.53l-1.43-.05-1.12.05-.47-.23c-.09-.12-.16-.26-.21-.4s-.05-.29-.02-.45l.23-.47c.34-.22.73-.32,1.15-.3s.84,0,1.24-.02l1.38.05c.16-.52.32-1.03.49-1.55s.41-1.01.73-1.48c.12-.09.26-.16.4-.21s.29-.05.45-.02l.47.23c.09.12.16.26.21.4s.05.3.02.49c-.16.34-.3.69-.45,1.03s-.26.71-.35,1.1h.8l.98-.05c.25.03.52.04.8.02s.53.07.75.26c.09.12.16.26.21.4s.05.29.02.45l-.23.47c-.22.16-.47.24-.75.26s-.56.02-.84.02l-.84-.05-1.59.05c-.44.97-.84,1.95-1.22,2.93s-.7,1.98-.98,2.98c-.14.09-.28.17-.42.23s-.3.08-.49.05ZM27.88,31.41c-.56-.06-1.09-.19-1.59-.38s-.94-.53-1.31-1.03c-.28-.25-.46-.55-.54-.89s-.13-.7-.16-1.08c.06-.42.16-.83.28-1.22s.34-.74.66-1.05c.5-.41,1.04-.71,1.62-.91s1.21-.29,1.9-.26l1.41.14v-1.64l-.33-2.53c.03-.12.07-.24.12-.35s.1-.21.16-.3c.12-.09.26-.16.4-.21s.29-.05.45-.02l.47.23c.22.81.38,1.64.47,2.48s.14,1.72.14,2.62c.34.06.69.13,1.03.21s.67.2.98.35c.11.12.2.26.26.4s.08.3.05.49l-.26.47c-.12.09-.27.16-.42.21s-.33.05-.52.02l-1.08-.28c-.03.67-.19,1.27-.47,1.8s-.62,1.05-1.03,1.55c-.34.41-.75.7-1.22.87s-.95.27-1.45.3ZM28.92,29.26c.25-.19.45-.4.59-.63s.29-.48.45-.73c.06-.22.13-.43.21-.64s.1-.44.07-.69l-2.3-.14c-.25.06-.5.15-.75.26s-.48.24-.7.4c-.09.19-.18.38-.26.57s-.12.4-.12.62c.03.19.11.36.23.52s.27.3.42.42c.22.09.44.18.66.26s.45.12.7.12l.8-.33ZM36.06,21.27c-.12-.03-.24-.07-.35-.12s-.21-.1-.3-.16c-.59-.66-1.18-1.3-1.77-1.92s-1.24-1.17-1.96-1.64l-.19-.19c-.09-.12-.16-.26-.21-.4s-.05-.29-.02-.45l.23-.47c.12-.09.26-.16.4-.21s.3-.05.49-.02l.56.33v.09l.38.19.66.52,2.7,2.67c.12.16.22.31.28.47s.08.34.05.56l-.23.47c-.09.09-.2.16-.33.19l-.38.09Z"/><path class="cls-4" d="M52.47,30.99c-.41-.06-.78-.16-1.12-.3s-.68-.28-1.01-.42-.64-.34-.94-.59-.59-.5-.87-.75c-.44-.5-.74-1.07-.91-1.71s-.33-1.27-.47-1.9-.23-1.27-.28-1.92-.05-1.34-.02-2.06l.05-.23h-1.83l-1.12.09c-.06-.03-.12-.05-.16-.07s-.1-.03-.16-.05-.12-.04-.16-.07-.1-.06-.16-.09c-.03-.06-.07-.12-.12-.19s-.08-.13-.09-.21-.02-.15-.02-.21v-.23l.23-.47c.25-.16.54-.23.87-.23s.65-.02.96-.07.64-.06.98-.05.67.02.98.02c.06-.41.14-.81.23-1.22s.18-.82.26-1.24.16-.83.26-1.22.23-.77.42-1.15c.06-.03.12-.07.19-.12s.13-.08.21-.09.15-.02.21-.02h.23l.47.23c.03.06.07.12.12.19s.08.13.09.21.02.16.02.23v.26c-.09.34-.19.68-.28,1.01s-.17.66-.23.98-.13.66-.21,1.01-.13.69-.16,1.03h.7c.41-.03.8-.05,1.2-.07s.8-.02,1.24-.02h2.48l.19-1.12c.06-.38.13-.75.21-1.12s.17-.75.28-1.12.26-.72.45-1.03c.06-.03.12-.07.19-.12s.13-.08.21-.09.15-.02.21-.02h.23l.47.23c.03.06.07.12.12.19s.08.13.09.21.02.16.02.23v.26c-.09.28-.19.57-.28.87s-.17.59-.23.89l-.19.89c-.06.3-.11.6-.14.91.22.03.45.05.7.05h1.43c.23,0,.45.08.63.23.03.06.07.12.12.19s.08.13.09.21.02.15.02.21v.23l-.23.47c-.16.12-.34.2-.54.23s-.41.05-.63.05h-1.31l-.66-.09c-.06.34-.11.69-.14,1.03s-.08.67-.14.98-.11.64-.14.98-.12.66-.28.94c-.06.03-.12.07-.19.12s-.13.08-.21.09-.15.02-.21.02h-.23l-.47-.23c-.03-.06-.07-.12-.12-.16s-.07-.11-.07-.19-.02-.15-.05-.21-.05-.12-.05-.19c.06-.25.1-.51.12-.77s.05-.52.12-.77.1-.51.12-.77.04-.55.07-.87h-3.66l-1.55.09-.19-.05-.05,2.06c.03.44.09.85.16,1.24s.16.79.26,1.2.2.8.33,1.17.33.72.61,1.03c.25.28.53.48.84.61s.62.27.94.42.64.25.98.28.7.03,1.08,0c.38-.09.76-.19,1.15-.28s.75-.23,1.08-.4.66-.38.98-.61.7-.37,1.1-.4l.47.23c.03.06.07.12.12.19s.08.13.09.21.02.15.02.21v.23l-.28.52-.23.09v.09c-.44.28-.88.55-1.34.82s-.93.45-1.43.56-1.01.21-1.52.3-1.05.11-1.62.05ZM58.7,16.09l-.47-.23c-.19-.25-.3-.54-.33-.87s-.06-.65-.09-.96-.05-.63-.07-.96-.02-.66-.02-1.01l.23-.47c.06-.03.12-.07.19-.12s.13-.08.21-.09.15-.02.21-.02h.23l.47.23c.19.25.28.55.28.89s.02.67.05.98.06.63.09.96.06.65.09.96l-.23.47c-.06.03-.12.07-.19.12s-.13.08-.21.09-.15.02-.21.02h-.23ZM61.8,15.99l-.47-.23c-.16-.28-.27-.58-.33-.89s-.1-.63-.12-.96-.03-.66-.05-1.01-.02-.69-.02-1.03l.23-.47c.06-.03.12-.07.19-.12s.13-.08.21-.09.15-.02.21-.02h.23l.47.23c.19.25.28.55.28.89s0,.69.02,1.03.05.67.12.98.09.64.09.98l-.23.47c-.06.03-.12.07-.19.12s-.13.08-.21.09-.15.02-.21.02h-.23Z"/><path class="cls-4" d="M77.24,31.51l-.47-.23c-.22-.47-.34-.98-.35-1.55s-.04-1.11-.07-1.64v-2.32l-.28-4.97h-.09l-.7.89c-.66.75-1.27,1.52-1.85,2.32s-1.18,1.59-1.8,2.37l-.52.66c-.25.28-.49.57-.71.88s-.43.61-.62.93l-.66,1.17c-.12.12-.27.22-.42.28s-.33.08-.52.05l-.47-.23c-.09-.12-.16-.26-.21-.4s-.05-.29-.02-.45c1.03-1.8,2.19-3.5,3.48-5.11s2.57-3.23,3.86-4.85l.52-.61-1.97-.14h-2.81l-1.76.05c-.31-.09-.63-.16-.96-.19s-.63-.12-.91-.28c-.09-.12-.16-.26-.21-.4s-.05-.29-.02-.45l.23-.47c.16-.12.34-.2.56-.21s.44-.02.66-.02c.34.12.72.19,1.12.19h1.24l.05-.05h2.81c.41.06.82.1,1.24.12s.84.04,1.24.07v-1.48l-.05-.05v-2.91c.03-.16.06-.3.09-.45s.11-.27.23-.4c.12-.09.26-.16.4-.21s.29-.05.45-.02l.47.23c.09.12.16.26.21.4s.05.3.02.49l-.05.05v2.81l.05,1.52,1.12.09h2.06c.53.09,1.09.13,1.68.12s1.13.07,1.63.26c.09.12.16.26.21.4s.05.3.02.49l-.23.47c-.16.12-.32.2-.49.23s-.35.05-.54.05l-2.27-.19h-2.06c-.16-.06-.32-.09-.49-.09h-.54v1.08c.09.97.16,1.95.21,2.95s.12,2,.21,3v2.32l.14,2.72-.23.47c-.12.09-.26.16-.4.21s-.29.05-.45.02Z"/><path class="cls-4" d="M96.11,30.15c-.06-.03-.12-.05-.16-.07s-.1-.03-.16-.05-.12-.04-.16-.07-.1-.06-.16-.09c-.28-.44-.45-.94-.49-1.5s-.09-1.12-.12-1.66-.05-1.09-.07-1.64-.02-1.1-.02-1.66c.03-.66.05-1.34.05-2.04s0-1.39.02-2.06l.05-2.02c.02-.67.13-1.32.35-1.95.06-.03.12-.07.19-.12s.13-.08.21-.09.15-.02.21-.02h.23l.47.23c.06.09.12.19.16.28s.07.19.07.28v.66c-.03.75-.06,1.49-.09,2.23s-.05,1.48-.05,2.23,0,1.51-.02,2.27-.02,1.52-.02,2.27l.14,2.2h.09c.62-.31,1.26-.61,1.9-.89s1.29-.56,1.95-.84,1.3-.59,1.95-.91,1.3-.54,1.99-.63l.47.23c.03.06.07.12.12.19s.08.13.09.21.02.15.02.21v.23l-.23.47c-.66.31-1.32.62-1.99.94s-1.36.62-2.06.91-1.39.6-2.06.91-1.34.64-1.99.98l-.05.09c-.06.03-.12.07-.19.12s-.12.08-.19.09-.13.02-.21.02-.15.02-.21.05Z"/><path class="cls-4" d="M120.84,19.93c-.72-.53-1.46-1.05-2.21-1.57s-1.5-1.04-2.21-1.57c-.06-.14-.1-.28-.12-.42s0-.29.07-.45l.3-.4c.14-.08.29-.12.43-.14s.32,0,.5.07c.75.45,1.48.93,2.2,1.44s1.44,1.04,2.16,1.58c.09.16.15.32.16.48s-.02.33-.09.5l-.3.42c-.16.06-.3.1-.45.12s-.29,0-.45-.07ZM120.46,30.01l-.47-.23c-.09-.12-.16-.26-.21-.4s-.05-.29-.02-.45l.33-.56c.25-.16.46-.35.63-.57s.32-.45.45-.67l.89-.94c1.25-1.28,2.48-2.59,3.68-3.91s2.4-2.66,3.59-4.01l.28-.28h.09l.09-.23c.16-.16.33-.28.53-.38s.4-.12.62-.09l.47.23c.09.12.16.26.21.4s.05.29.02.45-.11.3-.23.42-.23.27-.33.42l-.19.19h-.09v.09l-.23.23c-1.17,1.28-2.36,2.57-3.56,3.87s-2.4,2.59-3.59,3.87h-.09c-.22.33-.47.64-.75.94s-.53.6-.75.91l-.23.23-.28.14v.09c-.12.09-.26.16-.4.21s-.29.05-.45.02Z"/><path class="cls-4" d="M145.99,22.79c-.44-.19-.88-.35-1.34-.49s-.91-.27-1.38-.4-.93-.25-1.38-.38-.91-.27-1.38-.42c-.03-.06-.07-.12-.12-.19s-.08-.13-.09-.21-.02-.15-.02-.21v-.23l.23-.47c.09-.06.18-.12.26-.19s.16-.1.26-.12.2-.02.33-.02h.33c.41.19.84.33,1.29.42s.89.2,1.31.33.84.26,1.27.4.84.32,1.24.54c.03.06.07.12.12.19s.09.14.12.23.05.18.05.26v.26l-.23.47c-.06.03-.12.07-.19.12s-.13.08-.21.09-.15.02-.21.02h-.23ZM146.22,18.24c-.38-.19-.76-.38-1.15-.59s-.78-.4-1.17-.59-.79-.36-1.2-.52-.8-.38-1.17-.66c-.03-.06-.07-.12-.12-.19s-.09-.13-.12-.21-.05-.16-.05-.23v-.26l.23-.47c.06-.03.12-.07.19-.12s.13-.08.21-.09.15-.02.21-.02h.23c.38.22.76.41,1.15.56s.78.33,1.17.52.77.38,1.15.56.75.39,1.12.61c.03.09.09.17.16.23s.13.13.16.21.05.16.05.26v.28l-.23.47c-.06.03-.12.07-.19.12s-.13.08-.21.09-.15.02-.21.02h-.23ZM145.61,30.38l-.47-.23c-.03-.06-.07-.12-.12-.19s-.08-.13-.09-.21-.02-.15-.02-.21v-.23l.23-.47c.97-.81,1.9-1.68,2.79-2.6s1.8-1.82,2.72-2.7,1.84-1.76,2.77-2.65,1.87-1.74,2.84-2.55l.56-.05.47.23c.03.06.07.12.12.19s.08.13.09.21.02.16.02.23v.26l-.28.52c-1,.75-1.95,1.59-2.84,2.51s-1.8,1.81-2.72,2.67-1.83,1.75-2.72,2.67-1.82,1.77-2.79,2.55l-.56.05ZM153.58,16.7l-.47-.23c-.16-.25-.26-.52-.3-.82s-.09-.59-.12-.89-.07-.59-.12-.89-.07-.6-.07-.91l.23-.47c.06-.03.12-.07.19-.12s.13-.08.21-.09.15-.02.21-.02h.23l.47.23c.16.25.25.52.28.82s.07.59.12.89l.14.89c.05.3.07.6.07.91l-.23.47c-.06.03-.12.07-.19.12s-.13.08-.21.09-.15.02-.21.02h-.23ZM156.91,16.7l-.47-.23c-.16-.25-.26-.52-.3-.8s-.08-.57-.09-.87-.05-.59-.09-.89-.05-.6-.02-.91c.03-.06.05-.12.07-.16s.03-.1.05-.16.04-.12.07-.16.06-.1.09-.16c.06-.03.12-.07.19-.12s.13-.08.21-.09.15-.02.21-.02h.23l.47.23c.19.25.27.54.26.87s0,.64.02.94.06.6.09.91l.09.94-.23.47c-.06.03-.12.07-.19.12s-.13.08-.21.09-.15.02-.21.02h-.23Z"/><path class="cls-4" d="M168.11,30.15c-.06-.03-.12-.05-.16-.07s-.1-.03-.16-.05-.12-.04-.16-.07-.1-.06-.16-.09c-.28-.44-.45-.94-.49-1.5s-.09-1.12-.12-1.66-.05-1.09-.07-1.64-.02-1.1-.02-1.66c.03-.66.05-1.34.05-2.04s0-1.39.02-2.06l.05-2.02c.02-.67.13-1.32.35-1.95.06-.03.12-.07.19-.12s.13-.08.21-.09.15-.02.21-.02h.23l.47.23c.06.09.12.19.16.28s.07.19.07.28v.66c-.03.75-.06,1.49-.09,2.23s-.05,1.48-.05,2.23,0,1.51-.02,2.27-.02,1.52-.02,2.27l.14,2.2h.09c.62-.31,1.26-.61,1.9-.89s1.29-.56,1.95-.84,1.3-.59,1.95-.91,1.3-.54,1.99-.63l.47.23c.03.06.07.12.12.19s.08.13.09.21.02.15.02.21v.23l-.23.47c-.66.31-1.32.62-1.99.94s-1.36.62-2.06.91-1.39.6-2.06.91-1.34.64-1.99.98l-.05.09c-.06.03-.12.07-.19.12s-.12.08-.19.09-.13.02-.21.02-.15.02-.21.05Z"/><path class="cls-4" d="M195.35,31.04l-.47-.23c-.03-.06-.07-.12-.12-.16s-.07-.11-.07-.19-.02-.15-.05-.21-.05-.12-.05-.19c.28-.62.55-1.26.8-1.9s.52-1.28.82-1.92.6-1.27.91-1.9.59-1.27.84-1.92c-.41-.31-.85-.55-1.34-.7s-.95-.33-1.41-.52-.91-.38-1.36-.59-.9-.43-1.34-.68l-.19-.47h-.14c-.06.22-.15.42-.26.61l-.33.56c-.11.19-.23.39-.35.61s-.23.42-.33.61c-.06.03-.12.07-.19.12s-.13.08-.21.09-.15.02-.21.02h-.23l-.47-.23c-.03-.06-.07-.12-.12-.16s-.07-.12-.07-.21-.02-.17-.05-.23-.05-.12-.05-.19c.34-.66.69-1.34,1.03-2.06s.69-1.43,1.03-2.13.71-1.38,1.1-2.04.74-1.34,1.05-2.06c.06-.03.12-.07.19-.12s.13-.08.21-.09.15-.02.21-.02h.23l.47.23c.12.22.3.38.54.47s.46.2.68.3.43.23.63.38.41.26.63.35c.41.12.82.25,1.24.38s.84.26,1.27.4.84.27,1.24.4.8.31,1.17.56v.09h.09c.03.06.07.12.12.19s.08.13.09.21.02.16.02.23v.26c-.53,1.12-1.08,2.27-1.64,3.42s-1.1,2.3-1.62,3.45-1.03,2.29-1.55,3.45-1.02,2.31-1.52,3.47c-.06.03-.13.07-.21.12s-.16.09-.23.12-.16.05-.23.05h-.26ZM198.77,20.63c.16-.28.31-.57.47-.87s.3-.59.42-.89.26-.59.4-.87.27-.58.4-.89c-.5-.12-1-.27-1.5-.45s-1-.33-1.5-.47-.99-.34-1.48-.61-.96-.51-1.43-.73c-.12.31-.27.62-.45.91l-.52.89c-.17.3-.34.59-.49.89s-.28.6-.38.91h.05l.66-.09c.44.19.88.38,1.31.59s.88.39,1.34.56.91.33,1.38.47.89.37,1.27.68l.05-.05Z"/><path class="cls-4" d="M227.27,22.7c-1.06-.09-2.13-.16-3.21-.21s-2.17-.09-3.28-.12-2.2-.06-3.28-.09-2.16-.05-3.26-.05c-.19.03-.39.05-.61.07s-.44.02-.66.02-.43.02-.63.05-.41.03-.63,0c-.06-.03-.12-.05-.16-.07s-.1-.03-.16-.05-.12-.04-.16-.07-.1-.06-.16-.09c-.03-.06-.07-.12-.12-.19s-.08-.13-.09-.21-.02-.16-.02-.23v-.26l.23-.47c.47-.19.97-.28,1.5-.28s1.05-.02,1.57-.07,1.04-.06,1.57-.05,1.06.02,1.59.02c.91.06,1.83.09,2.77.09s1.86.04,2.77.12,1.83.11,2.77.09,1.83.12,2.67.4c.03.06.07.12.12.19s.08.14.09.23.02.17.02.23v.23l-.23.47c-.06.03-.13.07-.21.12s-.16.08-.26.09-.18.03-.26.05-.16.02-.26.02Z"/><path class="cls-4" d="M237.58,30.2c-.06-.03-.12-.05-.16-.07s-.1-.03-.16-.05-.12-.04-.16-.07-.1-.06-.16-.09c-.19-.22-.3-.47-.33-.75s-.07-.56-.12-.84-.07-.57-.07-.87v-.91c.03-.88.05-1.75.05-2.62s.02-1.75.05-2.62l.09-2.62.09-2.62-.05-.33c.03-.06.05-.12.07-.16s.03-.1.05-.16.04-.12.07-.16.06-.1.09-.16c.06-.03.12-.07.19-.12s.13-.08.21-.09.15-.02.21-.02h.23l.47.23c.12.16.2.33.23.52s.05.38.05.59v1.24c-.06.84-.11,1.7-.14,2.58s-.05,1.75-.07,2.62-.02,1.74-.02,2.6-.02,1.73-.05,2.6h.09l.38-.28c.12-.09.25-.2.38-.3s.26-.19.4-.23.3-.05.49-.02l.47.23c.03.06.07.12.12.19s.08.13.09.21.02.16.02.23v.26l-.23.47-.84.52v.09c-.16.09-.32.19-.49.28s-.34.2-.49.33-.32.22-.49.28-.35.11-.54.14ZM245.97,30.66c-.16-.03-.33-.06-.52-.09s-.36-.09-.52-.16-.3-.16-.45-.26l-.49-.33c-.16-.22-.33-.42-.52-.61s-.34-.4-.45-.63-.18-.48-.21-.75-.06-.52-.09-.77c.06-.16.11-.33.14-.52s.06-.37.09-.54.11-.33.23-.47.23-.29.33-.45c.28-.31.59-.56.94-.75s.71-.31,1.1-.38.77-.13,1.15-.21.78-.09,1.22-.02v-1.03c-.03-.31-.05-.63-.07-.96s-.02-.66-.02-.98-.02-.65-.07-.96-.09-.62-.12-.94c-.5-.03-1.01-.05-1.52-.05s-1.02-.02-1.52-.07-1.01-.09-1.52-.12-.99-.14-1.43-.33c-.03-.06-.07-.12-.12-.19s-.08-.13-.09-.21-.02-.15-.02-.21v-.23l.23-.47c.09-.06.19-.12.28-.16s.19-.07.28-.07h.66c.38.06.76.11,1.15.14s.78.05,1.17.07.78.02,1.17.02h1.2v-.09l-.05-1.88c.03-.06.05-.12.07-.16s.03-.1.05-.16.04-.12.07-.16.06-.1.09-.16c.06-.03.12-.07.19-.12s.13-.08.21-.09.15-.02.21-.02h.23l.47.23c.16.16.23.35.23.59v1.41c0,.23.02.46.05.68.25,0,.49.02.73.05s.48.06.73.09.49.06.73.09.45.12.63.28c.03.06.07.12.12.19s.08.13.09.21.02.15.02.21v.23l-.23.47c-.06.03-.13.07-.21.12s-.16.08-.23.09-.16.02-.23.02h-.26c-.12-.03-.26-.06-.4-.09s-.29-.05-.45-.05-.3-.02-.45-.05-.29-.05-.45-.05v.42c.09.38.14.76.14,1.15s0,.79.02,1.2.03.8.05,1.2.05.77.12,1.15c.22.03.44.09.66.16s.44.15.66.21l.66.19c.22.06.42.16.61.28.03.06.07.12.12.19s.08.13.09.21.02.15.02.21v.23l-.23.47c-.06.03-.13.07-.21.12s-.16.08-.23.09-.16.02-.23.02h-.26l-1.64-.47c0,.31,0,.63-.02.96s-.05.64-.09.94-.11.59-.19.87-.23.55-.45.8h-.09v.09l-.47.42c-.19.12-.38.23-.59.33s-.41.17-.63.23-.44.1-.66.12-.45.02-.7.02ZM247.33,28.56l.52-.52c0-.22.03-.42.09-.61s.09-.39.09-.61v-1.27h-1.17c-.16.06-.31.1-.47.12s-.31.04-.47.07-.31.08-.47.14-.28.17-.38.33l-.05.09-.33.38-.09.7c.03.09.06.2.09.3s.09.21.16.3.16.18.23.26.15.16.21.26c.09.03.18.08.26.14s.16.1.26.12.2.03.3.05.21.02.3.02c.06-.06.14-.09.23-.07s.17,0,.23-.02.13-.06.21-.09.15-.06.21-.09Z"/><path class="cls-4" d="M268,31.09l-.47-.23c-.03-.06-.07-.12-.12-.19s-.08-.13-.09-.21-.02-.16-.02-.23v-.26c.22-.44.44-.88.66-1.34s.41-.91.59-1.36.3-.92.4-1.41.16-.98.19-1.48h-4.83c-.38.06-.77.09-1.2.09s-.83.02-1.22.05-.77.09-1.15.16-.77.12-1.17.12l-.47-.23c-.03-.06-.07-.12-.12-.19s-.08-.13-.09-.21-.02-.15-.02-.21v-.23l.23-.47c.38-.19.78-.31,1.22-.38s.88-.12,1.31-.16.88-.07,1.34-.07.9-.03,1.34-.09h4.92v-.61l-.47-2.25-.75-.05c-.56.03-1.12.07-1.66.12s-1.1.08-1.66.09-1.12.05-1.69.09-1.11.12-1.64.21l-.47-.23c-.03-.06-.07-.12-.12-.19s-.08-.13-.09-.21-.02-.15-.02-.21v-.23l.23-.47c.53-.28,1.1-.44,1.71-.47s1.23-.06,1.85-.09,1.24-.07,1.85-.12,1.24-.09,1.9-.12v-.19l-.28-.66-.28-.66c-.09-.22-.18-.44-.26-.66s-.2-.42-.35-.61h-.28c-.31.09-.64.17-.98.23s-.68.12-1.01.19-.66.12-1.01.19-.69.11-1.03.14l-.47-.23c-.03-.06-.07-.12-.12-.19s-.08-.13-.09-.21-.02-.15-.02-.21v-.23l.23-.47c.84-.28,1.71-.51,2.6-.68s1.79-.32,2.7-.45,1.8-.27,2.67-.42,1.77-.3,2.67-.42l.47.23c.03.06.07.12.12.19s.08.13.09.21.02.15.02.21v.23l-.23.47c-.31.19-.65.3-1.01.35s-.72.1-1.08.16-.72.13-1.08.21-.73.13-1.1.16v.14c.09.25.2.48.3.7s.2.45.28.7l.23.75c.08.25.13.5.16.75h.47l2.48-.09.98.09,1.27-.14.61.28c.03.06.07.12.12.19s.08.13.09.21.02.15.02.21v.23l-.23.47c-.16.12-.32.2-.49.23s-.36.05-.56.05-.4.02-.59.05-.38.05-.56.05l-2.16-.09-.84.05v.33c.06.22.11.43.14.63s.07.41.12.63.08.45.09.7.02.48.02.7h.23l3.52-.09.89.05,1.12-.09.47.23c.03.06.07.12.12.19s.08.13.09.21.02.15.02.21v.23l-.23.47c-.16.12-.34.2-.54.23s-.41.05-.63.07-.43.03-.63.05-.41.02-.63.02l-1.88-.05-2.02.09c-.06.56-.14,1.12-.23,1.69s-.23,1.12-.4,1.66-.38,1.08-.61,1.59-.51,1.02-.82,1.52c-.06.03-.12.07-.19.12s-.13.08-.21.09-.15.02-.21.02h-.28Z"/><path class="cls-4" d="M286.56,31.98l-.47-.23c-.03-.06-.07-.13-.12-.21s-.08-.16-.09-.26-.03-.18-.05-.26-.02-.16-.02-.26l.05-3.52-.05-1.88.09-2.72h-2.39l-.84.14c-.06-.03-.12-.05-.16-.07s-.1-.03-.16-.05-.12-.04-.16-.07-.1-.06-.16-.09c-.03-.06-.07-.12-.12-.16s-.07-.11-.07-.19-.02-.15-.05-.21-.05-.12-.05-.19c.06-.31.19-.59.38-.84s.4-.49.63-.73.47-.46.7-.68.45-.45.63-.7l.98-.98-.8-.7c-.16-.19-.32-.38-.49-.56s-.33-.38-.47-.56-.27-.39-.38-.61-.15-.45-.12-.7l.23-.47c.38-.25.72-.54,1.03-.87s.65-.63,1.01-.91.71-.55,1.05-.82.7-.52,1.08-.77l.61-.05.47.23c.03.06.07.12.12.19s.08.13.09.21.02.15.02.21v.23l-.23.47c-.31.19-.62.38-.91.59s-.58.43-.84.68-.55.49-.84.73-.54.51-.73.82l.56.7.84.66v.05h.09l1.31-1.27c.16-.12.31-.26.47-.4s.32-.28.49-.42.34-.26.52-.35.37-.12.59-.09l.47.23c.03.06.07.12.12.19s.08.13.09.21.02.15.02.21v.23l-.23.47-.14.14-1.12.84-.8.89-1.78,1.55-.7.8c-.09.06-.19.13-.28.21s-.18.16-.26.23-.16.16-.23.26-.13.19-.16.28h1.01c.33,0,.66,0,.98.02s.66.04.98.07.66.03,1.01,0l.47-.05v-.09c-.09-.12-.17-.26-.23-.4s-.13-.27-.21-.4-.15-.26-.21-.4-.08-.3-.05-.49l.23-.47c.06-.03.12-.07.19-.12s.13-.08.21-.09.15-.02.21-.02h.23l.47.23c.22.34.43.7.63,1.05s.4.72.59,1.08.41.72.66,1.08.39.76.42,1.2l-.23.47c-.09.03-.17.07-.23.12s-.13.08-.21.09-.15.02-.21.02h-.23l-.47-.23-.56-.94h-.14c-.19.06-.38.11-.56.14s-.38.05-.59.07-.41.02-.61.02h-.63l-.09,4.45.05,3.52c-.03.06-.05.15-.05.26s0,.21-.02.3-.05.18-.09.26-.09.15-.12.21c-.06.03-.12.07-.19.12s-.13.08-.21.09-.15.02-.21.02h-.23ZM282.95,29.02l-.47-.23c-.03-.06-.07-.12-.12-.16s-.07-.11-.07-.19-.02-.15-.05-.21-.05-.12-.05-.19c.09-.31.17-.63.23-.96s.15-.64.26-.94.21-.6.3-.91.23-.61.42-.89c.06-.03.12-.07.19-.12s.13-.08.21-.09.15-.02.21-.02h.23l.47.23c.03.06.07.12.12.19s.08.13.09.21.02.16.02.23v.26c-.12.28-.23.57-.33.87l-.28.89c-.09.3-.16.61-.21.94s-.16.62-.35.87c-.06.03-.12.07-.19.12s-.13.08-.21.09-.15.02-.21.02h-.23ZM289.85,28.88l-.47-.23c-.16-.28-.28-.58-.38-.89s-.17-.62-.23-.94-.16-.61-.3-.89-.21-.59-.21-.94l.23-.47c.06-.03.12-.07.19-.12s.13-.08.21-.09.15-.02.21-.02h.23l.47.23c.22.25.37.53.45.84l.23.94c.08.31.17.62.28.91s.16.62.16.96l-.23.47c-.06.03-.12.07-.19.12s-.13.08-.21.09-.15.02-.21.02h-.23ZM300.86,31.65l-.47-.23c-.31-.75-.59-1.51-.82-2.27s-.43-1.55-.59-2.34-.33-1.59-.52-2.37-.39-1.56-.61-2.34h-.8l-2.67.09c-.03.62-.07,1.25-.12,1.88s-.08,1.25-.09,1.88-.02,1.26-.02,1.9v1.9l.05,1.08-.23.47c-.06.03-.12.07-.19.12s-.13.08-.21.09-.15.02-.21.02h-.23l-.47-.23c-.19-.38-.29-.79-.3-1.24s-.02-.91-.02-1.36v-2.7c.09-.97.16-1.96.19-2.98s.08-2.01.14-2.98.09-1.95.09-2.95.19-1.95.56-2.86c.59-.19,1.2-.41,1.8-.68s1.23-.52,1.85-.75,1.25-.45,1.88-.66,1.27-.35,1.92-.45l.47.23c.03.06.07.12.12.19s.08.13.09.21.02.15.02.21v.23l-.23.47c-.22.16-.46.27-.73.33s-.52.14-.77.23-.51.18-.77.26-.52.15-.77.21v.09c.12.47.23.95.3,1.43s.14.98.19,1.48.13.99.26,1.48.23.96.33,1.43h2.04c.23,0,.43.08.59.23.03.06.07.12.12.19s.08.13.09.21.02.16.02.23v.26l-.23.52c-.06.03-.13.07-.21.12s-.16.08-.23.09l-.23.05c-.08.02-.16.02-.26.02l-1.22-.05v.09c.22.72.41,1.45.56,2.18s.31,1.48.47,2.23.36,1.48.61,2.2.44,1.45.56,2.2l-.23.47c-.06.03-.12.07-.19.12s-.13.08-.21.09-.15.02-.21.02h-.23ZM297.44,20.16c-.09-.44-.2-.86-.3-1.27s-.2-.83-.26-1.27-.12-.88-.16-1.34-.12-.88-.21-1.29h-.14l-.38.19c-.12.06-.26.12-.4.16s-.28.09-.42.12-.27.09-.4.19c-.09.34-.15.72-.16,1.12s-.02.8-.02,1.2,0,.78-.02,1.17-.05.77-.12,1.15h1.08l1.92-.14Z"/><path class="cls-4" d="M309.3,23.84l-.47-.23c-.09-.09-.16-.21-.19-.35s-.06-.27-.09-.4c.25-.91.52-1.8.82-2.67s.64-1.72,1.03-2.53l-1.43-.05-1.12.05-.47-.23c-.09-.12-.16-.26-.21-.4s-.05-.29-.02-.45l.23-.47c.34-.22.73-.32,1.15-.3s.84,0,1.24-.02l1.38.05c.16-.52.32-1.03.49-1.55s.41-1.01.73-1.48c.12-.09.26-.16.4-.21s.29-.05.45-.02l.47.23c.09.12.16.26.21.4s.05.3.02.49c-.16.34-.3.69-.45,1.03s-.26.71-.35,1.1h.8l.98-.05c.25.03.52.04.8.02s.53.07.75.26c.09.12.16.26.21.4s.05.29.02.45l-.23.47c-.22.16-.47.24-.75.26s-.56.02-.84.02l-.84-.05-1.59.05c-.44.97-.84,1.95-1.22,2.93s-.7,1.98-.98,2.98c-.14.09-.28.17-.42.23s-.3.08-.49.05ZM315.88,31.41c-.56-.06-1.09-.19-1.59-.38s-.94-.53-1.31-1.03c-.28-.25-.46-.55-.54-.89s-.13-.7-.16-1.08c.06-.42.16-.83.28-1.22s.34-.74.66-1.05c.5-.41,1.04-.71,1.62-.91s1.21-.29,1.9-.26l1.41.14v-1.64l-.33-2.53c.03-.12.07-.24.12-.35s.1-.21.16-.3c.12-.09.26-.16.4-.21s.29-.05.45-.02l.47.23c.22.81.38,1.64.47,2.48s.14,1.72.14,2.62c.34.06.69.13,1.03.21s.67.2.98.35c.11.12.2.26.26.4s.08.3.05.49l-.26.47c-.12.09-.27.16-.42.21s-.33.05-.52.02l-1.08-.28c-.03.67-.19,1.27-.47,1.8s-.62,1.05-1.03,1.55c-.34.41-.75.7-1.22.87s-.95.27-1.45.3ZM316.92,29.26c.25-.19.45-.4.59-.63s.29-.48.45-.73c.06-.22.13-.43.21-.64s.1-.44.07-.69l-2.3-.14c-.25.06-.5.15-.75.26s-.48.24-.7.4c-.09.19-.18.38-.26.57s-.12.4-.12.62c.03.19.11.36.23.52s.27.3.42.42c.22.09.44.18.66.26s.45.12.7.12l.8-.33ZM324.06,21.27c-.12-.03-.24-.07-.35-.12s-.21-.1-.3-.16c-.59-.66-1.18-1.3-1.77-1.92s-1.24-1.17-1.96-1.64l-.19-.19c-.09-.12-.16-.26-.21-.4s-.05-.29-.02-.45l.23-.47c.12-.09.26-.16.4-.21s.3-.05.49-.02l.56.33v.09l.38.19.66.52,2.7,2.67c.12.16.22.31.28.47s.08.34.05.56l-.23.47c-.09.09-.2.16-.33.19l-.38.09Z"/><path class="cls-4" d="M334.99,27.99c-.28-.03-.56-.09-.84-.16s-.54-.2-.77-.38-.47-.35-.7-.54-.46-.38-.68-.56c-.22-.25-.41-.52-.56-.8s-.27-.58-.33-.89-.11-.63-.14-.96-.03-.66,0-1.01c.09-.53.23-1.06.42-1.59s.44-1.02.75-1.45.63-.88.96-1.31.7-.86,1.1-1.27c.41-.31.81-.62,1.22-.91s.86-.49,1.36-.59,1.02-.15,1.55-.16,1.06-.02,1.59-.02c.5.06.97.17,1.41.33s.86.33,1.27.52.8.43,1.17.73.73.62,1.08.96c.41.5.8,1.01,1.2,1.52s.7,1.09.94,1.71.39,1.26.47,1.9.12,1.29.12,1.95c-.06.22-.12.45-.16.7s-.1.48-.16.7-.12.45-.16.7-.13.47-.26.66c-.06.03-.12.07-.19.12s-.13.08-.21.09-.15.02-.21.02h-.23l-.47-.23c-.03-.06-.07-.12-.12-.19s-.08-.13-.09-.21l-.05-.23c-.02-.08-.02-.16-.02-.26.06-.22.12-.44.16-.66s.11-.44.19-.66.13-.45.16-.68.03-.48,0-.73c-.03-.5-.1-1-.21-1.5s-.28-.97-.52-1.41-.52-.86-.84-1.27-.66-.8-1.01-1.17c-.22-.19-.45-.37-.68-.54s-.48-.3-.73-.4-.5-.2-.75-.33-.52-.2-.8-.23c.03.94-.04,1.84-.21,2.72s-.37,1.76-.59,2.65-.55,1.73-.98,2.53-.98,1.52-1.64,2.18c-.12.09-.26.19-.4.28s-.28.16-.42.19-.3.06-.47.09-.34.05-.49.05ZM335.5,26.02c.62-.53,1.09-1.16,1.41-1.9s.58-1.48.8-2.25.38-1.53.49-2.3.15-1.55.12-2.37h-.33c-.31,0-.61.04-.89.12s-.54.2-.77.38-.47.36-.7.56-.46.41-.68.63c-.31.34-.6.7-.87,1.08s-.5.77-.7,1.2-.37.85-.49,1.29-.16.91-.09,1.41c.03.12.06.26.09.4s.08.27.14.4.13.24.21.35.18.21.3.3.26.2.4.3.28.2.42.28.28.14.42.19.3.07.49.07l.23-.14Z"/><path class="cls-4" d="M364.24,26.07c-.06-.03-.12-.05-.16-.07s-.1-.03-.16-.05-.12-.04-.16-.07-.1-.06-.16-.09c-.09-.12-.16-.25-.19-.38s-.05-.26-.07-.4-.05-.28-.09-.42-.05-.29-.02-.45c.09-.28.16-.55.21-.82s.12-.53.23-.8.25-.51.42-.73.38-.45.63-.7c.19-.16.38-.3.59-.45s.41-.29.61-.45.38-.34.54-.54.3-.4.42-.59l.09-.38c.03-.12.05-.25.05-.38v-.8c-.06-.16-.12-.33-.16-.52s-.1-.36-.16-.52-.15-.31-.26-.47-.24-.3-.4-.42c-.19-.19-.39-.34-.61-.47s-.45-.21-.7-.26-.52-.07-.8-.07h-.8c-.16.06-.32.12-.49.16s-.33.12-.47.21-.29.18-.45.26-.3.18-.42.3c-.09.12-.19.26-.28.4s-.16.28-.21.42-.09.29-.12.45-.11.3-.23.42c-.06.03-.12.07-.19.12s-.13.08-.21.09-.15.02-.21.02h-.23l-.47-.23c-.03-.06-.07-.12-.12-.19s-.08-.13-.09-.21-.02-.16-.02-.23v-.26c.06-.19.12-.38.16-.59s.12-.38.23-.54.23-.32.35-.49.25-.34.38-.49c.31-.28.64-.52.98-.73s.71-.37,1.1-.49.8-.2,1.22-.21.85-.02,1.29-.02c.22.06.42.1.61.12s.37.06.54.14.34.16.49.23.31.18.47.3c.16.16.32.3.49.45s.34.3.49.47.29.35.4.54.21.38.3.56c.06.22.12.45.19.68s.12.46.16.68.07.45.07.7v.75c-.03.16-.06.32-.09.49s-.07.34-.12.49-.11.31-.19.47-.16.3-.26.42l-.33.38h-.09l-.14.28c-.19.22-.38.41-.59.56s-.41.3-.63.45-.41.3-.59.49-.32.39-.45.61l-.23,1.27.09.8-.23.47c-.06.03-.12.06-.16.09s-.11.06-.19.09-.15.05-.21.05-.12.02-.19.05ZM364.24,30.95c-.06-.03-.13-.05-.21-.07s-.16-.04-.23-.07-.16-.07-.23-.12-.15-.09-.21-.12c-.06-.09-.12-.18-.16-.26s-.08-.16-.09-.26-.04-.2-.07-.3-.05-.21-.05-.3c.03-.09.05-.18.07-.26s.04-.16.07-.23.07-.16.12-.23.09-.15.12-.21c.09-.09.2-.16.3-.21s.23-.07.38-.07h.87l.56.28c.09.09.16.2.21.3s.08.23.09.35.02.26.02.4v.4l-.33.61h-.09v.09c-.09.06-.18.11-.26.14s-.16.05-.26.07-.2.03-.3.05-.21.02-.3.02Z"/></g></g></g></svg>