<?xml version="1.0" encoding="UTF-8"?><svg id="_レイヤー_2" xmlns="http://www.w3.org/2000/svg" viewBox="0 0 158.98 179.46"><defs><style>.cls-1{fill:#fe7b17;stroke-width:0px;}</style></defs><g id="_レイヤー_1-2"><path class="cls-1" d="M10.74,163.43C3.69,153.18,0,139.39,0,124.17s3.69-29.01,10.74-39.26c8.17-11.86,18.91-16.03,27.4-16.03s19.23,4.17,27.41,16.03c7.05,10.26,10.74,24.04,10.74,39.26s-3.69,29.01-10.74,39.26c-8.17,11.86-18.91,16.03-27.41,16.03s-19.23-4.17-27.4-16.03ZM19.71,91.64c-5.77,9.13-7.85,21.31-7.85,32.53s2.08,23.4,7.85,32.53c5.61,8.97,12.98,11.86,18.43,11.86s12.82-2.88,18.43-11.86c5.77-9.14,7.85-21.32,7.85-32.53s-2.08-23.4-7.85-32.53c-5.61-8.98-12.98-11.86-18.43-11.86s-12.82,2.88-18.43,11.86Z"/><path class="cls-1" d="M97.44,97.08c.32-5.93,2.24-11.38,4.97-15.71,7.05-11.06,18.43-12.5,24.84-12.5,20.19,0,30.13,14.1,30.13,28.85,0,7.69-2.88,18.27-13.78,23.72,3.69,1.44,15.39,7.37,15.39,25.8,0,20.03-14.58,32.21-32.85,32.21-11.06,0-24.04-4.65-29.81-18.43-1.6-3.85-2.24-7.37-2.4-11.22h11.86c.48,3.85,1.76,7.85,3.85,10.74,3.53,5.13,9.78,8.01,16.51,8.01,11.86,0,20.99-9.78,20.99-21.64,0-6.09-2.4-14.26-10.58-17.95-3.37-1.6-8.01-2.4-12.18-2.24v-10.58c4.17.32,8.81-.48,12.18-2.24,3.37-1.76,8.97-6.25,8.97-15.87s-5.13-18.27-18.27-18.27c-4.33,0-9.62.8-13.78,6.09-2.08,2.72-3.85,6.73-4.17,11.22h-11.86Z"/><path class="cls-1" d="M24.33,1.15c1.62,0,4.03.11,5.83,1.33,1.4.94,2.63,2.77,2.63,5.33,0,3.67-2.41,6.37-6.04,6.62l7.63,10.73h-3.24l-7.3-10.51h-.68v10.51h-2.66V1.15h3.85ZM23.14,12.27h1.69c3.31,0,5.29-1.58,5.29-4.39,0-1.33-.4-2.66-1.91-3.53-1.08-.61-2.3-.68-3.45-.68h-1.62v8.6Z"/><path class="cls-1" d="M50.99,3.67h-9.79v7.13h9.5v2.52h-9.5v9.32h9.79v2.52h-12.45V1.15h12.45v2.52Z"/><path class="cls-1" d="M69.12,18.39h-10.22l-2.88,6.77h-2.95L64.12,0l10.76,25.16h-2.95l-2.81-6.77ZM68.08,15.87l-4.03-9.61-4.1,9.61h8.13Z"/><path class="cls-1" d="M88.98,5.9c-.32-.65-.86-1.37-1.4-1.8-.47-.36-1.33-.83-2.7-.83-2.38,0-4.03,1.48-4.03,3.71,0,.94.25,1.48.9,2.09.72.72,1.62,1.12,2.52,1.51l2.3,1.01c1.4.61,2.7,1.26,3.71,2.27,1.22,1.22,1.73,2.63,1.73,4.36,0,4.43-3.27,7.38-7.59,7.38-1.58,0-3.56-.32-5.22-1.94-1.19-1.15-1.91-2.81-2.23-4.25l2.59-.72c.18,1.26.76,2.34,1.44,3.06,1.04,1.04,2.23,1.33,3.45,1.33,3.27,0,4.82-2.34,4.82-4.75,0-1.08-.32-2.02-1.19-2.81-.68-.65-1.62-1.08-2.88-1.66l-2.16-1.01c-.94-.43-2.12-.94-3.2-1.98-1.04-1.01-1.65-2.12-1.65-3.92,0-3.71,2.84-6.19,6.73-6.19,1.48,0,2.66.29,3.85,1.08.97.65,1.8,1.62,2.34,2.66l-2.12,1.4Z"/><path class="cls-1" d="M95.6,13.17c0-7.16,5.58-12.42,12.49-12.42s12.48,5.26,12.48,12.42-5.54,12.42-12.48,12.42-12.49-5.29-12.49-12.42ZM98.34,13.17c0,5.51,4.35,9.9,9.75,9.9s9.75-4.39,9.75-9.9-4.35-9.9-9.75-9.9-9.75,4.39-9.75,9.9Z"/><path class="cls-1" d="M125.47,25.16V.14l18.71,19.62V1.15h2.66v25.09l-18.71-19.62v18.54h-2.66Z"/><path class="cls-1" d="M103.98,48.03h-40.64c-2.76,0-5-2.24-5-5s2.24-5,5-5h40.64c2.76,0,5,2.24,5,5s-2.24,5-5,5Z"/></g></svg>