<?xml version="1.0" encoding="UTF-8"?><svg xmlns="http://www.w3.org/2000/svg" viewBox="0 0 357.74 90.25"><defs><style>.cls-1{isolation:isolate;}.cls-2{fill:#fe7b17;}.cls-2,.cls-3,.cls-4{stroke-width:0px;}.cls-3{fill:#fff;}.cls-4{fill:#ffbd8b;}.cls-5{mix-blend-mode:multiply;}</style></defs><g class="cls-1"><g id="_レイヤー_2"><g id="_レイヤー_1-2"><g class="cls-5"><path class="cls-2" d="M28.89,87.86c-9.53,0-17.37-2.36-23.53-7.09-1.43-1.07-2.19-2.54-2.26-4.4-.07-.21-.11-.39-.11-.54,0-1.65.5-3.15,1.5-4.51l1.61-2.04c.93-1.36,2.26-2.15,3.97-2.36h.86c1.36,0,2.61.39,3.76,1.18,4.01,2.65,8.06,3.97,12.14,3.97,3.87,0,6.93-.81,9.18-2.42s3.38-3.92,3.38-6.93c0-3.29-1.04-5.84-3.12-7.63-2.08-1.79-5.91-2.9-11.49-3.33-1.72-.14-3.21-.84-4.46-2.09-1.25-1.25-1.88-2.77-1.88-4.57v-1.07c0-1.72.63-3.2,1.88-4.46,1.25-1.25,2.74-1.99,4.46-2.2,4.3-.57,7.38-1.74,9.24-3.49,1.86-1.75,2.79-4.06,2.79-6.93s-.79-4.94-2.36-6.45c-1.58-1.5-3.9-2.26-6.98-2.26s-6.41,1-9.56,3.01c-1.22.79-2.54,1.18-3.97,1.18h-.86c-1.72-.21-3.12-.97-4.19-2.26l-1.83-2.15c-1-1.15-1.5-2.47-1.5-3.97v-.75c.21-1.72,1.04-3.04,2.47-3.97,6.45-4.22,13.25-6.34,20.41-6.34,8.59,0,15.42,1.95,20.46,5.85,5.05,3.9,7.57,9.47,7.57,16.7,0,8.38-4.33,14.36-13,17.94-.14.07-.21.2-.21.38s.07.31.21.38c4.73,1.43,8.5,3.83,11.33,7.2,2.83,3.37,4.24,7.56,4.24,12.57s-1.4,9.26-4.19,12.94c-2.79,3.69-6.45,6.43-10.96,8.22s-9.53,2.69-15.04,2.69Z"/><path class="cls-2" d="M86.87,61.34c-.47.2-.92.29-1.35.29s-.86-.1-1.29-.29c-.86-.35-1.46-.96-1.82-1.82l-1.46-3.69c-.16-.35-.23-.7-.23-1.05,0-.47.12-.92.35-1.35.43-.78,1.09-1.29,1.99-1.52,1.48-.35,2.93-.72,4.34-1.11.23-.08.99-.32,2.26-.73,1.27-.41,2.33-.73,3.19-.97.86-.23,2.04-.58,3.54-1.03,1.5-.45,2.88-.81,4.13-1.08,1.25-.27,2.62-.56,4.1-.85,1.48-.29,2.92-.51,4.31-.64,1.39-.14,2.67-.21,3.84-.21,3.79,0,7.19.67,10.2,2.02,3.01,1.35,5.4,3.41,7.18,6.18,1.78,2.77,2.67,6.04,2.67,9.79,0,6.29-2.7,11.54-8.09,15.76s-13.05,6.78-22.97,7.68c-.12.04-.25.06-.41.06-.86,0-1.68-.23-2.46-.7-.86-.55-1.5-1.31-1.93-2.29l-1.41-3.28c-.16-.31-.23-.62-.23-.94,0-.43.12-.84.35-1.23.47-.7,1.11-1.07,1.93-1.11,4.96-.27,9.27-.97,12.92-2.08,3.65-1.11,6.55-2.7,8.7-4.75,2.15-2.05,3.22-4.48,3.22-7.29s-.87-4.94-2.61-6.62c-1.74-1.68-4.23-2.52-7.47-2.52-5.59,0-14.08,2.46-25.49,7.38Z"/><path class="cls-2" d="M169.72,63.68c1.21-3.67,2.21-8.01,2.99-13.01.04-.12.02-.21-.06-.26-.08-.06-.18-.07-.29-.03-2.7.78-5.05,2.11-7.06,3.98-2.01,1.88-3.47,3.85-4.37,5.92-.9,2.07-1.35,4.08-1.35,6.04,0,2.46.37,4.39,1.11,5.77.74,1.39,1.66,2.08,2.75,2.08s2.19-.85,3.16-2.55c.98-1.7,2.01-4.35,3.11-7.94ZM183.55,88.64c-.39.12-.76.18-1.11.18-.63,0-1.23-.14-1.82-.41-.98-.43-1.76-1.07-2.34-1.93l-1.7-2.75c-.23-.35-.35-.72-.35-1.11,0-.31.06-.64.18-1,.35-.7.92-1.13,1.7-1.29.7-.16,1.5-.35,2.4-.59,3.91-.94,6.98-2.7,9.23-5.3,2.25-2.6,3.37-5.81,3.37-9.64s-.87-6.96-2.61-9.52c-1.74-2.56-4.23-4.27-7.47-5.13-.31-.08-.49.04-.53.35-.9,5.35-2.03,10.37-3.4,15.06-1.88,6.21-4.15,11.07-6.83,14.59-2.68,3.52-5.71,5.27-9.11,5.27-3.63,0-6.7-1.76-9.2-5.27-2.5-3.52-3.75-7.81-3.75-12.89,0-3.48.72-6.81,2.17-9.99,1.44-3.18,3.41-5.96,5.89-8.32,2.48-2.36,5.47-4.25,8.96-5.65,3.5-1.41,7.2-2.11,11.1-2.11,3.67,0,7.07.62,10.2,1.85,3.12,1.23,5.73,2.92,7.82,5.07,2.09,2.15,3.72,4.68,4.89,7.59,1.17,2.91,1.76,6.06,1.76,9.46,0,5.9-1.63,10.89-4.89,14.97-3.26,4.08-8.12,6.92-14.56,8.53Z"/><path class="cls-2" d="M270.61,38.8c.33,0,.49-.19.49-.56v-3.23c0-.37-.17-.56-.49-.56h-3.87c-.33,0-.49.19-.49.56v3.23c0,.38.16.56.49.56h3.87ZM235.67,68.4c.42-.09.82-.14,1.2-.14.61,0,1.22.16,1.83.49.94.56,1.5,1.38,1.69,2.46l.35,1.83c.05.28.07.56.07.84,0,.84-.24,1.66-.7,2.46-.56.98-1.43,1.69-2.6,2.11-4.55,1.55-10.01,3.33-16.38,5.34-.38.14-.77.21-1.2.21-.61,0-1.22-.16-1.83-.49-.94-.56-1.52-1.38-1.76-2.46l-.56-2.6c-.09-.33-.14-.63-.14-.91,0-.8.23-1.55.7-2.25.61-.98,1.48-1.62,2.6-1.9.7-.23,1.94-.59,3.73-1.05.33-.09.49-.33.49-.7v-14.34c0-.33-.17-.49-.49-.49h-2.11c-1.17,0-2.16-.41-2.95-1.23-.8-.82-1.2-1.79-1.2-2.92v-1.27c0-1.17.4-2.16,1.2-2.95.8-.8,1.78-1.2,2.95-1.2h2.11c.33,0,.49-.19.49-.56v-9.98c0-.33-.17-.49-.49-.49h-2.74c-1.17,0-2.16-.41-2.95-1.23-.8-.82-1.2-1.79-1.2-2.92v-1.34c0-1.17.4-2.16,1.2-2.95.8-.8,1.78-1.2,2.95-1.2h16.38c1.12,0,2.1.4,2.92,1.2.82.8,1.23,1.78,1.23,2.95v1.34c0,1.12-.41,2.1-1.23,2.92-.82.82-1.79,1.23-2.92,1.23h-2.67c-.33,0-.49.16-.49.49v9.98c0,.38.16.56.49.56h1.41c1.12,0,2.1.4,2.92,1.2.82.8,1.23,1.78,1.23,2.95v1.27c0,1.12-.41,2.1-1.23,2.92-.82.82-1.79,1.23-2.92,1.23h-1.41c-.33,0-.49.16-.49.49v11.39c0,.14.05.25.14.32.09.07.21.11.35.11.52-.19,1.2-.42,2.04-.7ZM267.24,79.02c0,.33.16.49.49.49h12.16c1.17,0,2.16.41,2.95,1.23.8.82,1.2,1.79,1.2,2.92v1.2c0,1.12-.4,2.1-1.2,2.92-.8.82-1.78,1.23-2.95,1.23h-38.04c-1.12,0-2.1-.41-2.92-1.23-.82-.82-1.23-1.79-1.23-2.92v-1.2c0-1.12.41-2.1,1.23-2.92.82-.82,1.79-1.23,2.92-1.23h14.13c.33,0,.49-.16.49-.49v-4.15c0-.33-.17-.49-.49-.49h-9.35c-1.17,0-2.16-.41-2.95-1.23-.8-.82-1.2-1.79-1.2-2.92v-1.05c0-1.17.4-2.16,1.2-2.95.8-.8,1.78-1.2,2.95-1.2h9.35c.33,0,.49-.19.49-.56v-3.87c0-.33-.17-.49-.49-.49h-9.14c-1.17,0-2.16-.41-2.95-1.23-.8-.82-1.2-1.79-1.2-2.92v-26.16c0-1.12.4-2.1,1.2-2.92.8-.82,1.78-1.23,2.95-1.23h30.02c1.17,0,2.16.41,2.95,1.23.8.82,1.2,1.79,1.2,2.92v26.16c0,1.12-.4,2.1-1.2,2.92-.8.82-1.78,1.23-2.95,1.23h-9.14c-.33,0-.49.16-.49.49v3.87c0,.38.16.56.49.56h9.84c1.12,0,2.1.4,2.92,1.2.82.8,1.23,1.78,1.23,2.95v1.05c0,1.12-.41,2.1-1.23,2.92-.82.82-1.79,1.23-2.92,1.23h-9.84c-.33,0-.49.16-.49.49v4.15ZM252.61,34.44c-.33,0-.49.19-.49.56v3.23c0,.38.16.56.49.56h4.36c.37,0,.56-.19.56-.56v-3.23c0-.37-.19-.56-.56-.56h-4.36ZM252.61,46.95c-.33,0-.49.16-.49.49v3.3c0,.38.16.56.49.56h4.36c.37,0,.56-.19.56-.56v-3.3c0-.33-.19-.49-.56-.49h-4.36ZM270.61,51.31c.33,0,.49-.19.49-.56v-3.3c0-.33-.17-.49-.49-.49h-3.87c-.33,0-.49.16-.49.49v3.3c0,.38.16.56.49.56h3.87Z"/><path class="cls-2" d="M346.7,46.45c0-.33-.17-.49-.49-.49h-12.66c-.33,0-.49.16-.49.49v9c0,.38.16.56.49.56h12.66c.33,0,.49-.19.49-.56v-9ZM333.06,34.77c0,.38.16.56.49.56h20.04c1.12,0,2.1.41,2.92,1.23.82.82,1.23,1.79,1.23,2.92v46.62c0,1.17-.41,2.16-1.23,2.95-.82.8-1.79,1.2-2.92,1.2h-3.73c-.89,0-1.64-.31-2.25-.91-.61-.61-.91-1.34-.91-2.18,0-.28-.12-.42-.35-.42h-36.7c-.24,0-.35.14-.35.42,0,.84-.31,1.57-.91,2.18-.61.61-1.36.91-2.25.91h-3.23c-1.12,0-2.1-.4-2.92-1.2-.82-.8-1.23-1.78-1.23-2.95v-46.62c0-1.12.41-2.1,1.23-2.92.82-.82,1.79-1.23,2.92-1.23h18.84c.33,0,.49-.19.49-.56v-8.72c0-1.17.41-2.16,1.23-2.95.82-.8,1.79-1.2,2.92-1.2h2.53c1.12,0,2.1.4,2.92,1.2.82.8,1.23,1.78,1.23,2.95v8.72ZM322.23,46.45c0-.33-.17-.49-.49-.49h-11.95c-.33,0-.49.16-.49.49v9c0,.38.16.56.49.56h11.95c.33,0,.49-.19.49-.56v-9ZM309.79,66.2c-.33,0-.49.19-.49.56v9.07c0,.38.16.56.49.56h11.95c.33,0,.49-.19.49-.56v-9.07c0-.37-.17-.56-.49-.56h-11.95ZM333.06,75.84c0,.38.16.56.49.56h12.66c.33,0,.49-.19.49-.56v-9.07c0-.37-.17-.56-.49-.56h-12.66c-.33,0-.49.19-.49.56v9.07Z"/></g><g class="cls-5"><path class="cls-4" d="M27.39,86.36c-9.53,0-17.37-2.36-23.53-7.09-1.43-1.07-1.92-2.57-2.26-4.4-.04-.22-.11-.39-.11-.54,0-1.65.5-3.15,1.5-4.51l1.61-2.04c.93-1.36,2.26-2.15,3.97-2.36h.86c1.36,0,2.61.39,3.76,1.18,4.01,2.65,8.06,3.97,12.14,3.97,3.87,0,6.93-.81,9.18-2.42s3.38-3.92,3.38-6.93c0-3.29-1.04-5.84-3.12-7.63-2.08-1.79-5.91-2.88-11.49-3.33-1.72-.14-3.21-.84-4.46-2.09-1.25-1.25-1.88-2.77-1.88-4.57v-1.07c0-1.72.63-3.2,1.88-4.46,1.25-1.25,2.74-1.98,4.46-2.2,4.3-.55,7.38-1.74,9.24-3.49,1.86-1.75,2.79-4.06,2.79-6.93s-.79-4.94-2.36-6.45c-1.58-1.5-3.9-2.26-6.98-2.26s-6.41,1-9.56,3.01c-1.22.79-2.54,1.18-3.97,1.18h-.86c-1.72-.21-3.12-.97-4.19-2.26l-1.83-2.15c-1-1.15-1.5-2.47-1.5-3.97v-.75c.21-1.72,1.04-3.04,2.47-3.97C12.99,3.61,19.8,1.5,26.96,1.5c8.59,0,15.42,1.95,20.46,5.85,5.05,3.9,7.57,9.47,7.57,16.7,0,8.38-4.33,14.36-13,17.94-.14.07-.21.2-.21.38s.07.31.21.38c4.73,1.43,8.5,3.83,11.33,7.2,2.83,3.37,4.24,7.56,4.24,12.57s-1.4,9.26-4.19,12.94c-2.79,3.69-6.45,6.43-10.96,8.22s-9.53,2.69-15.04,2.69Z"/><path class="cls-4" d="M85.37,59.84c-.47.2-.92.29-1.35.29s-.86-.1-1.29-.29c-.86-.35-1.46-.96-1.82-1.82l-1.46-3.69c-.16-.35-.23-.7-.23-1.05,0-.47.12-.92.35-1.35.43-.78,1.09-1.3,1.99-1.52,1.48-.37,2.93-.72,4.34-1.11.23-.08.99-.32,2.26-.73,1.27-.41,2.33-.73,3.19-.97.86-.23,2.04-.58,3.54-1.03,1.5-.45,2.88-.81,4.13-1.08,1.25-.27,2.62-.56,4.1-.85,1.48-.29,2.92-.51,4.31-.64,1.39-.14,2.67-.21,3.84-.21,3.79,0,7.19.67,10.2,2.02,3.01,1.35,5.4,3.41,7.18,6.18,1.78,2.77,2.67,6.04,2.67,9.79,0,6.29-2.7,11.54-8.09,15.76s-13.05,6.78-22.97,7.68c-.12.04-.25.06-.41.06-.86,0-1.69-.22-2.46-.7-.87-.54-1.5-1.31-1.93-2.29l-1.41-3.28c-.16-.31-.23-.62-.23-.94,0-.43.12-.84.35-1.23.47-.7,1.11-1.07,1.93-1.11,4.96-.26,9.27-.97,12.92-2.08,3.65-1.11,6.55-2.7,8.7-4.75,2.15-2.05,3.22-4.48,3.22-7.29s-.87-4.94-2.61-6.62c-1.74-1.68-4.23-2.52-7.47-2.52-5.59,0-14.08,2.46-25.49,7.38Z"/><path class="cls-4" d="M168.22,62.18c1.17-3.69,2.21-8.01,2.99-13.01.04-.12.02-.21-.06-.26s-.18-.07-.29-.03c-2.7.78-5.05,2.11-7.06,3.98-2.01,1.88-3.47,3.85-4.37,5.92-.9,2.07-1.35,4.08-1.35,6.04,0,2.46.37,4.39,1.11,5.77.74,1.39,1.66,2.08,2.75,2.08s2.19-.85,3.16-2.55c.98-1.7,1.97-4.36,3.11-7.94ZM182.05,87.14c-.39.12-.76.18-1.11.18-.63,0-1.23-.14-1.82-.41-.98-.43-1.76-1.07-2.34-1.93l-1.7-2.75c-.23-.35-.35-.72-.35-1.11,0-.31.06-.64.18-1,.35-.7.92-1.12,1.7-1.29.7-.15,1.5-.35,2.4-.59,3.91-.94,6.98-2.7,9.23-5.3,2.25-2.6,3.37-5.81,3.37-9.64s-.87-6.96-2.61-9.52c-1.74-2.56-4.23-4.27-7.47-5.13-.31-.08-.49.04-.53.35-.9,5.35-2.01,10.38-3.4,15.06-1.85,6.22-4.15,11.07-6.83,14.59-2.68,3.52-5.71,5.27-9.11,5.27-3.63,0-6.7-1.76-9.2-5.27-2.5-3.52-3.75-7.81-3.75-12.89,0-3.48.72-6.81,2.17-9.99,1.44-3.18,3.41-5.96,5.89-8.32,2.48-2.36,5.47-4.25,8.96-5.65,3.5-1.41,7.2-2.11,11.1-2.11,3.67,0,7.07.62,10.2,1.85,3.12,1.23,5.73,2.92,7.82,5.07,2.09,2.15,3.72,4.68,4.89,7.59,1.17,2.91,1.76,6.06,1.76,9.46,0,5.9-1.63,10.89-4.89,14.97-3.26,4.08-8.12,6.92-14.56,8.53Z"/><path class="cls-4" d="M269.11,37.3c.33,0,.49-.19.49-.56v-3.23c0-.37-.17-.56-.49-.56h-3.87c-.33,0-.49.19-.49.56v3.23c0,.38.16.56.49.56h3.87ZM234.17,66.9c.42-.09.82-.14,1.2-.14.61,0,1.22.16,1.83.49.94.56,1.5,1.38,1.69,2.46l.35,1.83c.05.28.07.56.07.84,0,.84-.24,1.66-.7,2.46-.57.98-1.43,1.69-2.6,2.11-4.55,1.55-10.01,3.33-16.38,5.34-.38.14-.77.21-1.2.21-.61,0-1.22-.16-1.83-.49-.94-.56-1.52-1.38-1.76-2.46l-.56-2.6c-.09-.33-.14-.63-.14-.91,0-.8.25-1.54.7-2.25.63-.97,1.49-1.57,2.6-1.9.71-.21,1.94-.59,3.73-1.05.33-.09.49-.33.49-.7v-14.34c0-.33-.17-.49-.49-.49h-2.11c-1.17,0-2.16-.41-2.95-1.23-.8-.82-1.2-1.79-1.2-2.92v-1.27c0-1.17.4-2.16,1.2-2.95.8-.8,1.78-1.2,2.95-1.2h2.11c.33,0,.49-.19.49-.56v-9.98c0-.33-.17-.49-.49-.49h-2.74c-1.17,0-2.16-.41-2.95-1.23-.8-.82-1.2-1.79-1.2-2.92v-1.34c0-1.17.4-2.16,1.2-2.95.8-.8,1.78-1.2,2.95-1.2h16.38c1.12,0,2.1.4,2.92,1.2.82.8,1.23,1.78,1.23,2.95v1.34c0,1.12-.41,2.1-1.23,2.92-.82.82-1.79,1.23-2.92,1.23h-2.67c-.33,0-.49.16-.49.49v9.98c0,.38.16.56.49.56h1.41c1.12,0,2.1.4,2.92,1.2.82.8,1.23,1.78,1.23,2.95v1.27c0,1.12-.41,2.1-1.23,2.92-.82.82-1.79,1.23-2.92,1.23h-1.41c-.33,0-.49.16-.49.49v11.39c0,.14.05.25.14.32s.21.11.35.11c.52-.19,1.2-.42,2.04-.7ZM265.74,77.52c0,.33.16.49.49.49h12.16c1.17,0,2.16.41,2.95,1.23.8.82,1.2,1.79,1.2,2.92v1.2c0,1.12-.4,2.1-1.2,2.92-.8.82-1.78,1.23-2.95,1.23h-38.04c-1.12,0-2.1-.41-2.92-1.23-.82-.82-1.23-1.79-1.23-2.92v-1.2c0-1.12.41-2.1,1.23-2.92.82-.82,1.79-1.23,2.92-1.23h14.13c.33,0,.49-.16.49-.49v-4.15c0-.33-.17-.49-.49-.49h-9.35c-1.17,0-2.16-.41-2.95-1.23-.8-.82-1.2-1.79-1.2-2.92v-1.05c0-1.17.4-2.16,1.2-2.95.8-.8,1.78-1.2,2.95-1.2h9.35c.33,0,.49-.19.49-.56v-3.87c0-.33-.17-.49-.49-.49h-9.14c-1.17,0-2.16-.41-2.95-1.23-.8-.82-1.2-1.79-1.2-2.92v-26.16c0-1.12.4-2.1,1.2-2.92.8-.82,1.78-1.23,2.95-1.23h30.02c1.17,0,2.16.41,2.95,1.23.8.82,1.2,1.79,1.2,2.92v26.16c0,1.12-.4,2.1-1.2,2.92-.8.82-1.78,1.23-2.95,1.23h-9.14c-.33,0-.49.16-.49.49v3.87c0,.38.16.56.49.56h9.84c1.12,0,2.1.4,2.92,1.2.82.8,1.23,1.78,1.23,2.95v1.05c0,1.12-.41,2.1-1.23,2.92-.82.82-1.79,1.23-2.92,1.23h-9.84c-.33,0-.49.16-.49.49v4.15ZM251.11,32.94c-.33,0-.49.19-.49.56v3.23c0,.38.16.56.49.56h4.36c.37,0,.56-.19.56-.56v-3.23c0-.37-.19-.56-.56-.56h-4.36ZM251.11,45.45c-.33,0-.49.16-.49.49v3.3c0,.38.16.56.49.56h4.36c.37,0,.56-.19.56-.56v-3.3c0-.33-.19-.49-.56-.49h-4.36ZM269.11,49.81c.33,0,.49-.19.49-.56v-3.3c0-.33-.17-.49-.49-.49h-3.87c-.33,0-.49.16-.49.49v3.3c0,.38.16.56.49.56h3.87Z"/><path class="cls-4" d="M345.2,44.95c0-.33-.17-.49-.49-.49h-12.66c-.33,0-.49.16-.49.49v9c0,.38.16.56.49.56h12.66c.33,0,.49-.19.49-.56v-9ZM331.56,33.27c0,.38.16.56.49.56h20.04c1.12,0,2.1.41,2.92,1.23.82.82,1.23,1.79,1.23,2.92v46.62c0,1.17-.41,2.16-1.23,2.95-.82.8-1.79,1.2-2.92,1.2h-3.73c-.89,0-1.64-.31-2.25-.91-.61-.61-.91-1.34-.91-2.18,0-.28-.12-.42-.35-.42h-36.7c-.24,0-.35.14-.35.42,0,.84-.31,1.57-.91,2.18-.61.61-1.36.91-2.25.91h-3.23c-1.12,0-2.1-.4-2.92-1.2-.82-.8-1.23-1.78-1.23-2.95v-46.62c0-1.12.41-2.1,1.23-2.92.82-.82,1.79-1.23,2.92-1.23h18.84c.33,0,.49-.19.49-.56v-8.72c0-1.17.41-2.16,1.23-2.95.82-.8,1.79-1.2,2.92-1.2h2.53c1.12,0,2.1.4,2.92,1.2.82.8,1.23,1.78,1.23,2.95v8.72ZM320.73,44.95c0-.33-.17-.49-.49-.49h-11.95c-.33,0-.49.16-.49.49v9c0,.38.16.56.49.56h11.95c.33,0,.49-.19.49-.56v-9ZM308.29,64.7c-.33,0-.49.19-.49.56v9.07c0,.38.16.56.49.56h11.95c.33,0,.49-.19.49-.56v-9.07c0-.37-.17-.56-.49-.56h-11.95ZM331.56,74.34c0,.38.16.56.49.56h12.66c.33,0,.49-.19.49-.56v-9.07c0-.37-.17-.56-.49-.56h-12.66c-.33,0-.49.19-.49.56v9.07Z"/></g><path class="cls-3" d="M25.89,84.86c-9.53,0-17.37-2.36-23.53-7.09-1.43-1.07-2.19-2.54-2.26-4.4-.07-.21-.11-.39-.11-.54,0-1.65.5-3.15,1.5-4.51l1.61-2.04c.93-1.36,2.26-2.15,3.97-2.36h.86c1.36,0,2.61.39,3.76,1.18,4.01,2.65,8.06,3.97,12.14,3.97,3.87,0,6.93-.81,9.18-2.42s3.38-3.92,3.38-6.93c0-3.29-1.04-5.84-3.12-7.63-2.08-1.79-5.91-2.9-11.49-3.33-1.72-.14-3.21-.84-4.46-2.09-1.25-1.25-1.88-2.77-1.88-4.57v-1.07c0-1.72.63-3.2,1.88-4.46,1.25-1.25,2.74-1.99,4.46-2.2,4.3-.57,7.38-1.74,9.24-3.49,1.86-1.75,2.79-4.06,2.79-6.93s-.79-4.94-2.36-6.45c-1.58-1.5-3.9-2.26-6.98-2.26s-6.41,1-9.56,3.01c-1.22.79-2.54,1.18-3.97,1.18h-.86c-1.72-.21-3.12-.97-4.19-2.26l-1.83-2.15c-1-1.15-1.5-2.47-1.5-3.97v-.75c.21-1.72,1.04-3.04,2.47-3.97C11.49,2.11,18.3,0,25.46,0c8.59,0,15.42,1.95,20.46,5.85,5.05,3.9,7.57,9.47,7.57,16.7,0,8.38-4.33,14.36-13,17.94-.14.07-.21.2-.21.38s.07.31.21.38c4.73,1.43,8.5,3.83,11.33,7.2,2.83,3.37,4.24,7.56,4.24,12.57s-1.4,9.26-4.19,12.94c-2.79,3.69-6.45,6.43-10.96,8.22s-9.53,2.69-15.04,2.69Z"/><path class="cls-3" d="M83.87,58.34c-.47.2-.92.29-1.35.29s-.86-.1-1.29-.29c-.86-.35-1.46-.96-1.82-1.82l-1.46-3.69c-.16-.35-.23-.7-.23-1.05,0-.47.12-.92.35-1.35.43-.78,1.09-1.29,1.99-1.52,1.48-.35,2.93-.72,4.34-1.11.23-.08.99-.32,2.26-.73,1.27-.41,2.33-.73,3.19-.97.86-.23,2.04-.58,3.54-1.03,1.5-.45,2.88-.81,4.13-1.08,1.25-.27,2.62-.56,4.1-.85,1.48-.29,2.92-.51,4.31-.64,1.39-.14,2.67-.21,3.84-.21,3.79,0,7.19.67,10.2,2.02,3.01,1.35,5.4,3.41,7.18,6.18,1.78,2.77,2.67,6.04,2.67,9.79,0,6.29-2.7,11.54-8.09,15.76s-13.05,6.78-22.97,7.68c-.12.04-.25.06-.41.06-.86,0-1.68-.23-2.46-.7-.86-.55-1.5-1.31-1.93-2.29l-1.41-3.28c-.16-.31-.23-.62-.23-.94,0-.43.12-.84.35-1.23.47-.7,1.11-1.07,1.93-1.11,4.96-.27,9.27-.97,12.92-2.08,3.65-1.11,6.55-2.7,8.7-4.75,2.15-2.05,3.22-4.48,3.22-7.29s-.87-4.94-2.61-6.62c-1.74-1.68-4.23-2.52-7.47-2.52-5.59,0-14.08,2.46-25.49,7.38Z"/><path class="cls-3" d="M166.72,60.68c1.21-3.67,2.21-8.01,2.99-13.01.04-.12.02-.21-.06-.26-.08-.06-.18-.07-.29-.03-2.7.78-5.05,2.11-7.06,3.98-2.01,1.88-3.47,3.85-4.37,5.92-.9,2.07-1.35,4.08-1.35,6.04,0,2.46.37,4.39,1.11,5.77.74,1.39,1.66,2.08,2.75,2.08s2.19-.85,3.16-2.55c.98-1.7,2.01-4.35,3.11-7.94ZM180.55,85.64c-.39.12-.76.18-1.11.18-.63,0-1.23-.14-1.82-.41-.98-.43-1.76-1.07-2.34-1.93l-1.7-2.75c-.23-.35-.35-.72-.35-1.11,0-.31.06-.64.18-1,.35-.7.92-1.13,1.7-1.29.7-.16,1.5-.35,2.4-.59,3.91-.94,6.98-2.7,9.23-5.3,2.25-2.6,3.37-5.81,3.37-9.64s-.87-6.96-2.61-9.52c-1.74-2.56-4.23-4.27-7.47-5.13-.31-.08-.49.04-.53.35-.9,5.35-2.03,10.37-3.4,15.06-1.88,6.21-4.15,11.07-6.83,14.59-2.68,3.52-5.71,5.27-9.11,5.27-3.63,0-6.7-1.76-9.2-5.27-2.5-3.52-3.75-7.81-3.75-12.89,0-3.48.72-6.81,2.17-9.99,1.44-3.18,3.41-5.96,5.89-8.32,2.48-2.36,5.47-4.25,8.96-5.65,3.5-1.41,7.2-2.11,11.1-2.11,3.67,0,7.07.62,10.2,1.85,3.12,1.23,5.73,2.92,7.82,5.07,2.09,2.15,3.72,4.68,4.89,7.59,1.17,2.91,1.76,6.06,1.76,9.46,0,5.9-1.63,10.89-4.89,14.97-3.26,4.08-8.12,6.92-14.56,8.53Z"/><path class="cls-3" d="M267.61,35.8c.33,0,.49-.19.49-.56v-3.23c0-.37-.17-.56-.49-.56h-3.87c-.33,0-.49.19-.49.56v3.23c0,.38.16.56.49.56h3.87ZM232.67,65.4c.42-.09.82-.14,1.2-.14.61,0,1.22.16,1.83.49.94.56,1.5,1.38,1.69,2.46l.35,1.83c.05.28.07.56.07.84,0,.84-.24,1.66-.7,2.46-.56.98-1.43,1.69-2.6,2.11-4.55,1.55-10.01,3.33-16.38,5.34-.38.14-.77.21-1.2.21-.61,0-1.22-.16-1.83-.49-.94-.56-1.52-1.38-1.76-2.46l-.56-2.6c-.09-.33-.14-.63-.14-.91,0-.8.23-1.55.7-2.25.61-.98,1.48-1.62,2.6-1.9.7-.23,1.94-.59,3.73-1.05.33-.09.49-.33.49-.7v-14.34c0-.33-.17-.49-.49-.49h-2.11c-1.17,0-2.16-.41-2.95-1.23-.8-.82-1.2-1.79-1.2-2.92v-1.27c0-1.17.4-2.16,1.2-2.95.8-.8,1.78-1.2,2.95-1.2h2.11c.33,0,.49-.19.49-.56v-9.98c0-.33-.17-.49-.49-.49h-2.74c-1.17,0-2.16-.41-2.95-1.23-.8-.82-1.2-1.79-1.2-2.92v-1.34c0-1.17.4-2.16,1.2-2.95.8-.8,1.78-1.2,2.95-1.2h16.38c1.12,0,2.1.4,2.92,1.2.82.8,1.23,1.78,1.23,2.95v1.34c0,1.12-.41,2.1-1.23,2.92-.82.82-1.79,1.23-2.92,1.23h-2.67c-.33,0-.49.16-.49.49v9.98c0,.38.16.56.49.56h1.41c1.12,0,2.1.4,2.92,1.2.82.8,1.23,1.78,1.23,2.95v1.27c0,1.12-.41,2.1-1.23,2.92-.82.82-1.79,1.23-2.92,1.23h-1.41c-.33,0-.49.16-.49.49v11.39c0,.14.05.25.14.32.09.07.21.11.35.11.52-.19,1.2-.42,2.04-.7ZM264.24,76.02c0,.33.16.49.49.49h12.16c1.17,0,2.16.41,2.95,1.23.8.82,1.2,1.79,1.2,2.92v1.2c0,1.12-.4,2.1-1.2,2.92-.8.82-1.78,1.23-2.95,1.23h-38.04c-1.12,0-2.1-.41-2.92-1.23-.82-.82-1.23-1.79-1.23-2.92v-1.2c0-1.12.41-2.1,1.23-2.92.82-.82,1.79-1.23,2.92-1.23h14.13c.33,0,.49-.16.49-.49v-4.15c0-.33-.17-.49-.49-.49h-9.35c-1.17,0-2.16-.41-2.95-1.23-.8-.82-1.2-1.79-1.2-2.92v-1.05c0-1.17.4-2.16,1.2-2.95.8-.8,1.78-1.2,2.95-1.2h9.35c.33,0,.49-.19.49-.56v-3.87c0-.33-.17-.49-.49-.49h-9.14c-1.17,0-2.16-.41-2.95-1.23-.8-.82-1.2-1.79-1.2-2.92v-26.16c0-1.12.4-2.1,1.2-2.92.8-.82,1.78-1.23,2.95-1.23h30.02c1.17,0,2.16.41,2.95,1.23.8.82,1.2,1.79,1.2,2.92v26.16c0,1.12-.4,2.1-1.2,2.92-.8.82-1.78,1.23-2.95,1.23h-9.14c-.33,0-.49.16-.49.49v3.87c0,.38.16.56.49.56h9.84c1.12,0,2.1.4,2.92,1.2.82.8,1.23,1.78,1.23,2.95v1.05c0,1.12-.41,2.1-1.23,2.92-.82.82-1.79,1.23-2.92,1.23h-9.84c-.33,0-.49.16-.49.49v4.15ZM249.61,31.44c-.33,0-.49.19-.49.56v3.23c0,.38.16.56.49.56h4.36c.37,0,.56-.19.56-.56v-3.23c0-.37-.19-.56-.56-.56h-4.36ZM249.61,43.95c-.33,0-.49.16-.49.49v3.3c0,.38.16.56.49.56h4.36c.37,0,.56-.19.56-.56v-3.3c0-.33-.19-.49-.56-.49h-4.36ZM267.61,48.31c.33,0,.49-.19.49-.56v-3.3c0-.33-.17-.49-.49-.49h-3.87c-.33,0-.49.16-.49.49v3.3c0,.38.16.56.49.56h3.87Z"/><path class="cls-3" d="M343.7,43.45c0-.33-.17-.49-.49-.49h-12.66c-.33,0-.49.16-.49.49v9c0,.38.16.56.49.56h12.66c.33,0,.49-.19.49-.56v-9ZM330.06,31.77c0,.38.16.56.49.56h20.04c1.12,0,2.1.41,2.92,1.23.82.82,1.23,1.79,1.23,2.92v46.62c0,1.17-.41,2.16-1.23,2.95-.82.8-1.79,1.2-2.92,1.2h-3.73c-.89,0-1.64-.31-2.25-.91-.61-.61-.91-1.34-.91-2.18,0-.28-.12-.42-.35-.42h-36.7c-.24,0-.35.14-.35.42,0,.84-.31,1.57-.91,2.18-.61.61-1.36.91-2.25.91h-3.23c-1.12,0-2.1-.4-2.92-1.2-.82-.8-1.23-1.78-1.23-2.95v-46.62c0-1.12.41-2.1,1.23-2.92.82-.82,1.79-1.23,2.92-1.23h18.84c.33,0,.49-.19.49-.56v-8.72c0-1.17.41-2.16,1.23-2.95.82-.8,1.79-1.2,2.92-1.2h2.53c1.12,0,2.1.4,2.92,1.2.82.8,1.23,1.78,1.23,2.95v8.72ZM319.23,43.45c0-.33-.17-.49-.49-.49h-11.95c-.33,0-.49.16-.49.49v9c0,.38.16.56.49.56h11.95c.33,0,.49-.19.49-.56v-9ZM306.79,63.2c-.33,0-.49.19-.49.56v9.07c0,.38.16.56.49.56h11.95c.33,0,.49-.19.49-.56v-9.07c0-.37-.17-.56-.49-.56h-11.95ZM330.06,72.84c0,.38.16.56.49.56h12.66c.33,0,.49-.19.49-.56v-9.07c0-.37-.17-.56-.49-.56h-12.66c-.33,0-.49.19-.49.56v9.07Z"/></g></g></g></svg>