<?xml version="1.0" encoding="UTF-8"?><svg id="_レイヤー_2" xmlns="http://www.w3.org/2000/svg" viewBox="0 0 375.6 394.08"><defs><style>.cls-1{fill:#000;}.cls-1,.cls-2,.cls-3,.cls-4,.cls-5{stroke-width:0px;}.cls-2{fill:#a08c7d;}.cls-3{fill:#41352c;}.cls-4{fill:#ffdd51;}.cls-5{fill:#fff;}</style></defs><g id="_レイヤー_1-2"><circle class="cls-1" cx="185.5" cy="204.55" r="166.38"/><path class="cls-5" d="M15.65,338.95c-.06-69.83-.21-201.55-.22-217.53C35.72,107.3,148.48,32.29,194.21,2.7c45.57,29.49,157.68,104.05,178.55,118.57,0,15.37.22,220.11.22,253.42-.17,0-.22,0-.22,0H15.67c0-7.42,0-20-.02-35.73Z"/><path class="cls-3" d="M192.89,4.96c11.07,7.17,22.12,14.38,33.13,21.65,13.78,9.06,27.55,18.15,41.3,27.26,14.16,9.38,28.3,18.77,42.43,28.18,12.18,8.12,24.35,16.25,36.51,24.41,7.85,5.27,15.71,10.54,23.49,15.9.56.39,1.12.77,1.68,1.16,1.25.72,2.85.3,3.59-.94.7-1.25.29-2.84-.94-3.59-7.11-4.94-14.31-9.76-21.5-14.59-11.75-7.9-23.53-15.78-35.32-23.63-14.02-9.35-28.04-18.67-42.09-27.98-13.92-9.23-27.86-18.44-41.81-27.62-11.45-7.53-22.91-15.04-34.39-22.51l-3.44-2.23c-2.84-1.84-5.47,2.7-2.65,4.53Z"/><path class="cls-3" d="M192.89.43c-11.07,7.17-22.12,14.38-33.13,21.65-13.78,9.06-27.55,18.15-41.3,27.26-14.16,9.37-28.3,18.77-42.43,28.18-12.18,8.12-24.35,16.25-36.51,24.41-7.85,5.27-15.71,10.54-23.49,15.9-.56.39-1.12.78-1.68,1.17-1.22.75-1.63,2.33-.94,3.59.74,1.24,2.34,1.66,3.59.94,7.11-4.94,14.31-9.76,21.5-14.59,11.75-7.9,23.53-15.78,35.32-23.63,14.02-9.34,28.04-18.67,42.09-27.98,13.92-9.23,27.86-18.44,41.81-27.62,11.45-7.53,22.91-15.04,34.39-22.51,1.15-.74,2.29-1.49,3.44-2.23,2.82-1.83.2-6.37-2.65-4.53Z"/><path class="cls-3" d="M192.89,20.44c11.07,7.17,22.12,14.38,33.13,21.65,13.78,9.06,27.55,18.15,41.3,27.26,14.16,9.37,28.3,18.77,42.43,28.18,12.18,8.12,24.35,16.25,36.51,24.41,7.85,5.27,15.71,10.54,23.49,15.9.56.39,1.12.77,1.68,1.16,1.25.72,2.85.3,3.59-.94.7-1.25.29-2.84-.94-3.59-7.11-4.94-14.31-9.76-21.5-14.59-11.75-7.9-23.53-15.78-35.32-23.63-14.02-9.35-28.04-18.67-42.09-27.98-13.92-9.23-27.86-18.44-41.81-27.62-11.45-7.53-22.91-15.04-34.39-22.51-1.15-.74-2.29-1.49-3.44-2.23-2.84-1.84-5.47,2.7-2.65,4.53h0Z"/><path class="cls-3" d="M192.89,15.91c-11.08,7.29-22.13,14.63-33.15,22-13.83,9.22-27.65,18.45-41.47,27.69-14.15,9.46-28.3,18.91-42.45,28.35-12.17,8.12-24.35,16.22-36.56,24.3-7.74,5.12-15.47,10.26-23.31,15.22-.53.34-1.07.67-1.6,1-2.86,1.78-.23,6.31,2.65,4.53,7.15-4.44,14.16-9.13,21.19-13.76,11.8-7.78,23.57-15.6,35.32-23.45,14.04-9.36,28.07-18.73,42.1-28.11,14-9.35,27.99-18.7,42-28.05,11.51-7.67,23.03-15.33,34.56-22.97,1.13-.74,2.26-1.49,3.39-2.23,2.81-1.85.18-6.39-2.65-4.53h0Z"/><path class="cls-3" d="M370.15,121.26v9.6l.02,18.34.02,25.23c.01,10.01.02,20.02.03,30.03.01,10.88.02,21.77.03,32.66.01,11.19.02,22.37.03,33.56l.03,32.16c0,9.68.02,19.36.02,29.04,0,7.91.01,15.83.02,23.74,0,5.46,0,10.91,0,16.37v2.69c0,3.37,5.24,3.38,5.24,0v-14.36l-.02-22.05-.02-27.93c0-10.57-.02-21.13-.03-31.7-.01-11.1-.02-22.19-.03-33.29,0-11.06-.02-22.12-.03-33.17l-.03-30.75c0-8.86-.02-17.73-.02-26.59,0-6.76-.01-13.51-.02-20.27,0-3.96,0-7.92,0-11.88v-1.43c0-3.37-5.24-3.38-5.24,0h0Z"/><path class="cls-3" d="M12.82,121.26c0,3.41,0,6.81,0,10.21,0,6.12,0,12.23.02,18.35,0,8.27.02,16.54.03,24.81,0,9.73.02,19.47.03,29.2l.03,31.88c.01,10.96.02,21.92.03,32.88.01,10.63.02,21.26.03,31.89.01,9.64.02,19.28.03,28.91,0,8.09.01,16.18.02,24.27,0,5.96,0,11.91,0,17.87,0,1.05,0,2.11,0,3.16,0,3.37,5.24,3.38,5.24,0,0-5.33,0-10.66,0-15.99,0-7.62,0-15.23-.02-22.85,0-9.36-.02-18.72-.03-28.09,0-10.41-.02-20.81-.03-31.22l-.03-32.65c-.01-10.8-.02-21.61-.03-32.41-.01-10.05-.02-20.11-.03-30.16l-.03-25.95c0-6.69-.01-13.38-.02-20.07,0-4.13,0-8.26,0-12.39v-1.64c0-3.37-5.24-3.38-5.24,0h0Z"/><path class="cls-2" d="M353.82,352.34v-87.79h-53.17c.08,21.68,0,71.15,0,87.79"/><path class="cls-3" d="M356.44,352.34v-87.79c-.02-1.44-1.18-2.6-2.62-2.62h-53.17c-1.44.02-2.6,1.18-2.62,2.62.04,11.47.05,22.95.03,34.42,0,12.74,0,25.48-.02,38.22,0,5.05,0,10.1,0,15.15,0,3.37,5.24,3.38,5.24,0,0-10.27,0-20.55.02-30.82,0-13.07.01-26.14,0-39.21,0-5.92-.01-11.84-.03-17.75l-2.62,2.62h53.17l-2.62-2.62v87.79c0,3.37,5.24,3.38,5.24,0h0Z"/><path class="cls-5" d="M372.76,228.57v17.96c-33.69-.03-68.09,0-93.94,0v-17.96h93.94Z"/><path class="cls-3" d="M370.14,228.57v17.96l2.62-2.62c-25.18-.02-50.36-.02-75.54,0h-18.4l2.62,2.62v-17.96l-2.62,2.62h93.94c3.37,0,3.38-5.24,0-5.24h-93.94c-1.44.02-2.6,1.18-2.62,2.62v17.96c.02,1.44,1.18,2.6,2.62,2.62,23.83,0,47.65,0,71.48-.01,7.49,0,14.98,0,22.46.01,1.44-.02,2.6-1.18,2.62-2.62v-17.96c0-3.37-5.24-3.38-5.24,0Z"/><path class="cls-3" d="M281.44,373.85v-127.32c0-3.37-5.24-3.38-5.24,0v127.32c0,3.37,5.24,3.38,5.24,0Z"/><path class="cls-3" d="M278.82,366.54h93.94c3.37,0,3.38-5.24,0-5.24h-93.94c-3.37,0-3.38,5.24,0,5.24Z"/><path class="cls-3" d="M278.82,355.79h93.94c3.37,0,3.38-5.24,0-5.24h-93.94c-3.37,0-3.38,5.24,0,5.24Z"/><path class="cls-3" d="M313.03,307.83c.06,4.04,0,8.08,0,12.11,0,1.45,1.18,2.62,2.63,2.62,1.44,0,2.61-1.17,2.62-2.62,0-4.04.06-8.08,0-12.11,0-1.45-1.18-2.62-2.63-2.62-1.44,0-2.61,1.17-2.62,2.62Z"/><path class="cls-3" d="M15.67,377.3h357.09c3.37,0,3.38-5.24,0-5.24H15.67c-3.37,0-3.38,5.24,0,5.24Z"/><path class="cls-2" d="M151.82,228.57H2.62c.22,58.42,0,118.06,0,162.88h149.2v-162.88Z"/><path class="cls-3" d="M151.82,225.95H2.62c-1.44.02-2.6,1.18-2.62,2.62.08,22.67.11,45.33.09,68,0,21.13-.03,42.26-.07,63.4-.02,10.5-.02,20.99-.02,31.49.02,1.44,1.18,2.6,2.62,2.62h149.2c1.44-.02,2.6-1.18,2.62-2.62v-162.88c0-3.37-5.24-3.38-5.24,0v162.88l2.62-2.62H2.62l2.62,2.62c0-19.43.02-38.86.06-58.29.03-22.04.04-44.07.03-66.11-.01-12.83-.04-25.65-.09-38.48l-2.62,2.62h149.2c3.37,0,3.38-5.24,0-5.24Z"/><path class="cls-3" d="M79.77,391v-162.43c0-3.37-5.24-3.38-5.24,0v162.43c0,3.37,5.24,3.38,5.24,0Z"/><path class="cls-3" d="M104.54,391v-162.43c0-3.37-5.24-3.38-5.24,0v162.43c0,3.37,5.24,3.38,5.24,0Z"/><path class="cls-3" d="M129.31,391v-162.43c0-3.37-5.24-3.38-5.24,0v162.43c0,3.37,5.24,3.38,5.24,0Z"/><path class="cls-3" d="M55,391v-162.43c0-3.37-5.24-3.38-5.24,0v162.43c0,3.37,5.24,3.38,5.24,0Z"/><path class="cls-3" d="M30.23,391v-162.43c0-3.37-5.24-3.38-5.24,0v162.43c0,3.37,5.24,3.38,5.24,0Z"/><path class="cls-4" d="M187.4,146.18h-34.83c.05,11.72,0,23.7,0,32.69h34.83v-32.69Z"/><path class="cls-3" d="M187.4,143.56h-34.83c-1.44.02-2.6,1.18-2.62,2.62.05,10.9,0,21.79,0,32.69.02,1.44,1.18,2.6,2.62,2.62h34.83c1.44-.02,2.6-1.18,2.62-2.62v-32.69c0-3.37-5.24-3.38-5.24,0v32.69l2.62-2.62h-34.83l2.62,2.62c0-10.9.05-21.79,0-32.69l-2.62,2.62h34.83c3.37,0,3.38-5.24,0-5.24Z"/><path class="cls-4" d="M235.87,146.18h-34.83c.05,11.72,0,23.7,0,32.69h34.83v-32.69Z"/><path class="cls-3" d="M235.87,143.56h-34.83c-1.44.02-2.6,1.18-2.62,2.62.05,10.9,0,21.79,0,32.69.02,1.44,1.18,2.6,2.62,2.62h34.83c1.44-.02,2.6-1.18,2.62-2.62v-32.69c0-3.37-5.24-3.38-5.24,0v32.69l2.62-2.62h-34.83l2.62,2.62c0-10.9.05-21.79,0-32.69l-2.62,2.62h34.83c3.37,0,3.38-5.24,0-5.24Z"/><path class="cls-4" d="M187.4,99.89h-34.83c.05,11.72,0,23.69,0,32.69h34.83v-32.69Z"/><path class="cls-3" d="M187.4,97.27h-34.83c-1.44.02-2.6,1.18-2.62,2.62.05,10.9,0,21.79,0,32.69.02,1.44,1.18,2.6,2.62,2.62h34.83c1.44-.02,2.6-1.18,2.62-2.62v-32.69c0-3.37-5.24-3.38-5.24,0v32.69l2.62-2.62h-34.83l2.62,2.62c0-10.9.05-21.79,0-32.69l-2.62,2.62h34.83c3.37,0,3.38-5.24,0-5.24Z"/><path class="cls-4" d="M235.87,99.89h-34.83c.05,11.72,0,23.69,0,32.69h34.83v-32.69Z"/><path class="cls-3" d="M235.87,97.27h-34.83c-1.44.02-2.6,1.18-2.62,2.62.05,10.9,0,21.79,0,32.69.02,1.44,1.18,2.6,2.62,2.62h34.83c1.44-.02,2.6-1.18,2.62-2.62v-32.69c0-3.37-5.24-3.38-5.24,0v32.69l2.62-2.62h-34.83l2.62,2.62c0-10.9.05-21.79,0-32.69l-2.62,2.62h34.83c3.37,0,3.38-5.24,0-5.24Z"/></g></svg>