<?xml version="1.0" encoding="UTF-8"?><svg id="_レイヤー_2" xmlns="http://www.w3.org/2000/svg" viewBox="0 0 497.31 376.98"><defs><style>.cls-1{fill:#41352c;}.cls-1,.cls-2,.cls-3{stroke-width:0px;}.cls-2{fill:#fff;}.cls-3{fill:#ff9c31;}</style></defs><g id="_レイヤー_1-2"><path class="cls-2" d="M288.75,298.51v-15.32l-80.23.03c.02,21.18.03,42.36.02,63.55h80.21s0-22.38,0-48.25Z"/><path class="cls-2" d="M64.2,230.74c-.02-61.68-.05-132.48-.07-180.55.02-5.66,4.63-10.22,10.28-10.2,0,0,0,0,0,0l214.92-.08h129.87c7.02,0,12.72,5.69,12.72,12.72v119.09c0,21.99.02,44.07.03,64.96H64.19v-5.95Z"/><path class="cls-2" d="M431.96,236.66c0,12.61.03,24.8.03,36.29-.02,5.66-4.63,10.22-10.29,10.2,0,0,0,0-.01,0-70.69.03-275.29.09-347.19.11-5.64.03-10.24-4.51-10.27-10.15,0,0,0-.02,0-.02,0-11.53-.03-23.77,0-36.43h367.73Z"/><path class="cls-1" d="M292.52,32.28l-213.29.07c-8.27,0-15.93,1.27-20.45,9.12-3.8,6.59-2.28,15.98-2.28,23.31,0,17.43,0,34.85.02,52.28.02,38.15.03,76.31.04,114.47v27.4c0,8.74-1.66,18.96,4.59,26.03,5.11,5.78,12.08,5.94,19.17,5.94h14.21l76.16-.03,179.58-.07,67.43-.03c7.95,0,15.29-1.65,19.6-9.11,1.95-4.16,2.74-8.78,2.28-13.35v-13.56c0-20.19,0-40.38-.02-60.56v-28.82c0-9.82-15.26-9.84-15.26,0,0,19.47,0,38.94.02,58.41v40.95c0,2.51,1.18,8.14-.71,10.09-1.77,1.83-8.2.72-10.75.72h-48.07l-170.72.06-79.2.03h-30.78c-2.72,0-9.46,1.2-11.45-.74-1.59-1.55-.78-5.54-.78-7.63v-12.58c-.01-36.36-.03-72.71-.04-109.07,0-17.78,0-35.55-.02-53.33v-34.95c0-2.32-1.04-7.19.71-9,1.03-1.07,3.18-.72,4.64-.72h73.75l112.62-.04h29c9.82,0,9.83-15.26,0-15.26v-.02Z"/><path class="cls-1" d="M200.9,282.85v63.92c0,9.82,15.26,9.84,15.26,0v-63.92c0-9.82-15.26-9.84-15.26,0h0Z"/><path class="cls-1" d="M281.11,283.93v62.83c0,9.82,15.26,9.84,15.26,0v-62.83c0-9.82-15.26-9.84-15.26,0Z"/><path class="cls-1" d="M177.88,354.4h142.82c9.82,0,9.84-15.26,0-15.26h-142.82c-9.82,0-9.84,15.26,0,15.26Z"/><path class="cls-1" d="M68.46,244.29h357.35c9.82,0,9.83-15.26,0-15.26H68.46c-9.82,0-9.83,15.26,0,15.26Z"/><circle class="cls-1" cx="415.25" cy="118.42" r="12.38"/><path class="cls-1" d="M394.4,95.75c.81-.65.87-.71.2-.17.45-.33.91-.66,1.38-.97.94-.64,1.9-1.23,2.89-1.78.99-.56,2.01-1.06,3.03-1.55.96-.42,1.04-.46.24-.1.53-.21,1.07-.41,1.62-.59,3.66-1.41,7.57-2.08,11.5-1.97,1.21,0,2.4.1,3.61.15,1.09.12,1.18.12.28,0,.58.08,1.16.18,1.74.29,1.99.37,3.96.89,5.88,1.55.54.18,1.08.38,1.62.59-.81-.36-.73-.33.24.1,1.02.49,2.04.99,3.03,1.55.99.56,1.95,1.15,2.89,1.78.47.32.93.64,1.38.97-.68-.54-.61-.49.2.17,3.52,3.36,9.07,3.36,12.59,0,2.98-3.25,3.86-9.46,0-12.59-19.26-16.45-47.61-16.45-66.87,0-3.46,3.48-3.46,9.11,0,12.59,3.53,3.34,9.06,3.34,12.59,0v-.02Z"/><path class="cls-1" d="M371.64,70.05c24.64-22.7,62.57-22.7,87.21,0,8.37,7.8,20.98-4.77,12.59-12.59-31.49-29.93-80.91-29.93-112.39,0-8.4,7.83,4.21,20.4,12.59,12.59Z"/><path class="cls-1" d="M348.42,45.47c36.91-36.89,96.74-36.89,133.65,0,8.16,8.06,20.76-4.52,12.59-12.59-43.87-43.85-114.97-43.85-158.83,0-8.16,8.06,4.43,20.66,12.59,12.59Z"/><path class="cls-3" d="M111.7,345.14v15.27c0,6.7-5.44,12.14-12.14,12.14H16.44c-6.7,0-12.13-5.44-12.12-12.14v-15.27h107.4-.01Z"/><path class="cls-2" d="M111.7,219.76v125.39H4.3v-125.39h107.4Z"/><path class="cls-3" d="M111.7,204.46v15.29H4.3v-15.29c0-6.69,5.42-12.12,12.11-12.12h83.14c6.7,0,12.14,5.42,12.15,12.12h0Z"/><path class="cls-1" d="M111.7,215.45H4.3c-5.53,0-5.54,8.59,0,8.59h107.4c5.53,0,5.54-8.59,0-8.59Z"/><path class="cls-1" d="M4.3,349.45h107.4c5.53,0,5.54-8.59,0-8.59H4.3c-5.53,0-5.54,8.59,0,8.59Z"/><path class="cls-1" d="M99.57,368.26H18.95c-2.96,0-5.75,0-8.05-2.29-1.7-1.89-2.54-4.4-2.3-6.93v-152.45c-.15-1.74.04-3.49.58-5.15,1.56-3.73,5.07-4.81,8.73-4.81h74.87c2.21,0,4.42-.04,6.64,0,4.39-.02,7.97,3.52,7.99,7.91,0,.01,0,.02,0,.03.26,13.52,0,27.07,0,40.59v72.15c0,14.25.11,28.5,0,42.75.13,4.39-3.33,8.06-7.72,8.19-.04,0-.08,0-.12,0-5.52.14-5.55,8.73,0,8.59,9.03-.14,16.31-7.44,16.43-16.47.03-1.22,0-2.44,0-3.66v-148.78c0-1.15.02-2.3,0-3.45-.11-9.03-7.4-16.34-16.43-16.47-6.4-.14-12.81,0-19.2,0H17.78c-5.4-.28-10.62,1.99-14.1,6.13-2.52,3.29-3.82,7.36-3.67,11.5v147.63c0,6.6-.47,12.95,4.41,18.32,6.03,6.64,15.7,5.23,23.77,5.23h71.37c5.53,0,5.54-8.59,0-8.59Z"/></g></svg>