<?xml version="1.0" encoding="UTF-8"?><svg id="_レイヤー_2" xmlns="http://www.w3.org/2000/svg" viewBox="0 0 792.04 727.19"><defs><style>.cls-1{fill:#a88975;}.cls-1,.cls-2,.cls-3,.cls-4,.cls-5,.cls-6,.cls-7,.cls-8,.cls-9,.cls-10{stroke-width:0px;}.cls-2{fill:#41352c;}.cls-3{fill:#ffb14d;}.cls-4{fill:#ffdd51;}.cls-5{fill:#9f9f9f;}.cls-6{fill:#fff;}.cls-7{fill:#84807f;}.cls-8{fill:#ff9c31;}.cls-9{fill:#211715;}.cls-10{fill:#ffc183;}</style></defs><g id="_レイヤー_1-2"><path class="cls-3" d="M776.2,257.11c45.58,143.11-10.07,316.43-130.39,403.89-119.79,87.46-303.71,89.05-430.39,0C88.21,571.43,17.72,391.21,63.83,248.1,109.95,104.46,273.2-2.6,427.97.05c155.3,2.65,302.65,114.49,348.23,257.07Z"/><path class="cls-6" d="M744.78,575.7c-2.43-2.18-4.72-4.51-6.85-6.98,0,0-.54-.94-1.25-2.17,5.45-.02,10.87-.8,16.1-2.32.17-.05.87-.31,1.66-.63l.92,1.35c1.27,2.01,2.71,3.91,4.31,5.67l-2.26,1.8c-2.54,2.39-4.91,4.97-7.08,7.7l-.35-.29c-1.9-1.16-3.65-2.54-5.2-4.13Z"/><path class="cls-6" d="M713.91,580.46l-.06-.04.3-1.68c.94-5.04,2.21-10.01,3.81-14.89,0,0,.04-.11.1-.26,5.01,1.65,10.21,2.62,15.48,2.89l-.02.07c-1.5,3.25-8.17,18.84-8.01,17.41-4.05-.41-7.99-1.6-11.59-3.51Z"/><path class="cls-6" d="M148.35,532.61L7.64,451.38c-2.36-1.36-3.81-3.87-3.81-6.59v-199.08c0-2.72,1.45-5.23,3.81-6.59l130.77-75.5v-71.84c0-2.72,1.45-5.23,3.81-6.59l100.05-57.76c2.36-1.36,5.26-1.36,7.61,0,0,0,29.52,17.05,62.22,35.92,24.56-14.17,49.16-28.38,64.72-37.37,2.36-1.36,5.26-1.36,7.61,0l144.35,83.34c2.36,1.37,3.81,3.88,3.81,6.61v199.04c0,2.72-1.45,5.24-3.81,6.61l-369.18,213.15c-2.36,1.36-5.26,1.36-7.61,0l-3.64-2.1Z"/><path class="cls-4" d="M174.65,400.48v-48.49l45.76-26.42v48.5l-45.76,26.41Z"/><path class="cls-4" d="M244.61,360.08v-48.49l45.76-26.42v48.49c-11.22,6.48-28.17,16.27-45.76,26.42Z"/><path class="cls-4" d="M174.65,496.82v-48.49l45.76-26.42v48.49l-45.76,26.42Z"/><path class="cls-4" d="M330.74,310.36v-62.15l26.92-15.54v62.16l-26.92,15.54Z"/><path class="cls-4" d="M244.61,456.43v-48.49l45.76-26.42v48.49c-11.22,6.48-28.17,16.26-45.76,26.42Z"/><path class="cls-4" d="M398.03,271.52v-48.49l45.76-26.42v48.49c-17.6,10.16-34.55,19.95-45.76,26.42Z"/><path class="cls-4" d="M467.99,231.12v-48.5l45.76-26.42v48.49l-45.76,26.42Z"/><path class="cls-4" d="M398.03,367.86v-48.5l45.76-26.42v48.49c-17.6,10.17-34.55,19.96-45.76,26.43Z"/><path class="cls-4" d="M467.99,327.46v-48.5l45.76-26.41v48.49l-45.76,26.42Z"/><path class="cls-2" d="M294.17,459.21V186.15c0-3.4.19-6.85,0-10.25-.02-.26,0-.52,0-.78l-1.88,3.29,88.01-50.81,19.64-11.34-5.73-3.29v284.1c0,4.9,7.61,4.91,7.61,0v-253.11c0-10.06.21-20.14,0-30.2v-.79c-.03-2.12-1.78-3.81-3.9-3.78-.64.01-1.27.18-1.83.49l-46.78,27.01-27.66,15.97c-10.78,6.23-21.77,12.2-32.39,18.7-2.92,1.79-2.71,3.75-2.71,6.55v281.31c0,4.9,7.61,4.91,7.61,0h0Z"/><path class="cls-4" d="M303.83,451.45v-79.6l80.74-46.63v79.6l-80.74,46.63Z"/><path class="cls-2" d="M288.45,248.06l-61.63,35.59-58.96,34.04-7.8,4.51-3.71,2.14c-1.49.59-2.81,1.55-3.84,2.79-.51,1.23-.69,2.56-.52,3.88v188.02c0,4.9,7.61,4.91,7.61,0v-189.97l-1.89,3.29,125.49-72.45,9.09-5.24c4.24-2.45.41-9.03-3.84-6.57h0Z"/><path class="cls-2" d="M288.44,281.89l-48.43,27.96-63.53,36.68-22.25,12.84c-4.24,2.45-.41,9.03,3.84,6.57l48.43-27.96,63.53-36.68,22.25-12.84c4.24-2.45.41-9.03-3.84-6.57h0Z"/><path class="cls-2" d="M178.45,400.48v-48.49c0-4.9-7.61-4.91-7.61,0v48.49c0,4.9,7.61,4.91,7.61,0Z"/><path class="cls-2" d="M399.95,109.67l-16.84-9.72-39.79-22.97-45.83-26.45-35.72-20.64-8.75-5.05c-3.9-2.58-8.92-2.78-13.01-.52-9.12,5.06-18.08,10.44-27.11,15.65l-45.37,26.2c-8.97,5.18-18.04,10.22-26.93,15.55-3.62,2.07-5.89,5.89-5.99,10.05-.04,1.03,0,2.06,0,3.09v68.75l1.89-3.29-29.72,17.16-58.33,33.68-40.71,23.5c-1.04.56-2.05,1.18-3.02,1.86-3.08,2.35-4.82,6.04-4.69,9.91-.04,3.9,0,7.8,0,11.7v175.28c0,3.64-.05,7.28,0,10.92-.04,4.21,2.12,8.13,5.71,10.33.77.49,1.58.91,2.37,1.37l39.31,22.7,59.06,34.1,40.67,23.48c.94.54,1.87,1.12,2.83,1.63,8.1,4.34,15.69-2.33,22.51-6.28l60.77-35.09,121.08-69.89,120.62-69.65,30.61-17.67,15.08-8.7,7.31-4.22c2.27-1.08,4.31-2.6,5.99-4.46,3.2-4.12,2.44-9.46,2.44-14.36V127.31c0-7.61,1.69-16.65-5.79-21.34-.95-.59-1.94-1.12-2.9-1.67l-15.66-9.05-54.66-31.56-53.94-31.14-14.83-8.56c-.75-.43-1.48-.89-2.25-1.3-7.99-4.23-15.63,2.41-22.36,6.29-17.94,10.36-35.88,20.72-53.82,31.07-4.24,2.45-.41,9.03,3.84,6.57,13.41-7.74,26.82-15.48,40.23-23.22l16.35-9.44,6.99-4.05c1.39-1.16,3.32-1.41,4.96-.65,5.09,2.43,9.93,5.73,14.81,8.55l74.81,43.19c18.03,10.41,36.11,20.74,54.1,31.23,1.09.49,1.94,1.4,2.36,2.52.27,1.41.32,2.85.18,4.27v190.66c.14,1.9.14,3.81,0,5.71-.47,3.02-4.19,4.19-6.48,5.52l-10.97,6.33-20.1,11.61-82.71,47.73-164.94,95.23-82.24,47.48c-2.58,1.49-4.82,3.43-7.75,1.92-.7-.36-1.38-.79-2.06-1.19l-8.87-5.12-72.1-41.63-59.22-34.19c-1.87-1.08-3.53-1.88-3.7-4.42-.1-1.54,0-3.12,0-4.66v-187.86c0-1.99-.08-4,0-5.99.06-1.89,1.19-3.58,2.92-4.35l21.27-12.28,77.42-44.7,26.91-15.54c1.37-.79,2.9-1.49,4.19-2.42,2.92-2.11,1.89-7.67,1.89-10.83v-60.61c0-2.76-.47-5.43,2.19-7.15,7.19-4.65,14.93-8.62,22.34-12.9l39.65-22.89,32.2-18.6c1.83-1.06,3.65-2.3,5.56-3.21,2.47-1.18,4.31.3,6.36,1.48l60.11,34.71,72.93,42.1,12.54,7.24c4.25,2.45,8.09-4.12,3.84-6.57Z"/><path class="cls-2" d="M154.51,102.97l40.24,23.24,63.65,36.75,14.68,8.47c4.25,2.46,8.09-4.12,3.84-6.57l-40.24-23.23-63.65-36.75-14.68-8.47c-4.25-2.45-8.09,4.12-3.84,6.57h0Z"/><path class="cls-2" d="M149.83,177.31l35.56,20.53,56.9,32.86,13.01,7.51c4.25,2.46,8.09-4.12,3.84-6.57l-35.55-20.53-56.9-32.86-13.01-7.51c-4.25-2.46-8.09,4.12-3.84,6.57h0Z"/><path class="cls-2" d="M141.91,316.63l-40.61-23.45-64.67-37.34-14.77-8.53c-4.25-2.46-8.09,4.12-3.84,6.57l40.61,23.44,64.68,37.34,14.77,8.53c4.25,2.45,8.09-4.12,3.84-6.57h0Z"/><path class="cls-2" d="M511.67,119.18l-94.55,54.58-21.02,12.13c-4.24,2.45-.41,9.03,3.84,6.57l90.97-52.53,24.61-14.21c4.24-2.45.41-9.03-3.84-6.57h0Z"/><path class="cls-2" d="M201.33,387.27v-48.49c0-4.9-7.61-4.91-7.61,0v48.49c0,4.9,7.61,4.91,7.61,0Z"/><path class="cls-2" d="M288.44,330.39l-52.07,30.07-59.45,34.32-23.05,13.31c-4.24,2.45-.41,9.03,3.84,6.57l47.78-27.6,60.65-35.02,26.14-15.09c4.24-2.45.41-9.03-3.84-6.57h0Z"/><path class="cls-2" d="M224.2,374.06v-48.49c0-4.9-7.61-4.91-7.61,0v48.49c0,4.9,7.61,4.91,7.61,0h0Z"/><path class="cls-2" d="M157.72,462.5l109.1-62.99,25.47-14.71c4.24-2.45.41-9.03-3.84-6.57l-107.94,62.32-26.63,15.37c-4.24,2.45-.41,9.03,3.84,6.57h0Z"/><path class="cls-2" d="M248.41,360.08v-48.48c0-4.9-7.61-4.91-7.61,0v48.48c0,4.9,7.61,4.91,7.61,0Z"/><path class="cls-2" d="M330,214c-3.18-1.95-4.13-6.13-4.38-9.61-.26-4.52.34-9.06,1.77-13.36,2.73-8.82,8.09-16.6,15.36-22.29,3.59-2.69,8.5-5.59,13.18-4.85,3.97.63,5.81,4.28,6.54,7.87,1.88,9.2-1.79,19.65-6.74,27.28-2.88,4.5-6.64,8.38-11.04,11.42-3.93,2.65-9.93,6.09-14.69,3.54-4.31-2.32-8.16,4.25-3.84,6.57,11.58,6.23,25.49-4.11,32.58-12.84,7.72-9.5,12.87-22.42,11.54-34.83-.61-5.66-2.76-11.27-7.71-14.49-5.34-3.48-12.05-2.36-17.52.11-11.18,5.05-19.27,15.84-23.74,26.96-4.22,10.5-6.56,28.09,4.84,35.08,4.18,2.57,8.01-4.01,3.83-6.57Z"/><path class="cls-2" d="M178.45,496.83v-48.49c0-4.9-7.61-4.91-7.61,0v48.49c0,4.9,7.61,4.91,7.61,0Z"/><path class="cls-9" d="M271.29,346.88v-48.49c0-4.9-7.61-4.91-7.61,0v48.49c0,4.9,7.61,4.91,7.61,0Z"/><path class="cls-2" d="M349.31,190.41v-14.58c0-2.1-1.7-3.81-3.81-3.81s-3.81,1.7-3.81,3.81v14.58c0,2.1,1.7,3.81,3.81,3.81s3.81-1.7,3.81-3.81Z"/><path class="cls-2" d="M339.9,198.04l7.52-4.34c1.82-1.06,2.43-3.39,1.37-5.21,0,0,0,0,0,0-.5-.86-1.32-1.48-2.27-1.75-.99-.25-2.04-.12-2.93.38l-7.52,4.34c-1.82,1.06-2.43,3.39-1.37,5.21,0,0,0,0,0,0,.51.86,1.32,1.48,2.28,1.75.99.25,2.04.12,2.93-.38h0Z"/><path class="cls-2" d="M201.33,483.61v-48.49c0-4.9-7.61-4.91-7.61,0v48.49c0,4.9,7.61,4.91,7.61,0Z"/><path class="cls-2" d="M288.44,426.73l-104.9,60.56-29.67,17.13c-4.24,2.45-.41,9.03,3.84,6.57l110.55-63.82,24.02-13.87c4.24-2.45.41-9.03-3.84-6.57h0Z"/><path class="cls-2" d="M224.2,470.4v-48.49c0-4.9-7.61-4.91-7.61,0v48.49c0,4.9,7.61,4.91,7.61,0Z"/><path class="cls-2" d="M334.55,310.36v-62.15l-1.88,3.29,26.91-15.54-5.73-3.29v62.16l1.88-3.29-26.91,15.54c-4.24,2.45-.41,9.03,3.84,6.57,8.97-5.18,17.94-10.35,26.91-15.54,1.16-.69,1.88-1.94,1.89-3.29v-62.16c-.03-2.12-1.78-3.81-3.9-3.78-.64.01-1.27.18-1.83.49l-20.36,11.76c-2.16,1.25-4.49,2.38-6.55,3.78-2,1.36-1.89,3.34-1.89,5.48v59.96c0,4.9,7.61,4.91,7.61,0Z"/><path class="cls-2" d="M248.41,456.43v-48.49c0-4.9-7.61-4.91-7.61,0v48.49c0,4.9,7.61,4.91,7.61,0h0Z"/><path class="cls-2" d="M271.29,443.22v-48.49c0-4.9-7.61-4.91-7.61,0v48.49c0,4.9,7.61,4.91,7.61,0h0Z"/><path class="cls-2" d="M307.63,451.44v-79.59c0-4.9-7.61-4.91-7.61,0v79.59c0,4.9,7.61,4.91,7.61,0Z"/><path class="cls-2" d="M399.95,226.31l48.43-27.96,63.53-36.68,22.25-12.84c4.24-2.45.41-9.03-3.84-6.57l-48.43,27.96-63.53,36.68-22.25,12.84c-4.24,2.45-.41,9.03,3.84,6.57Z"/><path class="cls-2" d="M424.71,258.3v-48.49c0-4.9-7.61-4.91-7.61,0v48.49c0,4.9,7.61,4.91,7.61,0Z"/><path class="cls-2" d="M399.95,274.8l52.08-30.07,59.44-34.32,23.05-13.31c4.24-2.45.41-9.03-3.84-6.57l-47.78,27.6-60.64,35.02-26.14,15.09c-4.24,2.45-.41,9.03,3.84,6.57h0Z"/><path class="cls-2" d="M447.58,245.09v-48.49c0-4.9-7.61-4.91-7.61,0v48.49c0,4.9,7.61,4.91,7.61,0Z"/><path class="cls-9" d="M388.37,404.82v-79.59c0-4.9-7.61-4.91-7.61,0v79.59c0,4.9,7.61,4.91,7.61,0Z"/><path class="cls-2" d="M471.79,231.12v-48.49c0-4.9-7.61-4.91-7.61,0v48.49c0,4.9,7.61,4.91,7.61,0Z"/><path class="cls-2" d="M399.95,322.65l107.94-62.32,26.63-15.37c4.24-2.45.41-9.03-3.84-6.57l-109.1,62.99-25.47,14.71c-4.24,2.45-.41,9.03,3.84,6.57h0Z"/><path class="cls-2" d="M494.67,217.92v-48.49c0-4.9-7.61-4.91-7.61,0v48.49c0,4.9,7.61,4.91,7.61,0Z"/><path class="cls-9" d="M424.71,354.64v-48.49c0-4.9-7.61-4.91-7.61,0v48.49c0,4.9,7.61,4.91,7.61,0Z"/><path class="cls-2" d="M517.55,204.7v-48.49c0-4.9-7.61-4.91-7.61,0v48.49c0,4.9,7.61,4.91,7.61,0Z"/><path class="cls-2" d="M399.95,371.14l104.9-60.56,29.68-17.13c4.24-2.45.41-9.03-3.84-6.57l-110.55,63.82-24.02,13.87c-4.24,2.45-.41,9.03,3.84,6.57h0Z"/><path class="cls-2" d="M447.58,341.43v-48.48c0-4.9-7.61-4.91-7.61,0v48.48c0,4.9,7.61,4.91,7.61,0Z"/><path class="cls-2" d="M471.79,327.46v-48.49c0-4.9-7.61-4.91-7.61,0v48.49c0,4.9,7.61,4.91,7.61,0Z"/><path class="cls-2" d="M494.67,314.25v-48.49c0-4.9-7.61-4.91-7.61,0v48.49c0,4.9,7.61,4.91,7.61,0h0Z"/><path class="cls-2" d="M517.55,301.04v-48.49c0-4.9-7.61-4.91-7.61,0v48.49c0,4.9,7.61,4.91,7.61,0h0Z"/><path class="cls-6" d="M292.27,359.87l100.55-58.04c2.35-1.36,5.25-1.36,7.6,0l64.79,37.41c1.18.68,1.9,1.93,1.9,3.29v14.25c0,1.36-.73,2.62-1.9,3.3l-101.96,58.87c-2.35,1.36-5.25,1.36-7.6,0l-63.39-36.6c-1.18-.68-1.9-1.93-1.9-3.29v-15.86c0-1.37.72-2.64,1.9-3.32Z"/><path class="cls-6" d="M347.07,413.96v79.33l7.78,4.5c2.94,1.7,6.57,1.7,9.52,0l8.54-4.93v-79.51"/><path class="cls-6" d="M441.27,373.88v65.03l7.78,4.5c2.94,1.7,6.57,1.7,9.52,0l8.54-4.94v-79.51"/><path class="cls-2" d="M343.26,413.96v74.03c-.14,1.94-.12,3.88.07,5.82.39,2.22,2.21,3.01,3.95,4.02,3.64,2.09,7.25,4.73,11.57,5.02,4.69.32,8.46-2.34,12.31-4.57,1.2-.69,2.46-1.33,3.62-2.09,2.93-1.94,1.94-6.63,1.94-9.68v-73.16c0-4.9-7.61-4.91-7.61,0v79.51l1.89-3.29-4.87,2.81c-1.7,1.26-3.61,2.22-5.64,2.83-2.38.37-4.29-1.04-6.23-2.16l-5.27-3.04,1.88,3.29v-79.34c0-4.9-7.61-4.91-7.61,0h0Z"/><path class="cls-2" d="M437.46,373.88v61.8c0,2.88-.19,5.24,2.5,6.87,1.53.93,3.11,1.79,4.66,2.69,4.22,2.44,8.63,4.3,13.56,2.5,3.15-1.38,6.17-3.04,9.04-4.94,1.66-.95,3.26-1.71,3.63-3.83.3-3.36.33-6.75.07-10.12v-69.9c0-4.9-7.61-4.91-7.61,0v79.51l1.88-3.29-4.87,2.81c-1.7,1.26-3.61,2.22-5.64,2.83-2.38.37-4.28-1.03-6.23-2.16l-5.27-3.04,1.89,3.29v-65.03c0-4.9-7.61-4.91-7.61,0h0Z"/><path class="cls-2" d="M294.19,363.16l50.07-28.91,34.38-19.85c5.32-3.07,10.57-6.61,16.1-9.29,3.24-1.57,7.32,2.04,10.05,3.62l11.56,6.67,25.6,14.78,19.24,11.11c.52.3,1.85.79,2.09,1.21s0,1.83,0,2.32v9.79c0,.45.24,1.74,0,2.14-.41.67-2.55,1.47-3.31,1.9l-4.93,2.84-18.63,10.76-34.34,19.83-26.51,15.3-9.57,5.52c-2.5,1.44-5.49,4.11-8.45,2.7-2.63-1.25-5.14-2.97-7.66-4.42l-10.37-5.98-23.14-13.36-19.08-11.02c-.97-.43-1.89-.96-2.74-1.58-.51-.5-.4-.36-.4-1.28v-9.41c0-.61-.46-5.08.02-5.41,3.98-2.79.18-9.4-3.84-6.57-3.52,2.47-3.79,5.66-3.79,9.52v10.36c0,3.76.41,7.03,3.97,9.25,2.25,1.4,4.61,2.66,6.9,3.98l46.14,26.64,8.79,5.07c4.16,2.79,9.57,2.88,13.82.22l19.96-11.52,68.68-39.65,9.84-5.68c3.06-1.77,5.83-3.5,6.2-7.34.26-2.65.06-5.38.06-8.03.23-2.85.17-5.72-.19-8.56-.86-3.92-4.63-5.5-7.77-7.31l-48.62-28.07c-3.73-2.15-7.44-4.34-11.19-6.47-3.74-2.37-8.47-2.52-12.35-.38-2.03,1.09-4,2.31-5.99,3.46l-30.96,17.87-62.26,35.95-1.23.71c-4.24,2.46-.41,9.04,3.84,6.58Z"/><path class="cls-2" d="M445.98,346.22l-81.23,46.9-7.21,4.16h3.84l-36.87-21.29-5.25-3.03c-4.25-2.45-8.09,4.12-3.84,6.57l36.87,21.29,5.25,3.03c1.19.69,2.65.69,3.84,0l63.45-36.63,24.99-14.43c4.24-2.45.41-9.03-3.84-6.57h0Z"/><path class="cls-6" d="M207.65,531.87c-3.25.58-6.54.91-9.83,1.02-3.65-.07-7.3-.45-10.88-1.14h-.02c0,7.2.05,16.7.05,22.46,0,3.32,4.7,6.09,10.45,6.09s10.35-2.78,10.35-6.09c0-5.71-.05-15.14-.05-22.32h-.06Z"/><path class="cls-2" d="M203.9,531.87c0,4.84.01,9.69.03,14.53,0,2.12,0,4.23.01,6.35,0,.47-.03.96,0,1.44.02.3-.17.55.04-.17-.1.34-.15.16,0,.09.29-.14.03-.06-.13.2-.22.35.12-.11.15-.15-.14.17-.3.31-.44.47-.58.71.27-.14-.16.17-1.49,1.03-3.24,1.6-5.05,1.66-.57.03-1.14.03-1.7,0-.45-.02-.89-.06-1.33-.12-.51-.09-1.02-.21-1.52-.35-.27-.08-.54-.17-.81-.26-.54-.19-.12-.03-.4-.17-.39-.2-.77-.43-1.14-.66-.13-.08-.53-.46-.07-.04-.16-.15-.32-.31-.48-.46-.06-.06-.36-.47-.1-.1.27.4-.07-.14-.12-.25-.17-.42.1.25.1.25.03-.95-.1.87-.04-.1.11-1.99,0-4.03,0-6.03-.02-5.47-.03-10.95-.04-16.43,0-4.9-7.61-4.91-7.61,0,0,5.55.02,11.1.04,16.65-.18,2.46-.12,4.93.19,7.38.67,2.51,2.34,4.64,4.61,5.9,5.24,2.93,11.54,3.26,17.05.9,2.39-.9,4.39-2.6,5.66-4.81.89-2.36,1.2-4.89.9-7.39-.01-6.17-.04-12.33-.04-18.5,0-4.9-7.61-4.91-7.61,0v.02Z"/><path class="cls-10" d="M203.78,460.98c-3.51-2.71-8.41-2.71-11.92,0-8.25,6.46-14.64,15-18.5,24.74-1.21,2.94-2.12,5.99-2.72,9.11-.49,2.98-.8,5.99-.93,9.01-.34,5.32-.65,10.82,1.27,15.8,1.71,4.34,4.94,7.9,9.09,10.03,4.11,2.1,13.16,3.22,17.76,3.22,3.47,0,13.65-1.12,17.76-3.22,4.15-2.13,7.38-5.69,9.09-10.03,1.92-4.97,1.61-10.47,1.27-15.8-.13-3.02-.44-6.03-.93-9.01-.6-3.12-1.51-6.17-2.72-9.11-3.86-9.74-10.25-18.28-18.51-24.74Z"/><path class="cls-2" d="M205.7,457.69c-3.18-2.26-7.18-3.06-10.98-2.19-3.81.88-6.84,3.64-9.61,6.24-5.52,5.21-10.04,11.39-13.34,18.23-1.8,3.62-3.22,7.41-4.25,11.32-.97,4.4-1.53,8.89-1.67,13.4-.5,8.26.05,16.35,5.59,22.93,4.53,5.38,10.93,7.36,17.65,8.32,5.78.83,11.66.81,17.44-.06,6.52-.94,12.62-2.66,17.21-7.71,5.75-6.33,6.58-14.44,6.12-22.65-.12-5.08-.77-10.13-1.94-15.08-3.61-12.69-11.11-23.94-21.44-32.16-1.51-1.42-3.87-1.42-5.38,0-1.47,1.49-1.47,3.89,0,5.38,10.53,8.03,17.76,19.64,20.33,32.63.54,3.62.84,7.27.91,10.93.29,3.43-.02,6.89-.92,10.22-1.65,5.03-5.83,8.83-11.01,9.99-4.35,1.13-8.82,1.68-13.31,1.65-5.01.08-9.98-.76-14.68-2.48-5.51-2.64-9.03-8.19-9.09-14.3-.52-7.23.24-14.5,2.24-21.47,2.2-6.96,5.75-13.42,10.47-19,3.74-4.41,9.63-11.96,15.83-7.55,1.82,1.04,4.14.44,5.21-1.36,1.02-1.82.42-4.13-1.36-5.22Z"/><path class="cls-6" d="M571.88,319.4c-3.25.58-6.54.91-9.84,1.02-3.65-.07-7.3-.45-10.88-1.14h-.02c0,7.2.05,16.7.05,22.46,0,3.32,4.7,6.09,10.45,6.09s10.35-2.78,10.35-6.09c0-5.71-.05-15.14-.05-22.32h-.06Z"/><path class="cls-2" d="M568.14,319.4c0,4.84.01,9.69.03,14.53,0,2.12,0,4.24.02,6.35,0,.47-.03.96,0,1.44.02.3-.17.55.04-.17-.1.34-.15.16,0,.09.29-.14.03-.06-.13.19-.22.35.12-.11.15-.15-.14.17-.3.31-.44.47-.58.71.27-.14-.16.17-1.49,1.03-3.24,1.6-5.05,1.65-.57.03-1.14.04-1.71,0-.45-.02-.89-.06-1.33-.12-.51-.09-1.02-.21-1.52-.35-.27-.08-.54-.17-.81-.26-.54-.19-.12-.03-.4-.17-.4-.2-.77-.43-1.14-.66-.13-.08-.53-.46-.07-.04-.16-.15-.31-.31-.48-.46-.06-.06-.35-.47-.1-.1.27.4-.07-.14-.12-.25-.17-.43.1.25.1.24.03-.95-.1.87-.04-.1.11-1.99,0-4.03,0-6.03-.01-5.48-.03-10.95-.04-16.42,0-4.9-7.61-4.91-7.61,0,0,5.55.01,11.1.04,16.65-.18,2.46-.12,4.93.19,7.38.67,2.51,2.34,4.64,4.61,5.9,5.24,2.93,11.54,3.26,17.05.9,2.39-.9,4.39-2.6,5.66-4.81.89-2.36,1.2-4.89.9-7.39-.01-6.17-.04-12.33-.04-18.5,0-4.9-7.61-4.91-7.61,0l.02.02Z"/><path class="cls-10" d="M568.01,248.5c-3.51-2.71-8.41-2.71-11.92,0-8.25,6.46-14.64,15-18.5,24.74-1.21,2.94-2.12,5.99-2.72,9.11-.49,2.98-.8,5.99-.93,9.01-.34,5.31-.65,10.82,1.27,15.8,1.71,4.34,4.94,7.91,9.08,10.04,4.11,2.09,13.16,3.22,17.76,3.22,3.47,0,13.65-1.12,17.76-3.22,4.15-2.13,7.38-5.69,9.09-10.03,1.92-4.97,1.61-10.47,1.27-15.8-.13-3.02-.44-6.03-.93-9.01-.6-3.12-1.51-6.17-2.72-9.11-3.86-9.74-10.25-18.29-18.5-24.75Z"/><path class="cls-2" d="M569.93,245.22c-3.18-2.26-7.18-3.06-10.98-2.19-3.81.88-6.84,3.64-9.61,6.24-5.52,5.21-10.04,11.39-13.34,18.23-1.8,3.62-3.22,7.41-4.25,11.32-.97,4.4-1.53,8.89-1.67,13.4-.49,8.26.05,16.35,5.59,22.93,4.53,5.38,10.93,7.36,17.65,8.32,5.78.83,11.66.81,17.44-.06,6.52-.94,12.62-2.66,17.21-7.71,5.75-6.33,6.58-14.43,6.12-22.64-.12-5.08-.77-10.13-1.94-15.08-3.61-12.7-11.11-23.94-21.44-32.16-1.51-1.42-3.87-1.42-5.38,0-1.47,1.49-1.47,3.89,0,5.38,10.53,8.03,17.76,19.63,20.33,32.62.54,3.62.84,7.27.91,10.93.29,3.43-.02,6.89-.92,10.22-1.66,5.03-5.84,8.83-11.01,9.99-4.34,1.13-8.82,1.68-13.31,1.65-5.01.08-9.98-.76-14.69-2.47-5.51-2.65-9.03-8.19-9.09-14.3-.52-7.23.24-14.5,2.24-21.47,2.2-6.96,5.75-13.42,10.47-19,3.74-4.41,9.63-11.96,15.83-7.55,1.82,1.04,4.14.44,5.21-1.36,1.02-1.82.42-4.13-1.37-5.22Z"/><path class="cls-6" d="M630.57,506.5c-1.91.06-3.78-.62-5.2-1.9-3.02-3.26-2.07-7.63-1.1-10.76,3.48-3.03,6.91-6.12,10.29-9.25,2.13-.54,4.38.14,5.85,1.77,1.36,1.88,1.85,4.25,1.34,6.52-.52,2.23-1.42,4.36-2.66,6.29-1.24,2.45-3.05,4.57-5.26,6.19-.64.41-1.33.73-2.05.95-.4.12-.81.18-1.22.19Z"/><path class="cls-6" d="M573.38,500.65c-.32-2.07.2-4.19,1.45-5.87,2.62-2.33,6.4-2.83,9.53-1.24-.05.27-.06.55-.04.83.1.71.37,1.39.8,1.98,2.21,2.8,5.38,4.68,8.9,5.27.6.17,1.25.1,1.8-.19l.05-.04c1.83,2.68.83,5.36-1.24,7.37-1.77,1.55-4.13,2.26-6.47,1.95-2.31-.32-4.55-1.05-6.61-2.14-2.58-1.04-4.89-2.67-6.73-4.76-.47-.61-.85-1.28-1.14-1.99-.15-.38-.24-.77-.29-1.17Z"/><path class="cls-6" d="M610.24,473.27l-13.65,27.08c-.17.41-.43.77-.78,1.06-.55.29-1.2.36-1.8.19-3.52-.58-6.7-2.46-8.9-5.27-.42-.58-.7-1.26-.8-1.98-.02-.59.06-1.17.24-1.73,3.63-13.59,7.46-22.03,10.08-35.29,9.93,1.93,21.04,1.49,30.9.5,1.36,9.23,4.86,18.01,10.23,25.63-4.58,4.27-9.25,8.45-13.99,12.53-3.69-4.51-9.99-15.06-11.46-22.3"/><path class="cls-6" d="M566.52,433.35c.63-1.87,2.05-3.38,3.88-4.12,2.82-.98,5.87-1.06,8.74-.25.94,2.72,2.76,7.8,4.23,10.9-.51,3.88-4.6,5.86-8.18,6.12-3.09.36-6.12-.99-7.92-3.52-1.36-2.2-1.82-4.83-1.28-7.36.13-.6.31-1.2.53-1.77Z"/><path class="cls-6" d="M613.1,374.68c-3.47-.88-7.11-.74-10.5.41-2.74.75-5.24,2.21-7.23,4.25-1.23,1.43-2.21,3.06-2.89,4.82-2.1,4.74-2.4,10.09-.83,15.03,1.91,4.82,6.1,8.36,11.17,9.43,4.18,1.15,8.62.86,12.62-.82,3.57-1.59,6.4-4.49,7.92-8.1,1.39-3.75,1.81-7.78,1.24-11.74-.22-3.22-1.66-6.24-4.03-8.43-1.68-1.83-3.7-3.3-5.96-4.33-.49-.2-.99-.38-1.51-.52Z"/><path class="cls-7" d="M613.1,374.68c-3.47-.88-7.11-.74-10.5.41-2.74.75-5.24,2.21-7.23,4.25-.52.58-.99,1.2-1.4,1.86,3.26,1.56,9.5,4.16,11.87,8.85,2.03,4.02,1.88,12.98.78,19.17,3.01.34,6.06-.15,8.82-1.4,3.57-1.59,6.4-4.49,7.92-8.1,1.39-3.75,1.81-7.78,1.24-11.74-.22-3.22-1.66-6.24-4.03-8.43-1.68-1.83-3.7-3.3-5.96-4.33-.49-.21-.99-.38-1.51-.53Z"/><path class="cls-8" d="M625.74,417.33c-1.52-5.12-2.81-7.61-7.47-9.88l-15.85,1.84c-2.46.73-4.65,2.17-6.29,4.15-1.36,1.52-3.74,5.18-5.51,7.12-2.68,3.28-6.33,5.62-10.43,6.69-.8.25-1.26,1.1-1.01,1.9,0,.02.01.03.02.05,1.38,4.26,3.08,8.42,5.1,12.42,3.29-.54,6.46-1.62,9.4-3.19-.05,1.51-.07,2.38-.07,2.38-.09,3.04-.03,13.27,0,16.32,2.24.47,4.51.83,6.79,1.06,8.58.74,17.21.6,25.76-.42,1.48-11.39,3.01-28.4-.14-39.44-.09-.35-.19-.68-.29-1.01Z"/><path class="cls-2" d="M590.9,456.69c-1.66,7.47-3.72,14.84-6.18,22.09-1.19,3.71-2.35,7.42-3.38,11.18-.65,1.72-.89,3.58-.69,5.41.46,1.92,1.47,3.67,2.9,5.03,2.46,2.37,5.54,4.02,8.88,4.76,2.07.69,4.36.3,6.08-1.05,1.26-1.45,2.25-3.12,2.93-4.92l12.09-23.99c2.2-4.36-4.37-8.22-6.57-3.84l-7.02,13.93-3.32,6.58-1.75,3.48c-.43,1.2-1.02,2.33-1.74,3.38l1.68-.98c-.88.36-2.72-.64-3.57-1.1-.75-.38-1.45-.86-2.08-1.42-.25-.23-.47-.48-.7-.73-.09-.1-.51-1.06-.4-.5.1.5.24-.63.28-.78.14-.55.3-1.1.45-1.65.29-1.05.6-2.1.91-3.15.61-2.08,1.26-4.15,1.92-6.22,2.62-7.7,4.83-15.54,6.62-23.48.98-4.78-6.36-6.83-7.34-2.02h0Z"/><path class="cls-2" d="M621.46,455.64c.73,10.66,5.33,20.88,11.02,29.76l.6-4.61c-4.59,4.27-9.25,8.45-13.99,12.54h5.38c-2.24-2.95-4.23-6.08-5.96-9.36-2.03-3.52-3.55-7.31-4.52-11.26-1.03-4.79-8.37-2.76-7.34,2.02,1.86,8.62,6.95,17.17,12.44,23.98,1.5,1.45,3.88,1.45,5.38,0,4.74-4.09,9.4-8.27,13.99-12.54,1.21-1.23,1.45-3.12.6-4.61-3.22-4.77-5.8-9.93-7.69-15.37-1.12-3.43-1.89-6.96-2.28-10.55-.05-2.08-1.72-3.76-3.81-3.81-2.09.02-3.79,1.71-3.81,3.81h-.01Z"/><path class="cls-9" d="M635.09,444.55c-1.4.42-4.82,2.38-6.28,2.02-1.99-.49-2.11-4.11-2.27-5.69-.43-4.24-.58-8.51-.45-12.77.05-1.68-.21-3,1.51-3.62,1.82-.32,3.7-.25,5.49.21.44-.03.83.31.85.75,0,.03,0,.07,0,.1.84,5.98,1.44,11.98,1.8,18.02.13.4-.09.83-.49.96-.05.02-.11.03-.16.03h0Z"/><path class="cls-2" d="M634.08,440.88c-.72.23-1.41.55-2.09.85-.29.13-.57.25-.87.38-.91.41.45-.15-.29.13-.6.23-1.2.41-1.81.6-.69.21.84,0,.15-.03.42,0,.83.11,1.18.33l-.18-.1c.28.18,1.14,1.22.56.41-.39-.56.19.74.03.04-.06-.28-.15-.56-.21-.84-.08-.39.04-1.08-.04-.09-.03-1.34-.16-2.68-.38-4-.29-3.72-.3-7.42-.24-11.15.04-.3.05-.61.03-.92-.1.57-.11.72-.04.44s.02-.15-.19.4c-.17.29-.42.54-.71.71-.47.16-.51.18-.12.06.75-.17-.73-.07.16-.02.32.02.65,0,.97.02.18.01,1.57.21.62.05l.91.14c.18.03.36.06.54.09.41.09.32.05-.26-.12l-1.36-1.37c-.41-.76-.09.32-.06.53-.06-.47.05.35.06.49.1.78.2,1.57.29,2.35.18,1.5.34,3,.49,4.5.15,1.5.28,3.01.4,4.51.06.72.11,1.43.16,2.15.03.43.06.86.09,1.29l.03.43c0,.84.14.59.41-.77l1.36-1.37.4-.11c-2.03.56-3.22,2.66-2.66,4.68.56,2.03,2.66,3.22,4.68,2.66h0c2.04-.57,3.45-2.42,3.45-4.54,0-1.4-.18-2.82-.29-4.21-.21-2.72-.47-5.44-.78-8.16-.15-1.36-.32-2.71-.5-4.07-.28-2.11-.32-4.31-2.32-5.58-.93-.51-1.95-.81-3.01-.88-1.29-.25-2.61-.36-3.93-.33-2.94-.07-5.53,1.91-6.24,4.76-.33,2.51-.41,5.05-.23,7.57.05,2.73.23,5.45.49,8.17.06,1.86.41,3.69,1.03,5.44,1.04,2.87,4.07,4.52,7.04,3.82,1.2-.29,2.37-.71,3.49-1.25.43-.19.86-.37,1.29-.57.8-.36-.62.21-.12.05.22-.07.42-.16.64-.23,2.03-.56,3.22-2.66,2.66-4.68-.56-2.03-2.66-3.22-4.68-2.66h0Z"/><path class="cls-2" d="M615.16,410.19c2.95.93,5.28,3.21,6.28,6.14,1.38,4.04,2.2,8.25,2.45,12.51.43,9.67-.08,19.37-1.52,28.94l3.81-3.81c-10.44,1.06-21.19,1.62-31.54-.5l2.8,3.67c-.05-5.44-.14-10.89,0-16.32.13-4.9-7.49-4.9-7.61,0-.14,5.44-.05,10.89,0,16.32.02,1.71,1.15,3.2,2.79,3.67,11.08,1.96,22.4,2.22,33.56.77,2.07-.08,3.72-1.74,3.81-3.81,1.67-10.53,2.09-21.21,1.27-31.84-.42-4.84-1.58-9.59-3.44-14.08-1.76-3.78-4.92-6.73-8.81-8.24-1.82-.99-4.11-.4-5.21,1.36-1.05,1.82-.44,4.14,1.37,5.21h0Z"/><path class="cls-2" d="M614.11,371.01c-8.42-2.23-19.15.9-23.68,8.68-4.24,7.28-5.34,17.79-.19,24.9,5.08,7.01,14.17,9.59,22.49,8.08,3.93-.8,7.53-2.78,10.32-5.66,3.02-3.28,4.89-7.45,5.32-11.89.62-4.83.33-10.57-2.33-14.8-2.78-4.39-6.99-7.68-11.93-9.31-4.69-1.45-6.7,5.9-2.02,7.34,2.79.99,5.21,2.79,6.95,5.18,1.6,2.57,2.29,5.61,1.97,8.62-.14,5.54-2.6,10.57-8.02,12.59-5.2,1.8-10.97.69-15.14-2.9-4.37-4.21-4.02-10.92-1.9-16.2,1.05-2.88,3.27-5.19,6.11-6.35,3.15-1.4,6.67-1.74,10.02-.95,4.75,1.27,6.77-6.07,2.03-7.33Z"/><path class="cls-2" d="M592.69,384.79c2.15.95,4.22,2.06,6.2,3.32.26.17.51.35.76.53.21.16.2.15-.03-.03l.29.23c.52.44,1.01.9,1.47,1.39.21.22.41.45.6.69-.32-.42.02.07.14.26.16.26.28.53.44.78.44.69-.19-.71.06.13.33,1.07.59,2.16.76,3.26-.11-.76.05.46.05.49.03.33.06.66.08.99.05.68.08,1.36.09,2.05.03,1.48,0,2.97-.1,4.44-.04.7-.1,1.4-.17,2.09-.04.41-.09.81-.14,1.22-.01.19-.04.37-.08.56-.49,2.02.68,4.07,2.66,4.68,2.03.54,4.11-.64,4.68-2.66.55-3.42.8-6.88.76-10.34.06-3.08-.4-6.16-1.36-9.09-2.23-5.9-7.9-9.05-13.32-11.58-1.82-1-4.11-.4-5.21,1.37-1.04,1.82-.43,4.13,1.36,5.21h0Z"/><path class="cls-2" d="M601.41,405.62c-4.54.76-7.91,4.87-10.47,8.35-2.17,3.47-5.13,6.38-8.65,8.47-.14.07-1.27.55-.54.26-.42.17-.85.32-1.28.46-1.21.28-2.35.81-3.34,1.56-2.25,2.06-1.9,4.65-.97,7.23,1.22,4.02,2.86,7.9,4.87,11.58.9,1.45,2.64,2.16,4.3,1.75,6.83-1.42,13.16-4.62,18.34-9.29,1.47-1.49,1.47-3.89,0-5.38-1.5-1.44-3.88-1.44-5.38,0-4.24,3.75-9.42,6.28-14.98,7.33l4.3,1.75c-1.59-2.85-2.87-5.86-3.82-8.98-.2-.82-.48-1.61-.84-2.37-.34-1.08-.8-.26-1.4,2.47l.64-.2c.32-.1.64-.21.95-.33,1.64-.56,3.21-1.32,4.68-2.24,3.54-2.52,6.6-5.67,9.02-9.29,1.6-2.18,3.76-5.33,6.62-5.8,2.02-.57,3.21-2.66,2.66-4.68-.6-2-2.66-3.17-4.68-2.66h0Z"/><path class="cls-2" d="M579.42,440.11c.03-.08.42-.8.1-.27-.06.1-.11.2-.17.3-.08.13-.18.25-.25.38-.17.33.21-.31.25-.32-.09,0-.54.57-.63.66s-.18.15-.26.23c-.32.3.78-.52.12-.11-.23.14-.46.29-.7.43-.16.09-.67.23-.74.37.03-.06.88-.33.25-.12-.11.04-.22.08-.34.12-.3.1-.61.19-.92.26-.27.07-.54.12-.81.17-.65.13.25-.05.32-.04-.15,0-.31.01-.46.04-.32.02-.63.03-.95.03h-.39c-.13,0-.89-.11-.26,0,.61.1-.29-.06-.46-.11-.27-.07-.54-.15-.81-.24-.86-.31.49.3-.06-.03-.27-.16-.54-.31-.81-.47-.56-.34.19.1.2.18-.11-.11-.23-.22-.37-.31-.21-.19-.41-.38-.61-.59-.08-.09-.16-.19-.25-.27-.31-.33.06-.19.12.19-.03-.21-.33-.51-.43-.7-.06-.14-.12-.28-.2-.41.03.02.26.74.16.35-.08-.29-.19-.57-.27-.86s-.13-.62-.2-.93c-.12-.53.04.72.02.17,0-.24-.04-.48-.05-.72,0-.34,0-.68.02-1.02,0-.15.01-.3.04-.44,0,0-.15.74,0,.14.09-.33.16-.65.26-.98.04-.13.09-.26.13-.39.25-.83-.26.48-.04.06.25-.5.54-.95.83-1.44.24-.4-.55.53-.19.26.08-.07.15-.15.22-.24.12-.13.91-.81.37-.38-.54.43.18-.07.34-.18.65-.42-.84.26,0,0,.8-.29,1.63-.49,2.47-.6-.13,0-.83.07-.12.03.19-.01.4-.03.59-.04.38-.02.78-.02,1.17,0,.19,0,.38.02.57.03.13,0,.93.13.33.02-.53-.1-.07-.01.03,0,.26.05.51.1.76.15,2.03.56,4.12-.63,4.68-2.66.56-2.03-.63-4.12-2.66-4.68h0c-1.94-.45-3.94-.58-5.93-.38-2.1.13-4.15.71-5.99,1.71-5.94,4.28-7.29,12.57-3.01,18.51.48.67,1.02,1.29,1.62,1.86,4.74,3.68,11.28,3.98,16.34.76,1.98-1.3,3.5-3.2,4.33-5.41.55-2.03-.64-4.12-2.66-4.68-2.02-.5-4.08.67-4.68,2.66l.02-.04Z"/><path class="cls-2" d="M592.99,503.99c-.13-.33-.12-.28.01.13.1.46.1.46.01.02-.02.45,0,.45.06,0-.04.22-.1.44-.17.65.2-.72-.26.45-.38.64.36-.56-.48.51-.59.63-.33.29-.34.31-.03.06-.19.13-.39.25-.59.36-.4.19-.41.21-.03.05-.22.08-.44.15-.66.22-.34.1-.68.17-1.02.22.85-.12-.57-.02-.74-.03-1.74-.21-3.44-.71-5.01-1.48-1.69-.72-3.29-1.62-4.78-2.69.56.43-.5-.47-.6-.57s-.95-1.12-.59-.6c-.26-.37-.45-.76-.68-1.16-.14-.29-.12-.23.06.16-.05-.16-.1-.31-.13-.48-.07-.41-.07-.34.02.22-.02-.19-.03-.38-.03-.57,0-.4.02-.8.05-1.2-.08,1.01.08-.25.14-.47.09-.34.62-1.2.11-.41.59-.89-.33.16.1-.22.79-.7-.6.3.27-.24.15-.1,1.36-.69.52-.36.39-.16.8-.24,1.2-.37.44-.08.41-.09-.09-.02.2-.02.41-.04.61-.05.41-.02.8.02,1.2.02-1-.03.15.04.41.1.22.06,1.38.49.38.06,1.82,1,4.11.4,5.21-1.37,1.04-1.82.43-4.13-1.36-5.21-3.93-1.86-8.54-1.56-12.19.79-1.83,1.24-3.15,3.1-3.71,5.24-.56,2.02-.61,4.15-.14,6.19,1.11,4.43,5.28,7.38,9.15,9.27,4.29,2.09,9.2,4.02,14,2.45,2.64-.85,4.88-2.63,6.31-5.01,1.61-2.7,1.71-6.03.28-8.82-1.07-1.81-3.39-2.42-5.21-1.36-1.77,1.1-2.37,3.38-1.36,5.21h-.01Z"/><path class="cls-2" d="M634.91,488.38c.07-.02.85-.17.85-.17,0,.06-.74.04-.28.06.19,0,.39-.02.59-.02s.99.14.52.02c-.5-.14,0,.01.07.04.19.06.38.12.56.17-.6-.15-.2-.05.15.14-.1-.05-.62-.51-.06-.03.03.03.42.4.13.1-.23-.24.26.46.36.6.23.31,0-.03-.03-.14.08.21.15.43.21.65.07.26.18,1,.11.33.04.4.05.81.04,1.21,0,.17-.11,1.06-.04.7.09-.45-.05.17-.06.21-.06.25-.12.49-.19.74-.1.37-.23.73-.36,1.08-.26.72-.12.3-.05.15-.08.18-.16.35-.24.52-.36.75-.76,1.47-1.17,2.19-.39.68-.8,1.35-1.23,2.01-.19.3-.4.6-.61.89-.1.14-.21.29-.32.43.24-.31.1-.13-.07.06-.28.31-.55.62-.84.91-.13.12-.26.24-.38.37-.02.02-.45.41-.16.16s-.15.11-.18.13c-.15.1-.3.2-.45.29s-.33.19-.49.28-.51.19-.13.07c-.19.07-.4.11-.6.19-.28.1-.31-.08,0,.01.34.11.22,0-.03-.02h-.42c-.14.01-.29,0-.43-.03,0,0,.74.16.29.03-.37-.11-.76-.22-1.14-.3s.18.09.23.12c-.13-.06-.26-.12-.38-.19s-.9-.43-.41-.21c.38.18.11.12,0-.02-.09-.11-.19-.21-.29-.3-.31-.26,0,0,.06.1-.15-.23-.3-.46-.43-.7-.08-.14-.14-.29-.22-.43.15.3.15.41.04.03-.1-.35-.17-.7-.26-1.05-.1-.43.03.21.03.26,0-.2-.03-.41-.04-.61-.01-.4,0-.81.03-1.21.01-.15.03-.3.04-.45.04-.55-.13.66-.01.12.08-.33.13-.68.19-1.01.16-.72.37-1.43.58-2.14.54-2.03-.65-4.11-2.66-4.68-2.02-.51-4.09.66-4.68,2.66-1.47,3.85-1.42,8.11.14,11.93,2.14,4.12,6.72,6.36,11.28,5.54,4.64-.76,7.89-4.96,10.14-8.73,2.42-4.06,4.36-8.67,3.14-13.47-.63-2.68-2.37-4.95-4.8-6.24-2.4-1.1-5.11-1.32-7.66-.64-2.02.57-3.2,2.66-2.66,4.68.59,2,2.66,3.18,4.68,2.66v-.02Z"/><path class="cls-6" d="M704.51,589.11c-1.26-2.01-1.5-4.51-.63-6.72,1.96-3.21,6.13-4.26,9.38-2.36,3.66,2.14,7.73,3.47,11.94,3.9,2.32,1.24,1.38,4.38.08,6.5-1.25,1.84-3.23,3.05-5.44,3.32-2.18.26-4.39.13-6.53-.37-2.61-.33-5.1-1.27-7.29-2.73-.57-.44-1.08-.96-1.52-1.54Z"/><path class="cls-6" d="M755.92,593.24c-2.19.47-4.48-.14-6.15-1.63-2.46-2.6-2.78-6.55-.79-9.52,2.45-3.52,5.28-6.77,8.44-9.67,1.95-1.77,5.2-.23,6.77,1.71,1.31,1.8,1.78,4.07,1.29,6.24-.5,2.14-1.36,4.18-2.55,6.03-1.19,2.34-2.92,4.38-5.04,5.93-.61.39-1.27.7-1.96.91Z"/><path class="cls-6" d="M712.4,503.45c-1.76-.72-3.71-.79-5.52-.2-1.96.56-3.69,1.75-4.93,3.37-1.26,1.48-1.88,3.41-1.73,5.35,0,1.58.63,3.1,1.74,4.23,1.3,1.13,3.01,1.68,4.73,1.53l1.74-.19c2.53-1.09,5.15-2.22,6.33-2.74.39-.15.76-.36,1.09-.62.4-.42.71-.92.92-1.47l.66-1.47v-.19c.02-2.83-1.43-5.47-3.82-6.98-.38-.25-.78-.46-1.2-.63Z"/><path class="cls-6" d="M746.14,495.33c4.68-3.92,6.33-10.93,6.88-14.75.89-8.04-4.32-15.49-12.18-17.41-5.94-1.59-12.29-.07-16.87,4.04-3.88,3.51-6.12,8.48-6.19,13.71-.08,2.92.71,5.79,2.26,8.26,1.58,2.48,4.11,4.18,7,4.71"/><path class="cls-8" d="M720.84,505.06c-1.52,2.46-2.88,5.02-4.07,7.65-.2.55-.51,1.05-.92,1.47-.33.26-.69.47-1.09.62-2.21.98-9.53,4.11-11.74,5.09,1.42,7.15,7.68,13.35,14.14,14.19,1.28.21,2.6.13,3.84-.26,1.17-.48,2.25-1.14,3.2-1.97,1.94-1.47,3.81-3.03,5.6-4.69,4.95.17,7.72.79,13.03,1.35.46,5.53.18,11.09-.84,16.54,3.93-.41,7.87-.82,11.8-1.23,1.48-11.39,2.67-25.6-.48-36.64-1.79-6.25-4.84-12.88-10.82-15.43l-15.48,7.09c-2.04.96-3.76,2.47-4.98,4.36-.4.61-.8,1.23-1.19,1.85Z"/><path class="cls-5" d="M718.55,563.75c-1.83-.59-3.64-1.26-5.43-2.03,2.63-5.44,5.26-10.87,7.88-16.31,6.28.91,12.6,1.5,18.94,1.76,1.06.03,1.94-.81,1.97-1.87,0-.08,0-.16,0-.24l11.06-1.14c.8,4.83,3.4,14.98,4.12,18.18.11.49-3.86,1.99-4.3,2.12-11.2,3.25-23.12,3.09-34.23-.48Z"/><path class="cls-2" d="M740.56,495.05c7.23,3.32,9.62,12.91,10.47,20.13.81,9.56.46,19.18-1.05,28.66l3.81-3.81-10.23,1.06c-2.08.06-3.75,1.73-3.81,3.81.01,2.1,1.71,3.79,3.81,3.81l10.23-1.06c2.07-.08,3.72-1.74,3.81-3.81,1.37-10.61,2.25-21.39.6-32.03-1.36-8.79-5.1-19.36-13.78-23.34-1.82-1-4.11-.4-5.21,1.36-1.04,1.82-.43,4.14,1.37,5.21h0Z"/><path class="cls-2" d="M742.97,530.13c-.05-.92-.76-1.67-1.67-1.78-4.34-.51-7.02-1.03-11.45-1.18h-.07c-1.75,1.68-3.66,3.19-5.58,4.69-.95.83-2.03,1.49-3.2,1.97-1.24.38-2.56.47-3.84.26-2.87-.45-5.56-1.71-7.75-3.63l-1.29.21c-.29,1.69-1.04,6.11-1.81,10.28-.18,1,.46,1.97,1.45,2.2,10.61,2.18,21.37,3.53,32.18,4.04.93.03,1.75-.62,1.93-1.54.99-5.11,1.36-10.31,1.1-15.51Z"/><path class="cls-2" d="M729.84,530.98c3.19.13,6.34.53,9.52.94.42.05.85.11,1.27.16-.69-.18-1.24-.71-1.43-1.4-.22.27.06,1.92.06,2.3,0,1.65-.06,3.29-.18,4.93-.11,1.5-.25,3-.48,4.48-.09.54-.26,1.14-.29,1.69-.36,1.17.19.93,1.64-.72-.28,0-.57-.02-.85-.02-2.64-.09-5.28-.3-7.91-.55-5.52-.52-11.03-1.25-16.5-2.19-1.27-.22-2.54-.45-3.81-.7-.56-.16-1.13-.27-1.71-.35-1.08-.33-.78.25.92,1.74.08-.44.16-.88.24-1.32.5-2.76.97-5.52,1.45-8.29.5-2.02-.67-4.08-2.66-4.68-2.03-.54-4.11.65-4.68,2.66-.48,2.77-.95,5.53-1.45,8.3-.64,1.91-.61,3.99.1,5.88.83,1.57,2.32,2.69,4.06,3.07,5.55,1.24,11.16,2.15,16.82,2.72,2.93.37,5.87.69,8.81.95,2.52.33,5.07.46,7.61.38,4.3-.35,5.22-4.14,5.71-7.69.5-3.4.75-6.83.76-10.27.2-1.92-.1-3.85-.87-5.62-1.11-1.72-2.99-2.79-5.04-2.85-3.7-.46-7.38-.99-11.12-1.14-4.9-.19-4.89,7.42,0,7.61h.02Z"/><path class="cls-2" d="M725.61,499.64c2.32.49,4.32,1.96,5.48,4.03,1.58,2.13,2.51,4.67,2.69,7.31.48,5.65.52,11.33.12,16.99,0,2.1,1.7,3.81,3.81,3.81s3.81-1.7,3.81-3.81c.54-6.47.41-12.99-.41-19.43-.56-3.6-2.04-7-4.29-9.87-2.24-2.95-5.35-5.85-9.17-6.37-2.02-.49-4.07.68-4.68,2.66-.54,2.03.64,4.11,2.66,4.68h0Z"/><path class="cls-2" d="M716.44,546.12l-6.61,13.68c-1.03,1.89-.34,4.25,1.55,5.28.23.13.48.23.74.31,12.86,5.42,28.53,6.91,41.93,2.42,2.04-.52,3.94-1.47,5.59-2.77,2.03-1.96.99-4.61.42-6.95-1.21-5-2.51-10.01-3.39-15.08-.57-2.02-2.66-3.2-4.68-2.66-2,.59-3.17,2.66-2.66,4.68,1.05,6.09,2.73,12.06,4.1,18.08v-2.02l-.03.11.98-1.68c.76-.81-.11,0-.54.22-.36.17-.72.33-1.09.46-1.3.47-2.63.85-3.99,1.14-3.71.86-7.49,1.33-11.3,1.39-8.01.08-15.95-1.51-23.31-4.68l2.27,5.59,6.61-13.68c2.12-4.39-4.44-8.26-6.57-3.84h0Z"/><path class="cls-2" d="M707.8,587.19c-.15-.22-.26-.49-.41-.69-.12-.25-.07-.15.14.32-.06-.17-.12-.34-.17-.52-.08-.27-.13-.55-.19-.82-.19-.89,0,.79,0-.13v-.84c.04-.44.02-.36-.05.22.02-.12.04-.25.08-.37.35-.87-.44.47,0-.05.15-.18.72-.79.08-.15.19-.19.39-.39.58-.59.55-.57-.55.28.1-.06.28-.13.55-.29.82-.45.25-.13.15-.09-.3.13.16-.06.33-.11.5-.16.25-.08.5-.14.76-.18,0,.03-.91.06,0,.03.25,0,.49,0,.74.01.73,0-.82-.27.06.03.15.05.88.36.31.06-.61-.32.24.16.34.22.41.26.79.55,1.21.78,1.33.72,2.72,1.33,4.16,1.82,2.8.99,5.71,1.64,8.67,1.94l-1.92-.52c.57.34-.16-.22-.28-.33-.18-.27-.19-.27-.02,0l-.19-.48c.21.7.06-.59.02-.19.01.21.01.42-.01.63-.02,0,.23-.94-.02-.09-.06.22-.14.44-.19.66-.19.67.23-.38.01,0-.12.2-.2.42-.31.62-.13.19-.25.4-.36.6-.16.38.51-.48-.07.08-.07.07-.68.68-.3.33s-.34.22-.38.24c-.22.14-.47.24-.69.38-.44.26.78-.22-.11.04-.5.16-1.01.29-1.52.38.41-.06-.06,0-.21,0-.41.01-.82.02-1.23.01-.27,0-.55-.02-.82-.04.02,0-1.21-.13-.63-.05-1.2-.17-2.38-.4-3.56-.69-.58-.14-1.16-.3-1.73-.49-.28-.09-.56-.19-.84-.3.63.25-.1-.06-.22-.12-.27-.13-.52-.28-.77-.43-.07-.04-.82-.57-.49-.31s-.37-.35-.43-.41c-.25-.26-.49-.54-.71-.82-1.49-1.49-3.9-1.49-5.38,0h0c-1.42,1.51-1.42,3.87,0,5.38,2.06,2.35,4.81,3.99,7.86,4.67,2.97.9,6.06,1.31,9.16,1.2,3.15-.1,6.14-1.37,8.4-3.57,1.92-2.05,3.05-4.71,3.2-7.52.04-1.32-.3-2.62-.99-3.75-.52-.84-1.23-1.54-2.08-2.05-.35-.23-.74-.41-1.14-.52-.43-.07-.85-.12-1.28-.17l.16.02c-1.05-.08-2.08-.29-3.08-.62-1.27-.31-2.53-.69-3.76-1.14-.25-.09-.49-.19-.73-.28-.57-.22.8.39-.06-.03-.46-.22-.92-.44-1.36-.69-.95-.64-1.96-1.17-3.02-1.6-2.26-.73-4.7-.66-6.91.19-3.06,1.01-5.44,3.44-6.37,6.53-.68,2.93-.17,6.02,1.41,8.58,1.06,1.82,3.39,2.43,5.21,1.37,1.82-1.06,2.43-3.39,1.37-5.21h-.04Z"/><path class="cls-2" d="M754.91,589.57s-.48.13-.48.11c-.04-.16.86-.03.22-.07-.19,0-.38-.01-.56-.02-.82-.03.16-.02.15.02-.43-.09-.86-.21-1.28-.35-.51-.15.55.32.12.04-.08-.05-.59-.24-.6-.34,0,0,.55.54.16.12-.14-.15-.28-.3-.42-.45.38.42.02.03-.05-.09-.12-.19-.23-.38-.35-.58-.36-.59-.07-.14-.02.03-.07-.19-.14-.38-.19-.59-.07-.19-.12-.39-.14-.59.06.52.07.57.03.13v-.29c0-.19.01-.38.01-.58,0-.8.04.14-.03.16.05-.01.24-1.01.27-1.1.04-.18.1-.36.19-.53-.34.36-.23.47-.05.14.19-.36.38-.72.6-1.07.34-.55.71-1.08,1.12-1.57-.63.74.12-.14.29-.34.32-.39.65-.78.98-1.16,1.17-1.35,2.38-2.66,3.65-3.92.27-.28.55-.55.83-.82.15-.14.57-.72.78-.74-.02,0-.74.49-.1.14-.11.06-.8.28-.18.13l-.49.07h.26c.35.02.36.02.03-.01s-.32-.04.03.04c.17.07.37.12.54.18-.15-.05-.68-.38-.12-.02.24.15,1.08.8.43.22.28.25.54.51.81.78-.12-.12-.4-.66-.04-.03.05.08.48.86.26.41-.24-.49.14.45.14.46.06.21.1.43.15.64-.04-.16-.04-.76-.02-.03,0,.22.02.44.02.66s-.02.44-.03.66-.19.62,0-.03c-.15.53-.24,1.06-.41,1.59-.08.23-.17.45-.25.69-.13.38.19-.33-.12.26-.28.55-.54,1.09-.84,1.63-.54.97-1.11,1.93-1.73,2.85-.13.19-.26.38-.38.57-.16.22-.48.59-.13.19-.36.44-.74.85-1.14,1.25-.16.16-.34.3-.5.45.51-.5-.19.14-.32.22-.2.13-.41.24-.62.36-.68.38.38-.1-.43.17-2.03.56-3.22,2.65-2.66,4.68.56,2.03,2.65,3.22,4.68,2.66,5.71-1.9,9.26-7.58,11.42-12.92,2.2-5.44.95-12.3-4.68-15.08-2.76-1.59-6.22-1.34-8.72.63-1.66,1.45-3.21,3.03-4.64,4.71-3.1,3.46-6.31,7.22-6.42,12.1-.06,3.23,1.32,6.31,3.76,8.43,2.6,2.12,6.03,2.9,9.29,2.12,2.03-.56,3.22-2.65,2.66-4.68-.56-2.03-2.65-3.22-4.68-2.66l-.03-.02Z"/><path class="cls-2" d="M727.44,587.34c.98-.65,1.72-1.59,2.12-2.7.57-1.18,1.11-2.37,1.65-3.57,1.37-3.03,2.7-6.09,4.04-9.13.51-1.16,1.02-2.32,1.55-3.48,1.01-1.82.41-4.12-1.37-5.21-1.82-1.04-4.13-.43-5.21,1.36-2.35,5.11-4.47,10.31-6.86,15.4-.23.48-.45.95-.7,1.43-.08.15-.17.3-.25.45-.02.04-.07.09-.08.13.31-.52.75-.96,1.27-1.26-1.8,1.07-2.41,3.39-1.36,5.21,1.09,1.77,3.38,2.37,5.21,1.37h0Z"/><path class="cls-2" d="M714.28,562.84c-1.64,4.86-2.91,9.83-3.81,14.88-.24.99-.11,2.04.38,2.93,1.06,1.82,3.39,2.43,5.21,1.37.86-.5,1.49-1.32,1.75-2.28.9-5.05,2.17-10.03,3.81-14.89.54-2.03-.64-4.11-2.66-4.68-2.02-.51-4.09.67-4.68,2.66h0Z"/><path class="cls-2" d="M735.24,571.4c2.46,2.86,5.13,5.54,7.99,8.01,1.2,1.05,2.44,2.06,3.71,3.02,1.32,1.29,3.34,1.57,4.96.68.84-.52,1.46-1.33,1.75-2.27.56-2.03-.63-4.12-2.65-4.68-.99-.27-2.05-.14-2.94.38h0l.91-.38h-.01l1.01-.14h-.02l1.01.14s-.06-.01-.09-.03l.91.38c-.47-.25-.91-.55-1.32-.91l.76.6c-3.88-3.02-7.44-6.44-10.62-10.19-1.49-1.49-3.9-1.49-5.38,0-1.43,1.51-1.43,3.87,0,5.38h0Z"/><path class="cls-2" d="M761.68,567.14c-.45-.52-.89-1.04-1.31-1.59l.6.77c-.82-1.06-1.57-2.18-2.31-3.3-.52-.84-1.33-1.46-2.27-1.75-.49-.16-1.02-.18-1.52-.07-.5.02-.99.18-1.42.45-1.82,1.06-2.43,3.39-1.37,5.21,0,0,0,0,0,0,1.28,1.97,2.69,3.86,4.22,5.65,1.51,1.43,3.87,1.43,5.38,0,.71-.71,1.11-1.68,1.12-2.69l-.14-1.01c-.18-.64-.51-1.21-.98-1.68h0Z"/><path class="cls-2" d="M748.83,498.02c4.82-4.2,7.09-10.76,7.93-16.94.87-6.91-2.03-13.75-7.6-17.93-5.9-4.46-13.66-5.61-20.6-3.04-7.23,2.71-12.56,8.95-14.12,16.51-1.66,8.6,2,19.16,11.59,20.95,2.02.5,4.08-.67,4.68-2.66.54-2.03-.65-4.11-2.66-4.68-5.23-.98-7.07-6.54-6.32-11.31.78-5.09,4.13-9.42,8.85-11.46,8.84-3.64,19.57,2.61,18.72,12.37-.07.81.06-.35-.02.25-.04.3-.1.59-.15.89-.1.53-.2,1.05-.32,1.57-.29,1.26-.65,2.5-1.08,3.71-.85,2.47-2.32,4.68-4.27,6.42-1.51,1.46-1.55,3.87-.09,5.38,1.46,1.51,3.87,1.55,5.38.09.03-.03.06-.06.09-.09h0Z"/><path class="cls-1" d="M754.31,475.15c-1.23-6.92-6.81-12.25-13.78-13.16-5.37-1.21-11,0-15.39,3.32-2.64,1.99-4.6,4.75-5.61,7.9,3.64.63,9.16,5.75,10.6,8.75,1.75,3.63.95,7.9.39,11.9-.21.9-.14,1.84.22,2.69.42.76,1.31,1.06,2.09,1.45,3.13,1.57,6.05.92,14.77-1.55,2.06-.72,3.95-1.85,5.55-3.33.86-1.29,1.41-2.77,1.6-4.31.83-4.53.67-9.2-.46-13.66Z"/><path class="cls-2" d="M757.98,474.14c-1.75-8.13-8.25-14.38-16.44-15.82-5.59-1.21-11.42-.35-16.43,2.42-4.32,2.63-7.6,6.68-9.25,11.46-.55,2.03.64,4.12,2.66,4.68.83.13,1.61.46,2.28.95.97.59,1.89,1.28,2.73,2.05,1.64,1.19,2.88,2.85,3.57,4.76.47,2.89.37,5.85-.3,8.71-.74,3.4,1.12,6.83,4.38,8.06,4,1.83,8.01,1.2,12.16.16,5-1.25,11.62-2.81,13.97-8.01,2.66-5.9,2.05-13.31.68-19.41-1.07-4.78-8.41-2.76-7.34,2.02.6,2.61.89,5.29.84,7.97-.02.76-.12,2.24-.16,2.54-.06.44-.4,2.01-.61,2.84-.1.43-.26.85-.49,1.23-.07.06-.14.12-.21.17-.91.69-1.91,1.27-2.96,1.73.42-.19-.3.11-.44.15-.75.23-1.51.43-2.27.63-1.25.34-2.5.69-3.76.99-1.46.42-2.98.63-4.5.63-.92.03.35.18-.22,0-.28-.09-.6-.17-.89-.24-.72-.18.11.07-.08-.02-.26-.18-.54-.32-.84-.4-.83-.05.49.41.18.63.29-1.17.45-2.36.45-3.56.22-1.51.33-3.04.33-4.57.02-2.78-.74-5.51-2.19-7.88-2.69-4.05-7.37-8.42-12.27-9.45l2.66,4.68c2.81-7.05,10.09-10.06,17.46-8.32,3,.56,5.7,2.19,7.59,4.6-.3-.4.08.14.18.3.16.26.33.51.49.78.19.31.34.63.51.95.04.08.43.93.24.49-.19-.44.15.4.19.48.11.3.22.61.31.92.19.57.34,1.16.48,1.75,1.11,4.75,8.45,2.73,7.31-2.04Z"/><path class="cls-2" d="M725.08,495.57c-2.79,1.4-5.12,3.57-6.7,6.26-1.05,1.61-2.03,3.26-2.93,4.95-.45.85-.88,1.7-1.3,2.57-.19.38-.36.77-.54,1.16-.07.16-.72,1.32-.02.64-.78.5-1.62.89-2.51,1.14l-3.48,1.5c-2.17.94-4.34,1.86-6.5,2.82-1.48.88-2.19,2.63-1.75,4.3,1.65,7.33,6.83,13.36,13.83,16.09,3.79,1.6,8.13,1.27,11.64-.88,3.57-2.38,6.83-5.19,9.71-8.37,1.44-1.51,1.44-3.88,0-5.38-1.5-1.47-3.89-1.47-5.38,0-2.29,2.54-4.85,4.82-7.63,6.82-1.83,1.37-4.28,1.56-6.3.49-4.4-2.02-7.56-6.02-8.51-10.77l-1.75,4.3c2.09-.92,4.19-1.82,6.29-2.73,2.13-.77,4.2-1.68,6.2-2.74,1.53-1.15,2.67-2.72,3.29-4.53.83-1.73,1.74-3.42,2.72-5.07.49-.83,1-1.64,1.52-2.45.19-.29.38-.59.59-.88.31-.44-.37.43.07-.09.88-1.11,2.01-1.99,3.31-2.57,1.8-1.07,2.41-3.39,1.36-5.21-1.09-1.77-3.39-2.37-5.21-1.36h0Z"/><path class="cls-2" d="M706.7,513.93c-.27.02-.54.03-.81.02-.15,0-.29-.02-.44-.04.63.09.73.1.31.02-.17-.05-.87-.13-.95-.29.51.22.57.24.19.06-.16-.09-.31-.18-.46-.28.4.33.44.36.12.09-.11-.1-.21-.2-.3-.31.35.47.4.54.16.19-.09-.14-.18-.29-.26-.44-.18-.37-.16-.31.05.18-.06-.17-.12-.35-.18-.52s-.1-.36-.13-.54c.06.55.07.62.03.19.01-.36,0-.72.02-1.08,0-.16.02-.33.03-.5.04-.42.03-.32-.05.31.09-.28.15-.58.19-.87.04-.14.09-.28.14-.42-.25.57-.29.66-.11.29.17-.27.33-.55.49-.82.24-.32.2-.28-.11.14.12-.14.23-.28.36-.41.23-.26.46-.51.71-.75.12-.11.24-.23.37-.33.31-.26.25-.21-.2.14.19.11,1.33-1.03,1.68-.97-.52.22-.58.25-.19.1.17-.06.34-.12.52-.17.3-.09.6-.15.91-.22.41-.07.32-.06-.28.02.17-.02.33-.03.5-.04.35-.02.69,0,1.04.02.42.04.35.03-.21-.03.19.03.37.07.54.12s.37.1.55.17c.39.15.36.14-.09-.04.31,0,.76.45,1.03.61.33.24.28.19-.17-.14.13.11.26.22.38.33.24.23.46.47.69.72.25.31.21.25-.14-.19.1.14.19.27.27.41.17.28.33.57.47.87-.22-.53-.25-.6-.1-.22.06.16.1.32.15.48.11.32.19.66.22,1-.07-.58-.09-.66-.05-.23.01.18.02.35.02.53,0,2.1,1.7,3.81,3.81,3.81s3.81-1.7,3.81-3.81c.02-6.6-5.31-11.97-11.91-11.99-1.01,0-2.02.12-3,.37-3.34.9-6.23,2.99-8.13,5.88-1.87,2.92-2.32,6.53-1.22,9.82.71,2.12,2.15,3.91,4.07,5.05,1.71.99,3.68,1.45,5.66,1.33,2.1,0,3.81-1.7,3.81-3.81s-1.7-3.81-3.81-3.81h0Z"/></g></svg>