<?xml version="1.0" encoding="UTF-8"?><svg id="_レイヤー_2" xmlns="http://www.w3.org/2000/svg" viewBox="0 0 494.93 67.78"><defs><style>.cls-1{fill:#41352c;stroke-width:0px;}</style></defs><g id="_レイヤー_1-2"><path class="cls-1" d="M51.33,26.86c.38-1.08,1.05-1.92,2.04-2.53.7-.38,1.43-.56,2.18-.56.33,0,.68.05,1.05.14l2.53.56c1.08.28,1.87.91,2.39,1.9.33.56.49,1.15.49,1.76,0,.42-.07.84-.21,1.27-2.81,7.73-6.4,14.67-10.76,20.81-.19.28-.21.59-.07.91,1.59,4.03,3.23,6.05,4.92,6.05,1.17,0,1.97-2.77,2.39-8.3.05-.8.47-1.36,1.27-1.69.28-.09.56-.14.84-.14.47,0,.89.14,1.27.42.66.47,1.34.94,2.04,1.41,1.08.66,1.92,1.52,2.53,2.6.42.8.63,1.64.63,2.53,0,.28-.02.56-.07.84-.56,3.47-1.36,6.15-2.39,8.05-1.03,1.9-2.27,3.19-3.73,3.87-1.45.68-3.35,1.02-5.7,1.02-4.41,0-8.23-2.6-11.46-7.8-.19-.33-.4-.35-.63-.07-2.11,2.06-4.41,4.01-6.89,5.84-.7.52-1.48.77-2.32.77-.28,0-.54-.02-.77-.07-1.12-.19-2.06-.73-2.81-1.62-.7-.84-1.41-1.66-2.11-2.46-.61-.61-.91-1.34-.91-2.18,0-.14.02-.3.07-.49.09-1.03.59-1.83,1.48-2.39,3.61-2.34,6.87-5.13,9.77-8.37.23-.23.3-.52.21-.84-2.16-7.27-3.7-16.38-4.64-27.35-.05-.38-.24-.56-.56-.56H15.75c-.38,0-.56.19-.56.56v5.77c0,.38.19.56.56.56h12.94c1.12,0,2.08.4,2.88,1.2.8.8,1.2,1.73,1.2,2.81,0,6.42-.21,11.95-.63,16.59-.33,3.33-.89,5.55-1.69,6.68-1.27,1.69-3.07,2.77-5.41,3.23-.98.19-2.34.31-4.08.35h-.21c-1.08,0-2.04-.38-2.88-1.12-.84-.75-1.43-1.71-1.76-2.88-.42-1.87-1.01-3.54-1.76-4.99-.05-.05-.11-.07-.18-.07s-.11.05-.11.14c-.94,6.7-2.49,12.28-4.64,16.73-.42.94-1.17,1.48-2.25,1.62h-.49c-.84,0-1.59-.28-2.25-.84-.84-.7-1.69-1.38-2.53-2.04-.89-.7-1.48-1.62-1.76-2.74-.09-.42-.14-.84-.14-1.27,0-.66.14-1.31.42-1.97,1.55-3.66,2.55-7.71,3.02-12.16.47-4.45.7-9.4.7-14.84V14.06c0-1.17.41-2.16,1.23-2.95.82-.8,1.79-1.2,2.92-1.2h24.47c.33,0,.49-.19.49-.56-.14-2.53-.21-4.31-.21-5.34s.4-2.01,1.2-2.81,1.78-1.2,2.95-1.2h2.74c1.12,0,2.08.4,2.88,1.2.8.8,1.2,1.78,1.2,2.95,0,1.83.02,3.56.07,5.2.05.38.23.56.56.56h7.1c.09,0,.15-.05.18-.14.02-.09-.01-.16-.11-.21-.98-.75-2.09-1.55-3.3-2.39-.84-.56-1.34-1.38-1.48-2.46v-.42c0-.84.33-1.59.98-2.25l.42-.42c.89-.89,1.94-1.43,3.16-1.62h.77c.89,0,1.76.24,2.6.7,1.64.98,3.12,1.95,4.43,2.88.98.7,1.48,1.66,1.48,2.88,0,1.03-.38,1.92-1.12,2.67l-.35.35c-.09.09-.12.19-.07.28.05.09.12.14.21.14h2.95c1.17,0,2.16.4,2.95,1.2.8.8,1.2,1.78,1.2,2.95v1.97c0,1.17-.4,2.16-1.2,2.95s-1.78,1.2-2.95,1.2h-17.3c-.33,0-.49.19-.49.56.52,5.58,1.24,10.76,2.18,15.54.05.05.11.08.18.11.07.02.13-.01.18-.11,1.55-3,2.91-6.14,4.08-9.42ZM22.5,37.05c0-.33-.17-.49-.49-.49h-6.4c-.33,0-.49.17-.49.49-.19,3.7-.47,7.24-.84,10.62-.05.38.09.56.42.56,1.73.19,3.28.28,4.64.28.94,0,1.66-.33,2.18-.98.52-.8.84-4.29.98-10.48Z"/><path class="cls-1" d="M95.7,39.73c.33-.05.66-.07.98-.07.7,0,1.36.21,1.97.63.94.61,1.48,1.45,1.62,2.53l.28,1.69v.7c0,.94-.26,1.8-.77,2.6-.66.98-1.55,1.66-2.67,2.04-5.62,1.64-12.3,3.54-20.04,5.7-.38.09-.73.14-1.05.14-.7,0-1.38-.19-2.04-.56-.94-.61-1.55-1.45-1.83-2.53l-.63-2.88c-.05-.28-.07-.59-.07-.91,0-.75.21-1.48.63-2.18.66-.94,1.52-1.52,2.6-1.76.56-.14,1.41-.34,2.53-.6,1.12-.26,1.97-.43,2.53-.53.38-.09.56-.3.56-.63v-25.45c0-.38-.19-.56-.56-.56h-3.94c-1.17,0-2.16-.4-2.95-1.2-.8-.8-1.2-1.78-1.2-2.95v-1.55c0-1.17.4-2.16,1.2-2.95s1.78-1.2,2.95-1.2h19.27c1.12,0,2.1.4,2.92,1.2.82.8,1.23,1.78,1.23,2.95v1.55c0,1.17-.41,2.16-1.23,2.95-.82.8-1.79,1.2-2.92,1.2h-3.87c-.38,0-.56.19-.56.56v22.92c0,.14.06.25.18.32.12.07.22.08.32.04l2.39-.6c1.03-.26,1.76-.46,2.18-.6ZM120.02,14.06c0,.33.16.49.49.49h12.52c1.12,0,2.11.42,2.95,1.27.75.75,1.12,1.66,1.12,2.74v.63c-.38,15.19-.81,25.78-1.3,31.78-.49,6-1.35,9.84-2.57,11.53-.94,1.41-1.92,2.43-2.95,3.06-1.03.63-2.32,1.09-3.87,1.37-1.41.28-3.42.42-6.05.42h-.07c-1.12,0-2.13-.38-3.02-1.12-.84-.8-1.43-1.78-1.76-2.95-.24-.84-.49-1.66-.77-2.46-.14-.33-.21-.66-.21-.98,0-.52.16-1.01.49-1.48.47-.7,1.12-1.05,1.97-1.05h.14c1.12.05,2.48.07,4.08.07,1.22,0,2.16-.45,2.81-1.34.75-.94,1.32-3.71,1.72-8.33.4-4.62.71-12.15.95-22.61,0-.33-.17-.49-.49-.49h-6.05c-.33,0-.52.17-.56.49-.28,4.74-.76,8.95-1.44,12.66-.68,3.7-1.68,7.32-2.99,10.86-1.31,3.54-3.05,6.76-5.2,9.67-2.16,2.91-4.76,5.51-7.8,7.8-.7.47-1.45.7-2.25.7-.24,0-.52-.02-.84-.07-1.08-.24-1.97-.8-2.67-1.69-.66-.84-1.31-1.62-1.97-2.32-.66-.7-.98-1.48-.98-2.32,0-1.17.47-2.11,1.41-2.81,4.88-3.56,8.36-7.93,10.44-13.11,2.08-5.18,3.36-11.64,3.83-19.37,0-.33-.17-.49-.49-.49h-3.94c-1.12,0-2.1-.41-2.92-1.23-.82-.82-1.23-1.79-1.23-2.92v-1.76c0-1.12.41-2.1,1.23-2.92s1.79-1.23,2.92-1.23h4.22c.33,0,.52-.16.56-.49V5.2c0-1.17.41-2.16,1.23-2.95.82-.8,1.79-1.2,2.92-1.2h2.39c1.12,0,2.1.4,2.92,1.2.82.8,1.23,1.76,1.23,2.88s-.05,4.15-.14,8.93Z"/><path class="cls-1" d="M191.39,7.8c.61-.05,1.17-.07,1.69-.07,2.25,0,4.17.59,5.77,1.76l.42.35c.94.66,1.52,1.57,1.76,2.74.05.33.07.66.07.98,0,.8-.21,1.55-.63,2.25-.33.66-.61,1.22-.84,1.69-2.95,6.7-6.47,12.91-10.55,18.63-.19.28-.14.54.14.77,5.48,4.78,10.97,10.29,16.45,16.52.7.8,1.05,1.69,1.05,2.67,0,.14-.02.26-.07.35-.05,1.17-.52,2.13-1.41,2.88l-3.73,3.3c-.75.61-1.57.91-2.46.91-.14,0-.31-.02-.49-.07-1.08-.09-1.97-.59-2.67-1.48-4.08-5.34-8.86-10.69-14.34-16.03-.28-.23-.54-.23-.77,0-6.99,7.17-14.44,12.96-22.36,17.37-.8.42-1.64.63-2.53.63-.28,0-.59-.02-.91-.07-1.22-.19-2.25-.73-3.09-1.62l-3.38-3.45c-.52-.56-.77-1.2-.77-1.9,0-.19.02-.4.07-.63.23-.94.8-1.62,1.69-2.04,4.88-2.2,9.6-5.02,14.17-8.44,4.57-3.42,8.38-6.84,11.43-10.27,2.25-2.53,4.26-5.21,6.05-8.05,1.78-2.84,3.07-5.4,3.87-7.7.05-.14.04-.26-.04-.35-.07-.09-.18-.14-.32-.14h-21.87c-1.31,0-3,.07-5.06.21h-.35c-.98,0-1.83-.33-2.53-.98-.84-.75-1.27-1.69-1.27-2.81v-4.08c0-1.08.42-1.99,1.27-2.74.75-.7,1.62-1.05,2.6-1.05h.28c2.01.14,3.7.21,5.06.21h24.05c1.55,0,3.07-.09,4.57-.28Z"/><path class="cls-1" d="M272.81,32.2c1.08.42,1.83,1.17,2.25,2.25.23.56.35,1.1.35,1.62,0,.56-.12,1.1-.35,1.62l-1.83,4.5c-.42,1.03-1.17,1.76-2.25,2.18-.47.19-.94.28-1.41.28-.56,0-1.1-.14-1.62-.42-5.58-2.58-12.45-5.34-20.6-8.3-.09-.05-.2-.04-.32.04-.12.07-.18.18-.18.32v18c0,1.22.14,3.45.42,6.68v.42c0,.94-.33,1.78-.98,2.53-.75.8-1.69,1.2-2.81,1.2h-5.34c-1.08,0-1.99-.4-2.74-1.2-.61-.75-.91-1.59-.91-2.53v-.35c.23-2.58.35-4.83.35-6.75V13.15c0-1.69-.09-3.45-.28-5.27v-.42c0-.89.3-1.71.91-2.46.7-.8,1.59-1.2,2.67-1.2h5.27c1.12,0,2.06.4,2.81,1.2.61.75.91,1.59.91,2.53v.35c-.19,1.97-.28,3.73-.28,5.27v9.35c0,.33.16.54.49.63,8.95,2.63,17.44,5.65,25.45,9.07Z"/><path class="cls-1" d="M295.52,40.43h-.21c-1.03,0-1.92-.38-2.67-1.12-.84-.75-1.27-1.69-1.27-2.81v-5.48c0-1.08.42-2.01,1.27-2.81.75-.7,1.64-1.05,2.67-1.05h.21c3.42.19,6.19.28,8.3.28h38.25c1.31,0,2.88-.07,4.71-.21h.28c.98,0,1.85.35,2.6,1.05.84.75,1.27,1.66,1.27,2.74v5.48c0,1.12-.42,2.09-1.27,2.88-.75.7-1.62,1.05-2.6,1.05h-.28c-1.97-.14-3.54-.21-4.71-.21h-38.25c-2.44,0-5.2.07-8.3.21Z"/><path class="cls-1" d="M370.41,9.49c0-1.03.38-1.94,1.12-2.74.75-.84,1.66-1.27,2.74-1.27h4.64c1.08,0,1.99.42,2.74,1.27.75.8,1.12,1.71,1.12,2.74v28.9c0,1.08-.35,1.99-1.05,2.74-.8.84-1.73,1.27-2.81,1.27h-4.71c-1.12,0-2.06-.42-2.81-1.27-.7-.75-1.05-1.64-1.05-2.67v-.21c.05-1.08.07-1.97.07-2.67V9.49ZM403.59,8.72c0-.98.33-1.85.98-2.6.75-.84,1.66-1.27,2.74-1.27h4.64c1.12,0,2.06.42,2.81,1.27.75.75,1.12,1.66,1.12,2.74,0,.05-.02.09-.07.14v19.34c0,6.84-.74,12.35-2.21,16.52-1.48,4.17-3.69,7.8-6.64,10.9-3.38,3.52-7.97,6.49-13.78,8.93-.7.28-1.43.42-2.18.42-.47,0-.94-.05-1.41-.14-1.22-.28-2.27-.89-3.16-1.83l-3.45-3.66c-.42-.47-.63-.98-.63-1.55,0-.23.02-.49.07-.77.28-.89.87-1.45,1.76-1.69,5.81-1.73,10.38-4.33,13.71-7.8,2.3-2.44,3.84-5.1,4.64-7.98.8-2.88,1.2-6.93,1.2-12.13v-14.91l-.14-3.94Z"/><path class="cls-1" d="M439.52,40.43h-.21c-1.03,0-1.92-.38-2.67-1.12-.84-.75-1.27-1.69-1.27-2.81v-5.48c0-1.08.42-2.01,1.27-2.81.75-.7,1.64-1.05,2.67-1.05h.21c3.42.19,6.19.28,8.3.28h38.25c1.31,0,2.88-.07,4.71-.21h.28c.98,0,1.85.35,2.6,1.05.84.75,1.27,1.66,1.27,2.74v5.48c0,1.12-.42,2.09-1.27,2.88-.75.7-1.62,1.05-2.6,1.05h-.28c-1.97-.14-3.54-.21-4.71-.21h-38.25c-2.44,0-5.2.07-8.3.21Z"/></g></svg>