<?xml version="1.0" encoding="UTF-8"?><svg id="_レイヤー_2" xmlns="http://www.w3.org/2000/svg" viewBox="0 0 1050.78 136.55"><defs><style>.cls-1{fill:#41352c;stroke-width:0px;}.cls-2,.cls-3{fill:none;stroke:#ffca8c;stroke-linejoin:round;stroke-width:4.78px;}.cls-4{fill:#fff;stroke:#41352c;stroke-miterlimit:10;stroke-width:2.39px;}.cls-3{stroke-linecap:round;}</style></defs><g id="_レイヤー_1-2"><path class="cls-1" d="M171.41,13.43c0,.38.16.56.49.56h7.1c1.12,0,2.48-.07,4.08-.21h.35c.98,0,1.83.33,2.53.98.84.7,1.27,1.59,1.27,2.67v3.16c0,1.12-.4,2.09-1.2,2.88-.8.8-1.76,1.2-2.88,1.2h-.07c-1.41-.05-2.56-.07-3.45-.07h-7.45c-.33,0-.49.19-.49.56.42,20.06.63,30.33.63,30.8,0,2.53-.73,4.48-2.18,5.84-1.5,1.41-3.75,2.11-6.75,2.11s-6.07-.07-8.93-.21c-1.17-.05-2.18-.48-3.02-1.3-.84-.82-1.34-1.84-1.48-3.06l-.21-3.02c-.09-1.03.23-1.92.98-2.67.66-.66,1.43-.98,2.32-.98.14,0,.28.02.42.07,2.01.19,3.73.28,5.13.28,1.59,0,2.39-1.01,2.39-3.02,0-6.28-.02-11.37-.07-15.26,0-.09-.04-.15-.11-.18-.07-.02-.13-.01-.18.04-2.91,3.56-6.53,7.18-10.86,10.86-4.34,3.68-8.82,6.88-13.46,9.6-.8.47-1.62.7-2.46.7-.28,0-.59-.02-.91-.07-1.17-.23-2.16-.8-2.95-1.69l-2.53-2.88c-.52-.61-.77-1.29-.77-2.04,0-.19.02-.4.07-.63.19-1.03.75-1.78,1.69-2.25,5.72-3,10.92-6.37,15.61-10.12,4.69-3.75,8.39-7.43,11.11-11.04.05-.09.05-.19,0-.28-.05-.09-.12-.14-.21-.14h-16.66c-1.36,0-3,.05-4.92.14h-.14c-1.03,0-1.95-.37-2.74-1.12-.8-.8-1.2-1.76-1.2-2.88v-3.23c0-1.08.4-1.99,1.2-2.74.75-.66,1.62-.98,2.6-.98h.28c1.78.14,3.3.21,4.57.21h21.94c.37,0,.56-.19.56-.56l-.21-3.66c-.09-1.5-.19-2.81-.28-3.94-.05-.14-.07-.28-.07-.42,0-.89.33-1.71.98-2.46.7-.8,1.62-1.2,2.74-1.2h4.01c1.08,0,1.99.4,2.74,1.2.66.75.98,1.64.98,2.67l-.07,2.88c0,.42.02.84.07,1.27l.07,3.66Z"/><path class="cls-1" d="M222.05,62.37c-1.08.38-2.09.56-3.02.56-1.45,0-2.72-.47-3.8-1.41l-2.04-1.76c-1.41-1.22-2.11-3.14-2.11-5.77v-.98c.05-.33.07-.77.07-1.34V13.85c0-1.59-.12-3.26-.35-4.99v-.49c0-.89.3-1.69.91-2.39.7-.8,1.57-1.2,2.6-1.2h5.41c1.08,0,1.97.4,2.67,1.2.66.7.98,1.52.98,2.46,0,.14-.02.28-.07.42-.14,1.64-.21,3.3-.21,4.99v34.95c0,.14.05.25.14.32.09.07.21.08.35.04,5.11-1.64,10.66-4.28,16.66-7.91,6-3.63,11.23-7.72,15.68-12.27.66-.66,1.43-.98,2.32-.98h.28c1.03.09,1.83.59,2.39,1.48l1.76,2.88c.61.89.91,1.85.91,2.88,0,.19-.02.35-.07.49-.09,1.27-.56,2.32-1.41,3.16-9.28,9.52-22.22,17.2-38.81,23.06-.66.19-1.08.33-1.27.42Z"/><path class="cls-1" d="M291.46,62.86c-.42.09-.84.14-1.27.14-.8,0-1.57-.17-2.32-.49-1.12-.52-2.04-1.29-2.74-2.32l-2.95-4.57c-.28-.47-.42-.94-.42-1.41,0-.37.09-.75.28-1.12.37-.89,1.05-1.43,2.04-1.62,8.67-1.59,16.27-4.31,22.78-8.16,5.53-3.14,10.5-6.93,14.91-11.36,4.41-4.43,7.97-9.01,10.69-13.75.47-.75,1.12-1.15,1.97-1.2h.07c.84,0,1.48.38,1.9,1.12l2.74,5.06c.61,1.08.91,2.25.91,3.52,0,1.36-.35,2.58-1.05,3.66-3,4.5-6.74,8.81-11.21,12.94-4.48,4.13-9.36,7.73-14.66,10.83-6.89,4.08-14.11,6.98-21.66,8.72ZM285.63,15.68c-.84-.7-1.31-1.59-1.41-2.67-.05-.14-.07-.28-.07-.42,0-.94.35-1.76,1.05-2.46l2.6-2.81c.8-.84,1.78-1.34,2.95-1.48h.56c.94,0,1.83.31,2.67.91,4.69,3.47,8.81,6.84,12.38,10.12.84.8,1.27,1.78,1.27,2.95s-.4,2.11-1.2,2.95l-3.16,3.16c-.75.8-1.69,1.2-2.81,1.2s-2.16-.37-2.95-1.12c-3.7-3.61-7.66-7.05-11.88-10.34Z"/><path class="cls-1" d="M355.88,30.73c-.98-.61-1.62-1.45-1.9-2.53-.05-.33-.07-.63-.07-.91,0-.75.21-1.45.63-2.11l1.76-2.67c.66-.98,1.55-1.62,2.67-1.9.37-.09.75-.14,1.12-.14.7,0,1.41.19,2.11.56,3.14,1.83,6.4,3.84,9.77,6.05.98.61,1.57,1.48,1.76,2.6.09.33.14.63.14.91,0,.8-.24,1.55-.7,2.25l-1.9,2.88c-.61.94-1.48,1.52-2.6,1.76-.28.05-.56.07-.84.07-.8,0-1.55-.23-2.25-.7-3.56-2.39-6.8-4.43-9.7-6.12ZM365.66,63.98c-.42.14-.87.21-1.34.21-.7,0-1.41-.17-2.11-.49-1.12-.52-2.02-1.34-2.67-2.46l-2.46-4.29c-.24-.47-.35-.94-.35-1.41,0-.42.09-.84.28-1.27.42-.94,1.12-1.5,2.11-1.69,7.88-1.59,14.74-3.98,20.6-7.17,5.44-3,10.43-6.56,14.98-10.69,4.55-4.12,8.34-8.48,11.39-13.08.47-.8,1.15-1.2,2.04-1.2.94,0,1.64.4,2.11,1.2l2.6,4.71c.56,1.03.84,2.11.84,3.23v.35c-.05,1.27-.45,2.42-1.2,3.45-6.84,8.77-15.77,16.31-26.79,22.64-6.14,3.42-12.82,6.07-20.04,7.95ZM367.06,14.2c-.98-.61-1.59-1.45-1.83-2.53-.09-.33-.14-.66-.14-.98,0-.7.21-1.38.63-2.04l1.83-2.74c.66-.98,1.55-1.62,2.67-1.9.33-.09.68-.14,1.05-.14.75,0,1.45.21,2.11.63,3.19,1.83,6.47,3.84,9.84,6.05.94.61,1.52,1.48,1.76,2.6.05.28.07.56.07.84,0,.8-.24,1.55-.7,2.25l-1.83,2.74c-.66.98-1.55,1.59-2.67,1.83-.33.05-.63.07-.91.07-.8,0-1.55-.23-2.25-.7-3.47-2.25-6.68-4.24-9.63-5.98ZM396.31,10.2c-.33-.51-.49-1.08-.49-1.69,0-.33.05-.66.14-.98.28-.98.87-1.66,1.76-2.04.61-.23,1.22-.35,1.83-.35.47,0,.94.07,1.41.21,1.08.33,1.9.98,2.46,1.97.89,1.45,1.73,2.86,2.53,4.22.33.56.49,1.15.49,1.76,0,.42-.09.82-.28,1.2-.33,1.03-1.01,1.78-2.04,2.25-.52.19-1.05.28-1.62.28-.52,0-1.01-.09-1.48-.28-1.08-.37-1.85-1.08-2.32-2.11-.84-1.69-1.64-3.16-2.39-4.43ZM406.51,6.75c-.38-.56-.56-1.15-.56-1.76,0-.33.05-.63.14-.91.28-.98.89-1.66,1.83-2.04.61-.28,1.24-.42,1.9-.42.47,0,.94.07,1.41.21,1.12.33,2.01.96,2.67,1.9.75,1.17,1.55,2.49,2.39,3.94.33.56.49,1.15.49,1.76,0,.38-.07.77-.21,1.2-.33.98-.98,1.71-1.97,2.18-.56.24-1.12.35-1.69.35-.47,0-.94-.09-1.41-.28-1.08-.37-1.9-1.05-2.46-2.04-.8-1.41-1.64-2.76-2.53-4.08Z"/><path class="cls-1" d="M448.85,62.37c-1.08.38-2.09.56-3.02.56-1.45,0-2.72-.47-3.8-1.41l-2.04-1.76c-1.41-1.22-2.11-3.14-2.11-5.77v-.98c.05-.33.07-.77.07-1.34V13.85c0-1.59-.12-3.26-.35-4.99v-.49c0-.89.3-1.69.91-2.39.7-.8,1.57-1.2,2.6-1.2h5.41c1.08,0,1.97.4,2.67,1.2.66.7.98,1.52.98,2.46,0,.14-.02.28-.07.42-.14,1.64-.21,3.3-.21,4.99v34.95c0,.14.05.25.14.32.09.07.21.08.35.04,5.11-1.64,10.66-4.28,16.66-7.91,6-3.63,11.23-7.72,15.68-12.27.66-.66,1.43-.98,2.32-.98h.28c1.03.09,1.83.59,2.39,1.48l1.76,2.88c.61.89.91,1.85.91,2.88,0,.19-.02.35-.07.49-.09,1.27-.56,2.32-1.41,3.16-9.28,9.52-22.22,17.2-38.81,23.06-.66.19-1.08.33-1.27.42Z"/><path class="cls-1" d="M552.43,9.63c.61-.09,1.2-.14,1.76-.14,2.25,0,4.19.52,5.84,1.55l1.76,1.12c.98.56,1.62,1.43,1.9,2.6.09.42.14.84.14,1.27,0,.66-.14,1.31-.42,1.97-.33.75-.63,1.5-.91,2.25-2.3,6.38-5.39,12.45-9.28,18.21-.19.28-.14.52.14.7,1.08.7,2.09,1.36,3.02,1.97.94.61,1.48,1.48,1.62,2.6.05.24.07.47.07.7,0,.84-.28,1.62-.84,2.32l-2.88,3.73c-.66.89-1.55,1.41-2.67,1.55h-.56c-.89,0-1.71-.28-2.46-.84-.89-.7-1.92-1.45-3.09-2.25-.28-.23-.54-.21-.77.07-6.14,6.47-13.27,11.53-21.38,15.19-.84.38-1.69.56-2.53.56-.38,0-.75-.02-1.12-.07-1.22-.24-2.32-.77-3.3-1.62l-3.87-3.3c-.56-.51-.84-1.1-.84-1.76,0-.14.02-.3.07-.49.19-.89.7-1.5,1.55-1.83,8.53-3.14,15.75-7.62,21.66-13.43.23-.23.21-.44-.07-.63-2.81-1.83-5.51-3.54-8.09-5.13-.94-.51-1.48-1.31-1.62-2.39-.05-.19-.07-.37-.07-.56,0-.84.28-1.59.84-2.25l1.9-2.11c.8-.94,1.8-1.5,3.02-1.69.33-.05.66-.07.98-.07.84,0,1.64.21,2.39.63,3,1.59,5.72,3.09,8.16,4.5.33.19.59.14.77-.14,3.05-4.64,5.06-8.72,6.05-12.23.05-.14.02-.27-.07-.39-.09-.12-.21-.18-.35-.18h-17.44c-.38,0-.66.14-.84.42-4.69,6-9.77,11.18-15.26,15.54-.98.75-2.06,1.12-3.23,1.12h-.07c-1.27,0-2.39-.37-3.38-1.12l-2.81-2.25c-.75-.56-1.12-1.31-1.12-2.25,0-1.08.42-1.92,1.27-2.53,2.48-1.73,4.77-3.56,6.86-5.48,2.09-1.92,3.94-3.87,5.55-5.84s2.91-3.63,3.87-4.99c.96-1.36,2-2.93,3.13-4.71.75-1.22,1.55-2.76,2.39-4.64.47-1.08,1.2-1.87,2.18-2.39.66-.33,1.29-.49,1.9-.49.42,0,.84.07,1.27.21l4.71,1.41c.98.33,1.64.98,1.97,1.97.14.38.21.75.21,1.12,0,.56-.16,1.1-.49,1.62-.56.89-1.17,1.9-1.83,3.02-.05.09-.04.19.04.28.07.09.15.14.25.14h11.46c.94,0,1.94-.05,3.02-.14Z"/><path class="cls-1" d="M585.42,39.16h-.21c-1.03,0-1.92-.37-2.67-1.12-.84-.75-1.27-1.69-1.27-2.81v-5.48c0-1.08.42-2.01,1.27-2.81.75-.7,1.64-1.05,2.67-1.05h.21c3.42.19,6.19.28,8.3.28h38.25c1.31,0,2.88-.07,4.71-.21h.28c.98,0,1.85.35,2.6,1.05.84.75,1.27,1.67,1.27,2.74v5.48c0,1.12-.42,2.09-1.27,2.88-.75.7-1.62,1.05-2.6,1.05h-.28c-1.97-.14-3.54-.21-4.71-.21h-38.25c-2.44,0-5.2.07-8.3.21Z"/><path class="cls-4" d="M679.94,62.02c-.31.09-.61.14-.89.14-.5,0-.98-.11-1.45-.33-.78-.34-1.41-.86-1.88-1.55l-1.36-2.2c-.19-.28-.28-.58-.28-.89,0-.25.05-.52.14-.8.28-.56.73-.91,1.36-1.03.56-.12,1.2-.28,1.92-.47,3.12-.75,5.59-2.16,7.38-4.24,1.8-2.08,2.7-4.65,2.7-7.71s-.7-5.57-2.09-7.62c-1.39-2.05-3.38-3.41-5.98-4.1-.25-.06-.39.03-.42.28-.72,4.28-1.63,8.3-2.72,12.05-1.5,4.97-3.32,8.86-5.46,11.67-2.14,2.81-4.57,4.22-7.29,4.22-2.91,0-5.36-1.41-7.36-4.22-2-2.81-3-6.25-3-10.31,0-2.78.58-5.44,1.73-7.99,1.16-2.55,2.73-4.76,4.71-6.66,1.98-1.89,4.37-3.4,7.17-4.52,2.8-1.12,5.76-1.69,8.88-1.69,2.94,0,5.66.49,8.16,1.48,2.5.98,4.59,2.34,6.26,4.05,1.67,1.72,2.98,3.74,3.91,6.07.94,2.33,1.41,4.85,1.41,7.57,0,4.72-1.31,8.71-3.91,11.98-2.61,3.27-6.49,5.54-11.65,6.82ZM668.88,42.05c.97-2.94,1.77-6.41,2.39-10.41.03-.09.02-.16-.05-.21-.06-.05-.14-.05-.23-.02-2.16.63-4.04,1.69-5.65,3.19-1.61,1.5-2.77,3.08-3.49,4.73-.72,1.66-1.08,3.27-1.08,4.83,0,1.97.3,3.51.89,4.62.59,1.11,1.33,1.66,2.2,1.66s1.75-.68,2.53-2.04c.78-1.36,1.61-3.48,2.48-6.35Z"/><path class="cls-1" d="M715.92,6.68v-.49c0-.89.28-1.66.84-2.32.7-.84,1.57-1.27,2.6-1.27h.07l5.55.07c1.12,0,2.04.42,2.74,1.27.61.7.91,1.52.91,2.46v.42c-.28,2.53-.47,4.76-.56,6.68-.56,12-.84,22.27-.84,30.8,0,6,2.93,9,8.79,9,8.39,0,15.49-3.7,21.3-11.11.66-.84,1.5-1.27,2.53-1.27h.14c.94,0,1.73.38,2.39,1.12l2.6,3.16c.84,1.03,1.27,2.18,1.27,3.45,0,1.17-.38,2.2-1.12,3.09-1.45,1.74-3.09,3.34-4.92,4.82s-3.95,2.88-6.36,4.22c-2.41,1.34-5.17,2.39-8.26,3.16s-6.31,1.16-9.63,1.16c-6.42,0-11.4-1.5-14.94-4.5-3.54-3-5.31-7.52-5.31-13.57,0-3.33.11-9.37.32-18.14.21-8.76.32-13.9.32-15.4,0-2.34-.14-4.62-.42-6.82Z"/><path class="cls-1" d="M817.89,3.38c.75-.8,1.69-1.24,2.81-1.34.14-.05.26-.07.35-.07.98,0,1.85.33,2.6.98l3.87,3.45c.75.66,1.12,1.48,1.12,2.46,0,1.17-.45,2.09-1.34,2.74-1.22.89-2.46,1.85-3.73,2.88-8.53,6.42-14.48,11.11-17.86,14.06-1.27,1.08-2.05,1.91-2.36,2.5-.31.59-.29,1.17.04,1.76.33.59,1.12,1.42,2.39,2.5.98.84,4.31,3.59,9.98,8.23,5.67,4.64,9.94,8.2,12.8,10.69.84.75,1.27,1.69,1.27,2.81s-.42,2.06-1.27,2.81l-4.01,3.73c-.8.7-1.71,1.05-2.74,1.05h-.21c-1.12-.05-2.09-.49-2.88-1.34-.89-.94-2.27-2.37-4.15-4.29-2.81-2.91-9.7-9.07-20.67-18.49-3.47-3.05-5.2-5.74-5.2-8.09,0-2.53,1.97-5.41,5.91-8.65,9.19-7.45,15.75-13.05,19.69-16.8,1.59-1.59,2.79-2.79,3.59-3.59Z"/><path class="cls-1" d="M917.96,37.48c1.03.66,1.73,1.55,2.11,2.67.14.52.21,1.03.21,1.55,0,.61-.12,1.24-.35,1.9l-1.83,4.36c-.38.94-1.05,1.52-2.04,1.76-.28.05-.54.07-.77.07-.7,0-1.34-.23-1.9-.7-.7-.56-1.34-1.08-1.9-1.55-.28-.19-.49-.12-.63.21-2.81,6.33-7.41,11.51-13.78,15.54-.94.56-1.92.84-2.95.84h-.56c-1.22-.09-2.32-.54-3.3-1.34l-2.81-2.32c-.61-.51-.91-1.15-.91-1.9v-.42c.14-.94.63-1.62,1.48-2.04,6.61-3.61,11.23-8.39,13.85-14.34.14-.33.05-.58-.28-.77-4.55-2.39-9.12-4.03-13.71-4.92-.33-.05-.56.09-.7.42-3.56,8.11-6.09,13.34-7.59,15.68-1.55,2.39-3.3,4.16-5.27,5.31-1.97,1.15-4.31,1.72-7.03,1.72-3.47,0-6.32-1.11-8.54-3.34-2.23-2.23-3.34-5.31-3.34-9.25,0-5.53,2.26-10.24,6.79-14.13,4.52-3.89,10.32-6.09,17.4-6.61.33-.05.56-.21.7-.49,2.53-5.91,3.98-9.23,4.36-9.98.05-.14.04-.26-.04-.35-.07-.09-.18-.14-.32-.14-4.41.14-7.83.28-10.27.42-.52.05-1.17.09-1.97.14-.14.05-.28.07-.42.07-.94,0-1.78-.33-2.53-.98-.84-.7-1.29-1.62-1.34-2.74l-.14-2.67c-.05-1.12.33-2.06,1.12-2.81.75-.7,1.64-1.05,2.67-1.05h.21c.84.05,1.55.07,2.11.07,5.53,0,10.31-.16,14.34-.49.52-.05,1.05-.12,1.62-.21.7-.09,1.38-.14,2.04-.14,2.06,0,3.8.54,5.2,1.62l.35.28c.8.66,1.27,1.55,1.41,2.67v.42c0,.98-.26,1.88-.77,2.67l-.07.07c-1.36,2.34-3.45,6.96-6.26,13.85-.14.33-.05.52.28.56,4.03.8,8.04,1.99,12.02,3.59.33.14.52.05.56-.28v-.28c.14-1.5.21-2.91.21-4.22,0-1.17.37-2.13,1.12-2.88.66-.66,1.43-.98,2.32-.98.14,0,.28.02.42.07l3.09.35c1.12.14,2.06.66,2.81,1.55.7.8,1.05,1.69,1.05,2.67,0,.14-.02.26-.07.35-.19,2.91-.49,5.65-.91,8.23-.05.38.07.63.35.77.98.61,2.01,1.24,3.09,1.9ZM867.48,47.53c1.17,0,2.3-.82,3.38-2.46,1.22-1.87,2.74-4.76,4.57-8.65.05-.09.04-.19-.04-.28-.07-.09-.18-.12-.32-.07-2.95.7-5.29,1.89-7,3.55-1.71,1.67-2.57,3.41-2.57,5.24,0,.75.19,1.38.56,1.9.37.52.84.77,1.41.77Z"/><path class="cls-1" d="M244.74,118.44c.47,0,.87.16,1.2.49.33.33.49.73.49,1.2s-.16.87-.49,1.2c-.33.33-.73.49-1.2.49h-12.59c-.16,0-.25.09-.25.28v9.53c0,1.03-.15,1.82-.44,2.37-.29.55-.81.97-1.56,1.25-1.01.35-2.8.54-5.38.56h-.04c-.52,0-.98-.16-1.41-.49-.45-.33-.79-.76-1.02-1.3-.07-.16-.11-.32-.11-.46,0-.21.06-.42.18-.63.23-.35.55-.53.95-.53,1.15.02,2.6.04,4.36.04.37-.02.63-.09.77-.21.14-.12.21-.33.21-.63v-9.49c0-.19-.09-.28-.28-.28h-12.59c-.47,0-.87-.16-1.2-.49-.33-.33-.49-.73-.49-1.2s.16-.87.49-1.2c.33-.33.73-.49,1.2-.49h12.59c.19,0,.28-.09.28-.28v-3.69c0-.47.17-.87.51-1.21.34-.34.74-.51,1.21-.51.14,0,.27-.04.39-.11,2.13-1.22,4.11-2.59,5.94-4.11.05-.02.06-.06.04-.11-.02-.05-.05-.07-.07-.07h-17.19c-.45,0-.83-.16-1.16-.49-.33-.33-.49-.71-.49-1.16s.16-.83.49-1.16c.33-.33.71-.49,1.16-.49h20.92s.09-.01.14-.04c.14-.02.28-.04.42-.04.28,0,.54.09.77.28l.74.53c.37.28.56.66.56,1.12,0,.38-.14.7-.42.98-1.27,1.17-2.7,2.34-4.29,3.52-2.02,1.5-4,2.8-5.94,3.9-.16.09-.25.22-.25.39v2.46c0,.19.08.28.25.28h12.59Z"/><path class="cls-1" d="M275.48,111.27c.3-.21.62-.32.95-.32.14,0,.28.02.42.07.49.09.84.35,1.05.77.16.3.25.61.25.91,0,.19-.02.38-.07.56-.14.52-.45.89-.91,1.12-.12.07-.59.33-1.41.77-.12.05-.74.36-1.88.93-1.14.58-1.99,1.01-2.55,1.3-.56.29-1.34.72-2.34,1.28-1,.56-1.88,1.1-2.65,1.62-3.45,2.23-5.17,4.51-5.17,6.86,0,1.41.67,2.5,2.02,3.27,1.35.77,3.35,1.16,5.99,1.16,3.26,0,6.43-.28,9.53-.84.12-.02.22-.04.32-.04.37,0,.73.13,1.05.39.4.3.6.72.6,1.23,0,.61-.2,1.14-.6,1.58-.38.45-.86.7-1.44.77-2.93.4-6.04.6-9.32.6-1.78,0-3.38-.13-4.78-.4s-2.66-.7-3.76-1.3c-1.1-.6-1.95-1.4-2.53-2.41-.59-1.01-.88-2.2-.88-3.59,0-3.28,1.95-6.34,5.84-9.18.14-.09.16-.22.07-.39-1.2-2.18-2.59-5.11-4.18-8.79-.12-.26-.18-.5-.18-.74,0-.26.06-.5.18-.74.19-.49.53-.83,1.02-1.02.23-.12.47-.18.7-.18.26,0,.5.06.74.18.49.21.83.56,1.02,1.05,1.03,2.62,2.3,5.37,3.8,8.23.09.14.21.18.35.11,1.1-.66,2.53-1.45,4.27-2.37,1.75-.93,2.81-1.49,3.18-1.71.54-.33.97-.58,1.3-.77ZM277.83,107.47c-.12-.19-.18-.37-.18-.56,0-.09.01-.2.04-.32.09-.33.29-.55.6-.67.35-.14.7-.16,1.05-.05s.62.31.81.62c.56.91,1.1,1.84,1.62,2.78.16.3.19.62.07.95-.12.33-.34.56-.67.7-.16.09-.34.14-.53.14-.16,0-.32-.04-.46-.11-.35-.12-.61-.33-.77-.63-.54-1.03-1.07-1.98-1.58-2.85ZM281.94,105.93c-.12-.19-.18-.37-.18-.56,0-.09.01-.2.04-.32.09-.3.28-.51.56-.63.21-.09.41-.14.6-.14.16,0,.32.02.46.07.35.09.62.29.81.6.59.89,1.15,1.81,1.69,2.74.09.19.14.38.14.56,0,.14-.02.27-.07.39-.09.33-.3.56-.63.7-.19.09-.36.14-.53.14s-.32-.04-.46-.11c-.35-.12-.61-.33-.77-.63-.54-1.03-1.09-1.97-1.65-2.81Z"/><path class="cls-1" d="M316.73,120.45c-.19-.23-.28-.48-.28-.74,0-.12.02-.23.07-.35.12-.42.37-.68.77-.77.23-.05.47-.07.7-.07.37,0,.75.07,1.12.21.59.21,1.05.56,1.41,1.05,1.57,2.2,2.36,4.46,2.36,6.79,0,2.67-1.11,4.82-3.34,6.43-2.23,1.62-5.17,2.43-8.82,2.43-1.34,0-2.54-.15-3.62-.46-1.08-.3-2.04-.77-2.88-1.41s-1.49-1.48-1.95-2.55c-.46-1.07-.69-2.31-.69-3.74,0-.7.07-1.9.21-3.59.02-.19-.05-.29-.21-.32-1.99-.19-3.73-.44-5.2-.77-.49-.12-.89-.39-1.2-.81-.26-.37-.39-.79-.39-1.23,0-.51.19-.9.56-1.16.23-.16.49-.25.77-.25.14,0,.27.02.39.07,1.55.4,3.35.69,5.41.88.16.02.26-.06.28-.25.19-1.59.41-3.32.67-5.17.02-.19-.06-.29-.25-.32-1.85-.16-3.68-.44-5.48-.84-.47-.09-.86-.34-1.16-.74-.26-.35-.39-.74-.39-1.16,0-.49.19-.87.56-1.12.23-.16.49-.25.77-.25.12,0,.23.01.35.04,1.66.4,3.57.69,5.73.88.19.02.29-.06.32-.25.12-1.1.21-2.12.28-3.06.02-.35.05-.62.07-.81.02-.54.23-1,.63-1.37.35-.35.76-.53,1.23-.53h.14c.52.02.94.25,1.27.67.23.33.35.69.35,1.09v.32c-.05.23-.09.52-.14.84l-.42,2.99c-.02.16.06.25.25.25,1.87,0,3.53-.08,4.96-.25h.18c.37,0,.7.13.98.39.3.28.46.62.46,1.02,0,.52-.18.96-.53,1.34-.33.35-.73.54-1.2.56-1.71.14-3.48.21-5.31.21-.16,0-.26.09-.28.28-.23,1.76-.46,3.48-.67,5.17,0,.16.08.25.25.25h.25c2.02,0,3.89-.08,5.62-.25h.14c.4,0,.74.13,1.02.39.3.28.46.63.46,1.05,0,.52-.18.96-.53,1.34-.33.35-.73.55-1.2.6-1.57.12-3.23.18-4.99.18h-1.09c-.19,0-.28.09-.28.28-.12,1.27-.18,2.2-.18,2.81,0,1.64.48,2.91,1.44,3.8.96.89,2.38,1.34,4.25,1.34,2.58,0,4.62-.51,6.12-1.55,1.5-1.03,2.25-2.4,2.25-4.11,0-1.95-.8-3.84-2.39-5.7Z"/><path class="cls-1" d="M350.95,109.62c.12-.02.23-.04.35-.04.3,0,.59.11.84.32.37.28.56.65.56,1.09,0,.54-.16,1.01-.49,1.41-.33.4-.75.65-1.27.74-1.62.33-3.34.6-5.17.81-.16.02-.27.12-.32.28-.26,1.22-.61,2.68-1.05,4.39-1.38,5.41-2.98,10.25-4.78,14.52-.21.54-.59.93-1.12,1.16-.3.14-.61.21-.91.21-.26,0-.52-.05-.77-.14-.52-.16-.87-.5-1.05-1.02-.09-.23-.14-.46-.14-.67,0-.28.06-.55.18-.81.91-1.88,1.84-4.13,2.78-6.77.94-2.64,1.71-5.1,2.32-7.4.26-.89.53-1.95.81-3.16,0-.05-.02-.1-.05-.16-.04-.06-.09-.09-.16-.09-1.17.05-2.04.07-2.6.07-.8,0-1.62-.01-2.46-.04-.52-.02-.94-.22-1.27-.6-.38-.35-.56-.79-.56-1.3,0-.44.18-.82.53-1.12.3-.28.66-.42,1.05-.42h.14c.84.07,1.71.11,2.6.11,1.17,0,2.27-.05,3.3-.14.19,0,.29-.09.32-.28.23-1.29.36-2.07.39-2.36.05-.37.08-.76.11-1.16.05-.56.27-1.03.67-1.41.35-.35.77-.53,1.27-.53h.14l.21.04c.54.02.97.26,1.3.7.23.33.35.68.35,1.05,0,.14-.01.27-.04.39-.07.28-.14.63-.21,1.05l-.39,1.83c-.02.07-.01.13.04.18.05.05.11.06.18.04,1.43-.19,2.89-.44,4.39-.77ZM347.89,126.25c.07-.47.3-.84.7-1.12.33-.26.69-.39,1.09-.39.07,0,.14.01.21.04.42.02.77.22,1.05.6.19.28.28.59.28.91,0,.09-.01.19-.04.28-.09.56-.14,1.04-.14,1.44,0,.45.08.84.23,1.18.15.34.41.66.77.97.36.3.92.53,1.67.69.75.15,1.66.23,2.74.23,1.64,0,3.42-.14,5.34-.42h.25c.35,0,.68.12.98.35.33.3.49.68.49,1.12,0,.54-.18,1.02-.53,1.44-.35.38-.8.6-1.34.67-1.71.19-3.46.28-5.24.28-2.88,0-5.07-.47-6.56-1.41-1.49-.94-2.23-2.29-2.23-4.04,0-.82.08-1.76.25-2.81ZM351.83,119.29h-.14c-.4,0-.74-.13-1.02-.39-.33-.3-.49-.68-.49-1.12,0-.47.16-.88.47-1.23s.71-.54,1.18-.56c1.69-.14,3.35-.21,4.99-.21,1.52,0,3.03.06,4.54.18.47.02.87.22,1.2.6.3.35.46.75.46,1.2,0,.49-.19.89-.56,1.2-.3.26-.64.39-1.02.39h-.18c-1.62-.16-3.07-.25-4.36-.25-1.78,0-3.47.07-5.06.21Z"/><path class="cls-1" d="M397.09,108.95c.09-.02.19-.04.28-.04.33,0,.62.11.88.32.35.28.53.66.53,1.12s-.15.89-.46,1.27c-.3.38-.7.6-1.2.67-4.06.61-8.17,1.02-12.34,1.23-.19.02-.29.12-.32.28-.68,3.02-1.29,5.33-1.83,6.93-.02.05-.02.09.02.12s.06.04.09.02c1.48-.94,2.95-1.6,4.41-2,1.46-.4,3.09-.6,4.87-.6,2.84,0,5.09.67,6.77,2.02,1.68,1.35,2.51,3.12,2.51,5.33,0,2.34-.72,4.27-2.14,5.78-1.43,1.51-3.39,2.56-5.87,3.15-1.78.42-3.81.63-6.08.63-.89,0-1.83-.04-2.81-.11-.56-.02-1.06-.22-1.49-.58-.43-.36-.72-.83-.86-1.39-.05-.12-.07-.23-.07-.35,0-.28.11-.55.32-.81.26-.28.57-.42.95-.42h.18c1.12.14,2.23.21,3.3.21.68,0,1.35-.02,2-.07,1.71-.16,3.22-.44,4.52-.84,1.3-.4,2.34-1.04,3.13-1.93.78-.89,1.18-1.96,1.18-3.2s-.52-2.3-1.55-3.11c-1.03-.81-2.48-1.21-4.36-1.21-2.13,0-4.1.36-5.89,1.07-1.79.72-3.25,1.76-4.38,3.15-.02.02-.05.06-.07.11-.33.42-.74.72-1.23.88-.23.09-.47.14-.7.14s-.47-.04-.7-.11c-.45-.16-.76-.47-.95-.91-.07-.21-.11-.42-.11-.63s.05-.43.14-.67c1.24-2.88,2.33-6.39,3.27-10.51.05-.16-.02-.26-.21-.28-1.57-.02-3.06-.08-4.46-.18-.52-.02-.94-.22-1.27-.58-.33-.36-.49-.8-.49-1.32,0-.44.18-.82.53-1.12.28-.26.61-.39.98-.39h.21c1.83.23,3.55.35,5.17.35.19,0,.29-.08.32-.25.12-.66.21-1.22.28-1.69.05-.49.08-.89.11-1.2.05-.54.27-1,.67-1.37.35-.35.77-.53,1.27-.53h.11c.52.02.93.23,1.23.63.23.33.35.67.35,1.02,0,.12-.01.25-.04.39-.07.38-.15.81-.25,1.3l-.28,1.34c0,.07.02.13.05.18.04.05.09.07.16.07,4.1-.19,7.98-.62,11.64-1.3Z"/><path class="cls-1" d="M431.45,134.54c-.21.05-.41.07-.6.07-.38,0-.75-.08-1.12-.25-.54-.26-.97-.64-1.3-1.16-.14-.21-.21-.43-.21-.67,0-.19.05-.37.14-.56.19-.4.52-.64.98-.74.42-.07.82-.15,1.2-.25,1.17-.26,2.26-.66,3.27-1.21,1.01-.55,1.92-1.24,2.74-2.06.82-.82,1.46-1.82,1.92-2.99.46-1.17.69-2.46.69-3.87,0-2.6-.73-4.8-2.2-6.61-1.47-1.8-3.5-2.89-6.1-3.27-.16-.02-.27.05-.32.21-.59,3.8-1.28,7.05-2.07,9.77-1.08,3.66-2.35,6.46-3.81,8.4-1.47,1.95-3.09,2.92-4.87,2.92s-3.38-.93-4.73-2.79c-1.35-1.86-2.02-4.25-2.02-7.15,0-1.95.42-3.82,1.25-5.62.83-1.8,1.95-3.38,3.36-4.73,1.41-1.35,3.1-2.42,5.08-3.22,1.98-.8,4.07-1.2,6.28-1.2,2.09,0,4.01.35,5.78,1.04,1.77.69,3.25,1.65,4.43,2.87,1.18,1.22,2.11,2.65,2.78,4.29.67,1.64,1,3.4,1,5.27,0,3.45-1,6.35-2.99,8.7-1.99,2.36-4.84,3.96-8.54,4.8ZM419.92,128c1.71,0,3.35-2.6,4.92-7.8.89-2.79,1.52-5.77,1.9-8.93.02-.05,0-.09-.05-.14-.06-.05-.11-.07-.16-.07-1.5.28-2.89.81-4.17,1.58-1.28.77-2.33,1.68-3.15,2.71-.82,1.03-1.46,2.13-1.92,3.29s-.69,2.29-.69,3.39c0,1.9.34,3.37,1.02,4.41.68,1.04,1.44,1.56,2.29,1.56Z"/><path class="cls-1" d="M483.11,118.41c.33.33.49.72.49,1.18s-.16.85-.49,1.18c-.33.33-.73.49-1.2.49h-10.48c-.07,0-.12.02-.14.07-.02.05-.01.09.04.14,1.41,1.88,3.12,3.66,5.15,5.36,2.03,1.7,4.12,3.11,6.28,4.24.4.21.63.54.7.98.02.09.04.19.04.28,0,.33-.12.63-.35.91-.35.42-.79.69-1.3.81-.16.05-.33.07-.49.07-.35,0-.69-.09-1.02-.28-1.92-1.15-3.81-2.57-5.68-4.25s-3.55-3.5-5.04-5.45c-.02-.02-.06-.03-.11-.02-.05.01-.07.04-.07.09v10.55c0,.47-.17.88-.51,1.23-.34.35-.76.53-1.25.53s-.91-.18-1.25-.53c-.34-.35-.51-.76-.51-1.23v-10.41s-.02-.08-.07-.09c-.05-.01-.08,0-.11.02-1.48,1.9-3.14,3.67-4.99,5.31-1.85,1.64-3.76,3.05-5.73,4.22-.33.19-.67.28-1.02.28-.16,0-.32-.02-.46-.07-.52-.09-.96-.35-1.34-.77-.23-.28-.35-.58-.35-.91,0-.09.01-.19.04-.28.09-.44.34-.77.74-.98,2.16-1.15,4.24-2.57,6.26-4.25,2.02-1.69,3.71-3.47,5.1-5.34.05-.05.05-.09.02-.14-.04-.05-.08-.07-.12-.07h-10.23c-.47,0-.86-.16-1.18-.49-.32-.33-.47-.72-.47-1.18s.16-.85.47-1.18c.32-.33.71-.49,1.18-.49h11.99c.19,0,.28-.08.28-.25v-4.96c0-.16-.09-.25-.28-.25h-9.42c-.45,0-.83-.16-1.16-.49-.33-.33-.49-.72-.49-1.18s.16-.84.49-1.16c.33-.32.71-.47,1.16-.47h9.42c.19,0,.28-.09.28-.28v-3.62c0-.49.17-.91.51-1.25.34-.34.76-.51,1.25-.51s.91.17,1.25.51c.34.34.51.76.51,1.25v3.62c0,.19.09.28.28.28h9.7c.45,0,.83.16,1.16.47.33.32.49.7.49,1.16s-.16.85-.49,1.18c-.33.33-.72.49-1.16.49h-9.7c-.19,0-.28.08-.28.25v4.96c0,.16.09.25.28.25h12.2c.47,0,.87.16,1.2.49Z"/><path class="cls-1" d="M522.76,119.66c.32.32.47.7.47,1.14s-.16.83-.47,1.14-.7.47-1.14.47h-10.09s-.08.03-.11.09c-.02.06-.02.1,0,.12,1.38,1.76,3.05,3.43,4.99,5.01,1.95,1.58,3.94,2.91,5.98,3.99.4.19.63.5.7.95.02.09.04.19.04.28,0,.33-.11.63-.32.91-.35.4-.77.67-1.27.81-.16.02-.33.04-.49.04-.33,0-.65-.08-.95-.25-1.99-1.17-3.93-2.61-5.82-4.31-1.89-1.7-3.57-3.51-5.04-5.43-.02-.05-.06-.06-.11-.05-.05.01-.07.04-.07.09v10.12c0,.49-.17.91-.51,1.25-.34.34-.76.51-1.25.51s-.91-.17-1.25-.51c-.34-.34-.51-.76-.51-1.25v-10.05s-.02-.05-.07-.07c-.05-.02-.08-.01-.11.04-1.48,1.9-3.15,3.68-5.03,5.34-1.88,1.67-3.81,3.07-5.8,4.22-.3.16-.62.25-.95.25-.16,0-.33-.01-.49-.04-.49-.12-.91-.39-1.27-.81-.23-.26-.35-.55-.35-.88,0-.09.01-.19.04-.28.09-.44.33-.76.7-.95,2.06-1.03,4.07-2.33,6.01-3.9,1.95-1.57,3.63-3.25,5.06-5.03.02-.02.02-.06,0-.12-.02-.06-.06-.09-.11-.09h-10.16c-.45,0-.83-.16-1.14-.47s-.47-.7-.47-1.14.16-.83.47-1.14.7-.47,1.14-.47h12.23c.19,0,.28-.08.28-.25v-7.84c0-.16-.09-.25-.28-.25h-10.55c-.45,0-.82-.16-1.12-.47-.3-.32-.46-.7-.46-1.14s.15-.82.46-1.12c.3-.3.68-.46,1.12-.46h10.55c.19,0,.28-.09.28-.28v-2.11c0-.49.17-.91.51-1.25.34-.34.76-.51,1.25-.51s.91.17,1.25.51c.34.34.51.76.51,1.25v2.11c0,.19.09.28.28.28h10.83c.44,0,.83.15,1.14.46.32.3.47.68.47,1.12s-.16.83-.47,1.14-.7.47-1.14.47h-10.83c-.19,0-.28.08-.28.25v7.84c0,.16.09.25.28.25h12.27c.44,0,.83.16,1.14.47ZM496.62,113.73c-.12-.21-.18-.42-.18-.63,0-.16.02-.32.07-.46.14-.4.4-.67.77-.81.23-.09.47-.14.7-.14.21,0,.41.04.6.11.44.14.78.41,1.02.81.77,1.27,1.39,2.47,1.86,3.62.07.19.11.39.11.6,0,.23-.05.47-.14.7-.21.45-.55.75-1.02.91-.19.09-.38.14-.56.14-.21,0-.43-.06-.67-.18-.4-.19-.68-.5-.84-.95-.47-1.24-1.04-2.48-1.72-3.73ZM516.42,117.84c-.23.38-.56.65-.98.81-.21.07-.42.11-.63.11s-.42-.05-.63-.14c-.38-.12-.63-.36-.77-.74-.05-.14-.07-.28-.07-.42,0-.21.05-.42.14-.63.7-1.24,1.35-2.57,1.93-3.97.21-.47.55-.82,1.02-1.05.28-.14.56-.21.84-.21.19,0,.39.04.6.11.44.14.76.42.95.84.07.21.11.41.11.6,0,.23-.06.47-.18.7-.84,1.59-1.62,2.93-2.32,4.01Z"/><path class="cls-1" d="M550.67,127.02c0,.45-.15.83-.46,1.16-.33.35-.74.53-1.23.53-.45,0-.83-.18-1.16-.53-.3-.33-.46-.7-.46-1.12v-.07c.02-.89.04-1.9.04-3.02,0-.07-.02-.12-.07-.14-.05-.02-.09-.02-.14,0-1.57.89-2.75,1.75-3.53,2.58-.79.83-1.18,1.73-1.18,2.69,0,1.15.49,1.92,1.46,2.32.97.4,2.45.6,4.45.6,2.48,0,5.19-.21,8.12-.63.07-.02.15-.04.25-.04.35,0,.68.13.98.39.33.28.49.65.49,1.09v.07c-.02.52-.21.97-.56,1.35s-.79.6-1.3.65c-2.91.28-5.6.42-8.09.42-1.41,0-2.65-.09-3.74-.26s-2.08-.47-2.97-.88c-.89-.41-1.57-1-2.04-1.76-.47-.76-.7-1.68-.7-2.76s.22-2,.67-2.92c.44-.91,1.08-1.75,1.92-2.5.83-.75,1.68-1.41,2.53-1.97.86-.56,1.87-1.14,3.04-1.72.16-.09.2-.22.11-.39-.45-1.01-1.37-1.51-2.78-1.51-1.05,0-2.1.23-3.13.7-1.03.47-1.96,1.09-2.78,1.86-.59.56-1.28,1.34-2.07,2.32-.33.4-.76.63-1.3.7-.09.02-.18.04-.25.04-.42,0-.81-.14-1.16-.42-.4-.28-.62-.68-.67-1.2v-.11c0-.44.16-.84.49-1.2,2.91-2.93,5.1-5.87,6.57-8.82.02-.05.02-.09,0-.14-.02-.05-.07-.07-.14-.07h-.77c-1.29,0-2.72-.05-4.29-.14-.47-.02-.86-.21-1.18-.54-.32-.34-.47-.74-.47-1.21,0-.44.16-.82.49-1.12.28-.26.62-.39,1.02-.39.05,0,.09.01.14.04,1.59.14,3.08.21,4.46.21h1.83c.16,0,.27-.09.32-.28.21-.75.39-1.48.53-2.18.09-.51.34-.94.74-1.27.35-.28.75-.42,1.2-.42h.18c.49.02.88.23,1.16.63.21.28.32.59.32.91,0,.14-.02.28-.07.42-.16.63-.33,1.22-.49,1.76-.02.07-.02.13.02.18.04.05.09.07.16.07,3.19-.14,6.07-.4,8.65-.77h.25c.33,0,.63.12.91.35.33.28.49.63.49,1.05,0,.47-.16.88-.47,1.25-.32.36-.71.58-1.18.65-2.72.33-6,.56-9.84.7-.16.02-.28.12-.35.28-.73,1.55-1.55,2.94-2.46,4.18,0,.02.01.05.04.07.02.02.05.02.07,0,1.22-.61,2.65-.91,4.29-.91,1.1,0,2.06.24,2.88.72.82.48,1.42,1.17,1.79,2.06.05.16.15.21.32.14.84-.4,1.96-.9,3.34-1.51,1.38-.61,2.1-.93,2.14-.95.91-.4,1.5-.67,1.76-.81.26-.09.5-.14.74-.14.21,0,.42.04.63.11.44.16.76.47.95.91.09.23.14.46.14.67s-.05.43-.14.67c-.21.45-.54.75-.98.91-.66.23-1.29.47-1.9.7-1.88.7-4.01,1.61-6.4,2.71-.16.07-.23.2-.21.39l.07,4.61Z"/><path class="cls-1" d="M600.71,117.04c.45,0,.83.16,1.16.47.33.32.49.7.49,1.16s-.16.84-.49,1.16c-.33.32-.72.47-1.16.47h-7.1c-.16,0-.25.09-.25.28v11.88c0,1.01-.15,1.78-.44,2.32-.29.54-.79.95-1.49,1.23-.94.33-2.7.5-5.27.53-.52,0-.97-.16-1.37-.49-.42-.3-.73-.71-.91-1.23-.05-.14-.07-.28-.07-.42,0-.23.07-.46.21-.67.23-.33.55-.49.95-.49h4.01c.35,0,.6-.06.74-.18.14-.12.21-.33.21-.63v-11.85c0-.19-.08-.28-.25-.28h-17.33c-.45,0-.83-.16-1.16-.47-.33-.32-.49-.7-.49-1.16s.16-.84.49-1.16c.33-.32.71-.47,1.16-.47h17.33c.16,0,.25-.09.25-.28v-2.81c0-.47.17-.87.51-1.2.34-.33.74-.49,1.21-.49s.87.16,1.21.49c.34.33.51.73.51,1.2v2.81c0,.19.08.28.25.28h7.1ZM575.12,110.43c-.19,0-.28.09-.28.28v2.81c0,.45-.16.84-.49,1.18-.33.34-.73.51-1.2.51s-.87-.17-1.2-.51c-.33-.34-.49-.73-.49-1.18v-4.18c0-.56.2-1.05.62-1.46.41-.41.9-.62,1.46-.62h10.83c.19,0,.28-.08.28-.25v-1.72c0-.49.17-.91.51-1.27.34-.35.76-.53,1.25-.53s.91.18,1.27.53.53.77.53,1.27v1.72c0,.16.09.25.28.25h10.93c.56,0,1.05.21,1.46.62.41.41.62.9.62,1.46v4.08c0,.49-.17.91-.51,1.27-.34.35-.76.53-1.25.53s-.91-.18-1.25-.53c-.34-.35-.51-.77-.51-1.27v-2.71c0-.19-.09-.28-.28-.28h-22.57ZM575.96,124.59c-.23-.26-.35-.55-.35-.88v-.18c.05-.42.25-.74.6-.95.3-.21.66-.32,1.05-.32h.21c.45.05.83.23,1.16.56,1.5,1.57,2.78,3.14,3.83,4.71.19.28.28.59.28.91,0,.12-.02.25-.07.39-.12.47-.38.84-.77,1.12-.26.16-.54.25-.84.25-.14,0-.27-.01-.39-.04-.45-.12-.8-.37-1.05-.77-.98-1.59-2.2-3.2-3.66-4.82Z"/><path class="cls-1" d="M631.91,106.56c.14-.02.28-.04.42-.04.89,0,1.6.35,2.14,1.05.19.26.28.55.28.88v.28c-.09.42-.32.76-.67,1.02-.33.21-.61.4-.84.56-.54.38-1.29.96-2.25,1.76-.96.8-2.13,1.78-3.5,2.94s-2.28,1.93-2.72,2.3c-.02.02-.03.05-.02.07.01.02.03.04.05.04,1.2-.35,2.52-.53,3.97-.53,2.98,0,5.45.82,7.44,2.46,1.98,1.64,2.97,3.7,2.97,6.19,0,2.91-1.11,5.26-3.34,7.07-2.23,1.8-5.31,2.71-9.25,2.71-2.46,0-4.45-.5-5.96-1.51-1.51-1.01-2.27-2.32-2.27-3.94,0-1.34.56-2.51,1.67-3.53,1.11-1.02,2.53-1.53,4.24-1.53,2.06,0,3.74.56,5.03,1.69,1.29,1.12,2.1,2.57,2.43,4.32.02.16.12.21.28.14,2.32-1.12,3.48-2.94,3.48-5.45,0-1.66-.74-3.04-2.21-4.11-1.48-1.08-3.32-1.62-5.52-1.62-2.39,0-4.49.47-6.29,1.41-1.81.94-3.7,2.39-5.7,4.36-.35.38-.79.56-1.3.56s-.95-.18-1.3-.53c-.33-.35-.49-.75-.49-1.2,0-.54.21-.98.63-1.34,1.01-.84,2.46-2.06,4.36-3.64s3.07-2.55,3.52-2.9c4.24-3.56,6.8-5.72,7.66-6.47.05-.02.06-.06.04-.11-.02-.05-.06-.07-.11-.07-4.66.19-7.85.33-9.56.42-.4.05-.66.07-.77.07h-.18c-.42,0-.8-.14-1.12-.42-.4-.35-.6-.79-.6-1.3,0-.47.18-.86.53-1.16.33-.33.71-.49,1.16-.49h.11c.35.02.68.04.98.04,1.12,0,3.17-.05,6.13-.14,2.96-.09,4.88-.18,5.75-.25.37-.05.61-.07.7-.07ZM625.97,132.08c.87,0,1.62-.04,2.25-.11.19-.02.27-.13.25-.32-.19-1.24-.65-2.23-1.39-2.97s-1.67-1.11-2.79-1.11c-.75,0-1.37.19-1.85.56-.48.38-.72.84-.72,1.41,0,.77.4,1.39,1.2,1.85.8.46,1.82.69,3.06.69Z"/><path class="cls-1" d="M655.87,108.63h17.47c.54,0,.96-.01,1.27-.04.16-.02.23-.12.21-.28-.05-.23-.07-.47-.07-.7,0-1.15.4-2.13,1.21-2.94s1.79-1.21,2.94-1.21,2.13.4,2.95,1.21c.82.81,1.23,1.79,1.23,2.94s-.41,2.12-1.23,2.92c-.82.8-1.8,1.2-2.95,1.2-.23,0-.47-.01-.7-.04-.16-.02-.27.05-.32.21l-.11.42c-1.22,5.67-3.02,10.08-5.41,13.22-3.16,4.1-7.27,7.12-12.3,9.07-.35.12-.7.18-1.05.18-.26,0-.52-.04-.77-.11-.61-.14-1.12-.45-1.55-.91l-.28-.35c-.23-.23-.35-.5-.35-.81,0-.12.02-.25.07-.39.14-.44.43-.74.88-.88,2.77-.84,5.11-1.93,7.03-3.27,1.92-1.34,3.6-2.92,5.03-4.75,1.15-1.45,2.11-3.17,2.88-5.15.77-1.98,1.3-3.86,1.58-5.64.02-.16-.05-.25-.21-.25h-17.44c-.56,0-1.18.01-1.86.04h-.07c-.52,0-.96-.19-1.34-.56-.4-.37-.6-.83-.6-1.37s.2-.98.6-1.34c.35-.33.77-.49,1.27-.49h.11c.7.05,1.34.07,1.9.07ZM678.89,109.83c.63,0,1.17-.22,1.6-.65.43-.43.65-.95.65-1.56s-.22-1.17-.65-1.6c-.43-.43-.97-.65-1.6-.65s-1.14.22-1.58.65c-.45.43-.67.97-.67,1.6s.22,1.13.65,1.56c.43.43.97.65,1.6.65Z"/><path class="cls-1" d="M718.53,111.76v17.68l.04,2.74c0,.52-.19.96-.56,1.34-.38.38-.83.56-1.37.56h-.18c-.49,0-.9-.18-1.23-.53-.33-.33-.49-.73-.49-1.2,0-.19-.07-.28-.21-.28h-18.21c-.14,0-.21.07-.21.21,0,.49-.17.91-.51,1.27-.34.35-.76.53-1.25.53h-.14c-.54,0-1-.19-1.37-.56-.38-.37-.56-.82-.56-1.34l.04-2.74v-18.74c0-.56.2-1.03.6-1.41.4-.4.87-.6,1.41-.6h22.22c.56,0,1.04.2,1.42.6.39.4.58.88.58,1.44v1.02ZM714.73,112.57c0-.16-.08-.25-.25-.25h-18.18c-.16,0-.25.08-.25.25v15.68c0,.19.08.28.25.28h18.18c.16,0,.25-.09.25-.28v-15.68Z"/><path class="cls-1" d="M752.01,123.82c-.35.4-.79.65-1.3.74h-.35c-.4,0-.79-.11-1.16-.32-.38-.23-.6-.57-.67-1.02v-.21c0-.35.13-.67.39-.95,1.92-2.09,3.49-4.27,4.71-6.54.02-.05.02-.09,0-.12-.02-.04-.06-.05-.11-.05-.38.09-1.97.42-4.8.98-2.82.56-5.22,1.04-7.19,1.44-.16.02-.25.13-.25.32v9.91c0,.84.12,1.48.37,1.9s.72.74,1.42.95,1.75.32,3.13.32c3.16,0,6.29-.25,9.39-.74.09-.02.19-.04.28-.04.37,0,.71.13,1.02.39.35.3.53.69.53,1.16,0,.59-.2,1.1-.6,1.55-.38.4-.84.63-1.41.7-3.07.35-6.18.53-9.32.53-1.83,0-3.31-.11-4.45-.33-1.14-.22-2-.59-2.6-1.11-.6-.51-1-1.1-1.21-1.76-.21-.66-.32-1.5-.32-2.53v-10.16c0-.16-.08-.23-.25-.21-.66.14-1.34.29-2.06.44-.72.15-1.44.3-2.18.46-.74.15-1.27.26-1.6.33-.14.02-.28.04-.42.04-.35,0-.69-.11-1.02-.32-.42-.28-.68-.68-.77-1.2-.02-.12-.04-.23-.04-.35,0-.37.12-.73.35-1.05.3-.42.71-.67,1.23-.74,1.55-.26,3.71-.64,6.5-1.16.16-.02.25-.13.25-.32v-5.45l-.04-1.76c0-.49.16-.93.49-1.3.37-.42.83-.63,1.37-.63h.11c.54,0,1,.21,1.37.63.33.38.49.81.49,1.3l-.04,1.76v4.75c0,.16.08.23.25.21,7.01-1.38,11.26-2.25,12.76-2.6.23-.05.43-.09.6-.14.37-.09.74-.14,1.09-.14.7,0,1.32.21,1.86.63.37.28.61.66.7,1.12.02.14.04.27.04.39,0,.33-.09.66-.28.98-.05.07-.08.13-.11.18-1.92,3.54-3.98,6.59-6.19,9.14Z"/><path class="cls-1" d="M792.07,108.04c.21-.02.4-.04.56-.04.8,0,1.48.2,2.04.6.33.23.53.56.6.98.02.12.04.22.04.32,0,.28-.07.55-.21.81-.12.26-.21.47-.28.63-1.64,3.84-3.55,7.2-5.73,10.05-.12.14-.11.27.04.39,2.86,2.48,5.78,5.41,8.75,8.79.33.4.49.84.49,1.34v.18c-.05.59-.29,1.07-.74,1.44l-.07.07c-.35.3-.76.46-1.23.46h-.25c-.54-.05-.98-.29-1.34-.74-2.3-2.93-4.98-5.82-8.05-8.68-.14-.12-.27-.12-.39,0-3.73,3.94-7.66,7.01-11.81,9.21-.4.21-.81.32-1.23.32-.16,0-.33-.01-.49-.04-.61-.12-1.14-.4-1.58-.84l-.04-.04c-.26-.28-.39-.6-.39-.95,0-.09.01-.2.04-.32.09-.47.36-.81.81-1.02,2.44-1.12,4.78-2.55,7.01-4.29,2.24-1.73,4.2-3.55,5.89-5.45,1.2-1.34,2.32-2.87,3.38-4.59s1.82-3.29,2.29-4.69c0-.05-.02-.1-.05-.16-.04-.06-.09-.09-.16-.09h-12.94c-.49,0-1.12.02-1.9.07h-.14c-.49,0-.91-.16-1.27-.49-.42-.37-.63-.83-.63-1.37s.21-1,.63-1.37c.35-.33.77-.49,1.27-.49h.14c.77.05,1.41.07,1.9.07h13.36c.61,0,1.17-.02,1.69-.07Z"/><path class="cls-3" d="M154.47,84.6h891.02c2.57,0,3.86-3.11,2.04-4.93l-29.13-29.13"/><line class="cls-3" x1="88.45" y1="84.6" x2="132.9" y2="84.6"/><line class="cls-3" x1="38.26" y1="84.6" x2="67.76" y2="84.6"/><line class="cls-3" x1="2.39" y1="84.6" x2="17.13" y2="84.6"/><line class="cls-2" x1="3.85" y1="84.6" x2="18.6" y2="84.6"/><line class="cls-2" x1="5.73" y1="84.6" x2="20.47" y2="84.6"/><line class="cls-2" x1="34.67" y1="84.6" x2="49.42" y2="84.6"/><line class="cls-2" x1="55.58" y1="84.6" x2="70.32" y2="84.6"/><line class="cls-2" x1="85.62" y1="84.6" x2="100.37" y2="84.6"/><line class="cls-2" x1="121.17" y1="84.6" x2="135.91" y2="84.6"/><line class="cls-2" x1="151.21" y1="84.6" x2="165.96" y2="84.6"/></g></svg>